  0
SECTION
  2
BLOCKS
  0
ENDSEC
  0
SECTION
  2
ENTITIES
  0
LINE
  8
0
 10
-265.525
 11
-265.525
 20
-47.012
 21
-37.012
  0
LINE
  8
0
 10
-265.525
 11
-261.025
 20
-37.012
 21
-37.012
  0
LINE
  8
0
 10
-261.025
 11
-261.025
 20
-37.012
 21
-47.012
  0
LINE
  8
0
 10
-261.025
 11
-265.525
 20
-47.012
 21
-47.012
  0
LINE
  8
0
 10
-265.525
 11
-265.525
 20
37.012
 21
47.012
  0
LINE
  8
0
 10
-265.525
 11
-261.025
 20
47.012
 21
47.012
  0
LINE
  8
0
 10
-261.025
 11
-261.025
 20
47.012
 21
37.012
  0
LINE
  8
0
 10
-261.025
 11
-265.525
 20
37.012
 21
37.012
  0
LINE
  8
0
 10
-253.875
 11
-253.828
 20
0
 21
0.538
  0
LINE
  8
0
 10
-253.828
 11
-253.688
 20
0.538
 21
1.06
  0
LINE
  8
0
 10
-253.688
 11
-253.46
 20
1.06
 21
1.55
  0
LINE
  8
0
 10
-253.46
 11
-253.15
 20
1.55
 21
1.993
  0
LINE
  8
0
 10
-253.15
 11
-252.768
 20
1.993
 21
2.375
  0
LINE
  8
0
 10
-252.768
 11
-252.325
 20
2.375
 21
2.685
  0
LINE
  8
0
 10
-252.325
 11
-251.835
 20
2.685
 21
2.913
  0
LINE
  8
0
 10
-251.835
 11
-251.313
 20
2.913
 21
3.053
  0
LINE
  8
0
 10
-251.313
 11
-250.775
 20
3.053
 21
3.1
  0
LINE
  8
0
 10
-250.775
 11
-250.237
 20
3.1
 21
3.053
  0
LINE
  8
0
 10
-250.237
 11
-249.715
 20
3.053
 21
2.913
  0
LINE
  8
0
 10
-249.715
 11
-249.225
 20
2.913
 21
2.685
  0
LINE
  8
0
 10
-249.225
 11
-248.782
 20
2.685
 21
2.375
  0
LINE
  8
0
 10
-248.782
 11
-248.4
 20
2.375
 21
1.993
  0
LINE
  8
0
 10
-248.4
 11
-248.09
 20
1.993
 21
1.55
  0
LINE
  8
0
 10
-248.09
 11
-247.862
 20
1.55
 21
1.06
  0
LINE
  8
0
 10
-247.862
 11
-247.722
 20
1.06
 21
0.538
  0
LINE
  8
0
 10
-247.722
 11
-247.675
 20
0.538
 21
0
  0
LINE
  8
0
 10
-247.675
 11
-247.722
 20
0
 21
-0.538
  0
LINE
  8
0
 10
-247.722
 11
-247.862
 20
-0.538
 21
-1.06
  0
LINE
  8
0
 10
-247.862
 11
-248.09
 20
-1.06
 21
-1.55
  0
LINE
  8
0
 10
-248.09
 11
-248.4
 20
-1.55
 21
-1.993
  0
LINE
  8
0
 10
-248.4
 11
-248.782
 20
-1.993
 21
-2.375
  0
LINE
  8
0
 10
-248.782
 11
-249.225
 20
-2.375
 21
-2.685
  0
LINE
  8
0
 10
-249.225
 11
-249.715
 20
-2.685
 21
-2.913
  0
LINE
  8
0
 10
-249.715
 11
-250.237
 20
-2.913
 21
-3.053
  0
LINE
  8
0
 10
-250.237
 11
-250.775
 20
-3.053
 21
-3.1
  0
LINE
  8
0
 10
-250.775
 11
-251.313
 20
-3.1
 21
-3.053
  0
LINE
  8
0
 10
-251.313
 11
-251.835
 20
-3.053
 21
-2.913
  0
LINE
  8
0
 10
-251.835
 11
-252.325
 20
-2.913
 21
-2.685
  0
LINE
  8
0
 10
-252.325
 11
-252.768
 20
-2.685
 21
-2.375
  0
LINE
  8
0
 10
-252.768
 11
-253.15
 20
-2.375
 21
-1.993
  0
LINE
  8
0
 10
-253.15
 11
-253.46
 20
-1.993
 21
-1.55
  0
LINE
  8
0
 10
-253.46
 11
-253.688
 20
-1.55
 21
-1.06
  0
LINE
  8
0
 10
-253.688
 11
-253.828
 20
-1.06
 21
-0.538
  0
LINE
  8
0
 10
-253.828
 11
-253.875
 20
-0.538
 21
0
  0
LINE
  8
0
 10
-253.025
 11
-253.025
 20
-27.673
 21
-17.673
  0
LINE
  8
0
 10
-253.025
 11
-248.525
 20
-17.673
 21
-17.673
  0
LINE
  8
0
 10
-248.525
 11
-248.525
 20
-17.673
 21
-27.673
  0
LINE
  8
0
 10
-248.525
 11
-253.025
 20
-27.673
 21
-27.673
  0
LINE
  8
0
 10
-253.025
 11
-253.025
 20
17.673
 21
27.673
  0
LINE
  8
0
 10
-253.025
 11
-248.525
 20
27.673
 21
27.673
  0
LINE
  8
0
 10
-248.525
 11
-248.525
 20
27.673
 21
17.673
  0
LINE
  8
0
 10
-248.525
 11
-253.025
 20
17.673
 21
17.673
  0
LINE
  8
0
 10
-217.625
 11
-217.578
 20
51.832
 21
52.371
  0
LINE
  8
0
 10
-217.578
 11
-217.438
 20
52.371
 21
52.893
  0
LINE
  8
0
 10
-217.438
 11
-217.21
 20
52.893
 21
53.382
  0
LINE
  8
0
 10
-217.21
 11
-216.9
 20
53.382
 21
53.825
  0
LINE
  8
0
 10
-216.9
 11
-216.518
 20
53.825
 21
54.207
  0
LINE
  8
0
 10
-216.518
 11
-216.075
 20
54.207
 21
54.517
  0
LINE
  8
0
 10
-216.075
 11
-215.585
 20
54.517
 21
54.745
  0
LINE
  8
0
 10
-215.585
 11
-215.063
 20
54.745
 21
54.885
  0
LINE
  8
0
 10
-215.063
 11
-214.525
 20
54.885
 21
54.932
  0
LINE
  8
0
 10
-214.525
 11
-213.987
 20
54.932
 21
54.885
  0
LINE
  8
0
 10
-213.987
 11
-213.465
 20
54.885
 21
54.745
  0
LINE
  8
0
 10
-213.465
 11
-212.975
 20
54.745
 21
54.517
  0
LINE
  8
0
 10
-212.975
 11
-212.532
 20
54.517
 21
54.207
  0
LINE
  8
0
 10
-212.532
 11
-212.15
 20
54.207
 21
53.825
  0
LINE
  8
0
 10
-212.15
 11
-211.84
 20
53.825
 21
53.382
  0
LINE
  8
0
 10
-211.84
 11
-211.612
 20
53.382
 21
52.893
  0
LINE
  8
0
 10
-211.612
 11
-211.472
 20
52.893
 21
52.371
  0
LINE
  8
0
 10
-211.472
 11
-211.425
 20
52.371
 21
51.832
  0
LINE
  8
0
 10
-211.425
 11
-211.472
 20
51.832
 21
51.294
  0
LINE
  8
0
 10
-211.472
 11
-211.612
 20
51.294
 21
50.772
  0
LINE
  8
0
 10
-211.612
 11
-211.84
 20
50.772
 21
50.282
  0
LINE
  8
0
 10
-211.84
 11
-212.15
 20
50.282
 21
49.84
  0
LINE
  8
0
 10
-212.15
 11
-212.532
 20
49.84
 21
49.458
  0
LINE
  8
0
 10
-212.532
 11
-212.975
 20
49.458
 21
49.148
  0
LINE
  8
0
 10
-212.975
 11
-213.465
 20
49.148
 21
48.919
  0
LINE
  8
0
 10
-213.465
 11
-213.987
 20
48.919
 21
48.779
  0
LINE
  8
0
 10
-213.987
 11
-214.525
 20
48.779
 21
48.732
  0
LINE
  8
0
 10
-214.525
 11
-215.063
 20
48.732
 21
48.779
  0
LINE
  8
0
 10
-215.063
 11
-215.585
 20
48.779
 21
48.919
  0
LINE
  8
0
 10
-215.585
 11
-216.075
 20
48.919
 21
49.148
  0
LINE
  8
0
 10
-216.075
 11
-216.518
 20
49.148
 21
49.458
  0
LINE
  8
0
 10
-216.518
 11
-216.9
 20
49.458
 21
49.84
  0
LINE
  8
0
 10
-216.9
 11
-217.21
 20
49.84
 21
50.282
  0
LINE
  8
0
 10
-217.21
 11
-217.438
 20
50.282
 21
50.772
  0
LINE
  8
0
 10
-217.438
 11
-217.578
 20
50.772
 21
51.294
  0
LINE
  8
0
 10
-217.578
 11
-217.625
 20
51.294
 21
51.832
  0
LINE
  8
0
 10
-216.775
 11
-216.775
 20
28.499
 21
38.499
  0
LINE
  8
0
 10
-216.775
 11
-212.275
 20
38.499
 21
38.499
  0
LINE
  8
0
 10
-212.275
 11
-212.275
 20
38.499
 21
28.499
  0
LINE
  8
0
 10
-212.275
 11
-216.775
 20
28.499
 21
28.499
  0
LINE
  8
0
 10
-216.775
 11
-216.775
 20
65.166
 21
75.166
  0
LINE
  8
0
 10
-216.775
 11
-212.275
 20
75.166
 21
75.166
  0
LINE
  8
0
 10
-212.275
 11
-212.275
 20
75.166
 21
65.166
  0
LINE
  8
0
 10
-212.275
 11
-216.775
 20
65.166
 21
65.166
  0
LINE
  8
0
 10
-206.425
 11
-206.378
 20
0
 21
0.538
  0
LINE
  8
0
 10
-206.378
 11
-206.238
 20
0.538
 21
1.06
  0
LINE
  8
0
 10
-206.238
 11
-206.01
 20
1.06
 21
1.55
  0
LINE
  8
0
 10
-206.01
 11
-205.7
 20
1.55
 21
1.993
  0
LINE
  8
0
 10
-205.7
 11
-205.318
 20
1.993
 21
2.375
  0
LINE
  8
0
 10
-205.318
 11
-204.875
 20
2.375
 21
2.685
  0
LINE
  8
0
 10
-204.875
 11
-204.385
 20
2.685
 21
2.913
  0
LINE
  8
0
 10
-204.385
 11
-203.863
 20
2.913
 21
3.053
  0
LINE
  8
0
 10
-203.863
 11
-203.325
 20
3.053
 21
3.1
  0
LINE
  8
0
 10
-203.325
 11
-202.787
 20
3.1
 21
3.053
  0
LINE
  8
0
 10
-202.787
 11
-202.265
 20
3.053
 21
2.913
  0
LINE
  8
0
 10
-202.265
 11
-201.775
 20
2.913
 21
2.685
  0
LINE
  8
0
 10
-201.775
 11
-201.332
 20
2.685
 21
2.375
  0
LINE
  8
0
 10
-201.332
 11
-200.95
 20
2.375
 21
1.993
  0
LINE
  8
0
 10
-200.95
 11
-200.64
 20
1.993
 21
1.55
  0
LINE
  8
0
 10
-200.64
 11
-200.412
 20
1.55
 21
1.06
  0
LINE
  8
0
 10
-200.412
 11
-200.272
 20
1.06
 21
0.538
  0
LINE
  8
0
 10
-200.272
 11
-200.225
 20
0.538
 21
0
  0
LINE
  8
0
 10
-200.225
 11
-200.272
 20
0
 21
-0.538
  0
LINE
  8
0
 10
-200.272
 11
-200.412
 20
-0.538
 21
-1.06
  0
LINE
  8
0
 10
-200.412
 11
-200.64
 20
-1.06
 21
-1.55
  0
LINE
  8
0
 10
-200.64
 11
-200.95
 20
-1.55
 21
-1.993
  0
LINE
  8
0
 10
-200.95
 11
-201.332
 20
-1.993
 21
-2.375
  0
LINE
  8
0
 10
-201.332
 11
-201.775
 20
-2.375
 21
-2.685
  0
LINE
  8
0
 10
-201.775
 11
-202.265
 20
-2.685
 21
-2.913
  0
LINE
  8
0
 10
-202.265
 11
-202.787
 20
-2.913
 21
-3.053
  0
LINE
  8
0
 10
-202.787
 11
-203.325
 20
-3.053
 21
-3.1
  0
LINE
  8
0
 10
-203.325
 11
-203.863
 20
-3.1
 21
-3.053
  0
LINE
  8
0
 10
-203.863
 11
-204.385
 20
-3.053
 21
-2.913
  0
LINE
  8
0
 10
-204.385
 11
-204.875
 20
-2.913
 21
-2.685
  0
LINE
  8
0
 10
-204.875
 11
-205.318
 20
-2.685
 21
-2.375
  0
LINE
  8
0
 10
-205.318
 11
-205.7
 20
-2.375
 21
-1.993
  0
LINE
  8
0
 10
-205.7
 11
-206.01
 20
-1.993
 21
-1.55
  0
LINE
  8
0
 10
-206.01
 11
-206.238
 20
-1.55
 21
-1.06
  0
LINE
  8
0
 10
-206.238
 11
-206.378
 20
-1.06
 21
-0.538
  0
LINE
  8
0
 10
-206.378
 11
-206.425
 20
-0.538
 21
0
  0
LINE
  8
0
 10
-205.575
 11
-205.575
 20
-27.673
 21
-17.673
  0
LINE
  8
0
 10
-205.575
 11
-201.075
 20
-17.673
 21
-17.673
  0
LINE
  8
0
 10
-201.075
 11
-201.075
 20
-17.673
 21
-27.673
  0
LINE
  8
0
 10
-201.075
 11
-205.575
 20
-27.673
 21
-27.673
  0
LINE
  8
0
 10
-205.575
 11
-205.575
 20
17.673
 21
27.673
  0
LINE
  8
0
 10
-205.575
 11
-201.075
 20
27.673
 21
27.673
  0
LINE
  8
0
 10
-201.075
 11
-201.075
 20
27.673
 21
17.673
  0
LINE
  8
0
 10
-201.075
 11
-205.575
 20
17.673
 21
17.673
  0
LINE
  8
0
 10
-195.225
 11
-195.178
 20
51.832
 21
52.371
  0
LINE
  8
0
 10
-195.178
 11
-195.038
 20
52.371
 21
52.893
  0
LINE
  8
0
 10
-195.038
 11
-194.81
 20
52.893
 21
53.382
  0
LINE
  8
0
 10
-194.81
 11
-194.5
 20
53.382
 21
53.825
  0
LINE
  8
0
 10
-194.5
 11
-194.118
 20
53.825
 21
54.207
  0
LINE
  8
0
 10
-194.118
 11
-193.675
 20
54.207
 21
54.517
  0
LINE
  8
0
 10
-193.675
 11
-193.185
 20
54.517
 21
54.745
  0
LINE
  8
0
 10
-193.185
 11
-192.663
 20
54.745
 21
54.885
  0
LINE
  8
0
 10
-192.663
 11
-192.125
 20
54.885
 21
54.932
  0
LINE
  8
0
 10
-192.125
 11
-191.587
 20
54.932
 21
54.885
  0
LINE
  8
0
 10
-191.587
 11
-191.065
 20
54.885
 21
54.745
  0
LINE
  8
0
 10
-191.065
 11
-190.575
 20
54.745
 21
54.517
  0
LINE
  8
0
 10
-190.575
 11
-190.132
 20
54.517
 21
54.207
  0
LINE
  8
0
 10
-190.132
 11
-189.75
 20
54.207
 21
53.825
  0
LINE
  8
0
 10
-189.75
 11
-189.44
 20
53.825
 21
53.382
  0
LINE
  8
0
 10
-189.44
 11
-189.212
 20
53.382
 21
52.893
  0
LINE
  8
0
 10
-189.212
 11
-189.072
 20
52.893
 21
52.371
  0
LINE
  8
0
 10
-189.072
 11
-189.025
 20
52.371
 21
51.832
  0
LINE
  8
0
 10
-189.025
 11
-189.072
 20
51.832
 21
51.294
  0
LINE
  8
0
 10
-189.072
 11
-189.212
 20
51.294
 21
50.772
  0
LINE
  8
0
 10
-189.212
 11
-189.44
 20
50.772
 21
50.282
  0
LINE
  8
0
 10
-189.44
 11
-189.75
 20
50.282
 21
49.84
  0
LINE
  8
0
 10
-189.75
 11
-190.132
 20
49.84
 21
49.458
  0
LINE
  8
0
 10
-190.132
 11
-190.575
 20
49.458
 21
49.148
  0
LINE
  8
0
 10
-190.575
 11
-191.065
 20
49.148
 21
48.919
  0
LINE
  8
0
 10
-191.065
 11
-191.587
 20
48.919
 21
48.779
  0
LINE
  8
0
 10
-191.587
 11
-192.125
 20
48.779
 21
48.732
  0
LINE
  8
0
 10
-192.125
 11
-192.663
 20
48.732
 21
48.779
  0
LINE
  8
0
 10
-192.663
 11
-193.185
 20
48.779
 21
48.919
  0
LINE
  8
0
 10
-193.185
 11
-193.675
 20
48.919
 21
49.148
  0
LINE
  8
0
 10
-193.675
 11
-194.118
 20
49.148
 21
49.458
  0
LINE
  8
0
 10
-194.118
 11
-194.5
 20
49.458
 21
49.84
  0
LINE
  8
0
 10
-194.5
 11
-194.81
 20
49.84
 21
50.282
  0
LINE
  8
0
 10
-194.81
 11
-195.038
 20
50.282
 21
50.772
  0
LINE
  8
0
 10
-195.038
 11
-195.178
 20
50.772
 21
51.294
  0
LINE
  8
0
 10
-195.178
 11
-195.225
 20
51.294
 21
51.832
  0
LINE
  8
0
 10
-194.375
 11
-194.375
 20
28.499
 21
38.499
  0
LINE
  8
0
 10
-194.375
 11
-189.875
 20
38.499
 21
38.499
  0
LINE
  8
0
 10
-189.875
 11
-189.875
 20
38.499
 21
28.499
  0
LINE
  8
0
 10
-189.875
 11
-194.375
 20
28.499
 21
28.499
  0
LINE
  8
0
 10
-194.375
 11
-194.375
 20
65.166
 21
75.166
  0
LINE
  8
0
 10
-194.375
 11
-189.875
 20
75.166
 21
75.166
  0
LINE
  8
0
 10
-189.875
 11
-189.875
 20
75.166
 21
65.166
  0
LINE
  8
0
 10
-189.875
 11
-194.375
 20
65.166
 21
65.166
  0
LINE
  8
0
 10
-170.175
 11
-170.128
 20
51.832
 21
52.371
  0
LINE
  8
0
 10
-170.128
 11
-169.988
 20
52.371
 21
52.893
  0
LINE
  8
0
 10
-169.988
 11
-169.76
 20
52.893
 21
53.382
  0
LINE
  8
0
 10
-169.76
 11
-169.45
 20
53.382
 21
53.825
  0
LINE
  8
0
 10
-169.45
 11
-169.068
 20
53.825
 21
54.207
  0
LINE
  8
0
 10
-169.068
 11
-168.625
 20
54.207
 21
54.517
  0
LINE
  8
0
 10
-168.625
 11
-168.135
 20
54.517
 21
54.745
  0
LINE
  8
0
 10
-168.135
 11
-167.613
 20
54.745
 21
54.885
  0
LINE
  8
0
 10
-167.613
 11
-167.075
 20
54.885
 21
54.932
  0
LINE
  8
0
 10
-167.075
 11
-166.537
 20
54.932
 21
54.885
  0
LINE
  8
0
 10
-166.537
 11
-166.015
 20
54.885
 21
54.745
  0
LINE
  8
0
 10
-166.015
 11
-165.525
 20
54.745
 21
54.517
  0
LINE
  8
0
 10
-165.525
 11
-165.082
 20
54.517
 21
54.207
  0
LINE
  8
0
 10
-165.082
 11
-164.7
 20
54.207
 21
53.825
  0
LINE
  8
0
 10
-164.7
 11
-164.39
 20
53.825
 21
53.382
  0
LINE
  8
0
 10
-164.39
 11
-164.162
 20
53.382
 21
52.893
  0
LINE
  8
0
 10
-164.162
 11
-164.022
 20
52.893
 21
52.371
  0
LINE
  8
0
 10
-164.022
 11
-163.975
 20
52.371
 21
51.832
  0
LINE
  8
0
 10
-163.975
 11
-164.022
 20
51.832
 21
51.294
  0
LINE
  8
0
 10
-164.022
 11
-164.162
 20
51.294
 21
50.772
  0
LINE
  8
0
 10
-164.162
 11
-164.39
 20
50.772
 21
50.282
  0
LINE
  8
0
 10
-164.39
 11
-164.7
 20
50.282
 21
49.84
  0
LINE
  8
0
 10
-164.7
 11
-165.082
 20
49.84
 21
49.458
  0
LINE
  8
0
 10
-165.082
 11
-165.525
 20
49.458
 21
49.148
  0
LINE
  8
0
 10
-165.525
 11
-166.015
 20
49.148
 21
48.919
  0
LINE
  8
0
 10
-166.015
 11
-166.537
 20
48.919
 21
48.779
  0
LINE
  8
0
 10
-166.537
 11
-167.075
 20
48.779
 21
48.732
  0
LINE
  8
0
 10
-167.075
 11
-167.613
 20
48.732
 21
48.779
  0
LINE
  8
0
 10
-167.613
 11
-168.135
 20
48.779
 21
48.919
  0
LINE
  8
0
 10
-168.135
 11
-168.625
 20
48.919
 21
49.148
  0
LINE
  8
0
 10
-168.625
 11
-169.068
 20
49.148
 21
49.458
  0
LINE
  8
0
 10
-169.068
 11
-169.45
 20
49.458
 21
49.84
  0
LINE
  8
0
 10
-169.45
 11
-169.76
 20
49.84
 21
50.282
  0
LINE
  8
0
 10
-169.76
 11
-169.988
 20
50.282
 21
50.772
  0
LINE
  8
0
 10
-169.988
 11
-170.128
 20
50.772
 21
51.294
  0
LINE
  8
0
 10
-170.128
 11
-170.175
 20
51.294
 21
51.832
  0
LINE
  8
0
 10
-169.325
 11
-169.325
 20
28.499
 21
38.499
  0
LINE
  8
0
 10
-169.325
 11
-164.825
 20
38.499
 21
38.499
  0
LINE
  8
0
 10
-164.825
 11
-164.825
 20
38.499
 21
28.499
  0
LINE
  8
0
 10
-164.825
 11
-169.325
 20
28.499
 21
28.499
  0
LINE
  8
0
 10
-169.325
 11
-169.325
 20
65.166
 21
75.166
  0
LINE
  8
0
 10
-169.325
 11
-164.825
 20
75.166
 21
75.166
  0
LINE
  8
0
 10
-164.825
 11
-164.825
 20
75.166
 21
65.166
  0
LINE
  8
0
 10
-164.825
 11
-169.325
 20
65.166
 21
65.166
  0
LINE
  8
0
 10
-158.975
 11
-158.928
 20
0
 21
0.538
  0
LINE
  8
0
 10
-158.928
 11
-158.788
 20
0.538
 21
1.06
  0
LINE
  8
0
 10
-158.788
 11
-158.56
 20
1.06
 21
1.55
  0
LINE
  8
0
 10
-158.56
 11
-158.25
 20
1.55
 21
1.993
  0
LINE
  8
0
 10
-158.25
 11
-157.868
 20
1.993
 21
2.375
  0
LINE
  8
0
 10
-157.868
 11
-157.425
 20
2.375
 21
2.685
  0
LINE
  8
0
 10
-157.425
 11
-156.935
 20
2.685
 21
2.913
  0
LINE
  8
0
 10
-156.935
 11
-156.413
 20
2.913
 21
3.053
  0
LINE
  8
0
 10
-156.413
 11
-155.875
 20
3.053
 21
3.1
  0
LINE
  8
0
 10
-155.875
 11
-155.337
 20
3.1
 21
3.053
  0
LINE
  8
0
 10
-155.337
 11
-154.815
 20
3.053
 21
2.913
  0
LINE
  8
0
 10
-154.815
 11
-154.325
 20
2.913
 21
2.685
  0
LINE
  8
0
 10
-154.325
 11
-153.882
 20
2.685
 21
2.375
  0
LINE
  8
0
 10
-153.882
 11
-153.5
 20
2.375
 21
1.993
  0
LINE
  8
0
 10
-153.5
 11
-153.19
 20
1.993
 21
1.55
  0
LINE
  8
0
 10
-153.19
 11
-152.962
 20
1.55
 21
1.06
  0
LINE
  8
0
 10
-152.962
 11
-152.822
 20
1.06
 21
0.538
  0
LINE
  8
0
 10
-152.822
 11
-152.775
 20
0.538
 21
0
  0
LINE
  8
0
 10
-152.775
 11
-152.822
 20
0
 21
-0.538
  0
LINE
  8
0
 10
-152.822
 11
-152.962
 20
-0.538
 21
-1.06
  0
LINE
  8
0
 10
-152.962
 11
-153.19
 20
-1.06
 21
-1.55
  0
LINE
  8
0
 10
-153.19
 11
-153.5
 20
-1.55
 21
-1.993
  0
LINE
  8
0
 10
-153.5
 11
-153.882
 20
-1.993
 21
-2.375
  0
LINE
  8
0
 10
-153.882
 11
-154.325
 20
-2.375
 21
-2.685
  0
LINE
  8
0
 10
-154.325
 11
-154.815
 20
-2.685
 21
-2.913
  0
LINE
  8
0
 10
-154.815
 11
-155.337
 20
-2.913
 21
-3.053
  0
LINE
  8
0
 10
-155.337
 11
-155.875
 20
-3.053
 21
-3.1
  0
LINE
  8
0
 10
-155.875
 11
-156.413
 20
-3.1
 21
-3.053
  0
LINE
  8
0
 10
-156.413
 11
-156.935
 20
-3.053
 21
-2.913
  0
LINE
  8
0
 10
-156.935
 11
-157.425
 20
-2.913
 21
-2.685
  0
LINE
  8
0
 10
-157.425
 11
-157.868
 20
-2.685
 21
-2.375
  0
LINE
  8
0
 10
-157.868
 11
-158.25
 20
-2.375
 21
-1.993
  0
LINE
  8
0
 10
-158.25
 11
-158.56
 20
-1.993
 21
-1.55
  0
LINE
  8
0
 10
-158.56
 11
-158.788
 20
-1.55
 21
-1.06
  0
LINE
  8
0
 10
-158.788
 11
-158.928
 20
-1.06
 21
-0.538
  0
LINE
  8
0
 10
-158.928
 11
-158.975
 20
-0.538
 21
0
  0
LINE
  8
0
 10
-158.125
 11
-158.125
 20
-27.673
 21
-17.673
  0
LINE
  8
0
 10
-158.125
 11
-153.625
 20
-17.673
 21
-17.673
  0
LINE
  8
0
 10
-153.625
 11
-153.625
 20
-17.673
 21
-27.673
  0
LINE
  8
0
 10
-153.625
 11
-158.125
 20
-27.673
 21
-27.673
  0
LINE
  8
0
 10
-158.125
 11
-158.125
 20
17.673
 21
27.673
  0
LINE
  8
0
 10
-158.125
 11
-153.625
 20
27.673
 21
27.673
  0
LINE
  8
0
 10
-153.625
 11
-153.625
 20
27.673
 21
17.673
  0
LINE
  8
0
 10
-153.625
 11
-158.125
 20
17.673
 21
17.673
  0
LINE
  8
0
 10
-147.775
 11
-147.728
 20
51.832
 21
52.371
  0
LINE
  8
0
 10
-147.728
 11
-147.588
 20
52.371
 21
52.893
  0
LINE
  8
0
 10
-147.588
 11
-147.36
 20
52.893
 21
53.382
  0
LINE
  8
0
 10
-147.36
 11
-147.05
 20
53.382
 21
53.825
  0
LINE
  8
0
 10
-147.05
 11
-146.668
 20
53.825
 21
54.207
  0
LINE
  8
0
 10
-146.668
 11
-146.225
 20
54.207
 21
54.517
  0
LINE
  8
0
 10
-146.225
 11
-145.735
 20
54.517
 21
54.745
  0
LINE
  8
0
 10
-145.735
 11
-145.213
 20
54.745
 21
54.885
  0
LINE
  8
0
 10
-145.213
 11
-144.675
 20
54.885
 21
54.932
  0
LINE
  8
0
 10
-144.675
 11
-144.137
 20
54.932
 21
54.885
  0
LINE
  8
0
 10
-144.137
 11
-143.615
 20
54.885
 21
54.745
  0
LINE
  8
0
 10
-143.615
 11
-143.125
 20
54.745
 21
54.517
  0
LINE
  8
0
 10
-143.125
 11
-142.682
 20
54.517
 21
54.207
  0
LINE
  8
0
 10
-142.682
 11
-142.3
 20
54.207
 21
53.825
  0
LINE
  8
0
 10
-142.3
 11
-141.99
 20
53.825
 21
53.382
  0
LINE
  8
0
 10
-141.99
 11
-141.762
 20
53.382
 21
52.893
  0
LINE
  8
0
 10
-141.762
 11
-141.622
 20
52.893
 21
52.371
  0
LINE
  8
0
 10
-141.622
 11
-141.575
 20
52.371
 21
51.832
  0
LINE
  8
0
 10
-141.575
 11
-141.622
 20
51.832
 21
51.294
  0
LINE
  8
0
 10
-141.622
 11
-141.762
 20
51.294
 21
50.772
  0
LINE
  8
0
 10
-141.762
 11
-141.99
 20
50.772
 21
50.282
  0
LINE
  8
0
 10
-141.99
 11
-142.3
 20
50.282
 21
49.84
  0
LINE
  8
0
 10
-142.3
 11
-142.682
 20
49.84
 21
49.458
  0
LINE
  8
0
 10
-142.682
 11
-143.125
 20
49.458
 21
49.148
  0
LINE
  8
0
 10
-143.125
 11
-143.615
 20
49.148
 21
48.919
  0
LINE
  8
0
 10
-143.615
 11
-144.137
 20
48.919
 21
48.779
  0
LINE
  8
0
 10
-144.137
 11
-144.675
 20
48.779
 21
48.732
  0
LINE
  8
0
 10
-144.675
 11
-145.213
 20
48.732
 21
48.779
  0
LINE
  8
0
 10
-145.213
 11
-145.735
 20
48.779
 21
48.919
  0
LINE
  8
0
 10
-145.735
 11
-146.225
 20
48.919
 21
49.148
  0
LINE
  8
0
 10
-146.225
 11
-146.668
 20
49.148
 21
49.458
  0
LINE
  8
0
 10
-146.668
 11
-147.05
 20
49.458
 21
49.84
  0
LINE
  8
0
 10
-147.05
 11
-147.36
 20
49.84
 21
50.282
  0
LINE
  8
0
 10
-147.36
 11
-147.588
 20
50.282
 21
50.772
  0
LINE
  8
0
 10
-147.588
 11
-147.728
 20
50.772
 21
51.294
  0
LINE
  8
0
 10
-147.728
 11
-147.775
 20
51.294
 21
51.832
  0
LINE
  8
0
 10
-146.925
 11
-146.925
 20
28.499
 21
38.499
  0
LINE
  8
0
 10
-146.925
 11
-142.425
 20
38.499
 21
38.499
  0
LINE
  8
0
 10
-142.425
 11
-142.425
 20
38.499
 21
28.499
  0
LINE
  8
0
 10
-142.425
 11
-146.925
 20
28.499
 21
28.499
  0
LINE
  8
0
 10
-146.925
 11
-146.925
 20
65.166
 21
75.166
  0
LINE
  8
0
 10
-146.925
 11
-142.425
 20
75.166
 21
75.166
  0
LINE
  8
0
 10
-142.425
 11
-142.425
 20
75.166
 21
65.166
  0
LINE
  8
0
 10
-142.425
 11
-146.925
 20
65.166
 21
65.166
  0
LINE
  8
0
 10
-122.725
 11
-122.678
 20
51.832
 21
52.371
  0
LINE
  8
0
 10
-122.678
 11
-122.538
 20
52.371
 21
52.893
  0
LINE
  8
0
 10
-122.538
 11
-122.31
 20
52.893
 21
53.382
  0
LINE
  8
0
 10
-122.31
 11
-122
 20
53.382
 21
53.825
  0
LINE
  8
0
 10
-122
 11
-121.618
 20
53.825
 21
54.207
  0
LINE
  8
0
 10
-121.618
 11
-121.175
 20
54.207
 21
54.517
  0
LINE
  8
0
 10
-121.175
 11
-120.685
 20
54.517
 21
54.745
  0
LINE
  8
0
 10
-120.685
 11
-120.163
 20
54.745
 21
54.885
  0
LINE
  8
0
 10
-120.163
 11
-119.625
 20
54.885
 21
54.932
  0
LINE
  8
0
 10
-119.625
 11
-119.087
 20
54.932
 21
54.885
  0
LINE
  8
0
 10
-119.087
 11
-118.565
 20
54.885
 21
54.745
  0
LINE
  8
0
 10
-118.565
 11
-118.075
 20
54.745
 21
54.517
  0
LINE
  8
0
 10
-118.075
 11
-117.632
 20
54.517
 21
54.207
  0
LINE
  8
0
 10
-117.632
 11
-117.25
 20
54.207
 21
53.825
  0
LINE
  8
0
 10
-117.25
 11
-116.94
 20
53.825
 21
53.382
  0
LINE
  8
0
 10
-116.94
 11
-116.712
 20
53.382
 21
52.893
  0
LINE
  8
0
 10
-116.712
 11
-116.572
 20
52.893
 21
52.371
  0
LINE
  8
0
 10
-116.572
 11
-116.525
 20
52.371
 21
51.832
  0
LINE
  8
0
 10
-116.525
 11
-116.572
 20
51.832
 21
51.294
  0
LINE
  8
0
 10
-116.572
 11
-116.712
 20
51.294
 21
50.772
  0
LINE
  8
0
 10
-116.712
 11
-116.94
 20
50.772
 21
50.282
  0
LINE
  8
0
 10
-116.94
 11
-117.25
 20
50.282
 21
49.84
  0
LINE
  8
0
 10
-117.25
 11
-117.632
 20
49.84
 21
49.458
  0
LINE
  8
0
 10
-117.632
 11
-118.075
 20
49.458
 21
49.148
  0
LINE
  8
0
 10
-118.075
 11
-118.565
 20
49.148
 21
48.919
  0
LINE
  8
0
 10
-118.565
 11
-119.087
 20
48.919
 21
48.779
  0
LINE
  8
0
 10
-119.087
 11
-119.625
 20
48.779
 21
48.732
  0
LINE
  8
0
 10
-119.625
 11
-120.163
 20
48.732
 21
48.779
  0
LINE
  8
0
 10
-120.163
 11
-120.685
 20
48.779
 21
48.919
  0
LINE
  8
0
 10
-120.685
 11
-121.175
 20
48.919
 21
49.148
  0
LINE
  8
0
 10
-121.175
 11
-121.618
 20
49.148
 21
49.458
  0
LINE
  8
0
 10
-121.618
 11
-122
 20
49.458
 21
49.84
  0
LINE
  8
0
 10
-122
 11
-122.31
 20
49.84
 21
50.282
  0
LINE
  8
0
 10
-122.31
 11
-122.538
 20
50.282
 21
50.772
  0
LINE
  8
0
 10
-122.538
 11
-122.678
 20
50.772
 21
51.294
  0
LINE
  8
0
 10
-122.678
 11
-122.725
 20
51.294
 21
51.832
  0
LINE
  8
0
 10
-121.875
 11
-121.875
 20
28.499
 21
38.499
  0
LINE
  8
0
 10
-121.875
 11
-117.375
 20
38.499
 21
38.499
  0
LINE
  8
0
 10
-117.375
 11
-117.375
 20
38.499
 21
28.499
  0
LINE
  8
0
 10
-117.375
 11
-121.875
 20
28.499
 21
28.499
  0
LINE
  8
0
 10
-121.875
 11
-121.875
 20
65.166
 21
75.166
  0
LINE
  8
0
 10
-121.875
 11
-117.375
 20
75.166
 21
75.166
  0
LINE
  8
0
 10
-117.375
 11
-117.375
 20
75.166
 21
65.166
  0
LINE
  8
0
 10
-117.375
 11
-121.875
 20
65.166
 21
65.166
  0
LINE
  8
0
 10
-111.525
 11
-111.478
 20
0
 21
0.538
  0
LINE
  8
0
 10
-111.478
 11
-111.338
 20
0.538
 21
1.06
  0
LINE
  8
0
 10
-111.338
 11
-111.11
 20
1.06
 21
1.55
  0
LINE
  8
0
 10
-111.11
 11
-110.8
 20
1.55
 21
1.993
  0
LINE
  8
0
 10
-110.8
 11
-110.418
 20
1.993
 21
2.375
  0
LINE
  8
0
 10
-110.418
 11
-109.975
 20
2.375
 21
2.685
  0
LINE
  8
0
 10
-109.975
 11
-109.485
 20
2.685
 21
2.913
  0
LINE
  8
0
 10
-109.485
 11
-108.963
 20
2.913
 21
3.053
  0
LINE
  8
0
 10
-108.963
 11
-108.425
 20
3.053
 21
3.1
  0
LINE
  8
0
 10
-108.425
 11
-107.887
 20
3.1
 21
3.053
  0
LINE
  8
0
 10
-107.887
 11
-107.365
 20
3.053
 21
2.913
  0
LINE
  8
0
 10
-107.365
 11
-106.875
 20
2.913
 21
2.685
  0
LINE
  8
0
 10
-106.875
 11
-106.432
 20
2.685
 21
2.375
  0
LINE
  8
0
 10
-106.432
 11
-106.05
 20
2.375
 21
1.993
  0
LINE
  8
0
 10
-106.05
 11
-105.74
 20
1.993
 21
1.55
  0
LINE
  8
0
 10
-105.74
 11
-105.512
 20
1.55
 21
1.06
  0
LINE
  8
0
 10
-105.512
 11
-105.372
 20
1.06
 21
0.538
  0
LINE
  8
0
 10
-105.372
 11
-105.325
 20
0.538
 21
0
  0
LINE
  8
0
 10
-105.325
 11
-105.372
 20
0
 21
-0.538
  0
LINE
  8
0
 10
-105.372
 11
-105.512
 20
-0.538
 21
-1.06
  0
LINE
  8
0
 10
-105.512
 11
-105.74
 20
-1.06
 21
-1.55
  0
LINE
  8
0
 10
-105.74
 11
-106.05
 20
-1.55
 21
-1.993
  0
LINE
  8
0
 10
-106.05
 11
-106.432
 20
-1.993
 21
-2.375
  0
LINE
  8
0
 10
-106.432
 11
-106.875
 20
-2.375
 21
-2.685
  0
LINE
  8
0
 10
-106.875
 11
-107.365
 20
-2.685
 21
-2.913
  0
LINE
  8
0
 10
-107.365
 11
-107.887
 20
-2.913
 21
-3.053
  0
LINE
  8
0
 10
-107.887
 11
-108.425
 20
-3.053
 21
-3.1
  0
LINE
  8
0
 10
-108.425
 11
-108.963
 20
-3.1
 21
-3.053
  0
LINE
  8
0
 10
-108.963
 11
-109.485
 20
-3.053
 21
-2.913
  0
LINE
  8
0
 10
-109.485
 11
-109.975
 20
-2.913
 21
-2.685
  0
LINE
  8
0
 10
-109.975
 11
-110.418
 20
-2.685
 21
-2.375
  0
LINE
  8
0
 10
-110.418
 11
-110.8
 20
-2.375
 21
-1.993
  0
LINE
  8
0
 10
-110.8
 11
-111.11
 20
-1.993
 21
-1.55
  0
LINE
  8
0
 10
-111.11
 11
-111.338
 20
-1.55
 21
-1.06
  0
LINE
  8
0
 10
-111.338
 11
-111.478
 20
-1.06
 21
-0.538
  0
LINE
  8
0
 10
-111.478
 11
-111.525
 20
-0.538
 21
0
  0
LINE
  8
0
 10
-110.675
 11
-110.675
 20
-27.673
 21
-17.673
  0
LINE
  8
0
 10
-110.675
 11
-106.175
 20
-17.673
 21
-17.673
  0
LINE
  8
0
 10
-106.175
 11
-106.175
 20
-17.673
 21
-27.673
  0
LINE
  8
0
 10
-106.175
 11
-110.675
 20
-27.673
 21
-27.673
  0
LINE
  8
0
 10
-110.675
 11
-110.675
 20
17.673
 21
27.673
  0
LINE
  8
0
 10
-110.675
 11
-106.175
 20
27.673
 21
27.673
  0
LINE
  8
0
 10
-106.175
 11
-106.175
 20
27.673
 21
17.673
  0
LINE
  8
0
 10
-106.175
 11
-110.675
 20
17.673
 21
17.673
  0
LINE
  8
0
 10
-100.325
 11
-100.278
 20
51.832
 21
52.371
  0
LINE
  8
0
 10
-100.278
 11
-100.138
 20
52.371
 21
52.893
  0
LINE
  8
0
 10
-100.138
 11
-99.91
 20
52.893
 21
53.382
  0
LINE
  8
0
 10
-99.91
 11
-99.6
 20
53.382
 21
53.825
  0
LINE
  8
0
 10
-99.6
 11
-99.218
 20
53.825
 21
54.207
  0
LINE
  8
0
 10
-99.218
 11
-98.775
 20
54.207
 21
54.517
  0
LINE
  8
0
 10
-98.775
 11
-98.285
 20
54.517
 21
54.745
  0
LINE
  8
0
 10
-98.285
 11
-97.763
 20
54.745
 21
54.885
  0
LINE
  8
0
 10
-97.763
 11
-97.225
 20
54.885
 21
54.932
  0
LINE
  8
0
 10
-97.225
 11
-96.687
 20
54.932
 21
54.885
  0
LINE
  8
0
 10
-96.687
 11
-96.165
 20
54.885
 21
54.745
  0
LINE
  8
0
 10
-96.165
 11
-95.675
 20
54.745
 21
54.517
  0
LINE
  8
0
 10
-95.675
 11
-95.232
 20
54.517
 21
54.207
  0
LINE
  8
0
 10
-95.232
 11
-94.85
 20
54.207
 21
53.825
  0
LINE
  8
0
 10
-94.85
 11
-94.54
 20
53.825
 21
53.382
  0
LINE
  8
0
 10
-94.54
 11
-94.312
 20
53.382
 21
52.893
  0
LINE
  8
0
 10
-94.312
 11
-94.172
 20
52.893
 21
52.371
  0
LINE
  8
0
 10
-94.172
 11
-94.125
 20
52.371
 21
51.832
  0
LINE
  8
0
 10
-94.125
 11
-94.172
 20
51.832
 21
51.294
  0
LINE
  8
0
 10
-94.172
 11
-94.312
 20
51.294
 21
50.772
  0
LINE
  8
0
 10
-94.312
 11
-94.54
 20
50.772
 21
50.282
  0
LINE
  8
0
 10
-94.54
 11
-94.85
 20
50.282
 21
49.84
  0
LINE
  8
0
 10
-94.85
 11
-95.232
 20
49.84
 21
49.458
  0
LINE
  8
0
 10
-95.232
 11
-95.675
 20
49.458
 21
49.148
  0
LINE
  8
0
 10
-95.675
 11
-96.165
 20
49.148
 21
48.919
  0
LINE
  8
0
 10
-96.165
 11
-96.687
 20
48.919
 21
48.779
  0
LINE
  8
0
 10
-96.687
 11
-97.225
 20
48.779
 21
48.732
  0
LINE
  8
0
 10
-97.225
 11
-97.763
 20
48.732
 21
48.779
  0
LINE
  8
0
 10
-97.763
 11
-98.285
 20
48.779
 21
48.919
  0
LINE
  8
0
 10
-98.285
 11
-98.775
 20
48.919
 21
49.148
  0
LINE
  8
0
 10
-98.775
 11
-99.218
 20
49.148
 21
49.458
  0
LINE
  8
0
 10
-99.218
 11
-99.6
 20
49.458
 21
49.84
  0
LINE
  8
0
 10
-99.6
 11
-99.91
 20
49.84
 21
50.282
  0
LINE
  8
0
 10
-99.91
 11
-100.138
 20
50.282
 21
50.772
  0
LINE
  8
0
 10
-100.138
 11
-100.278
 20
50.772
 21
51.294
  0
LINE
  8
0
 10
-100.278
 11
-100.325
 20
51.294
 21
51.832
  0
LINE
  8
0
 10
-99.475
 11
-99.475
 20
28.499
 21
38.499
  0
LINE
  8
0
 10
-99.475
 11
-94.975
 20
38.499
 21
38.499
  0
LINE
  8
0
 10
-94.975
 11
-94.975
 20
38.499
 21
28.499
  0
LINE
  8
0
 10
-94.975
 11
-99.475
 20
28.499
 21
28.499
  0
LINE
  8
0
 10
-99.475
 11
-99.475
 20
65.166
 21
75.166
  0
LINE
  8
0
 10
-99.475
 11
-94.975
 20
75.166
 21
75.166
  0
LINE
  8
0
 10
-94.975
 11
-94.975
 20
75.166
 21
65.166
  0
LINE
  8
0
 10
-94.975
 11
-99.475
 20
65.166
 21
65.166
  0
LINE
  8
0
 10
-75.275
 11
-75.228
 20
51.832
 21
52.371
  0
LINE
  8
0
 10
-75.228
 11
-75.088
 20
52.371
 21
52.893
  0
LINE
  8
0
 10
-75.088
 11
-74.86
 20
52.893
 21
53.382
  0
LINE
  8
0
 10
-74.86
 11
-74.55
 20
53.382
 21
53.825
  0
LINE
  8
0
 10
-74.55
 11
-74.168
 20
53.825
 21
54.207
  0
LINE
  8
0
 10
-74.168
 11
-73.725
 20
54.207
 21
54.517
  0
LINE
  8
0
 10
-73.725
 11
-73.235
 20
54.517
 21
54.745
  0
LINE
  8
0
 10
-73.235
 11
-72.713
 20
54.745
 21
54.885
  0
LINE
  8
0
 10
-72.713
 11
-72.175
 20
54.885
 21
54.932
  0
LINE
  8
0
 10
-72.175
 11
-71.637
 20
54.932
 21
54.885
  0
LINE
  8
0
 10
-71.637
 11
-71.115
 20
54.885
 21
54.745
  0
LINE
  8
0
 10
-71.115
 11
-70.625
 20
54.745
 21
54.517
  0
LINE
  8
0
 10
-70.625
 11
-70.182
 20
54.517
 21
54.207
  0
LINE
  8
0
 10
-70.182
 11
-69.8
 20
54.207
 21
53.825
  0
LINE
  8
0
 10
-69.8
 11
-69.49
 20
53.825
 21
53.382
  0
LINE
  8
0
 10
-69.49
 11
-69.262
 20
53.382
 21
52.893
  0
LINE
  8
0
 10
-69.262
 11
-69.122
 20
52.893
 21
52.371
  0
LINE
  8
0
 10
-69.122
 11
-69.075
 20
52.371
 21
51.832
  0
LINE
  8
0
 10
-69.075
 11
-69.122
 20
51.832
 21
51.294
  0
LINE
  8
0
 10
-69.122
 11
-69.262
 20
51.294
 21
50.772
  0
LINE
  8
0
 10
-69.262
 11
-69.49
 20
50.772
 21
50.282
  0
LINE
  8
0
 10
-69.49
 11
-69.8
 20
50.282
 21
49.84
  0
LINE
  8
0
 10
-69.8
 11
-70.182
 20
49.84
 21
49.458
  0
LINE
  8
0
 10
-70.182
 11
-70.625
 20
49.458
 21
49.148
  0
LINE
  8
0
 10
-70.625
 11
-71.115
 20
49.148
 21
48.919
  0
LINE
  8
0
 10
-71.115
 11
-71.637
 20
48.919
 21
48.779
  0
LINE
  8
0
 10
-71.637
 11
-72.175
 20
48.779
 21
48.732
  0
LINE
  8
0
 10
-72.175
 11
-72.713
 20
48.732
 21
48.779
  0
LINE
  8
0
 10
-72.713
 11
-73.235
 20
48.779
 21
48.919
  0
LINE
  8
0
 10
-73.235
 11
-73.725
 20
48.919
 21
49.148
  0
LINE
  8
0
 10
-73.725
 11
-74.168
 20
49.148
 21
49.458
  0
LINE
  8
0
 10
-74.168
 11
-74.55
 20
49.458
 21
49.84
  0
LINE
  8
0
 10
-74.55
 11
-74.86
 20
49.84
 21
50.282
  0
LINE
  8
0
 10
-74.86
 11
-75.088
 20
50.282
 21
50.772
  0
LINE
  8
0
 10
-75.088
 11
-75.228
 20
50.772
 21
51.294
  0
LINE
  8
0
 10
-75.228
 11
-75.275
 20
51.294
 21
51.832
  0
LINE
  8
0
 10
-74.425
 11
-74.425
 20
28.499
 21
38.499
  0
LINE
  8
0
 10
-74.425
 11
-69.925
 20
38.499
 21
38.499
  0
LINE
  8
0
 10
-69.925
 11
-69.925
 20
38.499
 21
28.499
  0
LINE
  8
0
 10
-69.925
 11
-74.425
 20
28.499
 21
28.499
  0
LINE
  8
0
 10
-74.425
 11
-74.425
 20
65.166
 21
75.166
  0
LINE
  8
0
 10
-74.425
 11
-69.925
 20
75.166
 21
75.166
  0
LINE
  8
0
 10
-69.925
 11
-69.925
 20
75.166
 21
65.166
  0
LINE
  8
0
 10
-69.925
 11
-74.425
 20
65.166
 21
65.166
  0
LINE
  8
0
 10
-64.075
 11
-64.028
 20
0
 21
0.538
  0
LINE
  8
0
 10
-64.028
 11
-63.888
 20
0.538
 21
1.06
  0
LINE
  8
0
 10
-63.888
 11
-63.66
 20
1.06
 21
1.55
  0
LINE
  8
0
 10
-63.66
 11
-63.35
 20
1.55
 21
1.993
  0
LINE
  8
0
 10
-63.35
 11
-62.968
 20
1.993
 21
2.375
  0
LINE
  8
0
 10
-62.968
 11
-62.525
 20
2.375
 21
2.685
  0
LINE
  8
0
 10
-62.525
 11
-62.035
 20
2.685
 21
2.913
  0
LINE
  8
0
 10
-62.035
 11
-61.513
 20
2.913
 21
3.053
  0
LINE
  8
0
 10
-61.513
 11
-60.975
 20
3.053
 21
3.1
  0
LINE
  8
0
 10
-60.975
 11
-60.437
 20
3.1
 21
3.053
  0
LINE
  8
0
 10
-60.437
 11
-59.915
 20
3.053
 21
2.913
  0
LINE
  8
0
 10
-59.915
 11
-59.425
 20
2.913
 21
2.685
  0
LINE
  8
0
 10
-59.425
 11
-58.982
 20
2.685
 21
2.375
  0
LINE
  8
0
 10
-58.982
 11
-58.6
 20
2.375
 21
1.993
  0
LINE
  8
0
 10
-58.6
 11
-58.29
 20
1.993
 21
1.55
  0
LINE
  8
0
 10
-58.29
 11
-58.062
 20
1.55
 21
1.06
  0
LINE
  8
0
 10
-58.062
 11
-57.922
 20
1.06
 21
0.538
  0
LINE
  8
0
 10
-57.922
 11
-57.875
 20
0.538
 21
0
  0
LINE
  8
0
 10
-57.875
 11
-57.922
 20
0
 21
-0.538
  0
LINE
  8
0
 10
-57.922
 11
-58.062
 20
-0.538
 21
-1.06
  0
LINE
  8
0
 10
-58.062
 11
-58.29
 20
-1.06
 21
-1.55
  0
LINE
  8
0
 10
-58.29
 11
-58.6
 20
-1.55
 21
-1.993
  0
LINE
  8
0
 10
-58.6
 11
-58.982
 20
-1.993
 21
-2.375
  0
LINE
  8
0
 10
-58.982
 11
-59.425
 20
-2.375
 21
-2.685
  0
LINE
  8
0
 10
-59.425
 11
-59.915
 20
-2.685
 21
-2.913
  0
LINE
  8
0
 10
-59.915
 11
-60.437
 20
-2.913
 21
-3.053
  0
LINE
  8
0
 10
-60.437
 11
-60.975
 20
-3.053
 21
-3.1
  0
LINE
  8
0
 10
-60.975
 11
-61.513
 20
-3.1
 21
-3.053
  0
LINE
  8
0
 10
-61.513
 11
-62.035
 20
-3.053
 21
-2.913
  0
LINE
  8
0
 10
-62.035
 11
-62.525
 20
-2.913
 21
-2.685
  0
LINE
  8
0
 10
-62.525
 11
-62.968
 20
-2.685
 21
-2.375
  0
LINE
  8
0
 10
-62.968
 11
-63.35
 20
-2.375
 21
-1.993
  0
LINE
  8
0
 10
-63.35
 11
-63.66
 20
-1.993
 21
-1.55
  0
LINE
  8
0
 10
-63.66
 11
-63.888
 20
-1.55
 21
-1.06
  0
LINE
  8
0
 10
-63.888
 11
-64.028
 20
-1.06
 21
-0.538
  0
LINE
  8
0
 10
-64.028
 11
-64.075
 20
-0.538
 21
0
  0
LINE
  8
0
 10
-63.225
 11
-63.225
 20
-27.673
 21
-17.673
  0
LINE
  8
0
 10
-63.225
 11
-58.725
 20
-17.673
 21
-17.673
  0
LINE
  8
0
 10
-58.725
 11
-58.725
 20
-17.673
 21
-27.673
  0
LINE
  8
0
 10
-58.725
 11
-63.225
 20
-27.673
 21
-27.673
  0
LINE
  8
0
 10
-63.225
 11
-63.225
 20
17.673
 21
27.673
  0
LINE
  8
0
 10
-63.225
 11
-58.725
 20
27.673
 21
27.673
  0
LINE
  8
0
 10
-58.725
 11
-58.725
 20
27.673
 21
17.673
  0
LINE
  8
0
 10
-58.725
 11
-63.225
 20
17.673
 21
17.673
  0
LINE
  8
0
 10
-52.875
 11
-52.828
 20
51.832
 21
52.371
  0
LINE
  8
0
 10
-52.828
 11
-52.688
 20
52.371
 21
52.893
  0
LINE
  8
0
 10
-52.688
 11
-52.46
 20
52.893
 21
53.382
  0
LINE
  8
0
 10
-52.46
 11
-52.15
 20
53.382
 21
53.825
  0
LINE
  8
0
 10
-52.15
 11
-51.768
 20
53.825
 21
54.207
  0
LINE
  8
0
 10
-51.768
 11
-51.325
 20
54.207
 21
54.517
  0
LINE
  8
0
 10
-51.325
 11
-50.835
 20
54.517
 21
54.745
  0
LINE
  8
0
 10
-50.835
 11
-50.313
 20
54.745
 21
54.885
  0
LINE
  8
0
 10
-50.313
 11
-49.775
 20
54.885
 21
54.932
  0
LINE
  8
0
 10
-49.775
 11
-49.237
 20
54.932
 21
54.885
  0
LINE
  8
0
 10
-49.237
 11
-48.715
 20
54.885
 21
54.745
  0
LINE
  8
0
 10
-48.715
 11
-48.225
 20
54.745
 21
54.517
  0
LINE
  8
0
 10
-48.225
 11
-47.782
 20
54.517
 21
54.207
  0
LINE
  8
0
 10
-47.782
 11
-47.4
 20
54.207
 21
53.825
  0
LINE
  8
0
 10
-47.4
 11
-47.09
 20
53.825
 21
53.382
  0
LINE
  8
0
 10
-47.09
 11
-46.862
 20
53.382
 21
52.893
  0
LINE
  8
0
 10
-46.862
 11
-46.722
 20
52.893
 21
52.371
  0
LINE
  8
0
 10
-46.722
 11
-46.675
 20
52.371
 21
51.832
  0
LINE
  8
0
 10
-46.675
 11
-46.722
 20
51.832
 21
51.294
  0
LINE
  8
0
 10
-46.722
 11
-46.862
 20
51.294
 21
50.772
  0
LINE
  8
0
 10
-46.862
 11
-47.09
 20
50.772
 21
50.282
  0
LINE
  8
0
 10
-47.09
 11
-47.4
 20
50.282
 21
49.84
  0
LINE
  8
0
 10
-47.4
 11
-47.782
 20
49.84
 21
49.458
  0
LINE
  8
0
 10
-47.782
 11
-48.225
 20
49.458
 21
49.148
  0
LINE
  8
0
 10
-48.225
 11
-48.715
 20
49.148
 21
48.919
  0
LINE
  8
0
 10
-48.715
 11
-49.237
 20
48.919
 21
48.779
  0
LINE
  8
0
 10
-49.237
 11
-49.775
 20
48.779
 21
48.732
  0
LINE
  8
0
 10
-49.775
 11
-50.313
 20
48.732
 21
48.779
  0
LINE
  8
0
 10
-50.313
 11
-50.835
 20
48.779
 21
48.919
  0
LINE
  8
0
 10
-50.835
 11
-51.325
 20
48.919
 21
49.148
  0
LINE
  8
0
 10
-51.325
 11
-51.768
 20
49.148
 21
49.458
  0
LINE
  8
0
 10
-51.768
 11
-52.15
 20
49.458
 21
49.84
  0
LINE
  8
0
 10
-52.15
 11
-52.46
 20
49.84
 21
50.282
  0
LINE
  8
0
 10
-52.46
 11
-52.688
 20
50.282
 21
50.772
  0
LINE
  8
0
 10
-52.688
 11
-52.828
 20
50.772
 21
51.294
  0
LINE
  8
0
 10
-52.828
 11
-52.875
 20
51.294
 21
51.832
  0
LINE
  8
0
 10
-52.025
 11
-52.025
 20
28.499
 21
38.499
  0
LINE
  8
0
 10
-52.025
 11
-47.525
 20
38.499
 21
38.499
  0
LINE
  8
0
 10
-47.525
 11
-47.525
 20
38.499
 21
28.499
  0
LINE
  8
0
 10
-47.525
 11
-52.025
 20
28.499
 21
28.499
  0
LINE
  8
0
 10
-52.025
 11
-52.025
 20
65.166
 21
75.166
  0
LINE
  8
0
 10
-52.025
 11
-47.525
 20
75.166
 21
75.166
  0
LINE
  8
0
 10
-47.525
 11
-47.525
 20
75.166
 21
65.166
  0
LINE
  8
0
 10
-47.525
 11
-52.025
 20
65.166
 21
65.166
  0
LINE
  8
0
 10
-27.825
 11
-27.778
 20
51.832
 21
52.371
  0
LINE
  8
0
 10
-27.778
 11
-27.638
 20
52.371
 21
52.893
  0
LINE
  8
0
 10
-27.638
 11
-27.41
 20
52.893
 21
53.382
  0
LINE
  8
0
 10
-27.41
 11
-27.1
 20
53.382
 21
53.825
  0
LINE
  8
0
 10
-27.1
 11
-26.718
 20
53.825
 21
54.207
  0
LINE
  8
0
 10
-26.718
 11
-26.275
 20
54.207
 21
54.517
  0
LINE
  8
0
 10
-26.275
 11
-25.785
 20
54.517
 21
54.745
  0
LINE
  8
0
 10
-25.785
 11
-25.263
 20
54.745
 21
54.885
  0
LINE
  8
0
 10
-25.263
 11
-24.725
 20
54.885
 21
54.932
  0
LINE
  8
0
 10
-24.725
 11
-24.187
 20
54.932
 21
54.885
  0
LINE
  8
0
 10
-24.187
 11
-23.665
 20
54.885
 21
54.745
  0
LINE
  8
0
 10
-23.665
 11
-23.175
 20
54.745
 21
54.517
  0
LINE
  8
0
 10
-23.175
 11
-22.732
 20
54.517
 21
54.207
  0
LINE
  8
0
 10
-22.732
 11
-22.35
 20
54.207
 21
53.825
  0
LINE
  8
0
 10
-22.35
 11
-22.04
 20
53.825
 21
53.382
  0
LINE
  8
0
 10
-22.04
 11
-21.812
 20
53.382
 21
52.893
  0
LINE
  8
0
 10
-21.812
 11
-21.672
 20
52.893
 21
52.371
  0
LINE
  8
0
 10
-21.672
 11
-21.625
 20
52.371
 21
51.832
  0
LINE
  8
0
 10
-21.625
 11
-21.672
 20
51.832
 21
51.294
  0
LINE
  8
0
 10
-21.672
 11
-21.812
 20
51.294
 21
50.772
  0
LINE
  8
0
 10
-21.812
 11
-22.04
 20
50.772
 21
50.282
  0
LINE
  8
0
 10
-22.04
 11
-22.35
 20
50.282
 21
49.84
  0
LINE
  8
0
 10
-22.35
 11
-22.732
 20
49.84
 21
49.458
  0
LINE
  8
0
 10
-22.732
 11
-23.175
 20
49.458
 21
49.148
  0
LINE
  8
0
 10
-23.175
 11
-23.665
 20
49.148
 21
48.919
  0
LINE
  8
0
 10
-23.665
 11
-24.187
 20
48.919
 21
48.779
  0
LINE
  8
0
 10
-24.187
 11
-24.725
 20
48.779
 21
48.732
  0
LINE
  8
0
 10
-24.725
 11
-25.263
 20
48.732
 21
48.779
  0
LINE
  8
0
 10
-25.263
 11
-25.785
 20
48.779
 21
48.919
  0
LINE
  8
0
 10
-25.785
 11
-26.275
 20
48.919
 21
49.148
  0
LINE
  8
0
 10
-26.275
 11
-26.718
 20
49.148
 21
49.458
  0
LINE
  8
0
 10
-26.718
 11
-27.1
 20
49.458
 21
49.84
  0
LINE
  8
0
 10
-27.1
 11
-27.41
 20
49.84
 21
50.282
  0
LINE
  8
0
 10
-27.41
 11
-27.638
 20
50.282
 21
50.772
  0
LINE
  8
0
 10
-27.638
 11
-27.778
 20
50.772
 21
51.294
  0
LINE
  8
0
 10
-27.778
 11
-27.825
 20
51.294
 21
51.832
  0
LINE
  8
0
 10
-26.975
 11
-26.975
 20
28.499
 21
38.499
  0
LINE
  8
0
 10
-26.975
 11
-22.475
 20
38.499
 21
38.499
  0
LINE
  8
0
 10
-22.475
 11
-22.475
 20
38.499
 21
28.499
  0
LINE
  8
0
 10
-22.475
 11
-26.975
 20
28.499
 21
28.499
  0
LINE
  8
0
 10
-26.975
 11
-26.975
 20
65.166
 21
75.166
  0
LINE
  8
0
 10
-26.975
 11
-22.475
 20
75.166
 21
75.166
  0
LINE
  8
0
 10
-22.475
 11
-22.475
 20
75.166
 21
65.166
  0
LINE
  8
0
 10
-22.475
 11
-26.975
 20
65.166
 21
65.166
  0
LINE
  8
0
 10
-16.625
 11
-16.578
 20
0
 21
0.538
  0
LINE
  8
0
 10
-16.578
 11
-16.438
 20
0.538
 21
1.06
  0
LINE
  8
0
 10
-16.438
 11
-16.21
 20
1.06
 21
1.55
  0
LINE
  8
0
 10
-16.21
 11
-15.9
 20
1.55
 21
1.993
  0
LINE
  8
0
 10
-15.9
 11
-15.518
 20
1.993
 21
2.375
  0
LINE
  8
0
 10
-15.518
 11
-15.075
 20
2.375
 21
2.685
  0
LINE
  8
0
 10
-15.075
 11
-14.585
 20
2.685
 21
2.913
  0
LINE
  8
0
 10
-14.585
 11
-14.063
 20
2.913
 21
3.053
  0
LINE
  8
0
 10
-14.063
 11
-13.525
 20
3.053
 21
3.1
  0
LINE
  8
0
 10
-13.525
 11
-12.987
 20
3.1
 21
3.053
  0
LINE
  8
0
 10
-12.987
 11
-12.465
 20
3.053
 21
2.913
  0
LINE
  8
0
 10
-12.465
 11
-11.975
 20
2.913
 21
2.685
  0
LINE
  8
0
 10
-11.975
 11
-11.532
 20
2.685
 21
2.375
  0
LINE
  8
0
 10
-11.532
 11
-11.15
 20
2.375
 21
1.993
  0
LINE
  8
0
 10
-11.15
 11
-10.84
 20
1.993
 21
1.55
  0
LINE
  8
0
 10
-10.84
 11
-10.612
 20
1.55
 21
1.06
  0
LINE
  8
0
 10
-10.612
 11
-10.472
 20
1.06
 21
0.538
  0
LINE
  8
0
 10
-10.472
 11
-10.425
 20
0.538
 21
0
  0
LINE
  8
0
 10
-10.425
 11
-10.472
 20
0
 21
-0.538
  0
LINE
  8
0
 10
-10.472
 11
-10.612
 20
-0.538
 21
-1.06
  0
LINE
  8
0
 10
-10.612
 11
-10.84
 20
-1.06
 21
-1.55
  0
LINE
  8
0
 10
-10.84
 11
-11.15
 20
-1.55
 21
-1.993
  0
LINE
  8
0
 10
-11.15
 11
-11.532
 20
-1.993
 21
-2.375
  0
LINE
  8
0
 10
-11.532
 11
-11.975
 20
-2.375
 21
-2.685
  0
LINE
  8
0
 10
-11.975
 11
-12.465
 20
-2.685
 21
-2.913
  0
LINE
  8
0
 10
-12.465
 11
-12.987
 20
-2.913
 21
-3.053
  0
LINE
  8
0
 10
-12.987
 11
-13.525
 20
-3.053
 21
-3.1
  0
LINE
  8
0
 10
-13.525
 11
-14.063
 20
-3.1
 21
-3.053
  0
LINE
  8
0
 10
-14.063
 11
-14.585
 20
-3.053
 21
-2.913
  0
LINE
  8
0
 10
-14.585
 11
-15.075
 20
-2.913
 21
-2.685
  0
LINE
  8
0
 10
-15.075
 11
-15.518
 20
-2.685
 21
-2.375
  0
LINE
  8
0
 10
-15.518
 11
-15.9
 20
-2.375
 21
-1.993
  0
LINE
  8
0
 10
-15.9
 11
-16.21
 20
-1.993
 21
-1.55
  0
LINE
  8
0
 10
-16.21
 11
-16.438
 20
-1.55
 21
-1.06
  0
LINE
  8
0
 10
-16.438
 11
-16.578
 20
-1.06
 21
-0.538
  0
LINE
  8
0
 10
-16.578
 11
-16.625
 20
-0.538
 21
0
  0
LINE
  8
0
 10
-15.775
 11
-15.775
 20
-27.673
 21
-17.673
  0
LINE
  8
0
 10
-15.775
 11
-11.275
 20
-17.673
 21
-17.673
  0
LINE
  8
0
 10
-11.275
 11
-11.275
 20
-17.673
 21
-27.673
  0
LINE
  8
0
 10
-11.275
 11
-15.775
 20
-27.673
 21
-27.673
  0
LINE
  8
0
 10
-15.775
 11
-15.775
 20
17.673
 21
27.673
  0
LINE
  8
0
 10
-15.775
 11
-11.275
 20
27.673
 21
27.673
  0
LINE
  8
0
 10
-11.275
 11
-11.275
 20
27.673
 21
17.673
  0
LINE
  8
0
 10
-11.275
 11
-15.775
 20
17.673
 21
17.673
  0
LINE
  8
0
 10
-5.425
 11
-5.378
 20
51.832
 21
52.371
  0
LINE
  8
0
 10
-5.378
 11
-5.238
 20
52.371
 21
52.893
  0
LINE
  8
0
 10
-5.238
 11
-5.01
 20
52.893
 21
53.382
  0
LINE
  8
0
 10
-5.01
 11
-4.7
 20
53.382
 21
53.825
  0
LINE
  8
0
 10
-4.7
 11
-4.318
 20
53.825
 21
54.207
  0
LINE
  8
0
 10
-4.318
 11
-3.875
 20
54.207
 21
54.517
  0
LINE
  8
0
 10
-3.875
 11
-3.385
 20
54.517
 21
54.745
  0
LINE
  8
0
 10
-3.385
 11
-2.863
 20
54.745
 21
54.885
  0
LINE
  8
0
 10
-2.863
 11
-2.325
 20
54.885
 21
54.932
  0
LINE
  8
0
 10
-2.325
 11
-1.787
 20
54.932
 21
54.885
  0
LINE
  8
0
 10
-1.787
 11
-1.265
 20
54.885
 21
54.745
  0
LINE
  8
0
 10
-1.265
 11
-0.775
 20
54.745
 21
54.517
  0
LINE
  8
0
 10
-0.775
 11
-0.332
 20
54.517
 21
54.207
  0
LINE
  8
0
 10
-0.332
 11
0.05
 20
54.207
 21
53.825
  0
LINE
  8
0
 10
0.05
 11
0.36
 20
53.825
 21
53.382
  0
LINE
  8
0
 10
0.36
 11
0.588
 20
53.382
 21
52.893
  0
LINE
  8
0
 10
0.588
 11
0.728
 20
52.893
 21
52.371
  0
LINE
  8
0
 10
0.728
 11
0.775
 20
52.371
 21
51.832
  0
LINE
  8
0
 10
0.775
 11
0.728
 20
51.832
 21
51.294
  0
LINE
  8
0
 10
0.728
 11
0.588
 20
51.294
 21
50.772
  0
LINE
  8
0
 10
0.588
 11
0.36
 20
50.772
 21
50.282
  0
LINE
  8
0
 10
0.36
 11
0.05
 20
50.282
 21
49.84
  0
LINE
  8
0
 10
0.05
 11
-0.332
 20
49.84
 21
49.458
  0
LINE
  8
0
 10
-0.332
 11
-0.775
 20
49.458
 21
49.148
  0
LINE
  8
0
 10
-0.775
 11
-1.265
 20
49.148
 21
48.919
  0
LINE
  8
0
 10
-1.265
 11
-1.787
 20
48.919
 21
48.779
  0
LINE
  8
0
 10
-1.787
 11
-2.325
 20
48.779
 21
48.732
  0
LINE
  8
0
 10
-2.325
 11
-2.863
 20
48.732
 21
48.779
  0
LINE
  8
0
 10
-2.863
 11
-3.385
 20
48.779
 21
48.919
  0
LINE
  8
0
 10
-3.385
 11
-3.875
 20
48.919
 21
49.148
  0
LINE
  8
0
 10
-3.875
 11
-4.318
 20
49.148
 21
49.458
  0
LINE
  8
0
 10
-4.318
 11
-4.7
 20
49.458
 21
49.84
  0
LINE
  8
0
 10
-4.7
 11
-5.01
 20
49.84
 21
50.282
  0
LINE
  8
0
 10
-5.01
 11
-5.238
 20
50.282
 21
50.772
  0
LINE
  8
0
 10
-5.238
 11
-5.378
 20
50.772
 21
51.294
  0
LINE
  8
0
 10
-5.378
 11
-5.425
 20
51.294
 21
51.832
  0
LINE
  8
0
 10
-4.575
 11
-4.575
 20
28.499
 21
38.499
  0
LINE
  8
0
 10
-4.575
 11
-0.075
 20
38.499
 21
38.499
  0
LINE
  8
0
 10
-0.075
 11
-0.075
 20
38.499
 21
28.499
  0
LINE
  8
0
 10
-0.075
 11
-4.575
 20
28.499
 21
28.499
  0
LINE
  8
0
 10
-4.575
 11
-4.575
 20
65.166
 21
75.166
  0
LINE
  8
0
 10
-4.575
 11
-0.075
 20
75.166
 21
75.166
  0
LINE
  8
0
 10
-0.075
 11
-0.075
 20
75.166
 21
65.166
  0
LINE
  8
0
 10
-0.075
 11
-4.575
 20
65.166
 21
65.166
  0
LINE
  8
0
 10
19.625
 11
19.672
 20
51.832
 21
52.371
  0
LINE
  8
0
 10
19.672
 11
19.812
 20
52.371
 21
52.893
  0
LINE
  8
0
 10
19.812
 11
20.04
 20
52.893
 21
53.382
  0
LINE
  8
0
 10
20.04
 11
20.35
 20
53.382
 21
53.825
  0
LINE
  8
0
 10
20.35
 11
20.732
 20
53.825
 21
54.207
  0
LINE
  8
0
 10
20.732
 11
21.175
 20
54.207
 21
54.517
  0
LINE
  8
0
 10
21.175
 11
21.665
 20
54.517
 21
54.745
  0
LINE
  8
0
 10
21.665
 11
22.187
 20
54.745
 21
54.885
  0
LINE
  8
0
 10
22.187
 11
22.725
 20
54.885
 21
54.932
  0
LINE
  8
0
 10
22.725
 11
23.263
 20
54.932
 21
54.885
  0
LINE
  8
0
 10
23.263
 11
23.785
 20
54.885
 21
54.745
  0
LINE
  8
0
 10
23.785
 11
24.275
 20
54.745
 21
54.517
  0
LINE
  8
0
 10
24.275
 11
24.718
 20
54.517
 21
54.207
  0
LINE
  8
0
 10
24.718
 11
25.1
 20
54.207
 21
53.825
  0
LINE
  8
0
 10
25.1
 11
25.41
 20
53.825
 21
53.382
  0
LINE
  8
0
 10
25.41
 11
25.638
 20
53.382
 21
52.893
  0
LINE
  8
0
 10
25.638
 11
25.778
 20
52.893
 21
52.371
  0
LINE
  8
0
 10
25.778
 11
25.825
 20
52.371
 21
51.832
  0
LINE
  8
0
 10
25.825
 11
25.778
 20
51.832
 21
51.294
  0
LINE
  8
0
 10
25.778
 11
25.638
 20
51.294
 21
50.772
  0
LINE
  8
0
 10
25.638
 11
25.41
 20
50.772
 21
50.282
  0
LINE
  8
0
 10
25.41
 11
25.1
 20
50.282
 21
49.84
  0
LINE
  8
0
 10
25.1
 11
24.718
 20
49.84
 21
49.458
  0
LINE
  8
0
 10
24.718
 11
24.275
 20
49.458
 21
49.148
  0
LINE
  8
0
 10
24.275
 11
23.785
 20
49.148
 21
48.919
  0
LINE
  8
0
 10
23.785
 11
23.263
 20
48.919
 21
48.779
  0
LINE
  8
0
 10
23.263
 11
22.725
 20
48.779
 21
48.732
  0
LINE
  8
0
 10
22.725
 11
22.187
 20
48.732
 21
48.779
  0
LINE
  8
0
 10
22.187
 11
21.665
 20
48.779
 21
48.919
  0
LINE
  8
0
 10
21.665
 11
21.175
 20
48.919
 21
49.148
  0
LINE
  8
0
 10
21.175
 11
20.732
 20
49.148
 21
49.458
  0
LINE
  8
0
 10
20.732
 11
20.35
 20
49.458
 21
49.84
  0
LINE
  8
0
 10
20.35
 11
20.04
 20
49.84
 21
50.282
  0
LINE
  8
0
 10
20.04
 11
19.812
 20
50.282
 21
50.772
  0
LINE
  8
0
 10
19.812
 11
19.672
 20
50.772
 21
51.294
  0
LINE
  8
0
 10
19.672
 11
19.625
 20
51.294
 21
51.832
  0
LINE
  8
0
 10
20.475
 11
20.475
 20
28.499
 21
38.499
  0
LINE
  8
0
 10
20.475
 11
24.975
 20
38.499
 21
38.499
  0
LINE
  8
0
 10
24.975
 11
24.975
 20
38.499
 21
28.499
  0
LINE
  8
0
 10
24.975
 11
20.475
 20
28.499
 21
28.499
  0
LINE
  8
0
 10
20.475
 11
20.475
 20
65.166
 21
75.166
  0
LINE
  8
0
 10
20.475
 11
24.975
 20
75.166
 21
75.166
  0
LINE
  8
0
 10
24.975
 11
24.975
 20
75.166
 21
65.166
  0
LINE
  8
0
 10
24.975
 11
20.475
 20
65.166
 21
65.166
  0
LINE
  8
0
 10
30.825
 11
30.872
 20
0
 21
0.538
  0
LINE
  8
0
 10
30.872
 11
31.012
 20
0.538
 21
1.06
  0
LINE
  8
0
 10
31.012
 11
31.24
 20
1.06
 21
1.55
  0
LINE
  8
0
 10
31.24
 11
31.55
 20
1.55
 21
1.993
  0
LINE
  8
0
 10
31.55
 11
31.932
 20
1.993
 21
2.375
  0
LINE
  8
0
 10
31.932
 11
32.375
 20
2.375
 21
2.685
  0
LINE
  8
0
 10
32.375
 11
32.865
 20
2.685
 21
2.913
  0
LINE
  8
0
 10
32.865
 11
33.387
 20
2.913
 21
3.053
  0
LINE
  8
0
 10
33.387
 11
33.925
 20
3.053
 21
3.1
  0
LINE
  8
0
 10
33.925
 11
34.463
 20
3.1
 21
3.053
  0
LINE
  8
0
 10
34.463
 11
34.985
 20
3.053
 21
2.913
  0
LINE
  8
0
 10
34.985
 11
35.475
 20
2.913
 21
2.685
  0
LINE
  8
0
 10
35.475
 11
35.918
 20
2.685
 21
2.375
  0
LINE
  8
0
 10
35.918
 11
36.3
 20
2.375
 21
1.993
  0
LINE
  8
0
 10
36.3
 11
36.61
 20
1.993
 21
1.55
  0
LINE
  8
0
 10
36.61
 11
36.838
 20
1.55
 21
1.06
  0
LINE
  8
0
 10
36.838
 11
36.978
 20
1.06
 21
0.538
  0
LINE
  8
0
 10
36.978
 11
37.025
 20
0.538
 21
0
  0
LINE
  8
0
 10
37.025
 11
36.978
 20
0
 21
-0.538
  0
LINE
  8
0
 10
36.978
 11
36.838
 20
-0.538
 21
-1.06
  0
LINE
  8
0
 10
36.838
 11
36.61
 20
-1.06
 21
-1.55
  0
LINE
  8
0
 10
36.61
 11
36.3
 20
-1.55
 21
-1.993
  0
LINE
  8
0
 10
36.3
 11
35.918
 20
-1.993
 21
-2.375
  0
LINE
  8
0
 10
35.918
 11
35.475
 20
-2.375
 21
-2.685
  0
LINE
  8
0
 10
35.475
 11
34.985
 20
-2.685
 21
-2.913
  0
LINE
  8
0
 10
34.985
 11
34.463
 20
-2.913
 21
-3.053
  0
LINE
  8
0
 10
34.463
 11
33.925
 20
-3.053
 21
-3.1
  0
LINE
  8
0
 10
33.925
 11
33.387
 20
-3.1
 21
-3.053
  0
LINE
  8
0
 10
33.387
 11
32.865
 20
-3.053
 21
-2.913
  0
LINE
  8
0
 10
32.865
 11
32.375
 20
-2.913
 21
-2.685
  0
LINE
  8
0
 10
32.375
 11
31.932
 20
-2.685
 21
-2.375
  0
LINE
  8
0
 10
31.932
 11
31.55
 20
-2.375
 21
-1.993
  0
LINE
  8
0
 10
31.55
 11
31.24
 20
-1.993
 21
-1.55
  0
LINE
  8
0
 10
31.24
 11
31.012
 20
-1.55
 21
-1.06
  0
LINE
  8
0
 10
31.012
 11
30.872
 20
-1.06
 21
-0.538
  0
LINE
  8
0
 10
30.872
 11
30.825
 20
-0.538
 21
0
  0
LINE
  8
0
 10
31.675
 11
31.675
 20
-27.673
 21
-17.673
  0
LINE
  8
0
 10
31.675
 11
36.175
 20
-17.673
 21
-17.673
  0
LINE
  8
0
 10
36.175
 11
36.175
 20
-17.673
 21
-27.673
  0
LINE
  8
0
 10
36.175
 11
31.675
 20
-27.673
 21
-27.673
  0
LINE
  8
0
 10
31.675
 11
31.675
 20
17.673
 21
27.673
  0
LINE
  8
0
 10
31.675
 11
36.175
 20
27.673
 21
27.673
  0
LINE
  8
0
 10
36.175
 11
36.175
 20
27.673
 21
17.673
  0
LINE
  8
0
 10
36.175
 11
31.675
 20
17.673
 21
17.673
  0
LINE
  8
0
 10
-270.025
 11
-270.025
 20
-121.537
 21
121.537
  0
LINE
  8
0
 10
-270.025
 11
-93.508
 20
121.537
 21
121.537
  0
LINE
  8
0
 10
-93.508
 11
-93.508
 20
121.537
 21
126.037
  0
LINE
  8
0
 10
-93.508
 11
-83.508
 20
126.037
 21
126.037
  0
LINE
  8
0
 10
-83.508
 11
-83.508
 20
126.037
 21
121.537
  0
LINE
  8
0
 10
-83.508
 11
83.508
 20
121.537
 21
121.537
  0
LINE
  8
0
 10
83.508
 11
83.508
 20
121.537
 21
126.037
  0
LINE
  8
0
 10
83.508
 11
93.508
 20
126.037
 21
126.037
  0
LINE
  8
0
 10
93.508
 11
93.508
 20
126.037
 21
121.537
  0
LINE
  8
0
 10
93.508
 11
270.025
 20
121.537
 21
121.537
  0
LINE
  8
0
 10
270.025
 11
270.025
 20
121.537
 21
-121.537
  0
LINE
  8
0
 10
270.025
 11
93.508
 20
-121.537
 21
-121.537
  0
LINE
  8
0
 10
93.508
 11
93.508
 20
-121.537
 21
-126.037
  0
LINE
  8
0
 10
93.508
 11
83.508
 20
-126.037
 21
-126.037
  0
LINE
  8
0
 10
83.508
 11
83.508
 20
-126.037
 21
-121.537
  0
LINE
  8
0
 10
83.508
 11
-83.508
 20
-121.537
 21
-121.537
  0
LINE
  8
0
 10
-83.508
 11
-83.508
 20
-121.537
 21
-126.037
  0
LINE
  8
0
 10
-83.508
 11
-93.508
 20
-126.037
 21
-126.037
  0
LINE
  8
0
 10
-93.508
 11
-93.508
 20
-126.037
 21
-121.537
  0
LINE
  8
0
 10
-93.508
 11
-270.025
 20
-121.537
 21
-121.537
  0
LINE
  8
0
 10
42.025
 11
42.072
 20
51.832
 21
52.371
  0
LINE
  8
0
 10
42.072
 11
42.212
 20
52.371
 21
52.893
  0
LINE
  8
0
 10
42.212
 11
42.44
 20
52.893
 21
53.382
  0
LINE
  8
0
 10
42.44
 11
42.75
 20
53.382
 21
53.825
  0
LINE
  8
0
 10
42.75
 11
43.132
 20
53.825
 21
54.207
  0
LINE
  8
0
 10
43.132
 11
43.575
 20
54.207
 21
54.517
  0
LINE
  8
0
 10
43.575
 11
44.065
 20
54.517
 21
54.745
  0
LINE
  8
0
 10
44.065
 11
44.587
 20
54.745
 21
54.885
  0
LINE
  8
0
 10
44.587
 11
45.125
 20
54.885
 21
54.932
  0
LINE
  8
0
 10
45.125
 11
45.663
 20
54.932
 21
54.885
  0
LINE
  8
0
 10
45.663
 11
46.185
 20
54.885
 21
54.745
  0
LINE
  8
0
 10
46.185
 11
46.675
 20
54.745
 21
54.517
  0
LINE
  8
0
 10
46.675
 11
47.118
 20
54.517
 21
54.207
  0
LINE
  8
0
 10
47.118
 11
47.5
 20
54.207
 21
53.825
  0
LINE
  8
0
 10
47.5
 11
47.81
 20
53.825
 21
53.382
  0
LINE
  8
0
 10
47.81
 11
48.038
 20
53.382
 21
52.893
  0
LINE
  8
0
 10
48.038
 11
48.178
 20
52.893
 21
52.371
  0
LINE
  8
0
 10
48.178
 11
48.225
 20
52.371
 21
51.832
  0
LINE
  8
0
 10
48.225
 11
48.178
 20
51.832
 21
51.294
  0
LINE
  8
0
 10
48.178
 11
48.038
 20
51.294
 21
50.772
  0
LINE
  8
0
 10
48.038
 11
47.81
 20
50.772
 21
50.282
  0
LINE
  8
0
 10
47.81
 11
47.5
 20
50.282
 21
49.84
  0
LINE
  8
0
 10
47.5
 11
47.118
 20
49.84
 21
49.458
  0
LINE
  8
0
 10
47.118
 11
46.675
 20
49.458
 21
49.148
  0
LINE
  8
0
 10
46.675
 11
46.185
 20
49.148
 21
48.919
  0
LINE
  8
0
 10
46.185
 11
45.663
 20
48.919
 21
48.779
  0
LINE
  8
0
 10
45.663
 11
45.125
 20
48.779
 21
48.732
  0
LINE
  8
0
 10
45.125
 11
44.587
 20
48.732
 21
48.779
  0
LINE
  8
0
 10
44.587
 11
44.065
 20
48.779
 21
48.919
  0
LINE
  8
0
 10
44.065
 11
43.575
 20
48.919
 21
49.148
  0
LINE
  8
0
 10
43.575
 11
43.132
 20
49.148
 21
49.458
  0
LINE
  8
0
 10
43.132
 11
42.75
 20
49.458
 21
49.84
  0
LINE
  8
0
 10
42.75
 11
42.44
 20
49.84
 21
50.282
  0
LINE
  8
0
 10
42.44
 11
42.212
 20
50.282
 21
50.772
  0
LINE
  8
0
 10
42.212
 11
42.072
 20
50.772
 21
51.294
  0
LINE
  8
0
 10
42.072
 11
42.025
 20
51.294
 21
51.832
  0
LINE
  8
0
 10
42.875
 11
42.875
 20
28.499
 21
38.499
  0
LINE
  8
0
 10
42.875
 11
47.375
 20
38.499
 21
38.499
  0
LINE
  8
0
 10
47.375
 11
47.375
 20
38.499
 21
28.499
  0
LINE
  8
0
 10
47.375
 11
42.875
 20
28.499
 21
28.499
  0
LINE
  8
0
 10
42.875
 11
42.875
 20
65.166
 21
75.166
  0
LINE
  8
0
 10
42.875
 11
47.375
 20
75.166
 21
75.166
  0
LINE
  8
0
 10
47.375
 11
47.375
 20
75.166
 21
65.166
  0
LINE
  8
0
 10
47.375
 11
42.875
 20
65.166
 21
65.166
  0
LINE
  8
0
 10
67.075
 11
67.122
 20
51.832
 21
52.371
  0
LINE
  8
0
 10
67.122
 11
67.262
 20
52.371
 21
52.893
  0
LINE
  8
0
 10
67.262
 11
67.49
 20
52.893
 21
53.382
  0
LINE
  8
0
 10
67.49
 11
67.8
 20
53.382
 21
53.825
  0
LINE
  8
0
 10
67.8
 11
68.182
 20
53.825
 21
54.207
  0
LINE
  8
0
 10
68.182
 11
68.625
 20
54.207
 21
54.517
  0
LINE
  8
0
 10
68.625
 11
69.115
 20
54.517
 21
54.745
  0
LINE
  8
0
 10
69.115
 11
69.637
 20
54.745
 21
54.885
  0
LINE
  8
0
 10
69.637
 11
70.175
 20
54.885
 21
54.932
  0
LINE
  8
0
 10
70.175
 11
70.713
 20
54.932
 21
54.885
  0
LINE
  8
0
 10
70.713
 11
71.235
 20
54.885
 21
54.745
  0
LINE
  8
0
 10
71.235
 11
71.725
 20
54.745
 21
54.517
  0
LINE
  8
0
 10
71.725
 11
72.168
 20
54.517
 21
54.207
  0
LINE
  8
0
 10
72.168
 11
72.55
 20
54.207
 21
53.825
  0
LINE
  8
0
 10
72.55
 11
72.86
 20
53.825
 21
53.382
  0
LINE
  8
0
 10
72.86
 11
73.088
 20
53.382
 21
52.893
  0
LINE
  8
0
 10
73.088
 11
73.228
 20
52.893
 21
52.371
  0
LINE
  8
0
 10
73.228
 11
73.275
 20
52.371
 21
51.832
  0
LINE
  8
0
 10
73.275
 11
73.228
 20
51.832
 21
51.294
  0
LINE
  8
0
 10
73.228
 11
73.088
 20
51.294
 21
50.772
  0
LINE
  8
0
 10
73.088
 11
72.86
 20
50.772
 21
50.282
  0
LINE
  8
0
 10
72.86
 11
72.55
 20
50.282
 21
49.84
  0
LINE
  8
0
 10
72.55
 11
72.168
 20
49.84
 21
49.458
  0
LINE
  8
0
 10
72.168
 11
71.725
 20
49.458
 21
49.148
  0
LINE
  8
0
 10
71.725
 11
71.235
 20
49.148
 21
48.919
  0
LINE
  8
0
 10
71.235
 11
70.713
 20
48.919
 21
48.779
  0
LINE
  8
0
 10
70.713
 11
70.175
 20
48.779
 21
48.732
  0
LINE
  8
0
 10
70.175
 11
69.637
 20
48.732
 21
48.779
  0
LINE
  8
0
 10
69.637
 11
69.115
 20
48.779
 21
48.919
  0
LINE
  8
0
 10
69.115
 11
68.625
 20
48.919
 21
49.148
  0
LINE
  8
0
 10
68.625
 11
68.182
 20
49.148
 21
49.458
  0
LINE
  8
0
 10
68.182
 11
67.8
 20
49.458
 21
49.84
  0
LINE
  8
0
 10
67.8
 11
67.49
 20
49.84
 21
50.282
  0
LINE
  8
0
 10
67.49
 11
67.262
 20
50.282
 21
50.772
  0
LINE
  8
0
 10
67.262
 11
67.122
 20
50.772
 21
51.294
  0
LINE
  8
0
 10
67.122
 11
67.075
 20
51.294
 21
51.832
  0
LINE
  8
0
 10
67.925
 11
67.925
 20
28.499
 21
38.499
  0
LINE
  8
0
 10
67.925
 11
72.425
 20
38.499
 21
38.499
  0
LINE
  8
0
 10
72.425
 11
72.425
 20
38.499
 21
28.499
  0
LINE
  8
0
 10
72.425
 11
67.925
 20
28.499
 21
28.499
  0
LINE
  8
0
 10
67.925
 11
67.925
 20
65.166
 21
75.166
  0
LINE
  8
0
 10
67.925
 11
72.425
 20
75.166
 21
75.166
  0
LINE
  8
0
 10
72.425
 11
72.425
 20
75.166
 21
65.166
  0
LINE
  8
0
 10
72.425
 11
67.925
 20
65.166
 21
65.166
  0
LINE
  8
0
 10
78.275
 11
78.322
 20
0
 21
0.538
  0
LINE
  8
0
 10
78.322
 11
78.462
 20
0.538
 21
1.06
  0
LINE
  8
0
 10
78.462
 11
78.69
 20
1.06
 21
1.55
  0
LINE
  8
0
 10
78.69
 11
79
 20
1.55
 21
1.993
  0
LINE
  8
0
 10
79
 11
79.382
 20
1.993
 21
2.375
  0
LINE
  8
0
 10
79.382
 11
79.825
 20
2.375
 21
2.685
  0
LINE
  8
0
 10
79.825
 11
80.315
 20
2.685
 21
2.913
  0
LINE
  8
0
 10
80.315
 11
80.837
 20
2.913
 21
3.053
  0
LINE
  8
0
 10
80.837
 11
81.375
 20
3.053
 21
3.1
  0
LINE
  8
0
 10
81.375
 11
81.913
 20
3.1
 21
3.053
  0
LINE
  8
0
 10
81.913
 11
82.435
 20
3.053
 21
2.913
  0
LINE
  8
0
 10
82.435
 11
82.925
 20
2.913
 21
2.685
  0
LINE
  8
0
 10
82.925
 11
83.368
 20
2.685
 21
2.375
  0
LINE
  8
0
 10
83.368
 11
83.75
 20
2.375
 21
1.993
  0
LINE
  8
0
 10
83.75
 11
84.06
 20
1.993
 21
1.55
  0
LINE
  8
0
 10
84.06
 11
84.288
 20
1.55
 21
1.06
  0
LINE
  8
0
 10
84.288
 11
84.428
 20
1.06
 21
0.538
  0
LINE
  8
0
 10
84.428
 11
84.475
 20
0.538
 21
0
  0
LINE
  8
0
 10
84.475
 11
84.428
 20
0
 21
-0.538
  0
LINE
  8
0
 10
84.428
 11
84.288
 20
-0.538
 21
-1.06
  0
LINE
  8
0
 10
84.288
 11
84.06
 20
-1.06
 21
-1.55
  0
LINE
  8
0
 10
84.06
 11
83.75
 20
-1.55
 21
-1.993
  0
LINE
  8
0
 10
83.75
 11
83.368
 20
-1.993
 21
-2.375
  0
LINE
  8
0
 10
83.368
 11
82.925
 20
-2.375
 21
-2.685
  0
LINE
  8
0
 10
82.925
 11
82.435
 20
-2.685
 21
-2.913
  0
LINE
  8
0
 10
82.435
 11
81.913
 20
-2.913
 21
-3.053
  0
LINE
  8
0
 10
81.913
 11
81.375
 20
-3.053
 21
-3.1
  0
LINE
  8
0
 10
81.375
 11
80.837
 20
-3.1
 21
-3.053
  0
LINE
  8
0
 10
80.837
 11
80.315
 20
-3.053
 21
-2.913
  0
LINE
  8
0
 10
80.315
 11
79.825
 20
-2.913
 21
-2.685
  0
LINE
  8
0
 10
79.825
 11
79.382
 20
-2.685
 21
-2.375
  0
LINE
  8
0
 10
79.382
 11
79
 20
-2.375
 21
-1.993
  0
LINE
  8
0
 10
79
 11
78.69
 20
-1.993
 21
-1.55
  0
LINE
  8
0
 10
78.69
 11
78.462
 20
-1.55
 21
-1.06
  0
LINE
  8
0
 10
78.462
 11
78.322
 20
-1.06
 21
-0.538
  0
LINE
  8
0
 10
78.322
 11
78.275
 20
-0.538
 21
0
  0
LINE
  8
0
 10
79.125
 11
79.125
 20
-27.673
 21
-17.673
  0
LINE
  8
0
 10
79.125
 11
83.625
 20
-17.673
 21
-17.673
  0
LINE
  8
0
 10
83.625
 11
83.625
 20
-17.673
 21
-27.673
  0
LINE
  8
0
 10
83.625
 11
79.125
 20
-27.673
 21
-27.673
  0
LINE
  8
0
 10
79.125
 11
79.125
 20
17.673
 21
27.673
  0
LINE
  8
0
 10
79.125
 11
83.625
 20
27.673
 21
27.673
  0
LINE
  8
0
 10
83.625
 11
83.625
 20
27.673
 21
17.673
  0
LINE
  8
0
 10
83.625
 11
79.125
 20
17.673
 21
17.673
  0
LINE
  8
0
 10
89.475
 11
89.522
 20
51.832
 21
52.371
  0
LINE
  8
0
 10
89.522
 11
89.662
 20
52.371
 21
52.893
  0
LINE
  8
0
 10
89.662
 11
89.89
 20
52.893
 21
53.382
  0
LINE
  8
0
 10
89.89
 11
90.2
 20
53.382
 21
53.825
  0
LINE
  8
0
 10
90.2
 11
90.582
 20
53.825
 21
54.207
  0
LINE
  8
0
 10
90.582
 11
91.025
 20
54.207
 21
54.517
  0
LINE
  8
0
 10
91.025
 11
91.515
 20
54.517
 21
54.745
  0
LINE
  8
0
 10
91.515
 11
92.037
 20
54.745
 21
54.885
  0
LINE
  8
0
 10
92.037
 11
92.575
 20
54.885
 21
54.932
  0
LINE
  8
0
 10
92.575
 11
93.113
 20
54.932
 21
54.885
  0
LINE
  8
0
 10
93.113
 11
93.635
 20
54.885
 21
54.745
  0
LINE
  8
0
 10
93.635
 11
94.125
 20
54.745
 21
54.517
  0
LINE
  8
0
 10
94.125
 11
94.568
 20
54.517
 21
54.207
  0
LINE
  8
0
 10
94.568
 11
94.95
 20
54.207
 21
53.825
  0
LINE
  8
0
 10
94.95
 11
95.26
 20
53.825
 21
53.382
  0
LINE
  8
0
 10
95.26
 11
95.488
 20
53.382
 21
52.893
  0
LINE
  8
0
 10
95.488
 11
95.628
 20
52.893
 21
52.371
  0
LINE
  8
0
 10
95.628
 11
95.675
 20
52.371
 21
51.832
  0
LINE
  8
0
 10
95.675
 11
95.628
 20
51.832
 21
51.294
  0
LINE
  8
0
 10
95.628
 11
95.488
 20
51.294
 21
50.772
  0
LINE
  8
0
 10
95.488
 11
95.26
 20
50.772
 21
50.282
  0
LINE
  8
0
 10
95.26
 11
94.95
 20
50.282
 21
49.84
  0
LINE
  8
0
 10
94.95
 11
94.568
 20
49.84
 21
49.458
  0
LINE
  8
0
 10
94.568
 11
94.125
 20
49.458
 21
49.148
  0
LINE
  8
0
 10
94.125
 11
93.635
 20
49.148
 21
48.919
  0
LINE
  8
0
 10
93.635
 11
93.113
 20
48.919
 21
48.779
  0
LINE
  8
0
 10
93.113
 11
92.575
 20
48.779
 21
48.732
  0
LINE
  8
0
 10
92.575
 11
92.037
 20
48.732
 21
48.779
  0
LINE
  8
0
 10
92.037
 11
91.515
 20
48.779
 21
48.919
  0
LINE
  8
0
 10
91.515
 11
91.025
 20
48.919
 21
49.148
  0
LINE
  8
0
 10
91.025
 11
90.582
 20
49.148
 21
49.458
  0
LINE
  8
0
 10
90.582
 11
90.2
 20
49.458
 21
49.84
  0
LINE
  8
0
 10
90.2
 11
89.89
 20
49.84
 21
50.282
  0
LINE
  8
0
 10
89.89
 11
89.662
 20
50.282
 21
50.772
  0
LINE
  8
0
 10
89.662
 11
89.522
 20
50.772
 21
51.294
  0
LINE
  8
0
 10
89.522
 11
89.475
 20
51.294
 21
51.832
  0
LINE
  8
0
 10
90.325
 11
90.325
 20
28.499
 21
38.499
  0
LINE
  8
0
 10
90.325
 11
94.825
 20
38.499
 21
38.499
  0
LINE
  8
0
 10
94.825
 11
94.825
 20
38.499
 21
28.499
  0
LINE
  8
0
 10
94.825
 11
90.325
 20
28.499
 21
28.499
  0
LINE
  8
0
 10
90.325
 11
90.325
 20
65.166
 21
75.166
  0
LINE
  8
0
 10
90.325
 11
94.825
 20
75.166
 21
75.166
  0
LINE
  8
0
 10
94.825
 11
94.825
 20
75.166
 21
65.166
  0
LINE
  8
0
 10
94.825
 11
90.325
 20
65.166
 21
65.166
  0
LINE
  8
0
 10
114.525
 11
114.572
 20
51.832
 21
52.371
  0
LINE
  8
0
 10
114.572
 11
114.712
 20
52.371
 21
52.893
  0
LINE
  8
0
 10
114.712
 11
114.94
 20
52.893
 21
53.382
  0
LINE
  8
0
 10
114.94
 11
115.25
 20
53.382
 21
53.825
  0
LINE
  8
0
 10
115.25
 11
115.632
 20
53.825
 21
54.207
  0
LINE
  8
0
 10
115.632
 11
116.075
 20
54.207
 21
54.517
  0
LINE
  8
0
 10
116.075
 11
116.565
 20
54.517
 21
54.745
  0
LINE
  8
0
 10
116.565
 11
117.087
 20
54.745
 21
54.885
  0
LINE
  8
0
 10
117.087
 11
117.625
 20
54.885
 21
54.932
  0
LINE
  8
0
 10
117.625
 11
118.163
 20
54.932
 21
54.885
  0
LINE
  8
0
 10
118.163
 11
118.685
 20
54.885
 21
54.745
  0
LINE
  8
0
 10
118.685
 11
119.175
 20
54.745
 21
54.517
  0
LINE
  8
0
 10
119.175
 11
119.618
 20
54.517
 21
54.207
  0
LINE
  8
0
 10
119.618
 11
120
 20
54.207
 21
53.825
  0
LINE
  8
0
 10
120
 11
120.31
 20
53.825
 21
53.382
  0
LINE
  8
0
 10
120.31
 11
120.538
 20
53.382
 21
52.893
  0
LINE
  8
0
 10
120.538
 11
120.678
 20
52.893
 21
52.371
  0
LINE
  8
0
 10
120.678
 11
120.725
 20
52.371
 21
51.832
  0
LINE
  8
0
 10
120.725
 11
120.678
 20
51.832
 21
51.294
  0
LINE
  8
0
 10
120.678
 11
120.538
 20
51.294
 21
50.772
  0
LINE
  8
0
 10
120.538
 11
120.31
 20
50.772
 21
50.282
  0
LINE
  8
0
 10
120.31
 11
120
 20
50.282
 21
49.84
  0
LINE
  8
0
 10
120
 11
119.618
 20
49.84
 21
49.458
  0
LINE
  8
0
 10
119.618
 11
119.175
 20
49.458
 21
49.148
  0
LINE
  8
0
 10
119.175
 11
118.685
 20
49.148
 21
48.919
  0
LINE
  8
0
 10
118.685
 11
118.163
 20
48.919
 21
48.779
  0
LINE
  8
0
 10
118.163
 11
117.625
 20
48.779
 21
48.732
  0
LINE
  8
0
 10
117.625
 11
117.087
 20
48.732
 21
48.779
  0
LINE
  8
0
 10
117.087
 11
116.565
 20
48.779
 21
48.919
  0
LINE
  8
0
 10
116.565
 11
116.075
 20
48.919
 21
49.148
  0
LINE
  8
0
 10
116.075
 11
115.632
 20
49.148
 21
49.458
  0
LINE
  8
0
 10
115.632
 11
115.25
 20
49.458
 21
49.84
  0
LINE
  8
0
 10
115.25
 11
114.94
 20
49.84
 21
50.282
  0
LINE
  8
0
 10
114.94
 11
114.712
 20
50.282
 21
50.772
  0
LINE
  8
0
 10
114.712
 11
114.572
 20
50.772
 21
51.294
  0
LINE
  8
0
 10
114.572
 11
114.525
 20
51.294
 21
51.832
  0
LINE
  8
0
 10
115.375
 11
115.375
 20
28.499
 21
38.499
  0
LINE
  8
0
 10
115.375
 11
119.875
 20
38.499
 21
38.499
  0
LINE
  8
0
 10
119.875
 11
119.875
 20
38.499
 21
28.499
  0
LINE
  8
0
 10
119.875
 11
115.375
 20
28.499
 21
28.499
  0
LINE
  8
0
 10
115.375
 11
115.375
 20
65.166
 21
75.166
  0
LINE
  8
0
 10
115.375
 11
119.875
 20
75.166
 21
75.166
  0
LINE
  8
0
 10
119.875
 11
119.875
 20
75.166
 21
65.166
  0
LINE
  8
0
 10
119.875
 11
115.375
 20
65.166
 21
65.166
  0
LINE
  8
0
 10
125.725
 11
125.772
 20
0
 21
0.538
  0
LINE
  8
0
 10
125.772
 11
125.912
 20
0.538
 21
1.06
  0
LINE
  8
0
 10
125.912
 11
126.14
 20
1.06
 21
1.55
  0
LINE
  8
0
 10
126.14
 11
126.45
 20
1.55
 21
1.993
  0
LINE
  8
0
 10
126.45
 11
126.832
 20
1.993
 21
2.375
  0
LINE
  8
0
 10
126.832
 11
127.275
 20
2.375
 21
2.685
  0
LINE
  8
0
 10
127.275
 11
127.765
 20
2.685
 21
2.913
  0
LINE
  8
0
 10
127.765
 11
128.287
 20
2.913
 21
3.053
  0
LINE
  8
0
 10
128.287
 11
128.825
 20
3.053
 21
3.1
  0
LINE
  8
0
 10
128.825
 11
129.363
 20
3.1
 21
3.053
  0
LINE
  8
0
 10
129.363
 11
129.885
 20
3.053
 21
2.913
  0
LINE
  8
0
 10
129.885
 11
130.375
 20
2.913
 21
2.685
  0
LINE
  8
0
 10
130.375
 11
130.818
 20
2.685
 21
2.375
  0
LINE
  8
0
 10
130.818
 11
131.2
 20
2.375
 21
1.993
  0
LINE
  8
0
 10
131.2
 11
131.51
 20
1.993
 21
1.55
  0
LINE
  8
0
 10
131.51
 11
131.738
 20
1.55
 21
1.06
  0
LINE
  8
0
 10
131.738
 11
131.878
 20
1.06
 21
0.538
  0
LINE
  8
0
 10
131.878
 11
131.925
 20
0.538
 21
0
  0
LINE
  8
0
 10
131.925
 11
131.878
 20
0
 21
-0.538
  0
LINE
  8
0
 10
131.878
 11
131.738
 20
-0.538
 21
-1.06
  0
LINE
  8
0
 10
131.738
 11
131.51
 20
-1.06
 21
-1.55
  0
LINE
  8
0
 10
131.51
 11
131.2
 20
-1.55
 21
-1.993
  0
LINE
  8
0
 10
131.2
 11
130.818
 20
-1.993
 21
-2.375
  0
LINE
  8
0
 10
130.818
 11
130.375
 20
-2.375
 21
-2.685
  0
LINE
  8
0
 10
130.375
 11
129.885
 20
-2.685
 21
-2.913
  0
LINE
  8
0
 10
129.885
 11
129.363
 20
-2.913
 21
-3.053
  0
LINE
  8
0
 10
129.363
 11
128.825
 20
-3.053
 21
-3.1
  0
LINE
  8
0
 10
128.825
 11
128.287
 20
-3.1
 21
-3.053
  0
LINE
  8
0
 10
128.287
 11
127.765
 20
-3.053
 21
-2.913
  0
LINE
  8
0
 10
127.765
 11
127.275
 20
-2.913
 21
-2.685
  0
LINE
  8
0
 10
127.275
 11
126.832
 20
-2.685
 21
-2.375
  0
LINE
  8
0
 10
126.832
 11
126.45
 20
-2.375
 21
-1.993
  0
LINE
  8
0
 10
126.45
 11
126.14
 20
-1.993
 21
-1.55
  0
LINE
  8
0
 10
126.14
 11
125.912
 20
-1.55
 21
-1.06
  0
LINE
  8
0
 10
125.912
 11
125.772
 20
-1.06
 21
-0.538
  0
LINE
  8
0
 10
125.772
 11
125.725
 20
-0.538
 21
0
  0
LINE
  8
0
 10
126.575
 11
126.575
 20
-27.673
 21
-17.673
  0
LINE
  8
0
 10
126.575
 11
131.075
 20
-17.673
 21
-17.673
  0
LINE
  8
0
 10
131.075
 11
131.075
 20
-17.673
 21
-27.673
  0
LINE
  8
0
 10
131.075
 11
126.575
 20
-27.673
 21
-27.673
  0
LINE
  8
0
 10
126.575
 11
126.575
 20
17.673
 21
27.673
  0
LINE
  8
0
 10
126.575
 11
131.075
 20
27.673
 21
27.673
  0
LINE
  8
0
 10
131.075
 11
131.075
 20
27.673
 21
17.673
  0
LINE
  8
0
 10
131.075
 11
126.575
 20
17.673
 21
17.673
  0
LINE
  8
0
 10
136.925
 11
136.972
 20
51.832
 21
52.371
  0
LINE
  8
0
 10
136.972
 11
137.112
 20
52.371
 21
52.893
  0
LINE
  8
0
 10
137.112
 11
137.34
 20
52.893
 21
53.382
  0
LINE
  8
0
 10
137.34
 11
137.65
 20
53.382
 21
53.825
  0
LINE
  8
0
 10
137.65
 11
138.032
 20
53.825
 21
54.207
  0
LINE
  8
0
 10
138.032
 11
138.475
 20
54.207
 21
54.517
  0
LINE
  8
0
 10
138.475
 11
138.965
 20
54.517
 21
54.745
  0
LINE
  8
0
 10
138.965
 11
139.487
 20
54.745
 21
54.885
  0
LINE
  8
0
 10
139.487
 11
140.025
 20
54.885
 21
54.932
  0
LINE
  8
0
 10
140.025
 11
140.563
 20
54.932
 21
54.885
  0
LINE
  8
0
 10
140.563
 11
141.085
 20
54.885
 21
54.745
  0
LINE
  8
0
 10
141.085
 11
141.575
 20
54.745
 21
54.517
  0
LINE
  8
0
 10
141.575
 11
142.018
 20
54.517
 21
54.207
  0
LINE
  8
0
 10
142.018
 11
142.4
 20
54.207
 21
53.825
  0
LINE
  8
0
 10
142.4
 11
142.71
 20
53.825
 21
53.382
  0
LINE
  8
0
 10
142.71
 11
142.938
 20
53.382
 21
52.893
  0
LINE
  8
0
 10
142.938
 11
143.078
 20
52.893
 21
52.371
  0
LINE
  8
0
 10
143.078
 11
143.125
 20
52.371
 21
51.832
  0
LINE
  8
0
 10
143.125
 11
143.078
 20
51.832
 21
51.294
  0
LINE
  8
0
 10
143.078
 11
142.938
 20
51.294
 21
50.772
  0
LINE
  8
0
 10
142.938
 11
142.71
 20
50.772
 21
50.282
  0
LINE
  8
0
 10
142.71
 11
142.4
 20
50.282
 21
49.84
  0
LINE
  8
0
 10
142.4
 11
142.018
 20
49.84
 21
49.458
  0
LINE
  8
0
 10
142.018
 11
141.575
 20
49.458
 21
49.148
  0
LINE
  8
0
 10
141.575
 11
141.085
 20
49.148
 21
48.919
  0
LINE
  8
0
 10
141.085
 11
140.563
 20
48.919
 21
48.779
  0
LINE
  8
0
 10
140.563
 11
140.025
 20
48.779
 21
48.732
  0
LINE
  8
0
 10
140.025
 11
139.487
 20
48.732
 21
48.779
  0
LINE
  8
0
 10
139.487
 11
138.965
 20
48.779
 21
48.919
  0
LINE
  8
0
 10
138.965
 11
138.475
 20
48.919
 21
49.148
  0
LINE
  8
0
 10
138.475
 11
138.032
 20
49.148
 21
49.458
  0
LINE
  8
0
 10
138.032
 11
137.65
 20
49.458
 21
49.84
  0
LINE
  8
0
 10
137.65
 11
137.34
 20
49.84
 21
50.282
  0
LINE
  8
0
 10
137.34
 11
137.112
 20
50.282
 21
50.772
  0
LINE
  8
0
 10
137.112
 11
136.972
 20
50.772
 21
51.294
  0
LINE
  8
0
 10
136.972
 11
136.925
 20
51.294
 21
51.832
  0
LINE
  8
0
 10
137.775
 11
137.775
 20
28.499
 21
38.499
  0
LINE
  8
0
 10
137.775
 11
142.275
 20
38.499
 21
38.499
  0
LINE
  8
0
 10
142.275
 11
142.275
 20
38.499
 21
28.499
  0
LINE
  8
0
 10
142.275
 11
137.775
 20
28.499
 21
28.499
  0
LINE
  8
0
 10
137.775
 11
137.775
 20
65.166
 21
75.166
  0
LINE
  8
0
 10
137.775
 11
142.275
 20
75.166
 21
75.166
  0
LINE
  8
0
 10
142.275
 11
142.275
 20
75.166
 21
65.166
  0
LINE
  8
0
 10
142.275
 11
137.775
 20
65.166
 21
65.166
  0
LINE
  8
0
 10
173.175
 11
173.222
 20
0
 21
0.538
  0
LINE
  8
0
 10
173.222
 11
173.362
 20
0.538
 21
1.06
  0
LINE
  8
0
 10
173.362
 11
173.59
 20
1.06
 21
1.55
  0
LINE
  8
0
 10
173.59
 11
173.9
 20
1.55
 21
1.993
  0
LINE
  8
0
 10
173.9
 11
174.282
 20
1.993
 21
2.375
  0
LINE
  8
0
 10
174.282
 11
174.725
 20
2.375
 21
2.685
  0
LINE
  8
0
 10
174.725
 11
175.215
 20
2.685
 21
2.913
  0
LINE
  8
0
 10
175.215
 11
175.737
 20
2.913
 21
3.053
  0
LINE
  8
0
 10
175.737
 11
176.275
 20
3.053
 21
3.1
  0
LINE
  8
0
 10
176.275
 11
176.813
 20
3.1
 21
3.053
  0
LINE
  8
0
 10
176.813
 11
177.335
 20
3.053
 21
2.913
  0
LINE
  8
0
 10
177.335
 11
177.825
 20
2.913
 21
2.685
  0
LINE
  8
0
 10
177.825
 11
178.268
 20
2.685
 21
2.375
  0
LINE
  8
0
 10
178.268
 11
178.65
 20
2.375
 21
1.993
  0
LINE
  8
0
 10
178.65
 11
178.96
 20
1.993
 21
1.55
  0
LINE
  8
0
 10
178.96
 11
179.188
 20
1.55
 21
1.06
  0
LINE
  8
0
 10
179.188
 11
179.328
 20
1.06
 21
0.538
  0
LINE
  8
0
 10
179.328
 11
179.375
 20
0.538
 21
0
  0
LINE
  8
0
 10
179.375
 11
179.328
 20
0
 21
-0.538
  0
LINE
  8
0
 10
179.328
 11
179.188
 20
-0.538
 21
-1.06
  0
LINE
  8
0
 10
179.188
 11
178.96
 20
-1.06
 21
-1.55
  0
LINE
  8
0
 10
178.96
 11
178.65
 20
-1.55
 21
-1.993
  0
LINE
  8
0
 10
178.65
 11
178.268
 20
-1.993
 21
-2.375
  0
LINE
  8
0
 10
178.268
 11
177.825
 20
-2.375
 21
-2.685
  0
LINE
  8
0
 10
177.825
 11
177.335
 20
-2.685
 21
-2.913
  0
LINE
  8
0
 10
177.335
 11
176.813
 20
-2.913
 21
-3.053
  0
LINE
  8
0
 10
176.813
 11
176.275
 20
-3.053
 21
-3.1
  0
LINE
  8
0
 10
176.275
 11
175.737
 20
-3.1
 21
-3.053
  0
LINE
  8
0
 10
175.737
 11
175.215
 20
-3.053
 21
-2.913
  0
LINE
  8
0
 10
175.215
 11
174.725
 20
-2.913
 21
-2.685
  0
LINE
  8
0
 10
174.725
 11
174.282
 20
-2.685
 21
-2.375
  0
LINE
  8
0
 10
174.282
 11
173.9
 20
-2.375
 21
-1.993
  0
LINE
  8
0
 10
173.9
 11
173.59
 20
-1.993
 21
-1.55
  0
LINE
  8
0
 10
173.59
 11
173.362
 20
-1.55
 21
-1.06
  0
LINE
  8
0
 10
173.362
 11
173.222
 20
-1.06
 21
-0.538
  0
LINE
  8
0
 10
173.222
 11
173.175
 20
-0.538
 21
0
  0
LINE
  8
0
 10
174.025
 11
174.025
 20
-27.673
 21
-17.673
  0
LINE
  8
0
 10
174.025
 11
178.525
 20
-17.673
 21
-17.673
  0
LINE
  8
0
 10
178.525
 11
178.525
 20
-17.673
 21
-27.673
  0
LINE
  8
0
 10
178.525
 11
174.025
 20
-27.673
 21
-27.673
  0
LINE
  8
0
 10
174.025
 11
174.025
 20
17.673
 21
27.673
  0
LINE
  8
0
 10
174.025
 11
178.525
 20
27.673
 21
27.673
  0
LINE
  8
0
 10
178.525
 11
178.525
 20
27.673
 21
17.673
  0
LINE
  8
0
 10
178.525
 11
174.025
 20
17.673
 21
17.673
  0
LINE
  8
0
 10
180.925
 11
180.972
 20
44.082
 21
44.621
  0
LINE
  8
0
 10
180.972
 11
181.112
 20
44.621
 21
45.143
  0
LINE
  8
0
 10
181.112
 11
181.34
 20
45.143
 21
45.632
  0
LINE
  8
0
 10
181.34
 11
181.65
 20
45.632
 21
46.075
  0
LINE
  8
0
 10
181.65
 11
182.032
 20
46.075
 21
46.457
  0
LINE
  8
0
 10
182.032
 11
182.475
 20
46.457
 21
46.767
  0
LINE
  8
0
 10
182.475
 11
182.965
 20
46.767
 21
46.995
  0
LINE
  8
0
 10
182.965
 11
183.487
 20
46.995
 21
47.135
  0
LINE
  8
0
 10
183.487
 11
184.025
 20
47.135
 21
47.182
  0
LINE
  8
0
 10
184.025
 11
184.563
 20
47.182
 21
47.135
  0
LINE
  8
0
 10
184.563
 11
185.085
 20
47.135
 21
46.995
  0
LINE
  8
0
 10
185.085
 11
185.575
 20
46.995
 21
46.767
  0
LINE
  8
0
 10
185.575
 11
186.018
 20
46.767
 21
46.457
  0
LINE
  8
0
 10
186.018
 11
186.4
 20
46.457
 21
46.075
  0
LINE
  8
0
 10
186.4
 11
186.71
 20
46.075
 21
45.632
  0
LINE
  8
0
 10
186.71
 11
186.938
 20
45.632
 21
45.143
  0
LINE
  8
0
 10
186.938
 11
187.078
 20
45.143
 21
44.621
  0
LINE
  8
0
 10
187.078
 11
187.125
 20
44.621
 21
44.082
  0
LINE
  8
0
 10
187.125
 11
187.078
 20
44.082
 21
43.544
  0
LINE
  8
0
 10
187.078
 11
186.938
 20
43.544
 21
43.022
  0
LINE
  8
0
 10
186.938
 11
186.71
 20
43.022
 21
42.532
  0
LINE
  8
0
 10
186.71
 11
186.4
 20
42.532
 21
42.09
  0
LINE
  8
0
 10
186.4
 11
186.018
 20
42.09
 21
41.708
  0
LINE
  8
0
 10
186.018
 11
185.575
 20
41.708
 21
41.398
  0
LINE
  8
0
 10
185.575
 11
185.085
 20
41.398
 21
41.169
  0
LINE
  8
0
 10
185.085
 11
184.563
 20
41.169
 21
41.029
  0
LINE
  8
0
 10
184.563
 11
184.025
 20
41.029
 21
40.982
  0
LINE
  8
0
 10
184.025
 11
183.487
 20
40.982
 21
41.029
  0
LINE
  8
0
 10
183.487
 11
182.965
 20
41.029
 21
41.169
  0
LINE
  8
0
 10
182.965
 11
182.475
 20
41.169
 21
41.398
  0
LINE
  8
0
 10
182.475
 11
182.032
 20
41.398
 21
41.708
  0
LINE
  8
0
 10
182.032
 11
181.65
 20
41.708
 21
42.09
  0
LINE
  8
0
 10
181.65
 11
181.34
 20
42.09
 21
42.532
  0
LINE
  8
0
 10
181.34
 11
181.112
 20
42.532
 21
43.022
  0
LINE
  8
0
 10
181.112
 11
180.972
 20
43.022
 21
43.544
  0
LINE
  8
0
 10
180.972
 11
180.925
 20
43.544
 21
44.082
  0
LINE
  8
0
 10
181.775
 11
181.775
 20
17.032
 21
27.032
  0
LINE
  8
0
 10
181.775
 11
186.275
 20
27.032
 21
27.032
  0
LINE
  8
0
 10
186.275
 11
186.275
 20
27.032
 21
17.032
  0
LINE
  8
0
 10
186.275
 11
181.775
 20
17.032
 21
17.032
  0
LINE
  8
0
 10
181.775
 11
181.775
 20
61.132
 21
71.132
  0
LINE
  8
0
 10
181.775
 11
186.275
 20
71.132
 21
71.132
  0
LINE
  8
0
 10
186.275
 11
186.275
 20
71.132
 21
61.132
  0
LINE
  8
0
 10
186.275
 11
181.775
 20
61.132
 21
61.132
  0
LINE
  8
0
 10
200.646
 11
200.646
 20
-9.846
 21
-9.514
  0
LINE
  8
0
 10
200.646
 11
200.715
 20
-9.514
 21
-9.189
  0
LINE
  8
0
 10
200.715
 11
200.85
 20
-9.189
 21
-8.886
  0
LINE
  8
0
 10
200.85
 11
201.045
 20
-8.886
 21
-8.618
  0
LINE
  8
0
 10
201.045
 11
201.292
 20
-8.618
 21
-8.396
  0
LINE
  8
0
 10
201.292
 11
201.579
 20
-8.396
 21
-8.23
  0
LINE
  8
0
 10
201.579
 11
201.895
 20
-8.23
 21
-8.127
  0
LINE
  8
0
 10
201.895
 11
202.225
 20
-8.127
 21
-8.092
  0
LINE
  8
0
 10
202.225
 11
202.555
 20
-8.092
 21
-8.127
  0
LINE
  8
0
 10
202.555
 11
202.871
 20
-8.127
 21
-8.23
  0
LINE
  8
0
 10
202.871
 11
203.158
 20
-8.23
 21
-8.396
  0
LINE
  8
0
 10
203.158
 11
203.405
 20
-8.396
 21
-8.618
  0
LINE
  8
0
 10
203.405
 11
203.6
 20
-8.618
 21
-8.886
  0
LINE
  8
0
 10
203.6
 11
203.735
 20
-8.886
 21
-9.189
  0
LINE
  8
0
 10
203.735
 11
203.804
 20
-9.189
 21
-9.514
  0
LINE
  8
0
 10
203.804
 11
203.804
 20
-9.514
 21
-9.846
  0
LINE
  8
0
 10
203.804
 11
203.735
 20
-9.846
 21
-10.171
  0
LINE
  8
0
 10
203.735
 11
203.6
 20
-10.171
 21
-10.474
  0
LINE
  8
0
 10
203.6
 11
203.405
 20
-10.474
 21
-10.742
  0
LINE
  8
0
 10
203.405
 11
203.158
 20
-10.742
 21
-10.964
  0
LINE
  8
0
 10
203.158
 11
202.871
 20
-10.964
 21
-11.13
  0
LINE
  8
0
 10
202.871
 11
202.555
 20
-11.13
 21
-11.233
  0
LINE
  8
0
 10
202.555
 11
202.225
 20
-11.233
 21
-11.268
  0
LINE
  8
0
 10
202.225
 11
201.895
 20
-11.268
 21
-11.233
  0
LINE
  8
0
 10
201.895
 11
201.579
 20
-11.233
 21
-11.13
  0
LINE
  8
0
 10
201.579
 11
201.292
 20
-11.13
 21
-10.964
  0
LINE
  8
0
 10
201.292
 11
201.045
 20
-10.964
 21
-10.742
  0
LINE
  8
0
 10
201.045
 11
200.85
 20
-10.742
 21
-10.474
  0
LINE
  8
0
 10
200.85
 11
200.715
 20
-10.474
 21
-10.171
  0
LINE
  8
0
 10
200.715
 11
200.646
 20
-10.171
 21
-9.846
  0
LINE
  8
0
 10
205.726
 11
205.726
 20
-61.916
 21
-61.584
  0
LINE
  8
0
 10
205.726
 11
205.795
 20
-61.584
 21
-61.259
  0
LINE
  8
0
 10
205.795
 11
205.93
 20
-61.259
 21
-60.956
  0
LINE
  8
0
 10
205.93
 11
206.125
 20
-60.956
 21
-60.688
  0
LINE
  8
0
 10
206.125
 11
206.372
 20
-60.688
 21
-60.466
  0
LINE
  8
0
 10
206.372
 11
206.659
 20
-60.466
 21
-60.3
  0
LINE
  8
0
 10
206.659
 11
206.975
 20
-60.3
 21
-60.197
  0
LINE
  8
0
 10
206.975
 11
207.305
 20
-60.197
 21
-60.162
  0
LINE
  8
0
 10
207.305
 11
207.635
 20
-60.162
 21
-60.197
  0
LINE
  8
0
 10
207.635
 11
207.951
 20
-60.197
 21
-60.3
  0
LINE
  8
0
 10
207.951
 11
208.238
 20
-60.3
 21
-60.466
  0
LINE
  8
0
 10
208.238
 11
208.485
 20
-60.466
 21
-60.688
  0
LINE
  8
0
 10
208.485
 11
208.68
 20
-60.688
 21
-60.956
  0
LINE
  8
0
 10
208.68
 11
208.815
 20
-60.956
 21
-61.259
  0
LINE
  8
0
 10
208.815
 11
208.884
 20
-61.259
 21
-61.584
  0
LINE
  8
0
 10
208.884
 11
208.884
 20
-61.584
 21
-61.916
  0
LINE
  8
0
 10
208.884
 11
208.815
 20
-61.916
 21
-62.241
  0
LINE
  8
0
 10
208.815
 11
208.68
 20
-62.241
 21
-62.544
  0
LINE
  8
0
 10
208.68
 11
208.485
 20
-62.544
 21
-62.812
  0
LINE
  8
0
 10
208.485
 11
208.238
 20
-62.812
 21
-63.034
  0
LINE
  8
0
 10
208.238
 11
207.951
 20
-63.034
 21
-63.2
  0
LINE
  8
0
 10
207.951
 11
207.635
 20
-63.2
 21
-63.303
  0
LINE
  8
0
 10
207.635
 11
207.305
 20
-63.303
 21
-63.338
  0
LINE
  8
0
 10
207.305
 11
206.975
 20
-63.338
 21
-63.303
  0
LINE
  8
0
 10
206.975
 11
206.659
 20
-63.303
 21
-63.2
  0
LINE
  8
0
 10
206.659
 11
206.372
 20
-63.2
 21
-63.034
  0
LINE
  8
0
 10
206.372
 11
206.125
 20
-63.034
 21
-62.812
  0
LINE
  8
0
 10
206.125
 11
205.93
 20
-62.812
 21
-62.544
  0
LINE
  8
0
 10
205.93
 11
205.795
 20
-62.544
 21
-62.241
  0
LINE
  8
0
 10
205.795
 11
205.726
 20
-62.241
 21
-61.916
  0
LINE
  8
0
 10
233.666
 11
233.666
 20
-61.916
 21
-61.584
  0
LINE
  8
0
 10
233.666
 11
233.735
 20
-61.584
 21
-61.259
  0
LINE
  8
0
 10
233.735
 11
233.87
 20
-61.259
 21
-60.956
  0
LINE
  8
0
 10
233.87
 11
234.065
 20
-60.956
 21
-60.688
  0
LINE
  8
0
 10
234.065
 11
234.312
 20
-60.688
 21
-60.466
  0
LINE
  8
0
 10
234.312
 11
234.599
 20
-60.466
 21
-60.3
  0
LINE
  8
0
 10
234.599
 11
234.915
 20
-60.3
 21
-60.197
  0
LINE
  8
0
 10
234.915
 11
235.245
 20
-60.197
 21
-60.162
  0
LINE
  8
0
 10
235.245
 11
235.575
 20
-60.162
 21
-60.197
  0
LINE
  8
0
 10
235.575
 11
235.891
 20
-60.197
 21
-60.3
  0
LINE
  8
0
 10
235.891
 11
236.178
 20
-60.3
 21
-60.466
  0
LINE
  8
0
 10
236.178
 11
236.425
 20
-60.466
 21
-60.688
  0
LINE
  8
0
 10
236.425
 11
236.62
 20
-60.688
 21
-60.956
  0
LINE
  8
0
 10
236.62
 11
236.755
 20
-60.956
 21
-61.259
  0
LINE
  8
0
 10
236.755
 11
236.824
 20
-61.259
 21
-61.584
  0
LINE
  8
0
 10
236.824
 11
236.824
 20
-61.584
 21
-61.916
  0
LINE
  8
0
 10
236.824
 11
236.755
 20
-61.916
 21
-62.241
  0
LINE
  8
0
 10
236.755
 11
236.62
 20
-62.241
 21
-62.544
  0
LINE
  8
0
 10
236.62
 11
236.425
 20
-62.544
 21
-62.812
  0
LINE
  8
0
 10
236.425
 11
236.178
 20
-62.812
 21
-63.034
  0
LINE
  8
0
 10
236.178
 11
235.891
 20
-63.034
 21
-63.2
  0
LINE
  8
0
 10
235.891
 11
235.575
 20
-63.2
 21
-63.303
  0
LINE
  8
0
 10
235.575
 11
235.245
 20
-63.303
 21
-63.338
  0
LINE
  8
0
 10
235.245
 11
234.915
 20
-63.338
 21
-63.303
  0
LINE
  8
0
 10
234.915
 11
234.599
 20
-63.303
 21
-63.2
  0
LINE
  8
0
 10
234.599
 11
234.312
 20
-63.2
 21
-63.034
  0
LINE
  8
0
 10
234.312
 11
234.065
 20
-63.034
 21
-62.812
  0
LINE
  8
0
 10
234.065
 11
233.87
 20
-62.812
 21
-62.544
  0
LINE
  8
0
 10
233.87
 11
233.735
 20
-62.544
 21
-62.241
  0
LINE
  8
0
 10
233.735
 11
233.666
 20
-62.241
 21
-61.916
  0
LINE
  8
0
 10
248.906
 11
248.906
 20
-11.116
 21
-10.784
  0
LINE
  8
0
 10
248.906
 11
248.975
 20
-10.784
 21
-10.459
  0
LINE
  8
0
 10
248.975
 11
249.11
 20
-10.459
 21
-10.156
  0
LINE
  8
0
 10
249.11
 11
249.305
 20
-10.156
 21
-9.888
  0
LINE
  8
0
 10
249.305
 11
249.552
 20
-9.888
 21
-9.666
  0
LINE
  8
0
 10
249.552
 11
249.839
 20
-9.666
 21
-9.5
  0
LINE
  8
0
 10
249.839
 11
250.155
 20
-9.5
 21
-9.397
  0
LINE
  8
0
 10
250.155
 11
250.485
 20
-9.397
 21
-9.362
  0
LINE
  8
0
 10
250.485
 11
250.815
 20
-9.362
 21
-9.397
  0
LINE
  8
0
 10
250.815
 11
251.131
 20
-9.397
 21
-9.5
  0
LINE
  8
0
 10
251.131
 11
251.418
 20
-9.5
 21
-9.666
  0
LINE
  8
0
 10
251.418
 11
251.665
 20
-9.666
 21
-9.888
  0
LINE
  8
0
 10
251.665
 11
251.86
 20
-9.888
 21
-10.156
  0
LINE
  8
0
 10
251.86
 11
251.995
 20
-10.156
 21
-10.459
  0
LINE
  8
0
 10
251.995
 11
252.064
 20
-10.459
 21
-10.784
  0
LINE
  8
0
 10
252.064
 11
252.064
 20
-10.784
 21
-11.116
  0
LINE
  8
0
 10
252.064
 11
251.995
 20
-11.116
 21
-11.441
  0
LINE
  8
0
 10
251.995
 11
251.86
 20
-11.441
 21
-11.744
  0
LINE
  8
0
 10
251.86
 11
251.665
 20
-11.744
 21
-12.012
  0
LINE
  8
0
 10
251.665
 11
251.418
 20
-12.012
 21
-12.234
  0
LINE
  8
0
 10
251.418
 11
251.131
 20
-12.234
 21
-12.4
  0
LINE
  8
0
 10
251.131
 11
250.815
 20
-12.4
 21
-12.503
  0
LINE
  8
0
 10
250.815
 11
250.485
 20
-12.503
 21
-12.538
  0
LINE
  8
0
 10
250.485
 11
250.155
 20
-12.538
 21
-12.503
  0
LINE
  8
0
 10
250.155
 11
249.839
 20
-12.503
 21
-12.4
  0
LINE
  8
0
 10
249.839
 11
249.552
 20
-12.4
 21
-12.234
  0
LINE
  8
0
 10
249.552
 11
249.305
 20
-12.234
 21
-12.012
  0
LINE
  8
0
 10
249.305
 11
249.11
 20
-12.012
 21
-11.744
  0
LINE
  8
0
 10
249.11
 11
248.975
 20
-11.744
 21
-11.441
  0
LINE
  8
0
 10
248.975
 11
248.906
 20
-11.441
 21
-11.116
  0
LINE
  8
0
 10
261.025
 11
261.025
 20
-47.012
 21
-37.012
  0
LINE
  8
0
 10
261.025
 11
265.525
 20
-37.012
 21
-37.012
  0
LINE
  8
0
 10
265.525
 11
265.525
 20
-37.012
 21
-47.012
  0
LINE
  8
0
 10
265.525
 11
261.025
 20
-47.012
 21
-47.012
  0
LINE
  8
0
 10
261.025
 11
261.025
 20
37.012
 21
47.012
  0
LINE
  8
0
 10
261.025
 11
265.525
 20
47.012
 21
47.012
  0
LINE
  8
0
 10
265.525
 11
265.525
 20
47.012
 21
37.012
  0
LINE
  8
0
 10
265.525
 11
261.025
 20
37.012
 21
37.012
  0
ENDSEC
  0
SECTION
  2
OBJECTS
  0
DICTIONARY
  0
ENDSEC
  0
EOF
