  0
SECTION
  2
BLOCKS
  0
ENDSEC
  0
SECTION
  2
ENTITIES
  0
LINE
  8
0
 10
-10
 11
-10
 20
-29.704
 21
0
  0
LINE
  8
0
 10
-10
 11
-9.962
 20
0
 21
0.872
  0
LINE
  8
0
 10
-9.962
 11
-9.848
 20
0.872
 21
1.736
  0
LINE
  8
0
 10
-9.848
 11
-9.659
 20
1.736
 21
2.588
  0
LINE
  8
0
 10
-9.659
 11
-9.397
 20
2.588
 21
3.42
  0
LINE
  8
0
 10
-9.397
 11
-9.063
 20
3.42
 21
4.226
  0
LINE
  8
0
 10
-9.063
 11
-8.66
 20
4.226
 21
5
  0
LINE
  8
0
 10
-8.66
 11
-8.192
 20
5
 21
5.736
  0
LINE
  8
0
 10
-8.192
 11
-7.66
 20
5.736
 21
6.428
  0
LINE
  8
0
 10
-7.66
 11
-7.071
 20
6.428
 21
7.071
  0
LINE
  8
0
 10
-7.071
 11
-6.428
 20
7.071
 21
7.66
  0
LINE
  8
0
 10
-6.428
 11
-5.736
 20
7.66
 21
8.192
  0
LINE
  8
0
 10
-5.736
 11
-5
 20
8.192
 21
8.66
  0
LINE
  8
0
 10
-5
 11
-4.226
 20
8.66
 21
9.063
  0
LINE
  8
0
 10
-4.226
 11
-3.42
 20
9.063
 21
9.397
  0
LINE
  8
0
 10
-3.42
 11
-2.588
 20
9.397
 21
9.659
  0
LINE
  8
0
 10
-2.588
 11
-1.736
 20
9.659
 21
9.848
  0
LINE
  8
0
 10
-1.736
 11
-0.872
 20
9.848
 21
9.962
  0
LINE
  8
0
 10
-0.872
 11
0
 20
9.962
 21
10
  0
LINE
  8
0
 10
0
 11
0.872
 20
10
 21
9.962
  0
LINE
  8
0
 10
0.872
 11
1.736
 20
9.962
 21
9.848
  0
LINE
  8
0
 10
1.736
 11
2.588
 20
9.848
 21
9.659
  0
LINE
  8
0
 10
2.588
 11
3.42
 20
9.659
 21
9.397
  0
LINE
  8
0
 10
3.42
 11
4.226
 20
9.397
 21
9.063
  0
LINE
  8
0
 10
4.226
 11
5
 20
9.063
 21
8.66
  0
LINE
  8
0
 10
5
 11
5.736
 20
8.66
 21
8.192
  0
LINE
  8
0
 10
5.736
 11
6.428
 20
8.192
 21
7.66
  0
LINE
  8
0
 10
6.428
 11
7.071
 20
7.66
 21
7.071
  0
LINE
  8
0
 10
7.071
 11
7.66
 20
7.071
 21
6.428
  0
LINE
  8
0
 10
7.66
 11
8.192
 20
6.428
 21
5.736
  0
LINE
  8
0
 10
8.192
 11
8.66
 20
5.736
 21
5
  0
LINE
  8
0
 10
8.66
 11
9.063
 20
5
 21
4.226
  0
LINE
  8
0
 10
9.063
 11
9.397
 20
4.226
 21
3.42
  0
LINE
  8
0
 10
9.397
 11
9.659
 20
3.42
 21
2.588
  0
LINE
  8
0
 10
9.659
 11
9.848
 20
2.588
 21
1.736
  0
LINE
  8
0
 10
9.848
 11
9.962
 20
1.736
 21
0.872
  0
LINE
  8
0
 10
9.962
 11
10
 20
0.872
 21
0
  0
LINE
  8
0
 10
10
 11
10.003
 20
0
 21
-0.124
  0
LINE
  8
0
 10
10.003
 11
10.012
 20
-0.124
 21
-0.248
  0
LINE
  8
0
 10
10.012
 11
10.027
 20
-0.248
 21
-0.372
  0
LINE
  8
0
 10
10.027
 11
10.049
 20
-0.372
 21
-0.496
  0
LINE
  8
0
 10
10.049
 11
10.076
 20
-0.496
 21
-0.62
  0
LINE
  8
0
 10
10.076
 11
10.11
 20
-0.62
 21
-0.743
  0
LINE
  8
0
 10
10.11
 11
10.149
 20
-0.743
 21
-0.867
  0
LINE
  8
0
 10
10.149
 11
10.195
 20
-0.867
 21
-0.991
  0
LINE
  8
0
 10
10.195
 11
10.247
 20
-0.991
 21
-1.114
  0
LINE
  8
0
 10
10.247
 11
10.304
 20
-1.114
 21
-1.238
  0
LINE
  8
0
 10
10.304
 11
10.368
 20
-1.238
 21
-1.361
  0
LINE
  8
0
 10
10.368
 11
10.438
 20
-1.361
 21
-1.485
  0
LINE
  8
0
 10
10.438
 11
10.514
 20
-1.485
 21
-1.608
  0
LINE
  8
0
 10
10.514
 11
10.596
 20
-1.608
 21
-1.731
  0
LINE
  8
0
 10
10.596
 11
10.684
 20
-1.731
 21
-1.854
  0
LINE
  8
0
 10
10.684
 11
10.779
 20
-1.854
 21
-1.977
  0
LINE
  8
0
 10
10.779
 11
10.879
 20
-1.977
 21
-2.1
  0
LINE
  8
0
 10
10.879
 11
10.985
 20
-2.1
 21
-2.222
  0
LINE
  8
0
 10
10.985
 11
11.097
 20
-2.222
 21
-2.344
  0
LINE
  8
0
 10
11.097
 11
11.215
 20
-2.344
 21
-2.467
  0
LINE
  8
0
 10
11.215
 11
11.34
 20
-2.467
 21
-2.589
  0
LINE
  8
0
 10
11.34
 11
11.47
 20
-2.589
 21
-2.71
  0
LINE
  8
0
 10
11.47
 11
11.606
 20
-2.71
 21
-2.832
  0
LINE
  8
0
 10
11.606
 11
11.748
 20
-2.832
 21
-2.953
  0
LINE
  8
0
 10
11.748
 11
11.896
 20
-2.953
 21
-3.074
  0
LINE
  8
0
 10
11.896
 11
12.05
 20
-3.074
 21
-3.195
  0
LINE
  8
0
 10
12.05
 11
12.21
 20
-3.195
 21
-3.316
  0
LINE
  8
0
 10
12.21
 11
12.376
 20
-3.316
 21
-3.436
  0
LINE
  8
0
 10
12.376
 11
12.548
 20
-3.436
 21
-3.556
  0
LINE
  8
0
 10
12.548
 11
12.726
 20
-3.556
 21
-3.676
  0
LINE
  8
0
 10
12.726
 11
12.91
 20
-3.676
 21
-3.796
  0
LINE
  8
0
 10
12.91
 11
13.099
 20
-3.796
 21
-3.915
  0
LINE
  8
0
 10
13.099
 11
13.294
 20
-3.915
 21
-4.034
  0
LINE
  8
0
 10
13.294
 11
13.496
 20
-4.034
 21
-4.153
  0
LINE
  8
0
 10
13.496
 11
13.703
 20
-4.153
 21
-4.271
  0
LINE
  8
0
 10
13.703
 11
13.915
 20
-4.271
 21
-4.389
  0
LINE
  8
0
 10
13.915
 11
14.134
 20
-4.389
 21
-4.507
  0
LINE
  8
0
 10
14.134
 11
14.358
 20
-4.507
 21
-4.624
  0
LINE
  8
0
 10
14.358
 11
14.589
 20
-4.624
 21
-4.742
  0
LINE
  8
0
 10
14.589
 11
14.825
 20
-4.742
 21
-4.858
  0
LINE
  8
0
 10
14.825
 11
15.066
 20
-4.858
 21
-4.974
  0
LINE
  8
0
 10
15.066
 11
15.314
 20
-4.974
 21
-5.09
  0
LINE
  8
0
 10
15.314
 11
15.567
 20
-5.09
 21
-5.206
  0
LINE
  8
0
 10
15.567
 11
15.825
 20
-5.206
 21
-5.321
  0
LINE
  8
0
 10
15.825
 11
16.09
 20
-5.321
 21
-5.436
  0
LINE
  8
0
 10
16.09
 11
16.36
 20
-5.436
 21
-5.55
  0
LINE
  8
0
 10
16.36
 11
16.635
 20
-5.55
 21
-5.664
  0
LINE
  8
0
 10
16.635
 11
16.916
 20
-5.664
 21
-5.777
  0
LINE
  8
0
 10
16.916
 11
17.203
 20
-5.777
 21
-5.89
  0
LINE
  8
0
 10
17.203
 11
17.495
 20
-5.89
 21
-6.003
  0
LINE
  8
0
 10
17.495
 11
17.793
 20
-6.003
 21
-6.115
  0
LINE
  8
0
 10
17.793
 11
18.096
 20
-6.115
 21
-6.227
  0
LINE
  8
0
 10
18.096
 11
18.405
 20
-6.227
 21
-6.338
  0
LINE
  8
0
 10
18.405
 11
18.719
 20
-6.338
 21
-6.449
  0
LINE
  8
0
 10
18.719
 11
19.039
 20
-6.449
 21
-6.559
  0
LINE
  8
0
 10
19.039
 11
19.364
 20
-6.559
 21
-6.669
  0
LINE
  8
0
 10
19.364
 11
19.695
 20
-6.669
 21
-6.778
  0
LINE
  8
0
 10
19.695
 11
20.03
 20
-6.778
 21
-6.886
  0
LINE
  8
0
 10
20.03
 11
20.372
 20
-6.886
 21
-6.995
  0
LINE
  8
0
 10
20.372
 11
20.718
 20
-6.995
 21
-7.102
  0
LINE
  8
0
 10
20.718
 11
21.07
 20
-7.102
 21
-7.209
  0
LINE
  8
0
 10
21.07
 11
21.427
 20
-7.209
 21
-7.316
  0
LINE
  8
0
 10
21.427
 11
21.789
 20
-7.316
 21
-7.422
  0
LINE
  8
0
 10
21.789
 11
22.156
 20
-7.422
 21
-7.527
  0
LINE
  8
0
 10
22.156
 11
22.529
 20
-7.527
 21
-7.632
  0
LINE
  8
0
 10
22.529
 11
22.906
 20
-7.632
 21
-7.736
  0
LINE
  8
0
 10
22.906
 11
23.289
 20
-7.736
 21
-7.84
  0
LINE
  8
0
 10
23.289
 11
23.677
 20
-7.84
 21
-7.943
  0
LINE
  8
0
 10
23.677
 11
24.07
 20
-7.943
 21
-8.045
  0
LINE
  8
0
 10
24.07
 11
24.468
 20
-8.045
 21
-8.147
  0
LINE
  8
0
 10
24.468
 11
24.871
 20
-8.147
 21
-8.249
  0
LINE
  8
0
 10
24.871
 11
25.279
 20
-8.249
 21
-8.349
  0
LINE
  8
0
 10
25.279
 11
25.691
 20
-8.349
 21
-8.449
  0
LINE
  8
0
 10
25.691
 11
26.109
 20
-8.449
 21
-8.548
  0
LINE
  8
0
 10
26.109
 11
26.532
 20
-8.548
 21
-8.647
  0
LINE
  8
0
 10
26.532
 11
26.959
 20
-8.647
 21
-8.745
  0
LINE
  8
0
 10
26.959
 11
27.391
 20
-8.745
 21
-8.842
  0
LINE
  8
0
 10
27.391
 11
27.828
 20
-8.842
 21
-8.939
  0
LINE
  8
0
 10
27.828
 11
28.27
 20
-8.939
 21
-9.035
  0
LINE
  8
0
 10
28.27
 11
28.716
 20
-9.035
 21
-9.13
  0
LINE
  8
0
 10
28.716
 11
29.168
 20
-9.13
 21
-9.225
  0
LINE
  8
0
 10
29.168
 11
29.623
 20
-9.225
 21
-9.319
  0
LINE
  8
0
 10
29.623
 11
30.084
 20
-9.319
 21
-9.412
  0
LINE
  8
0
 10
30.084
 11
30.548
 20
-9.412
 21
-9.505
  0
LINE
  8
0
 10
30.548
 11
31.018
 20
-9.505
 21
-9.596
  0
LINE
  8
0
 10
31.018
 11
31.492
 20
-9.596
 21
-9.687
  0
LINE
  8
0
 10
31.492
 11
31.97
 20
-9.687
 21
-9.778
  0
LINE
  8
0
 10
31.97
 11
32.453
 20
-9.778
 21
-9.867
  0
LINE
  8
0
 10
32.453
 11
32.94
 20
-9.867
 21
-9.956
  0
LINE
  8
0
 10
32.94
 11
33.431
 20
-9.956
 21
-10.044
  0
LINE
  8
0
 10
33.431
 11
33.927
 20
-10.044
 21
-10.131
  0
LINE
  8
0
 10
33.927
 11
34.427
 20
-10.131
 21
-10.218
  0
LINE
  8
0
 10
34.427
 11
34.932
 20
-10.218
 21
-10.303
  0
LINE
  8
0
 10
34.932
 11
35.44
 20
-10.303
 21
-10.388
  0
LINE
  8
0
 10
35.44
 11
35.953
 20
-10.388
 21
-10.473
  0
LINE
  8
0
 10
35.953
 11
36.47
 20
-10.473
 21
-10.556
  0
LINE
  8
0
 10
36.47
 11
36.99
 20
-10.556
 21
-10.638
  0
LINE
  8
0
 10
36.99
 11
37.515
 20
-10.638
 21
-10.72
  0
LINE
  8
0
 10
37.515
 11
38.044
 20
-10.72
 21
-10.801
  0
LINE
  8
0
 10
38.044
 11
38.577
 20
-10.801
 21
-10.881
  0
LINE
  8
0
 10
38.577
 11
39.114
 20
-10.881
 21
-10.96
  0
LINE
  8
0
 10
39.114
 11
39.654
 20
-10.96
 21
-11.039
  0
LINE
  8
0
 10
39.654
 11
40.199
 20
-11.039
 21
-11.116
  0
LINE
  8
0
 10
40.199
 11
40.747
 20
-11.116
 21
-11.193
  0
LINE
  8
0
 10
40.747
 11
41.299
 20
-11.193
 21
-11.269
  0
LINE
  8
0
 10
41.299
 11
41.855
 20
-11.269
 21
-11.344
  0
LINE
  8
0
 10
41.855
 11
42.414
 20
-11.344
 21
-11.418
  0
LINE
  8
0
 10
42.414
 11
42.977
 20
-11.418
 21
-11.492
  0
LINE
  8
0
 10
42.977
 11
43.544
 20
-11.492
 21
-11.564
  0
LINE
  8
0
 10
43.544
 11
44.114
 20
-11.564
 21
-11.636
  0
LINE
  8
0
 10
44.114
 11
44.688
 20
-11.636
 21
-11.706
  0
LINE
  8
0
 10
44.688
 11
45.265
 20
-11.706
 21
-11.776
  0
LINE
  8
0
 10
45.265
 11
45.845
 20
-11.776
 21
-11.845
  0
LINE
  8
0
 10
45.845
 11
46.429
 20
-11.845
 21
-11.913
  0
LINE
  8
0
 10
46.429
 11
47.016
 20
-11.913
 21
-11.98
  0
LINE
  8
0
 10
47.016
 11
47.606
 20
-11.98
 21
-12.046
  0
LINE
  8
0
 10
47.606
 11
48.2
 20
-12.046
 21
-12.111
  0
LINE
  8
0
 10
48.2
 11
48.797
 20
-12.111
 21
-12.176
  0
LINE
  8
0
 10
48.797
 11
49.397
 20
-12.176
 21
-12.239
  0
LINE
  8
0
 10
49.397
 11
50
 20
-12.239
 21
-12.301
  0
LINE
  8
0
 10
50
 11
50.606
 20
-12.301
 21
-12.363
  0
LINE
  8
0
 10
50.606
 11
51.215
 20
-12.363
 21
-12.423
  0
LINE
  8
0
 10
51.215
 11
51.827
 20
-12.423
 21
-12.483
  0
LINE
  8
0
 10
51.827
 11
52.442
 20
-12.483
 21
-12.542
  0
LINE
  8
0
 10
52.442
 11
53.06
 20
-12.542
 21
-12.599
  0
LINE
  8
0
 10
53.06
 11
53.681
 20
-12.599
 21
-12.656
  0
LINE
  8
0
 10
53.681
 11
54.304
 20
-12.656
 21
-12.712
  0
LINE
  8
0
 10
54.304
 11
54.93
 20
-12.712
 21
-12.767
  0
LINE
  8
0
 10
54.93
 11
55.559
 20
-12.767
 21
-12.821
  0
LINE
  8
0
 10
55.559
 11
56.191
 20
-12.821
 21
-12.874
  0
LINE
  8
0
 10
56.191
 11
56.825
 20
-12.874
 21
-12.925
  0
LINE
  8
0
 10
56.825
 11
57.461
 20
-12.925
 21
-12.976
  0
LINE
  8
0
 10
57.461
 11
58.1
 20
-12.976
 21
-13.026
  0
LINE
  8
0
 10
58.1
 11
58.742
 20
-13.026
 21
-13.075
  0
LINE
  8
0
 10
58.742
 11
59.385
 20
-13.075
 21
-13.123
  0
LINE
  8
0
 10
59.385
 11
60.031
 20
-13.123
 21
-13.17
  0
LINE
  8
0
 10
60.031
 11
60.68
 20
-13.17
 21
-13.216
  0
LINE
  8
0
 10
60.68
 11
61.331
 20
-13.216
 21
-13.261
  0
LINE
  8
0
 10
61.331
 11
61.983
 20
-13.261
 21
-13.305
  0
LINE
  8
0
 10
61.983
 11
62.638
 20
-13.305
 21
-13.348
  0
LINE
  8
0
 10
62.638
 11
63.295
 20
-13.348
 21
-13.39
  0
LINE
  8
0
 10
63.295
 11
63.955
 20
-13.39
 21
-13.43
  0
LINE
  8
0
 10
63.955
 11
64.616
 20
-13.43
 21
-13.47
  0
LINE
  8
0
 10
64.616
 11
65.279
 20
-13.47
 21
-13.509
  0
LINE
  8
0
 10
65.279
 11
65.944
 20
-13.509
 21
-13.547
  0
LINE
  8
0
 10
65.944
 11
66.61
 20
-13.547
 21
-13.584
  0
LINE
  8
0
 10
66.61
 11
67.279
 20
-13.584
 21
-13.619
  0
LINE
  8
0
 10
67.279
 11
67.949
 20
-13.619
 21
-13.654
  0
LINE
  8
0
 10
67.949
 11
68.621
 20
-13.654
 21
-13.688
  0
LINE
  8
0
 10
68.621
 11
69.294
 20
-13.688
 21
-13.72
  0
LINE
  8
0
 10
69.294
 11
69.97
 20
-13.72
 21
-13.752
  0
LINE
  8
0
 10
69.97
 11
70.646
 20
-13.752
 21
-13.782
  0
LINE
  8
0
 10
70.646
 11
71.324
 20
-13.782
 21
-13.812
  0
LINE
  8
0
 10
71.324
 11
72.004
 20
-13.812
 21
-13.84
  0
LINE
  8
0
 10
72.004
 11
72.685
 20
-13.84
 21
-13.868
  0
LINE
  8
0
 10
72.685
 11
73.367
 20
-13.868
 21
-13.894
  0
LINE
  8
0
 10
73.367
 11
74.051
 20
-13.894
 21
-13.919
  0
LINE
  8
0
 10
74.051
 11
74.735
 20
-13.919
 21
-13.943
  0
LINE
  8
0
 10
74.735
 11
75.421
 20
-13.943
 21
-13.967
  0
LINE
  8
0
 10
75.421
 11
76.108
 20
-13.967
 21
-13.989
  0
LINE
  8
0
 10
76.108
 11
76.796
 20
-13.989
 21
-14.01
  0
LINE
  8
0
 10
76.796
 11
77.485
 20
-14.01
 21
-14.029
  0
LINE
  8
0
 10
77.485
 11
78.175
 20
-14.029
 21
-14.048
  0
LINE
  8
0
 10
78.175
 11
78.866
 20
-14.048
 21
-14.066
  0
LINE
  8
0
 10
78.866
 11
79.558
 20
-14.066
 21
-14.083
  0
LINE
  8
0
 10
79.558
 11
80.25
 20
-14.083
 21
-14.098
  0
LINE
  8
0
 10
80.25
 11
80.944
 20
-14.098
 21
-14.113
  0
LINE
  8
0
 10
80.944
 11
81.638
 20
-14.113
 21
-14.127
  0
LINE
  8
0
 10
81.638
 11
82.332
 20
-14.127
 21
-14.139
  0
LINE
  8
0
 10
82.332
 11
83.028
 20
-14.139
 21
-14.15
  0
LINE
  8
0
 10
83.028
 11
83.723
 20
-14.15
 21
-14.161
  0
LINE
  8
0
 10
83.723
 11
84.42
 20
-14.161
 21
-14.17
  0
LINE
  8
0
 10
84.42
 11
85.116
 20
-14.17
 21
-14.178
  0
LINE
  8
0
 10
85.116
 11
85.813
 20
-14.178
 21
-14.185
  0
LINE
  8
0
 10
85.813
 11
86.51
 20
-14.185
 21
-14.191
  0
LINE
  8
0
 10
86.51
 11
87.208
 20
-14.191
 21
-14.196
  0
LINE
  8
0
 10
87.208
 11
87.906
 20
-14.196
 21
-14.199
  0
LINE
  8
0
 10
87.906
 11
88.604
 20
-14.199
 21
-14.202
  0
LINE
  8
0
 10
88.604
 11
89.302
 20
-14.202
 21
-14.204
  0
LINE
  8
0
 10
89.302
 11
90
 20
-14.204
 21
-14.204
  0
LINE
  8
0
 10
90
 11
90
 20
-14.204
 21
-14.289
  0
LINE
  8
0
 10
90
 11
91.62
 20
-14.289
 21
-14.289
  0
LINE
  8
0
 10
91.62
 11
94.79
 20
-14.289
 21
-14.963
  0
LINE
  8
0
 10
94.79
 11
97.75
 20
-14.963
 21
-16.281
  0
LINE
  8
0
 10
97.75
 11
100.372
 20
-16.281
 21
-18.186
  0
LINE
  8
0
 10
100.372
 11
102.54
 20
-18.186
 21
-20.594
  0
LINE
  8
0
 10
102.54
 11
104.16
 20
-20.594
 21
-23.4
  0
LINE
  8
0
 10
104.16
 11
105.161
 20
-23.4
 21
-26.482
  0
LINE
  8
0
 10
105.161
 11
105.5
 20
-26.482
 21
-29.704
  0
LINE
  8
0
 10
105.5
 11
63.283
 20
-29.704
 21
-29.704
  0
LINE
  8
0
 10
63.283
 11
63.283
 20
-29.704
 21
-34.204
  0
LINE
  8
0
 10
63.283
 11
53.383
 20
-34.204
 21
-34.204
  0
LINE
  8
0
 10
53.383
 11
53.383
 20
-34.204
 21
-29.704
  0
LINE
  8
0
 10
53.383
 11
43
 20
-29.704
 21
-29.704
  0
LINE
  8
0
 10
43
 11
43
 20
-29.704
 21
-27.454
  0
LINE
  8
0
 10
43
 11
45.5
 20
-27.454
 21
-27.454
  0
LINE
  8
0
 10
45.5
 11
45.5
 20
-27.454
 21
-21.704
  0
LINE
  8
0
 10
45.5
 11
43
 20
-21.704
 21
-21.704
  0
LINE
  8
0
 10
43
 11
43
 20
-21.704
 21
-19.554
  0
LINE
  8
0
 10
43
 11
37
 20
-19.554
 21
-19.554
  0
LINE
  8
0
 10
37
 11
37
 20
-19.554
 21
-21.704
  0
LINE
  8
0
 10
37
 11
34.5
 20
-21.704
 21
-21.704
  0
LINE
  8
0
 10
34.5
 11
34.5
 20
-21.704
 21
-27.454
  0
LINE
  8
0
 10
34.5
 11
37
 20
-27.454
 21
-27.454
  0
LINE
  8
0
 10
37
 11
37
 20
-27.454
 21
-29.704
  0
LINE
  8
0
 10
37
 11
26.617
 20
-29.704
 21
-29.704
  0
LINE
  8
0
 10
26.617
 11
26.617
 20
-29.704
 21
-34.204
  0
LINE
  8
0
 10
26.617
 11
16.717
 20
-34.204
 21
-34.204
  0
LINE
  8
0
 10
16.717
 11
16.717
 20
-34.204
 21
-29.704
  0
LINE
  8
0
 10
16.717
 11
-10
 20
-29.704
 21
-29.704
  0
LINE
  8
0
 10
-3.15
 11
-3.138
 20
0
 21
0.275
  0
LINE
  8
0
 10
-3.138
 11
-3.102
 20
0.275
 21
0.547
  0
LINE
  8
0
 10
-3.102
 11
-3.043
 20
0.547
 21
0.815
  0
LINE
  8
0
 10
-3.043
 11
-2.96
 20
0.815
 21
1.077
  0
LINE
  8
0
 10
-2.96
 11
-2.855
 20
1.077
 21
1.331
  0
LINE
  8
0
 10
-2.855
 11
-2.728
 20
1.331
 21
1.575
  0
LINE
  8
0
 10
-2.728
 11
-2.58
 20
1.575
 21
1.807
  0
LINE
  8
0
 10
-2.58
 11
-2.413
 20
1.807
 21
2.025
  0
LINE
  8
0
 10
-2.413
 11
-2.227
 20
2.025
 21
2.227
  0
LINE
  8
0
 10
-2.227
 11
-2.025
 20
2.227
 21
2.413
  0
LINE
  8
0
 10
-2.025
 11
-1.807
 20
2.413
 21
2.58
  0
LINE
  8
0
 10
-1.807
 11
-1.575
 20
2.58
 21
2.728
  0
LINE
  8
0
 10
-1.575
 11
-1.331
 20
2.728
 21
2.855
  0
LINE
  8
0
 10
-1.331
 11
-1.077
 20
2.855
 21
2.96
  0
LINE
  8
0
 10
-1.077
 11
-0.815
 20
2.96
 21
3.043
  0
LINE
  8
0
 10
-0.815
 11
-0.547
 20
3.043
 21
3.102
  0
LINE
  8
0
 10
-0.547
 11
-0.275
 20
3.102
 21
3.138
  0
LINE
  8
0
 10
-0.275
 11
0
 20
3.138
 21
3.15
  0
LINE
  8
0
 10
0
 11
0.275
 20
3.15
 21
3.138
  0
LINE
  8
0
 10
0.275
 11
0.547
 20
3.138
 21
3.102
  0
LINE
  8
0
 10
0.547
 11
0.815
 20
3.102
 21
3.043
  0
LINE
  8
0
 10
0.815
 11
1.077
 20
3.043
 21
2.96
  0
LINE
  8
0
 10
1.077
 11
1.331
 20
2.96
 21
2.855
  0
LINE
  8
0
 10
1.331
 11
1.575
 20
2.855
 21
2.728
  0
LINE
  8
0
 10
1.575
 11
1.807
 20
2.728
 21
2.58
  0
LINE
  8
0
 10
1.807
 11
2.025
 20
2.58
 21
2.413
  0
LINE
  8
0
 10
2.025
 11
2.227
 20
2.413
 21
2.227
  0
LINE
  8
0
 10
2.227
 11
2.413
 20
2.227
 21
2.025
  0
LINE
  8
0
 10
2.413
 11
2.58
 20
2.025
 21
1.807
  0
LINE
  8
0
 10
2.58
 11
2.728
 20
1.807
 21
1.575
  0
LINE
  8
0
 10
2.728
 11
2.855
 20
1.575
 21
1.331
  0
LINE
  8
0
 10
2.855
 11
2.96
 20
1.331
 21
1.077
  0
LINE
  8
0
 10
2.96
 11
3.043
 20
1.077
 21
0.815
  0
LINE
  8
0
 10
3.043
 11
3.102
 20
0.815
 21
0.547
  0
LINE
  8
0
 10
3.102
 11
3.138
 20
0.547
 21
0.275
  0
LINE
  8
0
 10
3.138
 11
3.15
 20
0.275
 21
0
  0
LINE
  8
0
 10
3.15
 11
3.138
 20
0
 21
-0.275
  0
LINE
  8
0
 10
3.138
 11
3.102
 20
-0.275
 21
-0.547
  0
LINE
  8
0
 10
3.102
 11
3.043
 20
-0.547
 21
-0.815
  0
LINE
  8
0
 10
3.043
 11
2.96
 20
-0.815
 21
-1.077
  0
LINE
  8
0
 10
2.96
 11
2.855
 20
-1.077
 21
-1.331
  0
LINE
  8
0
 10
2.855
 11
2.728
 20
-1.331
 21
-1.575
  0
LINE
  8
0
 10
2.728
 11
2.58
 20
-1.575
 21
-1.807
  0
LINE
  8
0
 10
2.58
 11
2.413
 20
-1.807
 21
-2.025
  0
LINE
  8
0
 10
2.413
 11
2.227
 20
-2.025
 21
-2.227
  0
LINE
  8
0
 10
2.227
 11
2.025
 20
-2.227
 21
-2.413
  0
LINE
  8
0
 10
2.025
 11
1.807
 20
-2.413
 21
-2.58
  0
LINE
  8
0
 10
1.807
 11
1.575
 20
-2.58
 21
-2.728
  0
LINE
  8
0
 10
1.575
 11
1.331
 20
-2.728
 21
-2.855
  0
LINE
  8
0
 10
1.331
 11
1.077
 20
-2.855
 21
-2.96
  0
LINE
  8
0
 10
1.077
 11
0.815
 20
-2.96
 21
-3.043
  0
LINE
  8
0
 10
0.815
 11
0.547
 20
-3.043
 21
-3.102
  0
LINE
  8
0
 10
0.547
 11
0.275
 20
-3.102
 21
-3.138
  0
LINE
  8
0
 10
0.275
 11
0
 20
-3.138
 21
-3.15
  0
LINE
  8
0
 10
0
 11
-0.275
 20
-3.15
 21
-3.138
  0
LINE
  8
0
 10
-0.275
 11
-0.547
 20
-3.138
 21
-3.102
  0
LINE
  8
0
 10
-0.547
 11
-0.815
 20
-3.102
 21
-3.043
  0
LINE
  8
0
 10
-0.815
 11
-1.077
 20
-3.043
 21
-2.96
  0
LINE
  8
0
 10
-1.077
 11
-1.331
 20
-2.96
 21
-2.855
  0
LINE
  8
0
 10
-1.331
 11
-1.575
 20
-2.855
 21
-2.728
  0
LINE
  8
0
 10
-1.575
 11
-1.807
 20
-2.728
 21
-2.58
  0
LINE
  8
0
 10
-1.807
 11
-2.025
 20
-2.58
 21
-2.413
  0
LINE
  8
0
 10
-2.025
 11
-2.227
 20
-2.413
 21
-2.227
  0
LINE
  8
0
 10
-2.227
 11
-2.413
 20
-2.227
 21
-2.025
  0
LINE
  8
0
 10
-2.413
 11
-2.58
 20
-2.025
 21
-1.807
  0
LINE
  8
0
 10
-2.58
 11
-2.728
 20
-1.807
 21
-1.575
  0
LINE
  8
0
 10
-2.728
 11
-2.855
 20
-1.575
 21
-1.331
  0
LINE
  8
0
 10
-2.855
 11
-2.96
 20
-1.331
 21
-1.077
  0
LINE
  8
0
 10
-2.96
 11
-3.043
 20
-1.077
 21
-0.815
  0
LINE
  8
0
 10
-3.043
 11
-3.102
 20
-0.815
 21
-0.547
  0
LINE
  8
0
 10
-3.102
 11
-3.138
 20
-0.547
 21
-0.275
  0
LINE
  8
0
 10
-3.138
 11
-3.15
 20
-0.275
 21
0
  0
ENDSEC
  0
SECTION
  2
OBJECTS
  0
DICTIONARY
  0
ENDSEC
  0
EOF
