  0
SECTION
  2
BLOCKS
  0
ENDSEC
  0
SECTION
  2
ENTITIES
  0
LINE
  8
0
 10
-27.049
 11
-27.049
 20
-0.641
 21
0.641
  0
LINE
  8
0
 10
-27.049
 11
-25.385
 20
0.641
 21
2.053
  0
LINE
  8
0
 10
-25.385
 11
-23.667
 20
2.053
 21
3.171
  0
LINE
  8
0
 10
-23.667
 11
-21.93
 20
3.171
 21
3.985
  0
LINE
  8
0
 10
-21.93
 11
-20.212
 20
3.985
 21
4.468
  0
LINE
  8
0
 10
-20.212
 11
-18.567
 20
4.468
 21
4.531
  0
LINE
  8
0
 10
-18.567
 11
-15.771
 20
4.531
 21
3.849
  0
LINE
  8
0
 10
-15.771
 11
-15.006
 20
3.849
 21
6.177
  0
LINE
  8
0
 10
-15.006
 11
-15.011
 20
6.177
 21
6.179
  0
LINE
  8
0
 10
-15.011
 11
-14.995
 20
6.179
 21
6.211
  0
LINE
  8
0
 10
-14.995
 11
-14.984
 20
6.211
 21
6.245
  0
LINE
  8
0
 10
-14.984
 11
-14.979
 20
6.245
 21
6.243
  0
LINE
  8
0
 10
-14.979
 11
-13.873
 20
6.243
 21
8.43
  0
LINE
  8
0
 10
-13.873
 11
-16.333
 20
8.43
 21
9.925
  0
LINE
  8
0
 10
-16.333
 11
-17.451
 20
9.925
 21
11.133
  0
LINE
  8
0
 10
-17.451
 11
-18.325
 20
11.133
 21
12.689
  0
LINE
  8
0
 10
-18.325
 11
-18.977
 20
12.689
 21
14.493
  0
LINE
  8
0
 10
-18.977
 11
-19.402
 20
14.493
 21
16.498
  0
LINE
  8
0
 10
-19.402
 11
-19.58
 20
16.498
 21
18.673
  0
LINE
  8
0
 10
-19.58
 11
-18.673
 20
18.673
 21
19.58
  0
LINE
  8
0
 10
-18.673
 11
-16.498
 20
19.58
 21
19.402
  0
LINE
  8
0
 10
-16.498
 11
-14.493
 20
19.402
 21
18.977
  0
LINE
  8
0
 10
-14.493
 11
-12.689
 20
18.977
 21
18.325
  0
LINE
  8
0
 10
-12.689
 11
-11.133
 20
18.325
 21
17.451
  0
LINE
  8
0
 10
-11.133
 11
-9.925
 20
17.451
 21
16.333
  0
LINE
  8
0
 10
-9.925
 11
-8.43
 20
16.333
 21
13.873
  0
LINE
  8
0
 10
-8.43
 11
-6.243
 20
13.873
 21
14.979
  0
LINE
  8
0
 10
-6.243
 11
-6.245
 20
14.979
 21
14.984
  0
LINE
  8
0
 10
-6.245
 11
-6.211
 20
14.984
 21
14.995
  0
LINE
  8
0
 10
-6.211
 11
-6.179
 20
14.995
 21
15.011
  0
LINE
  8
0
 10
-6.179
 11
-6.177
 20
15.011
 21
15.006
  0
LINE
  8
0
 10
-6.177
 11
-3.849
 20
15.006
 21
15.771
  0
LINE
  8
0
 10
-3.849
 11
-4.531
 20
15.771
 21
18.567
  0
LINE
  8
0
 10
-4.531
 11
-4.468
 20
18.567
 21
20.212
  0
LINE
  8
0
 10
-4.468
 11
-3.985
 20
20.212
 21
21.93
  0
LINE
  8
0
 10
-3.985
 11
-3.171
 20
21.93
 21
23.667
  0
LINE
  8
0
 10
-3.171
 11
-2.053
 20
23.667
 21
25.385
  0
LINE
  8
0
 10
-2.053
 11
-0.641
 20
25.385
 21
27.049
  0
LINE
  8
0
 10
-0.641
 11
0.641
 20
27.049
 21
27.049
  0
LINE
  8
0
 10
0.641
 11
2.053
 20
27.049
 21
25.385
  0
LINE
  8
0
 10
2.053
 11
3.171
 20
25.385
 21
23.667
  0
LINE
  8
0
 10
3.171
 11
3.985
 20
23.667
 21
21.93
  0
LINE
  8
0
 10
3.985
 11
4.468
 20
21.93
 21
20.212
  0
LINE
  8
0
 10
4.468
 11
4.531
 20
20.212
 21
18.567
  0
LINE
  8
0
 10
4.531
 11
3.849
 20
18.567
 21
15.771
  0
LINE
  8
0
 10
3.849
 11
6.177
 20
15.771
 21
15.006
  0
LINE
  8
0
 10
6.177
 11
6.179
 20
15.006
 21
15.011
  0
LINE
  8
0
 10
6.179
 11
6.211
 20
15.011
 21
14.995
  0
LINE
  8
0
 10
6.211
 11
6.245
 20
14.995
 21
14.984
  0
LINE
  8
0
 10
6.245
 11
6.243
 20
14.984
 21
14.979
  0
LINE
  8
0
 10
6.243
 11
8.43
 20
14.979
 21
13.873
  0
LINE
  8
0
 10
8.43
 11
9.925
 20
13.873
 21
16.333
  0
LINE
  8
0
 10
9.925
 11
11.133
 20
16.333
 21
17.451
  0
LINE
  8
0
 10
11.133
 11
12.689
 20
17.451
 21
18.325
  0
LINE
  8
0
 10
12.689
 11
14.493
 20
18.325
 21
18.977
  0
LINE
  8
0
 10
14.493
 11
16.498
 20
18.977
 21
19.402
  0
LINE
  8
0
 10
16.498
 11
18.673
 20
19.402
 21
19.58
  0
LINE
  8
0
 10
18.673
 11
19.58
 20
19.58
 21
18.673
  0
LINE
  8
0
 10
19.58
 11
19.402
 20
18.673
 21
16.498
  0
LINE
  8
0
 10
19.402
 11
18.977
 20
16.498
 21
14.493
  0
LINE
  8
0
 10
18.977
 11
18.325
 20
14.493
 21
12.689
  0
LINE
  8
0
 10
18.325
 11
17.451
 20
12.689
 21
11.133
  0
LINE
  8
0
 10
17.451
 11
16.333
 20
11.133
 21
9.925
  0
LINE
  8
0
 10
16.333
 11
13.873
 20
9.925
 21
8.43
  0
LINE
  8
0
 10
13.873
 11
14.979
 20
8.43
 21
6.243
  0
LINE
  8
0
 10
14.979
 11
14.984
 20
6.243
 21
6.245
  0
LINE
  8
0
 10
14.984
 11
14.995
 20
6.245
 21
6.211
  0
LINE
  8
0
 10
14.995
 11
15.011
 20
6.211
 21
6.179
  0
LINE
  8
0
 10
15.011
 11
15.006
 20
6.179
 21
6.177
  0
LINE
  8
0
 10
15.006
 11
15.771
 20
6.177
 21
3.849
  0
LINE
  8
0
 10
15.771
 11
18.567
 20
3.849
 21
4.531
  0
LINE
  8
0
 10
18.567
 11
20.212
 20
4.531
 21
4.468
  0
LINE
  8
0
 10
20.212
 11
21.93
 20
4.468
 21
3.985
  0
LINE
  8
0
 10
21.93
 11
23.667
 20
3.985
 21
3.171
  0
LINE
  8
0
 10
23.667
 11
25.385
 20
3.171
 21
2.053
  0
LINE
  8
0
 10
25.385
 11
27.049
 20
2.053
 21
0.641
  0
LINE
  8
0
 10
27.049
 11
27.049
 20
0.641
 21
-0.641
  0
LINE
  8
0
 10
27.049
 11
25.385
 20
-0.641
 21
-2.053
  0
LINE
  8
0
 10
25.385
 11
23.667
 20
-2.053
 21
-3.171
  0
LINE
  8
0
 10
23.667
 11
21.93
 20
-3.171
 21
-3.985
  0
LINE
  8
0
 10
21.93
 11
20.212
 20
-3.985
 21
-4.468
  0
LINE
  8
0
 10
20.212
 11
18.567
 20
-4.468
 21
-4.531
  0
LINE
  8
0
 10
18.567
 11
15.771
 20
-4.531
 21
-3.849
  0
LINE
  8
0
 10
15.771
 11
15.006
 20
-3.849
 21
-6.177
  0
LINE
  8
0
 10
15.006
 11
15.011
 20
-6.177
 21
-6.179
  0
LINE
  8
0
 10
15.011
 11
14.995
 20
-6.179
 21
-6.211
  0
LINE
  8
0
 10
14.995
 11
14.984
 20
-6.211
 21
-6.245
  0
LINE
  8
0
 10
14.984
 11
14.979
 20
-6.245
 21
-6.243
  0
LINE
  8
0
 10
14.979
 11
13.873
 20
-6.243
 21
-8.43
  0
LINE
  8
0
 10
13.873
 11
16.333
 20
-8.43
 21
-9.925
  0
LINE
  8
0
 10
16.333
 11
17.451
 20
-9.925
 21
-11.133
  0
LINE
  8
0
 10
17.451
 11
18.325
 20
-11.133
 21
-12.689
  0
LINE
  8
0
 10
18.325
 11
18.977
 20
-12.689
 21
-14.493
  0
LINE
  8
0
 10
18.977
 11
19.402
 20
-14.493
 21
-16.498
  0
LINE
  8
0
 10
19.402
 11
19.58
 20
-16.498
 21
-18.673
  0
LINE
  8
0
 10
19.58
 11
18.673
 20
-18.673
 21
-19.58
  0
LINE
  8
0
 10
18.673
 11
16.498
 20
-19.58
 21
-19.402
  0
LINE
  8
0
 10
16.498
 11
14.493
 20
-19.402
 21
-18.977
  0
LINE
  8
0
 10
14.493
 11
12.689
 20
-18.977
 21
-18.325
  0
LINE
  8
0
 10
12.689
 11
11.133
 20
-18.325
 21
-17.451
  0
LINE
  8
0
 10
11.133
 11
9.925
 20
-17.451
 21
-16.333
  0
LINE
  8
0
 10
9.925
 11
8.43
 20
-16.333
 21
-13.873
  0
LINE
  8
0
 10
8.43
 11
6.243
 20
-13.873
 21
-14.979
  0
LINE
  8
0
 10
6.243
 11
6.245
 20
-14.979
 21
-14.984
  0
LINE
  8
0
 10
6.245
 11
6.211
 20
-14.984
 21
-14.995
  0
LINE
  8
0
 10
6.211
 11
6.179
 20
-14.995
 21
-15.011
  0
LINE
  8
0
 10
6.179
 11
6.177
 20
-15.011
 21
-15.006
  0
LINE
  8
0
 10
6.177
 11
3.849
 20
-15.006
 21
-15.771
  0
LINE
  8
0
 10
3.849
 11
4.531
 20
-15.771
 21
-18.567
  0
LINE
  8
0
 10
4.531
 11
4.468
 20
-18.567
 21
-20.212
  0
LINE
  8
0
 10
4.468
 11
3.985
 20
-20.212
 21
-21.93
  0
LINE
  8
0
 10
3.985
 11
3.171
 20
-21.93
 21
-23.667
  0
LINE
  8
0
 10
3.171
 11
2.053
 20
-23.667
 21
-25.385
  0
LINE
  8
0
 10
2.053
 11
0.641
 20
-25.385
 21
-27.049
  0
LINE
  8
0
 10
0.641
 11
-0.641
 20
-27.049
 21
-27.049
  0
LINE
  8
0
 10
-0.641
 11
-2.053
 20
-27.049
 21
-25.385
  0
LINE
  8
0
 10
-2.053
 11
-3.171
 20
-25.385
 21
-23.667
  0
LINE
  8
0
 10
-3.171
 11
-3.985
 20
-23.667
 21
-21.93
  0
LINE
  8
0
 10
-3.985
 11
-4.468
 20
-21.93
 21
-20.212
  0
LINE
  8
0
 10
-4.468
 11
-4.531
 20
-20.212
 21
-18.567
  0
LINE
  8
0
 10
-4.531
 11
-3.849
 20
-18.567
 21
-15.771
  0
LINE
  8
0
 10
-3.849
 11
-6.177
 20
-15.771
 21
-15.006
  0
LINE
  8
0
 10
-6.177
 11
-6.179
 20
-15.006
 21
-15.011
  0
LINE
  8
0
 10
-6.179
 11
-6.211
 20
-15.011
 21
-14.995
  0
LINE
  8
0
 10
-6.211
 11
-6.245
 20
-14.995
 21
-14.984
  0
LINE
  8
0
 10
-6.245
 11
-6.243
 20
-14.984
 21
-14.979
  0
LINE
  8
0
 10
-6.243
 11
-8.43
 20
-14.979
 21
-13.873
  0
LINE
  8
0
 10
-8.43
 11
-9.925
 20
-13.873
 21
-16.333
  0
LINE
  8
0
 10
-9.925
 11
-11.133
 20
-16.333
 21
-17.451
  0
LINE
  8
0
 10
-11.133
 11
-12.689
 20
-17.451
 21
-18.325
  0
LINE
  8
0
 10
-12.689
 11
-14.493
 20
-18.325
 21
-18.977
  0
LINE
  8
0
 10
-14.493
 11
-16.498
 20
-18.977
 21
-19.402
  0
LINE
  8
0
 10
-16.498
 11
-18.673
 20
-19.402
 21
-19.58
  0
LINE
  8
0
 10
-18.673
 11
-19.58
 20
-19.58
 21
-18.673
  0
LINE
  8
0
 10
-19.58
 11
-19.402
 20
-18.673
 21
-16.498
  0
LINE
  8
0
 10
-19.402
 11
-18.977
 20
-16.498
 21
-14.493
  0
LINE
  8
0
 10
-18.977
 11
-18.325
 20
-14.493
 21
-12.689
  0
LINE
  8
0
 10
-18.325
 11
-17.451
 20
-12.689
 21
-11.133
  0
LINE
  8
0
 10
-17.451
 11
-16.333
 20
-11.133
 21
-9.925
  0
LINE
  8
0
 10
-16.333
 11
-13.873
 20
-9.925
 21
-8.43
  0
LINE
  8
0
 10
-13.873
 11
-14.979
 20
-8.43
 21
-6.243
  0
LINE
  8
0
 10
-14.979
 11
-14.984
 20
-6.243
 21
-6.245
  0
LINE
  8
0
 10
-14.984
 11
-14.995
 20
-6.245
 21
-6.211
  0
LINE
  8
0
 10
-14.995
 11
-15.011
 20
-6.211
 21
-6.179
  0
LINE
  8
0
 10
-15.011
 11
-15.006
 20
-6.179
 21
-6.177
  0
LINE
  8
0
 10
-15.006
 11
-15.771
 20
-6.177
 21
-3.849
  0
LINE
  8
0
 10
-15.771
 11
-18.567
 20
-3.849
 21
-4.531
  0
LINE
  8
0
 10
-18.567
 11
-20.212
 20
-4.531
 21
-4.468
  0
LINE
  8
0
 10
-20.212
 11
-21.93
 20
-4.468
 21
-3.985
  0
LINE
  8
0
 10
-21.93
 11
-23.667
 20
-3.985
 21
-3.171
  0
LINE
  8
0
 10
-23.667
 11
-25.385
 20
-3.171
 21
-2.053
  0
LINE
  8
0
 10
-25.385
 11
-27.049
 20
-2.053
 21
-0.641
  0
LINE
  8
0
 10
-3.15
 11
-2.996
 20
0
 21
0.973
  0
LINE
  8
0
 10
-2.996
 11
-2.548
 20
0.973
 21
1.852
  0
LINE
  8
0
 10
-2.548
 11
-1.95
 20
1.852
 21
2.45
  0
LINE
  8
0
 10
-1.95
 11
1.95
 20
2.45
 21
2.45
  0
LINE
  8
0
 10
1.95
 11
2.548
 20
2.45
 21
1.852
  0
LINE
  8
0
 10
2.548
 11
2.996
 20
1.852
 21
0.973
  0
LINE
  8
0
 10
2.996
 11
3.15
 20
0.973
 21
0
  0
LINE
  8
0
 10
3.15
 11
2.996
 20
0
 21
-0.973
  0
LINE
  8
0
 10
2.996
 11
2.548
 20
-0.973
 21
-1.852
  0
LINE
  8
0
 10
2.548
 11
1.852
 20
-1.852
 21
-2.548
  0
LINE
  8
0
 10
1.852
 11
0.973
 20
-2.548
 21
-2.996
  0
LINE
  8
0
 10
0.973
 11
0
 20
-2.996
 21
-3.15
  0
LINE
  8
0
 10
0
 11
-0.973
 20
-3.15
 21
-2.996
  0
LINE
  8
0
 10
-0.973
 11
-1.852
 20
-2.996
 21
-2.548
  0
LINE
  8
0
 10
-1.852
 11
-2.548
 20
-2.548
 21
-1.852
  0
LINE
  8
0
 10
-2.548
 11
-2.996
 20
-1.852
 21
-0.973
  0
LINE
  8
0
 10
-2.996
 11
-3.15
 20
-0.973
 21
0
  0
ENDSEC
  0
SECTION
  2
OBJECTS
  0
DICTIONARY
  0
ENDSEC
  0
EOF
