  0
SECTION
  2
BLOCKS
  0
ENDSEC
  0
SECTION
  2
ENTITIES
  0
LINE
  8
0
 10
-78.518
 11
-78.18
 20
-121.537
 21
-118.314
  0
LINE
  8
0
 10
-78.18
 11
-77.178
 20
-118.314
 21
-115.232
  0
LINE
  8
0
 10
-77.178
 11
-75.558
 20
-115.232
 21
-112.426
  0
LINE
  8
0
 10
-75.558
 11
-73.39
 20
-112.426
 21
-110.018
  0
LINE
  8
0
 10
-73.39
 11
-70.768
 20
-110.018
 21
-108.113
  0
LINE
  8
0
 10
-70.768
 11
-67.808
 20
-108.113
 21
-106.795
  0
LINE
  8
0
 10
-67.808
 11
-64.639
 20
-106.795
 21
-106.122
  0
LINE
  8
0
 10
-64.639
 11
-63.018
 20
-106.122
 21
-106.122
  0
LINE
  8
0
 10
-63.018
 11
-63.018
 20
-106.122
 21
-106.037
  0
LINE
  8
0
 10
-63.018
 11
-62.556
 20
-106.037
 21
-106.033
  0
LINE
  8
0
 10
-62.556
 11
-62.093
 20
-106.033
 21
-106.021
  0
LINE
  8
0
 10
-62.093
 11
-61.63
 20
-106.021
 21
-106
  0
LINE
  8
0
 10
-61.63
 11
-61.168
 20
-106
 21
-105.972
  0
LINE
  8
0
 10
-61.168
 11
-60.706
 20
-105.972
 21
-105.936
  0
LINE
  8
0
 10
-60.706
 11
-60.244
 20
-105.936
 21
-105.891
  0
LINE
  8
0
 10
-60.244
 11
-59.782
 20
-105.891
 21
-105.839
  0
LINE
  8
0
 10
-59.782
 11
-59.32
 20
-105.839
 21
-105.778
  0
LINE
  8
0
 10
-59.32
 11
-58.859
 20
-105.778
 21
-105.71
  0
LINE
  8
0
 10
-58.859
 11
-58.397
 20
-105.71
 21
-105.633
  0
LINE
  8
0
 10
-58.397
 11
-57.937
 20
-105.633
 21
-105.548
  0
LINE
  8
0
 10
-57.937
 11
-57.476
 20
-105.548
 21
-105.456
  0
LINE
  8
0
 10
-57.476
 11
-57.016
 20
-105.456
 21
-105.355
  0
LINE
  8
0
 10
-57.016
 11
-56.557
 20
-105.355
 21
-105.246
  0
LINE
  8
0
 10
-56.557
 11
-56.098
 20
-105.246
 21
-105.129
  0
LINE
  8
0
 10
-56.098
 11
-55.64
 20
-105.129
 21
-105.005
  0
LINE
  8
0
 10
-55.64
 11
-55.182
 20
-105.005
 21
-104.872
  0
LINE
  8
0
 10
-55.182
 11
-54.724
 20
-104.872
 21
-104.731
  0
LINE
  8
0
 10
-54.724
 11
-54.268
 20
-104.731
 21
-104.582
  0
LINE
  8
0
 10
-54.268
 11
-53.812
 20
-104.582
 21
-104.426
  0
LINE
  8
0
 10
-53.812
 11
-53.356
 20
-104.426
 21
-104.261
  0
LINE
  8
0
 10
-53.356
 11
-52.902
 20
-104.261
 21
-104.088
  0
LINE
  8
0
 10
-52.902
 11
-52.448
 20
-104.088
 21
-103.908
  0
LINE
  8
0
 10
-52.448
 11
-51.995
 20
-103.908
 21
-103.72
  0
LINE
  8
0
 10
-51.995
 11
-51.543
 20
-103.72
 21
-103.523
  0
LINE
  8
0
 10
-51.543
 11
-51.092
 20
-103.523
 21
-103.319
  0
LINE
  8
0
 10
-51.092
 11
-50.641
 20
-103.319
 21
-103.107
  0
LINE
  8
0
 10
-50.641
 11
-50.192
 20
-103.107
 21
-102.887
  0
LINE
  8
0
 10
-50.192
 11
-49.744
 20
-102.887
 21
-102.659
  0
LINE
  8
0
 10
-49.744
 11
-49.296
 20
-102.659
 21
-102.424
  0
LINE
  8
0
 10
-49.296
 11
-48.85
 20
-102.424
 21
-102.18
  0
LINE
  8
0
 10
-48.85
 11
-48.405
 20
-102.18
 21
-101.929
  0
LINE
  8
0
 10
-48.405
 11
-47.96
 20
-101.929
 21
-101.67
  0
LINE
  8
0
 10
-47.96
 11
-47.517
 20
-101.67
 21
-101.403
  0
LINE
  8
0
 10
-47.517
 11
-47.075
 20
-101.403
 21
-101.129
  0
LINE
  8
0
 10
-47.075
 11
-46.635
 20
-101.129
 21
-100.847
  0
LINE
  8
0
 10
-46.635
 11
-46.195
 20
-100.847
 21
-100.557
  0
LINE
  8
0
 10
-46.195
 11
-45.757
 20
-100.557
 21
-100.26
  0
LINE
  8
0
 10
-45.757
 11
-45.32
 20
-100.26
 21
-99.954
  0
LINE
  8
0
 10
-45.32
 11
-44.885
 20
-99.954
 21
-99.642
  0
LINE
  8
0
 10
-44.885
 11
-44.451
 20
-99.642
 21
-99.322
  0
LINE
  8
0
 10
-44.451
 11
-44.018
 20
-99.322
 21
-98.994
  0
LINE
  8
0
 10
-44.018
 11
-43.587
 20
-98.994
 21
-98.658
  0
LINE
  8
0
 10
-43.587
 11
-43.157
 20
-98.658
 21
-98.315
  0
LINE
  8
0
 10
-43.157
 11
-42.729
 20
-98.315
 21
-97.965
  0
LINE
  8
0
 10
-42.729
 11
-42.302
 20
-97.965
 21
-97.607
  0
LINE
  8
0
 10
-42.302
 11
-41.877
 20
-97.607
 21
-97.242
  0
LINE
  8
0
 10
-41.877
 11
-41.454
 20
-97.242
 21
-96.869
  0
LINE
  8
0
 10
-41.454
 11
-41.032
 20
-96.869
 21
-96.489
  0
LINE
  8
0
 10
-41.032
 11
-40.612
 20
-96.489
 21
-96.102
  0
LINE
  8
0
 10
-40.612
 11
-40.193
 20
-96.102
 21
-95.707
  0
LINE
  8
0
 10
-40.193
 11
-39.777
 20
-95.707
 21
-95.305
  0
LINE
  8
0
 10
-39.777
 11
-39.362
 20
-95.305
 21
-94.896
  0
LINE
  8
0
 10
-39.362
 11
-38.949
 20
-94.896
 21
-94.479
  0
LINE
  8
0
 10
-38.949
 11
-38.537
 20
-94.479
 21
-94.056
  0
LINE
  8
0
 10
-38.537
 11
-38.128
 20
-94.056
 21
-93.625
  0
LINE
  8
0
 10
-38.128
 11
-37.72
 20
-93.625
 21
-93.187
  0
LINE
  8
0
 10
-37.72
 11
-37.315
 20
-93.187
 21
-92.742
  0
LINE
  8
0
 10
-37.315
 11
-36.911
 20
-92.742
 21
-92.29
  0
LINE
  8
0
 10
-36.911
 11
-36.509
 20
-92.29
 21
-91.83
  0
LINE
  8
0
 10
-36.509
 11
-36.11
 20
-91.83
 21
-91.364
  0
LINE
  8
0
 10
-36.11
 11
-35.712
 20
-91.364
 21
-90.891
  0
LINE
  8
0
 10
-35.712
 11
-35.316
 20
-90.891
 21
-90.411
  0
LINE
  8
0
 10
-35.316
 11
-34.923
 20
-90.411
 21
-89.924
  0
LINE
  8
0
 10
-34.923
 11
-34.532
 20
-89.924
 21
-89.43
  0
LINE
  8
0
 10
-34.532
 11
-34.142
 20
-89.43
 21
-88.93
  0
LINE
  8
0
 10
-34.142
 11
-33.756
 20
-88.93
 21
-88.422
  0
LINE
  8
0
 10
-33.756
 11
-33.371
 20
-88.422
 21
-87.908
  0
LINE
  8
0
 10
-33.371
 11
-32.988
 20
-87.908
 21
-87.388
  0
LINE
  8
0
 10
-32.988
 11
-32.608
 20
-87.388
 21
-86.86
  0
LINE
  8
0
 10
-32.608
 11
-32.23
 20
-86.86
 21
-86.326
  0
LINE
  8
0
 10
-32.23
 11
-31.855
 20
-86.326
 21
-85.785
  0
LINE
  8
0
 10
-31.855
 11
-31.482
 20
-85.785
 21
-85.238
  0
LINE
  8
0
 10
-31.482
 11
-31.111
 20
-85.238
 21
-84.685
  0
LINE
  8
0
 10
-31.111
 11
-30.743
 20
-84.685
 21
-84.124
  0
LINE
  8
0
 10
-30.743
 11
-30.377
 20
-84.124
 21
-83.558
  0
LINE
  8
0
 10
-30.377
 11
-30.014
 20
-83.558
 21
-82.985
  0
LINE
  8
0
 10
-30.014
 11
-29.653
 20
-82.985
 21
-82.406
  0
LINE
  8
0
 10
-29.653
 11
-29.295
 20
-82.406
 21
-81.821
  0
LINE
  8
0
 10
-29.295
 11
-28.939
 20
-81.821
 21
-81.229
  0
LINE
  8
0
 10
-28.939
 11
-28.586
 20
-81.229
 21
-80.631
  0
LINE
  8
0
 10
-28.586
 11
-28.235
 20
-80.631
 21
-80.027
  0
LINE
  8
0
 10
-28.235
 11
-27.887
 20
-80.027
 21
-79.417
  0
LINE
  8
0
 10
-27.887
 11
-27.542
 20
-79.417
 21
-78.801
  0
LINE
  8
0
 10
-27.542
 11
-27.2
 20
-78.801
 21
-78.178
  0
LINE
  8
0
 10
-27.2
 11
-26.86
 20
-78.178
 21
-77.55
  0
LINE
  8
0
 10
-26.86
 11
-26.523
 20
-77.55
 21
-76.916
  0
LINE
  8
0
 10
-26.523
 11
-26.189
 20
-76.916
 21
-76.276
  0
LINE
  8
0
 10
-26.189
 11
-25.857
 20
-76.276
 21
-75.631
  0
LINE
  8
0
 10
-25.857
 11
-25.529
 20
-75.631
 21
-74.979
  0
LINE
  8
0
 10
-25.529
 11
-25.203
 20
-74.979
 21
-74.322
  0
LINE
  8
0
 10
-25.203
 11
-24.88
 20
-74.322
 21
-73.659
  0
LINE
  8
0
 10
-24.88
 11
-24.56
 20
-73.659
 21
-72.991
  0
LINE
  8
0
 10
-24.56
 11
-24.243
 20
-72.991
 21
-72.317
  0
LINE
  8
0
 10
-24.243
 11
-23.929
 20
-72.317
 21
-71.637
  0
LINE
  8
0
 10
-23.929
 11
-23.618
 20
-71.637
 21
-70.952
  0
LINE
  8
0
 10
-23.618
 11
-23.31
 20
-70.952
 21
-70.262
  0
LINE
  8
0
 10
-23.31
 11
-23.005
 20
-70.262
 21
-69.566
  0
LINE
  8
0
 10
-23.005
 11
-22.703
 20
-69.566
 21
-68.865
  0
LINE
  8
0
 10
-22.703
 11
-22.404
 20
-68.865
 21
-68.159
  0
LINE
  8
0
 10
-22.404
 11
-22.108
 20
-68.159
 21
-67.448
  0
LINE
  8
0
 10
-22.108
 11
-21.815
 20
-67.448
 21
-66.731
  0
LINE
  8
0
 10
-21.815
 11
-21.526
 20
-66.731
 21
-66.009
  0
LINE
  8
0
 10
-21.526
 11
-21.239
 20
-66.009
 21
-65.283
  0
LINE
  8
0
 10
-21.239
 11
-20.956
 20
-65.283
 21
-64.551
  0
LINE
  8
0
 10
-20.956
 11
-20.676
 20
-64.551
 21
-63.814
  0
LINE
  8
0
 10
-20.676
 11
-20.399
 20
-63.814
 21
-63.073
  0
LINE
  8
0
 10
-20.399
 11
-20.126
 20
-63.073
 21
-62.327
  0
LINE
  8
0
 10
-20.126
 11
-19.855
 20
-62.327
 21
-61.576
  0
LINE
  8
0
 10
-19.855
 11
-19.588
 20
-61.576
 21
-60.82
  0
LINE
  8
0
 10
-19.588
 11
-19.325
 20
-60.82
 21
-60.06
  0
LINE
  8
0
 10
-19.325
 11
-19.064
 20
-60.06
 21
-59.295
  0
LINE
  8
0
 10
-19.064
 11
-18.807
 20
-59.295
 21
-58.526
  0
LINE
  8
0
 10
-18.807
 11
-18.553
 20
-58.526
 21
-57.752
  0
LINE
  8
0
 10
-18.553
 11
-18.303
 20
-57.752
 21
-56.973
  0
LINE
  8
0
 10
-18.303
 11
-18.056
 20
-56.973
 21
-56.191
  0
LINE
  8
0
 10
-18.056
 11
-17.813
 20
-56.191
 21
-55.404
  0
LINE
  8
0
 10
-17.813
 11
-17.573
 20
-55.404
 21
-54.613
  0
LINE
  8
0
 10
-17.573
 11
-17.336
 20
-54.613
 21
-53.818
  0
LINE
  8
0
 10
-17.336
 11
-17.103
 20
-53.818
 21
-53.018
  0
LINE
  8
0
 10
-17.103
 11
-16.874
 20
-53.018
 21
-52.215
  0
LINE
  8
0
 10
-16.874
 11
-16.647
 20
-52.215
 21
-51.408
  0
LINE
  8
0
 10
-16.647
 11
-16.425
 20
-51.408
 21
-50.596
  0
LINE
  8
0
 10
-16.425
 11
-16.206
 20
-50.596
 21
-49.781
  0
LINE
  8
0
 10
-16.206
 11
-15.99
 20
-49.781
 21
-48.962
  0
LINE
  8
0
 10
-15.99
 11
-15.779
 20
-48.962
 21
-48.14
  0
LINE
  8
0
 10
-15.779
 11
-15.57
 20
-48.14
 21
-47.313
  0
LINE
  8
0
 10
-15.57
 11
-15.366
 20
-47.313
 21
-46.483
  0
LINE
  8
0
 10
-15.366
 11
-15.165
 20
-46.483
 21
-45.65
  0
LINE
  8
0
 10
-15.165
 11
-14.967
 20
-45.65
 21
-44.813
  0
LINE
  8
0
 10
-14.967
 11
-14.774
 20
-44.813
 21
-43.973
  0
LINE
  8
0
 10
-14.774
 11
-14.584
 20
-43.973
 21
-43.129
  0
LINE
  8
0
 10
-14.584
 11
-14.397
 20
-43.129
 21
-42.282
  0
LINE
  8
0
 10
-14.397
 11
-14.215
 20
-42.282
 21
-41.432
  0
LINE
  8
0
 10
-14.215
 11
-14.036
 20
-41.432
 21
-40.578
  0
LINE
  8
0
 10
-14.036
 11
-13.861
 20
-40.578
 21
-39.722
  0
LINE
  8
0
 10
-13.861
 11
-13.689
 20
-39.722
 21
-38.863
  0
LINE
  8
0
 10
-13.689
 11
-13.521
 20
-38.863
 21
-38
  0
LINE
  8
0
 10
-13.521
 11
-13.358
 20
-38
 21
-37.135
  0
LINE
  8
0
 10
-13.358
 11
-13.197
 20
-37.135
 21
-36.267
  0
LINE
  8
0
 10
-13.197
 11
-13.041
 20
-36.267
 21
-35.396
  0
LINE
  8
0
 10
-13.041
 11
-12.888
 20
-35.396
 21
-34.522
  0
LINE
  8
0
 10
-12.888
 11
-12.74
 20
-34.522
 21
-33.646
  0
LINE
  8
0
 10
-12.74
 11
-12.595
 20
-33.646
 21
-32.767
  0
LINE
  8
0
 10
-12.595
 11
-12.454
 20
-32.767
 21
-31.886
  0
LINE
  8
0
 10
-12.454
 11
-12.317
 20
-31.886
 21
-31.002
  0
LINE
  8
0
 10
-12.317
 11
-12.183
 20
-31.002
 21
-30.116
  0
LINE
  8
0
 10
-12.183
 11
-12.054
 20
-30.116
 21
-29.228
  0
LINE
  8
0
 10
-12.054
 11
-11.928
 20
-29.228
 21
-28.337
  0
LINE
  8
0
 10
-11.928
 11
-11.807
 20
-28.337
 21
-27.444
  0
LINE
  8
0
 10
-11.807
 11
-11.689
 20
-27.444
 21
-26.549
  0
LINE
  8
0
 10
-11.689
 11
-11.575
 20
-26.549
 21
-25.653
  0
LINE
  8
0
 10
-11.575
 11
-11.465
 20
-25.653
 21
-24.754
  0
LINE
  8
0
 10
-11.465
 11
-11.359
 20
-24.754
 21
-23.853
  0
LINE
  8
0
 10
-11.359
 11
-11.257
 20
-23.853
 21
-22.951
  0
LINE
  8
0
 10
-11.257
 11
-11.159
 20
-22.951
 21
-22.046
  0
LINE
  8
0
 10
-11.159
 11
-11.064
 20
-22.046
 21
-21.14
  0
LINE
  8
0
 10
-11.064
 11
-10.974
 20
-21.14
 21
-20.233
  0
LINE
  8
0
 10
-10.974
 11
-10.888
 20
-20.233
 21
-19.324
  0
LINE
  8
0
 10
-10.888
 11
-10.805
 20
-19.324
 21
-18.413
  0
LINE
  8
0
 10
-10.805
 11
-10.727
 20
-18.413
 21
-17.501
  0
LINE
  8
0
 10
-10.727
 11
-10.653
 20
-17.501
 21
-16.588
  0
LINE
  8
0
 10
-10.653
 11
-10.582
 20
-16.588
 21
-15.673
  0
LINE
  8
0
 10
-10.582
 11
-10.516
 20
-15.673
 21
-14.757
  0
LINE
  8
0
 10
-10.516
 11
-10.454
 20
-14.757
 21
-13.841
  0
LINE
  8
0
 10
-10.454
 11
-10.395
 20
-13.841
 21
-12.923
  0
LINE
  8
0
 10
-10.395
 11
-10.341
 20
-12.923
 21
-12.004
  0
LINE
  8
0
 10
-10.341
 11
-10.29
 20
-12.004
 21
-11.084
  0
LINE
  8
0
 10
-10.29
 11
-10.244
 20
-11.084
 21
-10.163
  0
LINE
  8
0
 10
-10.244
 11
-10.202
 20
-10.163
 21
-9.242
  0
LINE
  8
0
 10
-10.202
 11
-10.163
 20
-9.242
 21
-8.32
  0
LINE
  8
0
 10
-10.163
 11
-10.129
 20
-8.32
 21
-7.397
  0
LINE
  8
0
 10
-10.129
 11
-10.099
 20
-7.397
 21
-6.473
  0
LINE
  8
0
 10
-10.099
 11
-10.073
 20
-6.473
 21
-5.55
  0
LINE
  8
0
 10
-10.073
 11
-10.05
 20
-5.55
 21
-4.625
  0
LINE
  8
0
 10
-10.05
 11
-10.032
 20
-4.625
 21
-3.701
  0
LINE
  8
0
 10
-10.032
 11
-10.018
 20
-3.701
 21
-2.776
  0
LINE
  8
0
 10
-10.018
 11
-10.008
 20
-2.776
 21
-1.851
  0
LINE
  8
0
 10
-10.008
 11
-10.002
 20
-1.851
 21
-0.925
  0
LINE
  8
0
 10
-10.002
 11
-10
 20
-0.925
 21
0
  0
LINE
  8
0
 10
-10
 11
-9.848
 20
0
 21
1.736
  0
LINE
  8
0
 10
-9.848
 11
-9.397
 20
1.736
 21
3.42
  0
LINE
  8
0
 10
-9.397
 11
-8.66
 20
3.42
 21
5
  0
LINE
  8
0
 10
-8.66
 11
-7.66
 20
5
 21
6.428
  0
LINE
  8
0
 10
-7.66
 11
-6.428
 20
6.428
 21
7.66
  0
LINE
  8
0
 10
-6.428
 11
-5
 20
7.66
 21
8.66
  0
LINE
  8
0
 10
-5
 11
-3.42
 20
8.66
 21
9.397
  0
LINE
  8
0
 10
-3.42
 11
-1.736
 20
9.397
 21
9.848
  0
LINE
  8
0
 10
-1.736
 11
0
 20
9.848
 21
10
  0
LINE
  8
0
 10
0
 11
1.736
 20
10
 21
9.848
  0
LINE
  8
0
 10
1.736
 11
3.42
 20
9.848
 21
9.397
  0
LINE
  8
0
 10
3.42
 11
5
 20
9.397
 21
8.66
  0
LINE
  8
0
 10
5
 11
6.428
 20
8.66
 21
7.66
  0
LINE
  8
0
 10
6.428
 11
7.66
 20
7.66
 21
6.428
  0
LINE
  8
0
 10
7.66
 11
8.66
 20
6.428
 21
5
  0
LINE
  8
0
 10
8.66
 11
9.397
 20
5
 21
3.42
  0
LINE
  8
0
 10
9.397
 11
9.848
 20
3.42
 21
1.736
  0
LINE
  8
0
 10
9.848
 11
10
 20
1.736
 21
0
  0
LINE
  8
0
 10
10
 11
10.002
 20
0
 21
-0.925
  0
LINE
  8
0
 10
10.002
 11
10.008
 20
-0.925
 21
-1.851
  0
LINE
  8
0
 10
10.008
 11
10.018
 20
-1.851
 21
-2.776
  0
LINE
  8
0
 10
10.018
 11
10.032
 20
-2.776
 21
-3.701
  0
LINE
  8
0
 10
10.032
 11
10.05
 20
-3.701
 21
-4.625
  0
LINE
  8
0
 10
10.05
 11
10.073
 20
-4.625
 21
-5.55
  0
LINE
  8
0
 10
10.073
 11
10.099
 20
-5.55
 21
-6.473
  0
LINE
  8
0
 10
10.099
 11
10.129
 20
-6.473
 21
-7.397
  0
LINE
  8
0
 10
10.129
 11
10.163
 20
-7.397
 21
-8.32
  0
LINE
  8
0
 10
10.163
 11
10.202
 20
-8.32
 21
-9.242
  0
LINE
  8
0
 10
10.202
 11
10.244
 20
-9.242
 21
-10.163
  0
LINE
  8
0
 10
10.244
 11
10.29
 20
-10.163
 21
-11.084
  0
LINE
  8
0
 10
10.29
 11
10.341
 20
-11.084
 21
-12.004
  0
LINE
  8
0
 10
10.341
 11
10.395
 20
-12.004
 21
-12.923
  0
LINE
  8
0
 10
10.395
 11
10.454
 20
-12.923
 21
-13.841
  0
LINE
  8
0
 10
10.454
 11
10.516
 20
-13.841
 21
-14.757
  0
LINE
  8
0
 10
10.516
 11
10.582
 20
-14.757
 21
-15.673
  0
LINE
  8
0
 10
10.582
 11
10.653
 20
-15.673
 21
-16.588
  0
LINE
  8
0
 10
10.653
 11
10.727
 20
-16.588
 21
-17.501
  0
LINE
  8
0
 10
10.727
 11
10.805
 20
-17.501
 21
-18.413
  0
LINE
  8
0
 10
10.805
 11
10.888
 20
-18.413
 21
-19.324
  0
LINE
  8
0
 10
10.888
 11
10.974
 20
-19.324
 21
-20.233
  0
LINE
  8
0
 10
10.974
 11
11.064
 20
-20.233
 21
-21.14
  0
LINE
  8
0
 10
11.064
 11
11.159
 20
-21.14
 21
-22.046
  0
LINE
  8
0
 10
11.159
 11
11.257
 20
-22.046
 21
-22.951
  0
LINE
  8
0
 10
11.257
 11
11.359
 20
-22.951
 21
-23.853
  0
LINE
  8
0
 10
11.359
 11
11.465
 20
-23.853
 21
-24.754
  0
LINE
  8
0
 10
11.465
 11
11.575
 20
-24.754
 21
-25.653
  0
LINE
  8
0
 10
11.575
 11
11.689
 20
-25.653
 21
-26.549
  0
LINE
  8
0
 10
11.689
 11
11.807
 20
-26.549
 21
-27.444
  0
LINE
  8
0
 10
11.807
 11
11.928
 20
-27.444
 21
-28.337
  0
LINE
  8
0
 10
11.928
 11
12.054
 20
-28.337
 21
-29.228
  0
LINE
  8
0
 10
12.054
 11
12.183
 20
-29.228
 21
-30.116
  0
LINE
  8
0
 10
12.183
 11
12.317
 20
-30.116
 21
-31.002
  0
LINE
  8
0
 10
12.317
 11
12.454
 20
-31.002
 21
-31.886
  0
LINE
  8
0
 10
12.454
 11
12.595
 20
-31.886
 21
-32.767
  0
LINE
  8
0
 10
12.595
 11
12.74
 20
-32.767
 21
-33.646
  0
LINE
  8
0
 10
12.74
 11
12.888
 20
-33.646
 21
-34.522
  0
LINE
  8
0
 10
12.888
 11
13.041
 20
-34.522
 21
-35.396
  0
LINE
  8
0
 10
13.041
 11
13.197
 20
-35.396
 21
-36.267
  0
LINE
  8
0
 10
13.197
 11
13.358
 20
-36.267
 21
-37.135
  0
LINE
  8
0
 10
13.358
 11
13.521
 20
-37.135
 21
-38
  0
LINE
  8
0
 10
13.521
 11
13.689
 20
-38
 21
-38.863
  0
LINE
  8
0
 10
13.689
 11
13.861
 20
-38.863
 21
-39.722
  0
LINE
  8
0
 10
13.861
 11
14.036
 20
-39.722
 21
-40.578
  0
LINE
  8
0
 10
14.036
 11
14.215
 20
-40.578
 21
-41.432
  0
LINE
  8
0
 10
14.215
 11
14.397
 20
-41.432
 21
-42.282
  0
LINE
  8
0
 10
14.397
 11
14.584
 20
-42.282
 21
-43.129
  0
LINE
  8
0
 10
14.584
 11
14.774
 20
-43.129
 21
-43.973
  0
LINE
  8
0
 10
14.774
 11
14.967
 20
-43.973
 21
-44.813
  0
LINE
  8
0
 10
14.967
 11
15.165
 20
-44.813
 21
-45.65
  0
LINE
  8
0
 10
15.165
 11
15.366
 20
-45.65
 21
-46.483
  0
LINE
  8
0
 10
15.366
 11
15.57
 20
-46.483
 21
-47.313
  0
LINE
  8
0
 10
15.57
 11
15.779
 20
-47.313
 21
-48.14
  0
LINE
  8
0
 10
15.779
 11
15.99
 20
-48.14
 21
-48.962
  0
LINE
  8
0
 10
15.99
 11
16.206
 20
-48.962
 21
-49.781
  0
LINE
  8
0
 10
16.206
 11
16.425
 20
-49.781
 21
-50.596
  0
LINE
  8
0
 10
16.425
 11
16.647
 20
-50.596
 21
-51.408
  0
LINE
  8
0
 10
16.647
 11
16.874
 20
-51.408
 21
-52.215
  0
LINE
  8
0
 10
16.874
 11
17.103
 20
-52.215
 21
-53.018
  0
LINE
  8
0
 10
17.103
 11
17.336
 20
-53.018
 21
-53.818
  0
LINE
  8
0
 10
17.336
 11
17.573
 20
-53.818
 21
-54.613
  0
LINE
  8
0
 10
17.573
 11
17.813
 20
-54.613
 21
-55.404
  0
LINE
  8
0
 10
17.813
 11
18.056
 20
-55.404
 21
-56.191
  0
LINE
  8
0
 10
18.056
 11
18.303
 20
-56.191
 21
-56.973
  0
LINE
  8
0
 10
18.303
 11
18.553
 20
-56.973
 21
-57.752
  0
LINE
  8
0
 10
18.553
 11
18.807
 20
-57.752
 21
-58.526
  0
LINE
  8
0
 10
18.807
 11
19.064
 20
-58.526
 21
-59.295
  0
LINE
  8
0
 10
19.064
 11
19.325
 20
-59.295
 21
-60.06
  0
LINE
  8
0
 10
19.325
 11
19.588
 20
-60.06
 21
-60.82
  0
LINE
  8
0
 10
19.588
 11
19.855
 20
-60.82
 21
-61.576
  0
LINE
  8
0
 10
19.855
 11
20.126
 20
-61.576
 21
-62.327
  0
LINE
  8
0
 10
20.126
 11
20.399
 20
-62.327
 21
-63.073
  0
LINE
  8
0
 10
20.399
 11
20.676
 20
-63.073
 21
-63.814
  0
LINE
  8
0
 10
20.676
 11
20.956
 20
-63.814
 21
-64.551
  0
LINE
  8
0
 10
20.956
 11
21.239
 20
-64.551
 21
-65.283
  0
LINE
  8
0
 10
21.239
 11
21.526
 20
-65.283
 21
-66.009
  0
LINE
  8
0
 10
21.526
 11
21.815
 20
-66.009
 21
-66.731
  0
LINE
  8
0
 10
21.815
 11
22.108
 20
-66.731
 21
-67.448
  0
LINE
  8
0
 10
22.108
 11
22.404
 20
-67.448
 21
-68.159
  0
LINE
  8
0
 10
22.404
 11
22.703
 20
-68.159
 21
-68.865
  0
LINE
  8
0
 10
22.703
 11
23.005
 20
-68.865
 21
-69.566
  0
LINE
  8
0
 10
23.005
 11
23.31
 20
-69.566
 21
-70.262
  0
LINE
  8
0
 10
23.31
 11
23.618
 20
-70.262
 21
-70.952
  0
LINE
  8
0
 10
23.618
 11
23.929
 20
-70.952
 21
-71.637
  0
LINE
  8
0
 10
23.929
 11
24.243
 20
-71.637
 21
-72.317
  0
LINE
  8
0
 10
24.243
 11
24.56
 20
-72.317
 21
-72.991
  0
LINE
  8
0
 10
24.56
 11
24.88
 20
-72.991
 21
-73.659
  0
LINE
  8
0
 10
24.88
 11
25.203
 20
-73.659
 21
-74.322
  0
LINE
  8
0
 10
25.203
 11
25.529
 20
-74.322
 21
-74.979
  0
LINE
  8
0
 10
25.529
 11
25.857
 20
-74.979
 21
-75.631
  0
LINE
  8
0
 10
25.857
 11
26.189
 20
-75.631
 21
-76.276
  0
LINE
  8
0
 10
26.189
 11
26.523
 20
-76.276
 21
-76.916
  0
LINE
  8
0
 10
26.523
 11
26.86
 20
-76.916
 21
-77.55
  0
LINE
  8
0
 10
26.86
 11
27.2
 20
-77.55
 21
-78.178
  0
LINE
  8
0
 10
27.2
 11
27.542
 20
-78.178
 21
-78.801
  0
LINE
  8
0
 10
27.542
 11
27.887
 20
-78.801
 21
-79.417
  0
LINE
  8
0
 10
27.887
 11
28.235
 20
-79.417
 21
-80.027
  0
LINE
  8
0
 10
28.235
 11
28.586
 20
-80.027
 21
-80.631
  0
LINE
  8
0
 10
28.586
 11
28.939
 20
-80.631
 21
-81.229
  0
LINE
  8
0
 10
28.939
 11
29.295
 20
-81.229
 21
-81.821
  0
LINE
  8
0
 10
29.295
 11
29.653
 20
-81.821
 21
-82.406
  0
LINE
  8
0
 10
29.653
 11
30.014
 20
-82.406
 21
-82.985
  0
LINE
  8
0
 10
30.014
 11
30.377
 20
-82.985
 21
-83.558
  0
LINE
  8
0
 10
30.377
 11
30.743
 20
-83.558
 21
-84.124
  0
LINE
  8
0
 10
30.743
 11
31.111
 20
-84.124
 21
-84.685
  0
LINE
  8
0
 10
31.111
 11
31.482
 20
-84.685
 21
-85.238
  0
LINE
  8
0
 10
31.482
 11
31.855
 20
-85.238
 21
-85.785
  0
LINE
  8
0
 10
31.855
 11
32.23
 20
-85.785
 21
-86.326
  0
LINE
  8
0
 10
32.23
 11
32.608
 20
-86.326
 21
-86.86
  0
LINE
  8
0
 10
32.608
 11
32.988
 20
-86.86
 21
-87.388
  0
LINE
  8
0
 10
32.988
 11
33.371
 20
-87.388
 21
-87.908
  0
LINE
  8
0
 10
33.371
 11
33.756
 20
-87.908
 21
-88.422
  0
LINE
  8
0
 10
33.756
 11
34.142
 20
-88.422
 21
-88.93
  0
LINE
  8
0
 10
34.142
 11
34.532
 20
-88.93
 21
-89.43
  0
LINE
  8
0
 10
34.532
 11
34.923
 20
-89.43
 21
-89.924
  0
LINE
  8
0
 10
34.923
 11
35.316
 20
-89.924
 21
-90.411
  0
LINE
  8
0
 10
35.316
 11
35.712
 20
-90.411
 21
-90.891
  0
LINE
  8
0
 10
35.712
 11
36.11
 20
-90.891
 21
-91.364
  0
LINE
  8
0
 10
36.11
 11
36.509
 20
-91.364
 21
-91.83
  0
LINE
  8
0
 10
36.509
 11
36.911
 20
-91.83
 21
-92.29
  0
LINE
  8
0
 10
36.911
 11
37.315
 20
-92.29
 21
-92.742
  0
LINE
  8
0
 10
37.315
 11
37.72
 20
-92.742
 21
-93.187
  0
LINE
  8
0
 10
37.72
 11
38.128
 20
-93.187
 21
-93.625
  0
LINE
  8
0
 10
38.128
 11
38.537
 20
-93.625
 21
-94.056
  0
LINE
  8
0
 10
38.537
 11
38.949
 20
-94.056
 21
-94.479
  0
LINE
  8
0
 10
38.949
 11
39.362
 20
-94.479
 21
-94.896
  0
LINE
  8
0
 10
39.362
 11
39.777
 20
-94.896
 21
-95.305
  0
LINE
  8
0
 10
39.777
 11
40.193
 20
-95.305
 21
-95.707
  0
LINE
  8
0
 10
40.193
 11
40.612
 20
-95.707
 21
-96.102
  0
LINE
  8
0
 10
40.612
 11
41.032
 20
-96.102
 21
-96.489
  0
LINE
  8
0
 10
41.032
 11
41.454
 20
-96.489
 21
-96.869
  0
LINE
  8
0
 10
41.454
 11
41.877
 20
-96.869
 21
-97.242
  0
LINE
  8
0
 10
41.877
 11
42.302
 20
-97.242
 21
-97.607
  0
LINE
  8
0
 10
42.302
 11
42.729
 20
-97.607
 21
-97.965
  0
LINE
  8
0
 10
42.729
 11
43.157
 20
-97.965
 21
-98.315
  0
LINE
  8
0
 10
43.157
 11
43.587
 20
-98.315
 21
-98.658
  0
LINE
  8
0
 10
43.587
 11
44.018
 20
-98.658
 21
-98.994
  0
LINE
  8
0
 10
44.018
 11
44.451
 20
-98.994
 21
-99.322
  0
LINE
  8
0
 10
44.451
 11
44.885
 20
-99.322
 21
-99.642
  0
LINE
  8
0
 10
44.885
 11
45.32
 20
-99.642
 21
-99.954
  0
LINE
  8
0
 10
45.32
 11
45.757
 20
-99.954
 21
-100.26
  0
LINE
  8
0
 10
45.757
 11
46.195
 20
-100.26
 21
-100.557
  0
LINE
  8
0
 10
46.195
 11
46.635
 20
-100.557
 21
-100.847
  0
LINE
  8
0
 10
46.635
 11
47.075
 20
-100.847
 21
-101.129
  0
LINE
  8
0
 10
47.075
 11
47.517
 20
-101.129
 21
-101.403
  0
LINE
  8
0
 10
47.517
 11
47.96
 20
-101.403
 21
-101.67
  0
LINE
  8
0
 10
47.96
 11
48.405
 20
-101.67
 21
-101.929
  0
LINE
  8
0
 10
48.405
 11
48.85
 20
-101.929
 21
-102.18
  0
LINE
  8
0
 10
48.85
 11
49.296
 20
-102.18
 21
-102.424
  0
LINE
  8
0
 10
49.296
 11
49.744
 20
-102.424
 21
-102.659
  0
LINE
  8
0
 10
49.744
 11
50.192
 20
-102.659
 21
-102.887
  0
LINE
  8
0
 10
50.192
 11
50.641
 20
-102.887
 21
-103.107
  0
LINE
  8
0
 10
50.641
 11
51.092
 20
-103.107
 21
-103.319
  0
LINE
  8
0
 10
51.092
 11
51.543
 20
-103.319
 21
-103.523
  0
LINE
  8
0
 10
51.543
 11
51.995
 20
-103.523
 21
-103.72
  0
LINE
  8
0
 10
51.995
 11
52.448
 20
-103.72
 21
-103.908
  0
LINE
  8
0
 10
52.448
 11
52.902
 20
-103.908
 21
-104.088
  0
LINE
  8
0
 10
52.902
 11
53.356
 20
-104.088
 21
-104.261
  0
LINE
  8
0
 10
53.356
 11
53.812
 20
-104.261
 21
-104.426
  0
LINE
  8
0
 10
53.812
 11
54.268
 20
-104.426
 21
-104.582
  0
LINE
  8
0
 10
54.268
 11
54.724
 20
-104.582
 21
-104.731
  0
LINE
  8
0
 10
54.724
 11
55.182
 20
-104.731
 21
-104.872
  0
LINE
  8
0
 10
55.182
 11
55.64
 20
-104.872
 21
-105.005
  0
LINE
  8
0
 10
55.64
 11
56.098
 20
-105.005
 21
-105.129
  0
LINE
  8
0
 10
56.098
 11
56.557
 20
-105.129
 21
-105.246
  0
LINE
  8
0
 10
56.557
 11
57.016
 20
-105.246
 21
-105.355
  0
LINE
  8
0
 10
57.016
 11
57.476
 20
-105.355
 21
-105.456
  0
LINE
  8
0
 10
57.476
 11
57.937
 20
-105.456
 21
-105.548
  0
LINE
  8
0
 10
57.937
 11
58.397
 20
-105.548
 21
-105.633
  0
LINE
  8
0
 10
58.397
 11
58.859
 20
-105.633
 21
-105.71
  0
LINE
  8
0
 10
58.859
 11
59.32
 20
-105.71
 21
-105.778
  0
LINE
  8
0
 10
59.32
 11
59.782
 20
-105.778
 21
-105.839
  0
LINE
  8
0
 10
59.782
 11
60.244
 20
-105.839
 21
-105.891
  0
LINE
  8
0
 10
60.244
 11
60.706
 20
-105.891
 21
-105.936
  0
LINE
  8
0
 10
60.706
 11
61.168
 20
-105.936
 21
-105.972
  0
LINE
  8
0
 10
61.168
 11
61.63
 20
-105.972
 21
-106
  0
LINE
  8
0
 10
61.63
 11
62.093
 20
-106
 21
-106.021
  0
LINE
  8
0
 10
62.093
 11
62.556
 20
-106.021
 21
-106.033
  0
LINE
  8
0
 10
62.556
 11
63.018
 20
-106.033
 21
-106.037
  0
LINE
  8
0
 10
63.018
 11
63.018
 20
-106.037
 21
-106.122
  0
LINE
  8
0
 10
63.018
 11
64.639
 20
-106.122
 21
-106.122
  0
LINE
  8
0
 10
64.639
 11
67.808
 20
-106.122
 21
-106.795
  0
LINE
  8
0
 10
67.808
 11
70.768
 20
-106.795
 21
-108.113
  0
LINE
  8
0
 10
70.768
 11
73.39
 20
-108.113
 21
-110.018
  0
LINE
  8
0
 10
73.39
 11
75.558
 20
-110.018
 21
-112.426
  0
LINE
  8
0
 10
75.558
 11
77.178
 20
-112.426
 21
-115.232
  0
LINE
  8
0
 10
77.178
 11
78.18
 20
-115.232
 21
-118.314
  0
LINE
  8
0
 10
78.18
 11
78.518
 20
-118.314
 21
-121.537
  0
LINE
  8
0
 10
78.518
 11
27.673
 20
-121.537
 21
-121.537
  0
LINE
  8
0
 10
27.673
 11
27.673
 20
-121.537
 21
-126.037
  0
LINE
  8
0
 10
27.673
 11
17.673
 20
-126.037
 21
-126.037
  0
LINE
  8
0
 10
17.673
 11
17.673
 20
-126.037
 21
-121.537
  0
LINE
  8
0
 10
17.673
 11
3
 20
-121.537
 21
-121.537
  0
LINE
  8
0
 10
3
 11
3
 20
-121.537
 21
-119.287
  0
LINE
  8
0
 10
3
 11
5.5
 20
-119.287
 21
-119.287
  0
LINE
  8
0
 10
5.5
 11
5.5
 20
-119.287
 21
-113.537
  0
LINE
  8
0
 10
5.5
 11
3
 20
-113.537
 21
-113.537
  0
LINE
  8
0
 10
3
 11
3
 20
-113.537
 21
-111.387
  0
LINE
  8
0
 10
3
 11
-3
 20
-111.387
 21
-111.387
  0
LINE
  8
0
 10
-3
 11
-3
 20
-111.387
 21
-113.537
  0
LINE
  8
0
 10
-3
 11
-5.5
 20
-113.537
 21
-113.537
  0
LINE
  8
0
 10
-5.5
 11
-5.5
 20
-113.537
 21
-119.287
  0
LINE
  8
0
 10
-5.5
 11
-3
 20
-119.287
 21
-119.287
  0
LINE
  8
0
 10
-3
 11
-3
 20
-119.287
 21
-121.537
  0
LINE
  8
0
 10
-3
 11
-17.673
 20
-121.537
 21
-121.537
  0
LINE
  8
0
 10
-17.673
 11
-17.673
 20
-121.537
 21
-126.037
  0
LINE
  8
0
 10
-17.673
 11
-27.673
 20
-126.037
 21
-126.037
  0
LINE
  8
0
 10
-27.673
 11
-27.673
 20
-126.037
 21
-121.537
  0
LINE
  8
0
 10
-27.673
 11
-78.518
 20
-121.537
 21
-121.537
  0
LINE
  8
0
 10
-3.15
 11
-2.548
 20
0
 21
1.852
  0
LINE
  8
0
 10
-2.548
 11
-0.973
 20
1.852
 21
2.996
  0
LINE
  8
0
 10
-0.973
 11
0.973
 20
2.996
 21
2.996
  0
LINE
  8
0
 10
0.973
 11
2.548
 20
2.996
 21
1.852
  0
LINE
  8
0
 10
2.548
 11
3.15
 20
1.852
 21
0
  0
LINE
  8
0
 10
3.15
 11
2.548
 20
0
 21
-1.852
  0
LINE
  8
0
 10
2.548
 11
0.973
 20
-1.852
 21
-2.996
  0
LINE
  8
0
 10
0.973
 11
-0.973
 20
-2.996
 21
-2.996
  0
LINE
  8
0
 10
-0.973
 11
-2.548
 20
-2.996
 21
-1.852
  0
LINE
  8
0
 10
-2.548
 11
-3.15
 20
-1.852
 21
0
  0
ENDSEC
  0
SECTION
  2
OBJECTS
  0
DICTIONARY
  0
ENDSEC
  0
EOF
