  0
SECTION
  2
BLOCKS
  0
ENDSEC
  0
SECTION
  2
ENTITIES
  0
LINE
  8
0
 10
-93.198
 11
-88.918
 20
-25.091
 21
-23.701
  0
LINE
  8
0
 10
-88.918
 11
-85.867
 20
-23.701
 21
-33.091
  0
LINE
  8
0
 10
-85.867
 11
-90.147
 20
-33.091
 21
-34.481
  0
LINE
  8
0
 10
-90.147
 11
-93.198
 20
-34.481
 21
-25.091
  0
LINE
  8
0
 10
-93.198
 11
-90.147
 20
25.091
 21
34.481
  0
LINE
  8
0
 10
-90.147
 11
-85.867
 20
34.481
 21
33.091
  0
LINE
  8
0
 10
-85.867
 11
-88.918
 20
33.091
 21
23.701
  0
LINE
  8
0
 10
-88.918
 11
-93.198
 20
23.701
 21
25.091
  0
LINE
  8
0
 10
-82.133
 11
-20.767
 20
-10
 21
-10
  0
LINE
  8
0
 10
-20.767
 11
-20.731
 20
-10
 21
-10.076
  0
LINE
  8
0
 10
-20.731
 11
-20.472
 20
-10.076
 21
-10.593
  0
LINE
  8
0
 10
-20.472
 11
-20.199
 20
-10.593
 21
-11.104
  0
LINE
  8
0
 10
-20.199
 11
-19.913
 20
-11.104
 21
-11.609
  0
LINE
  8
0
 10
-19.913
 11
-19.615
 20
-11.609
 21
-12.105
  0
LINE
  8
0
 10
-19.615
 11
-19.305
 20
-12.105
 21
-12.594
  0
LINE
  8
0
 10
-19.305
 11
-18.982
 20
-12.594
 21
-13.076
  0
LINE
  8
0
 10
-18.982
 11
-18.648
 20
-13.076
 21
-13.548
  0
LINE
  8
0
 10
-18.648
 11
-18.301
 20
-13.548
 21
-14.013
  0
LINE
  8
0
 10
-18.301
 11
-17.944
 20
-14.013
 21
-14.468
  0
LINE
  8
0
 10
-17.944
 11
-17.574
 20
-14.468
 21
-14.915
  0
LINE
  8
0
 10
-17.574
 11
-17.194
 20
-14.915
 21
-15.352
  0
LINE
  8
0
 10
-17.194
 11
-16.803
 20
-15.352
 21
-15.779
  0
LINE
  8
0
 10
-16.803
 11
-16.401
 20
-15.779
 21
-16.196
  0
LINE
  8
0
 10
-16.401
 11
-15.989
 20
-16.196
 21
-16.603
  0
LINE
  8
0
 10
-15.989
 11
-15.566
 20
-16.603
 21
-17
  0
LINE
  8
0
 10
-15.566
 11
-15.134
 20
-17
 21
-17.385
  0
LINE
  8
0
 10
-15.134
 11
-14.693
 20
-17.385
 21
-17.76
  0
LINE
  8
0
 10
-14.693
 11
-14.242
 20
-17.76
 21
-18.124
  0
LINE
  8
0
 10
-14.242
 11
-13.782
 20
-18.124
 21
-18.476
  0
LINE
  8
0
 10
-13.782
 11
-13.313
 20
-18.476
 21
-18.817
  0
LINE
  8
0
 10
-13.313
 11
-12.836
 20
-18.817
 21
-19.145
  0
LINE
  8
0
 10
-12.836
 11
-12.351
 20
-19.145
 21
-19.462
  0
LINE
  8
0
 10
-12.351
 11
-11.858
 20
-19.462
 21
-19.766
  0
LINE
  8
0
 10
-11.858
 11
-11.357
 20
-19.766
 21
-20.058
  0
LINE
  8
0
 10
-11.357
 11
-10.85
 20
-20.058
 21
-20.337
  0
LINE
  8
0
 10
-10.85
 11
-10.335
 20
-20.337
 21
-20.603
  0
LINE
  8
0
 10
-10.335
 11
-10
 20
-20.603
 21
-20.766
  0
LINE
  8
0
 10
-10
 11
-10
 20
-20.766
 21
-82.133
  0
LINE
  8
0
 10
-10
 11
-14.381
 20
-82.133
 21
-81.556
  0
LINE
  8
0
 10
-14.381
 11
-21.434
 20
-81.556
 21
-79.992
  0
LINE
  8
0
 10
-21.434
 11
-28.324
 20
-79.992
 21
-77.82
  0
LINE
  8
0
 10
-28.324
 11
-34.999
 20
-77.82
 21
-75.055
  0
LINE
  8
0
 10
-34.999
 11
-41.407
 20
-75.055
 21
-71.719
  0
LINE
  8
0
 10
-41.407
 11
-47.5
 20
-71.719
 21
-67.837
  0
LINE
  8
0
 10
-47.5
 11
-53.232
 20
-67.837
 21
-63.439
  0
LINE
  8
0
 10
-53.232
 11
-58.558
 20
-63.439
 21
-58.558
  0
LINE
  8
0
 10
-58.558
 11
-63.439
 20
-58.558
 21
-53.232
  0
LINE
  8
0
 10
-63.439
 11
-67.837
 20
-53.232
 21
-47.5
  0
LINE
  8
0
 10
-67.837
 11
-71.719
 20
-47.5
 21
-41.407
  0
LINE
  8
0
 10
-71.719
 11
-75.055
 20
-41.407
 21
-34.999
  0
LINE
  8
0
 10
-75.055
 11
-77.82
 20
-34.999
 21
-28.324
  0
LINE
  8
0
 10
-77.82
 11
-79.992
 20
-28.324
 21
-21.434
  0
LINE
  8
0
 10
-79.992
 11
-81.556
 20
-21.434
 21
-14.381
  0
LINE
  8
0
 10
-81.556
 11
-82.133
 20
-14.381
 21
-10
  0
LINE
  8
0
 10
-82.133
 11
-81.556
 20
10
 21
14.381
  0
LINE
  8
0
 10
-81.556
 11
-79.992
 20
14.381
 21
21.434
  0
LINE
  8
0
 10
-79.992
 11
-77.82
 20
21.434
 21
28.324
  0
LINE
  8
0
 10
-77.82
 11
-75.055
 20
28.324
 21
34.999
  0
LINE
  8
0
 10
-75.055
 11
-71.719
 20
34.999
 21
41.407
  0
LINE
  8
0
 10
-71.719
 11
-67.837
 20
41.407
 21
47.5
  0
LINE
  8
0
 10
-67.837
 11
-63.439
 20
47.5
 21
53.232
  0
LINE
  8
0
 10
-63.439
 11
-58.558
 20
53.232
 21
58.558
  0
LINE
  8
0
 10
-58.558
 11
-53.232
 20
58.558
 21
63.439
  0
LINE
  8
0
 10
-53.232
 11
-47.5
 20
63.439
 21
67.837
  0
LINE
  8
0
 10
-47.5
 11
-41.407
 20
67.837
 21
71.719
  0
LINE
  8
0
 10
-41.407
 11
-34.999
 20
71.719
 21
75.055
  0
LINE
  8
0
 10
-34.999
 11
-28.324
 20
75.055
 21
77.82
  0
LINE
  8
0
 10
-28.324
 11
-21.434
 20
77.82
 21
79.992
  0
LINE
  8
0
 10
-21.434
 11
-14.381
 20
79.992
 21
81.556
  0
LINE
  8
0
 10
-14.381
 11
-10
 20
81.556
 21
82.133
  0
LINE
  8
0
 10
-10
 11
-10
 20
82.133
 21
20.766
  0
LINE
  8
0
 10
-10
 11
-10.335
 20
20.766
 21
20.603
  0
LINE
  8
0
 10
-10.335
 11
-10.85
 20
20.603
 21
20.337
  0
LINE
  8
0
 10
-10.85
 11
-11.357
 20
20.337
 21
20.058
  0
LINE
  8
0
 10
-11.357
 11
-11.858
 20
20.058
 21
19.766
  0
LINE
  8
0
 10
-11.858
 11
-12.351
 20
19.766
 21
19.462
  0
LINE
  8
0
 10
-12.351
 11
-12.836
 20
19.462
 21
19.145
  0
LINE
  8
0
 10
-12.836
 11
-13.313
 20
19.145
 21
18.817
  0
LINE
  8
0
 10
-13.313
 11
-13.782
 20
18.817
 21
18.476
  0
LINE
  8
0
 10
-13.782
 11
-14.242
 20
18.476
 21
18.124
  0
LINE
  8
0
 10
-14.242
 11
-14.693
 20
18.124
 21
17.76
  0
LINE
  8
0
 10
-14.693
 11
-15.134
 20
17.76
 21
17.385
  0
LINE
  8
0
 10
-15.134
 11
-15.566
 20
17.385
 21
17
  0
LINE
  8
0
 10
-15.566
 11
-15.989
 20
17
 21
16.603
  0
LINE
  8
0
 10
-15.989
 11
-16.401
 20
16.603
 21
16.196
  0
LINE
  8
0
 10
-16.401
 11
-16.803
 20
16.196
 21
15.779
  0
LINE
  8
0
 10
-16.803
 11
-17.194
 20
15.779
 21
15.352
  0
LINE
  8
0
 10
-17.194
 11
-17.574
 20
15.352
 21
14.915
  0
LINE
  8
0
 10
-17.574
 11
-17.944
 20
14.915
 21
14.468
  0
LINE
  8
0
 10
-17.944
 11
-18.301
 20
14.468
 21
14.013
  0
LINE
  8
0
 10
-18.301
 11
-18.648
 20
14.013
 21
13.548
  0
LINE
  8
0
 10
-18.648
 11
-18.982
 20
13.548
 21
13.076
  0
LINE
  8
0
 10
-18.982
 11
-19.305
 20
13.076
 21
12.594
  0
LINE
  8
0
 10
-19.305
 11
-19.615
 20
12.594
 21
12.105
  0
LINE
  8
0
 10
-19.615
 11
-19.913
 20
12.105
 21
11.609
  0
LINE
  8
0
 10
-19.913
 11
-20.199
 20
11.609
 21
11.104
  0
LINE
  8
0
 10
-20.199
 11
-20.472
 20
11.104
 21
10.593
  0
LINE
  8
0
 10
-20.472
 11
-20.731
 20
10.593
 21
10.076
  0
LINE
  8
0
 10
-20.731
 11
-20.767
 20
10.076
 21
10
  0
LINE
  8
0
 10
-20.767
 11
-82.133
 20
10
 21
10
  0
LINE
  8
0
 10
-60.65
 11
-58.005
 20
-75.08
 21
-71.439
  0
LINE
  8
0
 10
-58.005
 11
-50.018
 20
-71.439
 21
-77.242
  0
LINE
  8
0
 10
-50.018
 11
-52.663
 20
-77.242
 21
-80.883
  0
LINE
  8
0
 10
-52.663
 11
-60.65
 20
-80.883
 21
-75.08
  0
LINE
  8
0
 10
-60.65
 11
-52.663
 20
75.08
 21
80.883
  0
LINE
  8
0
 10
-52.663
 11
-50.018
 20
80.883
 21
77.242
  0
LINE
  8
0
 10
-50.018
 11
-58.005
 20
77.242
 21
71.439
  0
LINE
  8
0
 10
-58.005
 11
-60.65
 20
71.439
 21
75.08
  0
LINE
  8
0
 10
-4.937
 11
-4.937
 20
-96.39
 21
-91.89
  0
LINE
  8
0
 10
-4.937
 11
4.937
 20
-91.89
 21
-91.89
  0
LINE
  8
0
 10
4.937
 11
4.937
 20
-91.89
 21
-96.39
  0
LINE
  8
0
 10
4.937
 11
-4.937
 20
-96.39
 21
-96.39
  0
LINE
  8
0
 10
-4.937
 11
-4.937
 20
91.89
 21
96.39
  0
LINE
  8
0
 10
-4.937
 11
4.937
 20
96.39
 21
96.39
  0
LINE
  8
0
 10
4.937
 11
4.937
 20
96.39
 21
91.89
  0
LINE
  8
0
 10
4.937
 11
-4.937
 20
91.89
 21
91.89
  0
LINE
  8
0
 10
-3.15
 11
-3.102
 20
0
 21
0.547
  0
LINE
  8
0
 10
-3.102
 11
-2.96
 20
0.547
 21
1.077
  0
LINE
  8
0
 10
-2.96
 11
-2.728
 20
1.077
 21
1.575
  0
LINE
  8
0
 10
-2.728
 11
-2.413
 20
1.575
 21
2.025
  0
LINE
  8
0
 10
-2.413
 11
-2.025
 20
2.025
 21
2.413
  0
LINE
  8
0
 10
-2.025
 11
-1.575
 20
2.413
 21
2.728
  0
LINE
  8
0
 10
-1.575
 11
-1.077
 20
2.728
 21
2.96
  0
LINE
  8
0
 10
-1.077
 11
-0.547
 20
2.96
 21
3.102
  0
LINE
  8
0
 10
-0.547
 11
0
 20
3.102
 21
3.15
  0
LINE
  8
0
 10
0
 11
0.547
 20
3.15
 21
3.102
  0
LINE
  8
0
 10
0.547
 11
1.077
 20
3.102
 21
2.96
  0
LINE
  8
0
 10
1.077
 11
1.575
 20
2.96
 21
2.728
  0
LINE
  8
0
 10
1.575
 11
2.025
 20
2.728
 21
2.413
  0
LINE
  8
0
 10
2.025
 11
2.413
 20
2.413
 21
2.025
  0
LINE
  8
0
 10
2.413
 11
2.728
 20
2.025
 21
1.575
  0
LINE
  8
0
 10
2.728
 11
2.96
 20
1.575
 21
1.077
  0
LINE
  8
0
 10
2.96
 11
3.102
 20
1.077
 21
0.547
  0
LINE
  8
0
 10
3.102
 11
3.15
 20
0.547
 21
0
  0
LINE
  8
0
 10
3.15
 11
3.102
 20
0
 21
-0.547
  0
LINE
  8
0
 10
3.102
 11
2.96
 20
-0.547
 21
-1.077
  0
LINE
  8
0
 10
2.96
 11
2.728
 20
-1.077
 21
-1.575
  0
LINE
  8
0
 10
2.728
 11
2.413
 20
-1.575
 21
-2.025
  0
LINE
  8
0
 10
2.413
 11
2.025
 20
-2.025
 21
-2.413
  0
LINE
  8
0
 10
2.025
 11
1.575
 20
-2.413
 21
-2.728
  0
LINE
  8
0
 10
1.575
 11
1.077
 20
-2.728
 21
-2.96
  0
LINE
  8
0
 10
1.077
 11
0.547
 20
-2.96
 21
-3.102
  0
LINE
  8
0
 10
0.547
 11
0
 20
-3.102
 21
-3.15
  0
LINE
  8
0
 10
0
 11
-0.547
 20
-3.15
 21
-3.102
  0
LINE
  8
0
 10
-0.547
 11
-1.077
 20
-3.102
 21
-2.96
  0
LINE
  8
0
 10
-1.077
 11
-1.575
 20
-2.96
 21
-2.728
  0
LINE
  8
0
 10
-1.575
 11
-2.025
 20
-2.728
 21
-2.413
  0
LINE
  8
0
 10
-2.025
 11
-2.413
 20
-2.413
 21
-2.025
  0
LINE
  8
0
 10
-2.413
 11
-2.728
 20
-2.025
 21
-1.575
  0
LINE
  8
0
 10
-2.728
 11
-2.96
 20
-1.575
 21
-1.077
  0
LINE
  8
0
 10
-2.96
 11
-3.102
 20
-1.077
 21
-0.547
  0
LINE
  8
0
 10
-3.102
 11
-3.15
 20
-0.547
 21
0
  0
LINE
  8
0
 10
10
 11
10
 20
-82.133
 21
-20.766
  0
LINE
  8
0
 10
10
 11
10.335
 20
-20.766
 21
-20.603
  0
LINE
  8
0
 10
10.335
 11
10.85
 20
-20.603
 21
-20.337
  0
LINE
  8
0
 10
10.85
 11
11.357
 20
-20.337
 21
-20.058
  0
LINE
  8
0
 10
11.357
 11
11.858
 20
-20.058
 21
-19.766
  0
LINE
  8
0
 10
11.858
 11
12.351
 20
-19.766
 21
-19.462
  0
LINE
  8
0
 10
12.351
 11
12.836
 20
-19.462
 21
-19.145
  0
LINE
  8
0
 10
12.836
 11
13.313
 20
-19.145
 21
-18.817
  0
LINE
  8
0
 10
13.313
 11
13.782
 20
-18.817
 21
-18.476
  0
LINE
  8
0
 10
13.782
 11
14.242
 20
-18.476
 21
-18.124
  0
LINE
  8
0
 10
14.242
 11
14.693
 20
-18.124
 21
-17.76
  0
LINE
  8
0
 10
14.693
 11
15.134
 20
-17.76
 21
-17.385
  0
LINE
  8
0
 10
15.134
 11
15.566
 20
-17.385
 21
-17
  0
LINE
  8
0
 10
15.566
 11
15.989
 20
-17
 21
-16.603
  0
LINE
  8
0
 10
15.989
 11
16.401
 20
-16.603
 21
-16.196
  0
LINE
  8
0
 10
16.401
 11
16.803
 20
-16.196
 21
-15.779
  0
LINE
  8
0
 10
16.803
 11
17.194
 20
-15.779
 21
-15.352
  0
LINE
  8
0
 10
17.194
 11
17.574
 20
-15.352
 21
-14.915
  0
LINE
  8
0
 10
17.574
 11
17.944
 20
-14.915
 21
-14.468
  0
LINE
  8
0
 10
17.944
 11
18.301
 20
-14.468
 21
-14.013
  0
LINE
  8
0
 10
18.301
 11
18.648
 20
-14.013
 21
-13.548
  0
LINE
  8
0
 10
18.648
 11
18.982
 20
-13.548
 21
-13.076
  0
LINE
  8
0
 10
18.982
 11
19.305
 20
-13.076
 21
-12.594
  0
LINE
  8
0
 10
19.305
 11
19.615
 20
-12.594
 21
-12.105
  0
LINE
  8
0
 10
19.615
 11
19.913
 20
-12.105
 21
-11.609
  0
LINE
  8
0
 10
19.913
 11
20.199
 20
-11.609
 21
-11.104
  0
LINE
  8
0
 10
20.199
 11
20.472
 20
-11.104
 21
-10.593
  0
LINE
  8
0
 10
20.472
 11
20.731
 20
-10.593
 21
-10.076
  0
LINE
  8
0
 10
20.731
 11
20.767
 20
-10.076
 21
-10
  0
LINE
  8
0
 10
20.767
 11
82.133
 20
-10
 21
-10
  0
LINE
  8
0
 10
82.133
 11
81.556
 20
-10
 21
-14.381
  0
LINE
  8
0
 10
81.556
 11
79.992
 20
-14.381
 21
-21.434
  0
LINE
  8
0
 10
79.992
 11
77.82
 20
-21.434
 21
-28.324
  0
LINE
  8
0
 10
77.82
 11
75.055
 20
-28.324
 21
-34.999
  0
LINE
  8
0
 10
75.055
 11
71.719
 20
-34.999
 21
-41.407
  0
LINE
  8
0
 10
71.719
 11
67.837
 20
-41.407
 21
-47.5
  0
LINE
  8
0
 10
67.837
 11
63.439
 20
-47.5
 21
-53.232
  0
LINE
  8
0
 10
63.439
 11
58.558
 20
-53.232
 21
-58.558
  0
LINE
  8
0
 10
58.558
 11
53.232
 20
-58.558
 21
-63.439
  0
LINE
  8
0
 10
53.232
 11
47.5
 20
-63.439
 21
-67.837
  0
LINE
  8
0
 10
47.5
 11
41.407
 20
-67.837
 21
-71.719
  0
LINE
  8
0
 10
41.407
 11
34.999
 20
-71.719
 21
-75.055
  0
LINE
  8
0
 10
34.999
 11
28.324
 20
-75.055
 21
-77.82
  0
LINE
  8
0
 10
28.324
 11
21.434
 20
-77.82
 21
-79.992
  0
LINE
  8
0
 10
21.434
 11
14.381
 20
-79.992
 21
-81.556
  0
LINE
  8
0
 10
14.381
 11
10
 20
-81.556
 21
-82.133
  0
LINE
  8
0
 10
10
 11
10
 20
20.766
 21
82.133
  0
LINE
  8
0
 10
10
 11
14.381
 20
82.133
 21
81.556
  0
LINE
  8
0
 10
14.381
 11
21.434
 20
81.556
 21
79.992
  0
LINE
  8
0
 10
21.434
 11
28.324
 20
79.992
 21
77.82
  0
LINE
  8
0
 10
28.324
 11
34.999
 20
77.82
 21
75.055
  0
LINE
  8
0
 10
34.999
 11
41.407
 20
75.055
 21
71.719
  0
LINE
  8
0
 10
41.407
 11
47.5
 20
71.719
 21
67.837
  0
LINE
  8
0
 10
47.5
 11
53.232
 20
67.837
 21
63.439
  0
LINE
  8
0
 10
53.232
 11
58.558
 20
63.439
 21
58.558
  0
LINE
  8
0
 10
58.558
 11
63.439
 20
58.558
 21
53.232
  0
LINE
  8
0
 10
63.439
 11
67.837
 20
53.232
 21
47.5
  0
LINE
  8
0
 10
67.837
 11
71.719
 20
47.5
 21
41.407
  0
LINE
  8
0
 10
71.719
 11
75.055
 20
41.407
 21
34.999
  0
LINE
  8
0
 10
75.055
 11
77.82
 20
34.999
 21
28.324
  0
LINE
  8
0
 10
77.82
 11
79.992
 20
28.324
 21
21.434
  0
LINE
  8
0
 10
79.992
 11
81.556
 20
21.434
 21
14.381
  0
LINE
  8
0
 10
81.556
 11
82.133
 20
14.381
 21
10
  0
LINE
  8
0
 10
82.133
 11
20.767
 20
10
 21
10
  0
LINE
  8
0
 10
20.767
 11
20.731
 20
10
 21
10.076
  0
LINE
  8
0
 10
20.731
 11
20.472
 20
10.076
 21
10.593
  0
LINE
  8
0
 10
20.472
 11
20.199
 20
10.593
 21
11.104
  0
LINE
  8
0
 10
20.199
 11
19.913
 20
11.104
 21
11.609
  0
LINE
  8
0
 10
19.913
 11
19.615
 20
11.609
 21
12.105
  0
LINE
  8
0
 10
19.615
 11
19.305
 20
12.105
 21
12.594
  0
LINE
  8
0
 10
19.305
 11
18.982
 20
12.594
 21
13.076
  0
LINE
  8
0
 10
18.982
 11
18.648
 20
13.076
 21
13.548
  0
LINE
  8
0
 10
18.648
 11
18.301
 20
13.548
 21
14.013
  0
LINE
  8
0
 10
18.301
 11
17.944
 20
14.013
 21
14.468
  0
LINE
  8
0
 10
17.944
 11
17.574
 20
14.468
 21
14.915
  0
LINE
  8
0
 10
17.574
 11
17.194
 20
14.915
 21
15.352
  0
LINE
  8
0
 10
17.194
 11
16.803
 20
15.352
 21
15.779
  0
LINE
  8
0
 10
16.803
 11
16.401
 20
15.779
 21
16.196
  0
LINE
  8
0
 10
16.401
 11
15.989
 20
16.196
 21
16.603
  0
LINE
  8
0
 10
15.989
 11
15.566
 20
16.603
 21
17
  0
LINE
  8
0
 10
15.566
 11
15.134
 20
17
 21
17.385
  0
LINE
  8
0
 10
15.134
 11
14.693
 20
17.385
 21
17.76
  0
LINE
  8
0
 10
14.693
 11
14.242
 20
17.76
 21
18.124
  0
LINE
  8
0
 10
14.242
 11
13.782
 20
18.124
 21
18.476
  0
LINE
  8
0
 10
13.782
 11
13.313
 20
18.476
 21
18.817
  0
LINE
  8
0
 10
13.313
 11
12.836
 20
18.817
 21
19.145
  0
LINE
  8
0
 10
12.836
 11
12.351
 20
19.145
 21
19.462
  0
LINE
  8
0
 10
12.351
 11
11.858
 20
19.462
 21
19.766
  0
LINE
  8
0
 10
11.858
 11
11.357
 20
19.766
 21
20.058
  0
LINE
  8
0
 10
11.357
 11
10.85
 20
20.058
 21
20.337
  0
LINE
  8
0
 10
10.85
 11
10.335
 20
20.337
 21
20.603
  0
LINE
  8
0
 10
10.335
 11
10
 20
20.603
 21
20.766
  0
LINE
  8
0
 10
50.018
 11
58.005
 20
-77.242
 21
-71.439
  0
LINE
  8
0
 10
58.005
 11
60.65
 20
-71.439
 21
-75.08
  0
LINE
  8
0
 10
60.65
 11
52.663
 20
-75.08
 21
-80.883
  0
LINE
  8
0
 10
52.663
 11
50.018
 20
-80.883
 21
-77.242
  0
LINE
  8
0
 10
50.018
 11
52.663
 20
77.242
 21
80.883
  0
LINE
  8
0
 10
52.663
 11
60.65
 20
80.883
 21
75.08
  0
LINE
  8
0
 10
60.65
 11
58.005
 20
75.08
 21
71.439
  0
LINE
  8
0
 10
58.005
 11
50.018
 20
71.439
 21
77.242
  0
LINE
  8
0
 10
85.867
 11
88.918
 20
-33.091
 21
-23.701
  0
LINE
  8
0
 10
88.918
 11
93.198
 20
-23.701
 21
-25.091
  0
LINE
  8
0
 10
93.198
 11
90.147
 20
-25.091
 21
-34.481
  0
LINE
  8
0
 10
90.147
 11
85.867
 20
-34.481
 21
-33.091
  0
LINE
  8
0
 10
85.867
 11
90.147
 20
33.091
 21
34.481
  0
LINE
  8
0
 10
90.147
 11
93.198
 20
34.481
 21
25.091
  0
LINE
  8
0
 10
93.198
 11
88.918
 20
25.091
 21
23.701
  0
LINE
  8
0
 10
88.918
 11
85.867
 20
23.701
 21
33.091
  0
LINE
  8
0
 10
-102.814
 11
-102.69
 20
0
 21
5.045
  0
LINE
  8
0
 10
-102.69
 11
-102.319
 20
5.045
 21
10.078
  0
LINE
  8
0
 10
-102.319
 11
-101.701
 20
10.078
 21
15.086
  0
LINE
  8
0
 10
-101.701
 11
-100.839
 20
15.086
 21
20.058
  0
LINE
  8
0
 10
-100.839
 11
-99.733
 20
20.058
 21
24.982
  0
LINE
  8
0
 10
-99.733
 11
-98.387
 20
24.982
 21
29.845
  0
LINE
  8
0
 10
-98.387
 11
-96.804
 20
29.845
 21
34.637
  0
LINE
  8
0
 10
-96.804
 11
-94.988
 20
34.637
 21
39.345
  0
LINE
  8
0
 10
-94.988
 11
-92.943
 20
39.345
 21
43.959
  0
LINE
  8
0
 10
-92.943
 11
-90.674
 20
43.959
 21
48.466
  0
LINE
  8
0
 10
-90.674
 11
-88.187
 20
48.466
 21
52.857
  0
LINE
  8
0
 10
-88.187
 11
-85.487
 20
52.857
 21
57.12
  0
LINE
  8
0
 10
-85.487
 11
-82.581
 20
57.12
 21
61.246
  0
LINE
  8
0
 10
-82.581
 11
-79.476
 20
61.246
 21
65.225
  0
LINE
  8
0
 10
-79.476
 11
-76.18
 20
65.225
 21
69.046
  0
LINE
  8
0
 10
-76.18
 11
-72.701
 20
69.046
 21
72.701
  0
LINE
  8
0
 10
-72.701
 11
-69.046
 20
72.701
 21
76.18
  0
LINE
  8
0
 10
-69.046
 11
-65.225
 20
76.18
 21
79.476
  0
LINE
  8
0
 10
-65.225
 11
-61.246
 20
79.476
 21
82.581
  0
LINE
  8
0
 10
-61.246
 11
-57.12
 20
82.581
 21
85.487
  0
LINE
  8
0
 10
-57.12
 11
-52.857
 20
85.487
 21
88.187
  0
LINE
  8
0
 10
-52.857
 11
-48.466
 20
88.187
 21
90.674
  0
LINE
  8
0
 10
-48.466
 11
-43.959
 20
90.674
 21
92.943
  0
LINE
  8
0
 10
-43.959
 11
-39.345
 20
92.943
 21
94.988
  0
LINE
  8
0
 10
-39.345
 11
-34.637
 20
94.988
 21
96.804
  0
LINE
  8
0
 10
-34.637
 11
-29.845
 20
96.804
 21
98.387
  0
LINE
  8
0
 10
-29.845
 11
-24.982
 20
98.387
 21
99.733
  0
LINE
  8
0
 10
-24.982
 11
-20.058
 20
99.733
 21
100.839
  0
LINE
  8
0
 10
-20.058
 11
-15.086
 20
100.839
 21
101.701
  0
LINE
  8
0
 10
-15.086
 11
-10.078
 20
101.701
 21
102.319
  0
LINE
  8
0
 10
-10.078
 11
-5.045
 20
102.319
 21
102.69
  0
LINE
  8
0
 10
-5.045
 11
0
 20
102.69
 21
102.814
  0
LINE
  8
0
 10
0
 11
5.045
 20
102.814
 21
102.69
  0
LINE
  8
0
 10
5.045
 11
8.02
 20
102.69
 21
102.471
  0
LINE
  8
0
 10
8.02
 11
8.022
 20
102.471
 21
102.501
  0
LINE
  8
0
 10
8.022
 11
8.066
 20
102.501
 21
102.497
  0
LINE
  8
0
 10
8.066
 11
9.639
 20
102.497
 21
102.361
  0
LINE
  8
0
 10
9.639
 11
10.769
 20
102.361
 21
104.425
  0
LINE
  8
0
 10
10.769
 11
12.038
 20
104.425
 21
106.465
  0
LINE
  8
0
 10
12.038
 11
13.434
 20
106.465
 21
108.479
  0
LINE
  8
0
 10
13.434
 11
14.955
 20
108.479
 21
110.465
  0
LINE
  8
0
 10
14.955
 11
16.59
 20
110.465
 21
112.419
  0
LINE
  8
0
 10
16.59
 11
18.961
 20
112.419
 21
112.043
  0
LINE
  8
0
 10
18.961
 11
19.913
 20
112.043
 21
109.679
  0
LINE
  8
0
 10
19.913
 11
20.745
 20
109.679
 21
107.321
  0
LINE
  8
0
 10
20.745
 11
21.451
 20
107.321
 21
104.974
  0
LINE
  8
0
 10
21.451
 11
22.027
 20
104.974
 21
102.642
  0
LINE
  8
0
 10
22.027
 11
22.465
 20
102.642
 21
100.33
  0
LINE
  8
0
 10
22.465
 11
23.958
 20
100.33
 21
99.983
  0
LINE
  8
0
 10
23.958
 11
24.001
 20
99.983
 21
99.973
  0
LINE
  8
0
 10
24.001
 11
24.045
 20
99.973
 21
99.963
  0
LINE
  8
0
 10
24.045
 11
24.861
 20
99.963
 21
99.76
  0
LINE
  8
0
 10
24.861
 11
24.982
 20
99.76
 21
99.733
  0
LINE
  8
0
 10
24.982
 11
25.08
 20
99.733
 21
99.706
  0
LINE
  8
0
 10
25.08
 11
25.533
 20
99.706
 21
99.593
  0
LINE
  8
0
 10
25.533
 11
26.972
 20
99.593
 21
101.455
  0
LINE
  8
0
 10
26.972
 11
28.544
 20
101.455
 21
103.271
  0
LINE
  8
0
 10
28.544
 11
30.239
 20
103.271
 21
105.042
  0
LINE
  8
0
 10
30.239
 11
32.051
 20
105.042
 21
106.765
  0
LINE
  8
0
 10
32.051
 11
33.972
 20
106.765
 21
108.439
  0
LINE
  8
0
 10
33.972
 11
36.255
 20
108.439
 21
107.698
  0
LINE
  8
0
 10
36.255
 11
36.825
 20
107.698
 21
105.214
  0
LINE
  8
0
 10
36.825
 11
37.278
 20
105.214
 21
102.754
  0
LINE
  8
0
 10
37.278
 11
37.608
 20
102.754
 21
100.326
  0
LINE
  8
0
 10
37.608
 11
37.812
 20
100.326
 21
97.932
  0
LINE
  8
0
 10
37.812
 11
37.883
 20
97.932
 21
95.581
  0
LINE
  8
0
 10
37.883
 11
39.304
 20
95.581
 21
95.004
  0
LINE
  8
0
 10
39.304
 11
39.342
 20
95.004
 21
94.989
  0
LINE
  8
0
 10
39.342
 11
39.345
 20
94.989
 21
94.988
  0
LINE
  8
0
 10
39.345
 11
39.349
 20
94.988
 21
94.986
  0
LINE
  8
0
 10
39.349
 11
39.386
 20
94.986
 21
94.971
  0
LINE
  8
0
 10
39.386
 11
40.798
 20
94.971
 21
94.373
  0
LINE
  8
0
 10
40.798
 11
42.511
 20
94.373
 21
95.986
  0
LINE
  8
0
 10
42.511
 11
44.348
 20
95.986
 21
97.534
  0
LINE
  8
0
 10
44.348
 11
46.299
 20
97.534
 21
99.018
  0
LINE
  8
0
 10
46.299
 11
48.358
 20
99.018
 21
100.437
  0
LINE
  8
0
 10
48.358
 11
50.518
 20
100.437
 21
101.79
  0
LINE
  8
0
 10
50.518
 11
52.656
 20
101.79
 21
100.7
  0
LINE
  8
0
 10
52.656
 11
52.831
 20
100.7
 21
98.158
  0
LINE
  8
0
 10
52.831
 11
52.894
 20
98.158
 21
95.658
  0
LINE
  8
0
 10
52.894
 11
52.839
 20
95.658
 21
93.207
  0
LINE
  8
0
 10
52.839
 11
52.667
 20
93.207
 21
90.812
  0
LINE
  8
0
 10
52.667
 11
52.369
 20
90.812
 21
88.478
  0
LINE
  8
0
 10
52.369
 11
52.768
 20
88.478
 21
88.237
  0
LINE
  8
0
 10
52.768
 11
52.857
 20
88.237
 21
88.187
  0
LINE
  8
0
 10
52.857
 11
52.962
 20
88.187
 21
88.12
  0
LINE
  8
0
 10
52.962
 11
53.682
 20
88.12
 21
87.686
  0
LINE
  8
0
 10
53.682
 11
53.72
 20
87.686
 21
87.663
  0
LINE
  8
0
 10
53.72
 11
53.758
 20
87.663
 21
87.641
  0
LINE
  8
0
 10
53.758
 11
55.059
 20
87.641
 21
86.829
  0
LINE
  8
0
 10
55.059
 11
57.003
 20
86.829
 21
88.154
  0
LINE
  8
0
 10
57.003
 11
59.06
 20
88.154
 21
89.396
  0
LINE
  8
0
 10
59.06
 11
61.218
 20
89.396
 21
90.556
  0
LINE
  8
0
 10
61.218
 11
63.475
 20
90.556
 21
91.635
  0
LINE
  8
0
 10
63.475
 11
65.819
 20
91.635
 21
92.634
  0
LINE
  8
0
 10
65.819
 11
67.761
 20
92.634
 21
91.223
  0
LINE
  8
0
 10
67.761
 11
67.536
 20
91.223
 21
88.685
  0
LINE
  8
0
 10
67.536
 11
67.207
 20
88.685
 21
86.206
  0
LINE
  8
0
 10
67.207
 11
66.77
 20
86.206
 21
83.794
  0
LINE
  8
0
 10
66.77
 11
66.225
 20
83.794
 21
81.455
  0
LINE
  8
0
 10
66.225
 11
65.565
 20
81.455
 21
79.196
  0
LINE
  8
0
 10
65.565
 11
66.773
 20
79.196
 21
78.18
  0
LINE
  8
0
 10
66.773
 11
66.806
 20
78.18
 21
78.152
  0
LINE
  8
0
 10
66.806
 11
66.787
 20
78.152
 21
78.129
  0
LINE
  8
0
 10
66.787
 11
69.046
 20
78.129
 21
76.18
  0
LINE
  8
0
 10
69.046
 11
72.701
 20
76.18
 21
72.701
  0
LINE
  8
0
 10
72.701
 11
76.18
 20
72.701
 21
69.046
  0
LINE
  8
0
 10
76.18
 11
79.476
 20
69.046
 21
65.225
  0
LINE
  8
0
 10
79.476
 11
82.581
 20
65.225
 21
61.246
  0
LINE
  8
0
 10
82.581
 11
85.487
 20
61.246
 21
57.12
  0
LINE
  8
0
 10
85.487
 11
88.187
 20
57.12
 21
52.857
  0
LINE
  8
0
 10
88.187
 11
90.674
 20
52.857
 21
48.466
  0
LINE
  8
0
 10
90.674
 11
92.943
 20
48.466
 21
43.959
  0
LINE
  8
0
 10
92.943
 11
94.988
 20
43.959
 21
39.345
  0
LINE
  8
0
 10
94.988
 11
96.804
 20
39.345
 21
34.637
  0
LINE
  8
0
 10
96.804
 11
98.387
 20
34.637
 21
29.845
  0
LINE
  8
0
 10
98.387
 11
99.733
 20
29.845
 21
24.982
  0
LINE
  8
0
 10
99.733
 11
100.839
 20
24.982
 21
20.058
  0
LINE
  8
0
 10
100.839
 11
101.701
 20
20.058
 21
15.086
  0
LINE
  8
0
 10
101.701
 11
102.319
 20
15.086
 21
10.078
  0
LINE
  8
0
 10
102.319
 11
102.69
 20
10.078
 21
5.045
  0
LINE
  8
0
 10
102.69
 11
102.814
 20
5.045
 21
0
  0
LINE
  8
0
 10
102.814
 11
102.69
 20
0
 21
-5.045
  0
LINE
  8
0
 10
102.69
 11
102.319
 20
-5.045
 21
-10.078
  0
LINE
  8
0
 10
102.319
 11
101.701
 20
-10.078
 21
-15.086
  0
LINE
  8
0
 10
101.701
 11
100.839
 20
-15.086
 21
-20.058
  0
LINE
  8
0
 10
100.839
 11
99.733
 20
-20.058
 21
-24.982
  0
LINE
  8
0
 10
99.733
 11
98.387
 20
-24.982
 21
-29.845
  0
LINE
  8
0
 10
98.387
 11
96.804
 20
-29.845
 21
-34.637
  0
LINE
  8
0
 10
96.804
 11
94.988
 20
-34.637
 21
-39.345
  0
LINE
  8
0
 10
94.988
 11
92.943
 20
-39.345
 21
-43.959
  0
LINE
  8
0
 10
92.943
 11
90.674
 20
-43.959
 21
-48.466
  0
LINE
  8
0
 10
90.674
 11
88.187
 20
-48.466
 21
-52.857
  0
LINE
  8
0
 10
88.187
 11
85.487
 20
-52.857
 21
-57.12
  0
LINE
  8
0
 10
85.487
 11
82.581
 20
-57.12
 21
-61.246
  0
LINE
  8
0
 10
82.581
 11
79.476
 20
-61.246
 21
-65.225
  0
LINE
  8
0
 10
79.476
 11
76.18
 20
-65.225
 21
-69.046
  0
LINE
  8
0
 10
76.18
 11
72.701
 20
-69.046
 21
-72.701
  0
LINE
  8
0
 10
72.701
 11
69.046
 20
-72.701
 21
-76.18
  0
LINE
  8
0
 10
69.046
 11
65.225
 20
-76.18
 21
-79.476
  0
LINE
  8
0
 10
65.225
 11
61.246
 20
-79.476
 21
-82.581
  0
LINE
  8
0
 10
61.246
 11
57.12
 20
-82.581
 21
-85.487
  0
LINE
  8
0
 10
57.12
 11
52.857
 20
-85.487
 21
-88.187
  0
LINE
  8
0
 10
52.857
 11
48.466
 20
-88.187
 21
-90.674
  0
LINE
  8
0
 10
48.466
 11
43.959
 20
-90.674
 21
-92.943
  0
LINE
  8
0
 10
43.959
 11
39.345
 20
-92.943
 21
-94.988
  0
LINE
  8
0
 10
39.345
 11
34.637
 20
-94.988
 21
-96.804
  0
LINE
  8
0
 10
34.637
 11
29.845
 20
-96.804
 21
-98.387
  0
LINE
  8
0
 10
29.845
 11
24.982
 20
-98.387
 21
-99.733
  0
LINE
  8
0
 10
24.982
 11
20.058
 20
-99.733
 21
-100.839
  0
LINE
  8
0
 10
20.058
 11
15.086
 20
-100.839
 21
-101.701
  0
LINE
  8
0
 10
15.086
 11
10.078
 20
-101.701
 21
-102.319
  0
LINE
  8
0
 10
10.078
 11
5.045
 20
-102.319
 21
-102.69
  0
LINE
  8
0
 10
5.045
 11
0
 20
-102.69
 21
-102.814
  0
LINE
  8
0
 10
0
 11
-5.045
 20
-102.814
 21
-102.69
  0
LINE
  8
0
 10
-5.045
 11
-10.078
 20
-102.69
 21
-102.319
  0
LINE
  8
0
 10
-10.078
 11
-15.086
 20
-102.319
 21
-101.701
  0
LINE
  8
0
 10
-15.086
 11
-20.058
 20
-101.701
 21
-100.839
  0
LINE
  8
0
 10
-20.058
 11
-24.982
 20
-100.839
 21
-99.733
  0
LINE
  8
0
 10
-24.982
 11
-29.845
 20
-99.733
 21
-98.387
  0
LINE
  8
0
 10
-29.845
 11
-34.637
 20
-98.387
 21
-96.804
  0
LINE
  8
0
 10
-34.637
 11
-39.345
 20
-96.804
 21
-94.988
  0
LINE
  8
0
 10
-39.345
 11
-43.959
 20
-94.988
 21
-92.943
  0
LINE
  8
0
 10
-43.959
 11
-48.466
 20
-92.943
 21
-90.674
  0
LINE
  8
0
 10
-48.466
 11
-52.857
 20
-90.674
 21
-88.187
  0
LINE
  8
0
 10
-52.857
 11
-57.12
 20
-88.187
 21
-85.487
  0
LINE
  8
0
 10
-57.12
 11
-61.246
 20
-85.487
 21
-82.581
  0
LINE
  8
0
 10
-61.246
 11
-65.225
 20
-82.581
 21
-79.476
  0
LINE
  8
0
 10
-65.225
 11
-69.046
 20
-79.476
 21
-76.18
  0
LINE
  8
0
 10
-69.046
 11
-72.701
 20
-76.18
 21
-72.701
  0
LINE
  8
0
 10
-72.701
 11
-76.18
 20
-72.701
 21
-69.046
  0
LINE
  8
0
 10
-76.18
 11
-79.476
 20
-69.046
 21
-65.225
  0
LINE
  8
0
 10
-79.476
 11
-82.581
 20
-65.225
 21
-61.246
  0
LINE
  8
0
 10
-82.581
 11
-85.487
 20
-61.246
 21
-57.12
  0
LINE
  8
0
 10
-85.487
 11
-88.187
 20
-57.12
 21
-52.857
  0
LINE
  8
0
 10
-88.187
 11
-90.674
 20
-52.857
 21
-48.466
  0
LINE
  8
0
 10
-90.674
 11
-92.943
 20
-48.466
 21
-43.959
  0
LINE
  8
0
 10
-92.943
 11
-94.988
 20
-43.959
 21
-39.345
  0
LINE
  8
0
 10
-94.988
 11
-96.804
 20
-39.345
 21
-34.637
  0
LINE
  8
0
 10
-96.804
 11
-98.387
 20
-34.637
 21
-29.845
  0
LINE
  8
0
 10
-98.387
 11
-99.733
 20
-29.845
 21
-24.982
  0
LINE
  8
0
 10
-99.733
 11
-100.839
 20
-24.982
 21
-20.058
  0
LINE
  8
0
 10
-100.839
 11
-101.701
 20
-20.058
 21
-15.086
  0
LINE
  8
0
 10
-101.701
 11
-102.319
 20
-15.086
 21
-10.078
  0
LINE
  8
0
 10
-102.319
 11
-102.69
 20
-10.078
 21
-5.045
  0
LINE
  8
0
 10
-102.69
 11
-102.814
 20
-5.045
 21
0
  0
ENDSEC
  0
SECTION
  2
OBJECTS
  0
DICTIONARY
  0
ENDSEC
  0
EOF
