  0
SECTION
  2
BLOCKS
  0
ENDSEC
  0
SECTION
  2
ENTITIES
  0
LINE
  8
0
 10
-93.198
 11
-88.918
 20
-25.091
 21
-23.701
  0
LINE
  8
0
 10
-88.918
 11
-85.867
 20
-23.701
 21
-33.091
  0
LINE
  8
0
 10
-85.867
 11
-90.147
 20
-33.091
 21
-34.481
  0
LINE
  8
0
 10
-90.147
 11
-93.198
 20
-34.481
 21
-25.091
  0
LINE
  8
0
 10
-93.198
 11
-90.147
 20
25.091
 21
34.481
  0
LINE
  8
0
 10
-90.147
 11
-85.867
 20
34.481
 21
33.091
  0
LINE
  8
0
 10
-85.867
 11
-88.918
 20
33.091
 21
23.701
  0
LINE
  8
0
 10
-88.918
 11
-93.198
 20
23.701
 21
25.091
  0
LINE
  8
0
 10
-113.63
 11
-113.63
 20
-1.2
 21
1.2
  0
LINE
  8
0
 10
-113.63
 11
-111.444
 20
1.2
 21
2.51
  0
LINE
  8
0
 10
-111.444
 11
-109.245
 20
2.51
 21
3.701
  0
LINE
  8
0
 10
-109.245
 11
-107.037
 20
3.701
 21
4.765
  0
LINE
  8
0
 10
-107.037
 11
-104.824
 20
4.765
 21
5.699
  0
LINE
  8
0
 10
-104.824
 11
-102.609
 20
5.699
 21
6.493
  0
LINE
  8
0
 10
-102.609
 11
-102.5
 20
6.493
 21
8.022
  0
LINE
  8
0
 10
-102.5
 11
-102.497
 20
8.022
 21
8.066
  0
LINE
  8
0
 10
-102.497
 11
-102.493
 20
8.066
 21
8.111
  0
LINE
  8
0
 10
-102.493
 11
-102.361
 20
8.111
 21
9.639
  0
LINE
  8
0
 10
-102.361
 11
-104.425
 20
9.639
 21
10.769
  0
LINE
  8
0
 10
-104.425
 11
-106.465
 20
10.769
 21
12.038
  0
LINE
  8
0
 10
-106.465
 11
-108.479
 20
12.038
 21
13.434
  0
LINE
  8
0
 10
-108.479
 11
-110.465
 20
13.434
 21
14.955
  0
LINE
  8
0
 10
-110.465
 11
-112.419
 20
14.955
 21
16.59
  0
LINE
  8
0
 10
-112.419
 11
-112.043
 20
16.59
 21
18.961
  0
LINE
  8
0
 10
-112.043
 11
-109.679
 20
18.961
 21
19.913
  0
LINE
  8
0
 10
-109.679
 11
-107.321
 20
19.913
 21
20.745
  0
LINE
  8
0
 10
-107.321
 11
-104.974
 20
20.745
 21
21.451
  0
LINE
  8
0
 10
-104.974
 11
-102.642
 20
21.451
 21
22.027
  0
LINE
  8
0
 10
-102.642
 11
-100.33
 20
22.027
 21
22.465
  0
LINE
  8
0
 10
-100.33
 11
-99.983
 20
22.465
 21
23.958
  0
LINE
  8
0
 10
-99.983
 11
-99.973
 20
23.958
 21
24.001
  0
LINE
  8
0
 10
-99.973
 11
-99.963
 20
24.001
 21
24.045
  0
LINE
  8
0
 10
-99.963
 11
-99.593
 20
24.045
 21
25.533
  0
LINE
  8
0
 10
-99.593
 11
-101.455
 20
25.533
 21
26.972
  0
LINE
  8
0
 10
-101.455
 11
-103.271
 20
26.972
 21
28.544
  0
LINE
  8
0
 10
-103.271
 11
-105.042
 20
28.544
 21
30.239
  0
LINE
  8
0
 10
-105.042
 11
-106.765
 20
30.239
 21
32.051
  0
LINE
  8
0
 10
-106.765
 11
-108.439
 20
32.051
 21
33.972
  0
LINE
  8
0
 10
-108.439
 11
-107.698
 20
33.972
 21
36.255
  0
LINE
  8
0
 10
-107.698
 11
-105.214
 20
36.255
 21
36.825
  0
LINE
  8
0
 10
-105.214
 11
-102.754
 20
36.825
 21
37.278
  0
LINE
  8
0
 10
-102.754
 11
-100.326
 20
37.278
 21
37.608
  0
LINE
  8
0
 10
-100.326
 11
-97.932
 20
37.608
 21
37.812
  0
LINE
  8
0
 10
-97.932
 11
-95.581
 20
37.812
 21
37.883
  0
LINE
  8
0
 10
-95.581
 11
-95.004
 20
37.883
 21
39.304
  0
LINE
  8
0
 10
-95.004
 11
-94.988
 20
39.304
 21
39.345
  0
LINE
  8
0
 10
-94.988
 11
-94.971
 20
39.345
 21
39.386
  0
LINE
  8
0
 10
-94.971
 11
-94.373
 20
39.386
 21
40.798
  0
LINE
  8
0
 10
-94.373
 11
-95.986
 20
40.798
 21
42.511
  0
LINE
  8
0
 10
-95.986
 11
-97.534
 20
42.511
 21
44.348
  0
LINE
  8
0
 10
-97.534
 11
-99.018
 20
44.348
 21
46.299
  0
LINE
  8
0
 10
-99.018
 11
-100.437
 20
46.299
 21
48.358
  0
LINE
  8
0
 10
-100.437
 11
-101.79
 20
48.358
 21
50.518
  0
LINE
  8
0
 10
-101.79
 11
-100.7
 20
50.518
 21
52.656
  0
LINE
  8
0
 10
-100.7
 11
-98.158
 20
52.656
 21
52.831
  0
LINE
  8
0
 10
-98.158
 11
-95.658
 20
52.831
 21
52.894
  0
LINE
  8
0
 10
-95.658
 11
-93.207
 20
52.894
 21
52.839
  0
LINE
  8
0
 10
-93.207
 11
-90.812
 20
52.839
 21
52.667
  0
LINE
  8
0
 10
-90.812
 11
-88.478
 20
52.667
 21
52.369
  0
LINE
  8
0
 10
-88.478
 11
-87.686
 20
52.369
 21
53.682
  0
LINE
  8
0
 10
-87.686
 11
-87.663
 20
53.682
 21
53.72
  0
LINE
  8
0
 10
-87.663
 11
-87.641
 20
53.72
 21
53.758
  0
LINE
  8
0
 10
-87.641
 11
-86.829
 20
53.758
 21
55.059
  0
LINE
  8
0
 10
-86.829
 11
-88.154
 20
55.059
 21
57.003
  0
LINE
  8
0
 10
-88.154
 11
-89.396
 20
57.003
 21
59.06
  0
LINE
  8
0
 10
-89.396
 11
-90.556
 20
59.06
 21
61.218
  0
LINE
  8
0
 10
-90.556
 11
-91.635
 20
61.218
 21
63.475
  0
LINE
  8
0
 10
-91.635
 11
-92.634
 20
63.475
 21
65.819
  0
LINE
  8
0
 10
-92.634
 11
-91.223
 20
65.819
 21
67.761
  0
LINE
  8
0
 10
-91.223
 11
-88.685
 20
67.761
 21
67.536
  0
LINE
  8
0
 10
-88.685
 11
-86.206
 20
67.536
 21
67.207
  0
LINE
  8
0
 10
-86.206
 11
-83.794
 20
67.207
 21
66.77
  0
LINE
  8
0
 10
-83.794
 11
-81.455
 20
66.77
 21
66.225
  0
LINE
  8
0
 10
-81.455
 11
-79.196
 20
66.225
 21
65.565
  0
LINE
  8
0
 10
-79.196
 11
-78.209
 20
65.565
 21
66.738
  0
LINE
  8
0
 10
-78.209
 11
-78.181
 20
66.738
 21
66.772
  0
LINE
  8
0
 10
-78.181
 11
-78.152
 20
66.772
 21
66.806
  0
LINE
  8
0
 10
-78.152
 11
-77.147
 20
66.806
 21
67.964
  0
LINE
  8
0
 10
-77.147
 11
-78.152
 20
67.964
 21
70.092
  0
LINE
  8
0
 10
-78.152
 11
-79.056
 20
70.092
 21
72.317
  0
LINE
  8
0
 10
-79.056
 11
-79.865
 20
72.317
 21
74.631
  0
LINE
  8
0
 10
-79.865
 11
-80.578
 20
74.631
 21
77.028
  0
LINE
  8
0
 10
-80.578
 11
-81.197
 20
77.028
 21
79.5
  0
LINE
  8
0
 10
-81.197
 11
-79.5
 20
79.5
 21
81.197
  0
LINE
  8
0
 10
-79.5
 11
-77.028
 20
81.197
 21
80.578
  0
LINE
  8
0
 10
-77.028
 11
-74.631
 20
80.578
 21
79.865
  0
LINE
  8
0
 10
-74.631
 11
-72.317
 20
79.865
 21
79.056
  0
LINE
  8
0
 10
-72.317
 11
-70.092
 20
79.056
 21
78.152
  0
LINE
  8
0
 10
-70.092
 11
-67.964
 20
78.152
 21
77.147
  0
LINE
  8
0
 10
-67.964
 11
-66.806
 20
77.147
 21
78.151
  0
LINE
  8
0
 10
-66.806
 11
-66.772
 20
78.151
 21
78.181
  0
LINE
  8
0
 10
-66.772
 11
-66.739
 20
78.181
 21
78.21
  0
LINE
  8
0
 10
-66.739
 11
-65.565
 20
78.21
 21
79.196
  0
LINE
  8
0
 10
-65.565
 11
-66.225
 20
79.196
 21
81.455
  0
LINE
  8
0
 10
-66.225
 11
-66.77
 20
81.455
 21
83.794
  0
LINE
  8
0
 10
-66.77
 11
-67.207
 20
83.794
 21
86.206
  0
LINE
  8
0
 10
-67.207
 11
-67.536
 20
86.206
 21
88.685
  0
LINE
  8
0
 10
-67.536
 11
-67.761
 20
88.685
 21
91.223
  0
LINE
  8
0
 10
-67.761
 11
-65.819
 20
91.223
 21
92.634
  0
LINE
  8
0
 10
-65.819
 11
-63.475
 20
92.634
 21
91.635
  0
LINE
  8
0
 10
-63.475
 11
-61.218
 20
91.635
 21
90.556
  0
LINE
  8
0
 10
-61.218
 11
-59.06
 20
90.556
 21
89.396
  0
LINE
  8
0
 10
-59.06
 11
-57.003
 20
89.396
 21
88.154
  0
LINE
  8
0
 10
-57.003
 11
-55.059
 20
88.154
 21
86.829
  0
LINE
  8
0
 10
-55.059
 11
-53.758
 20
86.829
 21
87.64
  0
LINE
  8
0
 10
-53.758
 11
-53.72
 20
87.64
 21
87.663
  0
LINE
  8
0
 10
-53.72
 11
-53.682
 20
87.663
 21
87.686
  0
LINE
  8
0
 10
-53.682
 11
-52.369
 20
87.686
 21
88.478
  0
LINE
  8
0
 10
-52.369
 11
-52.667
 20
88.478
 21
90.812
  0
LINE
  8
0
 10
-52.667
 11
-52.839
 20
90.812
 21
93.207
  0
LINE
  8
0
 10
-52.839
 11
-52.894
 20
93.207
 21
95.658
  0
LINE
  8
0
 10
-52.894
 11
-52.831
 20
95.658
 21
98.158
  0
LINE
  8
0
 10
-52.831
 11
-52.656
 20
98.158
 21
100.7
  0
LINE
  8
0
 10
-52.656
 11
-50.518
 20
100.7
 21
101.79
  0
LINE
  8
0
 10
-50.518
 11
-48.358
 20
101.79
 21
100.437
  0
LINE
  8
0
 10
-48.358
 11
-46.299
 20
100.437
 21
99.018
  0
LINE
  8
0
 10
-46.299
 11
-44.348
 20
99.018
 21
97.534
  0
LINE
  8
0
 10
-44.348
 11
-42.511
 20
97.534
 21
95.986
  0
LINE
  8
0
 10
-42.511
 11
-40.798
 20
95.986
 21
94.373
  0
LINE
  8
0
 10
-40.798
 11
-39.386
 20
94.373
 21
94.97
  0
LINE
  8
0
 10
-39.386
 11
-39.345
 20
94.97
 21
94.988
  0
LINE
  8
0
 10
-39.345
 11
-39.304
 20
94.988
 21
95.004
  0
LINE
  8
0
 10
-39.304
 11
-37.883
 20
95.004
 21
95.581
  0
LINE
  8
0
 10
-37.883
 11
-37.812
 20
95.581
 21
97.932
  0
LINE
  8
0
 10
-37.812
 11
-37.608
 20
97.932
 21
100.326
  0
LINE
  8
0
 10
-37.608
 11
-37.278
 20
100.326
 21
102.754
  0
LINE
  8
0
 10
-37.278
 11
-36.825
 20
102.754
 21
105.214
  0
LINE
  8
0
 10
-36.825
 11
-36.255
 20
105.214
 21
107.698
  0
LINE
  8
0
 10
-36.255
 11
-33.972
 20
107.698
 21
108.439
  0
LINE
  8
0
 10
-33.972
 11
-32.051
 20
108.439
 21
106.765
  0
LINE
  8
0
 10
-32.051
 11
-30.239
 20
106.765
 21
105.042
  0
LINE
  8
0
 10
-30.239
 11
-28.544
 20
105.042
 21
103.271
  0
LINE
  8
0
 10
-28.544
 11
-26.972
 20
103.271
 21
101.455
  0
LINE
  8
0
 10
-26.972
 11
-25.533
 20
101.455
 21
99.593
  0
LINE
  8
0
 10
-25.533
 11
-24.045
 20
99.593
 21
99.963
  0
LINE
  8
0
 10
-24.045
 11
-24.001
 20
99.963
 21
99.973
  0
LINE
  8
0
 10
-24.001
 11
-23.958
 20
99.973
 21
99.983
  0
LINE
  8
0
 10
-23.958
 11
-22.465
 20
99.983
 21
100.33
  0
LINE
  8
0
 10
-22.465
 11
-22.027
 20
100.33
 21
102.642
  0
LINE
  8
0
 10
-22.027
 11
-21.451
 20
102.642
 21
104.974
  0
LINE
  8
0
 10
-21.451
 11
-20.745
 20
104.974
 21
107.321
  0
LINE
  8
0
 10
-20.745
 11
-19.913
 20
107.321
 21
109.679
  0
LINE
  8
0
 10
-19.913
 11
-18.961
 20
109.679
 21
112.043
  0
LINE
  8
0
 10
-18.961
 11
-16.59
 20
112.043
 21
112.419
  0
LINE
  8
0
 10
-16.59
 11
-14.955
 20
112.419
 21
110.465
  0
LINE
  8
0
 10
-14.955
 11
-13.434
 20
110.465
 21
108.479
  0
LINE
  8
0
 10
-13.434
 11
-12.038
 20
108.479
 21
106.465
  0
LINE
  8
0
 10
-12.038
 11
-10.769
 20
106.465
 21
104.425
  0
LINE
  8
0
 10
-10.769
 11
-9.639
 20
104.425
 21
102.361
  0
LINE
  8
0
 10
-9.639
 11
-8.111
 20
102.361
 21
102.493
  0
LINE
  8
0
 10
-8.111
 11
-8.067
 20
102.493
 21
102.497
  0
LINE
  8
0
 10
-8.067
 11
-8.022
 20
102.497
 21
102.5
  0
LINE
  8
0
 10
-8.022
 11
-6.493
 20
102.5
 21
102.609
  0
LINE
  8
0
 10
-6.493
 11
-5.699
 20
102.609
 21
104.824
  0
LINE
  8
0
 10
-5.699
 11
-4.765
 20
104.824
 21
107.037
  0
LINE
  8
0
 10
-4.765
 11
-3.701
 20
107.037
 21
109.245
  0
LINE
  8
0
 10
-3.701
 11
-2.51
 20
109.245
 21
111.444
  0
LINE
  8
0
 10
-2.51
 11
-1.2
 20
111.444
 21
113.63
  0
LINE
  8
0
 10
-1.2
 11
1.2
 20
113.63
 21
113.63
  0
LINE
  8
0
 10
1.2
 11
2.51
 20
113.63
 21
111.444
  0
LINE
  8
0
 10
2.51
 11
3.701
 20
111.444
 21
109.245
  0
LINE
  8
0
 10
3.701
 11
4.765
 20
109.245
 21
107.037
  0
LINE
  8
0
 10
4.765
 11
5.699
 20
107.037
 21
104.824
  0
LINE
  8
0
 10
5.699
 11
6.493
 20
104.824
 21
102.609
  0
LINE
  8
0
 10
6.493
 11
8.022
 20
102.609
 21
102.5
  0
LINE
  8
0
 10
8.022
 11
8.066
 20
102.5
 21
102.497
  0
LINE
  8
0
 10
8.066
 11
8.111
 20
102.497
 21
102.494
  0
LINE
  8
0
 10
8.111
 11
9.639
 20
102.494
 21
102.361
  0
LINE
  8
0
 10
9.639
 11
10.769
 20
102.361
 21
104.425
  0
LINE
  8
0
 10
10.769
 11
12.038
 20
104.425
 21
106.465
  0
LINE
  8
0
 10
12.038
 11
13.434
 20
106.465
 21
108.479
  0
LINE
  8
0
 10
13.434
 11
14.955
 20
108.479
 21
110.465
  0
LINE
  8
0
 10
14.955
 11
16.59
 20
110.465
 21
112.419
  0
LINE
  8
0
 10
16.59
 11
18.961
 20
112.419
 21
112.043
  0
LINE
  8
0
 10
18.961
 11
19.913
 20
112.043
 21
109.679
  0
LINE
  8
0
 10
19.913
 11
20.745
 20
109.679
 21
107.321
  0
LINE
  8
0
 10
20.745
 11
21.451
 20
107.321
 21
104.974
  0
LINE
  8
0
 10
21.451
 11
22.027
 20
104.974
 21
102.642
  0
LINE
  8
0
 10
22.027
 11
22.465
 20
102.642
 21
100.33
  0
LINE
  8
0
 10
22.465
 11
23.958
 20
100.33
 21
99.983
  0
LINE
  8
0
 10
23.958
 11
24.001
 20
99.983
 21
99.973
  0
LINE
  8
0
 10
24.001
 11
24.045
 20
99.973
 21
99.963
  0
LINE
  8
0
 10
24.045
 11
25.533
 20
99.963
 21
99.593
  0
LINE
  8
0
 10
25.533
 11
26.972
 20
99.593
 21
101.455
  0
LINE
  8
0
 10
26.972
 11
28.544
 20
101.455
 21
103.271
  0
LINE
  8
0
 10
28.544
 11
30.239
 20
103.271
 21
105.042
  0
LINE
  8
0
 10
30.239
 11
32.051
 20
105.042
 21
106.765
  0
LINE
  8
0
 10
32.051
 11
33.972
 20
106.765
 21
108.439
  0
LINE
  8
0
 10
33.972
 11
36.255
 20
108.439
 21
107.698
  0
LINE
  8
0
 10
36.255
 11
36.825
 20
107.698
 21
105.214
  0
LINE
  8
0
 10
36.825
 11
37.278
 20
105.214
 21
102.754
  0
LINE
  8
0
 10
37.278
 11
37.608
 20
102.754
 21
100.326
  0
LINE
  8
0
 10
37.608
 11
37.812
 20
100.326
 21
97.932
  0
LINE
  8
0
 10
37.812
 11
37.883
 20
97.932
 21
95.581
  0
LINE
  8
0
 10
37.883
 11
39.304
 20
95.581
 21
95.004
  0
LINE
  8
0
 10
39.304
 11
39.345
 20
95.004
 21
94.988
  0
LINE
  8
0
 10
39.345
 11
39.386
 20
94.988
 21
94.971
  0
LINE
  8
0
 10
39.386
 11
40.798
 20
94.971
 21
94.373
  0
LINE
  8
0
 10
40.798
 11
42.511
 20
94.373
 21
95.986
  0
LINE
  8
0
 10
42.511
 11
44.348
 20
95.986
 21
97.534
  0
LINE
  8
0
 10
44.348
 11
46.299
 20
97.534
 21
99.018
  0
LINE
  8
0
 10
46.299
 11
48.358
 20
99.018
 21
100.437
  0
LINE
  8
0
 10
48.358
 11
50.518
 20
100.437
 21
101.79
  0
LINE
  8
0
 10
50.518
 11
52.656
 20
101.79
 21
100.7
  0
LINE
  8
0
 10
52.656
 11
52.831
 20
100.7
 21
98.158
  0
LINE
  8
0
 10
52.831
 11
52.894
 20
98.158
 21
95.658
  0
LINE
  8
0
 10
52.894
 11
52.839
 20
95.658
 21
93.207
  0
LINE
  8
0
 10
52.839
 11
52.667
 20
93.207
 21
90.812
  0
LINE
  8
0
 10
52.667
 11
52.369
 20
90.812
 21
88.478
  0
LINE
  8
0
 10
52.369
 11
53.682
 20
88.478
 21
87.686
  0
LINE
  8
0
 10
53.682
 11
53.72
 20
87.686
 21
87.663
  0
LINE
  8
0
 10
53.72
 11
53.758
 20
87.663
 21
87.641
  0
LINE
  8
0
 10
53.758
 11
55.059
 20
87.641
 21
86.829
  0
LINE
  8
0
 10
55.059
 11
57.003
 20
86.829
 21
88.154
  0
LINE
  8
0
 10
57.003
 11
59.06
 20
88.154
 21
89.396
  0
LINE
  8
0
 10
59.06
 11
61.218
 20
89.396
 21
90.556
  0
LINE
  8
0
 10
61.218
 11
63.475
 20
90.556
 21
91.635
  0
LINE
  8
0
 10
63.475
 11
65.819
 20
91.635
 21
92.634
  0
LINE
  8
0
 10
65.819
 11
67.761
 20
92.634
 21
91.223
  0
LINE
  8
0
 10
67.761
 11
67.536
 20
91.223
 21
88.685
  0
LINE
  8
0
 10
67.536
 11
67.207
 20
88.685
 21
86.206
  0
LINE
  8
0
 10
67.207
 11
66.77
 20
86.206
 21
83.794
  0
LINE
  8
0
 10
66.77
 11
66.225
 20
83.794
 21
81.455
  0
LINE
  8
0
 10
66.225
 11
65.565
 20
81.455
 21
79.196
  0
LINE
  8
0
 10
65.565
 11
66.738
 20
79.196
 21
78.209
  0
LINE
  8
0
 10
66.738
 11
66.772
 20
78.209
 21
78.181
  0
LINE
  8
0
 10
66.772
 11
66.806
 20
78.181
 21
78.151
  0
LINE
  8
0
 10
66.806
 11
67.964
 20
78.151
 21
77.147
  0
LINE
  8
0
 10
67.964
 11
70.092
 20
77.147
 21
78.152
  0
LINE
  8
0
 10
70.092
 11
72.317
 20
78.152
 21
79.056
  0
LINE
  8
0
 10
72.317
 11
74.631
 20
79.056
 21
79.865
  0
LINE
  8
0
 10
74.631
 11
77.028
 20
79.865
 21
80.578
  0
LINE
  8
0
 10
77.028
 11
79.5
 20
80.578
 21
81.197
  0
LINE
  8
0
 10
79.5
 11
81.197
 20
81.197
 21
79.5
  0
LINE
  8
0
 10
81.197
 11
80.578
 20
79.5
 21
77.028
  0
LINE
  8
0
 10
80.578
 11
79.865
 20
77.028
 21
74.631
  0
LINE
  8
0
 10
79.865
 11
79.056
 20
74.631
 21
72.317
  0
LINE
  8
0
 10
79.056
 11
78.152
 20
72.317
 21
70.092
  0
LINE
  8
0
 10
78.152
 11
77.147
 20
70.092
 21
67.964
  0
LINE
  8
0
 10
77.147
 11
78.151
 20
67.964
 21
66.806
  0
LINE
  8
0
 10
78.151
 11
78.181
 20
66.806
 21
66.772
  0
LINE
  8
0
 10
78.181
 11
78.209
 20
66.772
 21
66.738
  0
LINE
  8
0
 10
78.209
 11
79.196
 20
66.738
 21
65.565
  0
LINE
  8
0
 10
79.196
 11
81.455
 20
65.565
 21
66.225
  0
LINE
  8
0
 10
81.455
 11
83.794
 20
66.225
 21
66.77
  0
LINE
  8
0
 10
83.794
 11
86.206
 20
66.77
 21
67.207
  0
LINE
  8
0
 10
86.206
 11
88.685
 20
67.207
 21
67.536
  0
LINE
  8
0
 10
88.685
 11
91.223
 20
67.536
 21
67.761
  0
LINE
  8
0
 10
91.223
 11
92.634
 20
67.761
 21
65.819
  0
LINE
  8
0
 10
92.634
 11
91.635
 20
65.819
 21
63.475
  0
LINE
  8
0
 10
91.635
 11
90.556
 20
63.475
 21
61.218
  0
LINE
  8
0
 10
90.556
 11
89.396
 20
61.218
 21
59.06
  0
LINE
  8
0
 10
89.396
 11
88.154
 20
59.06
 21
57.003
  0
LINE
  8
0
 10
88.154
 11
86.829
 20
57.003
 21
55.059
  0
LINE
  8
0
 10
86.829
 11
87.64
 20
55.059
 21
53.758
  0
LINE
  8
0
 10
87.64
 11
87.663
 20
53.758
 21
53.72
  0
LINE
  8
0
 10
87.663
 11
87.686
 20
53.72
 21
53.682
  0
LINE
  8
0
 10
87.686
 11
88.478
 20
53.682
 21
52.369
  0
LINE
  8
0
 10
88.478
 11
90.812
 20
52.369
 21
52.667
  0
LINE
  8
0
 10
90.812
 11
93.207
 20
52.667
 21
52.839
  0
LINE
  8
0
 10
93.207
 11
95.658
 20
52.839
 21
52.894
  0
LINE
  8
0
 10
95.658
 11
98.158
 20
52.894
 21
52.831
  0
LINE
  8
0
 10
98.158
 11
100.7
 20
52.831
 21
52.656
  0
LINE
  8
0
 10
100.7
 11
101.79
 20
52.656
 21
50.518
  0
LINE
  8
0
 10
101.79
 11
100.437
 20
50.518
 21
48.358
  0
LINE
  8
0
 10
100.437
 11
99.018
 20
48.358
 21
46.299
  0
LINE
  8
0
 10
99.018
 11
97.534
 20
46.299
 21
44.348
  0
LINE
  8
0
 10
97.534
 11
95.986
 20
44.348
 21
42.511
  0
LINE
  8
0
 10
95.986
 11
94.373
 20
42.511
 21
40.798
  0
LINE
  8
0
 10
94.373
 11
94.97
 20
40.798
 21
39.386
  0
LINE
  8
0
 10
94.97
 11
94.988
 20
39.386
 21
39.345
  0
LINE
  8
0
 10
94.988
 11
95.004
 20
39.345
 21
39.304
  0
LINE
  8
0
 10
95.004
 11
95.581
 20
39.304
 21
37.883
  0
LINE
  8
0
 10
95.581
 11
97.932
 20
37.883
 21
37.812
  0
LINE
  8
0
 10
97.932
 11
100.326
 20
37.812
 21
37.608
  0
LINE
  8
0
 10
100.326
 11
102.754
 20
37.608
 21
37.278
  0
LINE
  8
0
 10
102.754
 11
105.214
 20
37.278
 21
36.825
  0
LINE
  8
0
 10
105.214
 11
107.698
 20
36.825
 21
36.255
  0
LINE
  8
0
 10
107.698
 11
108.439
 20
36.255
 21
33.972
  0
LINE
  8
0
 10
108.439
 11
106.765
 20
33.972
 21
32.051
  0
LINE
  8
0
 10
106.765
 11
105.042
 20
32.051
 21
30.239
  0
LINE
  8
0
 10
105.042
 11
103.271
 20
30.239
 21
28.544
  0
LINE
  8
0
 10
103.271
 11
101.455
 20
28.544
 21
26.972
  0
LINE
  8
0
 10
101.455
 11
99.593
 20
26.972
 21
25.533
  0
LINE
  8
0
 10
99.593
 11
99.963
 20
25.533
 21
24.045
  0
LINE
  8
0
 10
99.963
 11
99.973
 20
24.045
 21
24.002
  0
LINE
  8
0
 10
99.973
 11
99.984
 20
24.002
 21
23.958
  0
LINE
  8
0
 10
99.984
 11
100.33
 20
23.958
 21
22.465
  0
LINE
  8
0
 10
100.33
 11
102.642
 20
22.465
 21
22.027
  0
LINE
  8
0
 10
102.642
 11
104.974
 20
22.027
 21
21.451
  0
LINE
  8
0
 10
104.974
 11
107.321
 20
21.451
 21
20.745
  0
LINE
  8
0
 10
107.321
 11
109.679
 20
20.745
 21
19.913
  0
LINE
  8
0
 10
109.679
 11
112.043
 20
19.913
 21
18.961
  0
LINE
  8
0
 10
112.043
 11
112.419
 20
18.961
 21
16.59
  0
LINE
  8
0
 10
112.419
 11
110.465
 20
16.59
 21
14.955
  0
LINE
  8
0
 10
110.465
 11
108.479
 20
14.955
 21
13.434
  0
LINE
  8
0
 10
108.479
 11
106.465
 20
13.434
 21
12.038
  0
LINE
  8
0
 10
106.465
 11
104.425
 20
12.038
 21
10.769
  0
LINE
  8
0
 10
104.425
 11
102.361
 20
10.769
 21
9.639
  0
LINE
  8
0
 10
102.361
 11
102.493
 20
9.639
 21
8.111
  0
LINE
  8
0
 10
102.493
 11
102.497
 20
8.111
 21
8.066
  0
LINE
  8
0
 10
102.497
 11
102.5
 20
8.066
 21
8.022
  0
LINE
  8
0
 10
102.5
 11
102.609
 20
8.022
 21
6.493
  0
LINE
  8
0
 10
102.609
 11
104.824
 20
6.493
 21
5.699
  0
LINE
  8
0
 10
104.824
 11
107.037
 20
5.699
 21
4.765
  0
LINE
  8
0
 10
107.037
 11
109.245
 20
4.765
 21
3.701
  0
LINE
  8
0
 10
109.245
 11
111.444
 20
3.701
 21
2.51
  0
LINE
  8
0
 10
111.444
 11
113.63
 20
2.51
 21
1.2
  0
LINE
  8
0
 10
113.63
 11
113.63
 20
1.2
 21
-1.2
  0
LINE
  8
0
 10
113.63
 11
111.444
 20
-1.2
 21
-2.51
  0
LINE
  8
0
 10
111.444
 11
109.245
 20
-2.51
 21
-3.701
  0
LINE
  8
0
 10
109.245
 11
107.037
 20
-3.701
 21
-4.765
  0
LINE
  8
0
 10
107.037
 11
104.824
 20
-4.765
 21
-5.699
  0
LINE
  8
0
 10
104.824
 11
102.609
 20
-5.699
 21
-6.493
  0
LINE
  8
0
 10
102.609
 11
102.5
 20
-6.493
 21
-8.022
  0
LINE
  8
0
 10
102.5
 11
102.497
 20
-8.022
 21
-8.066
  0
LINE
  8
0
 10
102.497
 11
102.494
 20
-8.066
 21
-8.111
  0
LINE
  8
0
 10
102.494
 11
102.361
 20
-8.111
 21
-9.639
  0
LINE
  8
0
 10
102.361
 11
104.425
 20
-9.639
 21
-10.769
  0
LINE
  8
0
 10
104.425
 11
106.465
 20
-10.769
 21
-12.038
  0
LINE
  8
0
 10
106.465
 11
108.479
 20
-12.038
 21
-13.434
  0
LINE
  8
0
 10
108.479
 11
110.465
 20
-13.434
 21
-14.955
  0
LINE
  8
0
 10
110.465
 11
112.419
 20
-14.955
 21
-16.59
  0
LINE
  8
0
 10
112.419
 11
112.043
 20
-16.59
 21
-18.961
  0
LINE
  8
0
 10
112.043
 11
109.679
 20
-18.961
 21
-19.913
  0
LINE
  8
0
 10
109.679
 11
107.321
 20
-19.913
 21
-20.745
  0
LINE
  8
0
 10
107.321
 11
104.974
 20
-20.745
 21
-21.451
  0
LINE
  8
0
 10
104.974
 11
102.642
 20
-21.451
 21
-22.027
  0
LINE
  8
0
 10
102.642
 11
100.33
 20
-22.027
 21
-22.465
  0
LINE
  8
0
 10
100.33
 11
99.983
 20
-22.465
 21
-23.958
  0
LINE
  8
0
 10
99.983
 11
99.973
 20
-23.958
 21
-24.002
  0
LINE
  8
0
 10
99.973
 11
99.963
 20
-24.002
 21
-24.045
  0
LINE
  8
0
 10
99.963
 11
99.593
 20
-24.045
 21
-25.533
  0
LINE
  8
0
 10
99.593
 11
101.455
 20
-25.533
 21
-26.972
  0
LINE
  8
0
 10
101.455
 11
103.271
 20
-26.972
 21
-28.544
  0
LINE
  8
0
 10
103.271
 11
105.042
 20
-28.544
 21
-30.239
  0
LINE
  8
0
 10
105.042
 11
106.765
 20
-30.239
 21
-32.051
  0
LINE
  8
0
 10
106.765
 11
108.439
 20
-32.051
 21
-33.972
  0
LINE
  8
0
 10
108.439
 11
107.698
 20
-33.972
 21
-36.255
  0
LINE
  8
0
 10
107.698
 11
105.214
 20
-36.255
 21
-36.825
  0
LINE
  8
0
 10
105.214
 11
102.754
 20
-36.825
 21
-37.278
  0
LINE
  8
0
 10
102.754
 11
100.326
 20
-37.278
 21
-37.608
  0
LINE
  8
0
 10
100.326
 11
97.932
 20
-37.608
 21
-37.812
  0
LINE
  8
0
 10
97.932
 11
95.581
 20
-37.812
 21
-37.883
  0
LINE
  8
0
 10
95.581
 11
95.004
 20
-37.883
 21
-39.304
  0
LINE
  8
0
 10
95.004
 11
94.988
 20
-39.304
 21
-39.345
  0
LINE
  8
0
 10
94.988
 11
94.971
 20
-39.345
 21
-39.386
  0
LINE
  8
0
 10
94.971
 11
94.373
 20
-39.386
 21
-40.798
  0
LINE
  8
0
 10
94.373
 11
95.986
 20
-40.798
 21
-42.511
  0
LINE
  8
0
 10
95.986
 11
97.534
 20
-42.511
 21
-44.348
  0
LINE
  8
0
 10
97.534
 11
99.018
 20
-44.348
 21
-46.299
  0
LINE
  8
0
 10
99.018
 11
100.437
 20
-46.299
 21
-48.358
  0
LINE
  8
0
 10
100.437
 11
101.79
 20
-48.358
 21
-50.518
  0
LINE
  8
0
 10
101.79
 11
100.7
 20
-50.518
 21
-52.656
  0
LINE
  8
0
 10
100.7
 11
98.158
 20
-52.656
 21
-52.831
  0
LINE
  8
0
 10
98.158
 11
95.658
 20
-52.831
 21
-52.894
  0
LINE
  8
0
 10
95.658
 11
93.207
 20
-52.894
 21
-52.839
  0
LINE
  8
0
 10
93.207
 11
90.812
 20
-52.839
 21
-52.667
  0
LINE
  8
0
 10
90.812
 11
88.478
 20
-52.667
 21
-52.369
  0
LINE
  8
0
 10
88.478
 11
87.686
 20
-52.369
 21
-53.682
  0
LINE
  8
0
 10
87.686
 11
87.663
 20
-53.682
 21
-53.72
  0
LINE
  8
0
 10
87.663
 11
87.641
 20
-53.72
 21
-53.758
  0
LINE
  8
0
 10
87.641
 11
86.829
 20
-53.758
 21
-55.059
  0
LINE
  8
0
 10
86.829
 11
88.154
 20
-55.059
 21
-57.003
  0
LINE
  8
0
 10
88.154
 11
89.396
 20
-57.003
 21
-59.06
  0
LINE
  8
0
 10
89.396
 11
90.556
 20
-59.06
 21
-61.218
  0
LINE
  8
0
 10
90.556
 11
91.635
 20
-61.218
 21
-63.475
  0
LINE
  8
0
 10
91.635
 11
92.634
 20
-63.475
 21
-65.819
  0
LINE
  8
0
 10
92.634
 11
91.223
 20
-65.819
 21
-67.761
  0
LINE
  8
0
 10
91.223
 11
88.685
 20
-67.761
 21
-67.536
  0
LINE
  8
0
 10
88.685
 11
86.206
 20
-67.536
 21
-67.207
  0
LINE
  8
0
 10
86.206
 11
83.794
 20
-67.207
 21
-66.77
  0
LINE
  8
0
 10
83.794
 11
81.455
 20
-66.77
 21
-66.225
  0
LINE
  8
0
 10
81.455
 11
79.196
 20
-66.225
 21
-65.565
  0
LINE
  8
0
 10
79.196
 11
78.209
 20
-65.565
 21
-66.738
  0
LINE
  8
0
 10
78.209
 11
78.18
 20
-66.738
 21
-66.773
  0
LINE
  8
0
 10
78.18
 11
78.152
 20
-66.773
 21
-66.806
  0
LINE
  8
0
 10
78.152
 11
77.147
 20
-66.806
 21
-67.964
  0
LINE
  8
0
 10
77.147
 11
78.152
 20
-67.964
 21
-70.092
  0
LINE
  8
0
 10
78.152
 11
79.056
 20
-70.092
 21
-72.317
  0
LINE
  8
0
 10
79.056
 11
79.865
 20
-72.317
 21
-74.631
  0
LINE
  8
0
 10
79.865
 11
80.578
 20
-74.631
 21
-77.028
  0
LINE
  8
0
 10
80.578
 11
81.197
 20
-77.028
 21
-79.5
  0
LINE
  8
0
 10
81.197
 11
79.5
 20
-79.5
 21
-81.197
  0
LINE
  8
0
 10
79.5
 11
77.028
 20
-81.197
 21
-80.578
  0
LINE
  8
0
 10
77.028
 11
74.631
 20
-80.578
 21
-79.865
  0
LINE
  8
0
 10
74.631
 11
72.317
 20
-79.865
 21
-79.056
  0
LINE
  8
0
 10
72.317
 11
70.092
 20
-79.056
 21
-78.152
  0
LINE
  8
0
 10
70.092
 11
67.964
 20
-78.152
 21
-77.147
  0
LINE
  8
0
 10
67.964
 11
66.806
 20
-77.147
 21
-78.151
  0
LINE
  8
0
 10
66.806
 11
66.772
 20
-78.151
 21
-78.181
  0
LINE
  8
0
 10
66.772
 11
66.739
 20
-78.181
 21
-78.21
  0
LINE
  8
0
 10
66.739
 11
65.565
 20
-78.21
 21
-79.196
  0
LINE
  8
0
 10
65.565
 11
66.225
 20
-79.196
 21
-81.455
  0
LINE
  8
0
 10
66.225
 11
66.77
 20
-81.455
 21
-83.794
  0
LINE
  8
0
 10
66.77
 11
67.207
 20
-83.794
 21
-86.206
  0
LINE
  8
0
 10
67.207
 11
67.536
 20
-86.206
 21
-88.685
  0
LINE
  8
0
 10
67.536
 11
67.761
 20
-88.685
 21
-91.223
  0
LINE
  8
0
 10
67.761
 11
65.819
 20
-91.223
 21
-92.634
  0
LINE
  8
0
 10
65.819
 11
63.475
 20
-92.634
 21
-91.635
  0
LINE
  8
0
 10
63.475
 11
61.218
 20
-91.635
 21
-90.556
  0
LINE
  8
0
 10
61.218
 11
59.06
 20
-90.556
 21
-89.396
  0
LINE
  8
0
 10
59.06
 11
57.003
 20
-89.396
 21
-88.154
  0
LINE
  8
0
 10
57.003
 11
55.059
 20
-88.154
 21
-86.829
  0
LINE
  8
0
 10
55.059
 11
53.758
 20
-86.829
 21
-87.64
  0
LINE
  8
0
 10
53.758
 11
53.72
 20
-87.64
 21
-87.663
  0
LINE
  8
0
 10
53.72
 11
53.682
 20
-87.663
 21
-87.686
  0
LINE
  8
0
 10
53.682
 11
52.369
 20
-87.686
 21
-88.478
  0
LINE
  8
0
 10
52.369
 11
52.667
 20
-88.478
 21
-90.812
  0
LINE
  8
0
 10
52.667
 11
52.839
 20
-90.812
 21
-93.207
  0
LINE
  8
0
 10
52.839
 11
52.894
 20
-93.207
 21
-95.658
  0
LINE
  8
0
 10
52.894
 11
52.831
 20
-95.658
 21
-98.158
  0
LINE
  8
0
 10
52.831
 11
52.656
 20
-98.158
 21
-100.7
  0
LINE
  8
0
 10
52.656
 11
50.518
 20
-100.7
 21
-101.79
  0
LINE
  8
0
 10
50.518
 11
48.358
 20
-101.79
 21
-100.437
  0
LINE
  8
0
 10
48.358
 11
46.299
 20
-100.437
 21
-99.018
  0
LINE
  8
0
 10
46.299
 11
44.348
 20
-99.018
 21
-97.534
  0
LINE
  8
0
 10
44.348
 11
42.511
 20
-97.534
 21
-95.986
  0
LINE
  8
0
 10
42.511
 11
40.798
 20
-95.986
 21
-94.373
  0
LINE
  8
0
 10
40.798
 11
39.386
 20
-94.373
 21
-94.97
  0
LINE
  8
0
 10
39.386
 11
39.345
 20
-94.97
 21
-94.988
  0
LINE
  8
0
 10
39.345
 11
39.304
 20
-94.988
 21
-95.005
  0
LINE
  8
0
 10
39.304
 11
37.883
 20
-95.005
 21
-95.581
  0
LINE
  8
0
 10
37.883
 11
37.812
 20
-95.581
 21
-97.932
  0
LINE
  8
0
 10
37.812
 11
37.608
 20
-97.932
 21
-100.326
  0
LINE
  8
0
 10
37.608
 11
37.278
 20
-100.326
 21
-102.754
  0
LINE
  8
0
 10
37.278
 11
36.825
 20
-102.754
 21
-105.214
  0
LINE
  8
0
 10
36.825
 11
36.255
 20
-105.214
 21
-107.698
  0
LINE
  8
0
 10
36.255
 11
33.972
 20
-107.698
 21
-108.439
  0
LINE
  8
0
 10
33.972
 11
32.051
 20
-108.439
 21
-106.765
  0
LINE
  8
0
 10
32.051
 11
30.239
 20
-106.765
 21
-105.042
  0
LINE
  8
0
 10
30.239
 11
28.544
 20
-105.042
 21
-103.271
  0
LINE
  8
0
 10
28.544
 11
26.972
 20
-103.271
 21
-101.455
  0
LINE
  8
0
 10
26.972
 11
25.533
 20
-101.455
 21
-99.593
  0
LINE
  8
0
 10
25.533
 11
24.045
 20
-99.593
 21
-99.963
  0
LINE
  8
0
 10
24.045
 11
24.002
 20
-99.963
 21
-99.973
  0
LINE
  8
0
 10
24.002
 11
23.958
 20
-99.973
 21
-99.984
  0
LINE
  8
0
 10
23.958
 11
22.465
 20
-99.984
 21
-100.33
  0
LINE
  8
0
 10
22.465
 11
22.027
 20
-100.33
 21
-102.642
  0
LINE
  8
0
 10
22.027
 11
21.451
 20
-102.642
 21
-104.974
  0
LINE
  8
0
 10
21.451
 11
20.745
 20
-104.974
 21
-107.321
  0
LINE
  8
0
 10
20.745
 11
19.913
 20
-107.321
 21
-109.679
  0
LINE
  8
0
 10
19.913
 11
18.961
 20
-109.679
 21
-112.043
  0
LINE
  8
0
 10
18.961
 11
16.59
 20
-112.043
 21
-112.419
  0
LINE
  8
0
 10
16.59
 11
14.955
 20
-112.419
 21
-110.465
  0
LINE
  8
0
 10
14.955
 11
13.434
 20
-110.465
 21
-108.479
  0
LINE
  8
0
 10
13.434
 11
12.038
 20
-108.479
 21
-106.465
  0
LINE
  8
0
 10
12.038
 11
10.769
 20
-106.465
 21
-104.425
  0
LINE
  8
0
 10
10.769
 11
9.639
 20
-104.425
 21
-102.361
  0
LINE
  8
0
 10
9.639
 11
8.111
 20
-102.361
 21
-102.493
  0
LINE
  8
0
 10
8.111
 11
8.066
 20
-102.493
 21
-102.497
  0
LINE
  8
0
 10
8.066
 11
8.022
 20
-102.497
 21
-102.501
  0
LINE
  8
0
 10
8.022
 11
6.493
 20
-102.501
 21
-102.609
  0
LINE
  8
0
 10
6.493
 11
5.699
 20
-102.609
 21
-104.824
  0
LINE
  8
0
 10
5.699
 11
4.765
 20
-104.824
 21
-107.037
  0
LINE
  8
0
 10
4.765
 11
3.701
 20
-107.037
 21
-109.245
  0
LINE
  8
0
 10
3.701
 11
2.51
 20
-109.245
 21
-111.444
  0
LINE
  8
0
 10
2.51
 11
1.2
 20
-111.444
 21
-113.63
  0
LINE
  8
0
 10
1.2
 11
-1.2
 20
-113.63
 21
-113.63
  0
LINE
  8
0
 10
-1.2
 11
-2.51
 20
-113.63
 21
-111.444
  0
LINE
  8
0
 10
-2.51
 11
-3.701
 20
-111.444
 21
-109.245
  0
LINE
  8
0
 10
-3.701
 11
-4.765
 20
-109.245
 21
-107.037
  0
LINE
  8
0
 10
-4.765
 11
-5.699
 20
-107.037
 21
-104.824
  0
LINE
  8
0
 10
-5.699
 11
-6.493
 20
-104.824
 21
-102.609
  0
LINE
  8
0
 10
-6.493
 11
-8.022
 20
-102.609
 21
-102.5
  0
LINE
  8
0
 10
-8.022
 11
-8.067
 20
-102.5
 21
-102.497
  0
LINE
  8
0
 10
-8.067
 11
-8.111
 20
-102.497
 21
-102.494
  0
LINE
  8
0
 10
-8.111
 11
-9.639
 20
-102.494
 21
-102.361
  0
LINE
  8
0
 10
-9.639
 11
-10.769
 20
-102.361
 21
-104.425
  0
LINE
  8
0
 10
-10.769
 11
-12.038
 20
-104.425
 21
-106.465
  0
LINE
  8
0
 10
-12.038
 11
-13.434
 20
-106.465
 21
-108.479
  0
LINE
  8
0
 10
-13.434
 11
-14.955
 20
-108.479
 21
-110.465
  0
LINE
  8
0
 10
-14.955
 11
-16.59
 20
-110.465
 21
-112.419
  0
LINE
  8
0
 10
-16.59
 11
-18.961
 20
-112.419
 21
-112.043
  0
LINE
  8
0
 10
-18.961
 11
-19.913
 20
-112.043
 21
-109.679
  0
LINE
  8
0
 10
-19.913
 11
-20.745
 20
-109.679
 21
-107.321
  0
LINE
  8
0
 10
-20.745
 11
-21.451
 20
-107.321
 21
-104.974
  0
LINE
  8
0
 10
-21.451
 11
-22.027
 20
-104.974
 21
-102.642
  0
LINE
  8
0
 10
-22.027
 11
-22.465
 20
-102.642
 21
-100.33
  0
LINE
  8
0
 10
-22.465
 11
-23.958
 20
-100.33
 21
-99.984
  0
LINE
  8
0
 10
-23.958
 11
-24.001
 20
-99.984
 21
-99.973
  0
LINE
  8
0
 10
-24.001
 11
-24.045
 20
-99.973
 21
-99.963
  0
LINE
  8
0
 10
-24.045
 11
-25.533
 20
-99.963
 21
-99.593
  0
LINE
  8
0
 10
-25.533
 11
-26.972
 20
-99.593
 21
-101.455
  0
LINE
  8
0
 10
-26.972
 11
-28.544
 20
-101.455
 21
-103.271
  0
LINE
  8
0
 10
-28.544
 11
-30.239
 20
-103.271
 21
-105.042
  0
LINE
  8
0
 10
-30.239
 11
-32.051
 20
-105.042
 21
-106.765
  0
LINE
  8
0
 10
-32.051
 11
-33.972
 20
-106.765
 21
-108.439
  0
LINE
  8
0
 10
-33.972
 11
-36.255
 20
-108.439
 21
-107.698
  0
LINE
  8
0
 10
-36.255
 11
-36.825
 20
-107.698
 21
-105.214
  0
LINE
  8
0
 10
-36.825
 11
-37.278
 20
-105.214
 21
-102.754
  0
LINE
  8
0
 10
-37.278
 11
-37.608
 20
-102.754
 21
-100.326
  0
LINE
  8
0
 10
-37.608
 11
-37.812
 20
-100.326
 21
-97.932
  0
LINE
  8
0
 10
-37.812
 11
-37.883
 20
-97.932
 21
-95.581
  0
LINE
  8
0
 10
-37.883
 11
-39.304
 20
-95.581
 21
-95.005
  0
LINE
  8
0
 10
-39.304
 11
-39.345
 20
-95.005
 21
-94.988
  0
LINE
  8
0
 10
-39.345
 11
-39.386
 20
-94.988
 21
-94.971
  0
LINE
  8
0
 10
-39.386
 11
-40.798
 20
-94.971
 21
-94.373
  0
LINE
  8
0
 10
-40.798
 11
-42.511
 20
-94.373
 21
-95.986
  0
LINE
  8
0
 10
-42.511
 11
-44.348
 20
-95.986
 21
-97.534
  0
LINE
  8
0
 10
-44.348
 11
-46.299
 20
-97.534
 21
-99.018
  0
LINE
  8
0
 10
-46.299
 11
-48.358
 20
-99.018
 21
-100.437
  0
LINE
  8
0
 10
-48.358
 11
-50.518
 20
-100.437
 21
-101.79
  0
LINE
  8
0
 10
-50.518
 11
-52.656
 20
-101.79
 21
-100.7
  0
LINE
  8
0
 10
-52.656
 11
-52.831
 20
-100.7
 21
-98.158
  0
LINE
  8
0
 10
-52.831
 11
-52.894
 20
-98.158
 21
-95.658
  0
LINE
  8
0
 10
-52.894
 11
-52.839
 20
-95.658
 21
-93.207
  0
LINE
  8
0
 10
-52.839
 11
-52.667
 20
-93.207
 21
-90.812
  0
LINE
  8
0
 10
-52.667
 11
-52.369
 20
-90.812
 21
-88.478
  0
LINE
  8
0
 10
-52.369
 11
-53.682
 20
-88.478
 21
-87.686
  0
LINE
  8
0
 10
-53.682
 11
-53.72
 20
-87.686
 21
-87.663
  0
LINE
  8
0
 10
-53.72
 11
-53.758
 20
-87.663
 21
-87.641
  0
LINE
  8
0
 10
-53.758
 11
-55.059
 20
-87.641
 21
-86.829
  0
LINE
  8
0
 10
-55.059
 11
-57.003
 20
-86.829
 21
-88.154
  0
LINE
  8
0
 10
-57.003
 11
-59.06
 20
-88.154
 21
-89.396
  0
LINE
  8
0
 10
-59.06
 11
-61.218
 20
-89.396
 21
-90.556
  0
LINE
  8
0
 10
-61.218
 11
-63.475
 20
-90.556
 21
-91.635
  0
LINE
  8
0
 10
-63.475
 11
-65.819
 20
-91.635
 21
-92.634
  0
LINE
  8
0
 10
-65.819
 11
-67.761
 20
-92.634
 21
-91.223
  0
LINE
  8
0
 10
-67.761
 11
-67.536
 20
-91.223
 21
-88.685
  0
LINE
  8
0
 10
-67.536
 11
-67.207
 20
-88.685
 21
-86.206
  0
LINE
  8
0
 10
-67.207
 11
-66.77
 20
-86.206
 21
-83.794
  0
LINE
  8
0
 10
-66.77
 11
-66.225
 20
-83.794
 21
-81.455
  0
LINE
  8
0
 10
-66.225
 11
-65.565
 20
-81.455
 21
-79.196
  0
LINE
  8
0
 10
-65.565
 11
-66.738
 20
-79.196
 21
-78.209
  0
LINE
  8
0
 10
-66.738
 11
-66.773
 20
-78.209
 21
-78.18
  0
LINE
  8
0
 10
-66.773
 11
-66.806
 20
-78.18
 21
-78.152
  0
LINE
  8
0
 10
-66.806
 11
-67.964
 20
-78.152
 21
-77.147
  0
LINE
  8
0
 10
-67.964
 11
-70.092
 20
-77.147
 21
-78.152
  0
LINE
  8
0
 10
-70.092
 11
-72.317
 20
-78.152
 21
-79.056
  0
LINE
  8
0
 10
-72.317
 11
-74.631
 20
-79.056
 21
-79.865
  0
LINE
  8
0
 10
-74.631
 11
-77.028
 20
-79.865
 21
-80.578
  0
LINE
  8
0
 10
-77.028
 11
-79.5
 20
-80.578
 21
-81.197
  0
LINE
  8
0
 10
-79.5
 11
-81.197
 20
-81.197
 21
-79.5
  0
LINE
  8
0
 10
-81.197
 11
-80.578
 20
-79.5
 21
-77.028
  0
LINE
  8
0
 10
-80.578
 11
-79.865
 20
-77.028
 21
-74.631
  0
LINE
  8
0
 10
-79.865
 11
-79.056
 20
-74.631
 21
-72.317
  0
LINE
  8
0
 10
-79.056
 11
-78.152
 20
-72.317
 21
-70.092
  0
LINE
  8
0
 10
-78.152
 11
-77.147
 20
-70.092
 21
-67.964
  0
LINE
  8
0
 10
-77.147
 11
-78.152
 20
-67.964
 21
-66.806
  0
LINE
  8
0
 10
-78.152
 11
-78.181
 20
-66.806
 21
-66.772
  0
LINE
  8
0
 10
-78.181
 11
-78.21
 20
-66.772
 21
-66.739
  0
LINE
  8
0
 10
-78.21
 11
-79.196
 20
-66.739
 21
-65.565
  0
LINE
  8
0
 10
-79.196
 11
-81.455
 20
-65.565
 21
-66.225
  0
LINE
  8
0
 10
-81.455
 11
-83.794
 20
-66.225
 21
-66.77
  0
LINE
  8
0
 10
-83.794
 11
-86.206
 20
-66.77
 21
-67.207
  0
LINE
  8
0
 10
-86.206
 11
-88.685
 20
-67.207
 21
-67.536
  0
LINE
  8
0
 10
-88.685
 11
-91.223
 20
-67.536
 21
-67.761
  0
LINE
  8
0
 10
-91.223
 11
-92.634
 20
-67.761
 21
-65.819
  0
LINE
  8
0
 10
-92.634
 11
-91.635
 20
-65.819
 21
-63.475
  0
LINE
  8
0
 10
-91.635
 11
-90.556
 20
-63.475
 21
-61.218
  0
LINE
  8
0
 10
-90.556
 11
-89.396
 20
-61.218
 21
-59.06
  0
LINE
  8
0
 10
-89.396
 11
-88.154
 20
-59.06
 21
-57.003
  0
LINE
  8
0
 10
-88.154
 11
-86.829
 20
-57.003
 21
-55.059
  0
LINE
  8
0
 10
-86.829
 11
-87.64
 20
-55.059
 21
-53.758
  0
LINE
  8
0
 10
-87.64
 11
-87.663
 20
-53.758
 21
-53.72
  0
LINE
  8
0
 10
-87.663
 11
-87.686
 20
-53.72
 21
-53.682
  0
LINE
  8
0
 10
-87.686
 11
-88.478
 20
-53.682
 21
-52.369
  0
LINE
  8
0
 10
-88.478
 11
-90.812
 20
-52.369
 21
-52.667
  0
LINE
  8
0
 10
-90.812
 11
-93.207
 20
-52.667
 21
-52.839
  0
LINE
  8
0
 10
-93.207
 11
-95.658
 20
-52.839
 21
-52.894
  0
LINE
  8
0
 10
-95.658
 11
-98.158
 20
-52.894
 21
-52.831
  0
LINE
  8
0
 10
-98.158
 11
-100.7
 20
-52.831
 21
-52.656
  0
LINE
  8
0
 10
-100.7
 11
-101.79
 20
-52.656
 21
-50.518
  0
LINE
  8
0
 10
-101.79
 11
-100.437
 20
-50.518
 21
-48.358
  0
LINE
  8
0
 10
-100.437
 11
-99.018
 20
-48.358
 21
-46.299
  0
LINE
  8
0
 10
-99.018
 11
-97.534
 20
-46.299
 21
-44.348
  0
LINE
  8
0
 10
-97.534
 11
-95.986
 20
-44.348
 21
-42.511
  0
LINE
  8
0
 10
-95.986
 11
-94.373
 20
-42.511
 21
-40.798
  0
LINE
  8
0
 10
-94.373
 11
-94.97
 20
-40.798
 21
-39.386
  0
LINE
  8
0
 10
-94.97
 11
-94.988
 20
-39.386
 21
-39.345
  0
LINE
  8
0
 10
-94.988
 11
-95.004
 20
-39.345
 21
-39.304
  0
LINE
  8
0
 10
-95.004
 11
-95.581
 20
-39.304
 21
-37.883
  0
LINE
  8
0
 10
-95.581
 11
-97.932
 20
-37.883
 21
-37.812
  0
LINE
  8
0
 10
-97.932
 11
-100.326
 20
-37.812
 21
-37.608
  0
LINE
  8
0
 10
-100.326
 11
-102.754
 20
-37.608
 21
-37.278
  0
LINE
  8
0
 10
-102.754
 11
-105.214
 20
-37.278
 21
-36.825
  0
LINE
  8
0
 10
-105.214
 11
-107.698
 20
-36.825
 21
-36.255
  0
LINE
  8
0
 10
-107.698
 11
-108.439
 20
-36.255
 21
-33.972
  0
LINE
  8
0
 10
-108.439
 11
-106.765
 20
-33.972
 21
-32.051
  0
LINE
  8
0
 10
-106.765
 11
-105.042
 20
-32.051
 21
-30.239
  0
LINE
  8
0
 10
-105.042
 11
-103.271
 20
-30.239
 21
-28.544
  0
LINE
  8
0
 10
-103.271
 11
-101.455
 20
-28.544
 21
-26.972
  0
LINE
  8
0
 10
-101.455
 11
-99.593
 20
-26.972
 21
-25.533
  0
LINE
  8
0
 10
-99.593
 11
-99.963
 20
-25.533
 21
-24.045
  0
LINE
  8
0
 10
-99.963
 11
-99.973
 20
-24.045
 21
-24.002
  0
LINE
  8
0
 10
-99.973
 11
-99.983
 20
-24.002
 21
-23.958
  0
LINE
  8
0
 10
-99.983
 11
-100.33
 20
-23.958
 21
-22.465
  0
LINE
  8
0
 10
-100.33
 11
-102.642
 20
-22.465
 21
-22.027
  0
LINE
  8
0
 10
-102.642
 11
-104.974
 20
-22.027
 21
-21.451
  0
LINE
  8
0
 10
-104.974
 11
-107.321
 20
-21.451
 21
-20.745
  0
LINE
  8
0
 10
-107.321
 11
-109.679
 20
-20.745
 21
-19.913
  0
LINE
  8
0
 10
-109.679
 11
-112.043
 20
-19.913
 21
-18.961
  0
LINE
  8
0
 10
-112.043
 11
-112.419
 20
-18.961
 21
-16.59
  0
LINE
  8
0
 10
-112.419
 11
-110.465
 20
-16.59
 21
-14.955
  0
LINE
  8
0
 10
-110.465
 11
-108.479
 20
-14.955
 21
-13.434
  0
LINE
  8
0
 10
-108.479
 11
-106.465
 20
-13.434
 21
-12.038
  0
LINE
  8
0
 10
-106.465
 11
-104.425
 20
-12.038
 21
-10.769
  0
LINE
  8
0
 10
-104.425
 11
-102.361
 20
-10.769
 21
-9.639
  0
LINE
  8
0
 10
-102.361
 11
-102.493
 20
-9.639
 21
-8.111
  0
LINE
  8
0
 10
-102.493
 11
-102.497
 20
-8.111
 21
-8.067
  0
LINE
  8
0
 10
-102.497
 11
-102.5
 20
-8.067
 21
-8.022
  0
LINE
  8
0
 10
-102.5
 11
-102.609
 20
-8.022
 21
-6.493
  0
LINE
  8
0
 10
-102.609
 11
-104.824
 20
-6.493
 21
-5.699
  0
LINE
  8
0
 10
-104.824
 11
-107.037
 20
-5.699
 21
-4.765
  0
LINE
  8
0
 10
-107.037
 11
-109.245
 20
-4.765
 21
-3.701
  0
LINE
  8
0
 10
-109.245
 11
-111.444
 20
-3.701
 21
-2.51
  0
LINE
  8
0
 10
-111.444
 11
-113.63
 20
-2.51
 21
-1.2
  0
LINE
  8
0
 10
-82.133
 11
-20.767
 20
-10
 21
-10
  0
LINE
  8
0
 10
-20.767
 11
-20.731
 20
-10
 21
-10.076
  0
LINE
  8
0
 10
-20.731
 11
-20.472
 20
-10.076
 21
-10.593
  0
LINE
  8
0
 10
-20.472
 11
-20.199
 20
-10.593
 21
-11.104
  0
LINE
  8
0
 10
-20.199
 11
-19.913
 20
-11.104
 21
-11.609
  0
LINE
  8
0
 10
-19.913
 11
-19.615
 20
-11.609
 21
-12.105
  0
LINE
  8
0
 10
-19.615
 11
-19.305
 20
-12.105
 21
-12.594
  0
LINE
  8
0
 10
-19.305
 11
-18.982
 20
-12.594
 21
-13.076
  0
LINE
  8
0
 10
-18.982
 11
-18.648
 20
-13.076
 21
-13.548
  0
LINE
  8
0
 10
-18.648
 11
-18.301
 20
-13.548
 21
-14.013
  0
LINE
  8
0
 10
-18.301
 11
-17.944
 20
-14.013
 21
-14.468
  0
LINE
  8
0
 10
-17.944
 11
-17.574
 20
-14.468
 21
-14.915
  0
LINE
  8
0
 10
-17.574
 11
-17.194
 20
-14.915
 21
-15.352
  0
LINE
  8
0
 10
-17.194
 11
-16.803
 20
-15.352
 21
-15.779
  0
LINE
  8
0
 10
-16.803
 11
-16.401
 20
-15.779
 21
-16.196
  0
LINE
  8
0
 10
-16.401
 11
-15.989
 20
-16.196
 21
-16.603
  0
LINE
  8
0
 10
-15.989
 11
-15.566
 20
-16.603
 21
-17
  0
LINE
  8
0
 10
-15.566
 11
-15.134
 20
-17
 21
-17.385
  0
LINE
  8
0
 10
-15.134
 11
-14.693
 20
-17.385
 21
-17.76
  0
LINE
  8
0
 10
-14.693
 11
-14.242
 20
-17.76
 21
-18.124
  0
LINE
  8
0
 10
-14.242
 11
-13.782
 20
-18.124
 21
-18.476
  0
LINE
  8
0
 10
-13.782
 11
-13.313
 20
-18.476
 21
-18.817
  0
LINE
  8
0
 10
-13.313
 11
-12.836
 20
-18.817
 21
-19.145
  0
LINE
  8
0
 10
-12.836
 11
-12.351
 20
-19.145
 21
-19.462
  0
LINE
  8
0
 10
-12.351
 11
-11.858
 20
-19.462
 21
-19.766
  0
LINE
  8
0
 10
-11.858
 11
-11.357
 20
-19.766
 21
-20.058
  0
LINE
  8
0
 10
-11.357
 11
-10.85
 20
-20.058
 21
-20.337
  0
LINE
  8
0
 10
-10.85
 11
-10.335
 20
-20.337
 21
-20.603
  0
LINE
  8
0
 10
-10.335
 11
-10
 20
-20.603
 21
-20.766
  0
LINE
  8
0
 10
-10
 11
-10
 20
-20.766
 21
-82.133
  0
LINE
  8
0
 10
-10
 11
-14.381
 20
-82.133
 21
-81.556
  0
LINE
  8
0
 10
-14.381
 11
-21.434
 20
-81.556
 21
-79.992
  0
LINE
  8
0
 10
-21.434
 11
-28.324
 20
-79.992
 21
-77.82
  0
LINE
  8
0
 10
-28.324
 11
-34.999
 20
-77.82
 21
-75.055
  0
LINE
  8
0
 10
-34.999
 11
-41.407
 20
-75.055
 21
-71.719
  0
LINE
  8
0
 10
-41.407
 11
-47.5
 20
-71.719
 21
-67.837
  0
LINE
  8
0
 10
-47.5
 11
-53.232
 20
-67.837
 21
-63.439
  0
LINE
  8
0
 10
-53.232
 11
-58.558
 20
-63.439
 21
-58.558
  0
LINE
  8
0
 10
-58.558
 11
-63.439
 20
-58.558
 21
-53.232
  0
LINE
  8
0
 10
-63.439
 11
-67.837
 20
-53.232
 21
-47.5
  0
LINE
  8
0
 10
-67.837
 11
-71.719
 20
-47.5
 21
-41.407
  0
LINE
  8
0
 10
-71.719
 11
-75.055
 20
-41.407
 21
-34.999
  0
LINE
  8
0
 10
-75.055
 11
-77.82
 20
-34.999
 21
-28.324
  0
LINE
  8
0
 10
-77.82
 11
-79.992
 20
-28.324
 21
-21.434
  0
LINE
  8
0
 10
-79.992
 11
-81.556
 20
-21.434
 21
-14.381
  0
LINE
  8
0
 10
-81.556
 11
-82.133
 20
-14.381
 21
-10
  0
LINE
  8
0
 10
-82.133
 11
-81.556
 20
10
 21
14.381
  0
LINE
  8
0
 10
-81.556
 11
-79.992
 20
14.381
 21
21.434
  0
LINE
  8
0
 10
-79.992
 11
-77.82
 20
21.434
 21
28.324
  0
LINE
  8
0
 10
-77.82
 11
-75.055
 20
28.324
 21
34.999
  0
LINE
  8
0
 10
-75.055
 11
-71.719
 20
34.999
 21
41.407
  0
LINE
  8
0
 10
-71.719
 11
-67.837
 20
41.407
 21
47.5
  0
LINE
  8
0
 10
-67.837
 11
-63.439
 20
47.5
 21
53.232
  0
LINE
  8
0
 10
-63.439
 11
-58.558
 20
53.232
 21
58.558
  0
LINE
  8
0
 10
-58.558
 11
-53.232
 20
58.558
 21
63.439
  0
LINE
  8
0
 10
-53.232
 11
-47.5
 20
63.439
 21
67.837
  0
LINE
  8
0
 10
-47.5
 11
-41.407
 20
67.837
 21
71.719
  0
LINE
  8
0
 10
-41.407
 11
-34.999
 20
71.719
 21
75.055
  0
LINE
  8
0
 10
-34.999
 11
-28.324
 20
75.055
 21
77.82
  0
LINE
  8
0
 10
-28.324
 11
-21.434
 20
77.82
 21
79.992
  0
LINE
  8
0
 10
-21.434
 11
-14.381
 20
79.992
 21
81.556
  0
LINE
  8
0
 10
-14.381
 11
-10
 20
81.556
 21
82.133
  0
LINE
  8
0
 10
-10
 11
-10
 20
82.133
 21
20.766
  0
LINE
  8
0
 10
-10
 11
-10.335
 20
20.766
 21
20.603
  0
LINE
  8
0
 10
-10.335
 11
-10.85
 20
20.603
 21
20.337
  0
LINE
  8
0
 10
-10.85
 11
-11.357
 20
20.337
 21
20.058
  0
LINE
  8
0
 10
-11.357
 11
-11.858
 20
20.058
 21
19.766
  0
LINE
  8
0
 10
-11.858
 11
-12.351
 20
19.766
 21
19.462
  0
LINE
  8
0
 10
-12.351
 11
-12.836
 20
19.462
 21
19.145
  0
LINE
  8
0
 10
-12.836
 11
-13.313
 20
19.145
 21
18.817
  0
LINE
  8
0
 10
-13.313
 11
-13.782
 20
18.817
 21
18.476
  0
LINE
  8
0
 10
-13.782
 11
-14.242
 20
18.476
 21
18.124
  0
LINE
  8
0
 10
-14.242
 11
-14.693
 20
18.124
 21
17.76
  0
LINE
  8
0
 10
-14.693
 11
-15.134
 20
17.76
 21
17.385
  0
LINE
  8
0
 10
-15.134
 11
-15.566
 20
17.385
 21
17
  0
LINE
  8
0
 10
-15.566
 11
-15.989
 20
17
 21
16.603
  0
LINE
  8
0
 10
-15.989
 11
-16.401
 20
16.603
 21
16.196
  0
LINE
  8
0
 10
-16.401
 11
-16.803
 20
16.196
 21
15.779
  0
LINE
  8
0
 10
-16.803
 11
-17.194
 20
15.779
 21
15.352
  0
LINE
  8
0
 10
-17.194
 11
-17.574
 20
15.352
 21
14.915
  0
LINE
  8
0
 10
-17.574
 11
-17.944
 20
14.915
 21
14.468
  0
LINE
  8
0
 10
-17.944
 11
-18.301
 20
14.468
 21
14.013
  0
LINE
  8
0
 10
-18.301
 11
-18.648
 20
14.013
 21
13.548
  0
LINE
  8
0
 10
-18.648
 11
-18.982
 20
13.548
 21
13.076
  0
LINE
  8
0
 10
-18.982
 11
-19.305
 20
13.076
 21
12.594
  0
LINE
  8
0
 10
-19.305
 11
-19.615
 20
12.594
 21
12.105
  0
LINE
  8
0
 10
-19.615
 11
-19.913
 20
12.105
 21
11.609
  0
LINE
  8
0
 10
-19.913
 11
-20.199
 20
11.609
 21
11.104
  0
LINE
  8
0
 10
-20.199
 11
-20.472
 20
11.104
 21
10.593
  0
LINE
  8
0
 10
-20.472
 11
-20.731
 20
10.593
 21
10.076
  0
LINE
  8
0
 10
-20.731
 11
-20.767
 20
10.076
 21
10
  0
LINE
  8
0
 10
-20.767
 11
-82.133
 20
10
 21
10
  0
LINE
  8
0
 10
-60.65
 11
-58.005
 20
-75.08
 21
-71.439
  0
LINE
  8
0
 10
-58.005
 11
-50.018
 20
-71.439
 21
-77.242
  0
LINE
  8
0
 10
-50.018
 11
-52.663
 20
-77.242
 21
-80.883
  0
LINE
  8
0
 10
-52.663
 11
-60.65
 20
-80.883
 21
-75.08
  0
LINE
  8
0
 10
-60.65
 11
-52.663
 20
75.08
 21
80.883
  0
LINE
  8
0
 10
-52.663
 11
-50.018
 20
80.883
 21
77.242
  0
LINE
  8
0
 10
-50.018
 11
-58.005
 20
77.242
 21
71.439
  0
LINE
  8
0
 10
-58.005
 11
-60.65
 20
71.439
 21
75.08
  0
LINE
  8
0
 10
-4.937
 11
-4.937
 20
-96.39
 21
-91.89
  0
LINE
  8
0
 10
-4.937
 11
4.937
 20
-91.89
 21
-91.89
  0
LINE
  8
0
 10
4.937
 11
4.937
 20
-91.89
 21
-96.39
  0
LINE
  8
0
 10
4.937
 11
-4.937
 20
-96.39
 21
-96.39
  0
LINE
  8
0
 10
-4.937
 11
-4.937
 20
91.89
 21
96.39
  0
LINE
  8
0
 10
-4.937
 11
4.937
 20
96.39
 21
96.39
  0
LINE
  8
0
 10
4.937
 11
4.937
 20
96.39
 21
91.89
  0
LINE
  8
0
 10
4.937
 11
-4.937
 20
91.89
 21
91.89
  0
LINE
  8
0
 10
-3.15
 11
-2.996
 20
0
 21
0.973
  0
LINE
  8
0
 10
-2.996
 11
-2.548
 20
0.973
 21
1.852
  0
LINE
  8
0
 10
-2.548
 11
-1.852
 20
1.852
 21
2.548
  0
LINE
  8
0
 10
-1.852
 11
-0.973
 20
2.548
 21
2.996
  0
LINE
  8
0
 10
-0.973
 11
0
 20
2.996
 21
3.15
  0
LINE
  8
0
 10
0
 11
0.973
 20
3.15
 21
2.996
  0
LINE
  8
0
 10
0.973
 11
1.852
 20
2.996
 21
2.548
  0
LINE
  8
0
 10
1.852
 11
2.548
 20
2.548
 21
1.852
  0
LINE
  8
0
 10
2.548
 11
2.996
 20
1.852
 21
0.973
  0
LINE
  8
0
 10
2.996
 11
3.15
 20
0.973
 21
0
  0
LINE
  8
0
 10
3.15
 11
2.996
 20
0
 21
-0.973
  0
LINE
  8
0
 10
2.996
 11
2.548
 20
-0.973
 21
-1.852
  0
LINE
  8
0
 10
2.548
 11
1.852
 20
-1.852
 21
-2.548
  0
LINE
  8
0
 10
1.852
 11
0.973
 20
-2.548
 21
-2.996
  0
LINE
  8
0
 10
0.973
 11
0
 20
-2.996
 21
-3.15
  0
LINE
  8
0
 10
0
 11
-0.973
 20
-3.15
 21
-2.996
  0
LINE
  8
0
 10
-0.973
 11
-1.852
 20
-2.996
 21
-2.548
  0
LINE
  8
0
 10
-1.852
 11
-2.548
 20
-2.548
 21
-1.852
  0
LINE
  8
0
 10
-2.548
 11
-2.996
 20
-1.852
 21
-0.973
  0
LINE
  8
0
 10
-2.996
 11
-3.15
 20
-0.973
 21
0
  0
LINE
  8
0
 10
10
 11
10
 20
-82.133
 21
-20.766
  0
LINE
  8
0
 10
10
 11
10.335
 20
-20.766
 21
-20.603
  0
LINE
  8
0
 10
10.335
 11
10.85
 20
-20.603
 21
-20.337
  0
LINE
  8
0
 10
10.85
 11
11.357
 20
-20.337
 21
-20.058
  0
LINE
  8
0
 10
11.357
 11
11.858
 20
-20.058
 21
-19.766
  0
LINE
  8
0
 10
11.858
 11
12.351
 20
-19.766
 21
-19.462
  0
LINE
  8
0
 10
12.351
 11
12.836
 20
-19.462
 21
-19.145
  0
LINE
  8
0
 10
12.836
 11
13.313
 20
-19.145
 21
-18.817
  0
LINE
  8
0
 10
13.313
 11
13.782
 20
-18.817
 21
-18.476
  0
LINE
  8
0
 10
13.782
 11
14.242
 20
-18.476
 21
-18.124
  0
LINE
  8
0
 10
14.242
 11
14.693
 20
-18.124
 21
-17.76
  0
LINE
  8
0
 10
14.693
 11
15.134
 20
-17.76
 21
-17.385
  0
LINE
  8
0
 10
15.134
 11
15.566
 20
-17.385
 21
-17
  0
LINE
  8
0
 10
15.566
 11
15.989
 20
-17
 21
-16.603
  0
LINE
  8
0
 10
15.989
 11
16.401
 20
-16.603
 21
-16.196
  0
LINE
  8
0
 10
16.401
 11
16.803
 20
-16.196
 21
-15.779
  0
LINE
  8
0
 10
16.803
 11
17.194
 20
-15.779
 21
-15.352
  0
LINE
  8
0
 10
17.194
 11
17.574
 20
-15.352
 21
-14.915
  0
LINE
  8
0
 10
17.574
 11
17.944
 20
-14.915
 21
-14.468
  0
LINE
  8
0
 10
17.944
 11
18.301
 20
-14.468
 21
-14.013
  0
LINE
  8
0
 10
18.301
 11
18.648
 20
-14.013
 21
-13.548
  0
LINE
  8
0
 10
18.648
 11
18.982
 20
-13.548
 21
-13.076
  0
LINE
  8
0
 10
18.982
 11
19.305
 20
-13.076
 21
-12.594
  0
LINE
  8
0
 10
19.305
 11
19.615
 20
-12.594
 21
-12.105
  0
LINE
  8
0
 10
19.615
 11
19.913
 20
-12.105
 21
-11.609
  0
LINE
  8
0
 10
19.913
 11
20.199
 20
-11.609
 21
-11.104
  0
LINE
  8
0
 10
20.199
 11
20.472
 20
-11.104
 21
-10.593
  0
LINE
  8
0
 10
20.472
 11
20.731
 20
-10.593
 21
-10.076
  0
LINE
  8
0
 10
20.731
 11
20.767
 20
-10.076
 21
-10
  0
LINE
  8
0
 10
20.767
 11
82.133
 20
-10
 21
-10
  0
LINE
  8
0
 10
82.133
 11
81.556
 20
-10
 21
-14.381
  0
LINE
  8
0
 10
81.556
 11
79.992
 20
-14.381
 21
-21.434
  0
LINE
  8
0
 10
79.992
 11
77.82
 20
-21.434
 21
-28.324
  0
LINE
  8
0
 10
77.82
 11
75.055
 20
-28.324
 21
-34.999
  0
LINE
  8
0
 10
75.055
 11
71.719
 20
-34.999
 21
-41.407
  0
LINE
  8
0
 10
71.719
 11
67.837
 20
-41.407
 21
-47.5
  0
LINE
  8
0
 10
67.837
 11
63.439
 20
-47.5
 21
-53.232
  0
LINE
  8
0
 10
63.439
 11
58.558
 20
-53.232
 21
-58.558
  0
LINE
  8
0
 10
58.558
 11
53.232
 20
-58.558
 21
-63.439
  0
LINE
  8
0
 10
53.232
 11
47.5
 20
-63.439
 21
-67.837
  0
LINE
  8
0
 10
47.5
 11
41.407
 20
-67.837
 21
-71.719
  0
LINE
  8
0
 10
41.407
 11
34.999
 20
-71.719
 21
-75.055
  0
LINE
  8
0
 10
34.999
 11
28.324
 20
-75.055
 21
-77.82
  0
LINE
  8
0
 10
28.324
 11
21.434
 20
-77.82
 21
-79.992
  0
LINE
  8
0
 10
21.434
 11
14.381
 20
-79.992
 21
-81.556
  0
LINE
  8
0
 10
14.381
 11
10
 20
-81.556
 21
-82.133
  0
LINE
  8
0
 10
10
 11
10
 20
20.766
 21
82.133
  0
LINE
  8
0
 10
10
 11
14.381
 20
82.133
 21
81.556
  0
LINE
  8
0
 10
14.381
 11
21.434
 20
81.556
 21
79.992
  0
LINE
  8
0
 10
21.434
 11
28.324
 20
79.992
 21
77.82
  0
LINE
  8
0
 10
28.324
 11
34.999
 20
77.82
 21
75.055
  0
LINE
  8
0
 10
34.999
 11
41.407
 20
75.055
 21
71.719
  0
LINE
  8
0
 10
41.407
 11
47.5
 20
71.719
 21
67.837
  0
LINE
  8
0
 10
47.5
 11
53.232
 20
67.837
 21
63.439
  0
LINE
  8
0
 10
53.232
 11
58.558
 20
63.439
 21
58.558
  0
LINE
  8
0
 10
58.558
 11
63.439
 20
58.558
 21
53.232
  0
LINE
  8
0
 10
63.439
 11
67.837
 20
53.232
 21
47.5
  0
LINE
  8
0
 10
67.837
 11
71.719
 20
47.5
 21
41.407
  0
LINE
  8
0
 10
71.719
 11
75.055
 20
41.407
 21
34.999
  0
LINE
  8
0
 10
75.055
 11
77.82
 20
34.999
 21
28.324
  0
LINE
  8
0
 10
77.82
 11
79.992
 20
28.324
 21
21.434
  0
LINE
  8
0
 10
79.992
 11
81.556
 20
21.434
 21
14.381
  0
LINE
  8
0
 10
81.556
 11
82.133
 20
14.381
 21
10
  0
LINE
  8
0
 10
82.133
 11
20.767
 20
10
 21
10
  0
LINE
  8
0
 10
20.767
 11
20.731
 20
10
 21
10.076
  0
LINE
  8
0
 10
20.731
 11
20.472
 20
10.076
 21
10.593
  0
LINE
  8
0
 10
20.472
 11
20.199
 20
10.593
 21
11.104
  0
LINE
  8
0
 10
20.199
 11
19.913
 20
11.104
 21
11.609
  0
LINE
  8
0
 10
19.913
 11
19.615
 20
11.609
 21
12.105
  0
LINE
  8
0
 10
19.615
 11
19.305
 20
12.105
 21
12.594
  0
LINE
  8
0
 10
19.305
 11
18.982
 20
12.594
 21
13.076
  0
LINE
  8
0
 10
18.982
 11
18.648
 20
13.076
 21
13.548
  0
LINE
  8
0
 10
18.648
 11
18.301
 20
13.548
 21
14.013
  0
LINE
  8
0
 10
18.301
 11
17.944
 20
14.013
 21
14.468
  0
LINE
  8
0
 10
17.944
 11
17.574
 20
14.468
 21
14.915
  0
LINE
  8
0
 10
17.574
 11
17.194
 20
14.915
 21
15.352
  0
LINE
  8
0
 10
17.194
 11
16.803
 20
15.352
 21
15.779
  0
LINE
  8
0
 10
16.803
 11
16.401
 20
15.779
 21
16.196
  0
LINE
  8
0
 10
16.401
 11
15.989
 20
16.196
 21
16.603
  0
LINE
  8
0
 10
15.989
 11
15.566
 20
16.603
 21
17
  0
LINE
  8
0
 10
15.566
 11
15.134
 20
17
 21
17.385
  0
LINE
  8
0
 10
15.134
 11
14.693
 20
17.385
 21
17.76
  0
LINE
  8
0
 10
14.693
 11
14.242
 20
17.76
 21
18.124
  0
LINE
  8
0
 10
14.242
 11
13.782
 20
18.124
 21
18.476
  0
LINE
  8
0
 10
13.782
 11
13.313
 20
18.476
 21
18.817
  0
LINE
  8
0
 10
13.313
 11
12.836
 20
18.817
 21
19.145
  0
LINE
  8
0
 10
12.836
 11
12.351
 20
19.145
 21
19.462
  0
LINE
  8
0
 10
12.351
 11
11.858
 20
19.462
 21
19.766
  0
LINE
  8
0
 10
11.858
 11
11.357
 20
19.766
 21
20.058
  0
LINE
  8
0
 10
11.357
 11
10.85
 20
20.058
 21
20.337
  0
LINE
  8
0
 10
10.85
 11
10.335
 20
20.337
 21
20.603
  0
LINE
  8
0
 10
10.335
 11
10
 20
20.603
 21
20.766
  0
LINE
  8
0
 10
50.018
 11
58.005
 20
-77.242
 21
-71.439
  0
LINE
  8
0
 10
58.005
 11
60.65
 20
-71.439
 21
-75.08
  0
LINE
  8
0
 10
60.65
 11
52.663
 20
-75.08
 21
-80.883
  0
LINE
  8
0
 10
52.663
 11
50.018
 20
-80.883
 21
-77.242
  0
LINE
  8
0
 10
50.018
 11
52.663
 20
77.242
 21
80.883
  0
LINE
  8
0
 10
52.663
 11
60.65
 20
80.883
 21
75.08
  0
LINE
  8
0
 10
60.65
 11
58.005
 20
75.08
 21
71.439
  0
LINE
  8
0
 10
58.005
 11
50.018
 20
71.439
 21
77.242
  0
LINE
  8
0
 10
85.867
 11
88.918
 20
-33.091
 21
-23.701
  0
LINE
  8
0
 10
88.918
 11
93.198
 20
-23.701
 21
-25.091
  0
LINE
  8
0
 10
93.198
 11
90.147
 20
-25.091
 21
-34.481
  0
LINE
  8
0
 10
90.147
 11
85.867
 20
-34.481
 21
-33.091
  0
LINE
  8
0
 10
85.867
 11
90.147
 20
33.091
 21
34.481
  0
LINE
  8
0
 10
90.147
 11
93.198
 20
34.481
 21
25.091
  0
LINE
  8
0
 10
93.198
 11
88.918
 20
25.091
 21
23.701
  0
LINE
  8
0
 10
88.918
 11
85.867
 20
23.701
 21
33.091
  0
ENDSEC
  0
SECTION
  2
OBJECTS
  0
DICTIONARY
  0
ENDSEC
  0
EOF
