  0
SECTION
  2
BLOCKS
  0
ENDSEC
  0
SECTION
  2
ENTITIES
  0
LINE
  8
0
 10
-265.525
 11
-265.525
 20
-47.012
 21
-37.012
  0
LINE
  8
0
 10
-265.525
 11
-261.025
 20
-37.012
 21
-37.012
  0
LINE
  8
0
 10
-261.025
 11
-261.025
 20
-37.012
 21
-47.012
  0
LINE
  8
0
 10
-261.025
 11
-265.525
 20
-47.012
 21
-47.012
  0
LINE
  8
0
 10
-265.525
 11
-265.525
 20
37.012
 21
47.012
  0
LINE
  8
0
 10
-265.525
 11
-261.025
 20
47.012
 21
47.012
  0
LINE
  8
0
 10
-261.025
 11
-261.025
 20
47.012
 21
37.012
  0
LINE
  8
0
 10
-261.025
 11
-265.525
 20
37.012
 21
37.012
  0
LINE
  8
0
 10
-270.025
 11
-270.025
 20
-131.537
 21
131.537
  0
LINE
  8
0
 10
-270.025
 11
-261.025
 20
131.537
 21
131.537
  0
LINE
  8
0
 10
-261.025
 11
-260.873
 20
131.537
 21
133.273
  0
LINE
  8
0
 10
-260.873
 11
-260.422
 20
133.273
 21
134.957
  0
LINE
  8
0
 10
-260.422
 11
-259.685
 20
134.957
 21
136.537
  0
LINE
  8
0
 10
-259.685
 11
-258.685
 20
136.537
 21
137.965
  0
LINE
  8
0
 10
-258.685
 11
-257.453
 20
137.965
 21
139.197
  0
LINE
  8
0
 10
-257.453
 11
-256.025
 20
139.197
 21
140.197
  0
LINE
  8
0
 10
-256.025
 11
-254.445
 20
140.197
 21
140.934
  0
LINE
  8
0
 10
-254.445
 11
-252.761
 20
140.934
 21
141.385
  0
LINE
  8
0
 10
-252.761
 11
-251.025
 20
141.385
 21
141.537
  0
LINE
  8
0
 10
-251.025
 11
-249.289
 20
141.537
 21
141.385
  0
LINE
  8
0
 10
-249.289
 11
-247.605
 20
141.385
 21
140.934
  0
LINE
  8
0
 10
-247.605
 11
-246.025
 20
140.934
 21
140.197
  0
LINE
  8
0
 10
-246.025
 11
-244.597
 20
140.197
 21
139.197
  0
LINE
  8
0
 10
-244.597
 11
-243.365
 20
139.197
 21
137.965
  0
LINE
  8
0
 10
-243.365
 11
-242.365
 20
137.965
 21
136.537
  0
LINE
  8
0
 10
-242.365
 11
-241.628
 20
136.537
 21
134.957
  0
LINE
  8
0
 10
-241.628
 11
-241.177
 20
134.957
 21
133.273
  0
LINE
  8
0
 10
-241.177
 11
-241.025
 20
133.273
 21
131.537
  0
LINE
  8
0
 10
-241.025
 11
-10
 20
131.537
 21
131.537
  0
LINE
  8
0
 10
-10
 11
-9.848
 20
131.537
 21
133.273
  0
LINE
  8
0
 10
-9.848
 11
-9.397
 20
133.273
 21
134.957
  0
LINE
  8
0
 10
-9.397
 11
-8.66
 20
134.957
 21
136.537
  0
LINE
  8
0
 10
-8.66
 11
-7.66
 20
136.537
 21
137.965
  0
LINE
  8
0
 10
-7.66
 11
-6.428
 20
137.965
 21
139.197
  0
LINE
  8
0
 10
-6.428
 11
-5
 20
139.197
 21
140.197
  0
LINE
  8
0
 10
-5
 11
-3.42
 20
140.197
 21
140.934
  0
LINE
  8
0
 10
-3.42
 11
-1.736
 20
140.934
 21
141.385
  0
LINE
  8
0
 10
-1.736
 11
0
 20
141.385
 21
141.537
  0
LINE
  8
0
 10
0
 11
1.736
 20
141.537
 21
141.385
  0
LINE
  8
0
 10
1.736
 11
3.42
 20
141.385
 21
140.934
  0
LINE
  8
0
 10
3.42
 11
5
 20
140.934
 21
140.197
  0
LINE
  8
0
 10
5
 11
6.428
 20
140.197
 21
139.197
  0
LINE
  8
0
 10
6.428
 11
7.66
 20
139.197
 21
137.965
  0
LINE
  8
0
 10
7.66
 11
8.66
 20
137.965
 21
136.537
  0
LINE
  8
0
 10
8.66
 11
9.397
 20
136.537
 21
134.957
  0
LINE
  8
0
 10
9.397
 11
9.848
 20
134.957
 21
133.273
  0
LINE
  8
0
 10
9.848
 11
10
 20
133.273
 21
131.537
  0
LINE
  8
0
 10
10
 11
241.025
 20
131.537
 21
131.537
  0
LINE
  8
0
 10
241.025
 11
241.177
 20
131.537
 21
133.273
  0
LINE
  8
0
 10
241.177
 11
241.628
 20
133.273
 21
134.957
  0
LINE
  8
0
 10
241.628
 11
242.365
 20
134.957
 21
136.537
  0
LINE
  8
0
 10
242.365
 11
243.365
 20
136.537
 21
137.965
  0
LINE
  8
0
 10
243.365
 11
244.597
 20
137.965
 21
139.197
  0
LINE
  8
0
 10
244.597
 11
246.025
 20
139.197
 21
140.197
  0
LINE
  8
0
 10
246.025
 11
247.605
 20
140.197
 21
140.934
  0
LINE
  8
0
 10
247.605
 11
249.289
 20
140.934
 21
141.385
  0
LINE
  8
0
 10
249.289
 11
251.025
 20
141.385
 21
141.537
  0
LINE
  8
0
 10
251.025
 11
252.761
 20
141.537
 21
141.385
  0
LINE
  8
0
 10
252.761
 11
254.445
 20
141.385
 21
140.934
  0
LINE
  8
0
 10
254.445
 11
256.025
 20
140.934
 21
140.197
  0
LINE
  8
0
 10
256.025
 11
257.453
 20
140.197
 21
139.197
  0
LINE
  8
0
 10
257.453
 11
258.685
 20
139.197
 21
137.965
  0
LINE
  8
0
 10
258.685
 11
259.685
 20
137.965
 21
136.537
  0
LINE
  8
0
 10
259.685
 11
260.422
 20
136.537
 21
134.957
  0
LINE
  8
0
 10
260.422
 11
260.873
 20
134.957
 21
133.273
  0
LINE
  8
0
 10
260.873
 11
261.025
 20
133.273
 21
131.537
  0
LINE
  8
0
 10
261.025
 11
270.025
 20
131.537
 21
131.537
  0
LINE
  8
0
 10
270.025
 11
270.025
 20
131.537
 21
-131.537
  0
LINE
  8
0
 10
270.025
 11
261.025
 20
-131.537
 21
-131.537
  0
LINE
  8
0
 10
261.025
 11
260.873
 20
-131.537
 21
-133.273
  0
LINE
  8
0
 10
260.873
 11
260.422
 20
-133.273
 21
-134.957
  0
LINE
  8
0
 10
260.422
 11
259.685
 20
-134.957
 21
-136.537
  0
LINE
  8
0
 10
259.685
 11
258.685
 20
-136.537
 21
-137.965
  0
LINE
  8
0
 10
258.685
 11
257.453
 20
-137.965
 21
-139.197
  0
LINE
  8
0
 10
257.453
 11
256.025
 20
-139.197
 21
-140.197
  0
LINE
  8
0
 10
256.025
 11
254.445
 20
-140.197
 21
-140.934
  0
LINE
  8
0
 10
254.445
 11
252.761
 20
-140.934
 21
-141.385
  0
LINE
  8
0
 10
252.761
 11
251.025
 20
-141.385
 21
-141.537
  0
LINE
  8
0
 10
251.025
 11
249.289
 20
-141.537
 21
-141.385
  0
LINE
  8
0
 10
249.289
 11
247.605
 20
-141.385
 21
-140.934
  0
LINE
  8
0
 10
247.605
 11
246.025
 20
-140.934
 21
-140.197
  0
LINE
  8
0
 10
246.025
 11
244.597
 20
-140.197
 21
-139.197
  0
LINE
  8
0
 10
244.597
 11
243.365
 20
-139.197
 21
-137.965
  0
LINE
  8
0
 10
243.365
 11
242.365
 20
-137.965
 21
-136.537
  0
LINE
  8
0
 10
242.365
 11
241.628
 20
-136.537
 21
-134.957
  0
LINE
  8
0
 10
241.628
 11
241.177
 20
-134.957
 21
-133.273
  0
LINE
  8
0
 10
241.177
 11
241.025
 20
-133.273
 21
-131.537
  0
LINE
  8
0
 10
241.025
 11
10
 20
-131.537
 21
-131.537
  0
LINE
  8
0
 10
10
 11
9.848
 20
-131.537
 21
-133.273
  0
LINE
  8
0
 10
9.848
 11
9.397
 20
-133.273
 21
-134.957
  0
LINE
  8
0
 10
9.397
 11
8.66
 20
-134.957
 21
-136.537
  0
LINE
  8
0
 10
8.66
 11
7.66
 20
-136.537
 21
-137.965
  0
LINE
  8
0
 10
7.66
 11
6.428
 20
-137.965
 21
-139.197
  0
LINE
  8
0
 10
6.428
 11
5
 20
-139.197
 21
-140.197
  0
LINE
  8
0
 10
5
 11
3.42
 20
-140.197
 21
-140.934
  0
LINE
  8
0
 10
3.42
 11
1.736
 20
-140.934
 21
-141.385
  0
LINE
  8
0
 10
1.736
 11
0
 20
-141.385
 21
-141.537
  0
LINE
  8
0
 10
0
 11
-1.736
 20
-141.537
 21
-141.385
  0
LINE
  8
0
 10
-1.736
 11
-3.42
 20
-141.385
 21
-140.934
  0
LINE
  8
0
 10
-3.42
 11
-5
 20
-140.934
 21
-140.197
  0
LINE
  8
0
 10
-5
 11
-6.428
 20
-140.197
 21
-139.197
  0
LINE
  8
0
 10
-6.428
 11
-7.66
 20
-139.197
 21
-137.965
  0
LINE
  8
0
 10
-7.66
 11
-8.66
 20
-137.965
 21
-136.537
  0
LINE
  8
0
 10
-8.66
 11
-9.397
 20
-136.537
 21
-134.957
  0
LINE
  8
0
 10
-9.397
 11
-9.848
 20
-134.957
 21
-133.273
  0
LINE
  8
0
 10
-9.848
 11
-10
 20
-133.273
 21
-131.537
  0
LINE
  8
0
 10
-10
 11
-241.025
 20
-131.537
 21
-131.537
  0
LINE
  8
0
 10
-241.025
 11
-241.177
 20
-131.537
 21
-133.273
  0
LINE
  8
0
 10
-241.177
 11
-241.628
 20
-133.273
 21
-134.957
  0
LINE
  8
0
 10
-241.628
 11
-242.365
 20
-134.957
 21
-136.537
  0
LINE
  8
0
 10
-242.365
 11
-243.365
 20
-136.537
 21
-137.965
  0
LINE
  8
0
 10
-243.365
 11
-244.597
 20
-137.965
 21
-139.197
  0
LINE
  8
0
 10
-244.597
 11
-246.025
 20
-139.197
 21
-140.197
  0
LINE
  8
0
 10
-246.025
 11
-247.605
 20
-140.197
 21
-140.934
  0
LINE
  8
0
 10
-247.605
 11
-249.289
 20
-140.934
 21
-141.385
  0
LINE
  8
0
 10
-249.289
 11
-251.025
 20
-141.385
 21
-141.537
  0
LINE
  8
0
 10
-251.025
 11
-252.761
 20
-141.537
 21
-141.385
  0
LINE
  8
0
 10
-252.761
 11
-254.445
 20
-141.385
 21
-140.934
  0
LINE
  8
0
 10
-254.445
 11
-256.025
 20
-140.934
 21
-140.197
  0
LINE
  8
0
 10
-256.025
 11
-257.453
 20
-140.197
 21
-139.197
  0
LINE
  8
0
 10
-257.453
 11
-258.685
 20
-139.197
 21
-137.965
  0
LINE
  8
0
 10
-258.685
 11
-259.685
 20
-137.965
 21
-136.537
  0
LINE
  8
0
 10
-259.685
 11
-260.422
 20
-136.537
 21
-134.957
  0
LINE
  8
0
 10
-260.422
 11
-260.873
 20
-134.957
 21
-133.273
  0
LINE
  8
0
 10
-260.873
 11
-261.025
 20
-133.273
 21
-131.537
  0
LINE
  8
0
 10
-261.025
 11
-270.025
 20
-131.537
 21
-131.537
  0
LINE
  8
0
 10
-254.175
 11
-254.127
 20
-131.537
 21
-130.99
  0
LINE
  8
0
 10
-254.127
 11
-253.985
 20
-130.99
 21
-130.459
  0
LINE
  8
0
 10
-253.985
 11
-253.753
 20
-130.459
 21
-129.962
  0
LINE
  8
0
 10
-253.753
 11
-253.438
 20
-129.962
 21
-129.512
  0
LINE
  8
0
 10
-253.438
 11
-253.05
 20
-129.512
 21
-129.124
  0
LINE
  8
0
 10
-253.05
 11
-252.6
 20
-129.124
 21
-128.809
  0
LINE
  8
0
 10
-252.6
 11
-252.102
 20
-128.809
 21
-128.577
  0
LINE
  8
0
 10
-252.102
 11
-251.572
 20
-128.577
 21
-128.434
  0
LINE
  8
0
 10
-251.572
 11
-251.025
 20
-128.434
 21
-128.387
  0
LINE
  8
0
 10
-251.025
 11
-250.478
 20
-128.387
 21
-128.434
  0
LINE
  8
0
 10
-250.478
 11
-249.948
 20
-128.434
 21
-128.577
  0
LINE
  8
0
 10
-249.948
 11
-249.45
 20
-128.577
 21
-128.809
  0
LINE
  8
0
 10
-249.45
 11
-249
 20
-128.809
 21
-129.124
  0
LINE
  8
0
 10
-249
 11
-248.612
 20
-129.124
 21
-129.512
  0
LINE
  8
0
 10
-248.612
 11
-248.297
 20
-129.512
 21
-129.962
  0
LINE
  8
0
 10
-248.297
 11
-248.065
 20
-129.962
 21
-130.459
  0
LINE
  8
0
 10
-248.065
 11
-247.923
 20
-130.459
 21
-130.99
  0
LINE
  8
0
 10
-247.923
 11
-247.875
 20
-130.99
 21
-131.537
  0
LINE
  8
0
 10
-247.875
 11
-247.923
 20
-131.537
 21
-132.084
  0
LINE
  8
0
 10
-247.923
 11
-248.065
 20
-132.084
 21
-132.614
  0
LINE
  8
0
 10
-248.065
 11
-248.297
 20
-132.614
 21
-133.112
  0
LINE
  8
0
 10
-248.297
 11
-248.612
 20
-133.112
 21
-133.561
  0
LINE
  8
0
 10
-248.612
 11
-249
 20
-133.561
 21
-133.95
  0
LINE
  8
0
 10
-249
 11
-249.45
 20
-133.95
 21
-134.265
  0
LINE
  8
0
 10
-249.45
 11
-249.948
 20
-134.265
 21
-134.497
  0
LINE
  8
0
 10
-249.948
 11
-250.478
 20
-134.497
 21
-134.639
  0
LINE
  8
0
 10
-250.478
 11
-251.025
 20
-134.639
 21
-134.687
  0
LINE
  8
0
 10
-251.025
 11
-251.572
 20
-134.687
 21
-134.639
  0
LINE
  8
0
 10
-251.572
 11
-252.102
 20
-134.639
 21
-134.497
  0
LINE
  8
0
 10
-252.102
 11
-252.6
 20
-134.497
 21
-134.265
  0
LINE
  8
0
 10
-252.6
 11
-253.05
 20
-134.265
 21
-133.95
  0
LINE
  8
0
 10
-253.05
 11
-253.438
 20
-133.95
 21
-133.561
  0
LINE
  8
0
 10
-253.438
 11
-253.753
 20
-133.561
 21
-133.112
  0
LINE
  8
0
 10
-253.753
 11
-253.985
 20
-133.112
 21
-132.614
  0
LINE
  8
0
 10
-253.985
 11
-254.127
 20
-132.614
 21
-132.084
  0
LINE
  8
0
 10
-254.127
 11
-254.175
 20
-132.084
 21
-131.537
  0
LINE
  8
0
 10
-254.175
 11
-254.127
 20
131.537
 21
132.084
  0
LINE
  8
0
 10
-254.127
 11
-253.985
 20
132.084
 21
132.614
  0
LINE
  8
0
 10
-253.985
 11
-253.753
 20
132.614
 21
133.112
  0
LINE
  8
0
 10
-253.753
 11
-253.438
 20
133.112
 21
133.561
  0
LINE
  8
0
 10
-253.438
 11
-253.05
 20
133.561
 21
133.95
  0
LINE
  8
0
 10
-253.05
 11
-252.6
 20
133.95
 21
134.265
  0
LINE
  8
0
 10
-252.6
 11
-252.102
 20
134.265
 21
134.497
  0
LINE
  8
0
 10
-252.102
 11
-251.572
 20
134.497
 21
134.639
  0
LINE
  8
0
 10
-251.572
 11
-251.025
 20
134.639
 21
134.687
  0
LINE
  8
0
 10
-251.025
 11
-250.478
 20
134.687
 21
134.639
  0
LINE
  8
0
 10
-250.478
 11
-249.948
 20
134.639
 21
134.497
  0
LINE
  8
0
 10
-249.948
 11
-249.45
 20
134.497
 21
134.265
  0
LINE
  8
0
 10
-249.45
 11
-249
 20
134.265
 21
133.95
  0
LINE
  8
0
 10
-249
 11
-248.612
 20
133.95
 21
133.561
  0
LINE
  8
0
 10
-248.612
 11
-248.297
 20
133.561
 21
133.112
  0
LINE
  8
0
 10
-248.297
 11
-248.065
 20
133.112
 21
132.614
  0
LINE
  8
0
 10
-248.065
 11
-247.923
 20
132.614
 21
132.084
  0
LINE
  8
0
 10
-247.923
 11
-247.875
 20
132.084
 21
131.537
  0
LINE
  8
0
 10
-247.875
 11
-247.923
 20
131.537
 21
130.99
  0
LINE
  8
0
 10
-247.923
 11
-248.065
 20
130.99
 21
130.459
  0
LINE
  8
0
 10
-248.065
 11
-248.297
 20
130.459
 21
129.962
  0
LINE
  8
0
 10
-248.297
 11
-248.612
 20
129.962
 21
129.512
  0
LINE
  8
0
 10
-248.612
 11
-249
 20
129.512
 21
129.124
  0
LINE
  8
0
 10
-249
 11
-249.45
 20
129.124
 21
128.809
  0
LINE
  8
0
 10
-249.45
 11
-249.948
 20
128.809
 21
128.577
  0
LINE
  8
0
 10
-249.948
 11
-250.478
 20
128.577
 21
128.434
  0
LINE
  8
0
 10
-250.478
 11
-251.025
 20
128.434
 21
128.387
  0
LINE
  8
0
 10
-251.025
 11
-251.572
 20
128.387
 21
128.434
  0
LINE
  8
0
 10
-251.572
 11
-252.102
 20
128.434
 21
128.577
  0
LINE
  8
0
 10
-252.102
 11
-252.6
 20
128.577
 21
128.809
  0
LINE
  8
0
 10
-252.6
 11
-253.05
 20
128.809
 21
129.124
  0
LINE
  8
0
 10
-253.05
 11
-253.438
 20
129.124
 21
129.512
  0
LINE
  8
0
 10
-253.438
 11
-253.753
 20
129.512
 21
129.962
  0
LINE
  8
0
 10
-253.753
 11
-253.985
 20
129.962
 21
130.459
  0
LINE
  8
0
 10
-253.985
 11
-254.127
 20
130.459
 21
130.99
  0
LINE
  8
0
 10
-254.127
 11
-254.175
 20
130.99
 21
131.537
  0
LINE
  8
0
 10
-93.508
 11
-93.508
 20
-126.037
 21
-121.537
  0
LINE
  8
0
 10
-93.508
 11
-83.508
 20
-121.537
 21
-121.537
  0
LINE
  8
0
 10
-83.508
 11
-83.508
 20
-121.537
 21
-126.037
  0
LINE
  8
0
 10
-83.508
 11
-93.508
 20
-126.037
 21
-126.037
  0
LINE
  8
0
 10
-93.508
 11
-93.508
 20
121.537
 21
126.037
  0
LINE
  8
0
 10
-93.508
 11
-83.508
 20
126.037
 21
126.037
  0
LINE
  8
0
 10
-83.508
 11
-83.508
 20
126.037
 21
121.537
  0
LINE
  8
0
 10
-83.508
 11
-93.508
 20
121.537
 21
121.537
  0
LINE
  8
0
 10
-3.15
 11
-3.102
 20
-131.537
 21
-130.99
  0
LINE
  8
0
 10
-3.102
 11
-2.96
 20
-130.99
 21
-130.459
  0
LINE
  8
0
 10
-2.96
 11
-2.728
 20
-130.459
 21
-129.962
  0
LINE
  8
0
 10
-2.728
 11
-2.413
 20
-129.962
 21
-129.512
  0
LINE
  8
0
 10
-2.413
 11
-2.025
 20
-129.512
 21
-129.124
  0
LINE
  8
0
 10
-2.025
 11
-1.575
 20
-129.124
 21
-128.809
  0
LINE
  8
0
 10
-1.575
 11
-1.077
 20
-128.809
 21
-128.577
  0
LINE
  8
0
 10
-1.077
 11
-0.547
 20
-128.577
 21
-128.434
  0
LINE
  8
0
 10
-0.547
 11
0
 20
-128.434
 21
-128.387
  0
LINE
  8
0
 10
0
 11
0.547
 20
-128.387
 21
-128.434
  0
LINE
  8
0
 10
0.547
 11
1.077
 20
-128.434
 21
-128.577
  0
LINE
  8
0
 10
1.077
 11
1.575
 20
-128.577
 21
-128.809
  0
LINE
  8
0
 10
1.575
 11
2.025
 20
-128.809
 21
-129.124
  0
LINE
  8
0
 10
2.025
 11
2.413
 20
-129.124
 21
-129.512
  0
LINE
  8
0
 10
2.413
 11
2.728
 20
-129.512
 21
-129.962
  0
LINE
  8
0
 10
2.728
 11
2.96
 20
-129.962
 21
-130.459
  0
LINE
  8
0
 10
2.96
 11
3.102
 20
-130.459
 21
-130.99
  0
LINE
  8
0
 10
3.102
 11
3.15
 20
-130.99
 21
-131.537
  0
LINE
  8
0
 10
3.15
 11
3.102
 20
-131.537
 21
-132.084
  0
LINE
  8
0
 10
3.102
 11
2.96
 20
-132.084
 21
-132.614
  0
LINE
  8
0
 10
2.96
 11
2.728
 20
-132.614
 21
-133.112
  0
LINE
  8
0
 10
2.728
 11
2.413
 20
-133.112
 21
-133.561
  0
LINE
  8
0
 10
2.413
 11
2.025
 20
-133.561
 21
-133.95
  0
LINE
  8
0
 10
2.025
 11
1.575
 20
-133.95
 21
-134.265
  0
LINE
  8
0
 10
1.575
 11
1.077
 20
-134.265
 21
-134.497
  0
LINE
  8
0
 10
1.077
 11
0.547
 20
-134.497
 21
-134.639
  0
LINE
  8
0
 10
0.547
 11
0
 20
-134.639
 21
-134.687
  0
LINE
  8
0
 10
0
 11
-0.547
 20
-134.687
 21
-134.639
  0
LINE
  8
0
 10
-0.547
 11
-1.077
 20
-134.639
 21
-134.497
  0
LINE
  8
0
 10
-1.077
 11
-1.575
 20
-134.497
 21
-134.265
  0
LINE
  8
0
 10
-1.575
 11
-2.025
 20
-134.265
 21
-133.95
  0
LINE
  8
0
 10
-2.025
 11
-2.413
 20
-133.95
 21
-133.561
  0
LINE
  8
0
 10
-2.413
 11
-2.728
 20
-133.561
 21
-133.112
  0
LINE
  8
0
 10
-2.728
 11
-2.96
 20
-133.112
 21
-132.614
  0
LINE
  8
0
 10
-2.96
 11
-3.102
 20
-132.614
 21
-132.084
  0
LINE
  8
0
 10
-3.102
 11
-3.15
 20
-132.084
 21
-131.537
  0
LINE
  8
0
 10
-3.15
 11
-3.102
 20
131.537
 21
132.084
  0
LINE
  8
0
 10
-3.102
 11
-2.96
 20
132.084
 21
132.614
  0
LINE
  8
0
 10
-2.96
 11
-2.728
 20
132.614
 21
133.112
  0
LINE
  8
0
 10
-2.728
 11
-2.413
 20
133.112
 21
133.561
  0
LINE
  8
0
 10
-2.413
 11
-2.025
 20
133.561
 21
133.95
  0
LINE
  8
0
 10
-2.025
 11
-1.575
 20
133.95
 21
134.265
  0
LINE
  8
0
 10
-1.575
 11
-1.077
 20
134.265
 21
134.497
  0
LINE
  8
0
 10
-1.077
 11
-0.547
 20
134.497
 21
134.639
  0
LINE
  8
0
 10
-0.547
 11
0
 20
134.639
 21
134.687
  0
LINE
  8
0
 10
0
 11
0.547
 20
134.687
 21
134.639
  0
LINE
  8
0
 10
0.547
 11
1.077
 20
134.639
 21
134.497
  0
LINE
  8
0
 10
1.077
 11
1.575
 20
134.497
 21
134.265
  0
LINE
  8
0
 10
1.575
 11
2.025
 20
134.265
 21
133.95
  0
LINE
  8
0
 10
2.025
 11
2.413
 20
133.95
 21
133.561
  0
LINE
  8
0
 10
2.413
 11
2.728
 20
133.561
 21
133.112
  0
LINE
  8
0
 10
2.728
 11
2.96
 20
133.112
 21
132.614
  0
LINE
  8
0
 10
2.96
 11
3.102
 20
132.614
 21
132.084
  0
LINE
  8
0
 10
3.102
 11
3.15
 20
132.084
 21
131.537
  0
LINE
  8
0
 10
3.15
 11
3.102
 20
131.537
 21
130.99
  0
LINE
  8
0
 10
3.102
 11
2.96
 20
130.99
 21
130.459
  0
LINE
  8
0
 10
2.96
 11
2.728
 20
130.459
 21
129.962
  0
LINE
  8
0
 10
2.728
 11
2.413
 20
129.962
 21
129.512
  0
LINE
  8
0
 10
2.413
 11
2.025
 20
129.512
 21
129.124
  0
LINE
  8
0
 10
2.025
 11
1.575
 20
129.124
 21
128.809
  0
LINE
  8
0
 10
1.575
 11
1.077
 20
128.809
 21
128.577
  0
LINE
  8
0
 10
1.077
 11
0.547
 20
128.577
 21
128.434
  0
LINE
  8
0
 10
0.547
 11
0
 20
128.434
 21
128.387
  0
LINE
  8
0
 10
0
 11
-0.547
 20
128.387
 21
128.434
  0
LINE
  8
0
 10
-0.547
 11
-1.077
 20
128.434
 21
128.577
  0
LINE
  8
0
 10
-1.077
 11
-1.575
 20
128.577
 21
128.809
  0
LINE
  8
0
 10
-1.575
 11
-2.025
 20
128.809
 21
129.124
  0
LINE
  8
0
 10
-2.025
 11
-2.413
 20
129.124
 21
129.512
  0
LINE
  8
0
 10
-2.413
 11
-2.728
 20
129.512
 21
129.962
  0
LINE
  8
0
 10
-2.728
 11
-2.96
 20
129.962
 21
130.459
  0
LINE
  8
0
 10
-2.96
 11
-3.102
 20
130.459
 21
130.99
  0
LINE
  8
0
 10
-3.102
 11
-3.15
 20
130.99
 21
131.537
  0
LINE
  8
0
 10
83.508
 11
83.508
 20
-126.037
 21
-121.537
  0
LINE
  8
0
 10
83.508
 11
93.508
 20
-121.537
 21
-121.537
  0
LINE
  8
0
 10
93.508
 11
93.508
 20
-121.537
 21
-126.037
  0
LINE
  8
0
 10
93.508
 11
83.508
 20
-126.037
 21
-126.037
  0
LINE
  8
0
 10
83.508
 11
83.508
 20
121.537
 21
126.037
  0
LINE
  8
0
 10
83.508
 11
93.508
 20
126.037
 21
126.037
  0
LINE
  8
0
 10
93.508
 11
93.508
 20
126.037
 21
121.537
  0
LINE
  8
0
 10
93.508
 11
83.508
 20
121.537
 21
121.537
  0
LINE
  8
0
 10
247.875
 11
247.923
 20
-131.537
 21
-130.99
  0
LINE
  8
0
 10
247.923
 11
248.065
 20
-130.99
 21
-130.459
  0
LINE
  8
0
 10
248.065
 11
248.297
 20
-130.459
 21
-129.962
  0
LINE
  8
0
 10
248.297
 11
248.612
 20
-129.962
 21
-129.512
  0
LINE
  8
0
 10
248.612
 11
249
 20
-129.512
 21
-129.124
  0
LINE
  8
0
 10
249
 11
249.45
 20
-129.124
 21
-128.809
  0
LINE
  8
0
 10
249.45
 11
249.948
 20
-128.809
 21
-128.577
  0
LINE
  8
0
 10
249.948
 11
250.478
 20
-128.577
 21
-128.434
  0
LINE
  8
0
 10
250.478
 11
251.025
 20
-128.434
 21
-128.387
  0
LINE
  8
0
 10
251.025
 11
251.572
 20
-128.387
 21
-128.434
  0
LINE
  8
0
 10
251.572
 11
252.102
 20
-128.434
 21
-128.577
  0
LINE
  8
0
 10
252.102
 11
252.6
 20
-128.577
 21
-128.809
  0
LINE
  8
0
 10
252.6
 11
253.05
 20
-128.809
 21
-129.124
  0
LINE
  8
0
 10
253.05
 11
253.438
 20
-129.124
 21
-129.512
  0
LINE
  8
0
 10
253.438
 11
253.753
 20
-129.512
 21
-129.962
  0
LINE
  8
0
 10
253.753
 11
253.985
 20
-129.962
 21
-130.459
  0
LINE
  8
0
 10
253.985
 11
254.127
 20
-130.459
 21
-130.99
  0
LINE
  8
0
 10
254.127
 11
254.175
 20
-130.99
 21
-131.537
  0
LINE
  8
0
 10
254.175
 11
254.127
 20
-131.537
 21
-132.084
  0
LINE
  8
0
 10
254.127
 11
253.985
 20
-132.084
 21
-132.614
  0
LINE
  8
0
 10
253.985
 11
253.753
 20
-132.614
 21
-133.112
  0
LINE
  8
0
 10
253.753
 11
253.438
 20
-133.112
 21
-133.561
  0
LINE
  8
0
 10
253.438
 11
253.05
 20
-133.561
 21
-133.95
  0
LINE
  8
0
 10
253.05
 11
252.6
 20
-133.95
 21
-134.265
  0
LINE
  8
0
 10
252.6
 11
252.102
 20
-134.265
 21
-134.497
  0
LINE
  8
0
 10
252.102
 11
251.572
 20
-134.497
 21
-134.639
  0
LINE
  8
0
 10
251.572
 11
251.025
 20
-134.639
 21
-134.687
  0
LINE
  8
0
 10
251.025
 11
250.478
 20
-134.687
 21
-134.639
  0
LINE
  8
0
 10
250.478
 11
249.948
 20
-134.639
 21
-134.497
  0
LINE
  8
0
 10
249.948
 11
249.45
 20
-134.497
 21
-134.265
  0
LINE
  8
0
 10
249.45
 11
249
 20
-134.265
 21
-133.95
  0
LINE
  8
0
 10
249
 11
248.612
 20
-133.95
 21
-133.561
  0
LINE
  8
0
 10
248.612
 11
248.297
 20
-133.561
 21
-133.112
  0
LINE
  8
0
 10
248.297
 11
248.065
 20
-133.112
 21
-132.614
  0
LINE
  8
0
 10
248.065
 11
247.923
 20
-132.614
 21
-132.084
  0
LINE
  8
0
 10
247.923
 11
247.875
 20
-132.084
 21
-131.537
  0
LINE
  8
0
 10
247.875
 11
247.923
 20
131.537
 21
132.084
  0
LINE
  8
0
 10
247.923
 11
248.065
 20
132.084
 21
132.614
  0
LINE
  8
0
 10
248.065
 11
248.297
 20
132.614
 21
133.112
  0
LINE
  8
0
 10
248.297
 11
248.612
 20
133.112
 21
133.561
  0
LINE
  8
0
 10
248.612
 11
249
 20
133.561
 21
133.95
  0
LINE
  8
0
 10
249
 11
249.45
 20
133.95
 21
134.265
  0
LINE
  8
0
 10
249.45
 11
249.948
 20
134.265
 21
134.497
  0
LINE
  8
0
 10
249.948
 11
250.478
 20
134.497
 21
134.639
  0
LINE
  8
0
 10
250.478
 11
251.025
 20
134.639
 21
134.687
  0
LINE
  8
0
 10
251.025
 11
251.572
 20
134.687
 21
134.639
  0
LINE
  8
0
 10
251.572
 11
252.102
 20
134.639
 21
134.497
  0
LINE
  8
0
 10
252.102
 11
252.6
 20
134.497
 21
134.265
  0
LINE
  8
0
 10
252.6
 11
253.05
 20
134.265
 21
133.95
  0
LINE
  8
0
 10
253.05
 11
253.438
 20
133.95
 21
133.561
  0
LINE
  8
0
 10
253.438
 11
253.753
 20
133.561
 21
133.112
  0
LINE
  8
0
 10
253.753
 11
253.985
 20
133.112
 21
132.614
  0
LINE
  8
0
 10
253.985
 11
254.127
 20
132.614
 21
132.084
  0
LINE
  8
0
 10
254.127
 11
254.175
 20
132.084
 21
131.537
  0
LINE
  8
0
 10
254.175
 11
254.127
 20
131.537
 21
130.99
  0
LINE
  8
0
 10
254.127
 11
253.985
 20
130.99
 21
130.459
  0
LINE
  8
0
 10
253.985
 11
253.753
 20
130.459
 21
129.962
  0
LINE
  8
0
 10
253.753
 11
253.438
 20
129.962
 21
129.512
  0
LINE
  8
0
 10
253.438
 11
253.05
 20
129.512
 21
129.124
  0
LINE
  8
0
 10
253.05
 11
252.6
 20
129.124
 21
128.809
  0
LINE
  8
0
 10
252.6
 11
252.102
 20
128.809
 21
128.577
  0
LINE
  8
0
 10
252.102
 11
251.572
 20
128.577
 21
128.434
  0
LINE
  8
0
 10
251.572
 11
251.025
 20
128.434
 21
128.387
  0
LINE
  8
0
 10
251.025
 11
250.478
 20
128.387
 21
128.434
  0
LINE
  8
0
 10
250.478
 11
249.948
 20
128.434
 21
128.577
  0
LINE
  8
0
 10
249.948
 11
249.45
 20
128.577
 21
128.809
  0
LINE
  8
0
 10
249.45
 11
249
 20
128.809
 21
129.124
  0
LINE
  8
0
 10
249
 11
248.612
 20
129.124
 21
129.512
  0
LINE
  8
0
 10
248.612
 11
248.297
 20
129.512
 21
129.962
  0
LINE
  8
0
 10
248.297
 11
248.065
 20
129.962
 21
130.459
  0
LINE
  8
0
 10
248.065
 11
247.923
 20
130.459
 21
130.99
  0
LINE
  8
0
 10
247.923
 11
247.875
 20
130.99
 21
131.537
  0
LINE
  8
0
 10
261.025
 11
261.025
 20
-47.012
 21
-37.012
  0
LINE
  8
0
 10
261.025
 11
265.525
 20
-37.012
 21
-37.012
  0
LINE
  8
0
 10
265.525
 11
265.525
 20
-37.012
 21
-47.012
  0
LINE
  8
0
 10
265.525
 11
261.025
 20
-47.012
 21
-47.012
  0
LINE
  8
0
 10
261.025
 11
261.025
 20
37.012
 21
47.012
  0
LINE
  8
0
 10
261.025
 11
265.525
 20
47.012
 21
47.012
  0
LINE
  8
0
 10
265.525
 11
265.525
 20
47.012
 21
37.012
  0
LINE
  8
0
 10
265.525
 11
261.025
 20
37.012
 21
37.012
  0
ENDSEC
  0
SECTION
  2
OBJECTS
  0
DICTIONARY
  0
ENDSEC
  0
EOF
