  0
SECTION
  2
BLOCKS
  0
ENDSEC
  0
SECTION
  2
ENTITIES
  0
LINE
  8
0
 10
-30.33
 11
-29.774
 20
0
 21
1.892
  0
LINE
  8
0
 10
-29.774
 11
-28.284
 20
1.892
 21
3.184
  0
LINE
  8
0
 10
-28.284
 11
-26.332
 20
3.184
 21
3.464
  0
LINE
  8
0
 10
-26.332
 11
-24.538
 20
3.464
 21
2.645
  0
LINE
  8
0
 10
-24.538
 11
-23.472
 20
2.645
 21
0.986
  0
LINE
  8
0
 10
-23.472
 11
-23.472
 20
0.986
 21
-0.986
  0
LINE
  8
0
 10
-23.472
 11
-24.538
 20
-0.986
 21
-2.645
  0
LINE
  8
0
 10
-24.538
 11
-26.332
 20
-2.645
 21
-3.464
  0
LINE
  8
0
 10
-26.332
 11
-28.284
 20
-3.464
 21
-3.184
  0
LINE
  8
0
 10
-28.284
 11
-29.774
 20
-3.184
 21
-1.892
  0
LINE
  8
0
 10
-29.774
 11
-30.33
 20
-1.892
 21
0
  0
LINE
  8
0
 10
-126.037
 11
-126.037
 20
-47.012
 21
-37.012
  0
LINE
  8
0
 10
-126.037
 11
-121.537
 20
-37.012
 21
-37.012
  0
LINE
  8
0
 10
-121.537
 11
-121.537
 20
-37.012
 21
37.012
  0
LINE
  8
0
 10
-121.537
 11
-126.037
 20
37.012
 21
37.012
  0
LINE
  8
0
 10
-126.037
 11
-126.037
 20
37.012
 21
47.012
  0
LINE
  8
0
 10
-126.037
 11
-121.537
 20
47.012
 21
47.012
  0
LINE
  8
0
 10
-121.537
 11
-121.537
 20
47.012
 21
121.537
  0
LINE
  8
0
 10
-121.537
 11
-47.012
 20
121.537
 21
121.537
  0
LINE
  8
0
 10
-47.012
 11
-47.012
 20
121.537
 21
126.037
  0
LINE
  8
0
 10
-47.012
 11
-37.012
 20
126.037
 21
126.037
  0
LINE
  8
0
 10
-37.012
 11
-37.012
 20
126.037
 21
121.537
  0
LINE
  8
0
 10
-37.012
 11
37.012
 20
121.537
 21
121.537
  0
LINE
  8
0
 10
37.012
 11
37.012
 20
121.537
 21
126.037
  0
LINE
  8
0
 10
37.012
 11
47.012
 20
126.037
 21
126.037
  0
LINE
  8
0
 10
47.012
 11
47.012
 20
126.037
 21
121.537
  0
LINE
  8
0
 10
47.012
 11
121.537
 20
121.537
 21
121.537
  0
LINE
  8
0
 10
121.537
 11
121.537
 20
121.537
 21
47.012
  0
LINE
  8
0
 10
121.537
 11
126.037
 20
47.012
 21
47.012
  0
LINE
  8
0
 10
126.037
 11
126.037
 20
47.012
 21
37.012
  0
LINE
  8
0
 10
126.037
 11
121.537
 20
37.012
 21
37.012
  0
LINE
  8
0
 10
121.537
 11
121.537
 20
37.012
 21
-37.012
  0
LINE
  8
0
 10
121.537
 11
126.037
 20
-37.012
 21
-37.012
  0
LINE
  8
0
 10
126.037
 11
126.037
 20
-37.012
 21
-47.012
  0
LINE
  8
0
 10
126.037
 11
121.537
 20
-47.012
 21
-47.012
  0
LINE
  8
0
 10
121.537
 11
121.537
 20
-47.012
 21
-121.537
  0
LINE
  8
0
 10
121.537
 11
47.012
 20
-121.537
 21
-121.537
  0
LINE
  8
0
 10
47.012
 11
47.012
 20
-121.537
 21
-126.037
  0
LINE
  8
0
 10
47.012
 11
37.012
 20
-126.037
 21
-126.037
  0
LINE
  8
0
 10
37.012
 11
37.012
 20
-126.037
 21
-121.537
  0
LINE
  8
0
 10
37.012
 11
-37.012
 20
-121.537
 21
-121.537
  0
LINE
  8
0
 10
-37.012
 11
-37.012
 20
-121.537
 21
-126.037
  0
LINE
  8
0
 10
-37.012
 11
-47.012
 20
-126.037
 21
-126.037
  0
LINE
  8
0
 10
-47.012
 11
-47.012
 20
-126.037
 21
-121.537
  0
LINE
  8
0
 10
-47.012
 11
-121.537
 20
-121.537
 21
-121.537
  0
LINE
  8
0
 10
-121.537
 11
-121.537
 20
-121.537
 21
-47.012
  0
LINE
  8
0
 10
-121.537
 11
-126.037
 20
-47.012
 21
-47.012
  0
LINE
  8
0
 10
-9.042
 11
-9.042
 20
-0.983
 21
0.983
  0
LINE
  8
0
 10
-9.042
 11
-8.619
 20
0.983
 21
2.904
  0
LINE
  8
0
 10
-8.619
 11
-7.793
 20
2.904
 21
4.689
  0
LINE
  8
0
 10
-7.793
 11
-6.603
 20
4.689
 21
6.255
  0
LINE
  8
0
 10
-6.603
 11
-5.104
 20
6.255
 21
7.528
  0
LINE
  8
0
 10
-5.104
 11
-3.366
 20
7.528
 21
8.449
  0
LINE
  8
0
 10
-3.366
 11
-1.471
 20
8.449
 21
8.975
  0
LINE
  8
0
 10
-1.471
 11
0.492
 20
8.975
 21
9.082
  0
LINE
  8
0
 10
0.492
 11
2.433
 20
9.082
 21
8.763
  0
LINE
  8
0
 10
2.433
 11
4.26
 20
8.763
 21
8.036
  0
LINE
  8
0
 10
4.26
 11
5.888
 20
8.036
 21
6.932
  0
LINE
  8
0
 10
5.888
 11
7.24
 20
6.932
 21
5.504
  0
LINE
  8
0
 10
7.24
 11
8.254
 20
5.504
 21
3.819
  0
LINE
  8
0
 10
8.254
 11
8.882
 20
3.819
 21
1.955
  0
LINE
  8
0
 10
8.882
 11
9.095
 20
1.955
 21
0
  0
LINE
  8
0
 10
9.095
 11
8.882
 20
0
 21
-1.955
  0
LINE
  8
0
 10
8.882
 11
8.254
 20
-1.955
 21
-3.819
  0
LINE
  8
0
 10
8.254
 11
7.24
 20
-3.819
 21
-5.504
  0
LINE
  8
0
 10
7.24
 11
5.888
 20
-5.504
 21
-6.932
  0
LINE
  8
0
 10
5.888
 11
4.26
 20
-6.932
 21
-8.036
  0
LINE
  8
0
 10
4.26
 11
2.433
 20
-8.036
 21
-8.763
  0
LINE
  8
0
 10
2.433
 11
0.492
 20
-8.763
 21
-9.082
  0
LINE
  8
0
 10
0.492
 11
-1.471
 20
-9.082
 21
-8.975
  0
LINE
  8
0
 10
-1.471
 11
-3.366
 20
-8.975
 21
-8.449
  0
LINE
  8
0
 10
-3.366
 11
-5.104
 20
-8.449
 21
-7.528
  0
LINE
  8
0
 10
-5.104
 11
-6.603
 20
-7.528
 21
-6.255
  0
LINE
  8
0
 10
-6.603
 11
-7.793
 20
-6.255
 21
-4.689
  0
LINE
  8
0
 10
-7.793
 11
-8.619
 20
-4.689
 21
-2.904
  0
LINE
  8
0
 10
-8.619
 11
-9.042
 20
-2.904
 21
-0.983
  0
LINE
  8
0
 10
-3.464
 11
-2.645
 20
-26.332
 21
-24.538
  0
LINE
  8
0
 10
-2.645
 11
-0.986
 20
-24.538
 21
-23.472
  0
LINE
  8
0
 10
-0.986
 11
0.986
 20
-23.472
 21
-23.472
  0
LINE
  8
0
 10
0.986
 11
2.645
 20
-23.472
 21
-24.538
  0
LINE
  8
0
 10
2.645
 11
3.464
 20
-24.538
 21
-26.332
  0
LINE
  8
0
 10
3.464
 11
3.184
 20
-26.332
 21
-28.284
  0
LINE
  8
0
 10
3.184
 11
1.892
 20
-28.284
 21
-29.774
  0
LINE
  8
0
 10
1.892
 11
0
 20
-29.774
 21
-30.33
  0
LINE
  8
0
 10
0
 11
-1.892
 20
-30.33
 21
-29.774
  0
LINE
  8
0
 10
-1.892
 11
-3.184
 20
-29.774
 21
-28.284
  0
LINE
  8
0
 10
-3.184
 11
-3.464
 20
-28.284
 21
-26.332
  0
LINE
  8
0
 10
-3.464
 11
-3.184
 20
26.332
 21
28.284
  0
LINE
  8
0
 10
-3.184
 11
-1.892
 20
28.284
 21
29.774
  0
LINE
  8
0
 10
-1.892
 11
0
 20
29.774
 21
30.33
  0
LINE
  8
0
 10
0
 11
1.892
 20
30.33
 21
29.774
  0
LINE
  8
0
 10
1.892
 11
3.184
 20
29.774
 21
28.284
  0
LINE
  8
0
 10
3.184
 11
3.464
 20
28.284
 21
26.332
  0
LINE
  8
0
 10
3.464
 11
2.645
 20
26.332
 21
24.538
  0
LINE
  8
0
 10
2.645
 11
0.986
 20
24.538
 21
23.472
  0
LINE
  8
0
 10
0.986
 11
-0.986
 20
23.472
 21
23.472
  0
LINE
  8
0
 10
-0.986
 11
-2.645
 20
23.472
 21
24.538
  0
LINE
  8
0
 10
-2.645
 11
-3.464
 20
24.538
 21
26.332
  0
LINE
  8
0
 10
23.472
 11
23.472
 20
-0.986
 21
0.986
  0
LINE
  8
0
 10
23.472
 11
24.538
 20
0.986
 21
2.645
  0
LINE
  8
0
 10
24.538
 11
26.332
 20
2.645
 21
3.464
  0
LINE
  8
0
 10
26.332
 11
28.284
 20
3.464
 21
3.184
  0
LINE
  8
0
 10
28.284
 11
29.774
 20
3.184
 21
1.892
  0
LINE
  8
0
 10
29.774
 11
30.33
 20
1.892
 21
0
  0
LINE
  8
0
 10
30.33
 11
29.774
 20
0
 21
-1.892
  0
LINE
  8
0
 10
29.774
 11
28.284
 20
-1.892
 21
-3.184
  0
LINE
  8
0
 10
28.284
 11
26.332
 20
-3.184
 21
-3.464
  0
LINE
  8
0
 10
26.332
 11
24.538
 20
-3.464
 21
-2.645
  0
LINE
  8
0
 10
24.538
 11
23.472
 20
-2.645
 21
-0.986
  0
ENDSEC
  0
SECTION
  2
OBJECTS
  0
DICTIONARY
  0
ENDSEC
  0
EOF
