  0
SECTION
  2
BLOCKS
  0
ENDSEC
  0
SECTION
  2
ENTITIES
  0
LINE
  8
0
 10
-18.4
 11
-18.4
 20
-29.704
 21
-7
  0
LINE
  8
0
 10
-18.4
 11
-18.33
 20
-7
 21
-5.396
  0
LINE
  8
0
 10
-18.33
 11
-18.12
 20
-5.396
 21
-3.805
  0
LINE
  8
0
 10
-18.12
 11
-17.773
 20
-3.805
 21
-2.238
  0
LINE
  8
0
 10
-17.773
 11
-17.29
 20
-2.238
 21
-0.707
  0
LINE
  8
0
 10
-17.29
 11
-16.676
 20
-0.707
 21
0.776
  0
LINE
  8
0
 10
-16.676
 11
-15.935
 20
0.776
 21
2.2
  0
LINE
  8
0
 10
-15.935
 11
-15.072
 20
2.2
 21
3.554
  0
LINE
  8
0
 10
-15.072
 11
-14.095
 20
3.554
 21
4.827
  0
LINE
  8
0
 10
-14.095
 11
-13.011
 20
4.827
 21
6.011
  0
LINE
  8
0
 10
-13.011
 11
-11.827
 20
6.011
 21
7.095
  0
LINE
  8
0
 10
-11.827
 11
-10.554
 20
7.095
 21
8.072
  0
LINE
  8
0
 10
-10.554
 11
-9.2
 20
8.072
 21
8.935
  0
LINE
  8
0
 10
-9.2
 11
-7.776
 20
8.935
 21
9.676
  0
LINE
  8
0
 10
-7.776
 11
-6.293
 20
9.676
 21
10.29
  0
LINE
  8
0
 10
-6.293
 11
-4.762
 20
10.29
 21
10.773
  0
LINE
  8
0
 10
-4.762
 11
-3.195
 20
10.773
 21
11.12
  0
LINE
  8
0
 10
-3.195
 11
-1.604
 20
11.12
 21
11.33
  0
LINE
  8
0
 10
-1.604
 11
0
 20
11.33
 21
11.4
  0
LINE
  8
0
 10
0
 11
1.604
 20
11.4
 21
11.33
  0
LINE
  8
0
 10
1.604
 11
3.195
 20
11.33
 21
11.12
  0
LINE
  8
0
 10
3.195
 11
4.762
 20
11.12
 21
10.773
  0
LINE
  8
0
 10
4.762
 11
6.293
 20
10.773
 21
10.29
  0
LINE
  8
0
 10
6.293
 11
7.776
 20
10.29
 21
9.676
  0
LINE
  8
0
 10
7.776
 11
9.2
 20
9.676
 21
8.935
  0
LINE
  8
0
 10
9.2
 11
10.554
 20
8.935
 21
8.072
  0
LINE
  8
0
 10
10.554
 11
11.827
 20
8.072
 21
7.095
  0
LINE
  8
0
 10
11.827
 11
13.011
 20
7.095
 21
6.011
  0
LINE
  8
0
 10
13.011
 11
14.095
 20
6.011
 21
4.827
  0
LINE
  8
0
 10
14.095
 11
15.072
 20
4.827
 21
3.554
  0
LINE
  8
0
 10
15.072
 11
15.935
 20
3.554
 21
2.2
  0
LINE
  8
0
 10
15.935
 11
16.676
 20
2.2
 21
0.776
  0
LINE
  8
0
 10
16.676
 11
17.29
 20
0.776
 21
-0.707
  0
LINE
  8
0
 10
17.29
 11
17.773
 20
-0.707
 21
-2.238
  0
LINE
  8
0
 10
17.773
 11
18.12
 20
-2.238
 21
-3.805
  0
LINE
  8
0
 10
18.12
 11
18.33
 20
-3.805
 21
-5.396
  0
LINE
  8
0
 10
18.33
 11
18.4
 20
-5.396
 21
-7
  0
LINE
  8
0
 10
18.4
 11
18.51
 20
-7
 21
-7.377
  0
LINE
  8
0
 10
18.51
 11
18.838
 20
-7.377
 21
-7.753
  0
LINE
  8
0
 10
18.838
 11
19.385
 20
-7.753
 21
-8.127
  0
LINE
  8
0
 10
19.385
 11
20.148
 20
-8.127
 21
-8.498
  0
LINE
  8
0
 10
20.148
 11
21.126
 20
-8.498
 21
-8.865
  0
LINE
  8
0
 10
21.126
 11
22.315
 20
-8.865
 21
-9.226
  0
LINE
  8
0
 10
22.315
 11
23.714
 20
-9.226
 21
-9.582
  0
LINE
  8
0
 10
23.714
 11
25.316
 20
-9.582
 21
-9.93
  0
LINE
  8
0
 10
25.316
 11
27.119
 20
-9.93
 21
-10.271
  0
LINE
  8
0
 10
27.119
 11
29.118
 20
-10.271
 21
-10.602
  0
LINE
  8
0
 10
29.118
 11
31.306
 20
-10.602
 21
-10.924
  0
LINE
  8
0
 10
31.306
 11
33.679
 20
-10.924
 21
-11.235
  0
LINE
  8
0
 10
33.679
 11
36.228
 20
-11.235
 21
-11.534
  0
LINE
  8
0
 10
36.228
 11
38.948
 20
-11.534
 21
-11.821
  0
LINE
  8
0
 10
38.948
 11
41.831
 20
-11.821
 21
-12.094
  0
LINE
  8
0
 10
41.831
 11
44.87
 20
-12.094
 21
-12.354
  0
LINE
  8
0
 10
44.87
 11
48.054
 20
-12.354
 21
-12.599
  0
LINE
  8
0
 10
48.054
 11
51.377
 20
-12.599
 21
-12.828
  0
LINE
  8
0
 10
51.377
 11
54.829
 20
-12.828
 21
-13.042
  0
LINE
  8
0
 10
54.829
 11
58.4
 20
-13.042
 21
-13.239
  0
LINE
  8
0
 10
58.4
 11
62.081
 20
-13.239
 21
-13.419
  0
LINE
  8
0
 10
62.081
 11
65.861
 20
-13.419
 21
-13.582
  0
LINE
  8
0
 10
65.861
 11
69.731
 20
-13.582
 21
-13.726
  0
LINE
  8
0
 10
69.731
 11
73.679
 20
-13.726
 21
-13.852
  0
LINE
  8
0
 10
73.679
 11
77.694
 20
-13.852
 21
-13.959
  0
LINE
  8
0
 10
77.694
 11
81.767
 20
-13.959
 21
-14.047
  0
LINE
  8
0
 10
81.767
 11
85.885
 20
-14.047
 21
-14.116
  0
LINE
  8
0
 10
85.885
 11
90.038
 20
-14.116
 21
-14.165
  0
LINE
  8
0
 10
90.038
 11
94.213
 20
-14.165
 21
-14.194
  0
LINE
  8
0
 10
94.213
 11
98.4
 20
-14.194
 21
-14.204
  0
LINE
  8
0
 10
98.4
 11
99.751
 20
-14.204
 21
-14.263
  0
LINE
  8
0
 10
99.751
 11
101.092
 20
-14.263
 21
-14.44
  0
LINE
  8
0
 10
101.092
 11
102.412
 20
-14.44
 21
-14.733
  0
LINE
  8
0
 10
102.412
 11
103.701
 20
-14.733
 21
-15.139
  0
LINE
  8
0
 10
103.701
 11
104.951
 20
-15.139
 21
-15.657
  0
LINE
  8
0
 10
104.951
 11
106.15
 20
-15.657
 21
-16.281
  0
LINE
  8
0
 10
106.15
 11
107.29
 20
-16.281
 21
-17.008
  0
LINE
  8
0
 10
107.29
 11
108.363
 20
-17.008
 21
-17.831
  0
LINE
  8
0
 10
108.363
 11
109.36
 20
-17.831
 21
-18.744
  0
LINE
  8
0
 10
109.36
 11
110.274
 20
-18.744
 21
-19.741
  0
LINE
  8
0
 10
110.274
 11
111.097
 20
-19.741
 21
-20.814
  0
LINE
  8
0
 10
111.097
 11
111.823
 20
-20.814
 21
-21.954
  0
LINE
  8
0
 10
111.823
 11
112.448
 20
-21.954
 21
-23.154
  0
LINE
  8
0
 10
112.448
 11
112.965
 20
-23.154
 21
-24.403
  0
LINE
  8
0
 10
112.965
 11
113.372
 20
-24.403
 21
-25.693
  0
LINE
  8
0
 10
113.372
 11
113.665
 20
-25.693
 21
-27.013
  0
LINE
  8
0
 10
113.665
 11
113.841
 20
-27.013
 21
-28.353
  0
LINE
  8
0
 10
113.841
 11
113.9
 20
-28.353
 21
-29.704
  0
LINE
  8
0
 10
113.9
 11
74.8
 20
-29.704
 21
-29.704
  0
LINE
  8
0
 10
74.8
 11
74.8
 20
-29.704
 21
-34.204
  0
LINE
  8
0
 10
74.8
 11
64.8
 20
-34.204
 21
-34.204
  0
LINE
  8
0
 10
64.8
 11
64.8
 20
-34.204
 21
-29.704
  0
LINE
  8
0
 10
64.8
 11
50.75
 20
-29.704
 21
-29.704
  0
LINE
  8
0
 10
50.75
 11
50.75
 20
-29.704
 21
-27.454
  0
LINE
  8
0
 10
50.75
 11
53.25
 20
-27.454
 21
-27.454
  0
LINE
  8
0
 10
53.25
 11
53.25
 20
-27.454
 21
-21.704
  0
LINE
  8
0
 10
53.25
 11
50.75
 20
-21.704
 21
-21.704
  0
LINE
  8
0
 10
50.75
 11
50.75
 20
-21.704
 21
-19.554
  0
LINE
  8
0
 10
50.75
 11
44.75
 20
-19.554
 21
-19.554
  0
LINE
  8
0
 10
44.75
 11
44.75
 20
-19.554
 21
-21.704
  0
LINE
  8
0
 10
44.75
 11
42.25
 20
-21.704
 21
-21.704
  0
LINE
  8
0
 10
42.25
 11
42.25
 20
-21.704
 21
-27.454
  0
LINE
  8
0
 10
42.25
 11
44.75
 20
-27.454
 21
-27.454
  0
LINE
  8
0
 10
44.75
 11
44.75
 20
-27.454
 21
-29.704
  0
LINE
  8
0
 10
44.75
 11
30.7
 20
-29.704
 21
-29.704
  0
LINE
  8
0
 10
30.7
 11
30.7
 20
-29.704
 21
-34.204
  0
LINE
  8
0
 10
30.7
 11
20.7
 20
-34.204
 21
-34.204
  0
LINE
  8
0
 10
20.7
 11
20.7
 20
-34.204
 21
-29.704
  0
LINE
  8
0
 10
20.7
 11
-18.4
 20
-29.704
 21
-29.704
  0
LINE
  8
0
 10
-17
 11
-16.977
 20
-7
 21
-6.74
  0
LINE
  8
0
 10
-16.977
 11
-16.91
 20
-6.74
 21
-6.487
  0
LINE
  8
0
 10
-16.91
 11
-16.799
 20
-6.487
 21
-6.25
  0
LINE
  8
0
 10
-16.799
 11
-16.649
 20
-6.25
 21
-6.036
  0
LINE
  8
0
 10
-16.649
 11
-16.464
 20
-6.036
 21
-5.851
  0
LINE
  8
0
 10
-16.464
 11
-16.25
 20
-5.851
 21
-5.701
  0
LINE
  8
0
 10
-16.25
 11
-16.013
 20
-5.701
 21
-5.59
  0
LINE
  8
0
 10
-16.013
 11
-15.76
 20
-5.59
 21
-5.523
  0
LINE
  8
0
 10
-15.76
 11
-15.5
 20
-5.523
 21
-5.5
  0
LINE
  8
0
 10
-15.5
 11
-15.24
 20
-5.5
 21
-5.523
  0
LINE
  8
0
 10
-15.24
 11
-14.987
 20
-5.523
 21
-5.59
  0
LINE
  8
0
 10
-14.987
 11
-14.75
 20
-5.59
 21
-5.701
  0
LINE
  8
0
 10
-14.75
 11
-14.536
 20
-5.701
 21
-5.851
  0
LINE
  8
0
 10
-14.536
 11
-14.351
 20
-5.851
 21
-6.036
  0
LINE
  8
0
 10
-14.351
 11
-14.201
 20
-6.036
 21
-6.25
  0
LINE
  8
0
 10
-14.201
 11
-14.09
 20
-6.25
 21
-6.487
  0
LINE
  8
0
 10
-14.09
 11
-14.023
 20
-6.487
 21
-6.74
  0
LINE
  8
0
 10
-14.023
 11
-14
 20
-6.74
 21
-7
  0
LINE
  8
0
 10
-14
 11
-14.023
 20
-7
 21
-7.26
  0
LINE
  8
0
 10
-14.023
 11
-14.09
 20
-7.26
 21
-7.513
  0
LINE
  8
0
 10
-14.09
 11
-14.201
 20
-7.513
 21
-7.75
  0
LINE
  8
0
 10
-14.201
 11
-14.351
 20
-7.75
 21
-7.964
  0
LINE
  8
0
 10
-14.351
 11
-14.536
 20
-7.964
 21
-8.149
  0
LINE
  8
0
 10
-14.536
 11
-14.75
 20
-8.149
 21
-8.299
  0
LINE
  8
0
 10
-14.75
 11
-14.987
 20
-8.299
 21
-8.41
  0
LINE
  8
0
 10
-14.987
 11
-15.24
 20
-8.41
 21
-8.477
  0
LINE
  8
0
 10
-15.24
 11
-15.5
 20
-8.477
 21
-8.5
  0
LINE
  8
0
 10
-15.5
 11
-15.76
 20
-8.5
 21
-8.477
  0
LINE
  8
0
 10
-15.76
 11
-16.013
 20
-8.477
 21
-8.41
  0
LINE
  8
0
 10
-16.013
 11
-16.25
 20
-8.41
 21
-8.299
  0
LINE
  8
0
 10
-16.25
 11
-16.464
 20
-8.299
 21
-8.149
  0
LINE
  8
0
 10
-16.464
 11
-16.649
 20
-8.149
 21
-7.964
  0
LINE
  8
0
 10
-16.649
 11
-16.799
 20
-7.964
 21
-7.75
  0
LINE
  8
0
 10
-16.799
 11
-16.91
 20
-7.75
 21
-7.513
  0
LINE
  8
0
 10
-16.91
 11
-16.977
 20
-7.513
 21
-7.26
  0
LINE
  8
0
 10
-16.977
 11
-17
 20
-7.26
 21
-7
  0
LINE
  8
0
 10
-9.25
 11
-9.227
 20
-20.423
 21
-20.163
  0
LINE
  8
0
 10
-9.227
 11
-9.16
 20
-20.163
 21
-19.91
  0
LINE
  8
0
 10
-9.16
 11
-9.049
 20
-19.91
 21
-19.673
  0
LINE
  8
0
 10
-9.049
 11
-8.899
 20
-19.673
 21
-19.459
  0
LINE
  8
0
 10
-8.899
 11
-8.714
 20
-19.459
 21
-19.274
  0
LINE
  8
0
 10
-8.714
 11
-8.5
 20
-19.274
 21
-19.124
  0
LINE
  8
0
 10
-8.5
 11
-8.263
 20
-19.124
 21
-19.014
  0
LINE
  8
0
 10
-8.263
 11
-8.01
 20
-19.014
 21
-18.946
  0
LINE
  8
0
 10
-8.01
 11
-7.75
 20
-18.946
 21
-18.923
  0
LINE
  8
0
 10
-7.75
 11
-7.49
 20
-18.923
 21
-18.946
  0
LINE
  8
0
 10
-7.49
 11
-7.237
 20
-18.946
 21
-19.014
  0
LINE
  8
0
 10
-7.237
 11
-7
 20
-19.014
 21
-19.124
  0
LINE
  8
0
 10
-7
 11
-6.786
 20
-19.124
 21
-19.274
  0
LINE
  8
0
 10
-6.786
 11
-6.601
 20
-19.274
 21
-19.459
  0
LINE
  8
0
 10
-6.601
 11
-6.451
 20
-19.459
 21
-19.673
  0
LINE
  8
0
 10
-6.451
 11
-6.34
 20
-19.673
 21
-19.91
  0
LINE
  8
0
 10
-6.34
 11
-6.273
 20
-19.91
 21
-20.163
  0
LINE
  8
0
 10
-6.273
 11
-6.25
 20
-20.163
 21
-20.423
  0
LINE
  8
0
 10
-6.25
 11
-6.273
 20
-20.423
 21
-20.684
  0
LINE
  8
0
 10
-6.273
 11
-6.34
 20
-20.684
 21
-20.936
  0
LINE
  8
0
 10
-6.34
 11
-6.451
 20
-20.936
 21
-21.173
  0
LINE
  8
0
 10
-6.451
 11
-6.601
 20
-21.173
 21
-21.388
  0
LINE
  8
0
 10
-6.601
 11
-6.786
 20
-21.388
 21
-21.572
  0
LINE
  8
0
 10
-6.786
 11
-7
 20
-21.572
 21
-21.722
  0
LINE
  8
0
 10
-7
 11
-7.237
 20
-21.722
 21
-21.833
  0
LINE
  8
0
 10
-7.237
 11
-7.49
 20
-21.833
 21
-21.901
  0
LINE
  8
0
 10
-7.49
 11
-7.75
 20
-21.901
 21
-21.923
  0
LINE
  8
0
 10
-7.75
 11
-8.01
 20
-21.923
 21
-21.901
  0
LINE
  8
0
 10
-8.01
 11
-8.263
 20
-21.901
 21
-21.833
  0
LINE
  8
0
 10
-8.263
 11
-8.5
 20
-21.833
 21
-21.722
  0
LINE
  8
0
 10
-8.5
 11
-8.714
 20
-21.722
 21
-21.572
  0
LINE
  8
0
 10
-8.714
 11
-8.899
 20
-21.572
 21
-21.388
  0
LINE
  8
0
 10
-8.899
 11
-9.049
 20
-21.388
 21
-21.173
  0
LINE
  8
0
 10
-9.049
 11
-9.16
 20
-21.173
 21
-20.936
  0
LINE
  8
0
 10
-9.16
 11
-9.227
 20
-20.936
 21
-20.684
  0
LINE
  8
0
 10
-9.227
 11
-9.25
 20
-20.684
 21
-20.423
  0
LINE
  8
0
 10
-9.25
 11
-9.227
 20
6.423
 21
6.684
  0
LINE
  8
0
 10
-9.227
 11
-9.16
 20
6.684
 21
6.936
  0
LINE
  8
0
 10
-9.16
 11
-9.049
 20
6.936
 21
7.173
  0
LINE
  8
0
 10
-9.049
 11
-8.899
 20
7.173
 21
7.388
  0
LINE
  8
0
 10
-8.899
 11
-8.714
 20
7.388
 21
7.572
  0
LINE
  8
0
 10
-8.714
 11
-8.5
 20
7.572
 21
7.722
  0
LINE
  8
0
 10
-8.5
 11
-8.263
 20
7.722
 21
7.833
  0
LINE
  8
0
 10
-8.263
 11
-8.01
 20
7.833
 21
7.901
  0
LINE
  8
0
 10
-8.01
 11
-7.75
 20
7.901
 21
7.923
  0
LINE
  8
0
 10
-7.75
 11
-7.49
 20
7.923
 21
7.901
  0
LINE
  8
0
 10
-7.49
 11
-7.237
 20
7.901
 21
7.833
  0
LINE
  8
0
 10
-7.237
 11
-7
 20
7.833
 21
7.722
  0
LINE
  8
0
 10
-7
 11
-6.786
 20
7.722
 21
7.572
  0
LINE
  8
0
 10
-6.786
 11
-6.601
 20
7.572
 21
7.388
  0
LINE
  8
0
 10
-6.601
 11
-6.451
 20
7.388
 21
7.173
  0
LINE
  8
0
 10
-6.451
 11
-6.34
 20
7.173
 21
6.936
  0
LINE
  8
0
 10
-6.34
 11
-6.273
 20
6.936
 21
6.684
  0
LINE
  8
0
 10
-6.273
 11
-6.25
 20
6.684
 21
6.423
  0
LINE
  8
0
 10
-6.25
 11
-6.273
 20
6.423
 21
6.163
  0
LINE
  8
0
 10
-6.273
 11
-6.34
 20
6.163
 21
5.91
  0
LINE
  8
0
 10
-6.34
 11
-6.451
 20
5.91
 21
5.673
  0
LINE
  8
0
 10
-6.451
 11
-6.601
 20
5.673
 21
5.459
  0
LINE
  8
0
 10
-6.601
 11
-6.786
 20
5.459
 21
5.274
  0
LINE
  8
0
 10
-6.786
 11
-7
 20
5.274
 21
5.124
  0
LINE
  8
0
 10
-7
 11
-7.237
 20
5.124
 21
5.014
  0
LINE
  8
0
 10
-7.237
 11
-7.49
 20
5.014
 21
4.946
  0
LINE
  8
0
 10
-7.49
 11
-7.75
 20
4.946
 21
4.923
  0
LINE
  8
0
 10
-7.75
 11
-8.01
 20
4.923
 21
4.946
  0
LINE
  8
0
 10
-8.01
 11
-8.263
 20
4.946
 21
5.014
  0
LINE
  8
0
 10
-8.263
 11
-8.5
 20
5.014
 21
5.124
  0
LINE
  8
0
 10
-8.5
 11
-8.714
 20
5.124
 21
5.274
  0
LINE
  8
0
 10
-8.714
 11
-8.899
 20
5.274
 21
5.459
  0
LINE
  8
0
 10
-8.899
 11
-9.049
 20
5.459
 21
5.673
  0
LINE
  8
0
 10
-9.049
 11
-9.16
 20
5.673
 21
5.91
  0
LINE
  8
0
 10
-9.16
 11
-9.227
 20
5.91
 21
6.163
  0
LINE
  8
0
 10
-9.227
 11
-9.25
 20
6.163
 21
6.423
  0
LINE
  8
0
 10
-6
 11
-5.909
 20
0
 21
1.042
  0
LINE
  8
0
 10
-5.909
 11
-5.638
 20
1.042
 21
2.052
  0
LINE
  8
0
 10
-5.638
 11
-5.196
 20
2.052
 21
3
  0
LINE
  8
0
 10
-5.196
 11
-4.596
 20
3
 21
3.857
  0
LINE
  8
0
 10
-4.596
 11
-3.857
 20
3.857
 21
4.596
  0
LINE
  8
0
 10
-3.857
 11
-3
 20
4.596
 21
5.196
  0
LINE
  8
0
 10
-3
 11
-2.052
 20
5.196
 21
5.638
  0
LINE
  8
0
 10
-2.052
 11
-1.042
 20
5.638
 21
5.909
  0
LINE
  8
0
 10
-1.042
 11
0
 20
5.909
 21
6
  0
LINE
  8
0
 10
0
 11
1.042
 20
6
 21
5.909
  0
LINE
  8
0
 10
1.042
 11
2.052
 20
5.909
 21
5.638
  0
LINE
  8
0
 10
2.052
 11
3
 20
5.638
 21
5.196
  0
LINE
  8
0
 10
3
 11
3.857
 20
5.196
 21
4.596
  0
LINE
  8
0
 10
3.857
 11
4.596
 20
4.596
 21
3.857
  0
LINE
  8
0
 10
4.596
 11
5.196
 20
3.857
 21
3
  0
LINE
  8
0
 10
5.196
 11
5.638
 20
3
 21
2.052
  0
LINE
  8
0
 10
5.638
 11
5.909
 20
2.052
 21
1.042
  0
LINE
  8
0
 10
5.909
 11
6
 20
1.042
 21
0
  0
LINE
  8
0
 10
6
 11
5.909
 20
0
 21
-1.042
  0
LINE
  8
0
 10
5.909
 11
5.638
 20
-1.042
 21
-2.052
  0
LINE
  8
0
 10
5.638
 11
5.196
 20
-2.052
 21
-3
  0
LINE
  8
0
 10
5.196
 11
4.596
 20
-3
 21
-3.857
  0
LINE
  8
0
 10
4.596
 11
3.857
 20
-3.857
 21
-4.596
  0
LINE
  8
0
 10
3.857
 11
3
 20
-4.596
 21
-5.196
  0
LINE
  8
0
 10
3
 11
2.052
 20
-5.196
 21
-5.638
  0
LINE
  8
0
 10
2.052
 11
1.042
 20
-5.638
 21
-5.909
  0
LINE
  8
0
 10
1.042
 11
0
 20
-5.909
 21
-6
  0
LINE
  8
0
 10
0
 11
-1.042
 20
-6
 21
-5.909
  0
LINE
  8
0
 10
-1.042
 11
-2.052
 20
-5.909
 21
-5.638
  0
LINE
  8
0
 10
-2.052
 11
-3
 20
-5.638
 21
-5.196
  0
LINE
  8
0
 10
-3
 11
-3.857
 20
-5.196
 21
-4.596
  0
LINE
  8
0
 10
-3.857
 11
-4.596
 20
-4.596
 21
-3.857
  0
LINE
  8
0
 10
-4.596
 11
-5.196
 20
-3.857
 21
-3
  0
LINE
  8
0
 10
-5.196
 11
-5.638
 20
-3
 21
-2.052
  0
LINE
  8
0
 10
-5.638
 11
-5.909
 20
-2.052
 21
-1.042
  0
LINE
  8
0
 10
-5.909
 11
-6
 20
-1.042
 21
0
  0
LINE
  8
0
 10
6.25
 11
6.273
 20
-20.423
 21
-20.163
  0
LINE
  8
0
 10
6.273
 11
6.34
 20
-20.163
 21
-19.91
  0
LINE
  8
0
 10
6.34
 11
6.451
 20
-19.91
 21
-19.673
  0
LINE
  8
0
 10
6.451
 11
6.601
 20
-19.673
 21
-19.459
  0
LINE
  8
0
 10
6.601
 11
6.786
 20
-19.459
 21
-19.274
  0
LINE
  8
0
 10
6.786
 11
7
 20
-19.274
 21
-19.124
  0
LINE
  8
0
 10
7
 11
7.237
 20
-19.124
 21
-19.014
  0
LINE
  8
0
 10
7.237
 11
7.49
 20
-19.014
 21
-18.946
  0
LINE
  8
0
 10
7.49
 11
7.75
 20
-18.946
 21
-18.923
  0
LINE
  8
0
 10
7.75
 11
8.01
 20
-18.923
 21
-18.946
  0
LINE
  8
0
 10
8.01
 11
8.263
 20
-18.946
 21
-19.014
  0
LINE
  8
0
 10
8.263
 11
8.5
 20
-19.014
 21
-19.124
  0
LINE
  8
0
 10
8.5
 11
8.714
 20
-19.124
 21
-19.274
  0
LINE
  8
0
 10
8.714
 11
8.899
 20
-19.274
 21
-19.459
  0
LINE
  8
0
 10
8.899
 11
9.049
 20
-19.459
 21
-19.673
  0
LINE
  8
0
 10
9.049
 11
9.16
 20
-19.673
 21
-19.91
  0
LINE
  8
0
 10
9.16
 11
9.227
 20
-19.91
 21
-20.163
  0
LINE
  8
0
 10
9.227
 11
9.25
 20
-20.163
 21
-20.423
  0
LINE
  8
0
 10
9.25
 11
9.227
 20
-20.423
 21
-20.684
  0
LINE
  8
0
 10
9.227
 11
9.16
 20
-20.684
 21
-20.936
  0
LINE
  8
0
 10
9.16
 11
9.049
 20
-20.936
 21
-21.173
  0
LINE
  8
0
 10
9.049
 11
8.899
 20
-21.173
 21
-21.388
  0
LINE
  8
0
 10
8.899
 11
8.714
 20
-21.388
 21
-21.572
  0
LINE
  8
0
 10
8.714
 11
8.5
 20
-21.572
 21
-21.722
  0
LINE
  8
0
 10
8.5
 11
8.263
 20
-21.722
 21
-21.833
  0
LINE
  8
0
 10
8.263
 11
8.01
 20
-21.833
 21
-21.901
  0
LINE
  8
0
 10
8.01
 11
7.75
 20
-21.901
 21
-21.923
  0
LINE
  8
0
 10
7.75
 11
7.49
 20
-21.923
 21
-21.901
  0
LINE
  8
0
 10
7.49
 11
7.237
 20
-21.901
 21
-21.833
  0
LINE
  8
0
 10
7.237
 11
7
 20
-21.833
 21
-21.722
  0
LINE
  8
0
 10
7
 11
6.786
 20
-21.722
 21
-21.572
  0
LINE
  8
0
 10
6.786
 11
6.601
 20
-21.572
 21
-21.388
  0
LINE
  8
0
 10
6.601
 11
6.451
 20
-21.388
 21
-21.173
  0
LINE
  8
0
 10
6.451
 11
6.34
 20
-21.173
 21
-20.936
  0
LINE
  8
0
 10
6.34
 11
6.273
 20
-20.936
 21
-20.684
  0
LINE
  8
0
 10
6.273
 11
6.25
 20
-20.684
 21
-20.423
  0
LINE
  8
0
 10
6.25
 11
6.273
 20
6.423
 21
6.684
  0
LINE
  8
0
 10
6.273
 11
6.34
 20
6.684
 21
6.936
  0
LINE
  8
0
 10
6.34
 11
6.451
 20
6.936
 21
7.173
  0
LINE
  8
0
 10
6.451
 11
6.601
 20
7.173
 21
7.388
  0
LINE
  8
0
 10
6.601
 11
6.786
 20
7.388
 21
7.572
  0
LINE
  8
0
 10
6.786
 11
7
 20
7.572
 21
7.722
  0
LINE
  8
0
 10
7
 11
7.237
 20
7.722
 21
7.833
  0
LINE
  8
0
 10
7.237
 11
7.49
 20
7.833
 21
7.901
  0
LINE
  8
0
 10
7.49
 11
7.75
 20
7.901
 21
7.923
  0
LINE
  8
0
 10
7.75
 11
8.01
 20
7.923
 21
7.901
  0
LINE
  8
0
 10
8.01
 11
8.263
 20
7.901
 21
7.833
  0
LINE
  8
0
 10
8.263
 11
8.5
 20
7.833
 21
7.722
  0
LINE
  8
0
 10
8.5
 11
8.714
 20
7.722
 21
7.572
  0
LINE
  8
0
 10
8.714
 11
8.899
 20
7.572
 21
7.388
  0
LINE
  8
0
 10
8.899
 11
9.049
 20
7.388
 21
7.173
  0
LINE
  8
0
 10
9.049
 11
9.16
 20
7.173
 21
6.936
  0
LINE
  8
0
 10
9.16
 11
9.227
 20
6.936
 21
6.684
  0
LINE
  8
0
 10
9.227
 11
9.25
 20
6.684
 21
6.423
  0
LINE
  8
0
 10
9.25
 11
9.227
 20
6.423
 21
6.163
  0
LINE
  8
0
 10
9.227
 11
9.16
 20
6.163
 21
5.91
  0
LINE
  8
0
 10
9.16
 11
9.049
 20
5.91
 21
5.673
  0
LINE
  8
0
 10
9.049
 11
8.899
 20
5.673
 21
5.459
  0
LINE
  8
0
 10
8.899
 11
8.714
 20
5.459
 21
5.274
  0
LINE
  8
0
 10
8.714
 11
8.5
 20
5.274
 21
5.124
  0
LINE
  8
0
 10
8.5
 11
8.263
 20
5.124
 21
5.014
  0
LINE
  8
0
 10
8.263
 11
8.01
 20
5.014
 21
4.946
  0
LINE
  8
0
 10
8.01
 11
7.75
 20
4.946
 21
4.923
  0
LINE
  8
0
 10
7.75
 11
7.49
 20
4.923
 21
4.946
  0
LINE
  8
0
 10
7.49
 11
7.237
 20
4.946
 21
5.014
  0
LINE
  8
0
 10
7.237
 11
7
 20
5.014
 21
5.124
  0
LINE
  8
0
 10
7
 11
6.786
 20
5.124
 21
5.274
  0
LINE
  8
0
 10
6.786
 11
6.601
 20
5.274
 21
5.459
  0
LINE
  8
0
 10
6.601
 11
6.451
 20
5.459
 21
5.673
  0
LINE
  8
0
 10
6.451
 11
6.34
 20
5.673
 21
5.91
  0
LINE
  8
0
 10
6.34
 11
6.273
 20
5.91
 21
6.163
  0
LINE
  8
0
 10
6.273
 11
6.25
 20
6.163
 21
6.423
  0
LINE
  8
0
 10
14
 11
14.023
 20
-7
 21
-6.74
  0
LINE
  8
0
 10
14.023
 11
14.09
 20
-6.74
 21
-6.487
  0
LINE
  8
0
 10
14.09
 11
14.201
 20
-6.487
 21
-6.25
  0
LINE
  8
0
 10
14.201
 11
14.351
 20
-6.25
 21
-6.036
  0
LINE
  8
0
 10
14.351
 11
14.536
 20
-6.036
 21
-5.851
  0
LINE
  8
0
 10
14.536
 11
14.75
 20
-5.851
 21
-5.701
  0
LINE
  8
0
 10
14.75
 11
14.987
 20
-5.701
 21
-5.59
  0
LINE
  8
0
 10
14.987
 11
15.24
 20
-5.59
 21
-5.523
  0
LINE
  8
0
 10
15.24
 11
15.5
 20
-5.523
 21
-5.5
  0
LINE
  8
0
 10
15.5
 11
15.76
 20
-5.5
 21
-5.523
  0
LINE
  8
0
 10
15.76
 11
16.013
 20
-5.523
 21
-5.59
  0
LINE
  8
0
 10
16.013
 11
16.25
 20
-5.59
 21
-5.701
  0
LINE
  8
0
 10
16.25
 11
16.464
 20
-5.701
 21
-5.851
  0
LINE
  8
0
 10
16.464
 11
16.649
 20
-5.851
 21
-6.036
  0
LINE
  8
0
 10
16.649
 11
16.799
 20
-6.036
 21
-6.25
  0
LINE
  8
0
 10
16.799
 11
16.91
 20
-6.25
 21
-6.487
  0
LINE
  8
0
 10
16.91
 11
16.977
 20
-6.487
 21
-6.74
  0
LINE
  8
0
 10
16.977
 11
17
 20
-6.74
 21
-7
  0
LINE
  8
0
 10
17
 11
16.977
 20
-7
 21
-7.26
  0
LINE
  8
0
 10
16.977
 11
16.91
 20
-7.26
 21
-7.513
  0
LINE
  8
0
 10
16.91
 11
16.799
 20
-7.513
 21
-7.75
  0
LINE
  8
0
 10
16.799
 11
16.649
 20
-7.75
 21
-7.964
  0
LINE
  8
0
 10
16.649
 11
16.464
 20
-7.964
 21
-8.149
  0
LINE
  8
0
 10
16.464
 11
16.25
 20
-8.149
 21
-8.299
  0
LINE
  8
0
 10
16.25
 11
16.013
 20
-8.299
 21
-8.41
  0
LINE
  8
0
 10
16.013
 11
15.76
 20
-8.41
 21
-8.477
  0
LINE
  8
0
 10
15.76
 11
15.5
 20
-8.477
 21
-8.5
  0
LINE
  8
0
 10
15.5
 11
15.24
 20
-8.5
 21
-8.477
  0
LINE
  8
0
 10
15.24
 11
14.987
 20
-8.477
 21
-8.41
  0
LINE
  8
0
 10
14.987
 11
14.75
 20
-8.41
 21
-8.299
  0
LINE
  8
0
 10
14.75
 11
14.536
 20
-8.299
 21
-8.149
  0
LINE
  8
0
 10
14.536
 11
14.351
 20
-8.149
 21
-7.964
  0
LINE
  8
0
 10
14.351
 11
14.201
 20
-7.964
 21
-7.75
  0
LINE
  8
0
 10
14.201
 11
14.09
 20
-7.75
 21
-7.513
  0
LINE
  8
0
 10
14.09
 11
14.023
 20
-7.513
 21
-7.26
  0
LINE
  8
0
 10
14.023
 11
14
 20
-7.26
 21
-7
  0
ENDSEC
  0
SECTION
  2
OBJECTS
  0
DICTIONARY
  0
ENDSEC
  0
EOF
