  0
SECTION
  2
BLOCKS
  0
ENDSEC
  0
SECTION
  2
ENTITIES
  0
LINE
  8
0
 10
-270.025
 11
-270.025
 20
-121.537
 21
121.537
  0
LINE
  8
0
 10
-270.025
 11
-93.508
 20
121.537
 21
121.537
  0
LINE
  8
0
 10
-93.508
 11
-93.508
 20
121.537
 21
126.037
  0
LINE
  8
0
 10
-93.508
 11
-83.508
 20
126.037
 21
126.037
  0
LINE
  8
0
 10
-83.508
 11
-83.508
 20
126.037
 21
121.537
  0
LINE
  8
0
 10
-83.508
 11
83.508
 20
121.537
 21
121.537
  0
LINE
  8
0
 10
83.508
 11
83.508
 20
121.537
 21
126.037
  0
LINE
  8
0
 10
83.508
 11
93.508
 20
126.037
 21
126.037
  0
LINE
  8
0
 10
93.508
 11
93.508
 20
126.037
 21
121.537
  0
LINE
  8
0
 10
93.508
 11
270.025
 20
121.537
 21
121.537
  0
LINE
  8
0
 10
270.025
 11
270.025
 20
121.537
 21
-121.537
  0
LINE
  8
0
 10
270.025
 11
93.508
 20
-121.537
 21
-121.537
  0
LINE
  8
0
 10
93.508
 11
93.508
 20
-121.537
 21
-126.037
  0
LINE
  8
0
 10
93.508
 11
83.508
 20
-126.037
 21
-126.037
  0
LINE
  8
0
 10
83.508
 11
83.508
 20
-126.037
 21
-121.537
  0
LINE
  8
0
 10
83.508
 11
-83.508
 20
-121.537
 21
-121.537
  0
LINE
  8
0
 10
-83.508
 11
-83.508
 20
-121.537
 21
-126.037
  0
LINE
  8
0
 10
-83.508
 11
-93.508
 20
-126.037
 21
-126.037
  0
LINE
  8
0
 10
-93.508
 11
-93.508
 20
-126.037
 21
-121.537
  0
LINE
  8
0
 10
-93.508
 11
-270.025
 20
-121.537
 21
-121.537
  0
LINE
  8
0
 10
-265.525
 11
-265.525
 20
-47.012
 21
-37.012
  0
LINE
  8
0
 10
-265.525
 11
-261.025
 20
-37.012
 21
-37.012
  0
LINE
  8
0
 10
-261.025
 11
-261.025
 20
-37.012
 21
-47.012
  0
LINE
  8
0
 10
-261.025
 11
-265.525
 20
-47.012
 21
-47.012
  0
LINE
  8
0
 10
-265.525
 11
-265.525
 20
37.012
 21
47.012
  0
LINE
  8
0
 10
-265.525
 11
-261.025
 20
47.012
 21
47.012
  0
LINE
  8
0
 10
-261.025
 11
-261.025
 20
47.012
 21
37.012
  0
LINE
  8
0
 10
-261.025
 11
-265.525
 20
37.012
 21
37.012
  0
LINE
  8
0
 10
261.025
 11
261.025
 20
-47.012
 21
-37.012
  0
LINE
  8
0
 10
261.025
 11
265.525
 20
-37.012
 21
-37.012
  0
LINE
  8
0
 10
265.525
 11
265.525
 20
-37.012
 21
-47.012
  0
LINE
  8
0
 10
265.525
 11
261.025
 20
-47.012
 21
-47.012
  0
LINE
  8
0
 10
261.025
 11
261.025
 20
37.012
 21
47.012
  0
LINE
  8
0
 10
261.025
 11
265.525
 20
47.012
 21
47.012
  0
LINE
  8
0
 10
265.525
 11
265.525
 20
47.012
 21
37.012
  0
LINE
  8
0
 10
265.525
 11
261.025
 20
37.012
 21
37.012
  0
ENDSEC
  0
SECTION
  2
OBJECTS
  0
DICTIONARY
  0
ENDSEC
  0
EOF
