  0
SECTION
  2
BLOCKS
  0
ENDSEC
  0
SECTION
  2
ENTITIES
  0
LINE
  8
0
 10
-244.864
 11
-244.864
 20
-44.93
 21
-34.803
  0
LINE
  8
0
 10
-244.864
 11
-239.6
 20
-34.803
 21
-34.803
  0
LINE
  8
0
 10
-239.6
 11
-239.6
 20
-34.803
 21
34.803
  0
LINE
  8
0
 10
-239.6
 11
-244.864
 20
34.803
 21
34.803
  0
LINE
  8
0
 10
-244.864
 11
-244.864
 20
34.803
 21
44.93
  0
LINE
  8
0
 10
-244.864
 11
-239.6
 20
44.93
 21
44.93
  0
LINE
  8
0
 10
-239.6
 11
-239.6
 20
44.93
 21
59.8
  0
LINE
  8
0
 10
-239.6
 11
239.6
 20
59.8
 21
59.8
  0
LINE
  8
0
 10
239.6
 11
239.6
 20
59.8
 21
44.93
  0
LINE
  8
0
 10
239.6
 11
244.864
 20
44.93
 21
44.93
  0
LINE
  8
0
 10
244.864
 11
244.864
 20
44.93
 21
34.803
  0
LINE
  8
0
 10
244.864
 11
239.6
 20
34.803
 21
34.803
  0
LINE
  8
0
 10
239.6
 11
239.6
 20
34.803
 21
-34.803
  0
LINE
  8
0
 10
239.6
 11
244.864
 20
-34.803
 21
-34.803
  0
LINE
  8
0
 10
244.864
 11
244.864
 20
-34.803
 21
-44.93
  0
LINE
  8
0
 10
244.864
 11
239.6
 20
-44.93
 21
-44.93
  0
LINE
  8
0
 10
239.6
 11
239.6
 20
-44.93
 21
-54.6
  0
LINE
  8
0
 10
239.6
 11
168.264
 20
-54.6
 21
-54.6
  0
LINE
  8
0
 10
168.264
 11
168.264
 20
-54.6
 21
-59.863
  0
LINE
  8
0
 10
168.264
 11
158.137
 20
-59.863
 21
-59.863
  0
LINE
  8
0
 10
158.137
 11
158.137
 20
-59.863
 21
-54.6
  0
LINE
  8
0
 10
158.137
 11
-158.137
 20
-54.6
 21
-54.6
  0
LINE
  8
0
 10
-158.137
 11
-158.137
 20
-54.6
 21
-59.863
  0
LINE
  8
0
 10
-158.137
 11
-168.264
 20
-59.863
 21
-59.863
  0
LINE
  8
0
 10
-168.264
 11
-168.264
 20
-59.863
 21
-54.6
  0
LINE
  8
0
 10
-168.264
 11
-239.6
 20
-54.6
 21
-54.6
  0
LINE
  8
0
 10
-239.6
 11
-239.6
 20
-54.6
 21
-44.93
  0
LINE
  8
0
 10
-239.6
 11
-244.864
 20
-44.93
 21
-44.93
  0
LINE
  8
0
 10
-226.402
 11
-226.402
 20
-40.718
 21
-38.982
  0
LINE
  8
0
 10
-226.402
 11
-225.045
 20
-38.982
 21
-37.9
  0
LINE
  8
0
 10
-225.045
 11
-223.353
 20
-37.9
 21
-38.286
  0
LINE
  8
0
 10
-223.353
 11
-222.6
 20
-38.286
 21
-39.85
  0
LINE
  8
0
 10
-222.6
 11
-223.353
 20
-39.85
 21
-41.414
  0
LINE
  8
0
 10
-223.353
 11
-225.045
 20
-41.414
 21
-41.8
  0
LINE
  8
0
 10
-225.045
 11
-226.402
 20
-41.8
 21
-40.718
  0
LINE
  8
0
 10
-226.402
 11
-226.402
 20
10.082
 21
11.818
  0
LINE
  8
0
 10
-226.402
 11
-225.045
 20
11.818
 21
12.9
  0
LINE
  8
0
 10
-225.045
 11
-223.353
 20
12.9
 21
12.514
  0
LINE
  8
0
 10
-223.353
 11
-222.6
 20
12.514
 21
10.95
  0
LINE
  8
0
 10
-222.6
 11
-223.353
 20
10.95
 21
9.386
  0
LINE
  8
0
 10
-223.353
 11
-225.045
 20
9.386
 21
9
  0
LINE
  8
0
 10
-225.045
 11
-226.402
 20
9
 21
10.082
  0
LINE
  8
0
 10
-226.402
 11
-226.402
 20
38.982
 21
40.718
  0
LINE
  8
0
 10
-226.402
 11
-225.045
 20
40.718
 21
41.8
  0
LINE
  8
0
 10
-225.045
 11
-223.353
 20
41.8
 21
41.414
  0
LINE
  8
0
 10
-223.353
 11
-222.6
 20
41.414
 21
39.85
  0
LINE
  8
0
 10
-222.6
 11
-223.353
 20
39.85
 21
38.286
  0
LINE
  8
0
 10
-223.353
 11
-225.045
 20
38.286
 21
37.9
  0
LINE
  8
0
 10
-225.045
 11
-226.402
 20
37.9
 21
38.982
  0
LINE
  8
0
 10
-203.115
 11
-203.115
 20
-8.11
 21
-7.848
  0
LINE
  8
0
 10
-203.115
 11
-203.07
 20
-7.848
 21
-7.591
  0
LINE
  8
0
 10
-203.07
 11
-202.98
 20
-7.591
 21
-7.345
  0
LINE
  8
0
 10
-202.98
 11
-202.85
 20
-7.345
 21
-7.119
  0
LINE
  8
0
 10
-202.85
 11
-202.681
 20
-7.119
 21
-6.919
  0
LINE
  8
0
 10
-202.681
 11
-202.481
 20
-6.919
 21
-6.75
  0
LINE
  8
0
 10
-202.481
 11
-202.255
 20
-6.75
 21
-6.62
  0
LINE
  8
0
 10
-202.255
 11
-202.009
 20
-6.62
 21
-6.53
  0
LINE
  8
0
 10
-202.009
 11
-201.752
 20
-6.53
 21
-6.485
  0
LINE
  8
0
 10
-201.752
 11
-201.49
 20
-6.485
 21
-6.485
  0
LINE
  8
0
 10
-201.49
 11
-201.233
 20
-6.485
 21
-6.53
  0
LINE
  8
0
 10
-201.233
 11
-200.987
 20
-6.53
 21
-6.62
  0
LINE
  8
0
 10
-200.987
 11
-200.76
 20
-6.62
 21
-6.75
  0
LINE
  8
0
 10
-200.76
 11
-200.56
 20
-6.75
 21
-6.919
  0
LINE
  8
0
 10
-200.56
 11
-200.392
 20
-6.919
 21
-7.119
  0
LINE
  8
0
 10
-200.392
 11
-200.261
 20
-7.119
 21
-7.345
  0
LINE
  8
0
 10
-200.261
 11
-200.172
 20
-7.345
 21
-7.591
  0
LINE
  8
0
 10
-200.172
 11
-200.127
 20
-7.591
 21
-7.848
  0
LINE
  8
0
 10
-200.127
 11
-200.127
 20
-7.848
 21
-8.11
  0
LINE
  8
0
 10
-200.127
 11
-200.172
 20
-8.11
 21
-8.367
  0
LINE
  8
0
 10
-200.172
 11
-200.261
 20
-8.367
 21
-8.613
  0
LINE
  8
0
 10
-200.261
 11
-200.392
 20
-8.613
 21
-8.84
  0
LINE
  8
0
 10
-200.392
 11
-200.56
 20
-8.84
 21
-9.04
  0
LINE
  8
0
 10
-200.56
 11
-200.76
 20
-9.04
 21
-9.208
  0
LINE
  8
0
 10
-200.76
 11
-200.987
 20
-9.208
 21
-9.339
  0
LINE
  8
0
 10
-200.987
 11
-201.233
 20
-9.339
 21
-9.428
  0
LINE
  8
0
 10
-201.233
 11
-201.49
 20
-9.428
 21
-9.473
  0
LINE
  8
0
 10
-201.49
 11
-201.752
 20
-9.473
 21
-9.473
  0
LINE
  8
0
 10
-201.752
 11
-202.009
 20
-9.473
 21
-9.428
  0
LINE
  8
0
 10
-202.009
 11
-202.255
 20
-9.428
 21
-9.339
  0
LINE
  8
0
 10
-202.255
 11
-202.481
 20
-9.339
 21
-9.208
  0
LINE
  8
0
 10
-202.481
 11
-202.681
 20
-9.208
 21
-9.04
  0
LINE
  8
0
 10
-202.681
 11
-202.85
 20
-9.04
 21
-8.84
  0
LINE
  8
0
 10
-202.85
 11
-202.98
 20
-8.84
 21
-8.613
  0
LINE
  8
0
 10
-202.98
 11
-203.07
 20
-8.613
 21
-8.367
  0
LINE
  8
0
 10
-203.07
 11
-203.115
 20
-8.367
 21
-8.11
  0
LINE
  8
0
 10
-203.115
 11
-203.115
 20
31.89
 21
32.152
  0
LINE
  8
0
 10
-203.115
 11
-203.07
 20
32.152
 21
32.409
  0
LINE
  8
0
 10
-203.07
 11
-202.98
 20
32.409
 21
32.655
  0
LINE
  8
0
 10
-202.98
 11
-202.85
 20
32.655
 21
32.881
  0
LINE
  8
0
 10
-202.85
 11
-202.681
 20
32.881
 21
33.081
  0
LINE
  8
0
 10
-202.681
 11
-202.481
 20
33.081
 21
33.25
  0
LINE
  8
0
 10
-202.481
 11
-202.255
 20
33.25
 21
33.38
  0
LINE
  8
0
 10
-202.255
 11
-202.009
 20
33.38
 21
33.47
  0
LINE
  8
0
 10
-202.009
 11
-201.752
 20
33.47
 21
33.515
  0
LINE
  8
0
 10
-201.752
 11
-201.49
 20
33.515
 21
33.515
  0
LINE
  8
0
 10
-201.49
 11
-201.233
 20
33.515
 21
33.47
  0
LINE
  8
0
 10
-201.233
 11
-200.987
 20
33.47
 21
33.38
  0
LINE
  8
0
 10
-200.987
 11
-200.76
 20
33.38
 21
33.25
  0
LINE
  8
0
 10
-200.76
 11
-200.56
 20
33.25
 21
33.081
  0
LINE
  8
0
 10
-200.56
 11
-200.392
 20
33.081
 21
32.881
  0
LINE
  8
0
 10
-200.392
 11
-200.261
 20
32.881
 21
32.655
  0
LINE
  8
0
 10
-200.261
 11
-200.172
 20
32.655
 21
32.409
  0
LINE
  8
0
 10
-200.172
 11
-200.127
 20
32.409
 21
32.152
  0
LINE
  8
0
 10
-200.127
 11
-200.127
 20
32.152
 21
31.89
  0
LINE
  8
0
 10
-200.127
 11
-200.172
 20
31.89
 21
31.633
  0
LINE
  8
0
 10
-200.172
 11
-200.261
 20
31.633
 21
31.387
  0
LINE
  8
0
 10
-200.261
 11
-200.392
 20
31.387
 21
31.16
  0
LINE
  8
0
 10
-200.392
 11
-200.56
 20
31.16
 21
30.96
  0
LINE
  8
0
 10
-200.56
 11
-200.76
 20
30.96
 21
30.792
  0
LINE
  8
0
 10
-200.76
 11
-200.987
 20
30.792
 21
30.661
  0
LINE
  8
0
 10
-200.987
 11
-201.233
 20
30.661
 21
30.572
  0
LINE
  8
0
 10
-201.233
 11
-201.49
 20
30.572
 21
30.527
  0
LINE
  8
0
 10
-201.49
 11
-201.752
 20
30.527
 21
30.527
  0
LINE
  8
0
 10
-201.752
 11
-202.009
 20
30.527
 21
30.572
  0
LINE
  8
0
 10
-202.009
 11
-202.255
 20
30.572
 21
30.661
  0
LINE
  8
0
 10
-202.255
 11
-202.481
 20
30.661
 21
30.792
  0
LINE
  8
0
 10
-202.481
 11
-202.681
 20
30.792
 21
30.96
  0
LINE
  8
0
 10
-202.681
 11
-202.85
 20
30.96
 21
31.16
  0
LINE
  8
0
 10
-202.85
 11
-202.98
 20
31.16
 21
31.387
  0
LINE
  8
0
 10
-202.98
 11
-203.07
 20
31.387
 21
31.633
  0
LINE
  8
0
 10
-203.07
 11
-203.115
 20
31.633
 21
31.89
  0
LINE
  8
0
 10
-179.073
 11
-179.073
 20
-32.152
 21
-31.89
  0
LINE
  8
0
 10
-179.073
 11
-179.028
 20
-31.89
 21
-31.633
  0
LINE
  8
0
 10
-179.028
 11
-178.939
 20
-31.633
 21
-31.387
  0
LINE
  8
0
 10
-178.939
 11
-178.808
 20
-31.387
 21
-31.16
  0
LINE
  8
0
 10
-178.808
 11
-178.64
 20
-31.16
 21
-30.96
  0
LINE
  8
0
 10
-178.64
 11
-178.44
 20
-30.96
 21
-30.792
  0
LINE
  8
0
 10
-178.44
 11
-178.213
 20
-30.792
 21
-30.661
  0
LINE
  8
0
 10
-178.213
 11
-177.967
 20
-30.661
 21
-30.572
  0
LINE
  8
0
 10
-177.967
 11
-177.71
 20
-30.572
 21
-30.527
  0
LINE
  8
0
 10
-177.71
 11
-177.448
 20
-30.527
 21
-30.527
  0
LINE
  8
0
 10
-177.448
 11
-177.191
 20
-30.527
 21
-30.572
  0
LINE
  8
0
 10
-177.191
 11
-176.945
 20
-30.572
 21
-30.661
  0
LINE
  8
0
 10
-176.945
 11
-176.719
 20
-30.661
 21
-30.792
  0
LINE
  8
0
 10
-176.719
 11
-176.519
 20
-30.792
 21
-30.96
  0
LINE
  8
0
 10
-176.519
 11
-176.35
 20
-30.96
 21
-31.16
  0
LINE
  8
0
 10
-176.35
 11
-176.22
 20
-31.16
 21
-31.387
  0
LINE
  8
0
 10
-176.22
 11
-176.13
 20
-31.387
 21
-31.633
  0
LINE
  8
0
 10
-176.13
 11
-176.085
 20
-31.633
 21
-31.89
  0
LINE
  8
0
 10
-176.085
 11
-176.085
 20
-31.89
 21
-32.152
  0
LINE
  8
0
 10
-176.085
 11
-176.13
 20
-32.152
 21
-32.409
  0
LINE
  8
0
 10
-176.13
 11
-176.22
 20
-32.409
 21
-32.655
  0
LINE
  8
0
 10
-176.22
 11
-176.35
 20
-32.655
 21
-32.881
  0
LINE
  8
0
 10
-176.35
 11
-176.519
 20
-32.881
 21
-33.081
  0
LINE
  8
0
 10
-176.519
 11
-176.719
 20
-33.081
 21
-33.25
  0
LINE
  8
0
 10
-176.719
 11
-176.945
 20
-33.25
 21
-33.38
  0
LINE
  8
0
 10
-176.945
 11
-177.191
 20
-33.38
 21
-33.47
  0
LINE
  8
0
 10
-177.191
 11
-177.448
 20
-33.47
 21
-33.515
  0
LINE
  8
0
 10
-177.448
 11
-177.71
 20
-33.515
 21
-33.515
  0
LINE
  8
0
 10
-177.71
 11
-177.967
 20
-33.515
 21
-33.47
  0
LINE
  8
0
 10
-177.967
 11
-178.213
 20
-33.47
 21
-33.38
  0
LINE
  8
0
 10
-178.213
 11
-178.44
 20
-33.38
 21
-33.25
  0
LINE
  8
0
 10
-178.44
 11
-178.64
 20
-33.25
 21
-33.081
  0
LINE
  8
0
 10
-178.64
 11
-178.808
 20
-33.081
 21
-32.881
  0
LINE
  8
0
 10
-178.808
 11
-178.939
 20
-32.881
 21
-32.655
  0
LINE
  8
0
 10
-178.939
 11
-179.028
 20
-32.655
 21
-32.409
  0
LINE
  8
0
 10
-179.028
 11
-179.073
 20
-32.409
 21
-32.152
  0
LINE
  8
0
 10
-179.073
 11
-179.073
 20
7.848
 21
8.11
  0
LINE
  8
0
 10
-179.073
 11
-179.028
 20
8.11
 21
8.367
  0
LINE
  8
0
 10
-179.028
 11
-178.939
 20
8.367
 21
8.613
  0
LINE
  8
0
 10
-178.939
 11
-178.808
 20
8.613
 21
8.84
  0
LINE
  8
0
 10
-178.808
 11
-178.64
 20
8.84
 21
9.04
  0
LINE
  8
0
 10
-178.64
 11
-178.44
 20
9.04
 21
9.208
  0
LINE
  8
0
 10
-178.44
 11
-178.213
 20
9.208
 21
9.339
  0
LINE
  8
0
 10
-178.213
 11
-177.967
 20
9.339
 21
9.428
  0
LINE
  8
0
 10
-177.967
 11
-177.71
 20
9.428
 21
9.473
  0
LINE
  8
0
 10
-177.71
 11
-177.448
 20
9.473
 21
9.473
  0
LINE
  8
0
 10
-177.448
 11
-177.191
 20
9.473
 21
9.428
  0
LINE
  8
0
 10
-177.191
 11
-176.945
 20
9.428
 21
9.339
  0
LINE
  8
0
 10
-176.945
 11
-176.719
 20
9.339
 21
9.208
  0
LINE
  8
0
 10
-176.719
 11
-176.519
 20
9.208
 21
9.04
  0
LINE
  8
0
 10
-176.519
 11
-176.35
 20
9.04
 21
8.84
  0
LINE
  8
0
 10
-176.35
 11
-176.22
 20
8.84
 21
8.613
  0
LINE
  8
0
 10
-176.22
 11
-176.13
 20
8.613
 21
8.367
  0
LINE
  8
0
 10
-176.13
 11
-176.085
 20
8.367
 21
8.11
  0
LINE
  8
0
 10
-176.085
 11
-176.085
 20
8.11
 21
7.848
  0
LINE
  8
0
 10
-176.085
 11
-176.13
 20
7.848
 21
7.591
  0
LINE
  8
0
 10
-176.13
 11
-176.22
 20
7.591
 21
7.345
  0
LINE
  8
0
 10
-176.22
 11
-176.35
 20
7.345
 21
7.119
  0
LINE
  8
0
 10
-176.35
 11
-176.519
 20
7.119
 21
6.919
  0
LINE
  8
0
 10
-176.519
 11
-176.719
 20
6.919
 21
6.75
  0
LINE
  8
0
 10
-176.719
 11
-176.945
 20
6.75
 21
6.62
  0
LINE
  8
0
 10
-176.945
 11
-177.191
 20
6.62
 21
6.53
  0
LINE
  8
0
 10
-177.191
 11
-177.448
 20
6.53
 21
6.485
  0
LINE
  8
0
 10
-177.448
 11
-177.71
 20
6.485
 21
6.485
  0
LINE
  8
0
 10
-177.71
 11
-177.967
 20
6.485
 21
6.53
  0
LINE
  8
0
 10
-177.967
 11
-178.213
 20
6.53
 21
6.62
  0
LINE
  8
0
 10
-178.213
 11
-178.44
 20
6.62
 21
6.75
  0
LINE
  8
0
 10
-178.44
 11
-178.64
 20
6.75
 21
6.919
  0
LINE
  8
0
 10
-178.64
 11
-178.808
 20
6.919
 21
7.119
  0
LINE
  8
0
 10
-178.808
 11
-178.939
 20
7.119
 21
7.345
  0
LINE
  8
0
 10
-178.939
 11
-179.028
 20
7.345
 21
7.591
  0
LINE
  8
0
 10
-179.028
 11
-179.073
 20
7.591
 21
7.848
  0
LINE
  8
0
 10
-163.115
 11
-163.115
 20
-8.11
 21
-7.848
  0
LINE
  8
0
 10
-163.115
 11
-163.07
 20
-7.848
 21
-7.591
  0
LINE
  8
0
 10
-163.07
 11
-162.98
 20
-7.591
 21
-7.345
  0
LINE
  8
0
 10
-162.98
 11
-162.85
 20
-7.345
 21
-7.119
  0
LINE
  8
0
 10
-162.85
 11
-162.681
 20
-7.119
 21
-6.919
  0
LINE
  8
0
 10
-162.681
 11
-162.481
 20
-6.919
 21
-6.75
  0
LINE
  8
0
 10
-162.481
 11
-162.255
 20
-6.75
 21
-6.62
  0
LINE
  8
0
 10
-162.255
 11
-162.009
 20
-6.62
 21
-6.53
  0
LINE
  8
0
 10
-162.009
 11
-161.752
 20
-6.53
 21
-6.485
  0
LINE
  8
0
 10
-161.752
 11
-161.49
 20
-6.485
 21
-6.485
  0
LINE
  8
0
 10
-161.49
 11
-161.233
 20
-6.485
 21
-6.53
  0
LINE
  8
0
 10
-161.233
 11
-160.987
 20
-6.53
 21
-6.62
  0
LINE
  8
0
 10
-160.987
 11
-160.76
 20
-6.62
 21
-6.75
  0
LINE
  8
0
 10
-160.76
 11
-160.56
 20
-6.75
 21
-6.919
  0
LINE
  8
0
 10
-160.56
 11
-160.392
 20
-6.919
 21
-7.119
  0
LINE
  8
0
 10
-160.392
 11
-160.261
 20
-7.119
 21
-7.345
  0
LINE
  8
0
 10
-160.261
 11
-160.172
 20
-7.345
 21
-7.591
  0
LINE
  8
0
 10
-160.172
 11
-160.127
 20
-7.591
 21
-7.848
  0
LINE
  8
0
 10
-160.127
 11
-160.127
 20
-7.848
 21
-8.11
  0
LINE
  8
0
 10
-160.127
 11
-160.172
 20
-8.11
 21
-8.367
  0
LINE
  8
0
 10
-160.172
 11
-160.261
 20
-8.367
 21
-8.613
  0
LINE
  8
0
 10
-160.261
 11
-160.392
 20
-8.613
 21
-8.84
  0
LINE
  8
0
 10
-160.392
 11
-160.56
 20
-8.84
 21
-9.04
  0
LINE
  8
0
 10
-160.56
 11
-160.76
 20
-9.04
 21
-9.208
  0
LINE
  8
0
 10
-160.76
 11
-160.987
 20
-9.208
 21
-9.339
  0
LINE
  8
0
 10
-160.987
 11
-161.233
 20
-9.339
 21
-9.428
  0
LINE
  8
0
 10
-161.233
 11
-161.49
 20
-9.428
 21
-9.473
  0
LINE
  8
0
 10
-161.49
 11
-161.752
 20
-9.473
 21
-9.473
  0
LINE
  8
0
 10
-161.752
 11
-162.009
 20
-9.473
 21
-9.428
  0
LINE
  8
0
 10
-162.009
 11
-162.255
 20
-9.428
 21
-9.339
  0
LINE
  8
0
 10
-162.255
 11
-162.481
 20
-9.339
 21
-9.208
  0
LINE
  8
0
 10
-162.481
 11
-162.681
 20
-9.208
 21
-9.04
  0
LINE
  8
0
 10
-162.681
 11
-162.85
 20
-9.04
 21
-8.84
  0
LINE
  8
0
 10
-162.85
 11
-162.98
 20
-8.84
 21
-8.613
  0
LINE
  8
0
 10
-162.98
 11
-163.07
 20
-8.613
 21
-8.367
  0
LINE
  8
0
 10
-163.07
 11
-163.115
 20
-8.367
 21
-8.11
  0
LINE
  8
0
 10
-163.115
 11
-163.115
 20
31.89
 21
32.152
  0
LINE
  8
0
 10
-163.115
 11
-163.07
 20
32.152
 21
32.409
  0
LINE
  8
0
 10
-163.07
 11
-162.98
 20
32.409
 21
32.655
  0
LINE
  8
0
 10
-162.98
 11
-162.85
 20
32.655
 21
32.881
  0
LINE
  8
0
 10
-162.85
 11
-162.681
 20
32.881
 21
33.081
  0
LINE
  8
0
 10
-162.681
 11
-162.481
 20
33.081
 21
33.25
  0
LINE
  8
0
 10
-162.481
 11
-162.255
 20
33.25
 21
33.38
  0
LINE
  8
0
 10
-162.255
 11
-162.009
 20
33.38
 21
33.47
  0
LINE
  8
0
 10
-162.009
 11
-161.752
 20
33.47
 21
33.515
  0
LINE
  8
0
 10
-161.752
 11
-161.49
 20
33.515
 21
33.515
  0
LINE
  8
0
 10
-161.49
 11
-161.233
 20
33.515
 21
33.47
  0
LINE
  8
0
 10
-161.233
 11
-160.987
 20
33.47
 21
33.38
  0
LINE
  8
0
 10
-160.987
 11
-160.76
 20
33.38
 21
33.25
  0
LINE
  8
0
 10
-160.76
 11
-160.56
 20
33.25
 21
33.081
  0
LINE
  8
0
 10
-160.56
 11
-160.392
 20
33.081
 21
32.881
  0
LINE
  8
0
 10
-160.392
 11
-160.261
 20
32.881
 21
32.655
  0
LINE
  8
0
 10
-160.261
 11
-160.172
 20
32.655
 21
32.409
  0
LINE
  8
0
 10
-160.172
 11
-160.127
 20
32.409
 21
32.152
  0
LINE
  8
0
 10
-160.127
 11
-160.127
 20
32.152
 21
31.89
  0
LINE
  8
0
 10
-160.127
 11
-160.172
 20
31.89
 21
31.633
  0
LINE
  8
0
 10
-160.172
 11
-160.261
 20
31.633
 21
31.387
  0
LINE
  8
0
 10
-160.261
 11
-160.392
 20
31.387
 21
31.16
  0
LINE
  8
0
 10
-160.392
 11
-160.56
 20
31.16
 21
30.96
  0
LINE
  8
0
 10
-160.56
 11
-160.76
 20
30.96
 21
30.792
  0
LINE
  8
0
 10
-160.76
 11
-160.987
 20
30.792
 21
30.661
  0
LINE
  8
0
 10
-160.987
 11
-161.233
 20
30.661
 21
30.572
  0
LINE
  8
0
 10
-161.233
 11
-161.49
 20
30.572
 21
30.527
  0
LINE
  8
0
 10
-161.49
 11
-161.752
 20
30.527
 21
30.527
  0
LINE
  8
0
 10
-161.752
 11
-162.009
 20
30.527
 21
30.572
  0
LINE
  8
0
 10
-162.009
 11
-162.255
 20
30.572
 21
30.661
  0
LINE
  8
0
 10
-162.255
 11
-162.481
 20
30.661
 21
30.792
  0
LINE
  8
0
 10
-162.481
 11
-162.681
 20
30.792
 21
30.96
  0
LINE
  8
0
 10
-162.681
 11
-162.85
 20
30.96
 21
31.16
  0
LINE
  8
0
 10
-162.85
 11
-162.98
 20
31.16
 21
31.387
  0
LINE
  8
0
 10
-162.98
 11
-163.07
 20
31.387
 21
31.633
  0
LINE
  8
0
 10
-163.07
 11
-163.115
 20
31.633
 21
31.89
  0
LINE
  8
0
 10
-139.073
 11
-139.073
 20
-32.152
 21
-31.89
  0
LINE
  8
0
 10
-139.073
 11
-139.028
 20
-31.89
 21
-31.633
  0
LINE
  8
0
 10
-139.028
 11
-138.939
 20
-31.633
 21
-31.387
  0
LINE
  8
0
 10
-138.939
 11
-138.808
 20
-31.387
 21
-31.16
  0
LINE
  8
0
 10
-138.808
 11
-138.64
 20
-31.16
 21
-30.96
  0
LINE
  8
0
 10
-138.64
 11
-138.44
 20
-30.96
 21
-30.792
  0
LINE
  8
0
 10
-138.44
 11
-138.213
 20
-30.792
 21
-30.661
  0
LINE
  8
0
 10
-138.213
 11
-137.967
 20
-30.661
 21
-30.572
  0
LINE
  8
0
 10
-137.967
 11
-137.71
 20
-30.572
 21
-30.527
  0
LINE
  8
0
 10
-137.71
 11
-137.448
 20
-30.527
 21
-30.527
  0
LINE
  8
0
 10
-137.448
 11
-137.191
 20
-30.527
 21
-30.572
  0
LINE
  8
0
 10
-137.191
 11
-136.945
 20
-30.572
 21
-30.661
  0
LINE
  8
0
 10
-136.945
 11
-136.719
 20
-30.661
 21
-30.792
  0
LINE
  8
0
 10
-136.719
 11
-136.519
 20
-30.792
 21
-30.96
  0
LINE
  8
0
 10
-136.519
 11
-136.35
 20
-30.96
 21
-31.16
  0
LINE
  8
0
 10
-136.35
 11
-136.22
 20
-31.16
 21
-31.387
  0
LINE
  8
0
 10
-136.22
 11
-136.13
 20
-31.387
 21
-31.633
  0
LINE
  8
0
 10
-136.13
 11
-136.085
 20
-31.633
 21
-31.89
  0
LINE
  8
0
 10
-136.085
 11
-136.085
 20
-31.89
 21
-32.152
  0
LINE
  8
0
 10
-136.085
 11
-136.13
 20
-32.152
 21
-32.409
  0
LINE
  8
0
 10
-136.13
 11
-136.22
 20
-32.409
 21
-32.655
  0
LINE
  8
0
 10
-136.22
 11
-136.35
 20
-32.655
 21
-32.881
  0
LINE
  8
0
 10
-136.35
 11
-136.519
 20
-32.881
 21
-33.081
  0
LINE
  8
0
 10
-136.519
 11
-136.719
 20
-33.081
 21
-33.25
  0
LINE
  8
0
 10
-136.719
 11
-136.945
 20
-33.25
 21
-33.38
  0
LINE
  8
0
 10
-136.945
 11
-137.191
 20
-33.38
 21
-33.47
  0
LINE
  8
0
 10
-137.191
 11
-137.448
 20
-33.47
 21
-33.515
  0
LINE
  8
0
 10
-137.448
 11
-137.71
 20
-33.515
 21
-33.515
  0
LINE
  8
0
 10
-137.71
 11
-137.967
 20
-33.515
 21
-33.47
  0
LINE
  8
0
 10
-137.967
 11
-138.213
 20
-33.47
 21
-33.38
  0
LINE
  8
0
 10
-138.213
 11
-138.44
 20
-33.38
 21
-33.25
  0
LINE
  8
0
 10
-138.44
 11
-138.64
 20
-33.25
 21
-33.081
  0
LINE
  8
0
 10
-138.64
 11
-138.808
 20
-33.081
 21
-32.881
  0
LINE
  8
0
 10
-138.808
 11
-138.939
 20
-32.881
 21
-32.655
  0
LINE
  8
0
 10
-138.939
 11
-139.028
 20
-32.655
 21
-32.409
  0
LINE
  8
0
 10
-139.028
 11
-139.073
 20
-32.409
 21
-32.152
  0
LINE
  8
0
 10
-139.073
 11
-139.073
 20
7.848
 21
8.11
  0
LINE
  8
0
 10
-139.073
 11
-139.028
 20
8.11
 21
8.367
  0
LINE
  8
0
 10
-139.028
 11
-138.939
 20
8.367
 21
8.613
  0
LINE
  8
0
 10
-138.939
 11
-138.808
 20
8.613
 21
8.84
  0
LINE
  8
0
 10
-138.808
 11
-138.64
 20
8.84
 21
9.04
  0
LINE
  8
0
 10
-138.64
 11
-138.44
 20
9.04
 21
9.208
  0
LINE
  8
0
 10
-138.44
 11
-138.213
 20
9.208
 21
9.339
  0
LINE
  8
0
 10
-138.213
 11
-137.967
 20
9.339
 21
9.428
  0
LINE
  8
0
 10
-137.967
 11
-137.71
 20
9.428
 21
9.473
  0
LINE
  8
0
 10
-137.71
 11
-137.448
 20
9.473
 21
9.473
  0
LINE
  8
0
 10
-137.448
 11
-137.191
 20
9.473
 21
9.428
  0
LINE
  8
0
 10
-137.191
 11
-136.945
 20
9.428
 21
9.339
  0
LINE
  8
0
 10
-136.945
 11
-136.719
 20
9.339
 21
9.208
  0
LINE
  8
0
 10
-136.719
 11
-136.519
 20
9.208
 21
9.04
  0
LINE
  8
0
 10
-136.519
 11
-136.35
 20
9.04
 21
8.84
  0
LINE
  8
0
 10
-136.35
 11
-136.22
 20
8.84
 21
8.613
  0
LINE
  8
0
 10
-136.22
 11
-136.13
 20
8.613
 21
8.367
  0
LINE
  8
0
 10
-136.13
 11
-136.085
 20
8.367
 21
8.11
  0
LINE
  8
0
 10
-136.085
 11
-136.085
 20
8.11
 21
7.848
  0
LINE
  8
0
 10
-136.085
 11
-136.13
 20
7.848
 21
7.591
  0
LINE
  8
0
 10
-136.13
 11
-136.22
 20
7.591
 21
7.345
  0
LINE
  8
0
 10
-136.22
 11
-136.35
 20
7.345
 21
7.119
  0
LINE
  8
0
 10
-136.35
 11
-136.519
 20
7.119
 21
6.919
  0
LINE
  8
0
 10
-136.519
 11
-136.719
 20
6.919
 21
6.75
  0
LINE
  8
0
 10
-136.719
 11
-136.945
 20
6.75
 21
6.62
  0
LINE
  8
0
 10
-136.945
 11
-137.191
 20
6.62
 21
6.53
  0
LINE
  8
0
 10
-137.191
 11
-137.448
 20
6.53
 21
6.485
  0
LINE
  8
0
 10
-137.448
 11
-137.71
 20
6.485
 21
6.485
  0
LINE
  8
0
 10
-137.71
 11
-137.967
 20
6.485
 21
6.53
  0
LINE
  8
0
 10
-137.967
 11
-138.213
 20
6.53
 21
6.62
  0
LINE
  8
0
 10
-138.213
 11
-138.44
 20
6.62
 21
6.75
  0
LINE
  8
0
 10
-138.44
 11
-138.64
 20
6.75
 21
6.919
  0
LINE
  8
0
 10
-138.64
 11
-138.808
 20
6.919
 21
7.119
  0
LINE
  8
0
 10
-138.808
 11
-138.939
 20
7.119
 21
7.345
  0
LINE
  8
0
 10
-138.939
 11
-139.028
 20
7.345
 21
7.591
  0
LINE
  8
0
 10
-139.028
 11
-139.073
 20
7.591
 21
7.848
  0
LINE
  8
0
 10
-102.146
 11
-102.146
 20
-25.988
 21
-24.012
  0
LINE
  8
0
 10
-102.146
 11
-101.343
 20
-24.012
 21
-22.208
  0
LINE
  8
0
 10
-101.343
 11
-99.875
 20
-22.208
 21
-20.886
  0
LINE
  8
0
 10
-99.875
 11
-97.997
 20
-20.886
 21
-20.276
  0
LINE
  8
0
 10
-97.997
 11
-96.032
 20
-20.276
 21
-20.482
  0
LINE
  8
0
 10
-96.032
 11
-94.322
 20
-20.482
 21
-21.47
  0
LINE
  8
0
 10
-94.322
 11
-93.161
 20
-21.47
 21
-23.068
  0
LINE
  8
0
 10
-93.161
 11
-92.75
 20
-23.068
 21
-25
  0
LINE
  8
0
 10
-92.75
 11
-93.161
 20
-25
 21
-26.932
  0
LINE
  8
0
 10
-93.161
 11
-94.322
 20
-26.932
 21
-28.53
  0
LINE
  8
0
 10
-94.322
 11
-96.032
 20
-28.53
 21
-29.518
  0
LINE
  8
0
 10
-96.032
 11
-97.997
 20
-29.518
 21
-29.724
  0
LINE
  8
0
 10
-97.997
 11
-99.875
 20
-29.724
 21
-29.114
  0
LINE
  8
0
 10
-99.875
 11
-101.343
 20
-29.114
 21
-27.792
  0
LINE
  8
0
 10
-101.343
 11
-102.146
 20
-27.792
 21
-25.988
  0
LINE
  8
0
 10
-102.146
 11
-102.146
 20
24.012
 21
25.988
  0
LINE
  8
0
 10
-102.146
 11
-101.343
 20
25.988
 21
27.792
  0
LINE
  8
0
 10
-101.343
 11
-99.875
 20
27.792
 21
29.114
  0
LINE
  8
0
 10
-99.875
 11
-97.997
 20
29.114
 21
29.724
  0
LINE
  8
0
 10
-97.997
 11
-96.032
 20
29.724
 21
29.518
  0
LINE
  8
0
 10
-96.032
 11
-94.322
 20
29.518
 21
28.53
  0
LINE
  8
0
 10
-94.322
 11
-93.161
 20
28.53
 21
26.932
  0
LINE
  8
0
 10
-93.161
 11
-92.75
 20
26.932
 21
25
  0
LINE
  8
0
 10
-92.75
 11
-93.161
 20
25
 21
23.068
  0
LINE
  8
0
 10
-93.161
 11
-94.322
 20
23.068
 21
21.47
  0
LINE
  8
0
 10
-94.322
 11
-96.032
 20
21.47
 21
20.482
  0
LINE
  8
0
 10
-96.032
 11
-97.997
 20
20.482
 21
20.276
  0
LINE
  8
0
 10
-97.997
 11
-99.875
 20
20.276
 21
20.886
  0
LINE
  8
0
 10
-99.875
 11
-101.343
 20
20.886
 21
22.208
  0
LINE
  8
0
 10
-101.343
 11
-102.146
 20
22.208
 21
24.012
  0
LINE
  8
0
 10
-51.91
 11
-51.88
 20
-39.89
 21
-39.543
  0
LINE
  8
0
 10
-51.88
 11
-51.789
 20
-39.543
 21
-39.206
  0
LINE
  8
0
 10
-51.789
 11
-51.642
 20
-39.206
 21
-38.89
  0
LINE
  8
0
 10
-51.642
 11
-51.442
 20
-38.89
 21
-38.604
  0
LINE
  8
0
 10
-51.442
 11
-51.196
 20
-38.604
 21
-38.358
  0
LINE
  8
0
 10
-51.196
 11
-50.91
 20
-38.358
 21
-38.158
  0
LINE
  8
0
 10
-50.91
 11
-50.594
 20
-38.158
 21
-38.011
  0
LINE
  8
0
 10
-50.594
 11
-50.257
 20
-38.011
 21
-37.92
  0
LINE
  8
0
 10
-50.257
 11
-49.91
 20
-37.92
 21
-37.89
  0
LINE
  8
0
 10
-49.91
 11
-49.563
 20
-37.89
 21
-37.92
  0
LINE
  8
0
 10
-49.563
 11
-49.226
 20
-37.92
 21
-38.011
  0
LINE
  8
0
 10
-49.226
 11
-48.91
 20
-38.011
 21
-38.158
  0
LINE
  8
0
 10
-48.91
 11
-48.624
 20
-38.158
 21
-38.358
  0
LINE
  8
0
 10
-48.624
 11
-48.378
 20
-38.358
 21
-38.604
  0
LINE
  8
0
 10
-48.378
 11
-48.178
 20
-38.604
 21
-38.89
  0
LINE
  8
0
 10
-48.178
 11
-48.031
 20
-38.89
 21
-39.206
  0
LINE
  8
0
 10
-48.031
 11
-47.94
 20
-39.206
 21
-39.543
  0
LINE
  8
0
 10
-47.94
 11
-47.91
 20
-39.543
 21
-39.89
  0
LINE
  8
0
 10
-47.91
 11
-47.94
 20
-39.89
 21
-40.237
  0
LINE
  8
0
 10
-47.94
 11
-48.031
 20
-40.237
 21
-40.574
  0
LINE
  8
0
 10
-48.031
 11
-48.178
 20
-40.574
 21
-40.89
  0
LINE
  8
0
 10
-48.178
 11
-48.378
 20
-40.89
 21
-41.176
  0
LINE
  8
0
 10
-48.378
 11
-48.624
 20
-41.176
 21
-41.422
  0
LINE
  8
0
 10
-48.624
 11
-48.91
 20
-41.422
 21
-41.622
  0
LINE
  8
0
 10
-48.91
 11
-49.226
 20
-41.622
 21
-41.769
  0
LINE
  8
0
 10
-49.226
 11
-49.563
 20
-41.769
 21
-41.86
  0
LINE
  8
0
 10
-49.563
 11
-49.91
 20
-41.86
 21
-41.89
  0
LINE
  8
0
 10
-49.91
 11
-50.257
 20
-41.89
 21
-41.86
  0
LINE
  8
0
 10
-50.257
 11
-50.594
 20
-41.86
 21
-41.769
  0
LINE
  8
0
 10
-50.594
 11
-50.91
 20
-41.769
 21
-41.622
  0
LINE
  8
0
 10
-50.91
 11
-51.196
 20
-41.622
 21
-41.422
  0
LINE
  8
0
 10
-51.196
 11
-51.442
 20
-41.422
 21
-41.176
  0
LINE
  8
0
 10
-51.442
 11
-51.642
 20
-41.176
 21
-40.89
  0
LINE
  8
0
 10
-51.642
 11
-51.789
 20
-40.89
 21
-40.574
  0
LINE
  8
0
 10
-51.789
 11
-51.88
 20
-40.574
 21
-40.237
  0
LINE
  8
0
 10
-51.88
 11
-51.91
 20
-40.237
 21
-39.89
  0
LINE
  8
0
 10
-51.91
 11
-51.88
 20
39.89
 21
40.237
  0
LINE
  8
0
 10
-51.88
 11
-51.789
 20
40.237
 21
40.574
  0
LINE
  8
0
 10
-51.789
 11
-51.642
 20
40.574
 21
40.89
  0
LINE
  8
0
 10
-51.642
 11
-51.442
 20
40.89
 21
41.176
  0
LINE
  8
0
 10
-51.442
 11
-51.196
 20
41.176
 21
41.422
  0
LINE
  8
0
 10
-51.196
 11
-50.91
 20
41.422
 21
41.622
  0
LINE
  8
0
 10
-50.91
 11
-50.594
 20
41.622
 21
41.769
  0
LINE
  8
0
 10
-50.594
 11
-50.257
 20
41.769
 21
41.86
  0
LINE
  8
0
 10
-50.257
 11
-49.91
 20
41.86
 21
41.89
  0
LINE
  8
0
 10
-49.91
 11
-49.563
 20
41.89
 21
41.86
  0
LINE
  8
0
 10
-49.563
 11
-49.226
 20
41.86
 21
41.769
  0
LINE
  8
0
 10
-49.226
 11
-48.91
 20
41.769
 21
41.622
  0
LINE
  8
0
 10
-48.91
 11
-48.624
 20
41.622
 21
41.422
  0
LINE
  8
0
 10
-48.624
 11
-48.378
 20
41.422
 21
41.176
  0
LINE
  8
0
 10
-48.378
 11
-48.178
 20
41.176
 21
40.89
  0
LINE
  8
0
 10
-48.178
 11
-48.031
 20
40.89
 21
40.574
  0
LINE
  8
0
 10
-48.031
 11
-47.94
 20
40.574
 21
40.237
  0
LINE
  8
0
 10
-47.94
 11
-47.91
 20
40.237
 21
39.89
  0
LINE
  8
0
 10
-47.91
 11
-47.94
 20
39.89
 21
39.543
  0
LINE
  8
0
 10
-47.94
 11
-48.031
 20
39.543
 21
39.206
  0
LINE
  8
0
 10
-48.031
 11
-48.178
 20
39.206
 21
38.89
  0
LINE
  8
0
 10
-48.178
 11
-48.378
 20
38.89
 21
38.604
  0
LINE
  8
0
 10
-48.378
 11
-48.624
 20
38.604
 21
38.358
  0
LINE
  8
0
 10
-48.624
 11
-48.91
 20
38.358
 21
38.158
  0
LINE
  8
0
 10
-48.91
 11
-49.226
 20
38.158
 21
38.011
  0
LINE
  8
0
 10
-49.226
 11
-49.563
 20
38.011
 21
37.92
  0
LINE
  8
0
 10
-49.563
 11
-49.91
 20
37.92
 21
37.89
  0
LINE
  8
0
 10
-49.91
 11
-50.257
 20
37.89
 21
37.92
  0
LINE
  8
0
 10
-50.257
 11
-50.594
 20
37.92
 21
38.011
  0
LINE
  8
0
 10
-50.594
 11
-50.91
 20
38.011
 21
38.158
  0
LINE
  8
0
 10
-50.91
 11
-51.196
 20
38.158
 21
38.358
  0
LINE
  8
0
 10
-51.196
 11
-51.442
 20
38.358
 21
38.604
  0
LINE
  8
0
 10
-51.442
 11
-51.642
 20
38.604
 21
38.89
  0
LINE
  8
0
 10
-51.642
 11
-51.789
 20
38.89
 21
39.206
  0
LINE
  8
0
 10
-51.789
 11
-51.88
 20
39.206
 21
39.543
  0
LINE
  8
0
 10
-51.88
 11
-51.91
 20
39.543
 21
39.89
  0
LINE
  8
0
 10
-33.5
 11
-32.768
 20
-15.365
 21
-8.4
  0
LINE
  8
0
 10
-32.768
 11
-30.604
 20
-8.4
 21
-1.739
  0
LINE
  8
0
 10
-30.604
 11
-27.102
 20
-1.739
 21
4.326
  0
LINE
  8
0
 10
-27.102
 11
-22.416
 20
4.326
 21
9.53
  0
LINE
  8
0
 10
-22.416
 11
-16.75
 20
9.53
 21
13.647
  0
LINE
  8
0
 10
-16.75
 11
-10.352
 20
13.647
 21
16.495
  0
LINE
  8
0
 10
-10.352
 11
-3.502
 20
16.495
 21
17.951
  0
LINE
  8
0
 10
-3.502
 11
3.502
 20
17.951
 21
17.951
  0
LINE
  8
0
 10
3.502
 11
10.352
 20
17.951
 21
16.495
  0
LINE
  8
0
 10
10.352
 11
16.75
 20
16.495
 21
13.647
  0
LINE
  8
0
 10
16.75
 11
22.416
 20
13.647
 21
9.53
  0
LINE
  8
0
 10
22.416
 11
27.102
 20
9.53
 21
4.326
  0
LINE
  8
0
 10
27.102
 11
30.604
 20
4.326
 21
-1.739
  0
LINE
  8
0
 10
30.604
 11
32.768
 20
-1.739
 21
-8.4
  0
LINE
  8
0
 10
32.768
 11
33.5
 20
-8.4
 21
-15.365
  0
LINE
  8
0
 10
33.5
 11
32.768
 20
-15.365
 21
-22.33
  0
LINE
  8
0
 10
32.768
 11
30.604
 20
-22.33
 21
-28.991
  0
LINE
  8
0
 10
30.604
 11
27.102
 20
-28.991
 21
-35.056
  0
LINE
  8
0
 10
27.102
 11
22.416
 20
-35.056
 21
-40.26
  0
LINE
  8
0
 10
22.416
 11
16.75
 20
-40.26
 21
-44.377
  0
LINE
  8
0
 10
16.75
 11
10.352
 20
-44.377
 21
-47.225
  0
LINE
  8
0
 10
10.352
 11
3.502
 20
-47.225
 21
-48.681
  0
LINE
  8
0
 10
3.502
 11
-3.502
 20
-48.681
 21
-48.681
  0
LINE
  8
0
 10
-3.502
 11
-10.352
 20
-48.681
 21
-47.225
  0
LINE
  8
0
 10
-10.352
 11
-16.75
 20
-47.225
 21
-44.377
  0
LINE
  8
0
 10
-16.75
 11
-22.416
 20
-44.377
 21
-40.26
  0
LINE
  8
0
 10
-22.416
 11
-27.102
 20
-40.26
 21
-35.056
  0
LINE
  8
0
 10
-27.102
 11
-30.604
 20
-35.056
 21
-28.991
  0
LINE
  8
0
 10
-30.604
 11
-32.768
 20
-28.991
 21
-22.33
  0
LINE
  8
0
 10
-32.768
 11
-33.5
 20
-22.33
 21
-15.365
  0
LINE
  8
0
 10
47.91
 11
47.94
 20
-39.89
 21
-39.543
  0
LINE
  8
0
 10
47.94
 11
48.031
 20
-39.543
 21
-39.206
  0
LINE
  8
0
 10
48.031
 11
48.178
 20
-39.206
 21
-38.89
  0
LINE
  8
0
 10
48.178
 11
48.378
 20
-38.89
 21
-38.604
  0
LINE
  8
0
 10
48.378
 11
48.624
 20
-38.604
 21
-38.358
  0
LINE
  8
0
 10
48.624
 11
48.91
 20
-38.358
 21
-38.158
  0
LINE
  8
0
 10
48.91
 11
49.226
 20
-38.158
 21
-38.011
  0
LINE
  8
0
 10
49.226
 11
49.563
 20
-38.011
 21
-37.92
  0
LINE
  8
0
 10
49.563
 11
49.91
 20
-37.92
 21
-37.89
  0
LINE
  8
0
 10
49.91
 11
50.257
 20
-37.89
 21
-37.92
  0
LINE
  8
0
 10
50.257
 11
50.594
 20
-37.92
 21
-38.011
  0
LINE
  8
0
 10
50.594
 11
50.91
 20
-38.011
 21
-38.158
  0
LINE
  8
0
 10
50.91
 11
51.196
 20
-38.158
 21
-38.358
  0
LINE
  8
0
 10
51.196
 11
51.442
 20
-38.358
 21
-38.604
  0
LINE
  8
0
 10
51.442
 11
51.642
 20
-38.604
 21
-38.89
  0
LINE
  8
0
 10
51.642
 11
51.789
 20
-38.89
 21
-39.206
  0
LINE
  8
0
 10
51.789
 11
51.88
 20
-39.206
 21
-39.543
  0
LINE
  8
0
 10
51.88
 11
51.91
 20
-39.543
 21
-39.89
  0
LINE
  8
0
 10
51.91
 11
51.88
 20
-39.89
 21
-40.237
  0
LINE
  8
0
 10
51.88
 11
51.789
 20
-40.237
 21
-40.574
  0
LINE
  8
0
 10
51.789
 11
51.642
 20
-40.574
 21
-40.89
  0
LINE
  8
0
 10
51.642
 11
51.442
 20
-40.89
 21
-41.176
  0
LINE
  8
0
 10
51.442
 11
51.196
 20
-41.176
 21
-41.422
  0
LINE
  8
0
 10
51.196
 11
50.91
 20
-41.422
 21
-41.622
  0
LINE
  8
0
 10
50.91
 11
50.594
 20
-41.622
 21
-41.769
  0
LINE
  8
0
 10
50.594
 11
50.257
 20
-41.769
 21
-41.86
  0
LINE
  8
0
 10
50.257
 11
49.91
 20
-41.86
 21
-41.89
  0
LINE
  8
0
 10
49.91
 11
49.563
 20
-41.89
 21
-41.86
  0
LINE
  8
0
 10
49.563
 11
49.226
 20
-41.86
 21
-41.769
  0
LINE
  8
0
 10
49.226
 11
48.91
 20
-41.769
 21
-41.622
  0
LINE
  8
0
 10
48.91
 11
48.624
 20
-41.622
 21
-41.422
  0
LINE
  8
0
 10
48.624
 11
48.378
 20
-41.422
 21
-41.176
  0
LINE
  8
0
 10
48.378
 11
48.178
 20
-41.176
 21
-40.89
  0
LINE
  8
0
 10
48.178
 11
48.031
 20
-40.89
 21
-40.574
  0
LINE
  8
0
 10
48.031
 11
47.94
 20
-40.574
 21
-40.237
  0
LINE
  8
0
 10
47.94
 11
47.91
 20
-40.237
 21
-39.89
  0
LINE
  8
0
 10
47.91
 11
47.94
 20
39.89
 21
40.237
  0
LINE
  8
0
 10
47.94
 11
48.031
 20
40.237
 21
40.574
  0
LINE
  8
0
 10
48.031
 11
48.178
 20
40.574
 21
40.89
  0
LINE
  8
0
 10
48.178
 11
48.378
 20
40.89
 21
41.176
  0
LINE
  8
0
 10
48.378
 11
48.624
 20
41.176
 21
41.422
  0
LINE
  8
0
 10
48.624
 11
48.91
 20
41.422
 21
41.622
  0
LINE
  8
0
 10
48.91
 11
49.226
 20
41.622
 21
41.769
  0
LINE
  8
0
 10
49.226
 11
49.563
 20
41.769
 21
41.86
  0
LINE
  8
0
 10
49.563
 11
49.91
 20
41.86
 21
41.89
  0
LINE
  8
0
 10
49.91
 11
50.257
 20
41.89
 21
41.86
  0
LINE
  8
0
 10
50.257
 11
50.594
 20
41.86
 21
41.769
  0
LINE
  8
0
 10
50.594
 11
50.91
 20
41.769
 21
41.622
  0
LINE
  8
0
 10
50.91
 11
51.196
 20
41.622
 21
41.422
  0
LINE
  8
0
 10
51.196
 11
51.442
 20
41.422
 21
41.176
  0
LINE
  8
0
 10
51.442
 11
51.642
 20
41.176
 21
40.89
  0
LINE
  8
0
 10
51.642
 11
51.789
 20
40.89
 21
40.574
  0
LINE
  8
0
 10
51.789
 11
51.88
 20
40.574
 21
40.237
  0
LINE
  8
0
 10
51.88
 11
51.91
 20
40.237
 21
39.89
  0
LINE
  8
0
 10
51.91
 11
51.88
 20
39.89
 21
39.543
  0
LINE
  8
0
 10
51.88
 11
51.789
 20
39.543
 21
39.206
  0
LINE
  8
0
 10
51.789
 11
51.642
 20
39.206
 21
38.89
  0
LINE
  8
0
 10
51.642
 11
51.442
 20
38.89
 21
38.604
  0
LINE
  8
0
 10
51.442
 11
51.196
 20
38.604
 21
38.358
  0
LINE
  8
0
 10
51.196
 11
50.91
 20
38.358
 21
38.158
  0
LINE
  8
0
 10
50.91
 11
50.594
 20
38.158
 21
38.011
  0
LINE
  8
0
 10
50.594
 11
50.257
 20
38.011
 21
37.92
  0
LINE
  8
0
 10
50.257
 11
49.91
 20
37.92
 21
37.89
  0
LINE
  8
0
 10
49.91
 11
49.563
 20
37.89
 21
37.92
  0
LINE
  8
0
 10
49.563
 11
49.226
 20
37.92
 21
38.011
  0
LINE
  8
0
 10
49.226
 11
48.91
 20
38.011
 21
38.158
  0
LINE
  8
0
 10
48.91
 11
48.624
 20
38.158
 21
38.358
  0
LINE
  8
0
 10
48.624
 11
48.378
 20
38.358
 21
38.604
  0
LINE
  8
0
 10
48.378
 11
48.178
 20
38.604
 21
38.89
  0
LINE
  8
0
 10
48.178
 11
48.031
 20
38.89
 21
39.206
  0
LINE
  8
0
 10
48.031
 11
47.94
 20
39.206
 21
39.543
  0
LINE
  8
0
 10
47.94
 11
47.91
 20
39.543
 21
39.89
  0
LINE
  8
0
 10
105.854
 11
105.854
 20
-0.988
 21
0.988
  0
LINE
  8
0
 10
105.854
 11
106.657
 20
0.988
 21
2.792
  0
LINE
  8
0
 10
106.657
 11
108.125
 20
2.792
 21
4.114
  0
LINE
  8
0
 10
108.125
 11
110.003
 20
4.114
 21
4.724
  0
LINE
  8
0
 10
110.003
 11
111.968
 20
4.724
 21
4.518
  0
LINE
  8
0
 10
111.968
 11
113.678
 20
4.518
 21
3.53
  0
LINE
  8
0
 10
113.678
 11
114.839
 20
3.53
 21
1.932
  0
LINE
  8
0
 10
114.839
 11
115.25
 20
1.932
 21
0
  0
LINE
  8
0
 10
115.25
 11
114.839
 20
0
 21
-1.932
  0
LINE
  8
0
 10
114.839
 11
113.678
 20
-1.932
 21
-3.53
  0
LINE
  8
0
 10
113.678
 11
111.968
 20
-3.53
 21
-4.518
  0
LINE
  8
0
 10
111.968
 11
110.003
 20
-4.518
 21
-4.724
  0
LINE
  8
0
 10
110.003
 11
108.125
 20
-4.724
 21
-4.114
  0
LINE
  8
0
 10
108.125
 11
106.657
 20
-4.114
 21
-2.792
  0
LINE
  8
0
 10
106.657
 11
105.854
 20
-2.792
 21
-0.988
  0
LINE
  8
0
 10
128.912
 11
129.113
 20
-38.1
 21
-37.35
  0
LINE
  8
0
 10
129.113
 11
129.662
 20
-37.35
 21
-36.801
  0
LINE
  8
0
 10
129.662
 11
130.412
 20
-36.801
 21
-36.6
  0
LINE
  8
0
 10
130.412
 11
131.162
 20
-36.6
 21
-36.801
  0
LINE
  8
0
 10
131.162
 11
131.711
 20
-36.801
 21
-37.35
  0
LINE
  8
0
 10
131.711
 11
131.912
 20
-37.35
 21
-38.1
  0
LINE
  8
0
 10
131.912
 11
131.711
 20
-38.1
 21
-38.85
  0
LINE
  8
0
 10
131.711
 11
131.162
 20
-38.85
 21
-39.399
  0
LINE
  8
0
 10
131.162
 11
130.412
 20
-39.399
 21
-39.6
  0
LINE
  8
0
 10
130.412
 11
129.662
 20
-39.6
 21
-39.399
  0
LINE
  8
0
 10
129.662
 11
129.113
 20
-39.399
 21
-38.85
  0
LINE
  8
0
 10
129.113
 11
128.912
 20
-38.85
 21
-38.1
  0
LINE
  8
0
 10
133.5
 11
133.773
 20
-29.1
 21
-26.501
  0
LINE
  8
0
 10
133.773
 11
134.581
 20
-26.501
 21
-24.016
  0
LINE
  8
0
 10
134.581
 11
135.887
 20
-24.016
 21
-21.753
  0
LINE
  8
0
 10
135.887
 11
137.636
 20
-21.753
 21
-19.811
  0
LINE
  8
0
 10
137.636
 11
139.75
 20
-19.811
 21
-18.275
  0
LINE
  8
0
 10
139.75
 11
142.137
 20
-18.275
 21
-17.212
  0
LINE
  8
0
 10
142.137
 11
144.693
 20
-17.212
 21
-16.668
  0
LINE
  8
0
 10
144.693
 11
147.307
 20
-16.668
 21
-16.668
  0
LINE
  8
0
 10
147.307
 11
149.863
 20
-16.668
 21
-17.212
  0
LINE
  8
0
 10
149.863
 11
152.25
 20
-17.212
 21
-18.275
  0
LINE
  8
0
 10
152.25
 11
154.364
 20
-18.275
 21
-19.811
  0
LINE
  8
0
 10
154.364
 11
156.113
 20
-19.811
 21
-21.753
  0
LINE
  8
0
 10
156.113
 11
157.419
 20
-21.753
 21
-24.016
  0
LINE
  8
0
 10
157.419
 11
158.227
 20
-24.016
 21
-26.501
  0
LINE
  8
0
 10
158.227
 11
158.5
 20
-26.501
 21
-29.1
  0
LINE
  8
0
 10
158.5
 11
158.227
 20
-29.1
 21
-31.699
  0
LINE
  8
0
 10
158.227
 11
157.419
 20
-31.699
 21
-34.184
  0
LINE
  8
0
 10
157.419
 11
156.113
 20
-34.184
 21
-36.447
  0
LINE
  8
0
 10
156.113
 11
154.364
 20
-36.447
 21
-38.389
  0
LINE
  8
0
 10
154.364
 11
152.25
 20
-38.389
 21
-39.925
  0
LINE
  8
0
 10
152.25
 11
149.863
 20
-39.925
 21
-40.988
  0
LINE
  8
0
 10
149.863
 11
147.307
 20
-40.988
 21
-41.532
  0
LINE
  8
0
 10
147.307
 11
144.693
 20
-41.532
 21
-41.532
  0
LINE
  8
0
 10
144.693
 11
142.137
 20
-41.532
 21
-40.988
  0
LINE
  8
0
 10
142.137
 11
139.75
 20
-40.988
 21
-39.925
  0
LINE
  8
0
 10
139.75
 11
137.636
 20
-39.925
 21
-38.389
  0
LINE
  8
0
 10
137.636
 11
135.887
 20
-38.389
 21
-36.447
  0
LINE
  8
0
 10
135.887
 11
134.581
 20
-36.447
 21
-34.184
  0
LINE
  8
0
 10
134.581
 11
133.773
 20
-34.184
 21
-31.699
  0
LINE
  8
0
 10
133.773
 11
133.5
 20
-31.699
 21
-29.1
  0
LINE
  8
0
 10
144.5
 11
144.701
 20
-11.1
 21
-10.35
  0
LINE
  8
0
 10
144.701
 11
145.25
 20
-10.35
 21
-9.801
  0
LINE
  8
0
 10
145.25
 11
146
 20
-9.801
 21
-9.6
  0
LINE
  8
0
 10
146
 11
146.75
 20
-9.6
 21
-9.801
  0
LINE
  8
0
 10
146.75
 11
147.299
 20
-9.801
 21
-10.35
  0
LINE
  8
0
 10
147.299
 11
147.5
 20
-10.35
 21
-11.1
  0
LINE
  8
0
 10
147.5
 11
147.299
 20
-11.1
 21
-11.85
  0
LINE
  8
0
 10
147.299
 11
146.75
 20
-11.85
 21
-12.399
  0
LINE
  8
0
 10
146.75
 11
146
 20
-12.399
 21
-12.6
  0
LINE
  8
0
 10
146
 11
145.25
 20
-12.6
 21
-12.399
  0
LINE
  8
0
 10
145.25
 11
144.701
 20
-12.399
 21
-11.85
  0
LINE
  8
0
 10
144.701
 11
144.5
 20
-11.85
 21
-11.1
  0
LINE
  8
0
 10
160.088
 11
160.289
 20
-38.1
 21
-37.35
  0
LINE
  8
0
 10
160.289
 11
160.838
 20
-37.35
 21
-36.801
  0
LINE
  8
0
 10
160.838
 11
161.588
 20
-36.801
 21
-36.6
  0
LINE
  8
0
 10
161.588
 11
162.338
 20
-36.6
 21
-36.801
  0
LINE
  8
0
 10
162.338
 11
162.887
 20
-36.801
 21
-37.35
  0
LINE
  8
0
 10
162.887
 11
163.088
 20
-37.35
 21
-38.1
  0
LINE
  8
0
 10
163.088
 11
162.887
 20
-38.1
 21
-38.85
  0
LINE
  8
0
 10
162.887
 11
162.338
 20
-38.85
 21
-39.399
  0
LINE
  8
0
 10
162.338
 11
161.588
 20
-39.399
 21
-39.6
  0
LINE
  8
0
 10
161.588
 11
160.838
 20
-39.6
 21
-39.399
  0
LINE
  8
0
 10
160.838
 11
160.289
 20
-39.399
 21
-38.85
  0
LINE
  8
0
 10
160.289
 11
160.088
 20
-38.85
 21
-38.1
  0
LINE
  8
0
 10
177.73
 11
177.949
 20
20
 21
21.947
  0
LINE
  8
0
 10
177.949
 11
178.597
 20
21.947
 21
23.796
  0
LINE
  8
0
 10
178.597
 11
179.639
 20
23.796
 21
25.456
  0
LINE
  8
0
 10
179.639
 11
181.024
 20
25.456
 21
26.841
  0
LINE
  8
0
 10
181.024
 11
182.684
 20
26.841
 21
27.883
  0
LINE
  8
0
 10
182.684
 11
184.533
 20
27.883
 21
28.531
  0
LINE
  8
0
 10
184.533
 11
186.48
 20
28.531
 21
28.75
  0
LINE
  8
0
 10
186.48
 11
188.427
 20
28.75
 21
28.531
  0
LINE
  8
0
 10
188.427
 11
190.276
 20
28.531
 21
27.883
  0
LINE
  8
0
 10
190.276
 11
191.936
 20
27.883
 21
26.841
  0
LINE
  8
0
 10
191.936
 11
193.321
 20
26.841
 21
25.456
  0
LINE
  8
0
 10
193.321
 11
194.363
 20
25.456
 21
23.796
  0
LINE
  8
0
 10
194.363
 11
195.011
 20
23.796
 21
21.947
  0
LINE
  8
0
 10
195.011
 11
195.23
 20
21.947
 21
20
  0
LINE
  8
0
 10
195.23
 11
195.011
 20
20
 21
18.053
  0
LINE
  8
0
 10
195.011
 11
194.363
 20
18.053
 21
16.204
  0
LINE
  8
0
 10
194.363
 11
193.321
 20
16.204
 21
14.544
  0
LINE
  8
0
 10
193.321
 11
191.936
 20
14.544
 21
13.159
  0
LINE
  8
0
 10
191.936
 11
190.276
 20
13.159
 21
12.117
  0
LINE
  8
0
 10
190.276
 11
188.427
 20
12.117
 21
11.469
  0
LINE
  8
0
 10
188.427
 11
186.48
 20
11.469
 21
11.25
  0
LINE
  8
0
 10
186.48
 11
184.533
 20
11.25
 21
11.469
  0
LINE
  8
0
 10
184.533
 11
182.684
 20
11.469
 21
12.117
  0
LINE
  8
0
 10
182.684
 11
181.024
 20
12.117
 21
13.159
  0
LINE
  8
0
 10
181.024
 11
179.639
 20
13.159
 21
14.544
  0
LINE
  8
0
 10
179.639
 11
178.597
 20
14.544
 21
16.204
  0
LINE
  8
0
 10
178.597
 11
177.949
 20
16.204
 21
18.053
  0
LINE
  8
0
 10
177.949
 11
177.73
 20
18.053
 21
20
  0
LINE
  8
0
 10
180.562
 11
180.562
 20
-20.988
 21
-19.012
  0
LINE
  8
0
 10
180.562
 11
181.203
 20
-19.012
 21
-17.144
  0
LINE
  8
0
 10
181.203
 11
182.416
 20
-17.144
 21
-15.586
  0
LINE
  8
0
 10
182.416
 11
184.07
 20
-15.586
 21
-14.505
  0
LINE
  8
0
 10
184.07
 11
185.985
 20
-14.505
 21
-14.02
  0
LINE
  8
0
 10
185.985
 11
187.953
 20
-14.02
 21
-14.184
  0
LINE
  8
0
 10
187.953
 11
189.762
 20
-14.184
 21
-14.977
  0
LINE
  8
0
 10
189.762
 11
191.215
 20
-14.977
 21
-16.315
  0
LINE
  8
0
 10
191.215
 11
192.155
 20
-16.315
 21
-18.052
  0
LINE
  8
0
 10
192.155
 11
192.48
 20
-18.052
 21
-20
  0
LINE
  8
0
 10
192.48
 11
192.155
 20
-20
 21
-21.948
  0
LINE
  8
0
 10
192.155
 11
191.215
 20
-21.948
 21
-23.685
  0
LINE
  8
0
 10
191.215
 11
189.762
 20
-23.685
 21
-25.023
  0
LINE
  8
0
 10
189.762
 11
187.953
 20
-25.023
 21
-25.816
  0
LINE
  8
0
 10
187.953
 11
185.985
 20
-25.816
 21
-25.98
  0
LINE
  8
0
 10
185.985
 11
184.07
 20
-25.98
 21
-25.495
  0
LINE
  8
0
 10
184.07
 11
182.416
 20
-25.495
 21
-24.414
  0
LINE
  8
0
 10
182.416
 11
181.203
 20
-24.414
 21
-22.856
  0
LINE
  8
0
 10
181.203
 11
180.562
 20
-22.856
 21
-20.988
  0
LINE
  8
0
 10
222.798
 11
222.798
 20
-40.718
 21
-38.982
  0
LINE
  8
0
 10
222.798
 11
224.155
 20
-38.982
 21
-37.9
  0
LINE
  8
0
 10
224.155
 11
225.847
 20
-37.9
 21
-38.286
  0
LINE
  8
0
 10
225.847
 11
226.6
 20
-38.286
 21
-39.85
  0
LINE
  8
0
 10
226.6
 11
225.847
 20
-39.85
 21
-41.414
  0
LINE
  8
0
 10
225.847
 11
224.155
 20
-41.414
 21
-41.8
  0
LINE
  8
0
 10
224.155
 11
222.798
 20
-41.8
 21
-40.718
  0
LINE
  8
0
 10
222.798
 11
222.798
 20
10.082
 21
11.818
  0
LINE
  8
0
 10
222.798
 11
224.155
 20
11.818
 21
12.9
  0
LINE
  8
0
 10
224.155
 11
225.847
 20
12.9
 21
12.514
  0
LINE
  8
0
 10
225.847
 11
226.6
 20
12.514
 21
10.95
  0
LINE
  8
0
 10
226.6
 11
225.847
 20
10.95
 21
9.386
  0
LINE
  8
0
 10
225.847
 11
224.155
 20
9.386
 21
9
  0
LINE
  8
0
 10
224.155
 11
222.798
 20
9
 21
10.082
  0
LINE
  8
0
 10
222.798
 11
222.798
 20
38.982
 21
40.718
  0
LINE
  8
0
 10
222.798
 11
224.155
 20
40.718
 21
41.8
  0
LINE
  8
0
 10
224.155
 11
225.847
 20
41.8
 21
41.414
  0
LINE
  8
0
 10
225.847
 11
226.6
 20
41.414
 21
39.85
  0
LINE
  8
0
 10
226.6
 11
225.847
 20
39.85
 21
38.286
  0
LINE
  8
0
 10
225.847
 11
224.155
 20
38.286
 21
37.9
  0
LINE
  8
0
 10
224.155
 11
222.798
 20
37.9
 21
38.982
  0
ENDSEC
  0
SECTION
  2
OBJECTS
  0
DICTIONARY
  0
ENDSEC
  0
EOF
