<?xml version="1.0" encoding="UTF-8" standalone="no"?>
<!-- Created with Inkscape (http://www.inkscape.org/) -->

<svg
   xmlns:dc="http://purl.org/dc/elements/1.1/"
   xmlns:cc="http://creativecommons.org/ns#"
   xmlns:rdf="http://www.w3.org/1999/02/22-rdf-syntax-ns#"
   xmlns:svg="http://www.w3.org/2000/svg"
   xmlns="http://www.w3.org/2000/svg"
   xmlns:sodipodi="http://sodipodi.sourceforge.net/DTD/sodipodi-0.dtd"
   xmlns:inkscape="http://www.inkscape.org/namespaces/inkscape"
   width="2160"
   height="1620"
   id="svg53593"
   version="1.1"
   inkscape:version="0.48.1 r9760"
   sodipodi:docname="New document 134">
  <defs
     id="defs53595" />
  <sodipodi:namedview
     id="base"
     pagecolor="#ffffff"
     bordercolor="#666666"
     borderopacity="1.0"
     inkscape:pageopacity="0.0"
     inkscape:pageshadow="2"
     inkscape:zoom="0.50246914"
     inkscape:cx="1080"
     inkscape:cy="810"
     inkscape:document-units="mm"
     inkscape:current-layer="layer1"
     showgrid="false"
     units="in"
     inkscape:window-width="1680"
     inkscape:window-height="1002"
     inkscape:window-x="0"
     inkscape:window-y="0"
     inkscape:window-maximized="0" />
  <metadata
     id="metadata53598">
    <rdf:RDF>
      <cc:Work
         rdf:about="">
        <dc:format>image/svg+xml</dc:format>
        <dc:type
           rdf:resource="http://purl.org/dc/dcmitype/StillImage" />
        <dc:title></dc:title>
      </cc:Work>
    </rdf:RDF>
  </metadata>
  <g
     inkscape:label="Layer 1"
     inkscape:groupmode="layer"
     id="layer1"
     transform="translate(0,567.64025)">
    <g
       id="g53733"
       transform="translate(-642.82555,-714.47174)">
      <g
         style="fill:#000000"
         transform="matrix(0.95000195,0,0,0.95000195,659.28623,165.55361)"
         id="g53717">
        <path
           style="fill:#000000"
           inkscape:connector-curvature="0"
           d="m 352.596,215.36 c 4.284,-4.766 6.696,-9.883 7.23,-15.479 0.53,-5.593 -0.151,-11.182 -2.111,-16.831 -1.896,-5.712 -4.81,-11.123 -8.608,-16.354 -3.799,-5.241 -7.881,-9.873 -12.246,-13.795 -5.439,-4.89 -11.548,-9.167 -18.2,-12.717 -0.781,-0.47 -1.646,-0.873 -2.371,-1.28 -7.617,-3.812 -15.241,-6.539 -22.861,-7.925 -7.692,-1.445 -14.978,-1.436 -21.938,-0.048 -6.89,1.458 -12.8,4.647 -17.707,9.583 -5.908,-2.882 -12.612,-6.238 -20.239,-10.177 -7.622,-3.816 -15.269,-9.222 -23.06,-16.228 -3.086,-2.772 -5.996,-5.885 -8.804,-9.25 -2.798,-3.367 -4.966,-6.897 -6.438,-10.527 -1.543,-3.689 -2.063,-7.432 -1.821,-11.222 0.319,-3.726 2.043,-7.395 5.236,-10.955 1.995,-2.221 5.237,-3.798 9.536,-4.668 4.3,-0.871 9.087,-1.057 14.305,-0.375 5.339,0.67 10.732,2.114 16.221,4.377 5.552,2.195 10.573,5.255 14.941,9.18 2.681,2.41 5.132,5.098 7.336,8.051 2.132,2.887 3.818,5.74 5.12,8.607 1.311,2.877 1.904,5.592 1.846,8.22 0.017,2.68 -0.884,4.91 -2.573,6.785 -2.417,2.686 -5.337,4.313 -8.691,4.945 -3.423,0.562 -6.88,0.494 -10.312,-0.286 -3.433,-0.778 -6.761,-2.069 -9.856,-3.755 -3.161,-1.752 -5.752,-3.6 -7.839,-5.475 -2.144,-1.927 -4.173,-3.992 -6.089,-6.445 -1.919,-2.327 -2.93,-4.449 -3.027,-6.236 -0.281,-0.62 -0.562,-0.995 -0.95,-1.1 -0.261,-0.11 -0.505,0.16 -0.603,0.671 0.075,2.619 1.174,5.183 3.291,7.812 2.121,2.516 4.36,4.893 6.706,7.006 2.415,2.168 5.276,4.127 8.633,5.935 3.35,1.798 6.819,3.213 10.384,4.11 3.618,0.828 7.08,0.9 10.679,0.132 3.555,-0.697 6.646,-2.529 9.297,-5.484 2.236,-2.488 3.439,-5.167 3.799,-8.005 0.308,-2.76 -0.107,-5.678 -1.087,-8.502 -1.115,-2.82 -2.673,-5.68 -4.797,-8.445 -2.07,-2.705 -4.441,-5.198 -7.054,-7.55 -4.704,-4.23 -10.005,-7.78 -16.05,-10.658 -5.964,-2.812 -11.885,-4.734 -17.766,-5.892 -5.889,-1.16 -11.392,-1.25 -16.45,-0.337 -5.01,0.842 -8.938,2.774 -11.714,5.864 -2.776,3.088 -4.375,6.638 -4.937,10.625 -0.423,3.983 -0.14,8.123 1.177,12.34 1.379,4.275 3.394,8.516 6.245,12.773 2.917,4.328 6.389,8.297 10.483,11.973 3.223,2.897 6.694,5.525 10.396,7.892 3.645,2.426 7.468,4.523 11.343,6.556 3.815,1.973 7.686,3.745 11.416,5.279 3.662,1.59 7.061,2.943 10.137,4.253 -3.799,4.487 -6.099,9.21 -6.854,14.242 -0.749,5.031 -0.622,9.883 0.527,14.673 1.146,4.795 3.052,9.306 5.77,13.441 2.722,4.268 5.659,7.879 8.957,10.84 1.538,1.382 3.145,2.71 4.805,3.965 3.411,2.695 7.124,5.054 11.006,7.212 5.859,3.208 11.746,5.586 17.632,6.868 5.892,1.408 11.526,1.623 16.855,0.822 5.394,-0.859 9.863,-3.271 13.428,-7.241 2.534,-2.817 4.028,-5.964 4.554,-9.382 0.459,-3.353 0.273,-6.922 -0.752,-10.511 -0.96,-3.659 -2.688,-7.269 -5.059,-10.859 -2.493,-3.573 -5.356,-6.875 -8.641,-9.828 -2.827,-2.537 -6.03,-5.055 -9.484,-7.552 -0.659,-0.48 -1.333,-0.955 -1.99,-1.308 -2.854,-1.952 -5.879,-3.577 -9.028,-4.95 -3.853,-1.647 -7.739,-2.59 -11.65,-2.827 -3.979,-0.178 -7.705,0.723 -11.299,2.837 -0.422,-0.742 -0.85,-1.489 -1.398,-2.229 -0.483,-0.67 -1.155,-1.276 -1.895,-1.941 -1.543,-1.387 -3.276,-2.703 -5.264,-3.877 -2.104,-1.165 -4.331,-2.328 -6.836,-3.603 4.562,-4.4 10.117,-7.06 16.574,-8.172 6.533,-1.055 13.384,-0.837 20.757,0.688 7.305,1.584 14.554,4.332 21.855,8.229 0.594,0.287 1.053,0.583 1.644,0.873 6.66,3.674 12.847,8.14 18.615,13.33 4.031,3.617 7.898,7.827 11.67,12.677 3.66,4.86 6.546,9.883 8.55,15.211 1.951,5.269 2.734,10.469 2.441,15.664 -0.239,5.127 -2.412,9.976 -6.457,14.476 -2.715,3.02 -6.058,5.119 -10.096,6.228 -0.376,0.02 -0.744,0.298 -0.908,0.879 -0.158,0.589 0.171,0.884 1.064,0.84 2.529,-0.52 4.668,-1.27 6.399,-2.388 1.732,-1.116 3.379,-2.547 4.95,-4.295 m -98.812,-72.294 c 2.625,1.143 4.976,2.168 7.142,3.265 2.109,1.042 3.633,2.042 4.57,2.887 2.019,1.817 3.181,3.355 3.447,4.675 -0.991,0.567 -1.473,1.233 -1.37,1.932 0.034,0.635 0.184,1.14 0.522,1.443 0.408,0.365 0.857,0.405 1.357,0.12 0.557,-0.227 1.04,-0.89 1.238,-1.92 2.248,-2.235 5.259,-3.29 8.85,-3.095 3.655,0.255 7.532,1.067 11.392,2.589 3.401,1.356 6.736,2.896 10.039,4.898 0.599,0.29 1.196,0.705 1.722,1.064 3.906,2.41 7.1,4.797 9.714,7.15 2.352,2.115 4.795,4.67 7.124,7.745 2.347,3.068 4.119,6.361 5.386,9.813 1.277,3.442 1.782,6.938 1.517,10.342 -0.203,3.462 -1.634,6.67 -4.407,9.756 -3.078,3.428 -7.131,5.371 -12.163,5.83 -5.026,0.464 -10.28,0.103 -15.923,-1.318 -5.508,-1.44 -10.998,-3.574 -16.467,-6.543 -3.685,-1.982 -7.061,-4.16 -10.066,-6.496 -1.452,-1.077 -2.795,-2.151 -4.069,-3.299 -3.154,-2.839 -6.087,-6.323 -8.929,-10.337 -2.829,-4 -4.851,-8.239 -6.242,-12.765 -1.392,-4.535 -1.704,-9.188 -1.074,-14.078 0.645,-4.891 2.828,-9.36 6.69,-13.658"
           id="path53687" />
        <path
           style="fill:#000000"
           inkscape:connector-curvature="0"
           d="m 144.539,201.776 c -4.692,1.738 -9.697,2.964 -14.854,3.184 -5.15,0.195 -10.451,-0.815 -15.103,-3.11 -1.19,-0.586 -2.245,-1.191 -3.363,-1.87 -1.212,-0.786 -2.202,-1.685 -3.094,-2.729 -1.77,-2.07 -2.913,-4.639 -3.24,-7.31 -0.355,-2.661 0.125,-5.461 1.499,-7.761 1.373,-2.306 3.58,-3.969 5.958,-4.856 l 0.312,0.688 c -2.105,1.165 -3.912,2.83 -4.858,4.931 -0.981,2.065 -1.224,4.429 -0.745,6.646 0.473,2.207 1.522,4.295 3.043,5.926 0.745,0.808 1.654,1.535 2.539,2.053 1.021,0.564 2.146,1.143 3.201,1.602 4.304,1.943 9.007,2.812 13.748,2.637 4.75,-0.109 9.487,-1.143 14.21,-2.414 l 0.747,2.383 z"
           id="path53689" />
        <path
           style="fill:#000000"
           inkscape:connector-curvature="0"
           d="m 193.084,174.976 c -0.594,-0.42 -1.106,-0.97 -1.546,-1.665 -3.312,1.74 -8.325,3.528 -15.79,5.828 -10.372,3.277 -17.287,8.419 -17.817,14.444 0,0 -3.455,1.24 -6.735,3.369 -1.15,-10.815 6.735,-19.146 14.092,-19.146 1.243,0 2.746,0.09 4.518,0.355 l -0.26,-0.976 c -4.17,-2.922 -4.878,-5.05 -4.878,-8.682 0,-7.447 6.292,-13.65 13.65,-13.65 4.517,0 7.8,2.57 7.8,6.203 0,3.192 -2.839,5.938 -5.849,5.938 -2.305,0 -3.726,-0.885 -5.408,-3.278 l -1.417,0.177 c 1.772,3.277 3.547,4.52 6.732,4.52 3.901,0 7.358,-3.545 7.358,-7.357 0,-5.317 -6.115,-9.661 -13.648,-9.661 -9.574,0 -16.574,6.205 -16.574,14.535 0,3.368 0.62,4.875 3.105,8.244 -11.613,0 -19.59,9.13 -19.59,20.473 0,1.685 0.174,3.545 0.799,6.47 -0.14,0.024 -0.262,0.034 -0.4,0.057 0.166,0.725 0.37,1.433 0.605,2.136 0.232,-0.054 0.435,-0.093 0.68,-0.156 2.925,7.183 11.522,11.79 20.387,11.79 11.521,0 20.381,-7.801 20.381,-17.815 0,-5.762 -3.898,-11.611 -10.901,-11.963 1.776,-1.064 9.75,-4.344 15.776,-7.179 1.841,-0.883 3.485,-1.906 4.93,-3.011 m -30.723,18.871 c 1.86,-0.708 3.547,-1.416 5.5,-1.416 3.367,0 6.024,2.393 6.024,5.496 0,2.837 -2.479,5.227 -5.492,5.227 -3.726,0 -6.475,-2.48 -6.475,-6.201 0.001,-0.977 0.091,-1.954 0.443,-3.106 m 19.058,3.372 c 0,8.063 -6.735,14.888 -14.712,14.888 -7.354,0 -14.178,-6.561 -15.155,-13.118 2.66,-1.948 6.467,-3.721 6.467,-3.721 0.27,6.206 5.41,9.307 10.284,9.307 4.341,0 7.623,-2.749 7.623,-6.294 0,-3.813 -3.633,-7.178 -7.803,-7.178 -1.328,0 -2.302,0.264 -5.052,0.884 2.75,-3.896 4.435,-5.049 7.889,-5.049 5.852,0 10.459,4.428 10.459,10.281"
           id="path53691" />
        <path
           style="fill:#000000"
           inkscape:connector-curvature="0"
           d="m 189.588,175.114 c 4.072,-2.333 7.258,-5.985 8.467,-10.403 1.226,-4.39 0.752,-9.172 -0.742,-13.555 -1.499,-4.404 -3.921,-8.505 -6.953,-12.047 -3.03,-3.522 -6.736,-6.569 -10.956,-8.25 -2.101,-0.828 -4.341,-1.265 -6.5,-1.055 -1.07,0.1 -2.151,0.37 -3.101,0.778 -0.825,0.377 -1.317,0.959 -1.379,1.695 -0.181,1.532 1.097,3.71 2.992,4.734 0.47,0.271 1.005,0.453 1.515,0.591 0.588,0.134 1.175,0.262 1.736,0.353 1.147,0.189 2.324,0.327 3.5,0.39 4.713,0.26 9.476,-0.36 14.12,-1.396 4.653,-1.021 9.202,-2.582 13.528,-4.54 l 0.557,1.248 c -4.476,1.903 -9.102,3.347 -13.809,4.5 -4.712,1.101 -9.57,1.793 -14.469,1.573 -1.224,-0.055 -2.439,-0.183 -3.665,-0.372 -0.625,-0.095 -1.217,-0.221 -1.8,-0.343 -0.659,-0.133 -1.267,-0.345 -1.882,-0.592 -1.21,-0.513 -2.377,-1.238 -3.297,-2.29 -0.921,-1.023 -1.653,-2.445 -1.5,-4.119 0.128,-1.714 1.496,-3.147 2.868,-3.689 1.266,-0.525 2.545,-0.825 3.868,-0.942 2.639,-0.233 5.242,0.322 7.591,1.267 4.723,1.933 8.615,5.237 11.808,8.993 3.184,3.779 5.703,8.119 7.268,12.837 1.531,4.68 2.122,9.917 0.581,14.795 -1.457,4.902 -5.21,8.891 -9.523,11.198 l -0.823,-1.359 z"
           id="path53693" />
        <path
           style="fill:#000000"
           inkscape:connector-curvature="0"
           d="m 94.885,122.48 0.453,-1.958 c 0,0 -15.803,-5.267 -15.803,-27.384 0,-17.605 21.068,-38.974 51.011,-38.974 27.541,0 49.502,16.853 49.502,38.368 0,27.237 -29.189,36.717 -29.189,36.717 2.71,-35.21 21.82,-39.573 21.82,-44.99 0,-1.055 -0.605,-2.407 -1.505,-2.407 0,0 -21.665,4.814 -43.635,32.5 -7.225,9.18 -11.734,18.962 -11.734,18.962 H 78.334 c -23.022,0 -39.876,15.647 -39.876,32.347 0,10.988 8.127,19.562 23.624,19.562 26.935,0 46.946,-37.916 55.073,-49.654 4.812,0 13.843,-0.449 18.354,-1.354 0,0.171 -0.024,0.367 -0.029,0.543 5.532,0.396 -0.155,23.667 -2.555,34.69 10.103,-10.978 15.107,-22.636 16.125,-26.806 0.458,-1.957 1.51,-10.682 1.51,-10.682 0,0 31.599,-10.083 31.599,-39.427 0,-22.567 -22.723,-40.473 -51.613,-40.473 -30.845,0 -53.117,22.567 -53.117,41.078 -0.001,23.772 17.456,29.342 17.456,29.342 m -32.803,60.637 c -9.927,0 -16.551,-4.662 -16.551,-17.455 0,-15.497 17.455,-29.792 38.216,-29.792 h 30.248 c -8.731,13.239 -28.287,47.247 -51.913,47.247 M 135.66,131.96 c -4.817,0.899 -14.444,1.355 -16.849,1.355 0.754,-2.109 5.265,-12.34 15.497,-23.924 9.18,-10.536 23.32,-21.369 27.083,-21.369 2.706,0 -22.119,20.463 -25.731,43.938"
           id="path53695" />
        <path
           style="fill:#000000"
           inkscape:connector-curvature="0"
           d="m 92.149,201.503 c -9.513,3.738 -20.54,6.895 -30.67,6.895 -33.705,0 -58.53,-23.325 -58.53,-54.321 0,-27.986 18.356,-52.513 51.76,-52.513 2.858,0 6.321,1.052 8.726,1.958 v -1.808 c -1.65,-0.602 -5.112,-1.808 -8.726,-1.808 -32.047,0 -53.414,21.667 -53.414,54.171 0,32.202 25.427,55.825 60.184,55.825 10.527,0 21.28,-2.881 30.558,-6.423 0.043,-0.667 0.085,-1.343 0.112,-1.976"
           id="path53697" />
        <path
           style="fill:#000000"
           inkscape:connector-curvature="0"
           d="m 85.413,204.413 c 7.338,-3.354 14.413,-7.192 20.907,-11.743 6.49,-4.536 12.393,-9.797 17.12,-15.809 4.74,-6 8.215,-12.745 10.18,-19.859 1.996,-7.123 2.498,-14.535 2.17,-22.144 l 14.045,0.413 c -0.763,8.511 -2.523,17.298 -6.025,25.388 -3.452,8.11 -8.598,15.384 -14.738,21.313 -6.133,5.957 -13.159,10.662 -20.482,14.453 -7.335,3.802 -15.002,6.709 -22.758,9.082 l -0.419,-1.094 z"
           id="path53699" />
        <path
           style="fill:#000000"
           inkscape:connector-curvature="0"
           d="m 211.509,171.152 c -3.608,-3.242 -8.369,-4.853 -12.871,-4.638 -2.207,0.1 -4.473,0.785 -5.688,2.095 -0.568,0.646 -1.089,1.238 -1.313,2.145 -0.273,0.855 0.037,2.078 0.477,2.803 1.003,1.79 2.902,3.218 4.909,4.355 2.034,1.143 4.253,2.032 6.517,2.789 4.526,1.498 9.338,2.491 14.043,2.799 l -0.156,2.495 c -5.039,-0.474 -9.852,-1.553 -14.629,-3.027 -2.373,-0.778 -4.72,-1.691 -6.961,-2.928 -2.207,-1.256 -4.448,-2.788 -5.9,-5.281 -0.762,-1.402 -1.011,-2.667 -1.077,-4.249 -0.049,-1.541 0.615,-3.273 1.834,-4.291 2.443,-2.037 5.339,-2.385 7.949,-2.305 5.271,0.287 10.217,2.925 13.186,6.938 l -0.32,0.3 z"
           id="path53701" />
        <path
           style="fill:#000000"
           inkscape:connector-curvature="0"
           d="m 81.445,282.875 c -3.987,-2.656 -7.485,-5.601 -10.195,-8.97 -3.202,-3.779 -5.117,-7.7 -5.582,-11.768 5.908,-0.278 11.145,-1.26 15.777,-2.798 v -2.388 c -4.632,1.685 -10.041,2.666 -16.095,2.947 v -0.281 c 0,-2.803 0.642,-5.601 1.915,-8.545 1.102,-2.808 2.865,-5.469 4.943,-7.988 2.075,-2.524 4.604,-4.492 7.652,-6.167 0.472,-0.28 0.945,-0.42 1.584,-0.703 v -4.064 c -1.43,0.422 -2.86,0.983 -4.139,1.818 -3.346,1.821 -6.056,4.351 -8.125,7.153 -2.087,2.939 -3.513,6.025 -4.468,9.248 -1.11,3.223 -1.583,6.167 -1.583,8.97 v 0.56 h -2.555 c -5.583,0 -11.642,-0.56 -18.022,-1.824 C 36.01,256.679 29.02,254.105 23.758,250.883 17.332,247.59 13.36,244.54 9.862,239.355 6.349,234.033 3.221,228.623 3.067,220.004 c -0.158,-8.623 1.152,-13.691 4.806,-19.072 4.915,-6.479 7.97,-8.74 12.594,-11.963 4.623,-3.223 11.087,-5.01 17.461,-6.694 6.379,-1.677 10.415,-2.523 17.259,-2.523 4.513,0.283 8.733,0.846 16.217,2.523 v -2.943 c -7.162,-1.822 -10.026,-2.432 -16.217,-2.804 -6.37,0 -10.393,0.699 -17.259,2.247 -6.853,1.394 -13.063,3.919 -18.647,7.147 -5.568,3.359 -10.193,7.559 -13.864,12.749 C 1.755,203.856 0,212.538 0,219.818 c 0,5.605 1.266,10.928 3.969,15.972 2.729,5.19 6.549,9.673 11.646,13.599 5.11,3.779 11.479,6.865 19.141,9.248 7.489,2.383 16.1,3.501 25.819,3.501 h 3.028 c 0.635,5.049 2.707,9.526 6.205,13.594 3.04,3.784 7.005,7.007 11.637,9.956 v -2.813 z m 223.042,3.274 c 4.305,-1.126 9.185,-2.288 12.695,-4.529 3.348,-2.238 6.221,-5.186 8.289,-8.687 2.224,-3.506 3.35,-7.573 3.35,-12.336 0,-8.123 -3.35,-14.993 -10.037,-20.462 -6.694,-5.464 -15.148,-8.12 -25.347,-8.12 -11.32,0 -21.162,2.342 -31.846,5.283 -10.51,2.939 -20.679,8.257 -30.72,12.749 -10.203,4.624 -19.124,11.392 -28.843,16.719 -9.727,5.186 -19.551,9.59 -28.634,14.214 -10.448,4.595 -17.974,7.52 -29.045,9.819 -6.481,1.673 -17.48,2.593 -25.925,2.593 -6.687,0 -12.915,-0.845 -19.12,-2.668 -6.05,-1.678 -11.482,-3.919 -16.267,-6.863 -0.47,-0.283 -1.108,-0.703 -1.593,-0.986 v 2.812 c 0.317,0.137 0.806,0.41 1.123,0.557 5.094,3.081 10.835,5.469 17.214,7.148 6.212,1.68 12.423,2.52 18.643,2.52 12.283,0 23.915,-1.543 34.432,-4.482 10.677,-2.944 20.725,-6.73 30.281,-11.211 9.729,-4.487 18.967,-9.395 27.896,-14.717 8.752,-5.186 17.688,-10.09 26.445,-14.57 8.784,-4.487 17.697,-8.271 27.116,-11.211 9.229,-2.941 18.802,-4.482 28.843,-4.482 5.093,0 9.717,0.696 13.857,2.236 4.153,1.538 7.654,3.364 10.364,5.752 2.871,2.378 4.941,5.039 6.538,7.983 1.597,3.081 2.385,6.021 2.385,9.106 0,6.445 -2.854,12.188 -8.762,17.515 -6.123,6.592 -14.028,7.856 -24.854,7.856 -2.56,10e-4 7.385,1.436 11.522,0.462 M 71.404,179.332 v 2.943 c 1.443,0.42 2.879,0.703 4.153,1.118 8.762,2.529 15.772,6.45 21.037,12.056 0.788,0.42 1.265,0.42 1.582,0 0.491,-0.425 0.32,-0.981 -0.152,-1.685 -4.774,-4.904 -11.632,-8.965 -20.242,-12.331 -2.077,-0.699 -4.14,-1.398 -6.378,-2.101 m 17.691,51.697 c 4.16,0 7.018,0.986 8.77,2.939 1.758,1.821 2.545,4.067 2.545,6.448 0,5.466 -3.173,10.368 -9.714,14.577 -2.705,1.821 -5.737,3.221 -9.25,4.346 v -2.388 c 2.557,-0.837 4.79,-1.958 7.015,-3.218 6.052,-3.789 9.099,-7.993 9.099,-12.754 0,-1.685 -0.645,-3.228 -1.919,-4.482 -1.128,-1.26 -3.027,-1.968 -5.735,-1.968 -3.033,0 -5.903,0.564 -8.46,1.685 v -4.064 c 2.236,-0.701 4.941,-1.121 7.649,-1.121"
           id="path53703" />
        <path
           style="fill:#000000"
           inkscape:connector-curvature="0"
           d="m 141.265,282.025 c -5.682,-4.438 -10.95,-9.697 -14.745,-16.094 -3.745,-6.338 -5.768,-14.209 -4.098,-21.685 1.603,-7.476 6.308,-13.765 12.048,-18.347 2.92,-2.381 6.627,-3.758 10.285,-4.316 3.688,-0.555 7.557,-0.53 11.273,0.773 1.845,0.649 3.66,1.631 5.163,3.105 1.472,1.538 2.512,3.33 3.03,5.464 0.51,2.09 0.292,4.468 -0.756,6.362 -1.035,1.909 -2.669,3.281 -4.38,4.229 -0.847,0.501 -1.734,0.884 -2.625,1.221 -0.899,0.325 -1.698,0.745 -2.778,0.908 -1.935,0.283 -3.75,0.2 -5.582,0.073 -3.647,-0.293 -7.23,-0.972 -10.737,-1.953 -6.975,-1.978 -13.772,-5.186 -19.135,-10.273 -2.667,-2.534 -4.902,-5.562 -6.445,-8.921 -1.545,-3.364 -2.395,-7.021 -2.6,-10.693 l 1.636,-0.093 c 0.339,7 3.44,13.721 8.582,18.477 5.093,4.814 11.66,7.91 18.438,9.805 3.401,0.942 6.896,1.592 10.4,1.86 1.735,0.122 3.53,0.181 5.15,-0.063 0.697,-0.107 1.56,-0.439 2.297,-0.82 0.737,-0.41 1.415,-0.913 2.032,-1.45 1.21,-1.113 2.102,-2.451 2.603,-3.794 0.513,-1.333 0.745,-2.717 0.456,-4.121 -0.603,-2.866 -2.836,-5.298 -5.828,-6.567 -5.985,-2.515 -14.02,-1.982 -19.298,2.28 -5.372,4.422 -8.994,10.835 -10.282,17.446 -0.593,3.33 -0.635,6.753 0.029,10.093 0.65,3.338 1.943,6.558 3.623,9.578 3.35,6.086 8.22,11.306 13.465,16.091 l -1.221,1.425 z"
           id="path53705" />
        <polygon
           style="fill:#000000"
           points="220.882,257.494 221.416,257.162 220.942,257.357 "
           id="polygon53707" />
        <path
           style="fill:#000000"
           inkscape:connector-curvature="0"
           d="m 326.902,263.422 c -0.901,5.115 -5.884,21.694 -26.8,21.694 -19.411,0 -29.04,-13.848 -70.568,-34.609 l -1.357,-0.601 -3.457,-1.958 26.936,-45.591 -1.509,-0.603 -4.512,6.315 c 0,0 -4.365,-2.104 -6.774,-2.104 -3.763,0 -11.133,11.587 -21.665,39.727 0,0 -9.478,-1.958 -15.649,-2.261 -4.969,0 -12.791,0.454 -12.791,0.454 0.452,-11.738 1.655,-16.25 6.771,-25.881 11.74,-21.668 27.238,-32.5 27.238,-32.5 2.705,0.451 10.532,0.754 18.057,-0.154 24.524,-2.856 39.871,-11.134 39.871,-17.751 0,-4.967 -6.616,-9.032 -15.193,-9.032 -28.439,0 -57.634,23.023 -57.634,23.023 0,0 -1.644,-0.327 -4.185,-0.769 -0.288,0.607 -0.618,1.203 -1.011,1.794 1.182,0.239 2.292,0.467 3.239,0.63 -22.57,24.072 -27.384,33.403 -27.384,49.656 0,3.161 0.905,6.921 2.555,12.79 0,0 -12.934,3.46 -22.115,10.986 -13.842,10.981 -16.702,21.362 -17.307,23.467 -0.563,1.011 -0.298,1.807 -0.298,1.807 -1.503,9.18 4.513,27.988 24.825,27.988 34.758,0 51.011,-44.238 51.011,-44.238 l 3.687,-8.208 -0.459,0.283 3.542,-8.022 5.024,2.695 c 0,0 1.775,0.64 3.022,1.253 34.764,17.072 46.45,32.917 68.091,32.917 16.253,0 24.526,-9.028 27.988,-23.625 l -1.189,0.428 z M 269.106,161.73 c 5.418,0 9.478,2.708 9.478,5.869 0,6.318 -21.665,14.143 -37.612,15.646 -5.874,0.601 -17.007,0.449 -17.007,0.449 22.273,-17.449 35.81,-21.964 45.141,-21.964 m -67.56,83.508 c 5.266,0.303 13.391,2.259 13.391,2.259 0,0 -9.629,7.521 -16.55,7.521 -7.822,0 -9.18,-9.025 -9.18,-9.025 0,0 7.676,-0.903 12.339,-0.755 m -35.361,63.35 c -17.3,0 -24.527,-16.101 -23.32,-25.278 1.205,1.201 13.843,7.07 26.935,7.07 21.366,0 42.582,-19.712 42.582,-19.712 -0.001,2.109 -15.651,37.92 -46.197,37.92 m 46.044,-40.176 c -1.504,1.958 -20.916,20.464 -42.431,20.464 -13.544,0 -26.637,-7.524 -26.637,-7.524 0,0 2.257,-12.036 16.706,-23.623 9.931,-7.974 21.815,-10.684 21.815,-10.684 5.869,7.07 10.231,9.634 16.855,9.634 5.563,0 10.231,-2.861 18.657,-8.278 -0.9,4.962 -3.158,15.797 -4.965,20.011"
           id="path53709" />
      </g>
      <path
         transform="matrix(1.3652316,0,0,1.3348931,-237.5127,-931.05494)"
         d="m 913.48892,950.30713 c 0,74.19207 -58.808,134.33657 -131.35135,134.33657 -72.54334,0 -131.35135,-60.1445 -131.35135,-134.33657 0,-74.19206 58.80801,-134.33661 131.35135,-134.33661 72.54335,0 131.35135,60.14455 131.35135,134.33661 z"
         sodipodi:ry="134.33661"
         sodipodi:rx="131.35135"
         sodipodi:cy="950.30713"
         sodipodi:cx="782.13757"
         id="path53731"
         style="fill:none;stroke:#0000ff"
         sodipodi:type="arc" />
    </g>
  </g>
</svg>
