<?xml version="1.0" encoding="UTF-8" standalone="no"?>
<!-- Created with Inkscape (http://www.inkscape.org/) -->

<svg
   xmlns:dc="http://purl.org/dc/elements/1.1/"
   xmlns:cc="http://creativecommons.org/ns#"
   xmlns:rdf="http://www.w3.org/1999/02/22-rdf-syntax-ns#"
   xmlns:svg="http://www.w3.org/2000/svg"
   xmlns="http://www.w3.org/2000/svg"
   xmlns:sodipodi="http://sodipodi.sourceforge.net/DTD/sodipodi-0.dtd"
   xmlns:inkscape="http://www.inkscape.org/namespaces/inkscape"
   width="1080"
   height="1080"
   id="svg2"
   version="1.1"
   inkscape:version="0.48.2 r9819"
   sodipodi:docname="baby_gate_holder.svg">
  <defs
     id="defs4" />
  <sodipodi:namedview
     id="base"
     pagecolor="#ffffff"
     bordercolor="#666666"
     borderopacity="1.0"
     inkscape:pageopacity="0.0"
     inkscape:pageshadow="2"
     inkscape:zoom="4.4742322"
     inkscape:cx="70.866137"
     inkscape:cy="70.866862"
     inkscape:document-units="mm"
     inkscape:current-layer="layer1"
     showgrid="false"
     units="in"
     inkscape:window-width="1440"
     inkscape:window-height="852"
     inkscape:window-x="1"
     inkscape:window-y="0"
     inkscape:window-maximized="0" />
  <metadata
     id="metadata7">
    <rdf:RDF>
      <cc:Work
         rdf:about="">
        <dc:format>image/svg+xml</dc:format>
        <dc:type
           rdf:resource="http://purl.org/dc/dcmitype/StillImage" />
        <dc:title></dc:title>
      </cc:Work>
    </rdf:RDF>
  </metadata>
  <g
     inkscape:label="Layer 1"
     inkscape:groupmode="layer"
     id="layer1"
     transform="translate(0,27.64025)">
    <path
       id="path2991"
       transform="matrix(0.11713022,0,0,0.12794097,55.402732,884.61695)"
       style="fill:none;stroke:#000000;stroke-width:2.92341781;stroke-miterlimit:4;stroke-opacity:1"
       d="m 192.49211,757.19244 -0.31222,5.66052 -0.91638,5.49701 -1.49015,5.30567 -2.03353,5.08649 -2.54651,4.8395 -3.02908,4.56467 -3.48127,4.26201 -3.90305,3.93153 -4.29444,3.57321 -4.65542,3.18708 -4.98603,2.7731 -5.28622,2.33131 -5.55601,1.86168 -5.79542,1.36423 -6.00443,0.83894 -6.18303,0.28583 -6.18303,-0.28583 -6.00443,-0.83894 -5.79542,-1.36423 -5.55601,-1.86168 -5.28622,-2.33131 -4.986023,-2.7731 -4.655429,-3.18708 -4.294438,-3.57321 -3.90305,-3.93153 -3.481265,-4.26201 -3.029084,-4.56467 -2.546504,-4.8395 -2.033528,-5.08649 -1.490155,-5.30567 -0.916384,-5.49701 -0.312216,-5.66052 0.312216,-5.66052 0.916384,-5.49701 1.490155,-5.30566 2.033528,-5.0865 2.546504,-4.83949 3.029084,-4.56467 3.481265,-4.26201 3.90305,-3.93153 4.294438,-3.57321 4.655429,-3.18708 4.986023,-2.7731 5.28622,-2.33131 5.55601,-1.86168 5.79542,-1.36423 6.00443,-0.83894 6.18303,-0.28583 6.18303,0.28583 6.00443,0.83894 5.79542,1.36423 5.55601,1.86168 5.28622,2.33131 4.98603,2.7731 4.65542,3.18708 4.29444,3.57321 3.90305,3.93153 3.48127,4.26201 3.02908,4.56467 2.54651,4.83949 2.03353,5.0865 1.49015,5.30566 0.91638,5.49701 z m 52.85376,-2e-5 -0.58509,10.60784 -1.71731,10.30141 -2.79256,9.94284 -3.81083,9.5321 -4.77216,9.06924 -5.67651,8.5542 -6.5239,7.98702 -7.31433,7.3677 -8.04779,6.69622 -8.72429,5.97258 -9.34382,5.19681 -9.9064,4.36888 -10.41199,3.48879 -10.86064,2.55657 -11.25231,1.57218 -11.58702,0.53565 -11.58702,-0.53565 -11.25231,-1.57218 -10.860637,-2.55657 -10.411994,-3.48879 -9.90639,-4.36888 -9.343822,-5.19681 -8.724288,-5.97258 -8.047791,-6.69622 -7.314329,-7.3677 -6.523902,-7.98702 -5.676512,-8.5542 -4.772158,-9.06924 -3.810838,-9.5321 -2.792554,-9.94284 -1.717307,-10.30141 -0.585094,-10.60784 0.585094,-10.60784 1.717307,-10.30141 2.792554,-9.94283 3.810838,-9.53211 4.772158,-9.06923 5.676512,-8.5542 6.523902,-7.98703 7.314329,-7.36769 8.047791,-6.69622 8.724288,-5.97259 9.343822,-5.1968 9.90639,-4.36888 10.411994,-3.48879 10.860637,-2.55657 11.25231,-1.57218 11.58702,-0.53565 11.58702,0.53565 11.25231,1.57218 10.86064,2.55657 10.41199,3.48879 9.9064,4.36888 9.34382,5.1968 8.72429,5.97259 8.04779,6.69622 7.31433,7.36769 6.5239,7.98703 5.67651,8.5542 4.77216,9.06923 3.81083,9.53211 2.79256,9.94283 1.71731,10.30141 z m 415.59872,-2e-5 -2.73078,49.50947 -8.01511,48.07931 -13.03356,46.40574 -17.78615,44.48876 -22.27287,42.32841 -26.49373,39.92461 -30.44871,37.2775 -34.13784,34.3869 -37.56108,31.2529 -40.71848,27.8756 -43.60999,24.2548 -46.23564,20.3907 -48.59543,16.2831 -50.68934,11.9321 -52.51739,7.3378 -54.07958,2.5 -54.079573,-2.5 -52.517391,-7.3378 -50.68934,-11.9321 -48.595423,-16.2831 -46.235643,-20.3907 -43.60998,-24.2548 -40.71847,-27.8756 -37.56109,-31.2529 -34.13783,-34.3869 -30.44871,-37.2775 -26.49372,-39.92461 -22.27287,-42.32841 -17.78615,-44.48876 -13.03356,-46.40574 -8.01511,-48.07931 -2.73078,-49.50947 2.73078,-49.50946 8.01511,-48.07929 13.03356,-46.40573 17.78615,-44.48876 22.27287,-42.3284 26.49372,-39.92464 30.44871,-37.27746 34.13783,-34.38691 37.56109,-31.25294 40.71847,-27.87558 43.60998,-24.25482 46.235643,-20.39066 48.595423,-16.28309 50.68934,-11.93213 52.517391,-7.33778 54.079573,-2.50001 54.07958,2.50001 52.51739,7.33778 50.68934,11.93213 48.59543,16.28309 46.23564,20.39066 43.60999,24.25482 40.71848,27.87558 37.56108,31.25294 34.13784,34.38691 30.44871,37.27746 26.49373,39.92464 22.27287,42.3284 17.78615,44.48876 13.03356,46.40573 8.01511,48.07929 z m 75.46583,3e-5 -3.12041,56.57005 -9.15868,54.93592 -14.89316,53.02368 -20.32383,50.83334 -25.45071,48.36488 -30.27379,45.6183 -34.79306,42.5936 -39.00854,39.2909 -42.92021,35.7099 -46.52808,31.8509 -49.83216,27.7139 -52.83243,23.2985 -55.5289,18.6053 -57.92158,13.6337 -60.01045,8.3843 -61.79552,2.8565 -61.795515,-2.8565 -60.010444,-8.3843 -57.921572,-13.6337 -55.528899,-18.6053 -52.83243,-23.2985 -49.83215,-27.7139 -46.52808,-31.8509 -42.92021,-35.7099 -39.00854,-39.2909 -34.79306,-42.5936 -30.27378,-45.6183 -25.45071,-48.36488 -20.32383,-50.83334 -14.89316,-53.02368 -9.15868,-54.93592 -3.12041,-56.57005 3.12041,-56.57002 9.15868,-54.93591 14.89316,-53.02366 20.32383,-50.83333 25.45071,-48.36486 30.27378,-45.61831 34.79306,-42.59362 39.00854,-39.29083 42.92021,-35.70994 46.52808,-31.85093 49.83215,-27.71381 52.83243,-23.29857 55.528899,-18.60523 57.921572,-13.63378 60.010444,-8.38422 61.795515,-2.85654 61.79552,2.85654 60.01045,8.38422 57.92158,13.63378 55.5289,18.60523 52.83243,23.29857 49.83216,27.71381 46.52808,31.85093 42.92021,35.70994 39.00854,39.29083 34.79306,42.59362 30.27379,45.61831 25.45071,48.36486 20.32383,50.83333 14.89316,53.02366 9.15868,54.93591 z"
       inkscape:connector-curvature="0"
       sodipodi:nodetypes="cccccccccccccccccccccccccccccccccccccccccccccccccccccccccccccccccccccccccccccccccccccccccccccccccccccccccccccccccccccccccccccccccccccccccccccccccccccccccccccccccccccccccccccccccccccccccccccccccccccccccccccccccccccccccccccccccccccccccccccccccccccccccccccccccccc" />
  </g>
</svg>
