<?xml version="1.0" encoding="UTF-8" standalone="no"?>
<!-- Created with Inkscape (http://www.inkscape.org/) -->

<svg
   xmlns:dc="http://purl.org/dc/elements/1.1/"
   xmlns:cc="http://creativecommons.org/ns#"
   xmlns:rdf="http://www.w3.org/1999/02/22-rdf-syntax-ns#"
   xmlns:svg="http://www.w3.org/2000/svg"
   xmlns="http://www.w3.org/2000/svg"
   xmlns:sodipodi="http://sodipodi.sourceforge.net/DTD/sodipodi-0.dtd"
   xmlns:inkscape="http://www.inkscape.org/namespaces/inkscape"
   width="2160"
   height="1620"
   id="svg34476"
   version="1.1"
   inkscape:version="0.48.1 r9760"
   sodipodi:docname="planetary_experiment.svg">
  <sodipodi:namedview
     id="base"
     pagecolor="#ffffff"
     bordercolor="#666666"
     borderopacity="1.0"
     inkscape:pageopacity="0.0"
     inkscape:pageshadow="2"
     inkscape:zoom="0.93668487"
     inkscape:cx="891.92155"
     inkscape:cy="532.18933"
     inkscape:document-units="mm"
     inkscape:current-layer="layer1"
     showgrid="false"
     inkscape:window-width="1680"
     inkscape:window-height="1002"
     inkscape:window-x="0"
     inkscape:window-y="0"
     inkscape:window-maximized="0"
     units="in"
     showguides="true"
     inkscape:guide-bbox="true">
    <sodipodi:guide
       orientation="1,0"
       position="354.33071,354.33071"
       id="guide45002" />
    <sodipodi:guide
       orientation="1,0"
       position="349.01575,349.01575"
       id="guide45004" />
    <sodipodi:guide
       orientation="1,0"
       position="359.64567,359.64567"
       id="guide45006" />
    <sodipodi:guide
       orientation="0,1"
       position="359.64567,359.64567"
       id="guide45008" />
    <sodipodi:guide
       orientation="0,1"
       position="349.01575,349.01575"
       id="guide45010" />
    <sodipodi:guide
       orientation="1,0"
       position="415.27559,354.33071"
       id="guide45542" />
    <sodipodi:guide
       orientation="1,0"
       position="409.96063,354.33071"
       id="guide45544" />
    <sodipodi:guide
       orientation="1,0"
       position="420.59055,354.33071"
       id="guide45546" />
    <sodipodi:guide
       orientation="1,0"
       position="432.99213,354.33071"
       id="guide45581" />
    <sodipodi:guide
       orientation="0,1"
       position="432.99213,336.61417"
       id="guide45585" />
    <sodipodi:guide
       orientation="0,1"
       position="415.27559,372.04724"
       id="guide45589" />
    <sodipodi:guide
       orientation="1,0"
       position="570.82677,354.33071"
       id="guide45616" />
    <sodipodi:guide
       orientation="1,0"
       position="565.51181,354.33071"
       id="guide45618" />
    <sodipodi:guide
       orientation="1,0"
       position="576.14173,354.33071"
       id="guide45620" />
    <sodipodi:guide
       orientation="1,0"
       position="719.64567,354.33071"
       id="guide45626" />
    <sodipodi:guide
       orientation="1,0"
       position="714.33071,354.33071"
       id="guide45628" />
    <sodipodi:guide
       orientation="1,0"
       position="724.96063,354.33071"
       id="guide45630" />
  </sodipodi:namedview>
  <defs
     id="defs34478" />
  <metadata
     id="metadata34481">
    <rdf:RDF>
      <cc:Work
         rdf:about="">
        <dc:format>image/svg+xml</dc:format>
        <dc:type
           rdf:resource="http://purl.org/dc/dcmitype/StillImage" />
        <dc:title></dc:title>
      </cc:Work>
    </rdf:RDF>
  </metadata>
  <g
     transform="translate(0,567.64025)"
     id="layer1"
     inkscape:groupmode="layer"
     inkscape:label="Layer 1">
    <path
       style="fill:none;stroke:#000000;stroke-width:1;stroke-miterlimit:4;stroke-opacity:1;stroke-dasharray:none"
       d="m 1082.324,356.00597 c 2.4365,-1.49229 4.5522,-3.56919 6.0811,-6.2172 4.8922,-8.47354 1.9934,-19.33179 -6.4802,-24.2241 l -43.9444,-25.36318 -0.01,-50.69585 c 1e-4,-9.7845 -7.9267,-17.73968 -17.7114,-17.73964 -9.7844,1e-5 -17.7241,7.95396 -17.7241,17.73855 l -0.01,50.73849 -43.89662,25.34375 c -8.47369,4.89228 -11.37789,15.73042 -6.48549,24.2043 4.8922,8.47354 15.73055,11.37776 24.20424,6.48547 l 43.95077,-25.375 43.9014,25.35226 c 5.8256,3.36339 12.7554,3.03556 18.1159,-0.24739 z m -6.4738,-10.58791 c -1.6069,0.98463 -3.694,1.08369 -5.4417,0.0747 -2.5421,-1.46769 -3.4148,-4.70531 -1.9471,-7.24744 1.4676,-2.54209 4.7053,-3.41476 7.2474,-1.94707 2.5421,1.46768 3.4304,4.73244 1.9628,7.27454 -0.4587,0.79437 -1.091,1.39784 -1.8214,1.84531 z m -105.69752,0.11403 c -2.5421,1.46769 -5.78936,0.59753 -7.25696,-1.94442 -1.46775,-2.54222 -0.59764,-5.78941 1.94446,-7.2571 2.54211,-1.46768 5.78937,-0.59753 7.25706,1.9446 1.4676,2.54195 0.59755,5.78924 -1.94456,7.25692 z m 50.13282,-35.0424 -0.031,-0.0541 0.043,0.0115 -0.011,0.0427 z m 2.9459,-56.5851 c -0.8479,0.57264 -1.8838,0.89313 -2.9846,0.89312 -2.9353,-4e-5 -5.3029,-2.37456 -5.3029,-5.30993 0,-2.93537 2.3747,-5.30289 5.3099,-5.30293 2.9354,0 5.303,2.37457 5.303,5.30993 -10e-5,1.8346 -0.9124,3.4553 -2.3254,4.40981 z"
       id="path45587"
       inkscape:connector-curvature="0" />
    <path
       style="fill:none;stroke:#000000"
       d="m 891.19546,248.76684 -4.5937,7.2187 -1.1875,5.7813 0.25,1.3124 -5.125,1.375 -0.4375,-1.2812 -3.9063,-4.4062 -7.5937,-3.9688 -1.375,0.7812 -0.375,8.5626 1.875,5.5937 0.875,1.0313 -3.75,3.75 -1,-0.875 -5.59375,-1.875 -8.5625,0.375 -0.78125,1.3437 3.9375,7.5937 4.4375,3.9063 1.25,0.4687 -1.34375,5.125 -1.34375,-0.25 -5.78125,1.1563 -7.21875,4.5937 0,1.5938 7.21875,4.5938 5.78125,1.1562 1.34375,-0.25 1.34375,5.125 -1.25,0.4688 -4.4375,3.9062 -3.9375,7.5938 0.78125,1.3437 8.5625,0.375 5.59375,-1.875 1,-0.875 3.75,3.75 -0.875,1.0313 -1.875,5.5937 0.375,8.5625 1.375,0.7812 7.5937,-3.9687 3.9063,-4.4063 0.4375,-1.2812 5.125,1.375 -0.25,1.3125 1.1875,5.7813 4.5937,7.2187 1.5626,0 4.5937,-7.2187 1.1875,-5.7813 -0.25,-1.3125 5.125,-1.375 0.4375,1.2812 3.9063,4.4063 7.5937,3.9687 1.375,-0.7812 0.375,-8.5625 -1.875,-5.5937 -0.875,-1.0313 3.75,-3.75 1,0.875 5.5937,1.875 8.5626,-0.375 0.7812,-1.3437 -3.9375,-7.5938 -4.4375,-3.9062 -1.25,-0.4688 1.3438,-5.125 1.3437,0.25 5.7813,-1.1562 7.2187,-4.5938 0,-1.5938 -7.2187,-4.5937 -5.7813,-1.1563 -1.3437,0.25 -1.3438,-5.125 1.25,-0.4687 4.4375,-3.9063 3.9375,-7.5937 -0.7812,-1.3437 -8.5626,-0.375 -5.5937,1.875 -1,0.875 -3.75,-3.75 0.875,-1.0313 1.875,-5.5937 -0.375,-8.5626 -1.375,-0.7812 -7.5937,3.9688 -3.9063,4.4062 -0.4375,1.2812 -5.125,-1.375 0.25,-1.3124 -1.1875,-5.7813 -4.5937,-7.2187 -1.5626,0 z m 0.7813,43.7187 c 2.4202,0 4.375,1.9861 4.375,4.4063 0,2.4201 -1.9548,4.375 -4.375,4.375 -2.4202,0 -4.375,-1.9549 -4.375,-4.375 0,-2.4202 1.9548,-4.4063 4.375,-4.4063 z"
       id="path34813"
       inkscape:connector-curvature="0" />
    <path
       style="fill:none;stroke:#000000"
       d="m 1017.75,458.79725 -4.2188,7 -3.0937,7.0625 -3.375,0.3125 -4.2813,-6.4375 -5.3437,-6.1562 -2.375,0.4062 -2.90625,7.625 -1.8125,7.5 -3.3125,0.875 -5.3125,-5.5938 -6.34375,-5.125 -2.25,0.8438 -1.5625,8 -0.46875,7.6875 -3.09375,1.4375 -6.21875,-4.5625 -7.125,-3.9687 -2.0625,1.1874 -0.15625,8.1563 0.875,7.6875 -2.8125,1.9375 -6.90625,-3.4063 -7.71875,-2.6562 -1.8125,1.5312 1.25,8.0626 2.1875,7.375 -2.40625,2.4374 -7.40625,-2.1874 -8.0625,-1.2813 -1.53125,1.8437 2.65625,7.7188 3.4375,6.9062 -1.96875,2.7813 -7.65625,-0.8437 -8.15625,0.125 -1.1875,2.0937 3.9375,7.125 4.59375,6.1875 -1.46875,3.0938 -7.6875,0.5 -8,1.5624 -0.8125,2.25 5.125,6.3438 5.59375,5.3125 -0.90625,3.2813 -7.46875,1.8124 -7.625,2.9376 -0.40625,2.3437 6.15625,5.375 6.40625,4.25 -0.28125,3.4063 -7.09375,3.0937 -6.96875,4.1875 0,2.4062 6.96875,4.1876 7.09375,3.0937 0.28125,3.4063 -6.40625,4.25 -6.15625,5.375 0.40625,2.3437 7.625,2.9375 7.46875,1.8125 0.90625,3.2813 -5.59375,5.3124 -5.125,6.3438 0.8125,2.25 8,1.5625 7.6875,0.5 1.46875,3.0625 -4.59375,6.2188 -3.9375,7.125 1.1875,2.0937 8.15625,0.125 7.65625,-0.8437 1.96875,2.7812 -3.4375,6.9062 -2.65625,7.7188 1.53125,1.8438 8.0625,-1.2813 7.40625,-2.1875 2.40625,2.4375 -2.1875,7.375 -1.25,8.0625 1.8125,1.5312 7.71875,-2.6562 6.90625,-3.4062 2.8125,1.9374 -0.875,7.6876 0.15625,8.125 2.0625,1.2187 7.125,-3.9687 6.21875,-4.5626 3.09375,1.4376 0.46875,7.6874 1.5625,8 2.25,0.8438 6.34375,-5.1562 5.3125,-5.5626 3.3125,0.875 1.8125,7.5 2.90625,7.5938 2.375,0.4375 5.3437,-6.1563 4.2813,-6.4374 3.375,0.3124 3.0937,7.0626 4.2188,7 2.375,0 4.2188,-7 3.0937,-7.0626 3.375,-0.3124 4.2813,6.4374 5.3437,6.1563 2.3437,-0.4375 2.9376,-7.5938 1.8124,-7.5 3.3126,-0.875 5.3124,5.5626 6.3438,5.1562 2.25,-0.8438 1.5312,-8 0.5,-7.6874 3.0938,-1.4376 6.2188,4.5626 7.125,3.9687 2.0624,-1.2187 0.1563,-8.125 -0.875,-7.6876 2.8125,-1.9374 6.9062,3.4062 7.7188,2.6562 1.8125,-1.5312 -1.2813,-8.0625 -2.1562,-7.375 2.4062,-2.4375 7.4063,2.1875 8.0625,1.2813 1.5312,-1.8438 -2.6562,-7.7188 -3.4375,-6.9062 1.9687,-2.7812 7.6563,0.8437 8.1563,-0.125 1.1874,-2.0937 -3.9374,-7.125 -4.5938,-6.2188 1.4688,-3.0625 7.6874,-0.5 8,-1.5625 0.8126,-2.25 -5.125,-6.3438 -5.5938,-5.3124 0.9062,-3.2813 7.4688,-1.8125 7.625,-2.9375 0.4062,-2.3437 -6.1562,-5.375 -6.4062,-4.25 0.2812,-3.4063 7.0625,-3.0937 7,-4.1876 0,-2.4062 -7,-4.1875 -7.0625,-3.0937 -0.2812,-3.4063 6.4062,-4.25 6.1562,-5.375 -0.4062,-2.3437 -7.625,-2.9376 -7.4688,-1.8124 -0.9062,-3.2813 5.5938,-5.3125 5.125,-6.3438 -0.8126,-2.25 -8,-1.5624 -7.6874,-0.5 -1.4688,-3.0938 4.5938,-6.1875 3.9374,-7.125 -1.1874,-2.0937 -8.1563,-0.125 -7.6563,0.8437 -1.9687,-2.7813 3.4375,-6.9062 2.6562,-7.7188 -1.5312,-1.8437 -8.0625,1.2813 -7.4063,2.1874 -2.4062,-2.4374 2.1562,-7.375 1.2813,-8.0626 -1.8125,-1.5312 -7.7188,2.6562 -6.9062,3.4063 -2.8125,-1.9375 0.875,-7.6875 -0.1563,-8.1563 -2.0624,-1.1874 -7.125,3.9687 -6.2188,4.5625 -3.0938,-1.4375 -0.5,-7.6875 -1.5312,-8 -2.25,-0.8438 -6.3438,5.125 -5.3124,5.5938 -3.3126,-0.875 -1.8124,-7.5 -2.9376,-7.625 -2.3437,-0.4062 -5.3437,6.1562 -4.2813,6.4375 -3.375,-0.3125 -3.0937,-7.0625 -4.2188,-7 -2.375,0 z m 11.2812,41.8437 2.1563,0.25 3.4063,7.5313 1.7187,7.4063 3.5937,0.9374 5.125,-5.5937 6.6563,-4.9063 2,0.8126 1.3437,8.1562 -0.2812,7.5938 3.25,1.8437 6.4062,-4.0937 7.6876,-3 1.7187,1.3124 -0.8125,8.2188 -2.2188,7.25 2.6563,2.625 7.2187,-2.2812 8.2188,-0.9063 1.3438,1.7187 -2.9376,7.7188 -4,6.4375 1.875,3.2187 7.5938,-0.3437 8.1562,1.25 0.8438,2 -4.8438,6.6875 -5.5312,5.1875 0.9688,3.5937 7.4374,1.625 7.5626,3.3126 0.2812,2.1562 -6.375,5.2188 -6.7188,3.5937 0.031,3.7187 6.7187,3.5 6.4688,5.1563 -0.2812,2.1563 -7.5313,3.375 -7.4063,1.7187 -0.9374,3.625 5.625,5.125 4.875,6.625 -0.8126,2.0313 -8.1562,1.3124 -7.5938,-0.25 -1.8437,3.25 4.0937,6.375 3,7.6876 -1.3124,1.75 -8.2188,-0.8438 -7.25,-2.2188 -2.625,2.6563 2.3125,7.25 0.9063,8.2187 -1.7188,1.3126 -7.7188,-2.9063 -6.4374,-4.0313 -3.25,1.875 0.375,7.5938 -1.25,8.1562 -2,0.8438 -6.7188,-4.8125 -5.1875,-5.5625 -3.5937,1 -1.625,7.4062 -3.3126,7.5626 -2.1562,0.3124 -5.2188,-6.4062 -3.5624,-6.6875 -3.75,0 -3.4688,6.75 -5.1562,6.4375 -2.1563,-0.25 -3.4063,-7.5312 -1.7187,-7.4063 -3.59375,-0.9375 -5.125,5.5938 -6.65625,4.9062 -2,-0.8125 -1.34375,-8.1563 0.28125,-7.5937 -3.25,-1.8437 -6.40625,4.0937 -7.6875,3 -1.71875,-1.3125 0.8125,-8.2188 2.21875,-7.25 -2.65625,-2.625 -7.25,2.2813 -8.1875,0.9063 -1.34375,-1.7188 2.9375,-7.7188 4,-6.4374 -1.875,-3.2188 -7.59375,0.3438 -8.15625,-1.25 -0.84375,-2 4.84375,-6.6876 5.53125,-5.1874 -0.96875,-3.5938 -7.4375,-1.625 -7.5625,-3.3125 -0.28125,-2.1563 6.375,-5.25 6.71875,-3.5624 -0.0312,-3.7188 -6.71875,-3.5 -6.46875,-5.1562 0.28125,-2.1563 7.53125,-3.4063 7.375,-1.6874 0.96875,-3.625 -5.625,-5.125 -4.875,-6.625 0.8125,-2.0313 8.15625,-1.3125 7.59375,0.25 1.84375,-3.25 -4.09375,-6.375 -3,-7.7188 1.3125,-1.7187 8.21875,0.8125 7.25,2.2188 2.625,-2.625 -2.3125,-7.25 -0.90625,-8.2188 1.71875,-1.3125 7.71875,2.9063 6.4375,4.0312 3.21875,-1.875 -0.34375,-7.5938 1.25,-8.1562 2,-0.8438 6.71875,4.8126 5.15625,5.5624 3.6249,-1 1.625,-7.4062 3.3126,-7.5625 2.1562,-0.3125 5.2188,6.4062 3.5624,6.6876 3.75,0 3.4688,-6.75 5.1562,-6.4376 z"
       id="path34923"
       inkscape:connector-curvature="0" />
    <path
       style="fill:none;stroke:#000000;stroke-width:1;stroke-miterlimit:4;stroke-dasharray:none"
       d="m 794.60356,266.08185 -0.4063,0.25 -0.625,9.0937 1.2813,2.6563 3.0624,2.75 -2.8437,4.9375 -3.9063,-1.2812 -2.93745,0.1874 -7.5625,5.0938 0,0.5 7.5625,5.0938 2.93745,0.2187 3.9063,-1.2813 2.8437,4.9063 -3.0624,2.75 -1.2813,2.6563 0.625,9.0937 0.4063,0.25 8.2187,-4 1.6563,-2.4687 0.8437,-4 5.6875,0 0.8438,4 1.6562,2.4687 8.1875,4 0.4063,-0.25 0.625,-9.0937 -1.2813,-2.6563 -3.0625,-2.75 2.8438,-4.9063 3.9062,1.2813 2.9375,-0.2187 7.5937,-5.0938 0,-0.5 -7.5937,-5.0938 -2.9375,-0.1874 -3.9062,1.2812 -2.8438,-4.9375 3.0625,-2.75 1.2813,-2.6563 -0.625,-9.0937 -0.4063,-0.25 -8.1875,4.0313 -1.6562,2.4374 -0.8438,4.0313 -5.6875,0 -0.8437,-4.0313 -1.6563,-2.4374 -8.2187,-4.0313 z m 13.5624,19.5625 c 2.4224,0 4.375,1.9527 4.375,4.375 0,2.4223 -1.9526,4.375 -4.375,4.375 -2.4223,0 -4.4062,-1.9527 -4.4062,-4.375 0,-2.4223 1.9839,-4.375 4.4062,-4.375 z"
       id="path34829"
       inkscape:connector-curvature="0" />
    <g
       inkscape:label="Gear28"
       transform="matrix(0.99358169,-0.11311682,0.11311682,0.99358169,1240.6188,589.4379)"
       id="g34958">
      <path
         inkscape:connector-curvature="0"
         style="fill:none;stroke:#000000"
         d="m 89.002,-8.222 7.103,2.825 7.021,4.265 0,2.264 -7.021,4.265 -7.103,2.825 -0.401,3.567 6.296,4.335 5.895,5.72 -0.503,2.207 -7.794,2.596 -7.554,1.174 -1.185,3.388 5.174,5.627 4.475,6.889 -0.983,2.039 -8.176,0.797 -7.625,-0.536 -1.91,3.039 3.792,6.637 2.83,7.712 -1.411,1.77 -8.149,-1.043 -7.314,-2.22 -2.539,2.539 2.22,7.314 1.043,8.149 -1.77,1.411 -7.712,-2.83 -6.637,-3.792 -3.039,1.91 0.536,7.625 -0.797,8.176 -2.039,0.983 -6.889,-4.475 -5.627,-5.174 -3.388,1.185 -1.174,7.554 -2.596,7.794 -2.207,0.503 -5.72,-5.895 -4.335,-6.296 -3.567,0.401 -2.825,7.103 -4.265,7.021 -2.264,0 -4.265,-7.021 -2.825,-7.103 -3.567,-0.401 -4.335,6.296 -5.72,5.895 -2.207,-0.503 -2.596,-7.794 -1.174,-7.554 -3.388,-1.185 -5.627,5.174 -6.889,4.475 -2.039,-0.983 -0.797,-8.176 0.536,-7.625 -3.039,-1.91 -6.637,3.792 -7.712,2.83 -1.77,-1.411 1.043,-8.149 2.22,-7.314 -2.539,-2.539 -7.314,2.22 -8.149,1.043 -1.411,-1.77 2.83,-7.712 3.792,-6.637 -1.91,-3.039 -7.625,0.536 -8.176,-0.797 -0.983,-2.039 4.475,-6.889 5.174,-5.627 -1.185,-3.388 -7.554,-1.174 -7.794,-2.596 -0.503,-2.207 5.895,-5.72 6.296,-4.335 -0.401,-3.567 -7.103,-2.825 -7.021,-4.265 0,-2.264 7.021,-4.265 7.103,-2.825 0.401,-3.567 -6.296,-4.335 -5.895,-5.72 0.503,-2.207 7.794,-2.596 7.554,-1.174 1.185,-3.388 -5.174,-5.627 -4.475,-6.889 0.983,-2.039 8.176,-0.797 7.625,0.536 1.91,-3.039 -3.792,-6.637 -2.83,-7.712 1.411,-1.77 8.149,1.043 7.314,2.22 2.539,-2.539 -2.22,-7.314 -1.043,-8.149 1.77,-1.411 7.712,2.83 6.637,3.792 3.039,-1.91 -0.536,-7.625 0.797,-8.176 2.039,-0.983 6.889,4.475 5.627,5.174 3.388,-1.185 1.174,-7.554 2.596,-7.794 2.207,-0.503 5.72,5.895 4.335,6.296 3.567,-0.401 2.825,-7.103 4.265,-7.021 2.264,0 4.265,7.021 2.825,7.103 3.567,0.401 4.335,-6.296 5.72,-5.895 2.207,0.503 2.596,7.794 1.174,7.554 3.388,1.185 5.627,-5.174 6.889,-4.475 2.039,0.983 0.797,8.176 -0.536,7.625 3.039,1.91 6.637,-3.792 7.712,-2.83 1.77,1.411 -1.043,8.149 -2.22,7.314 2.539,2.539 7.314,-2.22 8.149,-1.043 1.411,1.77 -2.83,7.712 -3.792,6.637 1.91,3.039 7.625,-0.536 8.176,0.797 0.983,2.039 -4.475,6.889 -5.174,5.627 1.185,3.388 7.554,1.174 7.794,2.596 0.503,2.207 -5.895,5.72 -6.296,4.335 z"
         id="path34960" />
    </g>
    <g
       id="g35004"
       transform="matrix(0.82255356,-0.56868765,0.56868765,0.82255356,1373.6321,514.6356)"
       inkscape:label="Gear16">
      <path
         id="path35006"
         d="m 47.581,-7.237 7.158,1.846 7.133,4.46 0,1.862 -7.133,4.46 -7.158,1.846 -0.852,4.286 5.906,4.444 4.884,6.851 -0.712,1.719 -8.298,1.392 -7.319,-1.035 -2.428,3.634 3.757,6.366 1.889,8.198 -1.316,1.316 -8.198,-1.889 -6.366,-3.757 -3.634,2.428 1.035,7.319 -1.392,8.298 -1.719,0.712 -6.851,-4.884 -4.444,-5.906 -4.286,0.852 -1.846,7.158 -4.46,7.133 -1.862,0 -4.46,-7.133 -1.846,-7.158 -4.286,-0.852 -4.444,5.906 -6.851,4.884 -1.719,-0.712 -1.392,-8.298 1.035,-7.319 -3.634,-2.428 -6.366,3.757 -8.198,1.889 -1.316,-1.316 1.889,-8.198 3.757,-6.366 -2.428,-3.634 -7.319,1.035 -8.298,-1.392 -0.712,-1.719 4.884,-6.851 5.906,-4.444 -0.852,-4.286 -7.158,-1.846 -7.133,-4.46 0,-1.862 7.133,-4.46 7.158,-1.846 0.852,-4.286 -5.906,-4.444 -4.884,-6.851 0.712,-1.719 8.298,-1.392 7.319,1.035 2.428,-3.634 -3.757,-6.366 -1.889,-8.198 1.316,-1.316 8.198,1.889 6.366,3.757 3.634,-2.428 -1.035,-7.319 1.392,-8.298 1.719,-0.712 6.851,4.884 4.444,5.906 4.286,-0.852 1.846,-7.158 4.46,-7.133 1.862,0 4.46,7.133 1.846,7.158 4.286,0.852 4.444,-5.906 6.851,-4.884 1.719,0.712 1.392,8.298 -1.035,7.319 3.634,2.428 6.366,-3.757 8.198,-1.889 1.316,1.316 -1.889,8.198 -3.757,6.366 2.428,3.634 7.319,-1.035 8.298,1.392 0.712,1.719 -4.884,6.851 -5.906,4.444 z"
         style="fill:none;stroke:#000000"
         inkscape:connector-curvature="0" />
    </g>
    <g
       id="g35033"
       transform="matrix(-0.80323685,-0.59565977,0.59565977,-0.80323685,1373.6321,665.6356)"
       inkscape:label="Gear16">
      <path
         id="path35035"
         d="m 47.581,-7.237 7.158,1.846 7.133,4.46 0,1.862 -7.133,4.46 -7.158,1.846 -0.852,4.286 5.906,4.444 4.884,6.851 -0.712,1.719 -8.298,1.392 -7.319,-1.035 -2.428,3.634 3.757,6.366 1.889,8.198 -1.316,1.316 -8.198,-1.889 -6.366,-3.757 -3.634,2.428 1.035,7.319 -1.392,8.298 -1.719,0.712 -6.851,-4.884 -4.444,-5.906 -4.286,0.852 -1.846,7.158 -4.46,7.133 -1.862,0 -4.46,-7.133 -1.846,-7.158 -4.286,-0.852 -4.444,5.906 -6.851,4.884 -1.719,-0.712 -1.392,-8.298 1.035,-7.319 -3.634,-2.428 -6.366,3.757 -8.198,1.889 -1.316,-1.316 1.889,-8.198 3.757,-6.366 -2.428,-3.634 -7.319,1.035 -8.298,-1.392 -0.712,-1.719 4.884,-6.851 5.906,-4.444 -0.852,-4.286 -7.158,-1.846 -7.133,-4.46 0,-1.862 7.133,-4.46 7.158,-1.846 0.852,-4.286 -5.906,-4.444 -4.884,-6.851 0.712,-1.719 8.298,-1.392 7.319,1.035 2.428,-3.634 -3.757,-6.366 -1.889,-8.198 1.316,-1.316 8.198,1.889 6.366,3.757 3.634,-2.428 -1.035,-7.319 1.392,-8.298 1.719,-0.712 6.851,4.884 4.444,5.906 4.286,-0.852 1.846,-7.158 4.46,-7.133 1.862,0 4.46,7.133 1.846,7.158 4.286,0.852 4.444,-5.906 6.851,-4.884 1.719,0.712 1.392,8.298 -1.035,7.319 3.634,2.428 6.366,-3.757 8.198,-1.889 1.316,1.316 -1.889,8.198 -3.757,6.366 2.428,3.634 7.319,-1.035 8.298,1.392 0.712,1.719 -4.884,6.851 -5.906,4.444 z"
         style="fill:none;stroke:#000000"
         inkscape:connector-curvature="0" />
    </g>
    <g
       id="g35037"
       transform="matrix(0.99838485,-0.05681267,0.05681267,0.99838485,1502.6188,589.4379)"
       inkscape:label="Gear28">
      <path
         id="path35039"
         d="m 89.002,-8.222 7.103,2.825 7.021,4.265 0,2.264 -7.021,4.265 -7.103,2.825 -0.401,3.567 6.296,4.335 5.895,5.72 -0.503,2.207 -7.794,2.596 -7.554,1.174 -1.185,3.388 5.174,5.627 4.475,6.889 -0.983,2.039 -8.176,0.797 -7.625,-0.536 -1.91,3.039 3.792,6.637 2.83,7.712 -1.411,1.77 -8.149,-1.043 -7.314,-2.22 -2.539,2.539 2.22,7.314 1.043,8.149 -1.77,1.411 -7.712,-2.83 -6.637,-3.792 -3.039,1.91 0.536,7.625 -0.797,8.176 -2.039,0.983 -6.889,-4.475 -5.627,-5.174 -3.388,1.185 -1.174,7.554 -2.596,7.794 -2.207,0.503 -5.72,-5.895 -4.335,-6.296 -3.567,0.401 -2.825,7.103 -4.265,7.021 -2.264,0 -4.265,-7.021 -2.825,-7.103 -3.567,-0.401 -4.335,6.296 -5.72,5.895 -2.207,-0.503 -2.596,-7.794 -1.174,-7.554 -3.388,-1.185 -5.627,5.174 -6.889,4.475 -2.039,-0.983 -0.797,-8.176 0.536,-7.625 -3.039,-1.91 -6.637,3.792 -7.712,2.83 -1.77,-1.411 1.043,-8.149 2.22,-7.314 -2.539,-2.539 -7.314,2.22 -8.149,1.043 -1.411,-1.77 2.83,-7.712 3.792,-6.637 -1.91,-3.039 -7.625,0.536 -8.176,-0.797 -0.983,-2.039 4.475,-6.889 5.174,-5.627 -1.185,-3.388 -7.554,-1.174 -7.794,-2.596 -0.503,-2.207 5.895,-5.72 6.296,-4.335 -0.401,-3.567 -7.103,-2.825 -7.021,-4.265 0,-2.264 7.021,-4.265 7.103,-2.825 0.401,-3.567 -6.296,-4.335 -5.895,-5.72 0.503,-2.207 7.794,-2.596 7.554,-1.174 1.185,-3.388 -5.174,-5.627 -4.475,-6.889 0.983,-2.039 8.176,-0.797 7.625,0.536 1.91,-3.039 -3.792,-6.637 -2.83,-7.712 1.411,-1.77 8.149,1.043 7.314,2.22 2.539,-2.539 -2.22,-7.314 -1.043,-8.149 1.77,-1.411 7.712,2.83 6.637,3.792 3.039,-1.91 -0.536,-7.625 0.797,-8.176 2.039,-0.983 6.889,4.475 5.627,5.174 3.388,-1.185 1.174,-7.554 2.596,-7.794 2.207,-0.503 5.72,5.895 4.335,6.296 3.567,-0.401 2.825,-7.103 4.265,-7.021 2.264,0 4.265,7.021 2.825,7.103 3.567,0.401 4.335,-6.296 5.72,-5.895 2.207,0.503 2.596,7.794 1.174,7.554 3.388,1.185 5.627,-5.174 6.889,-4.475 2.039,0.983 0.797,8.176 -0.536,7.625 3.039,1.91 6.637,-3.792 7.712,-2.83 1.77,1.411 -1.043,8.149 -2.22,7.314 2.539,2.539 7.314,-2.22 8.149,-1.043 1.411,1.77 -2.83,7.712 -3.792,6.637 1.91,3.039 7.625,-0.536 8.176,0.797 0.983,2.039 -4.475,6.889 -5.174,5.627 1.185,3.388 7.554,1.174 7.794,2.596 0.503,2.207 -5.895,5.72 -6.296,4.335 z"
         style="fill:none;stroke:#000000"
         inkscape:connector-curvature="0" />
    </g>
    <rect
       style="fill:#ff0000;fill-opacity:1;stroke:none"
       id="rect45000"
       width="21.6"
       height="21.6"
       x="1350.9551"
       y="430.54016" />
    <flowRoot
       xml:space="preserve"
       id="flowRoot45548"
       style="font-size:12px;font-style:normal;font-variant:normal;font-weight:normal;font-stretch:normal;text-align:start;line-height:125%;letter-spacing:0px;word-spacing:0px;writing-mode:lr-tb;text-anchor:start;fill:#000000;fill-opacity:1;stroke:none;font-family:Sans;-inkscape-font-specification:Sans"
       transform="translate(0,-567.64025)"><flowRegion
         id="flowRegion45550"><rect
           id="rect45552"
           width="86.116554"
           height="39.537849"
           x="397.5444"
           y="1050.764" /></flowRegion><flowPara
         id="flowPara45554">sun to planet</flowPara></flowRoot>    <text
       xml:space="preserve"
       style="font-size:12px;font-style:normal;font-variant:normal;font-weight:normal;font-stretch:normal;text-align:start;line-height:125%;letter-spacing:0px;word-spacing:0px;writing-mode:lr-tb;text-anchor:start;fill:#000000;fill-opacity:1;stroke:none;font-family:Sans;-inkscape-font-specification:Sans"
       x="1008.0013"
       y="490.42203"
       id="text45606"
       sodipodi:linespacing="125%"><tspan
         sodipodi:role="line"
         id="tspan45608"
         x="1008.0013"
         y="490.42203">36</tspan></text>
    <text
       xml:space="preserve"
       style="font-size:12px;font-style:normal;font-variant:normal;font-weight:normal;font-stretch:normal;text-align:start;line-height:125%;letter-spacing:0px;word-spacing:0px;writing-mode:lr-tb;text-anchor:start;fill:#000000;fill-opacity:1;stroke:none;font-family:Sans;-inkscape-font-specification:Sans"
       x="1227.4442"
       y="515.03247"
       id="text45610"
       sodipodi:linespacing="125%"><tspan
         sodipodi:role="line"
         id="tspan45612"
         x="1227.4442"
         y="515.03247">28</tspan><tspan
         sodipodi:role="line"
         x="1227.4442"
         y="530.03247"
         id="tspan45614" /></text>
    <rect
       style="fill:none;stroke:#000000;stroke-width:1;stroke-miterlimit:4;stroke-opacity:1;stroke-dasharray:none"
       id="rect45622"
       width="10.62992"
       height="10.62992"
       x="349.01575"
       y="1260.3544"
       transform="translate(0,-567.64025)" />
    <path
       sodipodi:type="arc"
       style="fill:none;stroke:#000000;stroke-width:1;stroke-miterlimit:4;stroke-opacity:1;stroke-dasharray:none"
       id="path45624"
       sodipodi:cx="570.82678"
       sodipodi:cy="1265.6693"
       sodipodi:rx="5.31496"
       sodipodi:ry="5.31496"
       d="m 576.14174,1265.6693 a 5.31496,5.31496 0 1 1 -10.62992,0 5.31496,5.31496 0 1 1 10.62992,0 z"
       transform="translate(0,-567.64025)" />
    <path
       sodipodi:type="arc"
       style="fill:none;stroke:#000000;stroke-width:1;stroke-miterlimit:4;stroke-opacity:1;stroke-dasharray:none"
       id="path45632"
       sodipodi:cx="719.64569"
       sodipodi:cy="1265.6693"
       sodipodi:rx="5.31496"
       sodipodi:ry="5.31496"
       d="m 724.96065,1265.6693 a 5.31496,5.31496 0 1 1 -10.62992,0 5.31496,5.31496 0 1 1 10.62992,0 z"
       transform="matrix(0.70710678,-0.70710678,0.70710678,0.70710678,-727.77206,206.70114)" />
    <path
       transform="matrix(0.70710678,0.70710678,-0.70710678,0.70710678,1062.1548,-600.56981)"
       d="m 724.96065,1265.6693 a 5.31496,5.31496 0 1 1 -10.62992,0 5.31496,5.31496 0 1 1 10.62992,0 z"
       sodipodi:ry="5.31496"
       sodipodi:rx="5.31496"
       sodipodi:cy="1265.6693"
       sodipodi:cx="719.64569"
       id="path45636"
       style="fill:none;stroke:#000000;stroke-width:1;stroke-miterlimit:4;stroke-opacity:1;stroke-dasharray:none"
       sodipodi:type="arc" />
    <text
       xml:space="preserve"
       style="font-size:12px;font-style:normal;font-variant:normal;font-weight:normal;font-stretch:normal;text-align:start;line-height:125%;letter-spacing:0px;word-spacing:0px;writing-mode:lr-tb;text-anchor:start;fill:#000000;fill-opacity:1;stroke:none;font-family:Sans;-inkscape-font-specification:Sans"
       x="1362.2511"
       y="1049.9043"
       id="text45640"
       sodipodi:linespacing="125%"
       transform="translate(0,-567.64025)"><tspan
         sodipodi:role="line"
         id="tspan45642"
         x="1362.2511"
         y="1049.9043">16</tspan><tspan
         sodipodi:role="line"
         x="1362.2511"
         y="1064.9043"
         id="tspan45644" /></text>
  </g>
</svg>
