<?xml version="1.0" encoding="UTF-8" standalone="no"?>
<!-- Created with Inkscape (http://www.inkscape.org/) -->

<svg
   xmlns:dc="http://purl.org/dc/elements/1.1/"
   xmlns:cc="http://creativecommons.org/ns#"
   xmlns:rdf="http://www.w3.org/1999/02/22-rdf-syntax-ns#"
   xmlns:svg="http://www.w3.org/2000/svg"
   xmlns="http://www.w3.org/2000/svg"
   xmlns:sodipodi="http://sodipodi.sourceforge.net/DTD/sodipodi-0.dtd"
   xmlns:inkscape="http://www.inkscape.org/namespaces/inkscape"
   width="2160"
   height="1620"
   id="svg34476"
   version="1.1"
   inkscape:version="0.48.1 r9760"
   sodipodi:docname="planetary_experiment.svg">
  <sodipodi:namedview
     id="base"
     pagecolor="#ffffff"
     bordercolor="#666666"
     borderopacity="1.0"
     inkscape:pageopacity="0.0"
     inkscape:pageshadow="2"
     inkscape:zoom="0.50246914"
     inkscape:cx="1080"
     inkscape:cy="810"
     inkscape:document-units="mm"
     inkscape:current-layer="layer1"
     showgrid="false"
     inkscape:window-width="1680"
     inkscape:window-height="1002"
     inkscape:window-x="0"
     inkscape:window-y="0"
     inkscape:window-maximized="0"
     units="in"
     showguides="false"
     inkscape:guide-bbox="true">
    <sodipodi:guide
       orientation="1,0"
       position="354.33071,354.33071"
       id="guide45002" />
    <sodipodi:guide
       orientation="1,0"
       position="349.01575,349.01575"
       id="guide45004" />
    <sodipodi:guide
       orientation="1,0"
       position="359.64567,359.64567"
       id="guide45006" />
    <sodipodi:guide
       orientation="0,1"
       position="359.64567,359.64567"
       id="guide45008" />
    <sodipodi:guide
       orientation="0,1"
       position="349.01575,349.01575"
       id="guide45010" />
    <sodipodi:guide
       orientation="1,0"
       position="415.27559,354.33071"
       id="guide45542" />
    <sodipodi:guide
       orientation="1,0"
       position="409.96063,354.33071"
       id="guide45544" />
    <sodipodi:guide
       orientation="1,0"
       position="420.59055,354.33071"
       id="guide45546" />
    <sodipodi:guide
       orientation="1,0"
       position="432.99213,354.33071"
       id="guide45581" />
    <sodipodi:guide
       orientation="0,1"
       position="432.99213,336.61417"
       id="guide45585" />
    <sodipodi:guide
       orientation="0,1"
       position="415.27559,372.04724"
       id="guide45589" />
    <sodipodi:guide
       orientation="1,0"
       position="570.82677,354.33071"
       id="guide45616" />
    <sodipodi:guide
       orientation="1,0"
       position="565.51181,354.33071"
       id="guide45618" />
    <sodipodi:guide
       orientation="1,0"
       position="576.14173,354.33071"
       id="guide45620" />
    <sodipodi:guide
       orientation="1,0"
       position="719.64567,354.33071"
       id="guide45626" />
    <sodipodi:guide
       orientation="1,0"
       position="714.33071,354.33071"
       id="guide45628" />
    <sodipodi:guide
       orientation="1,0"
       position="724.96063,354.33071"
       id="guide45630" />
    <sodipodi:guide
       position="670.24268,453.74665"
       orientation="-11.62992,0"
       id="guide45727" />
    <sodipodi:guide
       position="670.24268,465.37657"
       orientation="0,11.62992"
       id="guide45729" />
    <sodipodi:guide
       position="681.8726,465.37657"
       orientation="11.62992,0"
       id="guide45731" />
    <sodipodi:guide
       position="681.8726,453.74665"
       orientation="0,-11.62992"
       id="guide45733" />
    <sodipodi:guide
       position="775.47356,348.5157"
       orientation="-11.62992,0"
       id="guide45739" />
    <sodipodi:guide
       position="787.10348,360.14562"
       orientation="11.62992,0"
       id="guide45743" />
    <sodipodi:guide
       orientation="1,0"
       position="807.87402,618.55848"
       id="guide45765" />
    <sodipodi:guide
       orientation="0,1"
       position="936.06949,481.88976"
       id="guide45767" />
    <sodipodi:guide
       orientation="0,1"
       position="945.47723,230.31496"
       id="guide45769" />
    <sodipodi:guide
       orientation="1,0"
       position="212.59843,314.2771"
       id="guide45778" />
  </sodipodi:namedview>
  <defs
     id="defs34478" />
  <metadata
     id="metadata34481">
    <rdf:RDF>
      <cc:Work
         rdf:about="">
        <dc:format>image/svg+xml</dc:format>
        <dc:type
           rdf:resource="http://purl.org/dc/dcmitype/StillImage" />
        <dc:title></dc:title>
      </cc:Work>
    </rdf:RDF>
  </metadata>
  <g
     transform="translate(0,567.64025)"
     id="layer1"
     inkscape:groupmode="layer"
     inkscape:label="Layer 1">
    <path
       style="fill:none;stroke:#000000;stroke-width:0.92532313;stroke-miterlimit:4;stroke-opacity:1;stroke-dasharray:none"
       d="m 13.581182,-556.76819 0,251.5625 595.281298,0 0,-251.5625 -595.281298,0 z m 463.468798,16.5 c 3.2115,0 5.8125,2.601 5.8125,5.8125 0,3.2115 -2.601,5.8125 -5.8125,5.8125 -3.2115,0 -5.8125,-2.601 -5.8125,-5.8125 0,-3.2115 2.601,-5.8125 5.8125,-5.8125 z m 105.7187,105.25 c 1.3561,0 2.7122,0.4936 3.75,1.5312 2.0757,2.076 2.0757,5.4246 0,7.5 -1.0378,1.0382 -2.3897,1.5626 -3.75,1.5626 -1.3602,0 -2.7121,-0.5247 -3.75,-1.5626 -2.0756,-2.0752 -2.0756,-5.4243 0,-7.5 1.0379,-1.0374 2.394,-1.5312 3.75,-1.5312 z m -427.4375,0.4688 c 2.9354,0 5.3125,2.3771 5.3125,5.3124 0,2.9354 -2.3771,5.3126 -5.3125,5.3126 -2.9353,0 -5.3125,-2.3772 -5.3125,-5.3126 0,-2.9353 2.3772,-5.3124 5.3125,-5.3124 z m 216.4688,0 c 2.9354,0 5.3437,2.3773 5.3437,5.3124 0,2.9356 -2.4083,5.3126 -5.3437,5.3126 -2.9354,0 -5.3125,-2.3772 -5.3125,-5.3126 0,-2.9351 2.3771,-5.3124 5.3125,-5.3124 z m 105.25,105.25 c 1.3602,0 2.7122,0.5246 3.75,1.5624 2.0756,2.0759 2.0756,5.4247 0,7.5 -2.0756,2.0759 -5.4244,2.076 -7.5,0 -2.0756,-2.0753 -2.0756,-5.4241 0,-7.5 1.0378,-1.0375 2.3898,-1.5624 3.75,-1.5624 z"
       id="rect45763"
       inkscape:connector-curvature="0" />
    <path
       style="fill:none;stroke:#000000;stroke-width:1;stroke-miterlimit:4;stroke-opacity:1;stroke-dasharray:none"
       d="m 767.34893,-267.4053 c -9.7844,1e-5 -17.7188,7.96541 -17.7188,17.75 l -0.031,50.71875 -43.875,25.34375 c -8.4737,4.89228 -11.3924,15.74487 -6.5,24.21875 4.8922,8.47355 15.745,11.36105 24.2187,6.46875 l 43.9375,-25.375 43.9063,25.375 c 5.8256,3.3634 12.7645,3.0329 18.125,-0.25 2.4365,-1.4923 4.5648,-3.5707 6.0937,-6.21875 4.8922,-8.47354 1.9736,-19.32644 -6.5,-24.21875 l -43.9375,-25.375 0,-50.6875 c 1e-4,-9.7845 -7.934,-17.75004 -17.7187,-17.75 z m 0,12.40625 c 2.9354,0 5.2812,2.37714 5.2812,5.3125 -10e-5,1.8346 -0.8995,3.45174 -2.3125,4.40625 -0.8479,0.57264 -1.8679,0.90626 -2.9687,0.90625 -2.9353,-4e-5 -5.3125,-2.37713 -5.3125,-5.3125 0,-2.93537 2.3773,-5.31246 5.3125,-5.3125 z m 52.9375,91.40625 c 0.855,0.022 1.7056,0.2601 2.5,0.71875 2.5421,1.46768 3.4363,4.73915 1.9687,7.28125 -0.4587,0.79437 -1.0821,1.39628 -1.8125,1.84375 -1.6069,0.98463 -3.6898,1.07149 -5.4375,0.0625 -2.5421,-1.46769 -3.4364,-4.70787 -1.9687,-7.25 1.0089,-1.74769 2.8689,-2.70471 4.75,-2.65625 z m -105.8438,0.0312 c 1.8839,-0.0492 3.741,0.90854 4.75,2.65625 1.4676,2.54195 0.6046,5.81357 -1.9375,7.28125 -2.5421,1.46769 -5.8136,0.5732 -7.2812,-1.96875 -1.4678,-2.54222 -0.5734,-5.78231 1.9687,-7.25 0.7944,-0.45865 1.6437,-0.69639 2.5,-0.71875 z"
       id="path45587"
       inkscape:connector-curvature="0" />
    <path
       style="fill:none;stroke:#000000"
       d="m 568.22265,-300.11096 -4.5937,7.2187 -1.1875,5.7813 0.25,1.3124 -5.125,1.375 -0.4375,-1.2812 -3.9063,-4.4062 -7.5937,-3.9688 -1.375,0.7812 -0.375,8.5626 1.875,5.5937 0.875,1.0313 -3.75,3.75 -1,-0.875 -5.5938,-1.875 -8.5625,0.375 -0.7812,1.3437 3.9375,7.5937 4.4375,3.9063 1.25,0.4687 -1.3438,5.125 -1.3437,-0.25 -5.7813,1.1563 -7.2187,4.5937 0,1.5938 7.2187,4.5938 5.7813,1.1562 1.3437,-0.25 1.3438,5.125 -1.25,0.4688 -4.4375,3.9062 -3.9375,7.5938 0.7812,1.3437 8.5625,0.375 5.5938,-1.875 1,-0.875 3.75,3.75 -0.875,1.0313 -1.875,5.5937 0.375,8.5625 1.375,0.7812 7.5937,-3.9687 3.9063,-4.4063 0.4375,-1.2812 5.125,1.375 -0.25,1.3125 1.1875,5.7813 4.5937,7.2187 1.5625,0 4.5938,-7.2187 1.1875,-5.7813 -0.25,-1.3125 5.125,-1.375 0.4375,1.2812 3.9062,4.4063 7.5938,3.9687 1.375,-0.7812 0.375,-8.5625 -1.875,-5.5937 -0.875,-1.0313 3.75,-3.75 1,0.875 5.5937,1.875 8.5625,-0.375 0.7813,-1.3437 -3.9375,-7.5938 -4.4375,-3.9062 -1.25,-0.4688 1.3437,-5.125 1.3438,0.25 5.7812,-1.1562 7.2188,-4.5938 0,-1.5938 -7.2188,-4.5937 -5.7812,-1.1563 -1.3438,0.25 -1.3437,-5.125 1.25,-0.4687 4.4375,-3.9063 3.9375,-7.5937 -0.7813,-1.3437 -8.5625,-0.375 -5.5937,1.875 -1,0.875 -3.75,-3.75 0.875,-1.0313 1.875,-5.5937 -0.375,-8.5626 -1.375,-0.7812 -7.5938,3.9688 -3.9062,4.4062 -0.4375,1.2812 -5.125,-1.375 0.25,-1.3124 -1.1875,-5.7813 -4.5938,-7.2187 -1.5625,0 z m 0.7813,41.875 c 2.9354,0 5.3125,2.3771 5.3125,5.3124 0,2.9354 -2.3771,5.3126 -5.3125,5.3126 -2.9354,0 -5.3125,-2.3772 -5.3125,-5.3126 0,-2.9353 2.3771,-5.3124 5.3125,-5.3124 z"
       id="path45773"
       inkscape:connector-curvature="0" />
    <flowRoot
       xml:space="preserve"
       id="flowRoot45548"
       style="font-size:12px;font-style:normal;font-variant:normal;font-weight:normal;font-stretch:normal;text-align:start;line-height:125%;letter-spacing:0px;word-spacing:0px;writing-mode:lr-tb;text-anchor:start;fill:#000000;fill-opacity:1;stroke:none;font-family:Sans;-inkscape-font-specification:Sans"
       transform="translate(0,-567.64025)"><flowRegion
         id="flowRegion45550"><rect
           id="rect45552"
           width="86.116554"
           height="39.537849"
           x="397.5444"
           y="1050.764" /></flowRegion><flowPara
         id="flowPara45554">sun to planet</flowPara></flowRoot>    <g
       id="g45646"
       transform="translate(-274.13279,-1014.0896)">
      <path
         inkscape:connector-curvature="0"
         id="path34923"
         d="m 1017.75,458.79725 -4.2188,7 -3.0937,7.0625 -3.375,0.3125 -4.2813,-6.4375 -5.3437,-6.1562 -2.375,0.4062 -2.90625,7.625 -1.8125,7.5 -3.3125,0.875 -5.3125,-5.5938 -6.34375,-5.125 -2.25,0.8438 -1.5625,8 -0.46875,7.6875 -3.09375,1.4375 -6.21875,-4.5625 -7.125,-3.9687 -2.0625,1.1874 -0.15625,8.1563 0.875,7.6875 -2.8125,1.9375 -6.90625,-3.4063 -7.71875,-2.6562 -1.8125,1.5312 1.25,8.0626 2.1875,7.375 -2.40625,2.4374 -7.40625,-2.1874 -8.0625,-1.2813 -1.53125,1.8437 2.65625,7.7188 3.4375,6.9062 -1.96875,2.7813 -7.65625,-0.8437 -8.15625,0.125 -1.1875,2.0937 3.9375,7.125 4.59375,6.1875 -1.46875,3.0938 -7.6875,0.5 -8,1.5624 -0.8125,2.25 5.125,6.3438 5.59375,5.3125 -0.90625,3.2813 -7.46875,1.8124 -7.625,2.9376 -0.40625,2.3437 6.15625,5.375 6.40625,4.25 -0.28125,3.4063 -7.09375,3.0937 -6.96875,4.1875 0,2.4062 6.96875,4.1876 7.09375,3.0937 0.28125,3.4063 -6.40625,4.25 -6.15625,5.375 0.40625,2.3437 7.625,2.9375 7.46875,1.8125 0.90625,3.2813 -5.59375,5.3124 -5.125,6.3438 0.8125,2.25 8,1.5625 7.6875,0.5 1.46875,3.0625 -4.59375,6.2188 -3.9375,7.125 1.1875,2.0937 8.15625,0.125 7.65625,-0.8437 1.96875,2.7812 -3.4375,6.9062 -2.65625,7.7188 1.53125,1.8438 8.0625,-1.2813 7.40625,-2.1875 2.40625,2.4375 -2.1875,7.375 -1.25,8.0625 1.8125,1.5312 7.71875,-2.6562 6.90625,-3.4062 2.8125,1.9374 -0.875,7.6876 0.15625,8.125 2.0625,1.2187 7.125,-3.9687 6.21875,-4.5626 3.09375,1.4376 0.46875,7.6874 1.5625,8 2.25,0.8438 6.34375,-5.1562 5.3125,-5.5626 3.3125,0.875 1.8125,7.5 2.90625,7.5938 2.375,0.4375 5.3437,-6.1563 4.2813,-6.4374 3.375,0.3124 3.0937,7.0626 4.2188,7 2.375,0 4.2188,-7 3.0937,-7.0626 3.375,-0.3124 4.2813,6.4374 5.3437,6.1563 2.3437,-0.4375 2.9376,-7.5938 1.8124,-7.5 3.3126,-0.875 5.3124,5.5626 6.3438,5.1562 2.25,-0.8438 1.5312,-8 0.5,-7.6874 3.0938,-1.4376 6.2188,4.5626 7.125,3.9687 2.0624,-1.2187 0.1563,-8.125 -0.875,-7.6876 2.8125,-1.9374 6.9062,3.4062 7.7188,2.6562 1.8125,-1.5312 -1.2813,-8.0625 -2.1562,-7.375 2.4062,-2.4375 7.4063,2.1875 8.0625,1.2813 1.5312,-1.8438 -2.6562,-7.7188 -3.4375,-6.9062 1.9687,-2.7812 7.6563,0.8437 8.1563,-0.125 1.1874,-2.0937 -3.9374,-7.125 -4.5938,-6.2188 1.4688,-3.0625 7.6874,-0.5 8,-1.5625 0.8126,-2.25 -5.125,-6.3438 -5.5938,-5.3124 0.9062,-3.2813 7.4688,-1.8125 7.625,-2.9375 0.4062,-2.3437 -6.1562,-5.375 -6.4062,-4.25 0.2812,-3.4063 7.0625,-3.0937 7,-4.1876 0,-2.4062 -7,-4.1875 -7.0625,-3.0937 -0.2812,-3.4063 6.4062,-4.25 6.1562,-5.375 -0.4062,-2.3437 -7.625,-2.9376 -7.4688,-1.8124 -0.9062,-3.2813 5.5938,-5.3125 5.125,-6.3438 -0.8126,-2.25 -8,-1.5624 -7.6874,-0.5 -1.4688,-3.0938 4.5938,-6.1875 3.9374,-7.125 -1.1874,-2.0937 -8.1563,-0.125 -7.6563,0.8437 -1.9687,-2.7813 3.4375,-6.9062 2.6562,-7.7188 -1.5312,-1.8437 -8.0625,1.2813 -7.4063,2.1874 -2.4062,-2.4374 2.1562,-7.375 1.2813,-8.0626 -1.8125,-1.5312 -7.7188,2.6562 -6.9062,3.4063 -2.8125,-1.9375 0.875,-7.6875 -0.1563,-8.1563 -2.0624,-1.1874 -7.125,3.9687 -6.2188,4.5625 -3.0938,-1.4375 -0.5,-7.6875 -1.5312,-8 -2.25,-0.8438 -6.3438,5.125 -5.3124,5.5938 -3.3126,-0.875 -1.8124,-7.5 -2.9376,-7.625 -2.3437,-0.4062 -5.3437,6.1562 -4.2813,6.4375 -3.375,-0.3125 -3.0937,-7.0625 -4.2188,-7 -2.375,0 z m 11.2812,41.8437 2.1563,0.25 3.4063,7.5313 1.7187,7.4063 3.5937,0.9374 5.125,-5.5937 6.6563,-4.9063 2,0.8126 1.3437,8.1562 -0.2812,7.5938 3.25,1.8437 6.4062,-4.0937 7.6876,-3 1.7187,1.3124 -0.8125,8.2188 -2.2188,7.25 2.6563,2.625 7.2187,-2.2812 8.2188,-0.9063 1.3438,1.7187 -2.9376,7.7188 -4,6.4375 1.875,3.2187 7.5938,-0.3437 8.1562,1.25 0.8438,2 -4.8438,6.6875 -5.5312,5.1875 0.9688,3.5937 7.4374,1.625 7.5626,3.3126 0.2812,2.1562 -6.375,5.2188 -6.7188,3.5937 0.031,3.7187 6.7187,3.5 6.4688,5.1563 -0.2812,2.1563 -7.5313,3.375 -7.4063,1.7187 -0.9374,3.625 5.625,5.125 4.875,6.625 -0.8126,2.0313 -8.1562,1.3124 -7.5938,-0.25 -1.8437,3.25 4.0937,6.375 3,7.6876 -1.3124,1.75 -8.2188,-0.8438 -7.25,-2.2188 -2.625,2.6563 2.3125,7.25 0.9063,8.2187 -1.7188,1.3126 -7.7188,-2.9063 -6.4374,-4.0313 -3.25,1.875 0.375,7.5938 -1.25,8.1562 -2,0.8438 -6.7188,-4.8125 -5.1875,-5.5625 -3.5937,1 -1.625,7.4062 -3.3126,7.5626 -2.1562,0.3124 -5.2188,-6.4062 -3.5624,-6.6875 -3.75,0 -3.4688,6.75 -5.1562,6.4375 -2.1563,-0.25 -3.4063,-7.5312 -1.7187,-7.4063 -3.59375,-0.9375 -5.125,5.5938 -6.65625,4.9062 -2,-0.8125 -1.34375,-8.1563 0.28125,-7.5937 -3.25,-1.8437 -6.40625,4.0937 -7.6875,3 -1.71875,-1.3125 0.8125,-8.2188 2.21875,-7.25 -2.65625,-2.625 -7.25,2.2813 -8.1875,0.9063 -1.34375,-1.7188 2.9375,-7.7188 4,-6.4374 -1.875,-3.2188 -7.59375,0.3438 -8.15625,-1.25 -0.84375,-2 4.84375,-6.6876 5.53125,-5.1874 -0.96875,-3.5938 -7.4375,-1.625 -7.5625,-3.3125 -0.28125,-2.1563 6.375,-5.25 6.71875,-3.5624 -0.0312,-3.7188 -6.71875,-3.5 -6.46875,-5.1562 0.28125,-2.1563 7.53125,-3.4063 7.375,-1.6874 0.96875,-3.625 -5.625,-5.125 -4.875,-6.625 0.8125,-2.0313 8.15625,-1.3125 7.59375,0.25 1.84375,-3.25 -4.09375,-6.375 -3,-7.7188 1.3125,-1.7187 8.21875,0.8125 7.25,2.2188 2.625,-2.625 -2.3125,-7.25 -0.90625,-8.2188 1.71875,-1.3125 7.71875,2.9063 6.4375,4.0312 3.21875,-1.875 -0.34375,-7.5938 1.25,-8.1562 2,-0.8438 6.71875,4.8126 5.15625,5.5624 3.6249,-1 1.625,-7.4062 3.3126,-7.5625 2.1562,-0.3125 5.2188,6.4062 3.5624,6.6876 3.75,0 3.4688,-6.75 5.1562,-6.4376 z"
         style="fill:none;stroke:#000000" />
      <text
         sodipodi:linespacing="125%"
         id="text45606"
         y="490.42203"
         x="1008.0013"
         style="font-size:12px;font-style:normal;font-variant:normal;font-weight:normal;font-stretch:normal;text-align:start;line-height:125%;letter-spacing:0px;word-spacing:0px;writing-mode:lr-tb;text-anchor:start;fill:#000000;fill-opacity:1;stroke:none;font-family:Sans;-inkscape-font-specification:Sans"
         xml:space="preserve"><tspan
           y="490.42203"
           x="1008.0013"
           id="tspan45608"
           sodipodi:role="line">36</tspan></text>
    </g>
    <g
       id="g45819"
       transform="translate(-517.44471,-632.87469)">
      <path
         id="path34960"
         transform="translate(0,-567.64025)"
         d="m 620.28125,903.0625 -2.25,0.28125 -3.4375,7.4375 -2,7.375 -3.5,0.8125 -5.03125,-5.75 -6.34375,-5.21875 -2.125,0.75 -1.71875,8.03125 -0.3125,7.625 -3.21875,1.5625 -6.1875,-4.5 -7.34375,-3.65625 -1.90625,1.21875 0.125,8.1875 1.40625,7.53125 -2.8125,2.25 -7.03125,-3.03125 -7.96875,-1.9375 -1.59375,1.59375 1.9375,8 3.03125,7 -2.21875,2.8125 -7.53125,-1.375 -8.21875,-0.125 -1.1875,1.9375 3.6875,7.34375 4.5,6.15625 -1.53125,3.21875 -7.65625,0.34375 -8.03125,1.71875 -0.75,2.125 5.25,6.34375 5.75,5 -0.78125,3.5 -7.375,2.03125 -7.4375,3.46875 -0.25,2.25 6.5,5 6.75,3.5938 0,3.5937 -6.75,3.625 -6.46875,5.0313 0.25,2.25 7.4375,3.4374 7.40625,2 0.78125,3.5 -5.75,5.0313 -5.21875,6.3437 0.75,2.125 8.03125,1.6876 7.65625,0.3124 1.5625,3.25 -4.53125,6.1876 -3.65625,7.3437 1.21875,1.9063 8.21875,-0.125 7.5,-1.4063 2.25,2.8125 -3.03125,7.0312 -1.9375,7.9688 1.59375,1.5938 8,-1.9376 7,-3.0624 2.8125,2.25 -1.375,7.5312 -0.125,8.1875 1.9375,1.2187 7.34375,-3.6874 6.15625,-4.5313 3.25,1.5625 0.3125,7.6562 1.71875,8.0313 2.125,0.7187 6.34375,-5.2187 5,-5.7813 3.5,0.8126 2.03125,7.375 3.46875,7.4374 2.25,0.25 5,-6.5 3.59375,-6.75 3.59375,0 3.625,6.75 5.03125,6.4688 2.25,-0.25 3.4375,-7.4375 2,-7.4063 3.5,-0.7812 5.03125,5.75 6.34375,5.2188 2.125,-0.75 1.71875,-8.0313 0.3125,-7.6563 3.21875,-1.5624 6.1875,4.5312 7.34375,3.6562 1.90625,-1.2187 -0.125,-8.2187 -1.40625,-7.5 2.8125,-2.25 7.03125,3.0312 7.96875,1.9375 1.59375,-1.5937 -1.9375,-8 -3.03125,-7 2.21875,-2.8126 7.53125,1.375 8.21875,0.125 1.1875,-1.9374 -3.6875,-7.3438 -4.5,-6.1562 1.53125,-3.25 7.65625,-0.3126 8.03125,-1.7187 0.75,-2.125 -5.25,-6.3437 -5.78125,-5 0.8125,-3.5 7.375,-2.0313 7.4375,-3.4687 0.25,-2.25 -6.5,-5 -6.75,-3.5938 0,-3.5938 6.75,-3.625 6.46875,-5.0312 -0.25,-2.25 -7.46875,-3.4375 -7.375,-2 -0.78125,-3.5 5.75,-5.03125 5.21875,-6.34375 -0.75,-2.125 -8.03125,-1.71875 -7.65625,-0.3125 -1.5625,-3.21875 4.53125,-6.1875 3.65625,-7.34375 -1.21875,-1.90625 -8.21875,0.125 -7.5,1.40625 -2.25,-2.8125 3.03125,-7.03125 1.9375,-7.96875 -1.59375,-1.59375 -8,1.9375 -7,3.03125 -2.8125,-2.21875 1.375,-7.53125 0.125,-8.21875 -1.9375,-1.1875 -7.34375,3.6875 -6.15625,4.5 -3.25,-1.53125 -0.3125,-7.65625 -1.71875,-8.03125 -2.15625,-0.75 -6.3125,5.25 -5.03125,5.75 -3.5,-0.78125 -2,-7.375 -3.46875,-7.4375 -2.25,-0.25 -5,6.5 -3.625,6.75 -3.5625,0 -3.625,-6.75 -5.03125,-6.5 z m 10.53125,97.2813 c 2.93537,0 5.34375,2.3771 5.34375,5.3124 0,2.9354 -2.40838,5.3126 -5.34375,5.3126 -2.93537,0 -5.3125,-2.3772 -5.3125,-5.3126 0,-2.9353 2.37713,-5.3124 5.3125,-5.3124 z"
         style="fill:none;stroke:#000000;stroke-width:1"
         inkscape:connector-curvature="0" />
      <text
         sodipodi:linespacing="125%"
         id="text45610"
         y="363.62366"
         x="617.64972"
         style="font-size:12px;font-style:normal;font-variant:normal;font-weight:normal;font-stretch:normal;text-align:start;line-height:125%;letter-spacing:0px;word-spacing:0px;writing-mode:lr-tb;text-anchor:start;fill:#000000;fill-opacity:1;stroke:none;font-family:Sans;-inkscape-font-specification:Sans"
         xml:space="preserve"><tspan
           y="363.62366"
           x="617.64972"
           id="tspan45612"
           sodipodi:role="line">28</tspan><tspan
           id="tspan45614"
           y="378.62366"
           x="617.64972"
           sodipodi:role="line" /></text>
    </g>
    <g
       id="g45806"
       transform="translate(-151.25308,-827.91155)">
      <text
         sodipodi:linespacing="125%"
         id="text45640"
         y="381.54712"
         x="885.51544"
         style="font-size:12px;font-style:normal;font-variant:normal;font-weight:normal;font-stretch:normal;text-align:start;line-height:125%;letter-spacing:0px;word-spacing:0px;writing-mode:lr-tb;text-anchor:start;fill:#000000;fill-opacity:1;stroke:none;font-family:Sans;-inkscape-font-specification:Sans"
         xml:space="preserve"><tspan
           y="381.54712"
           x="885.51544"
           id="tspan45642"
           sodipodi:role="line">16</tspan><tspan
           id="tspan45644"
           y="396.54712"
           x="885.51544"
           sodipodi:role="line" /></text>
      <path
         inkscape:connector-curvature="0"
         style="fill:none;stroke:#000000;stroke-width:1"
         d="m 906.24532,342.22859 -5.65625,6.2188 -3.125,6.7188 -4.34375,0.0624 -3.3125,-6.625 -5.875,-6.0312 -1.8125,0.4062 -2.875,7.9063 -0.28125,7.375 -4.03125,1.75 -5.5625,-4.8437 -7.75,-3.3126 -1.53125,1.0313 0.40625,8.4063 2.53125,6.9374 -3.03125,3.1563 -7,-2.3437 -8.40625,-0.125 -1.03125,1.5624 3.59375,7.625 5,5.4376 -1.59375,4.0624 -7.375,0.5313 -7.84375,3.0937 -0.3125,1.8438 6.21875,5.6562 6.6875,3.125 0.0937,4.3438 -6.625,3.3125 -6.03125,5.875 0.40625,1.8125 7.90625,2.875 7.375,0.2812 1.75,4 -4.84375,5.5938 -3.34375,7.7188 1.0625,1.5312 8.40625,-0.375 6.9375,-2.5625 3.15625,3.0625 -2.34375,7 -0.125,8.4062 1.5625,1.0313 7.625,-3.5937 5.4375,-5 4.0625,1.5937 0.53125,7.375 3.09375,7.8125 1.84375,0.3438 5.65625,-6.2188 3.09375,-6.7188 4.375,-0.0624 3.3125,6.625 5.875,6.0312 1.8125,-0.4062 2.84375,-7.9063 0.3125,-7.375 4,-1.75 5.59375,4.8437 7.71875,3.3438 1.53125,-1.0625 -0.375,-8.4063 -2.5625,-6.9374 3.0625,-3.1563 7,2.3437 8.40625,0.125 1,-1.5624 -3.5625,-7.625 -5,-5.4376 1.59375,-4.0624 7.375,-0.5313 7.8125,-3.0937 0.34375,-1.8438 -6.21875,-5.6562 -6.71875,-3.0938 -0.0625,-4.375 6.625,-3.3125 6.03125,-5.875 -0.40625,-1.8125 -7.90625,-2.875 -7.375,-0.2812 -1.75,-4 4.84375,-5.5938 3.3125,-7.7188 -1.0625,-1.5312 -8.375,0.375 -6.9375,2.5625 -3.15625,-3.0625 2.34375,-7 0.125,-8.4062 -1.5625,-1.0313 -7.625,3.5937 -5.4375,5 -4.0625,-1.5937 -0.53125,-7.375 -3.09375,-7.8125 -1.84375,-0.3438 z m -10.1875,55.7188 c 1.36022,0 2.71219,0.5247 3.75,1.5625 2.07562,2.0756 2.07562,5.4244 0,7.5 -2.07562,2.0756 -5.42438,2.0756 -7.5,0 -2.07562,-2.0756 -2.07562,-5.4244 0,-7.5 1.03781,-1.0378 2.38978,-1.5625 3.75,-1.5625 z"
         id="path45696" />
    </g>
    <path
       inkscape:connector-curvature="0"
       id="path45780"
       d="m 498.0468,-198.43955 -0.4063,0.25 -0.625,9.0937 1.2813,2.6563 3.0625,2.75 -2.8438,4.9375 -3.9062,-1.2812 -2.9375,0.1874 -7.5625,5.0938 0,0.5 7.5625,5.0938 2.9375,0.2187 3.9062,-1.2813 2.8438,4.9063 -3.0625,2.75 -1.2813,2.6563 0.625,9.0937 0.4063,0.25 8.2187,-4 1.6563,-2.4687 0.8437,-4 5.6875,0 0.8438,4 1.6562,2.4687 8.1875,4 0.4063,-0.25 0.625,-9.0937 -1.2813,-2.6563 -3.0625,-2.75 2.8438,-4.9063 3.9062,1.2813 2.9375,-0.2187 7.5937,-5.0938 0,-0.5 -7.5937,-5.0938 -2.9375,-0.1874 -3.9062,1.2812 -2.8438,-4.9375 3.0625,-2.75 1.2813,-2.6563 -0.625,-9.0937 -0.4063,-0.25 -8.1875,4.0313 -1.6562,2.4374 -0.8438,4.0313 -5.6875,0 -0.8437,-4.0313 -1.6562,-2.4374 -8.2188,-4.0313 z m 13.5624,19.5625 c 2.4224,0 4.375,1.9527 4.375,4.375 0,2.4223 -1.9526,4.375 -4.375,4.375 -2.4222,0 -4.4062,-1.9527 -4.4062,-4.375 0,-2.4223 1.984,-4.375 4.4062,-4.375 z"
       style="fill:none;stroke:#000000;stroke-width:1;stroke-miterlimit:4;stroke-dasharray:none" />
    <path
       style="fill:none;stroke:#000000;stroke-width:1;stroke-miterlimit:4;stroke-dasharray:none"
       d="m 556.0469,-147.56455 -0.4063,0.25 -0.625,9.0937 1.2813,2.6563 3.0624,2.75 -2.8437,4.9375 -3.9063,-1.2812 -2.9375,0.1874 -7.5625,5.0938 0,0.5 7.5625,5.0938 2.9375,0.2187 3.9063,-1.2813 2.8437,4.9063 -3.0624,2.75 -1.2813,2.6563 0.625,9.093703 0.4063,0.25 8.2187,-4.000003 1.6563,-2.4687 0.8437,-4 5.6875,0 0.8438,4 1.6562,2.4687 8.1875,4.000003 0.4063,-0.25 0.625,-9.093703 -1.2813,-2.6563 -3.0625,-2.75 2.8438,-4.9063 3.9062,1.2813 2.9375,-0.2187 7.5937,-5.0938 0,-0.5 -7.5937,-5.0938 -2.9375,-0.1874 -3.9062,1.2812 -2.8438,-4.9375 3.0625,-2.75 1.2813,-2.6563 -0.625,-9.0937 -0.4063,-0.25 -8.1875,4.0313 -1.6562,2.4374 -0.8438,4.0313 -5.6875,0 -0.8437,-4.0313 -1.6563,-2.4374 -8.2187,-4.0313 z m 13.5624,19.5625 c 2.4224,0 4.375,1.9527 4.375,4.375 0,2.4223 -1.9526,4.375 -4.375,4.375 -2.4223,0 -4.4062,-1.9527 -4.4062,-4.375 0,-2.4223 1.9839,-4.375 4.4062,-4.375 z"
       id="path45782"
       inkscape:connector-curvature="0" />
    <path
       inkscape:connector-curvature="0"
       id="path45784"
       d="m 440.0469,-147.56455 -0.4063,0.25 -0.625,9.0937 1.2813,2.6563 3.0624,2.75 -2.8437,4.9375 -3.90635,-1.2812 -2.93745,0.1874 -7.5625,5.0938 0,0.5 7.5625,5.0938 2.93745,0.2187 3.90635,-1.2813 2.8437,4.9063 -3.0624,2.75 -1.2813,2.6563 0.625,9.093703 0.4063,0.25 8.2187,-4.000003 1.6563,-2.4687 0.8437,-4 5.6875,0 0.8438,4 1.6562,2.4687 8.1875,4.000003 0.4063,-0.25 0.625,-9.093703 -1.2813,-2.6563 -3.0625,-2.75 2.8438,-4.9063 3.9062,1.2813 2.9375,-0.2187 7.5937,-5.0938 0,-0.5 -7.5937,-5.0938 -2.9375,-0.1874 -3.9062,1.2812 -2.8438,-4.9375 3.0625,-2.75 1.2813,-2.6563 -0.625,-9.0937 -0.4063,-0.25 -8.1875,4.0313 -1.6562,2.4374 -0.8438,4.0313 -5.6875,0 -0.8437,-4.0313 -1.6563,-2.4374 -8.2187,-4.0313 z m 13.5624,19.5625 c 2.4224,0 4.375,1.9527 4.375,4.375 0,2.4223 -1.9526,4.375 -4.375,4.375 -2.4223,0 -4.4062,-1.9527 -4.4062,-4.375 0,-2.4223 1.9839,-4.375 4.4062,-4.375 z"
       style="fill:none;stroke:#000000;stroke-width:1;stroke-miterlimit:4;stroke-dasharray:none" />
    <path
       inkscape:connector-curvature="0"
       id="path45831"
       d="m 463.16015,-300.11096 -4.5937,7.2187 -1.1875,5.7813 0.25,1.3124 -5.125,1.375 -0.4375,-1.2812 -3.9063,-4.4062 -7.5937,-3.9688 -1.375,0.7812 -0.375,8.5626 1.875,5.5937 0.875,1.0313 -3.75,3.75 -1,-0.875 -5.5938,-1.875 -8.5625,0.375 -0.7812,1.3437 3.9375,7.5937 4.4375,3.9063 1.25,0.4687 -1.3438,5.125 -1.3437,-0.25 -5.7813,1.1563 -7.2187,4.5937 0,1.5938 7.2187,4.5938 5.7813,1.1562 1.3437,-0.25 1.3438,5.125 -1.25,0.4688 -4.4375,3.9062 -3.9375,7.5938 0.7812,1.3437 8.5625,0.375 5.5938,-1.875 1,-0.875 3.75,3.75 -0.875,1.0313 -1.875,5.5937 0.375,8.5625 1.375,0.7812 7.5937,-3.9687 3.9063,-4.4063 0.4375,-1.2812 5.125,1.375 -0.25,1.3125 1.1875,5.7813 4.5937,7.2187 1.5625,0 4.5938,-7.2187 1.1875,-5.7813 -0.25,-1.3125 5.125,-1.375 0.4375,1.2812 3.9062,4.4063 7.5938,3.9687 1.375,-0.7812 0.375,-8.5625 -1.875,-5.5937 -0.875,-1.0313 3.75,-3.75 1,0.875 5.5937,1.875 8.5625,-0.375 0.7813,-1.3437 -3.9375,-7.5938 -4.4375,-3.9062 -1.25,-0.4688 1.3437,-5.125 1.3438,0.25 5.7812,-1.1562 7.2188,-4.5938 0,-1.5938 -7.2188,-4.5937 -5.7812,-1.1563 -1.3438,0.25 -1.3437,-5.125 1.25,-0.4687 4.4375,-3.9063 3.9375,-7.5937 -0.7813,-1.3437 -8.5625,-0.375 -5.5937,1.875 -1,0.875 -3.75,-3.75 0.875,-1.0313 1.875,-5.5937 -0.375,-8.5626 -1.375,-0.7812 -7.5938,3.9688 -3.9062,4.4062 -0.4375,1.2812 -5.125,-1.375 0.25,-1.3124 -1.1875,-5.7813 -4.5938,-7.2187 -1.5625,0 z m 0.7813,41.875 c 2.9354,0 5.3125,2.3771 5.3125,5.3124 0,2.9354 -2.3771,5.3126 -5.3125,5.3126 -2.9354,0 -5.3125,-2.3772 -5.3125,-5.3126 0,-2.9353 2.3771,-5.3124 5.3125,-5.3124 z"
       style="fill:none;stroke:#000000" />
    <g
       transform="translate(-307.44469,-632.87469)"
       id="g45833">
      <path
         inkscape:connector-curvature="0"
         style="fill:none;stroke:#000000;stroke-width:1"
         d="m 620.28125,903.0625 -2.25,0.28125 -3.4375,7.4375 -2,7.375 -3.5,0.8125 -5.03125,-5.75 -6.34375,-5.21875 -2.125,0.75 -1.71875,8.03125 -0.3125,7.625 -3.21875,1.5625 -6.1875,-4.5 -7.34375,-3.65625 -1.90625,1.21875 0.125,8.1875 1.40625,7.53125 -2.8125,2.25 -7.03125,-3.03125 -7.96875,-1.9375 -1.59375,1.59375 1.9375,8 3.03125,7 -2.21875,2.8125 -7.53125,-1.375 -8.21875,-0.125 -1.1875,1.9375 3.6875,7.34375 4.5,6.15625 -1.53125,3.21875 -7.65625,0.34375 -8.03125,1.71875 -0.75,2.125 5.25,6.34375 5.75,5 -0.78125,3.5 -7.375,2.03125 -7.4375,3.46875 -0.25,2.25 6.5,5 6.75,3.5938 0,3.5937 -6.75,3.625 -6.46875,5.0313 0.25,2.25 7.4375,3.4374 7.40625,2 0.78125,3.5 -5.75,5.0313 -5.21875,6.3437 0.75,2.125 8.03125,1.6876 7.65625,0.3124 1.5625,3.25 -4.53125,6.1876 -3.65625,7.3437 1.21875,1.9063 8.21875,-0.125 7.5,-1.4063 2.25,2.8125 -3.03125,7.0312 -1.9375,7.9688 1.59375,1.5938 8,-1.9376 7,-3.0624 2.8125,2.25 -1.375,7.5312 -0.125,8.1875 1.9375,1.2187 7.34375,-3.6874 6.15625,-4.5313 3.25,1.5625 0.3125,7.6562 1.71875,8.0313 2.125,0.7187 6.34375,-5.2187 5,-5.7813 3.5,0.8126 2.03125,7.375 3.46875,7.4374 2.25,0.25 5,-6.5 3.59375,-6.75 3.59375,0 3.625,6.75 5.03125,6.4688 2.25,-0.25 3.4375,-7.4375 2,-7.4063 3.5,-0.7812 5.03125,5.75 6.34375,5.2188 2.125,-0.75 1.71875,-8.0313 0.3125,-7.6563 3.21875,-1.5624 6.1875,4.5312 7.34375,3.6562 1.90625,-1.2187 -0.125,-8.2187 -1.40625,-7.5 2.8125,-2.25 7.03125,3.0312 7.96875,1.9375 1.59375,-1.5937 -1.9375,-8 -3.03125,-7 2.21875,-2.8126 7.53125,1.375 8.21875,0.125 1.1875,-1.9374 -3.6875,-7.3438 -4.5,-6.1562 1.53125,-3.25 7.65625,-0.3126 8.03125,-1.7187 0.75,-2.125 -5.25,-6.3437 -5.78125,-5 0.8125,-3.5 7.375,-2.0313 7.4375,-3.4687 0.25,-2.25 -6.5,-5 -6.75,-3.5938 0,-3.5938 6.75,-3.625 6.46875,-5.0312 -0.25,-2.25 -7.46875,-3.4375 -7.375,-2 -0.78125,-3.5 5.75,-5.03125 5.21875,-6.34375 -0.75,-2.125 -8.03125,-1.71875 -7.65625,-0.3125 -1.5625,-3.21875 4.53125,-6.1875 3.65625,-7.34375 -1.21875,-1.90625 -8.21875,0.125 -7.5,1.40625 -2.25,-2.8125 3.03125,-7.03125 1.9375,-7.96875 -1.59375,-1.59375 -8,1.9375 -7,3.03125 -2.8125,-2.21875 1.375,-7.53125 0.125,-8.21875 -1.9375,-1.1875 -7.34375,3.6875 -6.15625,4.5 -3.25,-1.53125 -0.3125,-7.65625 -1.71875,-8.03125 -2.15625,-0.75 -6.3125,5.25 -5.03125,5.75 -3.5,-0.78125 -2,-7.375 -3.46875,-7.4375 -2.25,-0.25 -5,6.5 -3.625,6.75 -3.5625,0 -3.625,-6.75 -5.03125,-6.5 z m 10.53125,97.2813 c 2.93537,0 5.34375,2.3771 5.34375,5.3124 0,2.9354 -2.40838,5.3126 -5.34375,5.3126 -2.93537,0 -5.3125,-2.3772 -5.3125,-5.3126 0,-2.9353 2.37713,-5.3124 5.3125,-5.3124 z"
         transform="translate(0,-567.64025)"
         id="path45835" />
      <text
         xml:space="preserve"
         style="font-size:12px;font-style:normal;font-variant:normal;font-weight:normal;font-stretch:normal;text-align:start;line-height:125%;letter-spacing:0px;word-spacing:0px;writing-mode:lr-tb;text-anchor:start;fill:#000000;fill-opacity:1;stroke:none;font-family:Sans;-inkscape-font-specification:Sans"
         x="617.64972"
         y="363.62366"
         id="text45837"
         sodipodi:linespacing="125%"><tspan
           sodipodi:role="line"
           id="tspan45839"
           x="617.64972"
           y="363.62366">28</tspan><tspan
           sodipodi:role="line"
           x="617.64972"
           y="378.62366"
           id="tspan45841" /></text>
    </g>
    <path
       style="fill:none;stroke:#000000;stroke-width:1;stroke-miterlimit:4;stroke-dasharray:none"
       d="m 440.0468,-198.43955 -0.4062,0.25 -0.625,9.0937 1.2812,2.6563 3.0625,2.75 -2.8437,4.9375 -3.90635,-1.2812 -2.9374,0.1874 -7.5625,5.0938 0,0.5 7.5625,5.0938 2.9374,0.2187 3.90635,-1.2813 2.8437,4.9063 -3.0625,2.75 -1.2812,2.6563 0.625,9.0937 0.4062,0.25 8.2188,-4 1.6563,-2.4687 0.8437,-4 5.6875,0 0.8438,4 1.6562,2.4687 8.1875,4 0.4063,-0.25 0.625,-9.0937 -1.2813,-2.6563 -3.0625,-2.75 2.8438,-4.9063 3.9062,1.2813 2.9375,-0.2187 7.5937,-5.0938 0,-0.5 -7.5937,-5.0938 -2.9375,-0.1874 -3.9062,1.2812 -2.8438,-4.9375 3.0625,-2.75 1.2813,-2.6563 -0.625,-9.0937 -0.4063,-0.25 -8.1875,4.0313 -1.6562,2.4374 -0.8438,4.0313 -5.6875,0 -0.8437,-4.0313 -1.6563,-2.4374 -8.2187,-4.0313 z m 13.5624,19.5625 c 2.4224,0 4.375,1.9527 4.375,4.375 0,2.4223 -1.9526,4.375 -4.375,4.375 -2.4223,0 -4.4062,-1.9527 -4.4062,-4.375 0,-2.4223 1.9839,-4.375 4.4062,-4.375 z"
       id="path45843"
       inkscape:connector-curvature="0" />
    <path
       inkscape:connector-curvature="0"
       id="path45845"
       d="m 498.0469,-147.56455 -0.4063,0.25 -0.625,9.0937 1.2813,2.6563 3.0624,2.75 -2.8437,4.9375 -3.9063,-1.2812 -2.9375,0.1874 -7.5625,5.0938 0,0.5 7.5625,5.0938 2.9375,0.2187 3.9063,-1.2813 2.8437,4.9063 -3.0624,2.75 -1.2813,2.6563 0.625,9.093703 0.4063,0.25 8.2187,-4.000003 1.6563,-2.4687 0.8437,-4 5.6875,0 0.8438,4 1.6562,2.4687 8.1875,4.000003 0.4063,-0.25 0.625,-9.093703 -1.2813,-2.6563 -3.0625,-2.75 2.8438,-4.9063 3.9062,1.2813 2.9375,-0.2187 7.5937,-5.0938 0,-0.5 -7.5937,-5.0938 -2.9375,-0.1874 -3.9062,1.2812 -2.8438,-4.9375 3.0625,-2.75 1.2813,-2.6563 -0.625,-9.0937 -0.4063,-0.25 -8.1875,4.0313 -1.6562,2.4374 -0.8438,4.0313 -5.6875,0 -0.8437,-4.0313 -1.6563,-2.4374 -8.2187,-4.0313 z m 13.5624,19.5625 c 2.4224,0 4.375,1.9527 4.375,4.375 0,2.4223 -1.9526,4.375 -4.375,4.375 -2.4223,0 -4.4062,-1.9527 -4.4062,-4.375 0,-2.4223 1.9839,-4.375 4.4062,-4.375 z"
       style="fill:none;stroke:#000000;stroke-width:1;stroke-miterlimit:4;stroke-dasharray:none" />
    <path
       style="fill:none;stroke:#000000;stroke-width:1;stroke-miterlimit:4;stroke-dasharray:none"
       d="m 556.0469,-198.43955 -0.4063,0.25 -0.625,9.0937 1.2813,2.6563 3.0624,2.75 -2.8437,4.9375 -3.9064,-1.2812 -2.9374,0.1874 -7.5625,5.0938 0,0.5 7.5625,5.0938 2.9374,0.2187 3.9064,-1.2813 2.8437,4.9063 -3.0624,2.75 -1.2813,2.6563 0.625,9.0937 0.4063,0.25 8.2187,-4 1.6563,-2.4687 0.8437,-4 5.6875,0 0.8438,4 1.6562,2.4687 8.1875,4 0.4063,-0.25 0.625,-9.0937 -1.2813,-2.6563 -3.0625,-2.75 2.8438,-4.9063 3.9062,1.2813 2.9375,-0.2187 7.5937,-5.0938 0,-0.5 -7.5937,-5.0938 -2.9375,-0.1874 -3.9062,1.2812 -2.8438,-4.9375 3.0625,-2.75 1.2813,-2.6563 -0.625,-9.0937 -0.4063,-0.25 -8.1875,4.0313 -1.6562,2.4374 -0.8438,4.0313 -5.6875,0 -0.8437,-4.0313 -1.6563,-2.4374 -8.2187,-4.0313 z m 13.5624,19.5625 c 2.4224,0 4.375,1.9527 4.375,4.375 0,2.4223 -1.9526,4.375 -4.375,4.375 -2.4223,0 -4.4062,-1.9527 -4.4062,-4.375 0,-2.4223 1.9839,-4.375 4.4062,-4.375 z"
       id="path45847"
       inkscape:connector-curvature="0" />
    <g
       transform="translate(-213.99144,-642.33955)"
       id="g45849">
      <text
         xml:space="preserve"
         style="font-size:12px;font-style:normal;font-variant:normal;font-weight:normal;font-stretch:normal;text-align:start;line-height:125%;letter-spacing:0px;word-spacing:0px;writing-mode:lr-tb;text-anchor:start;fill:#000000;fill-opacity:1;stroke:none;font-family:Sans;-inkscape-font-specification:Sans"
         x="885.51544"
         y="381.54712"
         id="text45851"
         sodipodi:linespacing="125%"><tspan
           sodipodi:role="line"
           id="tspan45853"
           x="885.51544"
           y="381.54712">16</tspan><tspan
           sodipodi:role="line"
           x="885.51544"
           y="396.54712"
           id="tspan45855" /></text>
      <path
         id="path45857"
         d="m 906.24532,342.22859 -5.65625,6.2188 -3.125,6.7188 -4.34375,0.0624 -3.3125,-6.625 -5.875,-6.0312 -1.8125,0.4062 -2.875,7.9063 -0.28125,7.375 -4.03125,1.75 -5.5625,-4.8437 -7.75,-3.3126 -1.53125,1.0313 0.40625,8.4063 2.53125,6.9374 -3.03125,3.1563 -7,-2.3437 -8.40625,-0.125 -1.03125,1.5624 3.59375,7.625 5,5.4376 -1.59375,4.0624 -7.375,0.5313 -7.84375,3.0937 -0.3125,1.8438 6.21875,5.6562 6.6875,3.125 0.0937,4.3438 -6.625,3.3125 -6.03125,5.875 0.40625,1.8125 7.90625,2.875 7.375,0.2812 1.75,4 -4.84375,5.5938 -3.34375,7.7188 1.0625,1.5312 8.40625,-0.375 6.9375,-2.5625 3.15625,3.0625 -2.34375,7 -0.125,8.4062 1.5625,1.0313 7.625,-3.5937 5.4375,-5 4.0625,1.5937 0.53125,7.375 3.09375,7.8125 1.84375,0.3438 5.65625,-6.2188 3.09375,-6.7188 4.375,-0.0624 3.3125,6.625 5.875,6.0312 1.8125,-0.4062 2.84375,-7.9063 0.3125,-7.375 4,-1.75 5.59375,4.8437 7.71875,3.3438 1.53125,-1.0625 -0.375,-8.4063 -2.5625,-6.9374 3.0625,-3.1563 7,2.3437 8.40625,0.125 1,-1.5624 -3.5625,-7.625 -5,-5.4376 1.59375,-4.0624 7.375,-0.5313 7.8125,-3.0937 0.34375,-1.8438 -6.21875,-5.6562 -6.71875,-3.0938 -0.0625,-4.375 6.625,-3.3125 6.03125,-5.875 -0.40625,-1.8125 -7.90625,-2.875 -7.375,-0.2812 -1.75,-4 4.84375,-5.5938 3.3125,-7.7188 -1.0625,-1.5312 -8.375,0.375 -6.9375,2.5625 -3.15625,-3.0625 2.34375,-7 0.125,-8.4062 -1.5625,-1.0313 -7.625,3.5937 -5.4375,5 -4.0625,-1.5937 -0.53125,-7.375 -3.09375,-7.8125 -1.84375,-0.3438 z m -10.1875,55.7188 c 1.36022,0 2.71219,0.5247 3.75,1.5625 2.07562,2.0756 2.07562,5.4244 0,7.5 -2.07562,2.0756 -5.42438,2.0756 -7.5,0 -2.07562,-2.0756 -2.07562,-5.4244 0,-7.5 1.03781,-1.0378 2.38978,-1.5625 3.75,-1.5625 z"
         style="fill:none;stroke:#000000;stroke-width:1"
         inkscape:connector-curvature="0" />
    </g>
  </g>
</svg>
