<?xml version="1.0" encoding="UTF-8" standalone="no"?>
<!-- Created with Inkscape (http://www.inkscape.org/) -->

<svg
   xmlns:dc="http://purl.org/dc/elements/1.1/"
   xmlns:cc="http://creativecommons.org/ns#"
   xmlns:rdf="http://www.w3.org/1999/02/22-rdf-syntax-ns#"
   xmlns:svg="http://www.w3.org/2000/svg"
   xmlns="http://www.w3.org/2000/svg"
   xmlns:sodipodi="http://sodipodi.sourceforge.net/DTD/sodipodi-0.dtd"
   xmlns:inkscape="http://www.inkscape.org/namespaces/inkscape"
   width="990"
   height="765"
   id="svg2"
   version="1.1"
   inkscape:version="0.48.1 r9760"
   sodipodi:docname="pointed_ellipse_earring.svg">
  <defs
     id="defs4" />
  <sodipodi:namedview
     id="base"
     pagecolor="#ffffff"
     bordercolor="#666666"
     borderopacity="1.0"
     inkscape:pageopacity="0.0"
     inkscape:pageshadow="2"
     inkscape:zoom="4"
     inkscape:cx="359.95379"
     inkscape:cy="413.91364"
     inkscape:document-units="mm"
     inkscape:current-layer="layer1"
     showgrid="false"
     units="mm"
     showguides="false"
     inkscape:guide-bbox="true"
     inkscape:window-width="1680"
     inkscape:window-height="1002"
     inkscape:window-x="0"
     inkscape:window-y="0"
     inkscape:window-maximized="0">
    <sodipodi:guide
       orientation="1,0"
       position="354.33071,198"
       id="guide2985" />
    <sodipodi:guide
       orientation="1,0"
       position="318.89764,198"
       id="guide2987" />
    <sodipodi:guide
       orientation="1,0"
       position="389.76378,152"
       id="guide2989" />
    <sodipodi:guide
       orientation="0,1"
       position="462,354.33071"
       id="guide2991" />
    <sodipodi:guide
       orientation="0,1"
       position="495,496.06299"
       id="guide2993" />
    <sodipodi:guide
       orientation="0,1"
       position="462.44784,425.19685"
       id="guide2997" />
    <sodipodi:guide
       orientation="1,0"
       position="350.7874,531.5"
       id="guide3004" />
    <sodipodi:guide
       orientation="1,0"
       position="347.24409,549.5"
       id="guide3006" />
    <sodipodi:guide
       orientation="1,0"
       position="343.70079,532.5"
       id="guide3008" />
    <sodipodi:guide
       orientation="1,0"
       position="357.87402,528"
       id="guide3010" />
    <sodipodi:guide
       orientation="1,0"
       position="361.41732,516.5"
       id="guide3012" />
    <sodipodi:guide
       orientation="1,0"
       position="364.96063,519.5"
       id="guide3014" />
    <sodipodi:guide
       orientation="0,1"
       position="423.5,492.51969"
       id="guide3016" />
    <sodipodi:guide
       orientation="0,1"
       position="424.25,357.87402"
       id="guide3018" />
    <sodipodi:guide
       orientation="1,0"
       position="322.44094,456.5"
       id="guide3020" />
    <sodipodi:guide
       orientation="1,0"
       position="325.98425,457.25"
       id="guide3022" />
    <sodipodi:guide
       orientation="1,0"
       position="386.22047,460.75"
       id="guide3024" />
    <sodipodi:guide
       orientation="1,0"
       position="382.67717,461.75"
       id="guide3026" />
    <sodipodi:guide
       orientation="1,0"
       position="248.0315,445.25"
       id="guide3050" />
    <sodipodi:guide
       orientation="0,1"
       position="422.75,488.97638"
       id="guide3054" />
    <sodipodi:guide
       orientation="0,1"
       position="415.75,485.43307"
       id="guide3056" />
    <sodipodi:guide
       orientation="0,1"
       position="434.75,361.41732"
       id="guide3058" />
    <sodipodi:guide
       orientation="0,1"
       position="423,364.96063"
       id="guide3060" />
    <sodipodi:guide
       orientation="0,1"
       position="436,368.50394"
       id="guide3062" />
    <sodipodi:guide
       orientation="1,0"
       position="251.5748,407.25"
       id="guide3064" />
    <sodipodi:guide
       orientation="1,0"
       position="379.13386,464.25"
       id="guide3068" />
    <sodipodi:guide
       orientation="1,0"
       position="460.62992,457.5"
       id="guide3072" />
    <sodipodi:guide
       orientation="1,0"
       position="255.11811,443"
       id="guide3076" />
    <sodipodi:guide
       orientation="1,0"
       position="258.66142,456.75"
       id="guide3078" />
    <sodipodi:guide
       orientation="1,0"
       position="329.52756,450.5"
       id="guide3080" />
    <sodipodi:guide
       orientation="1,0"
       position="457.08661,452.25"
       id="guide3082" />
    <sodipodi:guide
       orientation="1,0"
       position="453.54331,457.5"
       id="guide3084" />
    <sodipodi:guide
       orientation="1,0"
       position="450,453"
       id="guide3086" />
    <sodipodi:guide
       orientation="1,0"
       position="333.07087,449.5"
       id="guide3088" />
    <sodipodi:guide
       orientation="1,0"
       position="244.48819,466.75"
       id="guide3092" />
    <sodipodi:guide
       orientation="1,0"
       position="240.94488,458"
       id="guide3094" />
    <sodipodi:guide
       orientation="1,0"
       position="375.59055,450.5"
       id="guide3096" />
    <sodipodi:guide
       orientation="1,0"
       position="372.04724,460"
       id="guide3098" />
    <sodipodi:guide
       orientation="1,0"
       position="368.50394,461"
       id="guide3100" />
    <sodipodi:guide
       orientation="1,0"
       position="464.17323,471"
       id="guide3106" />
    <sodipodi:guide
       orientation="1,0"
       position="467.71654,458"
       id="guide3108" />
    <sodipodi:guide
       orientation="1,0"
       position="336.61417,440.75"
       id="guide3110" />
    <sodipodi:guide
       orientation="1,0"
       position="340.15748,448.5"
       id="guide3112" />
    <sodipodi:guide
       orientation="0,1"
       position="486.75,481.88976"
       id="guide3118" />
    <sodipodi:guide
       orientation="0,1"
       position="291,478.34646"
       id="guide3120" />
    <sodipodi:guide
       orientation="0,1"
       position="284.5,474.80315"
       id="guide3122" />
    <sodipodi:guide
       orientation="0,1"
       position="227.75,372.04724"
       id="guide3124" />
    <sodipodi:guide
       orientation="0,1"
       position="218,375.59055"
       id="guide3126" />
    <sodipodi:guide
       orientation="1,0"
       position="237.40157,509.5"
       id="guide3128" />
    <sodipodi:guide
       orientation="1,0"
       position="233.85827,511"
       id="guide3130" />
    <sodipodi:guide
       orientation="1,0"
       position="471.25984,457.5"
       id="guide3136" />
    <sodipodi:guide
       orientation="1,0"
       position="474.80315,463.75"
       id="guide3138" />
    <sodipodi:guide
       orientation="0,1"
       position="415.75,499.6063"
       id="guide3625" />
    <sodipodi:guide
       orientation="1,0"
       position="352.55906,511.25"
       id="guide3631" />
    <sodipodi:guide
       orientation="1,0"
       position="356.10236,510.25"
       id="guide3633" />
    <sodipodi:guide
       orientation="0,1"
       position="427,497.83465"
       id="guide3635" />
    <sodipodi:guide
       orientation="0,1"
       position="432.25,494.29134"
       id="guide3637" />
  </sodipodi:namedview>
  <metadata
     id="metadata7">
    <rdf:RDF>
      <cc:Work
         rdf:about="">
        <dc:format>image/svg+xml</dc:format>
        <dc:type
           rdf:resource="http://purl.org/dc/dcmitype/StillImage" />
        <dc:title></dc:title>
      </cc:Work>
    </rdf:RDF>
  </metadata>
  <g
     inkscape:label="Layer 1"
     inkscape:groupmode="layer"
     id="layer1"
     transform="translate(0,-287.36218)">
    <path
       style="fill:none;stroke:#000000;stroke-width:0.35433072;stroke-miterlimit:4;stroke-opacity:1"
       d="M 354.3125 394.6875 C 357.28952 396.80498 360.44122 398.69361 363.75 400.3125 C 359.83631 404.67633 356.36425 407.125 354.34375 407.125 C 352.31829 407.125 348.83539 404.66516 344.90625 400.28125 C 348.19878 398.66681 351.34771 396.7946 354.3125 394.6875 z "
       id="path3623"
       transform="translate(0,287.36218)" />
    <path
       style="fill:none;stroke:#000000;stroke-width:0.35433072;stroke-miterlimit:4;stroke-opacity:1"
       d="M 354.34375 380.96875 C 356.02131 382.61434 357.82066 384.16052 359.6875 385.625 C 357.98751 387.26964 356.18597 388.83198 354.3125 390.28125 C 352.45194 388.84083 350.65779 387.28987 348.96875 385.65625 C 350.8497 384.18377 352.65473 382.62482 354.34375 380.96875 z M 362.5625 387.78125 C 364.89432 389.41194 367.34593 390.91452 369.90625 392.25 C 368.63115 394.15815 367.34829 395.92233 366.09375 397.5 C 363.02131 396.04478 360.09309 394.34327 357.3125 392.4375 C 359.14288 390.97751 360.89487 389.4204 362.5625 387.78125 z "
       id="path3621"
       transform="translate(0,287.36218)" />
    <path
       style="fill:none;stroke:#000000;stroke-width:0.35433072;stroke-miterlimit:4;stroke-opacity:1"
       d="M 370.40625 378.59375 C 372.06887 379.92734 373.83007 381.17176 375.65625 382.34375 C 374.42094 384.78534 373.15261 387.08003 371.84375 389.21875 C 369.48397 388.00287 367.21909 386.66345 365.0625 385.1875 C 366.97208 383.10039 368.76909 380.90914 370.40625 378.59375 z "
       id="path3619"
       transform="translate(0,287.36218)" />
    <path
       style="fill:none;stroke:#000000;stroke-width:0.35433072;stroke-miterlimit:4;stroke-opacity:1"
       d="M 338.25 378.5625 C 339.89122 380.8855 341.67843 383.09411 343.59375 385.1875 C 341.43716 386.66345 339.17228 388.00287 336.8125 389.21875 C 335.50002 387.07644 334.20735 384.78991 332.96875 382.34375 C 334.80432 381.16462 336.57979 379.90465 338.25 378.5625 z M 346.09375 387.78125 C 347.76138 389.4204 349.51337 390.97751 351.34375 392.4375 C 348.56316 394.34327 345.63494 396.04478 342.5625 397.5 C 341.29903 395.91259 340.0342 394.14059 338.75 392.21875 C 341.30591 390.88571 343.76507 389.40712 346.09375 387.78125 z "
       id="path3617"
       transform="translate(0,287.36218)" />
    <path
       style="fill:none;stroke:#000000;stroke-width:0.35433072;stroke-miterlimit:4;stroke-opacity:1"
       d="M 354.3125 357.5625 C 355.84873 361.28111 357.86684 364.80892 360.28125 368.09375 C 358.53905 370.85765 356.52215 373.46181 354.3125 375.90625 C 352.09919 373.45596 350.11714 370.83492 348.375 368.0625 C 350.78185 364.78355 352.77866 361.2728 354.3125 357.5625 z M 362.5625 370.96875 C 364.13432 372.82525 365.82334 374.58571 367.65625 376.25 C 365.9779 378.65302 364.14105 380.948 362.15625 383.09375 C 360.26874 381.63388 358.46538 380.09072 356.78125 378.4375 C 358.9151 376.09666 360.82976 373.59127 362.5625 370.96875 z "
       id="path3615"
       transform="translate(0,287.36218)" />
    <path
       style="fill:none;stroke:#000000;stroke-width:0.35433072;stroke-miterlimit:4;stroke-opacity:1"
       d="M 362.21875 314.9375 C 366.23996 322.44297 368.5 330.8892 368.5 339.8125 C 368.5 348.74093 366.23978 357.17454 362.21875 364.6875 C 359.57746 360.82777 357.52999 356.64954 356.1875 352.21875 C 356.19021 352.20903 356.18479 352.19722 356.1875 352.1875 C 357.29235 348.21698 357.875 344.07399 357.875 339.8125 C 357.875 335.55101 357.29235 331.40915 356.1875 327.4375 C 356.18479 327.42777 356.19021 327.41597 356.1875 327.40625 C 357.52999 322.97402 359.57746 318.79979 362.21875 314.9375 z "
       id="path3613"
       transform="translate(0,287.36218)" />
    <path
       style="fill:none;stroke:#000000;stroke-width:0.35433072;stroke-miterlimit:4;stroke-opacity:1"
       d="M 369.625 306.34375 C 375.64234 316.07107 379.125 327.53585 379.125 339.8125 C 379.125 352.08915 375.64234 363.55393 369.625 373.28125 C 367.77803 371.56735 366.11398 369.73457 364.5625 367.8125 C 369.35829 359.45068 372.0625 349.92377 372.0625 339.8125 C 372.0625 329.70123 369.35829 320.17452 364.5625 311.8125 C 366.10951 309.89454 367.78415 308.05487 369.625 306.34375 z "
       id="path3609"
       transform="translate(0,287.36218)" />
    <path
       style="fill:none;stroke:#000000;stroke-width:0.35433072;stroke-miterlimit:4;stroke-opacity:1"
       d="M 339.03125 306.34375 C 340.87888 308.05797 342.60389 309.85921 344.15625 311.78125 C 339.35686 320.15388 336.625 329.6913 336.625 339.8125 C 336.625 349.91867 339.3389 359.44905 344.125 367.8125 C 342.57595 369.72748 340.87396 371.57311 339.03125 373.28125 C 333.02141 363.55193 329.53125 352.08463 329.53125 339.8125 C 329.53125 327.54037 333.02141 316.07307 339.03125 306.34375 z M 346.4375 314.90625 C 349.08279 318.76552 351.15365 322.94576 352.5 327.375 C 352.49728 327.38472 352.50271 327.39653 352.5 327.40625 C 351.38848 331.38916 350.78125 335.53777 350.78125 339.8125 C 350.78125 344.08723 351.38848 348.23698 352.5 352.21875 C 352.50271 352.22847 352.49728 352.24028 352.5 352.25 C 351.15365 356.67779 349.08279 360.86204 346.4375 364.71875 C 342.41302 357.19478 340.15625 348.75093 340.15625 339.8125 C 340.15625 330.8815 342.41478 322.42129 346.4375 314.90625 z M 346.0625 370.96875 C 347.79434 373.59696 349.74067 376.09284 351.875 378.4375 C 350.1805 380.1009 348.36908 381.6574 346.46875 383.125 C 344.48015 380.97402 342.64929 378.65966 340.96875 376.25 C 342.80031 374.5857 344.49164 372.82512 346.0625 370.96875 z "
       id="path3607"
       transform="translate(0,287.36218)" />
    <path
       style="fill:none;stroke:#000000;stroke-width:0.35433072;stroke-miterlimit:4;stroke-opacity:1"
       d="M 377.21875 300.4375 C 382.34273 311.51341 386.21875 325.11153 386.21875 339.8125 C 386.21875 354.49484 382.33307 368.06263 377.21875 379.125 C 375.53158 378.02397 373.90965 376.87237 372.375 375.625 C 378.90761 365.25911 382.6875 352.9732 382.6875 339.8125 C 382.6875 326.64592 378.88174 314.37745 372.34375 304 C 373.89119 302.73939 375.51588 301.54884 377.21875 300.4375 z "
       id="path3605"
       transform="translate(0,287.36218)" />
    <path
       style="fill:none;stroke:#000000;stroke-width:0.35433072;stroke-miterlimit:4;stroke-opacity:1"
       d="M 346.46875 296.5 C 348.36908 297.9676 350.1805 299.5241 351.875 301.1875 C 349.74067 303.53368 347.79434 306.02765 346.0625 308.65625 C 344.49128 306.79805 342.8008 305.00987 340.96875 303.34375 C 342.64533 300.94182 344.48595 298.64471 346.46875 296.5 z M 354.3125 303.75 C 356.51979 306.19374 358.50828 308.80113 360.25 311.5625 C 357.84859 314.83826 355.84255 318.35739 354.3125 322.0625 C 352.78183 318.35838 350.77521 314.83789 348.375 311.5625 C 350.1134 308.80066 352.10736 306.19316 354.3125 303.75 z "
       id="path3603"
       transform="translate(0,287.36218)" />
    <path
       style="fill:none;stroke:#000000;stroke-width:0.35433072;stroke-miterlimit:4;stroke-opacity:1"
       d="M 354.3125 289.34375 C 356.18597 290.79302 357.98751 292.35536 359.6875 294 C 357.82066 295.46611 356.02131 297.00952 354.34375 298.65625 C 352.65473 296.99904 350.8497 295.44287 348.96875 293.96875 C 350.65779 292.33513 352.45194 290.78417 354.3125 289.34375 z M 362.15625 296.53125 C 364.13525 298.67073 365.98186 300.94845 367.65625 303.34375 C 365.82585 305.00714 364.13256 306.77 362.5625 308.625 C 360.83336 306.01002 358.90924 303.52343 356.78125 301.1875 C 358.46538 299.53428 360.26874 297.99112 362.15625 296.53125 z "
       id="path3601"
       transform="translate(0,287.36218)" />
    <path
       style="fill:none;stroke:#000000;stroke-width:0.35433072;stroke-miterlimit:4;stroke-opacity:1"
       d="M 366.125 282.125 C 367.37856 283.70479 368.66383 285.46555 369.9375 287.375 C 367.37902 288.71276 364.92481 290.21281 362.59375 291.84375 C 360.91767 290.19301 359.15321 288.62552 357.3125 287.15625 C 360.09883 285.2477 363.04426 283.57893 366.125 282.125 z M 371.84375 290.375 C 373.15214 292.51438 374.42135 294.80798 375.65625 297.25 C 373.83316 298.42102 372.06627 299.66722 370.40625 301 C 368.76909 298.68263 366.97208 296.49516 365.0625 294.40625 C 367.22109 292.92983 369.48075 291.58945 371.84375 290.375 z "
       id="path3599"
       transform="translate(0,287.36218)" />
    <path
       style="fill:none;stroke:#000000;stroke-width:0.35433072;stroke-miterlimit:4;stroke-opacity:1"
       d="M 354.34375 265.40625 C 352.38683 265.40625 350.78125 266.98059 350.78125 268.9375 C 350.78125 269.41596 350.89061 269.86486 351.0625 270.28125 C 350.8074 270.43551 350.55245 270.59449 350.28125 270.78125 C 349.64772 271.21773 348.89429 271.93998 348.1875 272.53125 C 346.74035 273.74457 345.19074 275.24892 343.53125 277.0625 C 342.37391 278.32799 341.24029 279.46743 340.03125 281 C 340.04023 281.00377 340.05353 280.99622 340.0625 281 C 339.75299 281.3924 339.43628 281.86975 339.125 282.28125 C 337.52066 284.38773 335.90289 286.63533 334.3125 289.15625 C 334.26935 289.2247 334.23058 289.30625 334.1875 289.375 C 333.90979 289.81818 333.64976 290.32599 333.375 290.78125 C 331.74893 293.46535 330.17171 296.34287 328.6875 299.40625 C 328.19006 300.43333 327.75491 301.55946 327.28125 302.625 C 326.19063 305.08078 325.14645 307.60635 324.21875 310.25 C 323.33468 312.76519 322.47425 315.30511 321.78125 317.96875 C 320.97312 321.07491 320.35988 324.28465 319.875 327.5625 C 319.76644 328.29876 319.6527 329.03737 319.5625 329.78125 C 319.16367 333.06154 318.90625 336.40269 318.90625 339.8125 C 318.90625 343.22231 319.16367 346.56308 319.5625 349.84375 C 319.6527 350.58763 319.76644 351.32624 319.875 352.0625 C 320.35684 355.32023 320.97999 358.50556 321.78125 361.59375 C 321.80827 361.6979 321.8164 361.80231 321.84375 361.90625 C 322.51013 364.439 323.34814 366.85234 324.1875 369.25 C 325.13294 371.95333 326.19689 374.55524 327.3125 377.0625 C 327.77557 378.10205 328.17053 379.21605 328.65625 380.21875 C 330.13115 383.2639 331.72826 386.07929 333.34375 388.75 C 333.63013 389.22525 333.89754 389.75628 334.1875 390.21875 C 334.23063 390.28754 334.26929 390.369 334.3125 390.4375 C 335.94073 393.0184 337.60837 395.32284 339.25 397.46875 C 339.52302 397.82575 339.79194 398.25098 340.0625 398.59375 C 340.05353 398.59754 340.04023 398.58997 340.03125 398.59375 C 341.24029 400.12632 342.37391 401.26576 343.53125 402.53125 C 345.19074 404.3438 346.74035 405.84897 348.1875 407.0625 C 348.89429 407.65377 349.64772 408.37602 350.28125 408.8125 C 350.60571 409.03605 350.91648 409.22481 351.21875 409.40625 C 352.43966 410.13538 353.56765 410.65625 354.34375 410.65625 C 355.13519 410.65625 356.24732 410.13259 357.5 409.375 C 357.77388 409.2087 358.05175 409.04458 358.34375 408.84375 C 358.98617 408.40283 359.75056 407.66331 360.46875 407.0625 C 361.91135 405.8487 363.4688 404.34243 365.125 402.53125 C 366.28234 401.26576 367.41596 400.12632 368.625 398.59375 C 368.70792 398.48861 368.792 398.35658 368.875 398.25 C 370.73973 395.86324 372.64718 393.17283 374.5 390.21875 C 374.78978 389.75583 375.05825 389.22583 375.34375 388.75 C 376.98197 386.04162 378.56964 383.1868 380.0625 380.09375 C 380.50358 379.17933 380.85898 378.16374 381.28125 377.21875 C 382.40898 374.69497 383.48191 372.06728 384.4375 369.34375 C 385.29315 366.90314 386.13612 364.45586 386.8125 361.875 C 386.8372 361.78075 386.85056 361.68818 386.875 361.59375 C 387.6768 358.49532 388.33195 355.26892 388.8125 352 C 388.91566 351.2967 388.97608 350.58525 389.0625 349.875 C 389.46446 346.57806 389.75 343.23996 389.75 339.8125 C 389.75 336.40332 389.49065 333.06145 389.09375 329.78125 C 389.00105 329.01679 388.89333 328.25641 388.78125 327.5 C 388.31527 324.35069 387.73335 321.27258 386.96875 318.28125 C 386.86042 317.85725 386.73864 317.45174 386.625 317.03125 C 386.00432 314.73557 385.23142 312.52691 384.46875 310.34375 C 383.46422 307.4719 382.35094 304.71212 381.15625 302.0625 C 380.80014 301.27227 380.49437 300.42498 380.125 299.65625 C 378.60271 296.49092 376.98692 293.54525 375.3125 290.78125 C 375.03857 290.32544 374.77755 289.81862 374.5 289.375 C 372.64234 286.41321 370.74443 283.70391 368.875 281.3125 C 368.79691 281.21235 368.70296 281.09893 368.625 281 C 367.41596 279.46743 366.28234 278.32799 365.125 277.0625 C 363.4688 275.25028 361.91135 273.74484 360.46875 272.53125 C 359.75056 271.93044 358.98617 271.19092 358.34375 270.75 C 358.08474 270.57195 357.83761 270.42873 357.59375 270.28125 C 357.76584 269.86466 357.875 269.41624 357.875 268.9375 C 357.875 266.98059 356.30067 265.40625 354.34375 265.40625 z M 354.34375 267.15625 C 355.32221 267.15625 356.09375 267.95904 356.09375 268.9375 C 356.09375 269.91596 355.32221 270.71875 354.34375 270.71875 C 353.36529 270.71875 352.5625 269.91596 352.5625 268.9375 C 352.5625 267.95904 353.36529 267.15625 354.34375 267.15625 z M 354.34375 272.46875 C 356.36458 272.46876 359.83553 274.94371 363.75 279.3125 C 360.44558 280.93029 357.28592 282.78975 354.3125 284.90625 C 351.34771 282.79758 348.19878 280.92716 344.90625 279.3125 C 348.82993 274.93423 352.32058 272.46874 354.34375 272.46875 z M 342.5625 282.125 C 345.63397 283.57623 348.56513 285.25298 351.34375 287.15625 C 349.50893 288.62082 347.76502 290.19884 346.09375 291.84375 C 343.76743 290.2174 341.3031 288.74106 338.75 287.40625 C 340.03387 285.48229 341.29912 283.7147 342.5625 282.125 z M 336.8125 290.375 C 339.1755 291.58945 341.43516 292.92983 343.59375 294.40625 C 341.67843 296.50144 339.89122 298.70627 338.25 301.03125 C 336.57979 299.68782 334.80432 298.42973 332.96875 297.25 C 334.20691 294.8035 335.50053 292.51789 336.8125 290.375 z M 331.4375 300.46875 C 333.12928 301.57158 334.7741 302.71869 336.3125 303.96875 C 329.76594 314.35087 325.96875 326.63655 325.96875 339.8125 C 325.96875 352.98845 329.76594 365.28277 336.3125 375.65625 C 334.77419 376.90464 333.12934 378.05536 331.4375 379.15625 C 326.31143 368.08925 322.4375 354.50613 322.4375 339.8125 C 322.4375 325.12291 326.31352 311.54 331.4375 300.46875 z "
       transform="translate(0,287.36218)"
       id="path3001" />
  </g>
</svg>
