<?xml version="1.0" encoding="UTF-8" standalone="no"?>
<svg
   xmlns:dc="http://purl.org/dc/elements/1.1/"
   xmlns:cc="http://creativecommons.org/ns#"
   xmlns:rdf="http://www.w3.org/1999/02/22-rdf-syntax-ns#"
   xmlns:svg="http://www.w3.org/2000/svg"
   xmlns="http://www.w3.org/2000/svg"
   xmlns:sodipodi="http://sodipodi.sourceforge.net/DTD/sodipodi-0.dtd"
   xmlns:inkscape="http://www.inkscape.org/namespaces/inkscape"
   id="svg2"
   version="1.1"
   inkscape:version="0.48.1 r9760"
   width="1488.189"
   height="1052.3622"
   sodipodi:docname="test.svg">
  <metadata
     id="metadata88">
    <rdf:RDF>
      <cc:Work
         rdf:about="">
        <dc:format>image/svg+xml</dc:format>
        <dc:type
           rdf:resource="http://purl.org/dc/dcmitype/StillImage" />
        <dc:title></dc:title>
      </cc:Work>
    </rdf:RDF>
  </metadata>
  <defs
     id="defs86" />
  <sodipodi:namedview
     pagecolor="#ffffff"
     bordercolor="#666666"
     borderopacity="1"
     objecttolerance="10"
     gridtolerance="10"
     guidetolerance="10"
     inkscape:pageopacity="0"
     inkscape:pageshadow="2"
     inkscape:window-width="1680"
     inkscape:window-height="1002"
     id="namedview84"
     showgrid="false"
     inkscape:zoom="0.5"
     inkscape:cx="485.79257"
     inkscape:cy="303.04139"
     inkscape:window-x="0"
     inkscape:window-y="0"
     inkscape:window-maximized="0"
     inkscape:current-layer="svg2" />
  <path
     style="fill:none;stroke:#000000"
     d="m 1311.5312,874.67472 -283.4688,0 0,-248.0312 106.3125,0 0,-106.28129 -70.875,0 0,-70.875 212.5938,0 0,-141.7187 -106.2813,0 0,-106.3125 -354.34371,0 0,35.4375 -318.90625,0 0,35.4375 -177.15625,0 0,35.4375 -35.4375,0 0,70.8437 -70.875,0 0,70.875 -35.4063,0 0,35.4375 -98.8437,0 0,354.31249 -78.34369,0 0,130.375 141.75,0 0,-59.5 141.7187,0 0,-106.2812 70.87499,0 0,-35.4375 141.71875,0 0,141.7187 -212.59374,0 0,141.74998 425.18749,0 0,-105.99998 212.625,0 0,70.56248 248.03121,0 0,-35.43752 141.7188,0 0,-106.31246 z"
     id="path3182" />
  <path
     style="fill:none;stroke:#0000ff"
     d="m 1293.8125,892.39352 0,70.875 -124.0001,0 0,-53.1563 -141.75,0 0,-17.7187 265.7501,0 z"
     id="path3180" />
  <path
     style="fill:none;stroke:#008000"
     d="m 1258.375,325.48723 0,106.2813 -194.8751,0 0,-17.7188 106.3125,0 0,-88.5625 88.5626,0 z"
     id="path3178" />
  <path
     style="fill:none;stroke:#008000"
     d="m 1152.0937,219.17473 0,88.5938 -88.5938,0 0,-35.4375 -35.4375,0 0,-35.4375 -194.87496,0 0,-17.7188 318.90626,0 z"
     id="path3176" />
  <path
     style="fill:none;stroke:#008000"
     d="m 1152.0937,325.48723 0,70.8438 -88.5938,0 0,-70.8438 88.5938,0 z"
     id="path3174" />
  <path
     style="fill:none;stroke:#0000ff"
     d="m 1152.0937,927.83102 0,35.4375 -177.18751,0 0,-35.4375 177.18751,0 z"
     id="path3172" />
  <path
     style="fill:none;stroke:#0000ff"
     d="m 1152.0937,980.98718 0,17.7188 -212.62501,0 0,-52.84376 17.71875,0 0,35.12496 194.90626,0 z"
     id="path3170" />
  <path
     style="fill:none;stroke:#0000ff"
     d="m 1116.6562,538.08102 0,70.8437 -70.875,0 0,-70.8437 70.875,0 z"
     id="path3168" />
  <path
     style="fill:none;stroke:#0000ff"
     d="m 1045.7812,290.04973 0,17.7188 -17.7188,0 0,-17.7188 17.7188,0 z"
     id="path3166" />
  <path
     style="fill:none;stroke:#0000ff"
     d="m 1045.7812,325.48723 0,70.8438 -17.7188,0 0,-70.8438 17.7188,0 z"
     id="path3164" />
  <path
     style="fill:none;stroke:#0000ff"
     d="m 1045.7812,414.04973 0,17.7188 -17.7188,0 0,-17.7188 17.7188,0 z"
     id="path3162" />
  <path
     style="fill:none;stroke:#0000ff"
     d="m 1045.7812,449.48723 0,53.1563 -17.7188,0 0,-53.1563 17.7188,0 z"
     id="path3160" />
  <path
     style="fill:none;stroke:#0000ff"
     d="m 1010.3437,254.61223 0,17.7188 -177.15626,0 0,-17.7188 177.15626,0 z"
     id="path3158" />
  <path
     style="fill:none;stroke:#0000ff"
     d="m 1010.3437,290.04973 0,17.7188 -177.15626,0 0,-17.7188 177.15626,0 z"
     id="path3156" />
  <path
     style="fill:none;stroke:#008000"
     d="m 1010.3437,325.48723 0,70.8438 -177.15626,0 0,-70.8438 177.15626,0 z"
     id="path3154" />
  <path
     style="fill:none;stroke:#008000"
     d="m 1010.3437,414.04973 0,17.7188 -230.31251,0 0,-88.5938 -212.59375,0 0,88.5938 -53.15625,0 0,-106.2813 301.1875,0 0,88.5625 194.87501,0 z"
     id="path3152" />
  <path
     style="fill:none;stroke:#008000"
     d="m 1010.3437,449.48723 0,53.1563 -496.06251,0 0,-53.1563 53.15625,0 0,35.4375 212.59375,0 0,-35.4375 230.31251,0 z"
     id="path3150" />
  <path
     style="fill:none;stroke:#000000"
     d="m 1010.3437,520.36223 0,354.31249 -53.15626,0 0,-35.4375 -248.03125,0 0,53.1563 -194.875,0 0,-124 17.71875,0 0,106.2812 106.3125,0 0,-35.4375 70.84375,0 0,-35.4062 70.875,0 0,-35.4375 212.59375,0 0,-141.75 -248.03125,0 0,35.4375 -35.4375,0 0,-35.4375 -70.84375,0 0,-35.4375 -106.3125,0 0,35.4375 -17.71875,0 0,-106.28129 496.06251,0 z"
     id="path3148" />
  <path
     style="fill:none;stroke:#008000"
     d="m 974.90619,644.36222 0,106.3125 -194.875,0 0,-88.5937 -17.71875,0 0,-17.7188 212.59375,0 z"
     id="path3146" />
  <path
     style="fill:none;stroke:#0000ff"
     d="m 939.46869,856.95602 0,35.4375 -212.59375,0 0,-35.4375 212.59375,0 z"
     id="path3144" />
  <path
     style="fill:none;stroke:#0000ff"
     d="m 921.78119,910.11222 0,18.0313 -194.90625,0 0,-18.0313 194.90625,0 z"
     id="path3142" />
  <path
     style="fill:none;stroke:#0000ff"
     d="m 815.46869,254.61223 0,17.7188 -301.1875,0 0,-17.7188 301.1875,0 z"
     id="path3140" />
  <path
     style="fill:none;stroke:#0000ff"
     d="m 815.46869,290.04973 0,17.7188 -301.1875,0 0,-17.7188 301.1875,0 z"
     id="path3138" />
  <path
     style="fill:none;stroke:#008000"
     d="m 762.31244,360.89353 0,70.875 -177.15625,0 0,-70.875 177.15625,0 z"
     id="path3136" />
  <path
     style="fill:none;stroke:#0000ff"
     d="m 762.31244,449.48723 0,17.7188 -177.15625,0 0,-17.7188 177.15625,0 z"
     id="path3134" />
  <path
     style="fill:none;stroke:#0000ff"
     d="m 762.31244,768.39352 0,17.7187 -53.15625,0 0,-106.3125 35.4375,0 0,88.5938 17.71875,0 z"
     id="path3132" />
  <path
     style="fill:none;stroke:#0000ff"
     d="m 691.43744,644.36222 0,17.7188 -53.125,0 0,-17.7188 53.125,0 z"
     id="path3130" />
  <path
     style="fill:none;stroke:#0000ff"
     d="m 691.43744,679.79972 0,106.3125 -35.40625,0 0,-106.3125 35.40625,0 z"
     id="path3128" />
  <path
     style="fill:none;stroke:#0000ff"
     d="m 691.43744,803.83102 0,17.7187 -53.125,0 0,-17.7187 53.125,0 z"
     id="path3126" />
  <path
     style="fill:none;stroke:#000000"
     d="m 691.43744,927.83102 0,106.31248 -389.75004,0 0,-106.31248 389.75004,0 z"
     id="path3124" />
  <path
     style="fill:none;stroke:#008000"
     d="m 620.59369,608.92472 0,17.7188 -53.15625,0 0,212.5937 53.15625,0 0,17.7188 -70.875,0 0,-248.0313 70.875,0 z"
     id="path3122" />
  <path
     style="fill:none;stroke:#0000ff"
     d="m 620.59369,644.36222 0,177.1875 -35.4375,0 0,-177.1875 35.4375,0 z"
     id="path3120" />
  <path
     style="fill:none;stroke:#0000ff"
     d="m 496.56244,290.04973 0,17.7188 -159.4375,0 0,-17.7188 159.4375,0 z"
     id="path3118" />
  <path
     style="fill:none;stroke:#008000"
     d="m 496.56244,325.48723 0,106.2813 -141.71875,0 0,-53.1563 -17.71875,0 0,-53.125 159.4375,0 z"
     id="path3116" />
  <path
     style="fill:none;stroke:#008000"
     d="m 496.56244,449.48723 0,53.1563 -70.84375,0 0,-53.1563 70.84375,0 z"
     id="path3114" />
  <path
     style="fill:none;stroke:#008000"
     d="m 496.56244,520.36223 0,106.28129 -70.84375,0 0,-106.28129 70.84375,0 z"
     id="path3112" />
  <path
     style="fill:none;stroke:#008000"
     d="m 496.56244,644.36222 0,106.3125 -124,0 0,-88.5937 53.15625,0 0,-17.7188 70.84375,0 z"
     id="path3110" />
  <path
     style="fill:none;stroke:#008000"
     d="m 407.99994,467.20603 0,35.4375 -53.15625,0 0,-35.4375 53.15625,0 z"
     id="path3108" />
  <path
     style="fill:none;stroke:#008000"
     d="m 407.99994,520.36223 0,106.28129 -53.15625,0 0,-106.28129 53.15625,0 z"
     id="path3106" />
  <path
     style="fill:none;stroke:#008000"
     d="m 337.12494,520.36223 0,123.99999 -106.31254,0 0,-177.15619 88.5938,0 0,53.1562 17.71874,0 z"
     id="path3104" />
  <path
     style="fill:none;stroke:#008000"
     d="m 337.12494,662.08102 0,124.0312 -106.31254,0 0,-124.0312 106.31254,0 z"
     id="path3102" />
  <path
     style="fill:none;stroke:#0000ff"
     d="m 319.4062,325.48723 0,53.125 -17.7188,0 0,-53.125 17.7188,0 z"
     id="path3100" />
  <path
     style="fill:none;stroke:#0000ff"
     d="m 319.4062,396.33103 0,35.4375 -17.7188,0 0,-35.4375 17.7188,0 z"
     id="path3098" />
  <path
     style="fill:none;stroke:#0000ff"
     d="m 283.9687,396.33103 0,53.1562 -53.1563,0 0,-53.1562 53.1563,0 z"
     id="path3096" />
  <path
     style="fill:none;stroke:#0000ff"
     d="m 266.25,821.54972 0,70.8438 -106.2813,0 0,-17.7188 53.125,0 0,-53.125 53.1563,0 z"
     id="path3094" />
  <path
     style="fill:none;stroke:#0000ff"
     d="m 213.0937,467.20603 0,17.7187 -17.7187,0 0,-17.7187 17.7187,0 z"
     id="path3092" />
  <path
     style="fill:none;stroke:#000000"
     d="m 195.375,662.08102 0,141.75 -53.125,0 0,35.4062 -45.68761,0 0,-336.59369 81.12501,0 0,159.43749 17.6876,0 z"
     id="path3090" />
  <path
     style="fill:none;stroke:#0000ff"
     d="m 195.375,821.54972 0,35.4063 -35.4063,0 0,-35.4063 35.4063,0 z"
     id="path3088" />
  <path
     style="fill:none;stroke:#0000ff"
     d="m 124.53119,874.67472 0,77.2188 -106.3125,0 0,-94.9375 60.625,0 0,17.7187 45.6875,0 z"
     id="rect4" />
</svg>
