<?xml version="1.0" encoding="UTF-8" standalone="no"?>
<!-- Created with Inkscape (http://www.inkscape.org/) -->

<svg
   xmlns:dc="http://purl.org/dc/elements/1.1/"
   xmlns:cc="http://creativecommons.org/ns#"
   xmlns:rdf="http://www.w3.org/1999/02/22-rdf-syntax-ns#"
   xmlns:svg="http://www.w3.org/2000/svg"
   xmlns="http://www.w3.org/2000/svg"
   xmlns:sodipodi="http://sodipodi.sourceforge.net/DTD/sodipodi-0.dtd"
   xmlns:inkscape="http://www.inkscape.org/namespaces/inkscape"
   width="990"
   height="765"
   id="svg7831"
   version="1.1"
   inkscape:version="0.48.1 r9760"
   sodipodi:docname="rectangles_wall_art.svg">
  <defs
     id="defs7833" />
  <sodipodi:namedview
     id="base"
     pagecolor="#ffffff"
     bordercolor="#666666"
     borderopacity="1.0"
     inkscape:pageopacity="0.0"
     inkscape:pageshadow="2"
     inkscape:zoom="1"
     inkscape:cx="366.65681"
     inkscape:cy="387.15511"
     inkscape:document-units="mm"
     inkscape:current-layer="layer1"
     showgrid="false"
     units="mm"
     inkscape:window-width="1680"
     inkscape:window-height="1002"
     inkscape:window-x="0"
     inkscape:window-y="0"
     inkscape:window-maximized="0" />
  <metadata
     id="metadata7836">
    <rdf:RDF>
      <cc:Work
         rdf:about="">
        <dc:format>image/svg+xml</dc:format>
        <dc:type
           rdf:resource="http://purl.org/dc/dcmitype/StillImage" />
        <dc:title></dc:title>
      </cc:Work>
    </rdf:RDF>
  </metadata>
  <g
     inkscape:label="Layer 1"
     inkscape:groupmode="layer"
     id="layer1"
     transform="translate(0,-287.36232)">
    <rect
       style="fill:none;stroke:#000000;stroke-width:0.1mm"
       x="324.98425"
       y="1005.4883"
       width="258.66141"
       height="0"
       id="rect8812" />
    <path
       style="fill:#000000;stroke:#000000;stroke-width:0.10000000000000001mm"
       d="M 298.40625 57.3125 L 298.40625 106.90625 L 216.90625 106.90625 L 216.90625 206.125 L 298.40625 206.125 L 298.40625 396.1875 L 281.09375 396.1875 L 281.09375 327.0625 L 139.375 327.0625 L 139.375 361.28125 L 125.65625 361.28125 L 125.65625 382.53125 L 139.375 382.53125 L 139.375 457.34375 L 99.96875 457.34375 L 99.96875 595.53125 L 139.375 595.53125 L 139.375 614.0625 L 225.375 614.0625 L 225.375 633.59375 L 395.4375 633.59375 L 395.4375 595.53125 L 461.40625 595.53125 L 461.40625 574.625 L 518.375 574.625 L 518.375 688 L 599.59375 688 L 599.59375 732.6875 L 691.71875 732.6875 L 691.71875 688 L 816.03125 688 L 816.03125 326.59375 L 798.03125 326.59375 L 798.03125 174.21875 L 645.65625 174.21875 L 645.65625 152.96875 L 581.875 152.96875 L 581.875 174.21875 L 482.65625 174.21875 L 482.65625 106.90625 L 323.21875 106.90625 L 323.21875 57.3125 L 298.40625 57.3125 z M 307.28125 66.15625 L 314.34375 66.15625 L 314.34375 106.90625 L 307.28125 106.90625 L 307.28125 66.15625 z M 225.78125 115.75 L 298.40625 115.75 L 298.40625 197.25 L 225.78125 197.25 L 225.78125 115.75 z M 307.28125 115.75 L 314.34375 115.75 L 314.34375 197.25 L 307.28125 197.25 L 307.28125 115.75 z M 323.21875 115.75 L 473.8125 115.75 L 473.8125 174.21875 L 411.78125 174.21875 L 411.78125 197.25 L 323.21875 197.25 L 323.21875 115.75 z M 590.71875 161.8125 L 636.78125 161.8125 L 636.78125 174.21875 L 590.71875 174.21875 L 590.71875 161.8125 z M 420.65625 183.09375 L 473.8125 183.09375 L 473.8125 197.25 L 420.65625 197.25 L 420.65625 183.09375 z M 482.65625 183.09375 L 581.875 183.09375 L 581.875 291.15625 L 645.65625 291.15625 L 645.65625 183.09375 L 789.15625 183.09375 L 789.15625 326.59375 L 518.375 326.59375 L 518.375 498.21875 L 461.40625 498.21875 L 461.40625 457.34375 L 420.65625 457.34375 L 420.65625 333.6875 L 475.5625 333.6875 L 475.5625 294.6875 L 420.65625 294.6875 L 420.65625 206.125 L 482.65625 206.125 L 482.65625 183.09375 z M 590.71875 183.09375 L 636.78125 183.09375 L 636.78125 282.3125 L 590.71875 282.3125 L 590.71875 183.09375 z M 307.28125 206.125 L 314.34375 206.125 L 314.34375 396.1875 L 307.28125 396.1875 L 307.28125 206.125 z M 323.21875 206.125 L 411.78125 206.125 L 411.78125 294.6875 L 397.625 294.6875 L 397.625 333.6875 L 411.78125 333.6875 L 411.78125 457.34375 L 395.4375 457.34375 L 395.4375 396.1875 L 323.21875 396.1875 L 323.21875 206.125 z M 406.46875 303.5625 L 411.78125 303.5625 L 411.78125 324.8125 L 406.46875 324.8125 L 406.46875 303.5625 z M 420.65625 303.5625 L 466.71875 303.5625 L 466.71875 324.8125 L 420.65625 324.8125 L 420.65625 303.5625 z M 527.25 335.4375 L 789.15625 335.4375 L 789.15625 565.75 L 527.25 565.75 L 527.25 537.1875 L 716.34375 537.1875 L 716.34375 498.21875 L 527.25 498.21875 L 527.25 335.4375 z M 798.03125 335.4375 L 807.15625 335.4375 L 807.15625 679.15625 L 691.71875 679.15625 L 691.71875 658.28125 L 599.59375 658.28125 L 599.59375 679.15625 L 527.25 679.15625 L 527.25 574.625 L 798.03125 574.625 L 798.03125 335.4375 z M 148.21875 335.90625 L 272.25 335.90625 L 272.25 396.1875 L 225.375 396.1875 L 225.375 457.34375 L 148.21875 457.34375 L 148.21875 382.53125 L 182.375 382.53125 L 182.375 361.28125 L 148.21875 361.28125 L 148.21875 335.90625 z M 134.53125 370.125 L 139.375 370.125 L 139.375 373.6875 L 134.53125 373.6875 L 134.53125 370.125 z M 148.21875 370.125 L 173.5 370.125 L 173.5 373.6875 L 148.21875 373.6875 L 148.21875 370.125 z M 234.21875 405.0625 L 272.25 405.0625 L 272.25 457.34375 L 234.21875 457.34375 L 234.21875 405.0625 z M 281.09375 405.0625 L 298.40625 405.0625 L 298.40625 457.34375 L 281.09375 457.34375 L 281.09375 405.0625 z M 307.28125 405.0625 L 314.34375 405.0625 L 314.34375 457.34375 L 307.28125 457.34375 L 307.28125 405.0625 z M 323.21875 405.0625 L 386.59375 405.0625 L 386.59375 457.34375 L 323.21875 457.34375 L 323.21875 405.0625 z M 108.84375 466.21875 L 139.375 466.21875 L 139.375 586.6875 L 108.84375 586.6875 L 108.84375 466.21875 z M 148.21875 466.21875 L 225.375 466.21875 L 225.375 586.6875 L 148.21875 586.6875 L 148.21875 466.21875 z M 234.21875 466.21875 L 272.25 466.21875 L 272.25 586.6875 L 234.21875 586.6875 L 234.21875 466.21875 z M 281.09375 466.21875 L 298.40625 466.21875 L 298.40625 567.53125 L 323.21875 567.53125 L 323.21875 466.21875 L 386.59375 466.21875 L 386.59375 586.6875 L 281.09375 586.6875 L 281.09375 466.21875 z M 307.28125 466.21875 L 314.34375 466.21875 L 314.34375 558.6875 L 307.28125 558.6875 L 307.28125 466.21875 z M 395.4375 466.21875 L 411.78125 466.21875 L 411.78125 574.625 L 452.53125 574.625 L 452.53125 586.6875 L 395.4375 586.6875 L 395.4375 466.21875 z M 420.65625 466.21875 L 452.53125 466.21875 L 452.53125 498.21875 L 429.34375 498.21875 L 429.34375 537.1875 L 452.53125 537.1875 L 452.53125 565.75 L 420.65625 565.75 L 420.65625 466.21875 z M 438.1875 507.0625 L 452.53125 507.0625 L 452.53125 528.34375 L 438.1875 528.34375 L 438.1875 507.0625 z M 461.40625 507.0625 L 518.375 507.0625 L 518.375 528.34375 L 461.40625 528.34375 L 461.40625 507.0625 z M 527.25 507.0625 L 707.5 507.0625 L 707.5 528.34375 L 527.25 528.34375 L 527.25 507.0625 z M 461.40625 537.1875 L 518.375 537.1875 L 518.375 565.75 L 461.40625 565.75 L 461.40625 537.1875 z M 148.21875 595.53125 L 225.375 595.53125 L 225.375 605.1875 L 148.21875 605.1875 L 148.21875 595.53125 z M 234.21875 595.53125 L 272.25 595.53125 L 272.25 605.1875 L 234.21875 605.1875 L 234.21875 595.53125 z M 281.09375 595.53125 L 386.59375 595.53125 L 386.59375 624.75 L 234.21875 624.75 L 234.21875 614.0625 L 281.09375 614.0625 L 281.09375 595.53125 z M 608.4375 667.15625 L 682.84375 667.15625 L 682.84375 679.15625 L 608.4375 679.15625 L 608.4375 667.15625 z M 608.4375 688 L 682.84375 688 L 682.84375 723.84375 L 608.4375 723.84375 L 608.4375 688 z "
       transform="translate(0,287.36232)"
       id="rect8814" />
    <rect
       style="fill:none;stroke:#000000;stroke-width:0.1mm"
       x="314.35434"
       y="431.47253"
       width="7.0866141"
       height="0"
       id="rect8832" />
    <rect
       style="fill:none;stroke:#000000;stroke-width:0.1mm"
       x="456.08661"
       y="403.1261"
       width="0"
       height="538.5827"
       id="rect8844" />
  </g>
</svg>
