<?xml version="1.0" encoding="UTF-8" standalone="no"?>
<!-- Created with Inkscape (http://www.inkscape.org/) -->

<svg
   xmlns:dc="http://purl.org/dc/elements/1.1/"
   xmlns:cc="http://creativecommons.org/ns#"
   xmlns:rdf="http://www.w3.org/1999/02/22-rdf-syntax-ns#"
   xmlns:svg="http://www.w3.org/2000/svg"
   xmlns="http://www.w3.org/2000/svg"
   xmlns:sodipodi="http://sodipodi.sourceforge.net/DTD/sodipodi-0.dtd"
   xmlns:inkscape="http://www.inkscape.org/namespaces/inkscape"
   width="990"
   height="765"
   id="svg2"
   version="1.1"
   inkscape:version="0.48.1 r9760"
   sodipodi:docname="stylized_tree_earring.svg">
  <defs
     id="defs4" />
  <sodipodi:namedview
     id="base"
     pagecolor="#ffffff"
     bordercolor="#666666"
     borderopacity="1.0"
     inkscape:pageopacity="0.0"
     inkscape:pageshadow="2"
     inkscape:zoom="5.2092472"
     inkscape:cx="70.859375"
     inkscape:cy="77.953125"
     inkscape:document-units="mm"
     inkscape:current-layer="layer1"
     showgrid="false"
     units="mm"
     showguides="true"
     inkscape:guide-bbox="true"
     inkscape:window-width="1680"
     inkscape:window-height="1002"
     inkscape:window-x="0"
     inkscape:window-y="0"
     inkscape:window-maximized="0">
    <sodipodi:guide
       orientation="1,0"
       position="0,63.5"
       id="guide2985" />
    <sodipodi:guide
       orientation="1,0"
       position="141.73228,86.998819"
       id="guide2987" />
    <sodipodi:guide
       orientation="0,1"
       position="171.5,0"
       id="guide2989" />
    <sodipodi:guide
       orientation="0,1"
       position="163,141.73228"
       id="guide2991" />
    <sodipodi:guide
       orientation="1,0"
       position="7.0866142,215"
       id="guide3012" />
    <sodipodi:guide
       orientation="1,0"
       position="134.64567,201"
       id="guide3014" />
    <sodipodi:guide
       orientation="0,1"
       position="154,134.64567"
       id="guide3016" />
    <sodipodi:guide
       orientation="0,1"
       position="146,7.0866142"
       id="guide3018" />
    <sodipodi:guide
       orientation="0,1"
       position="209,35.433071"
       id="guide3028" />
    <sodipodi:guide
       orientation="0,1"
       position="229.5,28.346457"
       id="guide3030" />
    <sodipodi:guide
       orientation="0,1"
       position="225,155.90551"
       id="guide3032" />
    <sodipodi:guide
       orientation="1,0"
       position="63.779528,190.49882"
       id="guide3034" />
    <sodipodi:guide
       orientation="1,0"
       position="77.952756,192"
       id="guide3036" />
    <sodipodi:guide
       orientation="0,1"
       position="211.00039,150.59055"
       id="guide3044" />
    <sodipodi:guide
       orientation="0,1"
       position="206.5,147.04724"
       id="guide3046" />
    <sodipodi:guide
       orientation="1,0"
       position="69.094488,216.99921"
       id="guide3048" />
    <sodipodi:guide
       orientation="1,0"
       position="72.637795,194.99882"
       id="guide3050" />
    <sodipodi:guide
       orientation="1,0"
       position="102.75591,82.731494"
       id="guide3056" />
    <sodipodi:guide
       orientation="1,0"
       position="92.125984,73.539105"
       id="guide3058" />
    <sodipodi:guide
       orientation="0,1"
       position="167.76108,99.212598"
       id="guide3060" />
    <sodipodi:guide
       orientation="0,1"
       position="172.35709,106.29921"
       id="guide3062" />
    <sodipodi:guide
       orientation="1,0"
       position="31.889764,92.455512"
       id="guide3066" />
    <sodipodi:guide
       orientation="1,0"
       position="35.433071,91.041732"
       id="guide3068" />
    <sodipodi:guide
       orientation="0,1"
       position="153.61895,102.75591"
       id="guide3070" />
    <sodipodi:guide
       orientation="1,0"
       position="53.149606,106.29921"
       id="guide3076" />
    <sodipodi:guide
       orientation="1,0"
       position="49.606299,114.02008"
       id="guide3078" />
    <sodipodi:guide
       orientation="0,1"
       position="180.31223,95.669291"
       id="guide3095" />
    <sodipodi:guide
       orientation="1,0"
       position="88.582677,73.714961"
       id="guide3097" />
    <sodipodi:guide
       orientation="1,0"
       position="81.496063,115.43386"
       id="guide3101" />
    <sodipodi:guide
       orientation="0,1"
       position="163.34167,120.47244"
       id="guide3103" />
    <sodipodi:guide
       orientation="0,1"
       position="165.46299,124.01575"
       id="guide3105" />
    <sodipodi:guide
       orientation="1,0"
       position="95.669291,113.66742"
       id="guide3114" />
    <sodipodi:guide
       orientation="0,1"
       position="160.86679,109.84252"
       id="guide3116" />
  </sodipodi:namedview>
  <metadata
     id="metadata7">
    <rdf:RDF>
      <cc:Work
         rdf:about="">
        <dc:format>image/svg+xml</dc:format>
        <dc:type
           rdf:resource="http://purl.org/dc/dcmitype/StillImage" />
        <dc:title></dc:title>
      </cc:Work>
    </rdf:RDF>
  </metadata>
  <g
     inkscape:label="Layer 1"
     inkscape:groupmode="layer"
     id="layer1"
     transform="translate(0,-287.36232)">
    <path
       style="fill:none;stroke:#000000;stroke-width:0.35433072;stroke-miterlimit:4;stroke-opacity:1;stroke-dasharray:none"
       d="M 70.875 609.09375 C 66.949016 609.09375 63.78125 612.26152 63.78125 616.1875 L 63.78125 623.28125 C 63.78125 623.39838 63.775687 623.50929 63.78125 623.625 C 27.972395 627.18255 0 657.37993 0 694.125 C 0 733.26329 31.73671 765 70.875 765 C 110.01329 765 141.71875 733.26329 141.71875 694.125 C 141.71875 657.36989 113.76043 627.16895 77.9375 623.625 C 77.943063 623.50929 77.9375 623.39838 77.9375 623.28125 L 77.9375 616.1875 C 77.9375 612.26152 74.800984 609.09375 70.875 609.09375 z M 68.59375 630.375 C 68.760727 630.36887 68.926448 630.3798 69.09375 630.375 L 69.09375 642.75 C 69.09375 643.7315 69.893504 644.53125 70.875 644.53125 L 77.9375 644.53125 L 77.9375 656.9375 C 77.9375 657.79631 78.566233 658.49159 79.375 658.65625 C 79.490538 658.67977 79.596063 658.6875 79.71875 658.6875 L 53.15625 658.6875 L 53.15625 632.875 C 58.078518 631.45304 63.259931 630.57066 68.59375 630.375 z M 72.625 630.40625 C 80.780964 630.62672 88.540786 632.40375 95.65625 635.40625 L 95.65625 653.09375 L 95.65625 653.375 L 95.65625 655.15625 L 81.5 655.15625 L 81.5 642.75 C 81.5 641.7685 80.700246 640.96875 79.71875 640.96875 L 72.625 640.96875 L 72.625 630.40625 z M 49.59375 634 L 49.59375 660.46875 C 49.59375 660.83681 49.713909 661.18439 49.90625 661.46875 C 50.034477 661.65832 50.18543 661.80927 50.375 661.9375 C 50.56457 662.06573 50.799649 662.17118 51.03125 662.21875 C 51.146788 662.24227 51.252313 662.25 51.375 662.25 L 35.4375 662.25 L 35.4375 641.09375 C 39.806607 638.16847 44.552308 635.78494 49.59375 634 z M 102.75 638.9375 C 112.42544 644.53107 120.48822 652.58717 126.09375 662.25 L 111 662.25 L 104.53125 662.25 L 102.75 662.25 L 102.75 660.46875 L 102.75 658.6875 L 102.75 656.9375 L 102.75 653.375 L 102.75 653.09375 L 102.75 638.9375 z M 31.875 643.65625 L 31.875 664.03125 C 31.875 665.01275 32.674754 665.78125 33.65625 665.78125 L 92.125 665.78125 L 92.125 729.5625 L 75.46875 729.5625 L 72.625 729.5625 L 52.09375 729.5625 C 51.839619 729.5625 51.605803 729.61751 51.375 729.6875 C 51.144288 729.6176 50.910382 729.5625 50.65625 729.5625 L 17.84375 729.5625 C 11.057357 719.42656 7.09375 707.23863 7.09375 694.125 C 7.09375 673.59375 16.80596 655.32247 31.875 643.65625 z M 129.46875 668.90625 C 132.80954 676.63586 134.65625 685.1637 134.65625 694.125 C 134.65625 707.23863 130.69264 719.42656 123.90625 729.5625 L 102.75 729.5625 L 102.75 669.34375 L 104.53125 669.34375 L 111 669.34375 L 128.34375 669.34375 C 128.7807 669.34375 129.16048 669.16663 129.46875 668.90625 z M 51.375 736.53125 C 51.605803 736.60124 51.839619 736.65625 52.09375 736.65625 L 72.625 736.65625 L 75.46875 736.65625 L 118.40625 736.65625 C 106.72786 749.6939 89.755202 757.90625 70.875 757.90625 C 51.994797 757.90625 35.022144 749.6939 23.34375 736.65625 L 50.65625 736.65625 C 50.910382 736.65625 51.144288 736.60115 51.375 736.53125 z "
       transform="translate(0,287.36232)"
       id="path3024" />
    <path
       sodipodi:type="arc"
       style="fill:none;stroke:#000000;stroke-width:0.35433072;stroke-miterlimit:4;stroke-opacity:1;stroke-dasharray:none"
       id="path3052"
       sodipodi:cx="70.866142"
       sodipodi:cy="616.18109"
       sodipodi:rx="1.7716535"
       sodipodi:ry="1.771655"
       d="m 72.637796,616.18109 a 1.7716535,1.771655 0 1 1 -3.543307,0 1.7716535,1.771655 0 1 1 3.543307,0 z"
       transform="translate(0,287.36232)" />
  </g>
</svg>
