<?xml version="1.0" encoding="UTF-8" standalone="no"?>
<!-- Generator: Adobe Illustrator 14.0.0, SVG Export Plug-In . SVG Version: 6.00 Build 43363)  -->

<svg
   xmlns:dc="http://purl.org/dc/elements/1.1/"
   xmlns:cc="http://creativecommons.org/ns#"
   xmlns:rdf="http://www.w3.org/1999/02/22-rdf-syntax-ns#"
   xmlns:svg="http://www.w3.org/2000/svg"
   xmlns="http://www.w3.org/2000/svg"
   xmlns:sodipodi="http://sodipodi.sourceforge.net/DTD/sodipodi-0.dtd"
   xmlns:inkscape="http://www.inkscape.org/namespaces/inkscape"
   version="1.1"
   id="Layer_1"
   x="0px"
   y="0px"
   width="360px"
   height="360px"
   viewBox="0 0 360 360"
   enable-background="new 0 0 360 360"
   xml:space="preserve"
   inkscape:version="0.48.1 r9760"
   sodipodi:docname="option1.svg"><metadata
   id="metadata3083"><rdf:RDF><cc:Work
       rdf:about=""><dc:format>image/svg+xml</dc:format><dc:type
         rdf:resource="http://purl.org/dc/dcmitype/StillImage" /><dc:title></dc:title></cc:Work></rdf:RDF></metadata><defs
   id="defs3081" /><sodipodi:namedview
   pagecolor="#ffffff"
   bordercolor="#666666"
   borderopacity="1"
   objecttolerance="10"
   gridtolerance="10"
   guidetolerance="10"
   inkscape:pageopacity="0"
   inkscape:pageshadow="2"
   inkscape:window-width="1680"
   inkscape:window-height="1002"
   id="namedview3079"
   showgrid="false"
   inkscape:zoom="2.2611111"
   inkscape:cx="180"
   inkscape:cy="180"
   inkscape:window-x="0"
   inkscape:window-y="0"
   inkscape:window-maximized="0"
   inkscape:current-layer="Layer_1"
   inkscape:document-units="mm" />
<path
   d="M 130.53125 52.0625 C 99.68625 52.0625 77.4375 74.614 77.4375 93.125 C 77.4365 116.897 94.875 122.46875 94.875 122.46875 L 95.34375 120.53125 C 95.34375 120.53125 79.53125 115.242 79.53125 93.125 C 79.53125 75.52 100.58825 54.15625 130.53125 54.15625 C 158.07225 54.15625 180.0625 71.01625 180.0625 92.53125 C 180.0625 119.76825 150.84375 129.25 150.84375 129.25 C 153.55375 94.04 172.6875 89.667 172.6875 84.25 C 172.6875 83.195 172.0875 81.84375 171.1875 81.84375 C 171.1875 81.84375 149.50125 86.65775 127.53125 114.34375 C 120.30625 123.52375 115.8125 133.3125 115.8125 133.3125 L 78.34375 133.3125 C 55.32175 133.3125 38.46875 148.95625 38.46875 165.65625 C 38.46875 170.26789 39.911633 174.44419 42.71875 177.75 C 41.247898 178.03734 39.69343 178.38536 37.9375 178.78125 C 31.0845 180.17525 24.86525 182.7095 19.28125 185.9375 C 17.934511 186.74995 16.642499 187.58705 15.40625 188.5 C 7.5214101 179.26055 2.9375 167.3654 2.9375 154.0625 C 2.9375 126.0765 21.31475 101.5625 54.71875 101.5625 C 57.57675 101.5625 61.0325 102.62525 63.4375 103.53125 L 63.4375 101.71875 C 61.7875 101.11675 58.33275 99.90625 54.71875 99.90625 C 22.67175 99.90625 1.28125 121.5585 1.28125 154.0625 C 1.28125 167.86462 5.9877182 180.09697 14.0625 189.5625 C 10.760325 192.19112 7.8595605 195.1878 5.40625 198.65625 C 1.74425 203.84125 0 212.5325 0 219.8125 C 0 225.4175 1.26575 230.73725 3.96875 235.78125 C 6.69775 240.97125 10.528 245.449 15.625 249.375 C 20.735 253.154 27.088 256.242 34.75 258.625 C 42.239 261.008 50.8435 262.125 60.5625 262.125 L 63.59375 262.125 C 64.22875 267.174 66.3145 271.65075 69.8125 275.71875 C 72.8525 279.50275 76.8055 282.7385 81.4375 285.6875 C 81.7545 285.8245 82.2455 286.103 82.5625 286.25 C 87.6565 289.331 93.40225 291.72725 99.78125 293.40625 C 105.99325 295.08625 112.2175 295.90625 118.4375 295.90625 C 126.91537 295.90625 135.07621 295.17181 142.78125 293.75 C 145.72761 301.89093 152.89344 309.9375 166.1875 309.9375 C 200.9455 309.9375 217.1875 265.6875 217.1875 265.6875 L 219.46875 260.625 C 223.67772 258.24649 227.89317 255.96446 232.09375 253.75 C 266.77938 270.80306 278.47373 286.625 300.09375 286.625 C 307.71234 286.625 313.5931 284.64237 318.03125 281.03125 C 318.05997 281.00788 318.0964 280.99225 318.125 280.96875 C 321.06917 278.82293 323.59791 276.10473 325.46875 272.9375 C 327.69275 269.4315 328.8125 265.35675 328.8125 260.59375 C 328.8125 252.47075 325.46825 245.594 318.78125 240.125 C 312.08725 234.661 303.6365 232 293.4375 232 C 282.1175 232 272.27775 234.3715 261.59375 237.3125 C 251.08375 240.2515 240.916 245.5705 230.875 250.0625 C 230.48814 250.23782 230.10204 250.41246 229.71875 250.59375 C 229.65381 250.56124 229.59635 250.53254 229.53125 250.5 L 228.1875 249.90625 L 224.71875 247.9375 L 251.65625 202.34375 L 250.15625 201.75 L 245.625 208.0625 C 245.625 208.0625 241.284 205.96875 238.875 205.96875 C 235.112 205.96875 227.7195 217.5475 217.1875 245.6875 C 217.1875 245.6875 207.7335 243.7405 201.5625 243.4375 C 196.5935 243.4375 188.75 243.875 188.75 243.875 C 189.202 232.137 190.41525 227.631 195.53125 218 C 207.27125 196.332 222.75 185.5 222.75 185.5 C 225.455 185.951 233.2875 186.25175 240.8125 185.34375 C 244.42394 184.92317 247.80629 184.38312 251 183.75 C 251.19585 184.06622 251.38868 184.37552 251.59375 184.6875 C 254.31575 188.9555 257.2645 192.57025 260.5625 195.53125 C 262.1005 196.91325 263.68375 198.245 265.34375 199.5 C 268.75475 202.195 272.493 204.5295 276.375 206.6875 C 282.234 209.8955 288.114 212.2805 294 213.5625 C 299.892 214.9705 305.51475 215.20725 310.84375 214.40625 C 316.23775 213.54725 320.71625 211.12625 324.28125 207.15625 C 326.81525 204.33925 328.31775 201.19925 328.84375 197.78125 C 329.30275 194.42825 329.11875 190.839 328.09375 187.25 C 327.13375 183.591 325.40225 179.99625 323.03125 176.40625 C 320.53825 172.83325 317.66 169.5155 314.375 166.5625 C 311.548 164.0255 308.36025 161.52825 304.90625 159.03125 C 304.24725 158.55125 303.56325 158.07175 302.90625 157.71875 C 300.05225 155.76675 297.024 154.123 293.875 152.75 C 290.022 151.103 286.12975 150.1745 282.21875 149.9375 C 278.23975 149.7595 274.5315 150.66725 270.9375 152.78125 C 270.5155 152.03925 270.07925 151.27125 269.53125 150.53125 C 269.04825 149.86125 268.365 149.25875 267.625 148.59375 C 266.082 147.20675 264.363 145.89275 262.375 144.71875 C 260.271 143.55375 258.03625 142.4 255.53125 141.125 C 260.09325 136.725 265.668 134.0495 272.125 132.9375 C 278.658 131.8825 285.502 132.1 292.875 133.625 C 300.18 135.209 307.41775 137.978 314.71875 141.875 C 315.31275 142.162 315.784 142.46 316.375 142.75 C 323.035 146.424 329.20075 150.8725 334.96875 156.0625 C 338.99975 159.6795 342.88425 163.9 346.65625 168.75 C 350.31625 173.61 353.1835 178.64075 355.1875 183.96875 C 357.1385 189.23775 357.94925 194.43 357.65625 199.625 C 357.41725 204.752 355.2325 209.59375 351.1875 214.09375 C 348.4725 217.11375 345.13175 219.2035 341.09375 220.3125 C 340.71775 220.3325 340.3515 220.6065 340.1875 221.1875 C 340.0295 221.7765 340.357 222.07525 341.25 222.03125 C 343.779 221.51125 345.92525 220.77425 347.65625 219.65625 C 349.38825 218.54025 351.02275 217.123 352.59375 215.375 C 356.87775 210.609 359.2785 205.471 359.8125 199.875 C 360.3425 194.282 359.67875 188.7115 357.71875 183.0625 C 355.82275 177.3505 352.89175 171.9185 349.09375 166.6875 C 345.29475 161.4465 341.24 156.82825 336.875 152.90625 C 331.436 148.01625 325.30825 143.7375 318.65625 140.1875 C 317.87525 139.7175 317.00625 139.31325 316.28125 138.90625 C 308.66425 135.09425 301.0575 132.35475 293.4375 130.96875 C 285.7455 129.52375 278.46 129.5495 271.5 130.9375 C 264.61 132.3955 258.68825 135.564 253.78125 140.5 C 247.87325 137.618 241.15825 134.28275 233.53125 130.34375 C 225.90925 126.52775 218.291 121.09975 210.5 114.09375 C 207.414 111.32175 204.4955 108.20875 201.6875 104.84375 C 198.8895 101.47675 196.722 97.97375 195.25 94.34375 C 193.707 90.65475 193.1955 86.915 193.4375 83.125 C 193.7565 79.399 195.46325 75.71625 198.65625 72.15625 C 200.65125 69.93525 203.8885 68.37 208.1875 67.5 C 212.4875 66.629 217.282 66.443 222.5 67.125 C 227.839 67.795 233.22975 69.237 238.71875 71.5 C 244.27075 73.695 249.28825 76.73125 253.65625 80.65625 C 256.33725 83.06625 258.796 85.76575 261 88.71875 C 263.132 91.60575 264.823 94.4455 266.125 97.3125 C 267.436 100.1895 268.02675 102.9345 267.96875 105.5625 C 267.98575 108.2425 267.064 110.46875 265.375 112.34375 C 262.958 115.02975 260.0415 116.64925 256.6875 117.28125 C 253.2645 117.84325 249.807 117.78 246.375 117 C 242.942 116.222 239.62625 114.936 236.53125 113.25 C 233.37025 111.498 230.7745 109.625 228.6875 107.75 C 226.5435 105.823 224.50975 103.7655 222.59375 101.3125 C 220.67475 98.9855 219.6595 96.88075 219.5625 95.09375 C 219.2815 94.47375 219.013 94.07375 218.625 93.96875 C 218.364 93.85875 218.12925 94.14525 218.03125 94.65625 C 218.10625 97.27525 219.1955 99.83975 221.3125 102.46875 C 223.4335 104.98475 225.68525 107.35575 228.03125 109.46875 C 230.44625 111.63675 233.29925 113.59825 236.65625 115.40625 C 240.00625 117.20425 243.46625 118.603 247.03125 119.5 C 250.64925 120.328 254.11975 120.42425 257.71875 119.65625 C 261.27375 118.95925 264.349 117.11125 267 114.15625 C 269.236 111.66825 270.4525 108.99425 270.8125 106.15625 C 271.1205 103.39625 270.69875 100.48025 269.71875 97.65625 C 268.60375 94.83625 267.0615 91.98375 264.9375 89.21875 C 262.8675 86.51375 260.488 84.00825 257.875 81.65625 C 253.171 77.42625 247.8575 73.878 241.8125 71 C 235.8485 68.188 229.9435 66.283 224.0625 65.125 C 218.1735 63.965 212.65175 63.86825 207.59375 64.78125 C 202.58375 65.62325 198.68225 67.535 195.90625 70.625 C 193.13025 73.713 191.53075 77.263 190.96875 81.25 C 190.54575 85.233 190.808 89.37675 192.125 93.59375 C 193.504 97.86875 195.524 102.118 198.375 106.375 C 201.292 110.703 204.781 114.66775 208.875 118.34375 C 212.098 121.24075 215.548 123.883 219.25 126.25 C 222.895 128.676 226.71875 130.74825 230.59375 132.78125 C 234.40875 134.75425 238.30125 136.5285 242.03125 138.0625 C 245.69325 139.6525 249.08025 141.0025 252.15625 142.3125 C 248.35725 146.7995 246.0675 151.5305 245.3125 156.5625 C 245.03638 158.41719 244.87445 160.25061 244.84375 162.0625 C 224.4795 168.50043 207.875 181.59375 207.875 181.59375 C 207.875 181.59375 206.2291 181.26387 204.21875 180.90625 C 203.99168 180.83409 203.75694 180.7622 203.53125 180.6875 C 201.26725 179.9305 199.06525 179.04925 197.03125 177.90625 C 195.51223 177.0457 194.05364 176.03722 193 174.8125 C 195.82465 172.71559 198.20051 169.87259 199.5 166.53125 C 203.74094 166.54687 208.12167 168.12062 211.5 171.15625 L 211.84375 170.84375 C 209.18035 167.24381 204.90274 164.77609 200.25 164.09375 C 201.35754 159.56153 200.75123 154.77117 199.34375 150.46875 C 197.84706 145.9567 195.48897 141.8168 192.5 138.15625 C 192.51979 138.15164 192.54271 138.16087 192.5625 138.15625 C 197.2695 137.00325 201.899 135.55925 206.375 133.65625 L 205.8125 132.40625 C 201.4865 134.36425 196.93425 135.9165 192.28125 136.9375 C 192.05221 136.98859 191.82335 137.04473 191.59375 137.09375 C 188.49368 133.57067 184.7681 130.4926 180.28125 128.65625 C 177.93225 127.71125 175.3265 127.142 172.6875 127.375 C 171.3645 127.492 170.0785 127.7875 168.8125 128.3125 C 167.4405 128.8545 166.0655 130.286 165.9375 132 C 165.7845 133.674 166.5165 135.102 167.4375 136.125 C 168.3575 137.177 169.54 137.9245 170.75 138.4375 C 171.365 138.6845 171.966 138.867 172.625 139 C 173.208 139.122 173.8125 139.24875 174.4375 139.34375 C 175.6635 139.53275 176.86975 139.66375 178.09375 139.71875 C 182.11236 139.89921 186.09452 139.45673 190 138.6875 C 190.12197 138.82529 190.25513 138.95442 190.375 139.09375 C 193.407 142.63575 195.8135 146.75225 197.3125 151.15625 C 198.7148 155.27023 199.20728 159.74333 198.25 163.90625 C 195.74678 163.87466 193.00644 164.28519 190.6875 166.21875 C 189.4685 167.23675 188.826 168.959 188.875 170.5 C 188.93203 171.86709 189.14419 173.00088 189.6875 174.1875 C 186.4395 175.65816 181.95452 177.21336 175.75 179.125 C 165.378 182.402 158.4675 187.56875 157.9375 193.59375 C 157.9375 193.59375 154.4675 194.8085 151.1875 196.9375 C 150.0375 186.1225 157.92425 177.8125 165.28125 177.8125 C 166.52425 177.8125 168.0405 177.89125 169.8125 178.15625 L 169.53125 177.1875 C 165.36125 174.2655 164.65625 172.132 164.65625 168.5 C 164.65625 161.053 170.9545 154.84375 178.3125 154.84375 C 182.8295 154.84375 186.125 157.4295 186.125 161.0625 C 186.125 164.2545 183.29125 167 180.28125 167 C 177.97625 167 176.557 166.11175 174.875 163.71875 L 173.4375 163.90625 C 175.2095 167.18325 177.0025 168.40625 180.1875 168.40625 C 184.0885 168.40625 187.53125 164.8745 187.53125 161.0625 C 187.53125 155.7455 181.408 151.40625 173.875 151.40625 C 164.301 151.40625 157.3125 157.6075 157.3125 165.9375 C 157.3125 169.3055 157.92125 170.8185 160.40625 174.1875 C 148.79325 174.1875 140.8125 183.31325 140.8125 194.65625 C 140.8125 196.10753 140.97111 197.72042 141.40625 200 C 137.4739 200.97466 133.54466 201.72184 129.59375 201.8125 C 124.85275 201.9875 120.14775 201.09925 115.84375 199.15625 C 114.78875 198.69725 113.646 198.1265 112.625 197.5625 C 111.77493 197.06495 110.91525 196.36352 110.1875 195.59375 C 116.93322 191.954 123.37687 187.49122 129.0625 181.96875 C 135.2025 176.03975 140.3605 168.76625 143.8125 160.65625 C 146.16256 155.22735 147.71249 149.48137 148.71875 143.71875 C 148.83156 143.35027 148.99025 142.95221 149.0625 142.65625 C 149.5205 140.69925 150.5625 131.96875 150.5625 131.96875 C 150.5625 131.96875 182.15625 121.87525 182.15625 92.53125 C 182.15625 69.96425 159.42125 52.0625 130.53125 52.0625 z M 161.40625 88.03125 C 164.11225 88.03125 139.26825 108.49375 135.65625 131.96875 C 130.83925 132.86775 121.2175 133.3125 118.8125 133.3125 C 119.5665 131.2035 124.0805 120.99025 134.3125 109.40625 C 143.4925 98.87025 157.64325 88.03125 161.40625 88.03125 z M 173.71875 129.75 C 175.62259 129.70428 177.56788 130.11925 179.40625 130.84375 C 183.01864 132.28271 186.24251 134.74301 189 137.625 C 185.40972 138.24906 181.76373 138.54276 178.15625 138.34375 C 176.98025 138.28075 175.80325 138.15775 174.65625 137.96875 C 174.09525 137.87775 173.5255 137.72775 172.9375 137.59375 C 172.4275 137.45575 171.87625 137.271 171.40625 137 C 169.51125 135.976 168.2565 133.81325 168.4375 132.28125 C 168.4995 131.54525 168.9875 130.97075 169.8125 130.59375 C 170.7625 130.18575 171.83625 129.9125 172.90625 129.8125 C 173.17613 129.78625 173.44677 129.75653 173.71875 129.75 z M 135.5 134.21875 C 135.5 134.38975 135.47375 134.574 135.46875 134.75 C 135.57807 134.75783 135.68058 134.81833 135.78125 134.84375 C 136.10925 142.45275 135.621 149.877 133.625 157 C 131.66 164.114 128.1775 170.875 123.4375 176.875 C 119.04659 182.45955 113.63576 187.37812 107.6875 191.6875 C 107.41567 191.00697 107.21622 190.31103 107.0625 189.59375 C 106.5835 187.37675 106.80025 185.0025 107.78125 182.9375 C 108.72725 180.8365 110.55125 179.165 112.65625 178 L 112.34375 177.3125 C 109.96575 178.1995 107.748 179.8815 106.375 182.1875 C 105.001 184.4875 104.52 187.2765 104.875 189.9375 C 105.00726 191.0178 105.30078 192.07309 105.6875 193.09375 C 100.51777 196.66051 95.00868 199.79782 89.28125 202.59375 C 80.45698 205.83819 70.601634 208.40625 61.46875 208.40625 C 43.562969 208.40625 28.159008 201.81882 17.65625 191 C 18.553812 190.33254 19.456846 189.67406 20.46875 188.96875 C 25.09175 185.74575 31.5635 183.96525 37.9375 182.28125 C 40.829113 181.52106 43.216485 180.91728 45.625 180.5 C 49.550677 183.45112 55.067235 185.21875 62.09375 185.21875 C 66.112829 185.21875 69.961972 184.35045 73.65625 182.875 C 74.309688 183.03947 74.964429 183.21143 75.5625 183.40625 C 84.3245 185.93525 91.32875 189.8315 96.59375 195.4375 C 97.38175 195.8575 97.8705 195.8575 98.1875 195.4375 C 98.6785 195.0125 98.50325 194.454 98.03125 193.75 C 93.25725 188.846 86.39125 184.8035 77.78125 181.4375 C 77.597719 181.37573 77.402193 181.31177 77.21875 181.25 C 96.468719 171.22573 110.63772 144.97735 117.15625 135.5625 C 121.96825 135.5625 130.989 135.12375 135.5 134.21875 z M 83.75 135.875 L 114 135.875 C 106.80671 146.78235 92.26748 171.7806 74.15625 180.25 C 73.240505 179.94781 72.371981 179.64711 71.40625 179.34375 C 64.24425 177.52175 61.3785 176.90325 55.1875 176.53125 C 52.587057 176.53125 50.390014 176.66306 48.21875 176.90625 C 46.491785 174.20365 45.53125 170.51193 45.53125 165.65625 C 45.53125 150.15925 62.989 135.875 83.75 135.875 z M 253.78125 143.0625 C 256.40625 144.2055 258.7715 145.24675 260.9375 146.34375 C 263.0465 147.38575 264.563 148.37375 265.5 149.21875 C 267.519 151.03575 268.6715 152.58625 268.9375 153.90625 C 267.9465 154.47325 267.4595 155.1135 267.5625 155.8125 C 267.5965 156.4475 267.75575 156.97825 268.09375 157.28125 C 268.50175 157.64625 268.9375 157.66 269.4375 157.375 C 269.9945 157.148 270.4895 156.49875 270.6875 155.46875 C 272.9355 153.23375 275.94025 152.18 279.53125 152.375 C 283.18625 152.63 287.0775 153.44675 290.9375 154.96875 C 294.3385 156.32475 297.66575 157.873 300.96875 159.875 C 301.56775 160.165 302.1615 160.5785 302.6875 160.9375 C 306.5935 163.3475 309.79225 165.7095 312.40625 168.0625 C 314.75825 170.1775 317.20225 172.7375 319.53125 175.8125 C 321.87825 178.8805 323.63925 182.173 324.90625 185.625 C 326.18325 189.067 326.7025 192.56475 326.4375 195.96875 C 326.2345 199.43075 324.80425 202.63275 322.03125 205.71875 C 318.95325 209.14675 314.907 211.1035 309.875 211.5625 C 304.849 212.0265 299.5805 211.671 293.9375 210.25 C 288.4295 208.81 282.93775 206.6565 277.46875 203.6875 C 273.78375 201.7055 270.41125 199.5235 267.40625 197.1875 C 265.95425 196.1105 264.61775 195.05425 263.34375 193.90625 C 260.18975 191.06725 257.24825 187.5765 254.40625 183.5625 C 254.29682 183.40777 254.20078 183.2492 254.09375 183.09375 C 270.73867 179.30795 280.6875 172.91567 280.6875 167.59375 C 280.6875 162.62675 274.077 158.5625 265.5 158.5625 C 259.19264 158.5625 252.83623 159.67489 246.78125 161.4375 C 246.78113 159.88606 246.88789 158.31665 247.09375 156.71875 C 247.73875 151.82775 249.91925 147.3605 253.78125 143.0625 z M 269.09375 161.71875 C 274.51175 161.71875 278.59375 164.43275 278.59375 167.59375 C 278.59375 172.41745 265.94587 178.1224 252.875 181.21875 C 250.83912 177.91587 249.2784 174.46374 248.15625 170.8125 C 247.87798 169.90593 247.6618 168.97945 247.46875 168.0625 C 256.71846 163.28238 263.63301 161.71875 269.09375 161.71875 z M 197.34375 166.65625 C 196.21218 169.30922 194.37815 171.61264 192.0625 173.4375 C 191.65793 172.7035 191.36565 171.56225 191.625 170.75 C 191.849 169.843 192.3695 169.23975 192.9375 168.59375 C 193.91283 167.54216 195.5881 166.92304 197.34375 166.65625 z M 245.40625 169.15625 C 245.52991 169.85022 245.64674 170.55896 245.8125 171.25 C 246.70542 174.98608 248.09721 178.52727 249.9375 181.875 C 246.87409 182.50412 243.82283 182.981 240.96875 183.25 C 235.09475 183.851 223.96875 183.6875 223.96875 183.6875 C 232.25092 177.19913 239.30704 172.5007 245.40625 169.15625 z M 191.0625 176.375 C 192.42309 177.96897 194.15312 179.06911 195.84375 180.03125 C 198.08475 181.26825 200.4395 182.19075 202.8125 182.96875 C 203.70126 183.24299 204.57628 183.47321 205.46875 183.71875 C 183.28931 207.43093 178.53125 216.76316 178.53125 232.90625 C 178.53125 236.06725 179.44375 239.8185 181.09375 245.6875 C 181.09375 245.6875 168.14975 249.1615 158.96875 256.6875 C 145.52919 267.34924 142.44063 277.37027 141.71875 279.875 C 136.77186 275.28527 132.21513 270.28421 129.03125 264.5 C 127.35125 261.48 126.05625 258.2755 125.40625 254.9375 C 124.74225 251.5975 124.782 248.17375 125.375 244.84375 C 125.82969 242.50991 126.583 240.2056 127.59375 238 C 130.71543 239.58352 134.03352 240.80241 137.375 241.75 C 140.882 242.731 144.44675 243.42575 148.09375 243.71875 C 149.92575 243.84575 151.7525 243.93925 153.6875 243.65625 C 154.7675 243.49325 155.56975 243.075 156.46875 242.75 C 157.35975 242.413 158.24675 242.03225 159.09375 241.53125 C 160.80475 240.58325 162.43375 239.19025 163.46875 237.28125 C 164.51675 235.38725 164.72875 233.0275 164.21875 230.9375 C 163.70075 228.8035 162.6595 227.00675 161.1875 225.46875 C 159.6845 223.99475 157.87625 222.99275 156.03125 222.34375 C 152.31525 221.04075 148.438 221.03875 144.75 221.59375 C 141.092 222.15175 137.38875 223.52525 134.46875 225.90625 C 131.22909 228.49234 128.30239 231.60738 126.09375 235.1875 C 123.68749 233.78597 121.42723 232.16026 119.40625 230.25 C 114.26425 225.494 111.1515 218.78125 110.8125 211.78125 L 109.1875 211.875 C 109.3925 215.547 110.23625 219.1985 111.78125 222.5625 C 113.32425 225.9215 115.55175 228.966 118.21875 231.5 C 120.35435 233.52569 122.73893 235.24799 125.25 236.71875 C 123.9794 239.06325 123.01028 241.57867 122.4375 244.25 C 120.7675 251.726 122.78625 259.5995 126.53125 265.9375 C 130.32625 272.3345 135.568 277.59325 141.25 282.03125 L 141.34375 281.90625 C 141.34627 281.91496 141.375 281.9375 141.375 281.9375 C 140.95228 284.51938 141.11367 287.87132 142.03125 291.34375 C 135.45484 292.6829 125.95184 293.40625 118.4375 293.40625 C 111.7505 293.40625 105.5175 292.54175 99.3125 290.71875 C 93.2625 289.04075 87.81625 286.819 83.03125 283.875 C 82.56125 283.592 81.9225 283.158 81.4375 282.875 C 77.4505 280.219 73.96 277.27525 71.25 273.90625 C 68.048 270.12725 66.12125 266.193 65.65625 262.125 C 71.56425 261.847 76.8055 260.88175 81.4375 259.34375 C 84.9505 258.21875 87.9825 256.821 90.6875 255 C 97.2285 250.791 100.40625 245.87225 100.40625 240.40625 C 100.40625 238.02525 99.633 235.78975 97.875 233.96875 C 96.123 232.01575 93.25375 231.03125 89.09375 231.03125 C 86.38575 231.03125 83.6735 231.45525 81.4375 232.15625 C 80.0075 232.57825 78.5915 233.13375 77.3125 233.96875 C 73.9665 235.78975 71.2565 238.323 69.1875 241.125 C 67.1005 244.064 65.67375 247.152 64.71875 250.375 C 63.60875 253.598 63.125 256.54075 63.125 259.34375 L 63.125 259.90625 L 60.5625 259.90625 C 54.9795 259.90625 48.9425 259.3265 42.5625 258.0625 C 36.0205 256.6665 29.012 254.097 23.75 250.875 C 17.324 247.582 13.373 244.52875 9.875 239.34375 C 6.362 234.02175 3.2165 228.619 3.0625 220 C 2.9045 211.377 4.221 206.3185 7.875 200.9375 C 11.16784 196.59685 13.626986 194.14312 16.28125 192.03125 C 27.068548 203.18585 42.933566 209.90625 61.46875 209.90625 C 71.843727 209.90625 82.439349 207.09658 91.625 203.625 C 97.124248 201.72252 102.55481 199.51535 107.8125 196.84375 C 107.91818 196.97693 108.01438 197.12062 108.125 197.25 C 109.017 198.294 110.00675 199.18275 111.21875 199.96875 C 112.33675 200.64775 113.40375 201.25775 114.59375 201.84375 C 119.24575 204.13875 124.5375 205.16375 129.6875 204.96875 C 133.80422 204.79313 137.81515 203.95647 141.65625 202.75 C 141.71413 202.93755 141.78137 203.12588 141.84375 203.3125 C 142.07575 203.2585 142.255 203.21925 142.5 203.15625 C 145.425 210.33925 154.04125 214.9375 162.90625 214.9375 C 174.42725 214.9375 183.28125 207.139 183.28125 197.125 C 183.28125 191.363 179.378 185.50825 172.375 185.15625 C 174.151 184.09225 182.13025 180.835 188.15625 178 C 189.1862 177.50601 190.15622 176.94647 191.0625 176.375 z M 55.1875 179.75 C 59.324883 180.00945 63.333158 180.56478 69.71875 181.9375 C 67.231737 182.68497 64.687837 183.125 62.09375 183.125 C 57.57503 183.125 53.742962 182.13414 50.90625 179.875 C 52.232758 179.78768 53.631148 179.75 55.1875 179.75 z M 170.96875 186.9375 C 176.82075 186.9375 181.40625 191.36575 181.40625 197.21875 C 181.40625 205.28175 174.69575 212.09375 166.71875 212.09375 C 159.36475 212.09375 152.5395 205.557 151.5625 199 C 154.2225 197.052 158.03125 195.28125 158.03125 195.28125 C 158.30125 201.48725 163.4385 204.5625 168.3125 204.5625 C 172.6535 204.5625 175.9375 201.82625 175.9375 198.28125 C 175.9375 194.46825 172.295 191.09375 168.125 191.09375 C 166.797 191.09375 165.8125 191.38 163.0625 192 C 165.8125 188.104 167.51475 186.9375 170.96875 186.9375 z M 167.875 192.4375 C 171.242 192.4375 173.875 194.8345 173.875 197.9375 C 173.875 200.7745 171.41925 203.15625 168.40625 203.15625 C 164.68025 203.15625 161.90625 200.6585 161.90625 196.9375 C 161.90725 195.9605 162.023 194.99575 162.375 193.84375 C 164.235 193.13575 165.922 192.4375 167.875 192.4375 z M 147.59375 223.59375 C 150.16119 223.64371 152.69313 224.18187 154.9375 225.125 C 157.9295 226.394 160.17825 228.8215 160.78125 231.6875 C 161.07025 233.0915 160.8255 234.4795 160.3125 235.8125 C 159.8115 237.1555 158.92875 238.48075 157.71875 239.59375 C 157.10175 240.13075 156.4245 240.62125 155.6875 241.03125 C 154.9505 241.41225 154.072 241.768 153.375 241.875 C 151.755 242.119 149.985 242.0595 148.25 241.9375 C 144.746 241.6695 141.24475 241.0045 137.84375 240.0625 C 134.58021 239.15008 131.36848 237.9645 128.34375 236.4375 C 130.15414 233.00931 132.6345 229.89362 135.65625 227.40625 C 138.955 224.7425 143.31468 223.51048 147.59375 223.59375 z M 89.90625 234.53125 C 92.61425 234.53125 94.52825 235.24 95.65625 236.5 C 96.93025 237.754 97.5625 239.28375 97.5625 240.96875 C 97.5625 245.72975 94.52075 249.92975 88.46875 253.71875 C 86.24375 254.97875 83.9945 256.1005 81.4375 256.9375 C 76.8055 258.6225 71.39775 259.62525 65.34375 259.90625 L 65.34375 259.625 C 65.34375 256.822 65.977 254.0065 67.25 251.0625 C 68.352 248.2545 70.14075 245.61275 72.21875 243.09375 C 74.29375 240.56975 76.827 238.58125 79.875 236.90625 C 80.347 236.62625 80.7985 236.50175 81.4375 236.21875 C 83.9945 235.09775 86.87325 234.53125 89.90625 234.53125 z M 293.4375 235.25 C 298.5305 235.25 303.14125 235.92875 307.28125 237.46875 C 311.43425 239.00675 314.94625 240.83075 317.65625 243.21875 C 320.52725 245.59675 322.5905 248.27475 324.1875 251.21875 C 325.7845 254.29975 326.59375 257.2275 326.59375 260.3125 C 326.59375 266.7575 323.7205 272.51675 317.8125 277.84375 C 314.07352 281.86913 309.67106 283.89774 304.34375 284.875 C 303.00577 285.03454 301.59059 285.125 300.09375 285.125 C 281.40702 285.125 271.71148 272.26168 233.96875 252.78125 C 235.1389 252.17075 236.30408 251.53333 237.46875 250.9375 C 246.25275 246.4505 255.17475 242.65875 264.59375 239.71875 C 273.82275 236.77775 283.3965 235.25 293.4375 235.25 z M 199.6875 245.21875 C 200.34365 245.20822 200.94837 245.2315 201.53125 245.25 C 206.79725 245.553 214.9375 247.5 214.9375 247.5 C 214.9375 247.5 205.296 255.03125 198.375 255.03125 C 190.553 255.03125 189.21875 246 189.21875 246 C 189.21875 246 195.09442 245.29244 199.6875 245.21875 z M 181.6875 247.03125 C 187.5565 254.10125 191.90725 256.6875 198.53125 256.6875 C 204.09425 256.6875 208.7615 253.82325 217.1875 248.40625 C 216.72645 250.94815 215.9306 255.02402 215 258.96875 C 210.71633 261.6491 206.44934 264.35969 202.03125 266.78125 C 192.30425 271.96725 182.48925 276.34475 173.40625 280.96875 C 167.70538 283.47597 162.85528 285.50508 157.84375 287.1875 C 149.46687 284.96927 143.15625 281.34375 143.15625 281.34375 C 143.15625 281.34375 145.426 269.30575 159.875 257.71875 C 169.806 249.74475 181.6875 247.03125 181.6875 247.03125 z M 223.96875 249.75 L 227.53125 251.65625 C 225.55255 252.66174 223.63052 253.75934 221.71875 254.875 L 223.96875 249.75 z M 213.6875 263.9375 C 213.1829 265.73387 212.69387 267.29825 212.21875 268.40625 C 210.71475 270.36425 191.3275 288.875 169.8125 288.875 C 167.53396 288.875 165.25532 288.66674 163.0625 288.3125 C 170.00929 285.96505 176.6695 283.24586 183.125 280.21875 C 192.854 275.73175 202.10225 270.822 211.03125 265.5 C 211.9147 264.97651 212.80067 264.4551 213.6875 263.9375 z M 212.375 270.65625 C 212.374 272.76525 196.7335 308.59375 166.1875 308.59375 C 154.40861 308.59375 147.30084 301.12935 144.34375 293.46875 C 147.25714 292.89139 150.07631 292.21087 152.84375 291.4375 C 155.20351 290.78684 157.54396 290.07509 159.84375 289.34375 C 163.00718 289.95734 166.3911 290.375 169.8125 290.375 C 191.1785 290.375 212.375 270.65625 212.375 270.65625 z M 142.875 283.3125 C 143.58805 284.02319 148.30503 286.35979 154.75 288.15625 C 151.52312 289.13535 148.14462 290.02321 144.34375 290.8125 C 144.09275 290.87729 143.79539 290.93748 143.53125 291 C 142.78156 288.24492 142.57784 285.57182 142.875 283.3125 z "
   id="path3055"
   style="stroke:#000000;stroke-opacity:1;stroke-width:0.45000000000000001;stroke-miterlimit:4;stroke-dasharray:none;fill:none" />











<path
   style="fill:none;stroke:#00ff00;stroke-width:0.44999999;stroke-miterlimit:4;stroke-opacity:1;stroke-dasharray:none"
   d="m 130.53125,52.0625 c -30.845,0 -53.09375,22.5515 -53.09375,41.0625 -1.679668,9.49392 -14,10.40625 -14,10.40625 l 0,-1.8125 c -1.65,-0.602 -5.10475,-1.8125 -8.71875,-1.8125 -32.047,0 -53.4375,21.65225 -53.4375,54.15625 0,13.80212 4.7064682,26.03447 12.78125,35.5 -3.302175,2.62862 -6.2029395,5.6253 -8.65625,9.09375 C 1.74425,203.84125 0,212.5325 0,219.8125 c 0,5.605 1.26575,10.92475 3.96875,15.96875 2.729,5.19 6.55925,9.66775 11.65625,13.59375 5.11,3.779 11.463,6.867 19.125,9.25 7.489,2.383 16.0935,3.5 25.8125,3.5 l 3.03125,0 c 0.635,5.049 2.72075,9.52575 6.21875,13.59375 3.04,3.784 6.993,7.01975 11.625,9.96875 0.317,0.137 0.808,0.4155 1.125,0.5625 5.094,3.081 10.83975,5.47725 17.21875,7.15625 6.212,1.68 12.43625,2.5 18.65625,2.5 8.47787,0 16.63871,-0.73444 24.34375,-2.15625 2.94636,8.14093 10.11219,16.1875 23.40625,16.1875 34.758,0 51,-44.25 51,-44.25 l 2.28125,-5.0625 c 4.20897,-2.37851 8.42442,-4.66054 12.625,-6.875 34.68563,17.05306 46.37998,32.875 68,32.875 7.61859,0 13.49935,-1.98263 17.9375,-5.59375 0.0287,-0.0234 0.0652,-0.039 0.0937,-0.0625 2.94417,-2.14582 5.47291,-4.86402 7.34375,-8.03125 2.224,-3.506 3.34375,-7.58075 3.34375,-12.34375 0,-8.123 -3.34425,-14.99975 -10.03125,-20.46875 -6.694,-5.464 -15.14475,-8.125 -25.34375,-8.125 -7.38961,-0.91264 -7.75498,-19.88502 0.5625,-18.43745 5.892,1.408 11.51475,1.64475 16.84375,0.84375 14.54584,-4.06331 24.69349,1.26336 29.34375,6.78125 -0.158,0.589 0.1695,0.88775 1.0625,0.84375 2.529,-0.52 4.67525,-1.257 6.40625,-2.375 1.732,-1.116 3.3665,-2.53325 4.9375,-4.28125 4.284,-4.766 6.68475,-9.904 7.21875,-15.5 0.53,-5.593 -0.13375,-11.1635 -2.09375,-16.8125 -1.896,-5.712 -4.827,-11.144 -8.625,-16.375 -3.799,-5.241 -7.85375,-9.85925 -12.21875,-13.78125 -5.439,-4.89 -11.56675,-9.16875 -18.21875,-12.71875 -0.781,-0.47 -1.65,-0.87425 -2.375,-1.28125 -7.617,-3.812 -15.22375,-6.5515 -22.84375,-7.9375 -7.692,-1.445 -14.9775,-1.41925 -21.9375,-0.0312 -9.09914,-2.13066 -11.87988,-8.72231 -4.5,-16.78125 2.236,-2.488 3.4525,-5.162 3.8125,-8 0.308,-2.76 -0.11375,-5.676 -1.09375,-8.5 -1.115,-2.82 -2.65725,-5.6725 -4.78125,-8.4375 -2.07,-2.705 -4.4495,-5.2105 -7.0625,-7.5625 C 253.171,77.42625 247.8575,73.878 241.8125,71 c -5.964,-2.812 -11.869,-4.717 -17.75,-5.875 -5.889,-1.16 -11.41075,-1.25675 -16.46875,-0.34375 -5.01,0.842 -8.9115,2.75375 -11.6875,5.84375 -2.776,3.088 -4.3755,6.638 -4.9375,10.625 -0.423,3.983 -0.16075,8.12675 1.15625,12.34375 -0.93057,3.784436 -9.9194,3.45223 -9.96875,-1.0625 0,-22.567 -22.735,-40.46875 -51.625,-40.46875 z"
   id="path3917"
   inkscape:connector-curvature="0"
   sodipodi:nodetypes="scccssccscccscccccscscccscccsccccccccccccccccccccccccccccs" /></svg>