<?xml version="1.0" encoding="UTF-8" standalone="no"?>
<!-- Generator: Adobe Illustrator 14.0.0, SVG Export Plug-In . SVG Version: 6.00 Build 43363)  -->

<svg
   xmlns:dc="http://purl.org/dc/elements/1.1/"
   xmlns:cc="http://creativecommons.org/ns#"
   xmlns:rdf="http://www.w3.org/1999/02/22-rdf-syntax-ns#"
   xmlns:svg="http://www.w3.org/2000/svg"
   xmlns="http://www.w3.org/2000/svg"
   xmlns:sodipodi="http://sodipodi.sourceforge.net/DTD/sodipodi-0.dtd"
   xmlns:inkscape="http://www.inkscape.org/namespaces/inkscape"
   version="1.1"
   id="Layer_1"
   x="0px"
   y="0px"
   width="2160"
   height="1620"
   viewBox="0 0 2160.0001 1620"
   enable-background="new 0 0 360 360"
   xml:space="preserve"
   inkscape:version="0.48.1 r9760"
   sodipodi:docname="slight_outset.svg"><metadata
   id="metadata3083"><rdf:RDF><cc:Work
       rdf:about=""><dc:format>image/svg+xml</dc:format><dc:type
         rdf:resource="http://purl.org/dc/dcmitype/StillImage" /><dc:title /></cc:Work></rdf:RDF></metadata><defs
   id="defs3081" /><sodipodi:namedview
   pagecolor="#ffffff"
   bordercolor="#666666"
   borderopacity="1"
   objecttolerance="10"
   gridtolerance="10"
   guidetolerance="10"
   inkscape:pageopacity="0"
   inkscape:pageshadow="2"
   inkscape:window-width="1680"
   inkscape:window-height="1002"
   id="namedview3079"
   showgrid="false"
   inkscape:zoom="1.0829524"
   inkscape:cx="456.44206"
   inkscape:cy="111.87629"
   inkscape:window-x="0"
   inkscape:window-y="0"
   inkscape:window-maximized="1"
   inkscape:current-layer="Layer_1"
   inkscape:document-units="mm"
   showguides="false"
   inkscape:guide-bbox="true"
   units="in"><sodipodi:guide
     orientation="1,0"
     position="35.433071,268.35979"
     id="guide4015" /><sodipodi:guide
     orientation="1,0"
     position="531.49606,238.97733"
     id="guide2993" /><sodipodi:guide
     orientation="1,0"
     position="992.12598,212.20665"
     id="guide2995" /><sodipodi:guide
     orientation="0,1"
     position="660.12591,35.433071"
     id="guide2997" /><sodipodi:guide
     orientation="0,1"
     position="689.50837,389.76378"
     id="guide2999" /><sodipodi:guide
     orientation="0,1"
     position="311.45406,17.716535"
     id="guide3007" /><sodipodi:guide
     orientation="0,1"
     position="386.54257,24.80315"
     id="guide3009" /><sodipodi:guide
     orientation="1,0"
     position="240.94488,446.61337"
     id="guide3011" /><sodipodi:guide
     orientation="1,0"
     position="311.81102,444.65454"
     id="guide3013" /><sodipodi:guide
     orientation="1,0"
     position="797.24409,431.59567"
     id="guide3015" /><sodipodi:guide
     orientation="1,0"
     position="726.37795,431.59567"
     id="guide3017" /><sodipodi:guide
     orientation="0,1"
     position="649.67881,203.74016"
     id="guide3019" /><sodipodi:guide
     orientation="0,1"
     position="690.16131,221.45669"
     id="guide3021" /><sodipodi:guide
     orientation="0,1"
     position="761.9851,217.91339"
     id="guide3023" /><sodipodi:guide
     orientation="0,1"
     position="778.96163,207.28346"
     id="guide3025" /></sodipodi:namedview>












<g
   id="g3003"
   transform="translate(11.178307,1082.8836)"
   style="stroke-width:0.36000001999999998;stroke-miterlimit:4;stroke-dasharray:none;stroke:#00ff00;stroke-opacity:1"><path
     inkscape:connector-curvature="0"
     style="fill:none;stroke:#00ff00;stroke-width:0.36000001999999998;stroke-miterlimit:4;stroke-opacity:1;stroke-dasharray:none"
     id="path3055"
     d="m 204.96727,164.49999 c -37.90297,0 -65.24269,27.71174 -65.24269,50.45843 -0.001,29.21152 21.42756,36.0582 21.42756,36.0582 l 0.57601,-2.38084 c 0,0 -19.43072,-6.49954 -19.43072,-33.67736 0,-21.63338 25.87527,-47.88559 62.66984,-47.88559 33.84294,0 60.865,20.71791 60.865,47.15598 0,33.46938 -35.90459,45.12078 -35.90459,45.12078 3.3301,-43.2668 26.84204,-48.64043 26.84204,-55.29695 0,-1.29641 -0.73729,-2.95685 -1.84323,-2.95685 0,0 -26.6485,5.91554 -53.64568,39.93666 -8.87823,11.28057 -14.40024,23.30914 -14.40024,23.30914 l -46.04237,0 c -28.28989,0 -48.999204,19.2234 -48.999204,39.7447 0,5.6669 1.773044,10.7988 5.222487,14.8611 -1.807413,0.353 -3.717575,0.7807 -5.875298,1.2672 -8.421105,1.713 -16.063446,4.8271 -22.925179,8.7937 -1.6549,0.9984 -3.242551,2.027 -4.761678,3.1489 -9.689052,-11.3537 -15.321854,-25.9707 -15.321854,-42.3175 0,-34.3898 22.582338,-64.5131 63.629856,-64.5131 3.51197,0 7.75846,1.30593 10.71377,2.41924 l 0,-2.22723 c -2.02755,-0.73976 -6.27282,-2.22724 -10.71377,-2.22724 -39.380008,0 -65.665089,26.60672 -65.665089,66.54833 0,16.9603 5.783403,31.9917 15.705859,43.6231 -4.057779,3.2301 -7.622298,6.9125 -10.636976,11.1746 -4.49994,6.3714 -6.643309,17.0514 -6.643309,25.9972 0,6.8875 1.555379,13.4246 4.87688,19.6227 3.353451,6.3776 8.06014,11.88 14.323437,16.7043 6.279272,4.6437 14.085967,8.4383 23.501189,11.3666 9.202635,2.9283 19.776019,4.3009 31.718929,4.3009 l 3.72486,0 c 0.7803,6.2043 3.34331,11.7054 7.64172,16.7042 3.73561,4.6499 8.59314,8.6261 14.28504,12.2498 0.38954,0.1684 0.99289,0.5106 1.38242,0.6913 6.25961,3.7859 13.32011,6.7305 21.15875,8.7937 7.63343,2.0644 15.28192,3.072 22.92518,3.072 10.41778,0 20.44599,-0.9024 29.9141,-2.6496 3.62054,10.0037 12.42606,19.8915 28.76207,19.8915 42.71134,0 62.66984,-54.3753 62.66984,-54.3753 l 2.80324,-6.2209 c 5.17207,-2.9227 10.3521,-5.7269 15.51386,-8.4481 42.62241,20.9551 56.99266,40.3975 83.55978,40.3975 9.36188,0 16.58828,-2.4363 22.04197,-6.8737 0.0353,-0.029 0.08,-0.048 0.1152,-0.077 3.61785,-2.6369 6.72522,-5.9771 9.02415,-9.869 2.73289,-4.3083 4.10887,-9.3154 4.10887,-15.1683 0,-9.9817 -4.10949,-18.432 -12.32661,-25.1524 -8.22572,-6.7143 -18.61017,-9.9841 -31.14291,-9.9841 -13.91025,0 -26.00153,2.9141 -39.13025,6.5281 -12.9149,3.6115 -25.40924,10.1476 -37.74782,15.6674 -0.47539,0.2155 -0.94983,0.4301 -1.42083,0.6528 -0.0798,-0.04 -0.15041,-0.075 -0.2304,-0.1152 l -1.65123,-0.7296 -4.26247,-2.4192 33.10135,-56.0265 -1.84323,-0.7297 -5.56809,7.757 c 0,0 -5.33431,-2.5729 -8.29454,-2.5729 -4.62405,0 -13.70811,14.2282 -26.65004,48.8072 0,0 -11.61727,-2.3925 -19.20032,-2.7648 -6.10601,0 -15.74426,0.5376 -15.74426,0.5376 0.55543,-14.4239 2.04629,-19.961 8.33294,-31.7957 14.42635,-26.6261 33.44695,-39.9367 33.44695,-39.9367 3.32396,0.5542 12.94869,0.9238 22.19557,-0.192 4.43781,-0.5168 8.59411,-1.1804 12.5186,-1.9584 0.24067,0.3886 0.47762,0.7686 0.72962,1.152 3.34485,5.2446 6.96833,9.6865 11.02098,13.325 1.88992,1.6982 3.83545,3.3347 5.8753,4.8769 4.1915,3.3117 8.78514,6.1803 13.55542,8.8321 7.19966,3.9421 14.42512,6.8728 21.65796,8.4482 7.24021,1.7302 14.14956,2.0211 20.69794,1.0368 6.62826,-1.0556 12.13153,-4.0305 16.51227,-8.9089 3.11383,-3.4616 4.96014,-7.3201 5.6065,-11.5202 0.56402,-4.1203 0.33792,-8.5308 -0.92162,-12.9411 -1.17967,-4.4962 -3.30737,-8.9135 -6.2209,-13.325 -3.06345,-4.3905 -6.6003,-8.4675 -10.63698,-12.0962 -3.47387,-3.1175 -7.39104,-6.1862 -11.63539,-9.2545 -0.80979,-0.5899 -1.65031,-1.1791 -2.45764,-1.6129 -3.50705,-2.3986 -7.22823,-4.4185 -11.09778,-6.1057 -4.73465,-2.0238 -9.51752,-3.1648 -14.32344,-3.456 -4.88948,-0.2187 -9.44625,0.8967 -13.86263,3.4944 -0.51856,-0.9117 -1.05464,-1.8555 -1.72803,-2.7648 -0.59352,-0.8233 -1.43311,-1.5637 -2.34244,-2.3808 -1.89607,-1.7044 -4.00841,-3.3191 -6.4513,-4.7617 -2.58544,-1.4316 -5.33155,-2.8494 -8.40974,-4.4161 5.60587,-5.4068 12.45624,-8.6945 20.39073,-10.061 8.02789,-1.2964 16.43793,-1.0291 25.49803,0.8449 8.97653,1.9464 17.87042,5.349 26.84204,10.1377 0.72992,0.3527 1.309,0.7189 2.03523,1.0752 8.18395,4.5147 15.76055,9.9811 22.84838,16.3587 4.95338,4.4447 9.72673,9.6309 14.36184,15.5907 4.49748,5.972 8.02082,12.1539 10.48337,18.7011 2.39743,6.4746 3.3937,12.855 3.03365,19.2387 -0.29369,6.3002 -2.97835,12.2498 -7.94893,17.7795 -3.33625,3.711 -7.44143,6.279 -12.4034,7.6417 -0.46204,0.025 -0.9121,0.3613 -1.11362,1.0752 -0.19416,0.7238 0.20828,1.0909 1.30562,1.0369 3.10768,-0.639 5.74504,-1.5447 7.87213,-2.9185 2.12832,-1.3714 4.13682,-3.1129 6.0673,-5.2609 5.26427,-5.8565 8.21436,-12.1702 8.87055,-19.0467 0.65127,-6.8728 -0.16436,-13.7179 -2.57285,-20.6595 -2.32984,-7.0191 -5.93151,-13.694 -10.59857,-20.122 -4.66829,-6.4402 -9.65085,-12.1152 -15.01465,-16.9347 -6.68355,-6.0089 -14.21346,-11.2667 -22.38757,-15.629 -0.95971,-0.5776 -2.02755,-1.0743 -2.91845,-1.5744 -9.35992,-4.6843 -18.70725,-8.0507 -28.07086,-9.7538 -9.45209,-1.7756 -18.40466,-1.744 -26.95725,-0.038 -8.46657,1.7916 -15.74334,5.6851 -21.77316,11.7506 -7.25987,-3.5415 -15.5114,-7.6399 -24.88361,-12.4802 -9.36607,-4.6892 -18.72753,-11.35923 -28.30127,-19.96834 -3.79214,-3.40629 -7.37845,-7.23161 -10.82898,-11.36659 -3.43824,-4.13744 -6.1017,-8.442 -7.91053,-12.90261 -1.89607,-4.53312 -2.52461,-9.1286 -2.22724,-13.78583 0.392,-4.57859 2.48929,-9.10403 6.41291,-13.47862 2.4515,-2.72922 6.4295,-4.65263 11.71219,-5.7217 5.28393,-1.0703 11.17551,-1.29886 17.5875,-0.46081 6.56067,0.82331 13.18493,2.59527 19.92993,5.37609 6.82241,2.69726 12.98801,6.42827 18.3555,11.25139 3.29447,2.96146 6.31583,6.27865 9.02415,9.90736 2.61984,3.54761 4.69778,7.03715 6.2977,10.56018 1.61099,3.53531 2.33691,6.90842 2.26564,10.13776 0.0209,3.29324 -1.11178,6.0289 -3.18725,8.33294 -2.97006,3.30061 -6.55392,5.29069 -10.67538,6.0673 -4.20625,0.6906 -8.4549,0.61288 -12.67221,-0.3456 -4.21854,-0.95603 -8.293,-2.53629 -12.0962,-4.60808 -3.8843,-2.15289 -7.07401,-4.45447 -9.63856,-6.75851 -2.63459,-2.36794 -5.1337,-4.89624 -7.48812,-7.91053 -2.35811,-2.85947 -3.60567,-5.44583 -3.72486,-7.64173 -0.3453,-0.76187 -0.67524,-1.2534 -1.15202,-1.38242 -0.32073,-0.13517 -0.60919,0.21689 -0.72962,0.84481 0.0922,3.21828 1.43066,6.36959 4.03207,9.60016 2.60633,3.09171 5.37333,6.00525 8.25614,8.60174 2.9676,2.66409 6.47342,5.07442 10.59857,7.29612 4.11655,2.20942 8.36827,3.92823 12.74901,5.03049 4.44588,1.01746 8.7105,1.13573 13.13302,0.192 4.36846,-0.85649 8.14739,-3.12735 11.40499,-6.75851 2.74764,-3.05731 4.2425,-6.34317 4.68488,-9.83056 0.37847,-3.39155 -0.13978,-6.97479 -1.34403,-10.44498 -1.37013,-3.46527 -3.26528,-6.97048 -5.87529,-10.36817 -2.54366,-3.32396 -5.46764,-6.40277 -8.67855,-9.29295 -5.78037,-5.19791 -12.3097,-9.55807 -19.73792,-13.09462 -7.32869,-3.45544 -14.58487,-5.79634 -21.81156,-7.21932 -7.23653,-1.42543 -14.02176,-1.54432 -20.23714,-0.4224 -6.15639,1.03466 -10.95063,3.38386 -14.36183,7.18091 -3.41121,3.7946 -5.37671,8.15691 -6.06731,13.05622 -0.51979,4.89439 -0.19753,9.98631 1.42083,15.16825 1.69454,5.25321 4.17676,10.47477 7.68013,15.70586 3.58446,5.31834 7.87182,10.1903 12.90261,14.70744 3.96049,3.5599 8.19992,6.80675 12.74901,9.71536 4.47905,2.9811 9.17775,5.5275 13.93943,8.0257 4.68795,2.4245 9.47113,4.6047 14.05463,6.4897 4.49994,1.9539 8.66196,3.6128 12.44181,5.2225 -4.66829,5.5138 -7.48198,11.3273 -8.40974,17.5107 -0.3393,2.2791 -0.53829,4.532 -0.57601,6.7585 -25.024,7.9111 -45.42795,24.0004 -45.42795,24.0004 0,0 -2.02252,-0.4053 -4.49288,-0.8448 -0.27902,-0.089 -0.56748,-0.177 -0.84481,-0.2688 -2.78205,-0.9302 -5.48791,-2.0131 -7.98733,-3.4176 -1.8666,-1.0575 -3.65895,-2.2967 -4.95368,-3.8017 3.47098,-2.5767 6.39049,-6.0703 7.98733,-10.1762 5.21135,0.019 10.59448,1.9531 14.74584,5.6833 l 0.42241,-0.384 c -3.27284,-4.4237 -8.52926,-7.456 -14.24664,-8.2945 1.36097,-5.5693 0.61593,-11.4558 -1.11361,-16.7427 -1.83917,-5.5445 -4.73684,-10.6317 -8.40974,-15.1299 0.0243,-0.01 0.0525,0.01 0.0768,0 5.78405,-1.4168 11.47288,-3.1912 16.97308,-5.5296 l -0.69121,-1.5361 c -5.31588,2.4061 -10.90978,4.3135 -16.62748,5.5681 -0.28145,0.063 -0.56268,0.1318 -0.84481,0.192 -3.80943,-4.3292 -8.3875,-8.1116 -13.90103,-10.3681 -2.8865,-1.1613 -6.0885,-1.8608 -9.33136,-1.5745 -1.62573,0.1438 -3.20599,0.5069 -4.76168,1.152 -1.68594,0.6661 -3.37556,2.4251 -3.53285,4.5313 -0.18801,2.0571 0.71148,3.8118 1.84323,5.0689 1.13051,1.2927 2.58359,2.2113 4.07046,2.8417 0.75573,0.3035 1.49425,0.5277 2.30404,0.6912 0.7164,0.1499 1.45923,0.3056 2.22724,0.4224 1.50653,0.2322 2.9888,0.3932 4.49287,0.4608 4.93815,0.2217 9.83151,-0.322 14.63065,-1.2672 0.14987,0.1693 0.3135,0.328 0.4608,0.4992 3.72579,4.3524 6.68294,9.4109 8.52494,14.8226 1.72318,5.0554 2.32835,10.552 1.15202,15.6675 -3.076,-0.039 -6.44339,0.4656 -9.29295,2.8416 -1.49793,1.251 -2.28745,3.3673 -2.22724,5.2609 0.0701,1.6799 0.33079,3.0731 0.99842,4.5313 -3.99121,1.8072 -9.50244,3.7182 -17.12668,6.0673 -12.74533,4.0268 -21.23709,10.3758 -21.88837,17.7795 0,0 -4.264,1.4927 -8.29453,4.1088 -1.41315,-13.2896 8.27825,-23.5012 17.31868,-23.5012 1.52743,0 3.39063,0.097 5.56809,0.4225 l -0.3456,-1.1905 c -5.12418,-3.5906 -5.9905,-6.2123 -5.9905,-10.6753 0,-9.1511 7.73942,-16.7811 16.78108,-16.7811 5.55058,0 9.60016,3.1774 9.60016,7.6417 0,3.9224 -3.48217,7.2961 -7.18092,7.2961 -2.83243,0 -4.57644,-1.0915 -6.64331,-4.032 l -1.76643,0.2304 c 2.17747,4.0268 4.38074,5.5297 8.29454,5.5297 4.79362,0 9.02414,-4.3399 9.02414,-9.0242 0,-6.5336 -7.52437,-11.8658 -16.78107,-11.8658 -11.76473,0 -20.35234,7.6202 -20.35234,17.8563 0,4.1387 0.74805,5.9979 3.80166,10.1378 -14.27029,0 -24.07719,11.2139 -24.07719,25.1524 0,1.7834 0.1949,3.7653 0.72961,6.5665 -4.83215,1.1977 -9.66048,2.1158 -14.51544,2.2272 -5.82584,0.2151 -11.60744,-0.8764 -16.89628,-3.264 -1.29641,-0.564 -2.70064,-1.2654 -3.95527,-1.9584 -1.04458,-0.6115 -2.10097,-1.4734 -2.99525,-2.4193 8.28928,-4.4726 16.20737,-9.9565 23.19399,-16.7427 7.54495,-7.2856 13.88321,-16.2235 18.1251,-26.1892 2.8878,-6.6711 4.79238,-13.7319 6.0289,-20.8131 0.13862,-0.4528 0.33362,-0.942 0.4224,-1.3057 0.5628,-2.4048 1.84323,-13.133 1.84323,-13.133 0,0 38.82305,-12.40308 38.82305,-48.46158 0,-27.73079 -27.93723,-49.72882 -63.43785,-49.72882 z m 37.93982,44.19913 c 3.32519,0 -27.20362,25.14473 -31.64212,53.99127 -5.91923,1.1047 -17.74263,1.6512 -20.69794,1.6512 0.92653,-2.5915 6.47342,-15.14179 19.04671,-29.37644 11.28057,-12.94685 28.6693,-26.26603 33.29335,-26.26603 z m 15.12985,51.26487 c 2.33948,-0.056 4.72989,0.4537 6.98892,1.344 4.43898,1.7682 8.40054,4.7915 11.78899,8.3329 -4.4118,0.7669 -8.89207,1.1278 -13.32502,0.8832 -1.44509,-0.077 -2.89141,-0.2285 -4.30087,-0.4608 -0.68936,-0.1118 -1.38949,-0.2961 -2.11203,-0.4608 -0.6267,-0.1695 -1.30409,-0.3966 -1.88163,-0.7296 -2.32862,-1.2583 -3.87048,-3.9159 -3.64806,-5.7985 0.0762,-0.9044 0.67585,-1.6103 1.68962,-2.0736 1.16738,-0.5014 2.48683,-0.8371 3.80167,-0.96 0.33163,-0.032 0.6642,-0.069 0.99841,-0.077 z m -46.96397,5.4913 c 0,0.2101 -0.0323,0.4365 -0.0384,0.6528 0.13433,0.01 0.2603,0.084 0.384,0.1152 0.40306,9.3501 -0.19691,18.4731 -2.64964,27.226 -2.41463,8.7419 -6.694,17.0499 -12.51861,24.4228 -5.39564,6.8624 -12.04457,12.9065 -19.35392,18.2019 -0.33403,-0.8362 -0.57912,-1.6914 -0.76801,-2.5728 -0.5886,-2.7243 -0.32226,-5.6418 0.88321,-8.1793 1.16247,-2.5818 3.40384,-4.6358 5.9905,-6.0673 l -0.384,-0.8449 c -2.92214,1.09 -5.64735,3.1569 -7.33452,5.9905 -1.6884,2.8263 -2.27947,6.2535 -1.84323,9.5234 0.16252,1.3275 0.5232,2.6242 0.99841,3.8785 -6.35267,4.3829 -13.12235,8.2381 -20.16033,11.6738 -10.84345,3.9868 -22.9539,7.1425 -34.17657,7.1425 -22.002984,0 -40.931684,-8.0948 -53.837687,-21.3892 1.102943,-0.8202 2.212609,-1.6293 3.456057,-2.496 5.680837,-3.9605 13.633455,-6.1484 21.465955,-8.2178 3.553273,-0.9341 6.486924,-1.676 9.446555,-2.1888 4.82395,3.6264 11.60281,5.7985 20.23714,5.7985 4.93872,0 9.66862,-1.067 14.20823,-2.88 0.80296,0.2021 1.60751,0.4134 2.34244,0.6528 10.76692,3.1077 19.37389,7.8954 25.84363,14.7842 0.96831,0.5161 1.56889,0.5161 1.95843,0 0.60335,-0.5222 0.388,-1.2085 -0.192,-2.0736 -5.86639,-6.0262 -14.30347,-10.9937 -24.88362,-15.1299 -0.22553,-0.076 -0.46579,-0.1545 -0.69121,-0.2304 23.65476,-12.318 41.06591,-44.5726 49.07602,-56.1417 5.91308,0 16.99796,-0.5392 22.54117,-1.6512 z m -63.59145,2.0352 37.17181,0 c -8.83926,13.4032 -26.70536,44.1215 -48.96081,54.5289 -1.12529,-0.3713 -2.19255,-0.7408 -3.37926,-1.1136 -8.80081,-2.2389 -12.3223,-2.9989 -19.92992,-3.4561 -3.19548,0 -5.89525,0.162 -8.56335,0.4608 -2.12212,-3.321 -3.30245,-7.8574 -3.30245,-13.8242 0,-19.043 21.45244,-36.5958 46.96398,-36.5958 z m 208.93785,8.8321 c 3.22565,1.4046 6.13212,2.6841 8.79375,4.0321 2.59158,1.2804 4.45508,2.4945 5.60649,3.5329 2.48099,2.2327 3.8972,4.138 4.22407,5.7601 -1.21776,0.6967 -1.8162,1.4835 -1.68963,2.3424 0.0418,0.7803 0.23747,1.4325 0.65281,1.8048 0.50136,0.4485 1.03682,0.4655 1.65123,0.1152 0.68445,-0.2789 1.29272,-1.0767 1.53602,-2.3424 2.76239,-2.7464 6.45469,-4.0413 10.86738,-3.8017 4.49134,0.3134 9.27299,1.317 14.01624,3.1873 4.17921,1.6663 8.26781,3.5688 12.3266,6.0289 0.73606,0.3563 1.46568,0.8645 2.11203,1.3056 4.79978,2.9615 8.73047,5.8639 11.9426,8.7553 2.89019,2.599 5.89342,5.7448 8.75535,9.5234 2.88404,3.77 5.04799,7.8159 6.60491,12.0578 1.5692,4.2296 2.20726,8.5277 1.88163,12.7106 -0.24945,4.2542 -2.00697,8.1889 -5.41449,11.981 -3.78231,4.2124 -8.75443,6.6169 -14.93785,7.1809 -6.17605,0.5702 -12.65009,0.1334 -19.58432,-1.6128 -6.76835,-1.7695 -13.51672,-4.4158 -20.23714,-8.0641 -4.5282,-2.4355 -8.6724,-5.1168 -12.365,-7.9874 -1.78425,-1.3234 -3.42657,-2.6213 -4.99208,-4.032 -3.8757,-3.4886 -7.49028,-7.7782 -10.98259,-12.7106 -0.13447,-0.1902 -0.25248,-0.385 -0.384,-0.576 20.45361,-4.6521 32.67894,-12.5071 32.67894,-19.0468 0,-6.1035 -8.12312,-11.0977 -18.66271,-11.0977 -7.75061,0 -15.5615,1.3669 -23.00198,3.5328 -1.5e-4,-1.9064 0.13104,-3.8349 0.38401,-5.7985 0.79258,-6.0101 3.47203,-11.4996 8.21773,-16.7811 z m 18.81631,22.9252 c 6.65775,0 11.6738,3.335 11.6738,7.2193 0,5.9275 -15.54198,12.9379 -31.60373,16.7427 -2.50173,-4.0586 -4.41957,-8.3007 -5.79849,-12.7874 -0.34195,-1.114 -0.60759,-2.2525 -0.84482,-3.3793 11.36623,-5.8739 19.86297,-7.7953 26.57324,-7.7953 z m -88.16786,6.0673 c -1.39049,3.2601 -3.64419,6.0905 -6.4897,8.333 -0.49715,-0.902 -0.85631,-2.3044 -0.53761,-3.3025 0.27525,-1.1145 0.91485,-1.8558 1.61282,-2.6496 1.19851,-1.2923 3.25712,-2.053 5.41449,-2.3809 z m 59.06018,3.0721 c 0.15196,0.8527 0.29552,1.7237 0.49921,2.5728 1.09724,4.591 2.8075,8.9425 5.06888,13.0562 -3.76438,0.7731 -7.51383,1.3591 -11.02098,1.6897 -7.21809,0.7385 -20.88994,0.5376 -20.88994,0.5376 10.17729,-7.9731 18.848,-13.7466 26.34283,-17.8563 z m -66.7787,8.8705 c 1.67192,1.9587 3.79781,3.3106 5.87529,4.4929 2.75379,1.5201 5.64735,2.6536 8.56335,3.6097 1.09212,0.3369 2.16736,0.6199 3.26405,0.9216 -27.25455,29.138 -33.10135,40.6056 -33.10135,60.4426 0,3.8843 1.1213,8.4939 3.14885,15.7058 0,0 -15.90585,4.269 -27.18765,13.5171 -16.5148,13.1013 -20.31009,25.4154 -21.19715,28.4932 -6.07883,-5.6399 -11.67824,-11.7853 -15.59065,-18.8931 -2.06442,-3.711 -3.65574,-7.6488 -4.45448,-11.7506 -0.81593,-4.1042 -0.76709,-8.3114 -0.0384,-12.4034 0.55873,-2.8679 1.48442,-5.6994 2.72645,-8.4097 3.83598,1.9458 7.91332,3.4436 12.0194,4.6081 4.30947,1.2054 8.68991,2.0591 13.17141,2.4192 2.2512,0.1561 4.49595,0.2709 6.87372,-0.077 1.32712,-0.2003 2.31294,-0.7143 3.41765,-1.1136 1.09488,-0.4141 2.18485,-0.882 3.22566,-1.4977 2.10251,-1.1649 4.10426,-2.8766 5.37609,-5.2224 1.2878,-2.3274 1.54831,-5.2271 0.92161,-7.7954 -0.63653,-2.6223 -1.91604,-4.8302 -3.72486,-6.7201 -1.84692,-1.8113 -4.06893,-3.0425 -6.33611,-3.84 -4.56629,-1.6012 -9.33073,-1.6036 -13.86262,-0.9217 -4.49503,0.6857 -9.04566,2.3735 -12.63381,5.2993 -3.98096,3.1779 -7.57735,7.0057 -10.29137,11.405 -2.95686,-1.7222 -5.73432,-3.7199 -8.21774,-6.0673 -6.31859,-5.8442 -10.1436,-14.093 -10.56017,-22.6948 l -1.99684,0.1152 c 0.25191,4.5123 1.28873,8.9993 3.18726,13.1331 1.89607,4.1276 4.63326,7.8687 7.91053,10.9825 2.62427,2.4893 5.55449,4.6056 8.64014,6.413 -1.56134,2.8809 -2.75221,5.9719 -3.45606,9.2545 -2.05213,9.1867 0.42855,18.8618 5.03049,26.65 4.66337,7.8608 11.10454,14.3229 18.08669,19.7764 l 0.11521,-0.1536 c 0.003,0.011 0.0384,0.038 0.0384,0.038 -0.51945,3.1726 -0.32113,7.2916 0.80641,11.5586 -8.08123,1.6455 -19.75871,2.5344 -28.99248,2.5344 -8.21712,0 -15.87636,-1.0623 -23.50119,-3.3025 -7.43436,-2.0619 -14.12682,-4.792 -20.00673,-8.4097 -0.57754,-0.3477 -1.36245,-0.8811 -1.95843,-1.2288 -4.89931,-3.2638 -9.18851,-6.8811 -12.51861,-11.021 -3.93468,-4.6437 -6.30231,-9.4782 -6.87371,-14.477 7.25987,-0.3416 13.70042,-1.5278 19.39232,-3.4177 4.31685,-1.3824 8.04263,-3.1 11.36659,-5.3377 8.03771,-5.1721 11.94259,-11.2163 11.94259,-17.9331 0,-2.9258 -0.95018,-5.6728 -3.11045,-7.9105 -2.15289,-2.3999 -5.67868,-3.6097 -10.79058,-3.6097 -3.32764,0 -6.66051,0.5211 -9.40815,1.3825 -1.75722,0.5185 -3.49723,1.2011 -5.06889,2.2272 -4.11163,2.2377 -7.44173,5.3506 -9.98416,8.7937 -2.56455,3.6115 -4.31777,7.4061 -5.49129,11.3666 -1.36399,3.9605 -1.95843,7.5766 -1.95843,11.021 l 0,0.6912 -3.14885,0 c -6.86051,0 -14.2789,-0.7124 -22.118771,-2.2656 -8.038942,-1.7154 -16.651129,-4.8729 -23.117182,-8.8322 -7.896399,-4.0465 -12.751468,-7.7984 -17.049882,-14.1698 -4.316846,-6.5398 -8.1821,-13.1788 -8.371338,-23.77 -0.194154,-10.5961 1.423588,-16.8121 5.913698,-23.4244 4.046308,-5.3339 7.068157,-8.349 10.32977,-10.9442 13.255651,13.707 32.750908,21.9652 55.527315,21.9652 12.74898,0 25.7691,-3.4526 37.05662,-7.7185 6.75758,-2.3378 13.43077,-5.05 19.89153,-8.333 0.12986,0.1637 0.24807,0.3403 0.384,0.4993 1.09611,1.2828 2.31233,2.375 3.80166,3.3408 1.37383,0.8344 2.68498,1.5839 4.14727,2.304 5.71648,2.8202 12.21909,4.0797 18.54751,3.8401 5.05871,-0.2158 9.98742,-1.2439 14.70744,-2.7264 0.0711,0.2304 0.15375,0.4619 0.23041,0.6912 0.28508,-0.066 0.50535,-0.1146 0.80641,-0.192 3.5943,8.8266 14.18212,14.477 25.07561,14.477 14.15724,0 25.03722,-9.5829 25.03722,-21.8884 0,-7.0804 -4.79639,-14.2749 -13.40182,-14.7074 2.18238,-1.3075 11.98745,-5.31 19.39232,-8.7937 1.26562,-0.6071 2.4576,-1.2946 3.57126,-1.9969 z m -166.96596,4.1473 c 5.0841,0.3188 10.00955,1.0012 17.85629,2.688 -3.05609,0.9185 -6.18209,1.4593 -9.36975,1.4593 -5.5527,0 -10.26162,-1.2176 -13.74743,-3.9937 1.63004,-0.1073 3.34841,-0.1536 5.26089,-0.1536 z m 142.27435,8.8321 c 7.19105,0 12.82581,5.4416 12.82581,12.6339 0,9.9079 -8.246,18.2787 -18.0483,18.2787 -9.03674,0 -17.42375,-8.0325 -18.62431,-16.0899 3.26867,-2.3938 7.94894,-4.5697 7.94894,-4.5697 0.33178,7.6261 6.64453,11.405 12.6338,11.405 5.33431,0 9.36976,-3.3624 9.36976,-7.7185 0,-4.6855 -4.47598,-8.8322 -9.60016,-8.8322 -1.63187,0 -2.84165,0.3518 -6.2209,1.1136 3.37925,-4.7874 5.47101,-6.2209 9.71536,-6.2209 z m -3.80166,6.7586 c 4.13743,0 7.37292,2.9454 7.37292,6.7585 0,3.4861 -3.01768,6.4129 -6.72011,6.4129 -4.57859,0 -7.98734,-3.0693 -7.98734,-7.6418 0.001,-1.2005 0.14347,-2.386 0.57601,-3.8016 2.28561,-0.87 4.35863,-1.728 6.75852,-1.728 z m -24.92202,38.2854 c 3.15493,0.061 6.26623,0.7227 9.02415,1.8816 3.67663,1.5594 6.43994,4.5424 7.18092,8.0642 0.35513,1.7252 0.0544,3.4308 -0.57601,5.0688 -0.61564,1.6503 -1.70038,3.2788 -3.18725,4.6465 -0.75818,0.6599 -1.5904,1.2626 -2.49604,1.7664 -0.90564,0.4682 -1.98516,0.9054 -2.84165,1.0369 -1.99069,0.2998 -4.1657,0.2267 -6.2977,0.077 -4.30579,-0.3293 -8.6082,-1.1464 -12.78741,-2.304 -4.01031,-1.1212 -7.95695,-2.578 -11.6738,-4.4545 2.22465,-4.2126 5.27256,-8.0412 8.98575,-11.0977 4.05357,-3.2733 9.41084,-4.7872 14.66904,-4.6849 z m -70.88757,13.4402 c 3.32765,0 5.67961,0.8709 7.06572,2.4192 1.56552,1.541 2.34244,3.4208 2.34244,5.4913 0,5.8505 -3.73777,11.0115 -11.17459,15.6675 -2.73412,1.5483 -5.49805,2.9267 -8.64014,3.9553 -5.6919,2.0705 -12.33705,3.3027 -19.77633,3.648 l 0,-0.3456 c 0,-3.4444 0.77815,-6.9041 2.34244,-10.5218 1.35416,-3.4505 3.55221,-6.6967 6.1057,-9.7921 2.5498,-3.1016 5.66271,-5.5451 9.40815,-7.6033 0.58001,-0.3441 1.13482,-0.4971 1.92004,-0.8449 3.14209,-1.3775 6.67956,-2.0736 10.40657,-2.0736 z m 250.10334,0.8832 c 6.25838,0 11.92416,0.8341 17.01148,2.7265 5.10329,1.8899 9.41891,4.1313 12.74901,7.0657 3.52794,2.9221 6.06331,6.2129 8.02573,9.8305 1.96243,3.786 2.95685,7.3837 2.95685,11.1746 0,7.9198 -3.53071,14.9969 -10.79058,21.5428 -4.59453,4.9464 -10.00436,7.4392 -16.55067,8.6401 -1.64414,0.1961 -3.38314,0.3072 -5.22249,0.3072 -22.96263,0 -34.87671,-15.8067 -81.25574,-39.7446 1.4379,-0.7502 2.8697,-1.5335 4.30087,-2.2657 10.79396,-5.5137 21.75749,-10.1731 33.33175,-13.7858 11.34078,-3.6139 23.1052,-5.4913 35.44379,-5.4913 z m -115.20191,12.2498 c 0.80629,-0.013 1.54938,0.016 2.26564,0.038 6.47097,0.3724 16.47387,2.7649 16.47387,2.7649 0,0 -11.84767,9.2545 -20.35233,9.2545 -9.61184,0 -11.25139,-11.0978 -11.25139,-11.0978 0,0 7.22014,-0.8694 12.86421,-0.96 z m -22.11876,2.2273 c 7.21194,8.6877 12.55823,11.8658 20.69794,11.8658 6.83593,0 12.57114,-3.5197 22.92518,-10.1762 -0.56655,3.1235 -1.54451,8.132 -2.68805,12.9794 -5.26386,3.2937 -10.50722,6.6245 -15.93626,9.6002 -11.95274,6.3726 -24.01361,11.7518 -35.17498,17.4339 -7.00535,3.0809 -12.96525,5.5743 -19.12352,7.6417 -10.29368,-2.7258 -18.0483,-7.1809 -18.0483,-7.1809 0,0 2.78912,-14.7926 20.54434,-29.0309 12.20342,-9.7986 26.80365,-13.133 26.80365,-13.133 z m 51.95606,3.3408 4.37767,2.3425 c -2.43147,1.2355 -4.7933,2.5843 -7.14252,3.9552 l 2.76485,-6.2977 z m -12.63381,17.4339 c -0.62007,2.2074 -1.221,4.1298 -1.80483,5.4913 -1.84815,2.406 -25.6716,25.1524 -52.10967,25.1524 -2.79991,0 -5.59995,-0.2559 -8.29453,-0.6912 8.53635,-2.8846 16.72056,-6.226 24.65321,-9.9458 11.95519,-5.5137 23.31963,-11.5469 34.29176,-18.0867 1.0856,-0.6432 2.1743,-1.284 3.26406,-1.92 z m -1.61283,8.2561 c -10e-4,2.5916 -19.22059,46.6184 -56.75614,46.6184 -14.47414,0 -23.20831,-9.1724 -26.84204,-18.5859 3.58003,-0.7095 7.04428,-1.5457 10.44497,-2.496 2.89972,-0.7996 5.77571,-1.6742 8.60174,-2.5729 3.88729,0.754 8.04552,1.2672 12.2498,1.2672 26.25498,0 52.30167,-24.2308 52.30167,-24.2308 z m -85.40301,15.5523 c 0.87621,0.8733 6.67253,3.7446 14.59224,5.9521 -3.96526,1.2031 -8.11683,2.2941 -12.78741,3.2641 -0.30844,0.08 -0.67384,0.1535 -0.99842,0.2303 -0.92123,-3.3855 -1.17157,-6.6702 -0.80641,-9.4465 z" /><path
     transform="translate(0,3.4570314e-5)"
     d="m 204.96875,144.46875 c -23.83779,0 -44.6828,8.68807 -59.78125,21.4375 -12.22889,10.32632 -21.27133,23.40906 -24.3125,38.3125 -2.61483,-0.53841 -5.56192,-0.96875 -9.0625,-0.96875 -24.206223,0 -46.362792,8.52672 -61.875,24.25 -15.512208,15.72328 -23.8125,37.97787 -23.8125,62.34375 0,14.92365 3.668274,29.05275 10.21875,41.40625 -0.477335,0.62905 -1.041067,1.16367 -1.5,1.8125 -8.849557,12.52996 -10.3125,25.396 -10.3125,37.5625 0,9.84299 2.349058,19.90086 7.15625,28.9375 0.0282,0.0536 0.0654,0.10269 0.09375,0.15625 4.744977,8.96324 11.577125,16.80578 19.78125,23.125 a 20.044391,20.044391 0 0 0 0.3125,0.25 c 8.425857,6.23116 18.279715,10.89066 29.34375,14.34375 0.04144,0.0129 0.08352,0.0183 0.125,0.0312 8.569847,2.71415 17.598494,4.22462 27.09375,4.84375 1.79237,3.41094 3.87309,6.65223 6.3125,9.5625 l -0.0312,0.0312 c 0.12685,0.1579 0.27826,0.2813 0.40625,0.4375 0.0145,0.0177 0.0168,0.0449 0.0312,0.0625 5.46326,6.65266 11.95451,11.78735 18.71875,16.09375 a 20.044391,20.044391 0 0 0 2.75,1.46875 20.044391,20.044391 0 0 0 0.0625,0.0312 c 7.74298,4.54647 16.22822,8.01235 25.28125,10.40625 0.0419,0.0113 0.0831,0.02 0.125,0.0312 9.27,2.49524 18.65413,3.71875 28,3.71875 6.77697,0 13.39829,-0.41556 19.9375,-1.09375 8.6605,10.19597 22.02401,18.34375 38.75,18.34375 29.86086,0 50.97449,-18.84992 63.3125,-35.09375 11.51608,-15.16169 16.83474,-29.11891 17.5625,-31.0625 l 0.0312,0 0.0312,-0.0625 c 0.0736,-0.0403 0.14507,-0.0847 0.21875,-0.125 14.94225,8.04295 26.15838,15.69659 37.1875,22.4375 13.18626,8.05934 28.04384,15.28125 46.21875,15.28125 12.52173,0 24.64333,-3.62158 33.9375,-10.875 l 0.0312,0.0625 c 0.20949,-0.15269 0.3864,-0.34424 0.59375,-0.5 0.0365,-0.0274 0.0886,-0.035 0.125,-0.0625 a 20.044391,20.044391 0 0 0 0.0625,-0.0312 c -1.54037,1.26546 -1.47587,1.21965 0.15625,-0.125 l -0.0312,-0.0312 c 5.19357,-3.96217 9.70502,-8.8588 13.1875,-14.59375 l 0.0312,0.0312 c 0.0872,-0.13752 0.1331,-0.29895 0.21875,-0.4375 0.027,-0.0437 0.0669,-0.0812 0.0937,-0.125 4.60985,-7.51836 6.90625,-16.52704 6.90625,-25.34375 a 20.044391,20.044391 0 0 0 -0.0312,-1.4375 c -1.24336,-17.28699 4.78624,-26.61196 13.28125,-31.59375 a 20.044391,20.044391 0 0 0 0.71875,-0.4375 c 3.76723,-2.42744 7.16324,-5.39202 10.125,-8.6875 7.5714,-8.42318 12.82011,-19.18038 13.90625,-30.5625 0.91321,-9.63708 -0.31985,-19.5108 -3.53125,-28.875 l 0.0312,0 c -0.0282,-0.0848 -0.0653,-0.16529 -0.0937,-0.25 -3.07308,-9.15859 -7.70325,-17.58309 -13.3125,-25.3125 -0.005,-0.007 0.005,-0.0246 0,-0.0312 l -0.0312,0 c -5.34162,-7.36477 -11.18351,-14.13428 -17.78125,-20.0625 -7.69213,-6.91567 -16.29454,-12.8747 -25.5,-17.875 l 0.0312,-0.0312 c -0.47339,-0.28491 -0.33204,-0.1562 -0.71875,-0.375 -0.10701,-0.0606 -0.0876,-0.0694 -0.1875,-0.125 -1.27591,-0.70967 -2.66414,-1.41835 -2.53125,-1.34375 a 20.044391,20.044391 0 0 0 -0.84375,-0.46875 c -10.41856,-5.21411 -21.23609,-9.1851 -32.53125,-11.34375 -8.10353,-1.86485 -10.74413,-4.39275 -11.59375,-5.46875 -0.84962,-1.076 -0.97962,-1.52149 -0.78125,-3.4375 l -0.0312,0 c 0.74033,-6.87804 -0.30912,-13.28952 -2.3125,-19.0625 a 20.044391,20.044391 0 0 0 -0.3125,-0.8125 c -1.98795,-5.02784 -4.78236,-10.2214 -8.59375,-15.1875 -0.005,-0.006 0.005,-0.0248 0,-0.0312 l -0.0312,0 c -3.43903,-4.48857 -7.22594,-8.43103 -11.15625,-11.96875 -7.20101,-6.4754 -15.40379,-11.95058 -24.5,-16.28125 a 20.044391,20.044391 0 0 0 -0.0625,-0.0312 c -8.78762,-4.14332 -17.68173,-7.01363 -26.5,-8.75 -9.25247,-1.82252 -18.50995,-2.10699 -27.4375,-0.53125 -0.0826,0.0146 -0.16743,0.0163 -0.25,0.0312 l 0,0.0312 c -7.97938,1.38188 -16.04148,4.85401 -22.5,10.5625 -1.88814,-1.86745 -5.47553,-5.13657 -12.90625,-9 -15.15365,-11.27245 -34.60162,-17.53125 -55.71875,-17.53125 z"
     id="path4021"
     style="fill:none;stroke:#00ff00;stroke-width:0.36000001999999998;stroke-miterlimit:4;stroke-opacity:1;stroke-dasharray:none"
     inkscape:original="M 204.96875 164.5 C 167.06578 164.5 139.71875 192.22206 139.71875 214.96875 C 138.67041 222.493 136.03365 228.36262 122.53125 225.53125 C 120.5037 224.79149 116.25345 223.28125 111.8125 223.28125 C 72.432492 223.28125 46.15625 249.90214 46.15625 289.84375 C 46.15625 306.80405 51.921294 321.83735 61.84375 333.46875 C 57.785971 336.69885 54.233428 340.3629 51.21875 344.625 C 46.71881 350.9964 44.5625 361.6792 44.5625 370.625 C 44.5625 377.5125 46.115999 384.0519 49.4375 390.25 C 52.790951 396.6276 57.517953 402.14445 63.78125 406.96875 C 70.060522 411.61245 77.866028 415.41545 87.28125 418.34375 C 96.483885 421.27205 107.05709 422.625 119 422.625 L 122.71875 422.625 C 123.49905 428.8293 126.04534 434.34495 130.34375 439.34375 C 134.07936 443.99365 138.9331 447.97005 144.625 451.59375 C 145.01454 451.76215 145.64172 452.10055 146.03125 452.28125 C 152.29086 456.06715 159.34886 458.9993 167.1875 461.0625 C 174.82093 463.1269 182.45049 464.125 190.09375 464.125 C 200.51153 464.125 210.56314 463.2472 220.03125 461.5 C 223.65179 471.5037 232.44524 481.375 248.78125 481.375 C 291.49259 481.375 311.4375 427 311.4375 427 L 314.25 420.78125 C 319.42207 417.85855 324.61949 415.06495 329.78125 412.34375 C 372.40366 433.29885 386.77663 452.75 413.34375 452.75 C 422.70563 452.75 429.92131 450.3124 435.375 445.875 C 435.4103 445.846 435.4648 445.81025 435.5 445.78125 C 439.11785 443.14435 442.20107 439.79815 444.5 435.90625 C 447.23289 431.59795 448.625 426.6029 448.625 420.75 C 446.94365 397.37336 456.39227 379.46217 471.78125 370.4375 C 473.90957 369.0661 475.91327 367.3355 477.84375 365.1875 C 483.10802 359.331 486.06256 353.0015 486.71875 346.125 C 487.37002 339.2522 486.53349 332.41035 484.125 325.46875 C 481.79516 318.44965 478.19831 311.77175 473.53125 305.34375 C 468.86296 298.90355 463.89505 293.22575 458.53125 288.40625 C 451.8477 282.39735 444.29911 277.14355 436.125 272.78125 C 435.16529 272.20365 434.10965 271.71885 433.21875 271.21875 C 423.85883 266.53445 414.51986 263.17185 405.15625 261.46875 C 382.62736 256.28421 376.07138 243.25843 377.34375 230.96875 C 377.72222 227.5772 377.20425 224.00144 376 220.53125 C 374.62987 217.06598 372.73501 213.55394 370.125 210.15625 C 367.58134 206.83229 364.64841 203.76518 361.4375 200.875 C 355.65713 195.67709 349.14697 191.3178 341.71875 187.78125 C 334.39006 184.32581 327.13294 181.98548 319.90625 180.5625 C 312.66972 179.13707 305.87163 179.00308 299.65625 180.125 C 293.49986 181.15966 288.7237 183.51545 285.3125 187.3125 C 268.03427 200.57797 261.33693 184.29092 250 178.96875 C 238.57811 170.0029 222.71906 164.5 204.96875 164.5 z "
     inkscape:radius="20.042387"
     sodipodi:type="inkscape:offset" /></g><path
   sodipodi:type="arc"
   style="fill:none;stroke:#00ff00;stroke-width:0.36000002;stroke-miterlimit:4;stroke-opacity:1;stroke-dasharray:none"
   id="path3001"
   sodipodi:cx="761.81104"
   sodipodi:cy="318.89761"
   sodipodi:rx="230.31496"
   sodipodi:ry="177.16536"
   d="m 992.12599,318.89761 a 230.31496,177.16536 0 1 1 -460.62991,0 230.31496,177.16536 0 1 1 460.62991,0 z"
   transform="translate(0,1088.5036)" /><rect
   style="fill:none;stroke:#00ff00;stroke-width:0.60165632;stroke-miterlimit:4;stroke-opacity:1;stroke-dasharray:none"
   id="rect3027"
   width="70.714493"
   height="31.738108"
   x="726.4538"
   y="1391.5319" /><path
   inkscape:connector-curvature="0"
   style="fill:#000000;stroke:#000000;stroke-width:0.36000000999999998;stroke-miterlimit:4;stroke-opacity:1;stroke-dasharray:none;fill-opacity:1"
   id="path3826"
   d="m 216.14558,1247.3836 c -37.90297,0 -65.24269,27.7117 -65.24269,50.4584 -0.001,29.2115 21.42756,36.0582 21.42756,36.0582 l 0.57601,-2.3808 c 0,0 -19.43072,-6.4996 -19.43072,-33.6774 0,-21.6334 25.87527,-47.8856 62.66984,-47.8856 33.84294,0 60.865,20.7179 60.865,47.156 0,33.4694 -35.90459,45.1208 -35.90459,45.1208 3.3301,-43.2668 26.84204,-48.6404 26.84204,-55.297 0,-1.2964 -0.73729,-2.9568 -1.84323,-2.9568 0,0 -26.6485,5.9155 -53.64568,39.9366 -8.87823,11.2806 -14.40024,23.3092 -14.40024,23.3092 l -46.04237,0 c -28.28989,0 -48.99921,19.2234 -48.99921,39.7447 0,5.6669 1.77305,10.7988 5.22249,14.8611 -1.80741,0.353 -3.71757,0.7807 -5.8753,1.2672 -8.421103,1.713 -16.063444,4.8271 -22.925177,8.7937 -1.6549,0.9984 -3.242551,2.027 -4.761678,3.1489 -9.689052,-11.3537 -15.321854,-25.9707 -15.321854,-42.3175 0,-34.3898 22.582338,-64.5131 63.629859,-64.5131 3.51197,0 7.75846,1.3059 10.71377,2.4192 l 0,-2.2272 c -2.02755,-0.7398 -6.27282,-2.2272 -10.71377,-2.2272 -39.380011,0 -65.665092,26.6067 -65.665092,66.5483 0,16.9603 5.783403,31.9917 15.705859,43.6231 -4.057779,3.2301 -7.622298,6.9125 -10.636976,11.1746 -4.49994,6.3714 -6.643309,17.0514 -6.643309,25.9972 0,6.8875 1.555379,13.4246 4.87688,19.6227 3.353451,6.3776 8.06014,11.88 14.323437,16.7043 6.279272,4.6437 14.085967,8.4383 23.501189,11.3666 9.202632,2.9283 19.776022,4.3009 31.718932,4.3009 l 3.72486,0 c 0.7803,6.2043 3.34331,11.7054 7.64172,16.7042 3.73561,4.6499 8.59314,8.6261 14.28504,12.2498 0.38954,0.1684 0.99289,0.5106 1.38242,0.6913 6.25961,3.7859 13.32011,6.7305 21.15875,8.7937 7.63343,2.0644 15.28192,3.072 22.92518,3.072 10.41778,0 20.44599,-0.9024 29.9141,-2.6496 3.62054,10.0037 12.42606,19.8915 28.76207,19.8915 42.71134,0 62.66984,-54.3753 62.66984,-54.3753 l 2.80324,-6.2209 c 5.17207,-2.9227 10.3521,-5.7269 15.51386,-8.4481 42.62241,20.9551 56.99266,40.3975 83.55978,40.3975 9.36188,0 16.58828,-2.4363 22.04197,-6.8737 0.0353,-0.029 0.08,-0.048 0.1152,-0.077 3.61785,-2.6369 6.72522,-5.9771 9.02415,-9.869 2.73289,-4.3083 4.10887,-9.3154 4.10887,-15.1683 0,-9.9817 -4.10949,-18.432 -12.32661,-25.1524 -8.22572,-6.7143 -18.61017,-9.9841 -31.14291,-9.9841 -13.91025,0 -26.00153,2.9141 -39.13025,6.5281 -12.9149,3.6115 -25.40924,10.1476 -37.74782,15.6674 -0.47539,0.2155 -0.94983,0.4301 -1.42083,0.6528 -0.0798,-0.04 -0.15041,-0.075 -0.2304,-0.1152 l -1.65123,-0.7296 -4.26247,-2.4192 33.10135,-56.0265 -1.84323,-0.7297 -5.56809,7.757 c 0,0 -5.33431,-2.5729 -8.29454,-2.5729 -4.62405,0 -13.70811,14.2282 -26.65004,48.8072 0,0 -11.61727,-2.3925 -19.20032,-2.7648 -6.10601,0 -15.74426,0.5376 -15.74426,0.5376 0.55543,-14.4239 2.04629,-19.961 8.33294,-31.7957 14.42635,-26.6261 33.44695,-39.9367 33.44695,-39.9367 3.32396,0.5542 12.94869,0.9238 22.19557,-0.192 4.43781,-0.5168 8.59411,-1.1804 12.5186,-1.9584 0.24067,0.3886 0.47762,0.7686 0.72962,1.152 3.34485,5.2446 6.96833,9.6865 11.02098,13.325 1.88992,1.6982 3.83545,3.3347 5.8753,4.8769 4.1915,3.3117 8.78514,6.1803 13.55542,8.8321 7.19966,3.9421 14.42512,6.8728 21.65796,8.4482 7.24021,1.7302 14.14956,2.0211 20.69794,1.0368 6.62826,-1.0556 12.13153,-4.0305 16.51227,-8.9089 3.11383,-3.4616 4.96014,-7.3201 5.6065,-11.5202 0.56402,-4.1203 0.33792,-8.5308 -0.92162,-12.9411 -1.17967,-4.4962 -3.30737,-8.9135 -6.2209,-13.325 -3.06345,-4.3905 -6.6003,-8.4675 -10.63698,-12.0962 -3.47387,-3.1175 -7.39104,-6.1862 -11.63539,-9.2545 -0.80979,-0.5899 -1.65031,-1.1791 -2.45764,-1.6129 -3.50705,-2.3986 -7.22823,-4.4185 -11.09778,-6.1057 -4.73465,-2.0238 -9.51752,-3.1648 -14.32344,-3.456 -4.88948,-0.2187 -9.44625,0.8967 -13.86263,3.4944 -0.51856,-0.9117 -1.05464,-1.8555 -1.72803,-2.7648 -0.59352,-0.8233 -1.43311,-1.5637 -2.34244,-2.3808 -1.89607,-1.7044 -4.00841,-3.3191 -6.4513,-4.7617 -2.58544,-1.4316 -5.33155,-2.8494 -8.40974,-4.4161 5.60587,-5.4068 12.45624,-8.6945 20.39073,-10.061 8.02789,-1.2964 16.43793,-1.0291 25.49803,0.8449 8.97653,1.9464 17.87042,5.349 26.84204,10.1377 0.72992,0.3527 1.309,0.7189 2.03523,1.0752 8.18395,4.5147 15.76055,9.9811 22.84838,16.3587 4.95338,4.4447 9.72673,9.6309 14.36184,15.5907 4.49748,5.972 8.02082,12.1539 10.48337,18.7011 2.39743,6.4746 3.3937,12.855 3.03365,19.2387 -0.29369,6.3002 -2.97835,12.2498 -7.94893,17.7795 -3.33625,3.711 -7.44143,6.279 -12.4034,7.6417 -0.46204,0.025 -0.9121,0.3613 -1.11362,1.0752 -0.19416,0.7238 0.20828,1.0909 1.30562,1.0369 3.10768,-0.639 5.74504,-1.5447 7.87213,-2.9185 2.12832,-1.3714 4.13682,-3.1129 6.0673,-5.2609 5.26427,-5.8565 8.21436,-12.1702 8.87055,-19.0467 0.65127,-6.8728 -0.16436,-13.7179 -2.57285,-20.6595 -2.32984,-7.0191 -5.93151,-13.694 -10.59857,-20.122 -4.66829,-6.4402 -9.65085,-12.1152 -15.01465,-16.9347 -6.68355,-6.0089 -14.21346,-11.2667 -22.38757,-15.629 -0.95971,-0.5776 -2.02755,-1.0743 -2.91845,-1.5744 -9.35992,-4.6843 -18.70725,-8.0507 -28.07086,-9.7538 -9.45209,-1.7756 -18.40466,-1.744 -26.95725,-0.038 -8.46657,1.7916 -15.74334,5.6851 -21.77316,11.7506 -7.25987,-3.5415 -15.5114,-7.6399 -24.88361,-12.4802 -9.36607,-4.6892 -18.72753,-11.3592 -28.30127,-19.9684 -3.79214,-3.4062 -7.37845,-7.2316 -10.82898,-11.3665 -3.43824,-4.1375 -6.1017,-8.442 -7.91053,-12.9027 -1.89607,-4.5331 -2.52461,-9.1286 -2.22724,-13.7858 0.392,-4.5786 2.48929,-9.104 6.41291,-13.4786 2.4515,-2.7292 6.4295,-4.6526 11.71219,-5.7217 5.28393,-1.0703 11.17551,-1.2989 17.5875,-0.4608 6.56067,0.8233 13.18493,2.5953 19.92993,5.3761 6.82241,2.6972 12.98801,6.4282 18.3555,11.2514 3.29447,2.9614 6.31583,6.2786 9.02415,9.9073 2.61984,3.5476 4.69778,7.0372 6.2977,10.5602 1.61099,3.5353 2.33691,6.9084 2.26564,10.1378 0.0209,3.2932 -1.11178,6.0289 -3.18725,8.3329 -2.97006,3.3006 -6.55392,5.2907 -10.67538,6.0673 -4.20625,0.6906 -8.4549,0.6129 -12.67221,-0.3456 -4.21854,-0.956 -8.293,-2.5363 -12.0962,-4.6081 -3.8843,-2.1529 -7.07401,-4.4544 -9.63856,-6.7585 -2.63459,-2.3679 -5.1337,-4.8962 -7.48812,-7.9105 -2.35811,-2.8595 -3.60567,-5.4458 -3.72486,-7.6417 -0.3453,-0.7619 -0.67524,-1.2534 -1.15202,-1.3825 -0.32073,-0.1351 -0.60919,0.2169 -0.72962,0.8448 0.0922,3.2183 1.43066,6.3696 4.03207,9.6002 2.60633,3.0917 5.37333,6.0053 8.25614,8.6017 2.9676,2.6641 6.47342,5.0745 10.59857,7.2962 4.11655,2.2094 8.36827,3.9282 12.74901,5.0305 4.44588,1.0174 8.7105,1.1357 13.13302,0.192 4.36846,-0.8565 8.14739,-3.1274 11.40499,-6.7586 2.74764,-3.0573 4.2425,-6.3431 4.68488,-9.8305 0.37847,-3.3916 -0.13978,-6.9748 -1.34403,-10.445 -1.37013,-3.4653 -3.26528,-6.9705 -5.87529,-10.3682 -2.54366,-3.3239 -5.46764,-6.4027 -8.67855,-9.2929 -5.78037,-5.1979 -12.3097,-9.5581 -19.73792,-13.0946 -7.32869,-3.4555 -14.58487,-5.7964 -21.81156,-7.2193 -7.23653,-1.4255 -14.02176,-1.5444 -20.23714,-0.4225 -6.15639,1.0347 -10.95063,3.3839 -14.36183,7.181 -3.41121,3.7946 -5.37671,8.1569 -6.06731,13.0562 -0.51979,4.8944 -0.19753,9.9863 1.42083,15.1682 1.69454,5.2532 4.17676,10.4748 7.68013,15.7059 3.58446,5.3183 7.87182,10.1903 12.90261,14.7074 3.96049,3.5599 8.19992,6.8068 12.74901,9.7154 4.47905,2.9811 9.17775,5.5275 13.93943,8.0257 4.68795,2.4245 9.47113,4.6047 14.05463,6.4897 4.49994,1.9539 8.66196,3.6128 12.44181,5.2225 -4.66829,5.5138 -7.48198,11.3273 -8.40974,17.5107 -0.3393,2.2791 -0.53829,4.532 -0.57601,6.7585 -25.024,7.9111 -45.42795,24.0004 -45.42795,24.0004 0,0 -2.02252,-0.4053 -4.49288,-0.8448 -0.27902,-0.089 -0.56748,-0.177 -0.84481,-0.2688 -2.78205,-0.9302 -5.48791,-2.0131 -7.98733,-3.4176 -1.8666,-1.0575 -3.65895,-2.2967 -4.95368,-3.8017 3.47098,-2.5767 6.39049,-6.0703 7.98733,-10.1762 5.21135,0.019 10.59448,1.9531 14.74584,5.6833 l 0.42241,-0.384 c -3.27284,-4.4237 -8.52926,-7.456 -14.24664,-8.2945 1.36097,-5.5693 0.61593,-11.4558 -1.11361,-16.7427 -1.83917,-5.5445 -4.73684,-10.6317 -8.40974,-15.1299 0.0243,-0.01 0.0525,0.01 0.0768,0 5.78405,-1.4168 11.47288,-3.1912 16.97308,-5.5296 l -0.69121,-1.5361 c -5.31588,2.4061 -10.90978,4.3135 -16.62748,5.5681 -0.28145,0.063 -0.56268,0.1318 -0.84481,0.192 -3.80943,-4.3292 -8.3875,-8.1116 -13.90103,-10.3681 -2.8865,-1.1613 -6.0885,-1.8608 -9.33136,-1.5745 -1.62573,0.1438 -3.20599,0.5069 -4.76168,1.152 -1.68594,0.6661 -3.37556,2.4251 -3.53285,4.5313 -0.18801,2.0571 0.71148,3.8118 1.84323,5.0689 1.13051,1.2927 2.58359,2.2113 4.07046,2.8417 0.75573,0.3035 1.49425,0.5277 2.30404,0.6912 0.7164,0.1499 1.45923,0.3056 2.22724,0.4224 1.50653,0.2322 2.9888,0.3932 4.49287,0.4608 4.93815,0.2217 9.83151,-0.322 14.63065,-1.2672 0.14987,0.1693 0.3135,0.328 0.4608,0.4992 3.72579,4.3524 6.68294,9.4109 8.52494,14.8226 1.72318,5.0554 2.32835,10.552 1.15202,15.6675 -3.076,-0.039 -6.44339,0.4656 -9.29295,2.8416 -1.49793,1.251 -2.28745,3.3673 -2.22724,5.2609 0.0701,1.6799 0.33079,3.0731 0.99842,4.5313 -3.99121,1.8072 -9.50244,3.7182 -17.12668,6.0673 -12.74533,4.0268 -21.23709,10.3758 -21.88837,17.7795 0,0 -4.264,1.4927 -8.29453,4.1088 -1.41315,-13.2896 8.27825,-23.5012 17.31868,-23.5012 1.52743,0 3.39063,0.097 5.56809,0.4225 l -0.3456,-1.1905 c -5.12418,-3.5906 -5.9905,-6.2123 -5.9905,-10.6753 0,-9.1511 7.73942,-16.7811 16.78108,-16.7811 5.55058,0 9.60016,3.1774 9.60016,7.6417 0,3.9224 -3.48217,7.2961 -7.18092,7.2961 -2.83243,0 -4.57644,-1.0915 -6.64331,-4.032 l -1.76643,0.2304 c 2.17747,4.0268 4.38074,5.5297 8.29454,5.5297 4.79362,0 9.02414,-4.3399 9.02414,-9.0242 0,-6.5336 -7.52437,-11.8658 -16.78107,-11.8658 -11.76473,0 -20.35234,7.6202 -20.35234,17.8563 0,4.1387 0.74805,5.9979 3.80166,10.1378 -14.27029,0 -24.07719,11.2139 -24.07719,25.1524 0,1.7834 0.1949,3.7653 0.72961,6.5665 -4.83215,1.1977 -9.66048,2.1158 -14.51544,2.2272 -5.82584,0.2151 -11.60744,-0.8764 -16.89628,-3.264 -1.29641,-0.564 -2.70064,-1.2654 -3.95527,-1.9584 -1.04458,-0.6115 -2.10097,-1.4734 -2.99525,-2.4193 8.28928,-4.4726 16.20737,-9.9565 23.19399,-16.7427 7.54495,-7.2856 13.88321,-16.2235 18.1251,-26.1892 2.8878,-6.6711 4.79238,-13.7319 6.0289,-20.8131 0.13862,-0.4528 0.33362,-0.942 0.4224,-1.3057 0.5628,-2.4048 1.84323,-13.133 1.84323,-13.133 0,0 38.82305,-12.4031 38.82305,-48.4616 0,-27.7308 -27.93723,-49.7288 -63.43785,-49.7288 z m 37.93982,44.1991 c 3.32519,0 -27.20362,25.1447 -31.64212,53.9913 -5.91923,1.1047 -17.74263,1.6512 -20.69794,1.6512 0.92653,-2.5915 6.47342,-15.1418 19.04671,-29.3765 11.28057,-12.9468 28.6693,-26.266 33.29335,-26.266 z m 15.12985,51.2649 c 2.33948,-0.056 4.72989,0.4537 6.98892,1.344 4.43898,1.7682 8.40054,4.7915 11.78899,8.3329 -4.4118,0.7669 -8.89207,1.1278 -13.32502,0.8832 -1.44509,-0.077 -2.89141,-0.2285 -4.30087,-0.4608 -0.68936,-0.1118 -1.38949,-0.2961 -2.11203,-0.4608 -0.6267,-0.1695 -1.30409,-0.3966 -1.88163,-0.7296 -2.32862,-1.2583 -3.87048,-3.9159 -3.64806,-5.7985 0.0762,-0.9044 0.67585,-1.6103 1.68962,-2.0736 1.16738,-0.5014 2.48683,-0.8371 3.80167,-0.96 0.33163,-0.032 0.6642,-0.069 0.99841,-0.077 z m -46.96397,5.4913 c 0,0.2101 -0.0323,0.4365 -0.0384,0.6528 0.13433,0.01 0.2603,0.084 0.384,0.1152 0.40306,9.3501 -0.19691,18.4731 -2.64964,27.226 -2.41463,8.7419 -6.694,17.0499 -12.51861,24.4228 -5.39564,6.8624 -12.04457,12.9065 -19.35392,18.2019 -0.33403,-0.8362 -0.57912,-1.6914 -0.76801,-2.5728 -0.5886,-2.7243 -0.32226,-5.6418 0.88321,-8.1793 1.16247,-2.5818 3.40384,-4.6358 5.9905,-6.0673 l -0.384,-0.8449 c -2.92214,1.09 -5.64735,3.1569 -7.33452,5.9905 -1.6884,2.8263 -2.27947,6.2535 -1.84323,9.5234 0.16252,1.3275 0.5232,2.6242 0.99841,3.8785 -6.35267,4.3829 -13.12235,8.2381 -20.16033,11.6738 -10.84345,3.9868 -22.9539,7.1425 -34.17657,7.1425 -22.00299,0 -40.931687,-8.0948 -53.83769,-21.3892 1.102943,-0.8202 2.212609,-1.6293 3.456057,-2.496 5.680837,-3.9605 13.633455,-6.1484 21.465953,-8.2178 3.55328,-0.9341 6.48693,-1.676 9.44656,-2.1888 4.82395,3.6264 11.60281,5.7985 20.23714,5.7985 4.93872,0 9.66862,-1.067 14.20823,-2.88 0.80296,0.2021 1.60751,0.4134 2.34244,0.6528 10.76692,3.1077 19.37389,7.8954 25.84363,14.7842 0.96831,0.5161 1.56889,0.5161 1.95843,0 0.60335,-0.5222 0.388,-1.2085 -0.192,-2.0736 -5.86639,-6.0262 -14.30347,-10.9937 -24.88362,-15.1299 -0.22553,-0.076 -0.46579,-0.1545 -0.69121,-0.2304 23.65476,-12.318 41.06591,-44.5726 49.07602,-56.1417 5.91308,0 16.99796,-0.5392 22.54117,-1.6512 z m -63.59145,2.0352 37.17181,0 c -8.83926,13.4032 -26.70536,44.1215 -48.96081,54.5289 -1.12529,-0.3713 -2.19255,-0.7408 -3.37926,-1.1136 -8.80081,-2.2389 -12.3223,-2.9989 -19.92992,-3.4561 -3.19548,0 -5.89525,0.162 -8.56335,0.4608 -2.12212,-3.321 -3.30245,-7.8574 -3.30245,-13.8242 0,-19.043 21.45244,-36.5958 46.96398,-36.5958 z m 208.93785,8.8321 c 3.22565,1.4046 6.13212,2.6841 8.79375,4.0321 2.59158,1.2804 4.45508,2.4945 5.60649,3.5329 2.48099,2.2327 3.8972,4.138 4.22407,5.7601 -1.21776,0.6967 -1.8162,1.4835 -1.68963,2.3424 0.0418,0.7803 0.23747,1.4325 0.65281,1.8048 0.50136,0.4485 1.03682,0.4655 1.65123,0.1152 0.68445,-0.2789 1.29272,-1.0767 1.53602,-2.3424 2.76239,-2.7464 6.45469,-4.0413 10.86738,-3.8017 4.49134,0.3134 9.27299,1.317 14.01624,3.1873 4.17921,1.6663 8.26781,3.5688 12.3266,6.0289 0.73606,0.3563 1.46568,0.8645 2.11203,1.3056 4.79978,2.9615 8.73047,5.8639 11.9426,8.7553 2.89019,2.599 5.89342,5.7448 8.75535,9.5234 2.88404,3.77 5.04799,7.8159 6.60491,12.0578 1.5692,4.2296 2.20726,8.5277 1.88163,12.7106 -0.24945,4.2542 -2.00697,8.1889 -5.41449,11.981 -3.78231,4.2124 -8.75443,6.6169 -14.93785,7.1809 -6.17605,0.5702 -12.65009,0.1334 -19.58432,-1.6128 -6.76835,-1.7695 -13.51672,-4.4158 -20.23714,-8.0641 -4.5282,-2.4355 -8.6724,-5.1168 -12.365,-7.9874 -1.78425,-1.3234 -3.42657,-2.6213 -4.99208,-4.032 -3.8757,-3.4886 -7.49028,-7.7782 -10.98259,-12.7106 -0.13447,-0.1902 -0.25248,-0.385 -0.384,-0.576 20.45361,-4.6521 32.67894,-12.5071 32.67894,-19.0468 0,-6.1035 -8.12312,-11.0977 -18.66271,-11.0977 -7.75061,0 -15.5615,1.3669 -23.00198,3.5328 -1.5e-4,-1.9064 0.13104,-3.8349 0.38401,-5.7985 0.79258,-6.0101 3.47203,-11.4996 8.21773,-16.7811 z m 18.81631,22.9252 c 6.65775,0 11.6738,3.335 11.6738,7.2193 0,5.9275 -15.54198,12.9379 -31.60373,16.7427 -2.50173,-4.0586 -4.41957,-8.3007 -5.79849,-12.7874 -0.34195,-1.114 -0.60759,-2.2525 -0.84482,-3.3793 11.36623,-5.8739 19.86297,-7.7953 26.57324,-7.7953 z m -88.16786,6.0673 c -1.39049,3.2601 -3.64419,6.0905 -6.4897,8.333 -0.49715,-0.902 -0.85631,-2.3044 -0.53761,-3.3025 0.27525,-1.1145 0.91485,-1.8558 1.61282,-2.6496 1.19851,-1.2923 3.25712,-2.053 5.41449,-2.3809 z m 59.06018,3.0721 c 0.15196,0.8527 0.29552,1.7237 0.49921,2.5728 1.09724,4.591 2.8075,8.9425 5.06888,13.0562 -3.76438,0.7731 -7.51383,1.3591 -11.02098,1.6897 -7.21809,0.7385 -20.88994,0.5376 -20.88994,0.5376 10.17729,-7.9731 18.848,-13.7466 26.34283,-17.8563 z m -66.7787,8.8705 c 1.67192,1.9587 3.79781,3.3106 5.87529,4.4929 2.75379,1.5201 5.64735,2.6536 8.56335,3.6097 1.09212,0.3369 2.16736,0.6199 3.26405,0.9216 -27.25455,29.138 -33.10135,40.6056 -33.10135,60.4426 0,3.8843 1.1213,8.4939 3.14885,15.7058 0,0 -15.90585,4.269 -27.18765,13.5171 -16.5148,13.1013 -20.31009,25.4154 -21.19715,28.4932 -6.07883,-5.6399 -11.67824,-11.7853 -15.59065,-18.8931 -2.06442,-3.711 -3.65574,-7.6488 -4.45448,-11.7506 -0.81593,-4.1042 -0.76709,-8.3114 -0.0384,-12.4034 0.55873,-2.8679 1.48442,-5.6994 2.72645,-8.4097 3.83598,1.9458 7.91332,3.4436 12.0194,4.6081 4.30947,1.2054 8.68991,2.0591 13.17141,2.4192 2.2512,0.1561 4.49595,0.2709 6.87372,-0.077 1.32712,-0.2003 2.31294,-0.7143 3.41765,-1.1136 1.09488,-0.4141 2.18485,-0.882 3.22566,-1.4977 2.10251,-1.1649 4.10426,-2.8766 5.37609,-5.2224 1.2878,-2.3274 1.54831,-5.2271 0.92161,-7.7954 -0.63653,-2.6223 -1.91604,-4.8302 -3.72486,-6.7201 -1.84692,-1.8113 -4.06893,-3.0425 -6.33611,-3.84 -4.56629,-1.6012 -9.33073,-1.6036 -13.86262,-0.9217 -4.49503,0.6857 -9.04566,2.3735 -12.63381,5.2993 -3.98096,3.1779 -7.57735,7.0057 -10.29137,11.405 -2.95686,-1.7222 -5.73432,-3.7199 -8.21774,-6.0673 -6.31859,-5.8442 -10.1436,-14.093 -10.56017,-22.6948 l -1.99684,0.1152 c 0.25191,4.5123 1.28873,8.9993 3.18726,13.1331 1.89607,4.1276 4.63326,7.8687 7.91053,10.9825 2.62427,2.4893 5.55449,4.6056 8.64014,6.413 -1.56134,2.8809 -2.75221,5.9719 -3.45606,9.2545 -2.05213,9.1867 0.42855,18.8618 5.03049,26.65 4.66337,7.8608 11.10454,14.3229 18.08669,19.7764 l 0.11521,-0.1536 c 0.003,0.011 0.0384,0.038 0.0384,0.038 -0.51945,3.1726 -0.32113,7.2916 0.80641,11.5586 -8.08123,1.6455 -19.75871,2.5344 -28.99248,2.5344 -8.21712,0 -15.87636,-1.0623 -23.50119,-3.3025 -7.43436,-2.0619 -14.12682,-4.792 -20.00673,-8.4097 -0.57754,-0.3477 -1.36245,-0.8811 -1.95843,-1.2288 -4.89931,-3.2638 -9.18851,-6.8811 -12.51861,-11.021 -3.93468,-4.6437 -6.30231,-9.4782 -6.87371,-14.477 7.25987,-0.3416 13.70042,-1.5278 19.39232,-3.4177 4.31685,-1.3824 8.04263,-3.1 11.36659,-5.3377 8.03771,-5.1721 11.94259,-11.2163 11.94259,-17.9331 0,-2.9258 -0.95018,-5.6728 -3.11045,-7.9105 -2.15289,-2.3999 -5.67868,-3.6097 -10.79058,-3.6097 -3.32764,0 -6.66051,0.5211 -9.40815,1.3825 -1.75722,0.5185 -3.49723,1.2011 -5.06889,2.2272 -4.11163,2.2377 -7.44173,5.3506 -9.98416,8.7937 -2.56455,3.6115 -4.31777,7.4061 -5.49129,11.3666 -1.36399,3.9605 -1.95843,7.5766 -1.95843,11.021 l 0,0.6912 -3.14885,0 c -6.86051,0 -14.2789,-0.7124 -22.11877,-2.2656 -8.03895,-1.7154 -16.651133,-4.8729 -23.117186,-8.8322 -7.896399,-4.0465 -12.751468,-7.7984 -17.049882,-14.1698 -4.316846,-6.5398 -8.1821,-13.1788 -8.371338,-23.77 -0.194154,-10.5961 1.423588,-16.8121 5.913698,-23.4244 4.046308,-5.3339 7.068157,-8.349 10.32977,-10.9442 13.255651,13.707 32.750908,21.9652 55.527318,21.9652 12.74898,0 25.7691,-3.4526 37.05662,-7.7185 6.75758,-2.3378 13.43077,-5.05 19.89153,-8.333 0.12986,0.1637 0.24807,0.3403 0.384,0.4993 1.09611,1.2828 2.31233,2.375 3.80166,3.3408 1.37383,0.8344 2.68498,1.5839 4.14727,2.304 5.71648,2.8202 12.21909,4.0797 18.54751,3.8401 5.05871,-0.2158 9.98742,-1.2439 14.70744,-2.7264 0.0711,0.2304 0.15375,0.4619 0.23041,0.6912 0.28508,-0.066 0.50535,-0.1146 0.80641,-0.192 3.5943,8.8266 14.18212,14.477 25.07561,14.477 14.15724,0 25.03722,-9.5829 25.03722,-21.8884 0,-7.0804 -4.79639,-14.2749 -13.40182,-14.7074 2.18238,-1.3075 11.98745,-5.31 19.39232,-8.7937 1.26562,-0.6071 2.4576,-1.2946 3.57126,-1.9969 z m -166.96596,4.1473 c 5.0841,0.3188 10.00955,1.0012 17.85629,2.688 -3.05609,0.9185 -6.18209,1.4593 -9.36975,1.4593 -5.5527,0 -10.26162,-1.2176 -13.74743,-3.9937 1.63004,-0.1073 3.34841,-0.1536 5.26089,-0.1536 z m 142.27435,8.8321 c 7.19105,0 12.82581,5.4416 12.82581,12.6339 0,9.9079 -8.246,18.2787 -18.0483,18.2787 -9.03674,0 -17.42375,-8.0325 -18.62431,-16.0899 3.26867,-2.3938 7.94894,-4.5697 7.94894,-4.5697 0.33178,7.6261 6.64453,11.405 12.6338,11.405 5.33431,0 9.36976,-3.3624 9.36976,-7.7185 0,-4.6855 -4.47598,-8.8322 -9.60016,-8.8322 -1.63187,0 -2.84165,0.3518 -6.2209,1.1136 3.37925,-4.7874 5.47101,-6.2209 9.71536,-6.2209 z m -3.80166,6.7586 c 4.13743,0 7.37292,2.9454 7.37292,6.7585 0,3.4861 -3.01768,6.4129 -6.72011,6.4129 -4.57859,0 -7.98734,-3.0693 -7.98734,-7.6418 10e-4,-1.2005 0.14347,-2.386 0.57601,-3.8016 2.28561,-0.87 4.35863,-1.728 6.75852,-1.728 z m -24.92202,38.2854 c 3.15493,0.061 6.26623,0.7227 9.02415,1.8816 3.67663,1.5594 6.43994,4.5424 7.18092,8.0642 0.35513,1.7252 0.0544,3.4308 -0.57601,5.0688 -0.61564,1.6503 -1.70038,3.2788 -3.18725,4.6465 -0.75818,0.6599 -1.5904,1.2626 -2.49604,1.7664 -0.90564,0.4682 -1.98516,0.9054 -2.84165,1.0369 -1.99069,0.2998 -4.1657,0.2267 -6.2977,0.077 -4.30579,-0.3293 -8.6082,-1.1464 -12.78741,-2.304 -4.01031,-1.1212 -7.95695,-2.578 -11.6738,-4.4545 2.22465,-4.2126 5.27256,-8.0412 8.98575,-11.0977 4.05357,-3.2733 9.41084,-4.7872 14.66904,-4.6849 z m -70.88757,13.4402 c 3.32765,0 5.67961,0.8709 7.06572,2.4192 1.56552,1.541 2.34244,3.4208 2.34244,5.4913 0,5.8505 -3.73777,11.0115 -11.17459,15.6675 -2.73412,1.5483 -5.49805,2.9267 -8.64014,3.9553 -5.6919,2.0705 -12.33705,3.3027 -19.77633,3.648 l 0,-0.3456 c 0,-3.4444 0.77815,-6.9041 2.34244,-10.5218 1.35416,-3.4505 3.55221,-6.6967 6.1057,-9.7921 2.5498,-3.1016 5.66271,-5.5451 9.40815,-7.6033 0.58001,-0.3441 1.13482,-0.4971 1.92004,-0.8449 3.14209,-1.3775 6.67956,-2.0736 10.40657,-2.0736 z m 250.10334,0.8832 c 6.25838,0 11.92416,0.8341 17.01148,2.7265 5.10329,1.8899 9.41891,4.1313 12.74901,7.0657 3.52794,2.9221 6.06331,6.2129 8.02573,9.8305 1.96243,3.786 2.95685,7.3837 2.95685,11.1746 0,7.9198 -3.53071,14.9969 -10.79058,21.5428 -4.59453,4.9464 -10.00436,7.4392 -16.55067,8.6401 -1.64414,0.1961 -3.38314,0.3072 -5.22249,0.3072 -22.96263,0 -34.87671,-15.8067 -81.25574,-39.7446 1.4379,-0.7502 2.8697,-1.5335 4.30087,-2.2657 10.79396,-5.5137 21.75749,-10.1731 33.33175,-13.7858 11.34078,-3.6139 23.1052,-5.4913 35.44379,-5.4913 z m -115.20191,12.2498 c 0.80629,-0.013 1.54938,0.016 2.26564,0.038 6.47097,0.3724 16.47387,2.7649 16.47387,2.7649 0,0 -11.84767,9.2545 -20.35233,9.2545 -9.61184,0 -11.25139,-11.0978 -11.25139,-11.0978 0,0 7.22014,-0.8694 12.86421,-0.96 z m -22.11876,2.2273 c 7.21194,8.6877 12.55823,11.8658 20.69794,11.8658 6.83593,0 12.57114,-3.5197 22.92518,-10.1762 -0.56655,3.1235 -1.54451,8.132 -2.68805,12.9794 -5.26386,3.2937 -10.50722,6.6245 -15.93626,9.6002 -11.95274,6.3726 -24.01361,11.7518 -35.17498,17.4339 -7.00535,3.0809 -12.96525,5.5743 -19.12352,7.6417 -10.29368,-2.7258 -18.0483,-7.1809 -18.0483,-7.1809 0,0 2.78912,-14.7926 20.54434,-29.0309 12.20342,-9.7986 26.80365,-13.133 26.80365,-13.133 z m 51.95606,3.3408 4.37767,2.3425 c -2.43147,1.2355 -4.7933,2.5843 -7.14252,3.9552 l 2.76485,-6.2977 z m -12.63381,17.4339 c -0.62007,2.2074 -1.221,4.1298 -1.80483,5.4913 -1.84815,2.406 -25.6716,25.1524 -52.10967,25.1524 -2.79991,0 -5.59995,-0.2559 -8.29453,-0.6912 8.53635,-2.8846 16.72056,-6.226 24.65321,-9.9458 11.95519,-5.5137 23.31963,-11.5469 34.29176,-18.0867 1.0856,-0.6432 2.1743,-1.284 3.26406,-1.92 z m -1.61283,8.2561 c -10e-4,2.5916 -19.22059,46.6184 -56.75614,46.6184 -14.47414,0 -23.20831,-9.1724 -26.84204,-18.5859 3.58003,-0.7095 7.04428,-1.5457 10.44497,-2.496 2.89972,-0.7996 5.77571,-1.6742 8.60174,-2.5729 3.88729,0.754 8.04552,1.2672 12.2498,1.2672 26.25498,0 52.30167,-24.2308 52.30167,-24.2308 z m -85.40301,15.5523 c 0.87621,0.8733 6.67253,3.7446 14.59224,5.9521 -3.96526,1.2031 -8.11683,2.2941 -12.78741,3.2641 -0.30844,0.08 -0.67384,0.1535 -0.99842,0.2303 -0.92123,-3.3855 -1.17157,-6.6702 -0.80641,-9.4465 z" /><path
   transform="translate(0,3.4570314e-5)"
   d="m 204.96875,144.46875 c -23.83779,0 -44.6828,8.68807 -59.78125,21.4375 -12.22889,10.32632 -21.27133,23.40906 -24.3125,38.3125 -2.61483,-0.53841 -5.56192,-0.96875 -9.0625,-0.96875 -24.206223,0 -46.362792,8.52672 -61.875,24.25 -15.512208,15.72328 -23.8125,37.97787 -23.8125,62.34375 0,14.92365 3.668274,29.05275 10.21875,41.40625 -0.477335,0.62905 -1.041067,1.16367 -1.5,1.8125 -8.849557,12.52996 -10.3125,25.396 -10.3125,37.5625 0,9.84299 2.349058,19.90086 7.15625,28.9375 0.0282,0.0536 0.0654,0.10269 0.09375,0.15625 4.744977,8.96324 11.577125,16.80578 19.78125,23.125 a 20.044391,20.044391 0 0 0 0.3125,0.25 c 8.425857,6.23116 18.279715,10.89066 29.34375,14.34375 0.04144,0.0129 0.08352,0.0183 0.125,0.0312 8.569847,2.71415 17.598494,4.22462 27.09375,4.84375 1.79237,3.41094 3.87309,6.65223 6.3125,9.5625 l -0.0312,0.0312 c 0.12685,0.1579 0.27826,0.2813 0.40625,0.4375 0.0145,0.0177 0.0168,0.0449 0.0312,0.0625 5.46326,6.65266 11.95451,11.78735 18.71875,16.09375 a 20.044391,20.044391 0 0 0 2.75,1.46875 20.044391,20.044391 0 0 0 0.0625,0.0312 c 7.74298,4.54647 16.22822,8.01235 25.28125,10.40625 0.0419,0.0113 0.0831,0.02 0.125,0.0312 9.27,2.49524 18.65413,3.71875 28,3.71875 6.77697,0 13.39829,-0.41556 19.9375,-1.09375 8.6605,10.19597 22.02401,18.34375 38.75,18.34375 29.86086,0 50.97449,-18.84992 63.3125,-35.09375 11.51608,-15.16169 16.83474,-29.11891 17.5625,-31.0625 l 0.0312,0 0.0312,-0.0625 c 0.0736,-0.0403 0.14507,-0.0847 0.21875,-0.125 14.94225,8.04295 26.15838,15.69659 37.1875,22.4375 13.18626,8.05934 28.04384,15.28125 46.21875,15.28125 12.52173,0 24.64333,-3.62158 33.9375,-10.875 l 0.0312,0.0625 c 0.20949,-0.15269 0.3864,-0.34424 0.59375,-0.5 0.0365,-0.0274 0.0886,-0.035 0.125,-0.0625 a 20.044391,20.044391 0 0 0 0.0625,-0.0312 c -1.54037,1.26546 -1.47587,1.21965 0.15625,-0.125 l -0.0312,-0.0312 c 5.19357,-3.96217 9.70502,-8.8588 13.1875,-14.59375 l 0.0312,0.0312 c 0.0872,-0.13752 0.1331,-0.29895 0.21875,-0.4375 0.027,-0.0437 0.0669,-0.0812 0.0937,-0.125 4.60985,-7.51836 6.90625,-16.52704 6.90625,-25.34375 a 20.044391,20.044391 0 0 0 -0.0312,-1.4375 c -1.24336,-17.28699 4.78624,-26.61196 13.28125,-31.59375 a 20.044391,20.044391 0 0 0 0.71875,-0.4375 c 3.76723,-2.42744 7.16324,-5.39202 10.125,-8.6875 7.5714,-8.42318 12.82011,-19.18038 13.90625,-30.5625 0.91321,-9.63708 -0.31985,-19.5108 -3.53125,-28.875 l 0.0312,0 c -0.0282,-0.0848 -0.0653,-0.16529 -0.0937,-0.25 -3.07308,-9.15859 -7.70325,-17.58309 -13.3125,-25.3125 -0.005,-0.007 0.005,-0.0246 0,-0.0312 l -0.0312,0 c -5.34162,-7.36477 -11.18351,-14.13428 -17.78125,-20.0625 -7.69213,-6.91567 -16.29454,-12.8747 -25.5,-17.875 l 0.0312,-0.0312 c -0.47339,-0.28491 -0.33204,-0.1562 -0.71875,-0.375 -0.10701,-0.0606 -0.0876,-0.0694 -0.1875,-0.125 -1.27591,-0.70967 -2.66414,-1.41835 -2.53125,-1.34375 a 20.044391,20.044391 0 0 0 -0.84375,-0.46875 c -10.41856,-5.21411 -21.23609,-9.1851 -32.53125,-11.34375 -8.10353,-1.86485 -10.74413,-4.39275 -11.59375,-5.46875 -0.84962,-1.076 -0.97962,-1.52149 -0.78125,-3.4375 l -0.0312,0 c 0.74033,-6.87804 -0.30912,-13.28952 -2.3125,-19.0625 a 20.044391,20.044391 0 0 0 -0.3125,-0.8125 c -1.98795,-5.02784 -4.78236,-10.2214 -8.59375,-15.1875 -0.005,-0.006 0.005,-0.0248 0,-0.0312 l -0.0312,0 c -3.43903,-4.48857 -7.22594,-8.43103 -11.15625,-11.96875 -7.20101,-6.4754 -15.40379,-11.95058 -24.5,-16.28125 a 20.044391,20.044391 0 0 0 -0.0625,-0.0312 c -8.78762,-4.14332 -17.68173,-7.01363 -26.5,-8.75 -9.25247,-1.82252 -18.50995,-2.10699 -27.4375,-0.53125 -0.0826,0.0146 -0.16743,0.0163 -0.25,0.0312 l 0,0.0312 c -7.97938,1.38188 -16.04148,4.85401 -22.5,10.5625 -1.88814,-1.86745 -5.47553,-5.13657 -12.90625,-9 -15.15365,-11.27245 -34.60162,-17.53125 -55.71875,-17.53125 z"
   id="path3828"
   style="fill:none;stroke:#00ff00;stroke-width:0.36000001;stroke-miterlimit:4;stroke-opacity:1;stroke-dasharray:none"
   inkscape:original="M 204.96875 164.5 C 167.06578 164.5 139.71875 192.22206 139.71875 214.96875 C 138.67041 222.493 136.03365 228.36262 122.53125 225.53125 C 120.5037 224.79149 116.25345 223.28125 111.8125 223.28125 C 72.432492 223.28125 46.15625 249.90214 46.15625 289.84375 C 46.15625 306.80405 51.921294 321.83735 61.84375 333.46875 C 57.785971 336.69885 54.233428 340.3629 51.21875 344.625 C 46.71881 350.9964 44.5625 361.6792 44.5625 370.625 C 44.5625 377.5125 46.115999 384.0519 49.4375 390.25 C 52.790951 396.6276 57.517953 402.14445 63.78125 406.96875 C 70.060522 411.61245 77.866028 415.41545 87.28125 418.34375 C 96.483885 421.27205 107.05709 422.625 119 422.625 L 122.71875 422.625 C 123.49905 428.8293 126.04534 434.34495 130.34375 439.34375 C 134.07936 443.99365 138.9331 447.97005 144.625 451.59375 C 145.01454 451.76215 145.64172 452.10055 146.03125 452.28125 C 152.29086 456.06715 159.34886 458.9993 167.1875 461.0625 C 174.82093 463.1269 182.45049 464.125 190.09375 464.125 C 200.51153 464.125 210.56314 463.2472 220.03125 461.5 C 223.65179 471.5037 232.44524 481.375 248.78125 481.375 C 291.49259 481.375 311.4375 427 311.4375 427 L 314.25 420.78125 C 319.42207 417.85855 324.61949 415.06495 329.78125 412.34375 C 372.40366 433.29885 386.77663 452.75 413.34375 452.75 C 422.70563 452.75 429.92131 450.3124 435.375 445.875 C 435.4103 445.846 435.4648 445.81025 435.5 445.78125 C 439.11785 443.14435 442.20107 439.79815 444.5 435.90625 C 447.23289 431.59795 448.625 426.6029 448.625 420.75 C 446.94365 397.37336 456.39227 379.46217 471.78125 370.4375 C 473.90957 369.0661 475.91327 367.3355 477.84375 365.1875 C 483.10802 359.331 486.06256 353.0015 486.71875 346.125 C 487.37002 339.2522 486.53349 332.41035 484.125 325.46875 C 481.79516 318.44965 478.19831 311.77175 473.53125 305.34375 C 468.86296 298.90355 463.89505 293.22575 458.53125 288.40625 C 451.8477 282.39735 444.29911 277.14355 436.125 272.78125 C 435.16529 272.20365 434.10965 271.71885 433.21875 271.21875 C 423.85883 266.53445 414.51986 263.17185 405.15625 261.46875 C 382.62736 256.28421 376.07138 243.25843 377.34375 230.96875 C 377.72222 227.5772 377.20425 224.00144 376 220.53125 C 374.62987 217.06598 372.73501 213.55394 370.125 210.15625 C 367.58134 206.83229 364.64841 203.76518 361.4375 200.875 C 355.65713 195.67709 349.14697 191.3178 341.71875 187.78125 C 334.39006 184.32581 327.13294 181.98548 319.90625 180.5625 C 312.66972 179.13707 305.87163 179.00308 299.65625 180.125 C 293.49986 181.15966 288.7237 183.51545 285.3125 187.3125 C 268.03427 200.57797 261.33693 184.29092 250 178.96875 C 238.57811 170.0029 222.71906 164.5 204.96875 164.5 z "
   inkscape:radius="20.042387"
   sodipodi:type="inkscape:offset" /></svg>