<?xml version="1.0" encoding="UTF-8" standalone="no"?>
<svg
   xmlns:dc="http://purl.org/dc/elements/1.1/"
   xmlns:cc="http://creativecommons.org/ns#"
   xmlns:rdf="http://www.w3.org/1999/02/22-rdf-syntax-ns#"
   xmlns:svg="http://www.w3.org/2000/svg"
   xmlns="http://www.w3.org/2000/svg"
   xmlns:sodipodi="http://sodipodi.sourceforge.net/DTD/sodipodi-0.dtd"
   xmlns:inkscape="http://www.inkscape.org/namespaces/inkscape"
   version="1.0"
   width="2160"
   height="1620"
   id="s1"
   inkscape:version="0.48.1 r9760"
   sodipodi:docname="imperial_raster.eps">
  <metadata
     id="metadata3055">
    <rdf:RDF>
      <cc:Work
         rdf:about="">
        <dc:format>image/svg+xml</dc:format>
        <dc:type
           rdf:resource="http://purl.org/dc/dcmitype/StillImage" />
        <dc:title></dc:title>
      </cc:Work>
    </rdf:RDF>
  </metadata>
  <defs
     id="defs3053" />
  <sodipodi:namedview
     pagecolor="#ffffff"
     bordercolor="#666666"
     borderopacity="1"
     objecttolerance="10"
     gridtolerance="10"
     guidetolerance="10"
     inkscape:pageopacity="0"
     inkscape:pageshadow="2"
     inkscape:window-width="1680"
     inkscape:window-height="1002"
     id="namedview3051"
     showgrid="false"
     inkscape:document-units="mm"
     units="in"
     inkscape:zoom="2.2908235"
     inkscape:cx="100.40056"
     inkscape:cy="177.66533"
     inkscape:window-x="0"
     inkscape:window-y="0"
     inkscape:window-maximized="0"
     inkscape:current-layer="s1" />
  <path
     id="p1"
     style="fill:#000000;fill-opacity:1;stroke:none;display:inline"
     d="m 304.32503,1523.8752 10.05594,6.6662 c -27.61855,42.7034 -74.70099,71.6315 -128.6558,74.2709 l -0.75325,-12.0144 c 10.21851,-0.4872 20.16418,-1.9774 29.75354,-4.4066 l -2.97535,-11.713 c 25.17921,-6.3778 47.62472,-19.6212 65.19413,-37.6627 l 8.62475,8.3987 c 7.00387,-7.1903 13.29172,-15.0736 18.75604,-23.5391 z m -253.28167,0 c 5.47203,8.4752 11.741,16.38 18.75601,23.5768 l 8.62476,-8.4364 c 17.56668,18.0319 39.98605,31.2871 65.15648,37.6627 l -2.97536,11.713 c 9.58936,2.4292 19.53504,3.9194 29.75354,4.4066 l -0.75326,12.0144 c -53.95479,-2.6394 -101.03724,-31.5675 -128.65578,-74.2709 l 10.09361,-6.6662 z m 271.39743,-155.8107 c 11.45562,22.2705 17.92742,47.5184 17.92742,74.2709 0,26.7524 -6.4718,52.0004 -17.92742,74.2708 l -10.84687,-5.3481 c 4.57116,-8.8581 8.31629,-18.2079 11.07285,-27.9834 l -11.60011,-3.2766 c 3.37865,-11.978 5.19745,-24.6086 5.19745,-37.6627 0,-13.0415 -1.82511,-25.6574 -5.19745,-37.6251 l 11.60011,-3.2766 c -2.75679,-9.7853 -6.49988,-19.1541 -11.07285,-28.0211 l 10.84687,-5.3481 z m -289.55086,0 10.84686,5.3481 c -4.57485,8.8691 -8.31528,18.2331 -11.07284,28.0211 l 11.60012,3.2766 c -3.37233,11.9677 -5.19746,24.5836 -5.19746,37.6251 0,13.0541 1.81879,25.6847 5.19746,37.6627 l -11.60012,3.2766 c 2.75566,9.7723 6.50361,19.128 11.07284,27.9834 l -10.84686,5.3481 c -11.45562,-22.2704 -17.92744,-47.5184 -17.92744,-74.2708 0,-26.7525 6.47182,-52.0004 17.92744,-74.2709 z m 144.77542,-35.1016 c 5.12213,-0.012 10.24428,0.3013 14.46249,0.9039 l -6.59098,54.8369 c 13.85402,2.0202 26.00071,9.2709 34.38605,19.6976 l 43.99003,-32.9925 c 5.34337,6.6565 11.40102,17.0992 14.57548,25.008 l -50.54335,21.6184 c 2.54049,6.2766 3.95459,13.1161 3.95459,20.3002 0,6.921 -1.28667,13.5347 -3.6533,19.6223 l 50.12906,21.43 c -3.09306,7.9558 -9.08752,18.3799 -14.34948,25.0834 l -43.68874,-32.6912 c -8.3742,10.6648 -20.65999,18.1122 -34.68736,20.1872 l 6.478,53.933 c -8.43645,1.2992 -20.48851,1.2805 -28.92496,0.075 l 6.47798,-54.0084 c -14.0375,-2.0765 -26.31275,-9.5476 -34.68735,-20.2248 l -43.57574,32.6912 c -5.34335,-6.6566 -11.401,-17.0993 -14.57548,-25.008 l 50.24206,-21.5054 c -2.35857,-6.0786 -3.65328,-12.676 -3.65328,-19.5846 0,-7.1965 1.40573,-14.0524 3.95457,-20.3379 l -50.43035,-21.5431 c 3.09307,-7.9557 9.08752,-18.3798 14.3495,-25.0833 l 44.10301,33.0302 c 8.38534,-10.4267 20.53203,-17.6774 34.38606,-19.6976 l -6.59098,-54.7616 c 4.21822,-0.6496 9.34035,-0.9675 14.46247,-0.9792 z m 8.05982,-53.1044 c 53.95481,2.6393 101.03725,31.5675 128.6558,74.2708 l -10.09361,6.6663 c -5.45765,-8.454 -11.72325,-16.3578 -18.71837,-23.5392 l -8.62475,8.3988 c -17.56941,-18.0415 -40.01492,-31.2849 -65.19413,-37.6627 l 2.97535,-11.7131 c -9.58936,-2.4292 -19.53503,-3.9193 -29.75354,-4.4065 l 0.75325,-12.0144 z m -16.42094,0 c 0.0997,-0.01 0.20158,0 0.3013,0 l 0.75326,12.0144 c -10.2185,0.4872 -20.16418,1.9773 -29.75354,4.4065 l 2.97536,11.7131 c -25.17043,6.3756 -47.5898,19.6308 -65.15648,37.6627 l -8.62476,-8.4364 c -7.0147,7.1964 -13.28607,15.1014 -18.75601,23.5768 l -10.09361,-6.6663 c 27.56751,-42.6244 74.52483,-71.5393 128.35448,-74.2708 z"
     inkscape:connector-curvature="0" />
  <path
     inkscape:connector-curvature="0"
     style="fill:none;stroke:#ff0000;stroke-opacity:1;display:inline;stroke-width:0.3;stroke-miterlimit:4;stroke-dasharray:none"
     d="M 177.66534,1265.1693 C 79.87008,1265.1693 0.5,1344.5394 0.5,1442.3347 c 0,97.7953 79.37006,177.1654 177.16534,177.1653 97.79527,0 177.16536,-79.37 177.16536,-177.1653 0,-97.7953 -79.37009,-177.1654 -177.16536,-177.1654 z"
     id="path4560" />
</svg>
