<?xml version="1.0" encoding="UTF-8" standalone="no"?>
<svg
   xmlns:dc="http://purl.org/dc/elements/1.1/"
   xmlns:cc="http://creativecommons.org/ns#"
   xmlns:rdf="http://www.w3.org/1999/02/22-rdf-syntax-ns#"
   xmlns:svg="http://www.w3.org/2000/svg"
   xmlns="http://www.w3.org/2000/svg"
   xmlns:sodipodi="http://sodipodi.sourceforge.net/DTD/sodipodi-0.dtd"
   xmlns:inkscape="http://www.inkscape.org/namespaces/inkscape"
   version="1.0"
   width="2160"
   height="1620"
   id="s1"
   inkscape:version="0.48.1 r9760"
   sodipodi:docname="Imperial_Emblem.svg">
  <metadata
     id="metadata3055">
    <rdf:RDF>
      <cc:Work
         rdf:about="">
        <dc:format>image/svg+xml</dc:format>
        <dc:type
           rdf:resource="http://purl.org/dc/dcmitype/StillImage" />
        <dc:title></dc:title>
      </cc:Work>
    </rdf:RDF>
  </metadata>
  <defs
     id="defs3053" />
  <sodipodi:namedview
     pagecolor="#ffffff"
     bordercolor="#666666"
     borderopacity="1"
     objecttolerance="10"
     gridtolerance="10"
     guidetolerance="10"
     inkscape:pageopacity="0"
     inkscape:pageshadow="2"
     inkscape:window-width="1680"
     inkscape:window-height="1002"
     id="namedview3051"
     showgrid="false"
     inkscape:document-units="mm"
     units="in"
     inkscape:zoom="0.50246914"
     inkscape:cx="1080"
     inkscape:cy="810"
     inkscape:window-x="0"
     inkscape:window-y="0"
     inkscape:window-maximized="0"
     inkscape:current-layer="s1" />
  <g
     id="g5333"
     transform="translate(-199.62285,1412.3976)">
    <path
       inkscape:connector-curvature="0"
       d="m 503.94788,111.47755 10.05594,6.66629 c -27.61855,42.70331 -74.70099,71.63149 -128.6558,74.27085 l -0.75325,-12.0144 c 10.21851,-0.48718 20.16418,-1.97739 29.75354,-4.40655 l -2.97535,-11.71309 c 25.17921,-6.37777 47.62472,-19.62114 65.19413,-37.6627 l 8.62475,8.39878 c 7.00387,-7.19036 13.29172,-15.07368 18.75604,-23.53918 z m -253.28167,0 c 5.47203,8.47526 11.741,16.38007 18.75601,23.57684 l 8.62476,-8.43644 c 17.56668,18.03193 39.98605,31.28716 65.15648,37.6627 l -2.97536,11.71309 c 9.58936,2.42916 19.53504,3.91937 29.75354,4.40655 l -0.75326,12.0144 C 315.27359,189.77533 268.19114,160.84715 240.5726,118.14384 l 10.09361,-6.66629 z M 522.06364,-44.333058 c 11.45562,22.27047 17.92742,47.5183797 17.92742,74.27084 0,26.75246 -6.4718,52.00037 -17.92742,74.270848 l -10.84687,-5.348098 c 4.57116,-8.85809 8.31629,-18.20796 11.07285,-27.98339 l -11.60011,-3.27666 c 3.37865,-11.97798 5.19745,-24.60854 5.19745,-37.6627 0,-13.0415 -1.82511,-25.6573703 -5.19745,-37.6250403 l 11.60011,-3.2766597 c -2.75679,-9.78526 -6.49988,-19.15407 -11.07285,-28.02104 l 10.84687,-5.3481 z m -289.55086,0 10.84686,5.3481 c -4.57485,8.8691 -8.31528,18.23304 -11.07284,28.02104 l 11.60012,3.2766597 c -3.37233,11.96767 -5.19746,24.5835403 -5.19746,37.6250403 0,13.05416 1.81879,25.68472 5.19746,37.6627 l -11.60012,3.27666 c 2.75566,9.77224 6.50361,19.12793 11.07284,27.98339 l -10.84686,5.348098 C 221.05716,81.938152 214.58534,56.690242 214.58534,29.937782 c 0,-26.7524603 6.47182,-52.00037 17.92744,-74.27084 z m 144.77542,-35.10166 c 5.12213,-0.0118 10.24428,0.3013 14.46249,0.90393 l -6.59098,54.83689 c 13.85402,2.02023 26.00071,9.27094 34.38605,19.6975897 l 43.99003,-32.9925397 c 5.34337,6.65658 11.40102,17.09927 14.57548,25.00805 L 427.56792,9.6375817 c 2.54049,6.2766503 3.95459,13.1161403 3.95459,20.3002003 0,6.92103 -1.28667,13.53467 -3.6533,19.62227 l 50.12906,21.43009 c -3.09306,7.95575 -9.08752,18.37981 -14.34948,25.08335 l -43.68874,-32.69122 c -8.3742,10.66482 -20.65999,18.11219 -34.68736,20.1872 l 6.478,53.932998 c -8.43645,1.2992 -20.48851,1.28055 -28.92496,0.0753 l 6.47798,-54.008328 c -14.0375,-2.07651 -26.31275,-9.54769 -34.68735,-20.22487 l -43.57574,32.69123 c -5.34335,-6.65658 -11.401,-17.09927 -14.57548,-25.00804 l 50.24206,-21.5054 c -2.35857,-6.07858 -3.65328,-12.67598 -3.65328,-19.58461 0,-7.19646 1.40573,-14.05239 3.95457,-20.3378603 L 276.57814,-11.943178 c 3.09307,-7.95575 9.08752,-18.37981 14.3495,-25.08336 l 44.10301,33.0301997 c 8.38534,-10.4266497 20.53203,-17.6773597 34.38606,-19.6975897 l -6.59098,-54.76159 c 4.21822,-0.64959 9.34035,-0.96747 14.46247,-0.97923 z m 8.05982,-53.104402 c 53.95481,2.63934 101.03725,31.56751 128.6558,74.270852 l -10.09361,6.6663 c -5.45765,-8.45408 -11.72325,-16.35782 -18.71837,-23.53919 l -8.62475,8.39878 c -17.56941,-18.04157 -40.01492,-31.28494 -65.19413,-37.662692 l 2.97535,-11.71311 c -9.58936,-2.42918 -19.53503,-3.91936 -29.75354,-4.40654 l 0.75325,-12.0144 z m -16.42094,0 c 0.0997,-0.005 0.20158,0.005 0.3013,0 l 0.75326,12.0144 c -10.2185,0.48718 -20.16418,1.97736 -29.75354,4.40654 l 2.97536,11.71311 c -25.17043,6.375542 -47.5898,19.630742 -65.15648,37.662692 l -8.62476,-8.43643 c -7.0147,7.19643 -13.28607,15.10142 -18.75601,23.57684 l -10.09361,-6.6663 c 27.56751,-42.624392 74.52483,-71.539302 128.35448,-74.270852 z"
       style="fill:#000000;fill-opacity:1;stroke:none;display:inline"
       id="p1" />
    <path
       id="path4560"
       d="m 377.28819,-147.2283 c -97.79526,0 -177.16534,79.370099 -177.16534,177.165374 0,97.795276 79.37006,177.165376 177.16534,177.165356 97.79527,0 177.16536,-79.37006 177.16536,-177.165356 0,-97.795287 -79.37009,-177.165374 -177.16536,-177.165374 z"
       style="fill:none;stroke:#0000ff;stroke-opacity:1;display:inline"
       inkscape:connector-curvature="0" />
  </g>
</svg>
