<?xml version="1.0" encoding="UTF-8" standalone="no"?>
<!-- Created with Inkscape (http://www.inkscape.org/) -->

<svg
   xmlns:dc="http://purl.org/dc/elements/1.1/"
   xmlns:cc="http://creativecommons.org/ns#"
   xmlns:rdf="http://www.w3.org/1999/02/22-rdf-syntax-ns#"
   xmlns:svg="http://www.w3.org/2000/svg"
   xmlns="http://www.w3.org/2000/svg"
   xmlns:sodipodi="http://sodipodi.sourceforge.net/DTD/sodipodi-0.dtd"
   xmlns:inkscape="http://www.inkscape.org/namespaces/inkscape"
   width="2160"
   height="1620"
   id="svg88387"
   version="1.1"
   inkscape:version="0.48.1 r9760"
   sodipodi:docname="r2.svg">
  <defs
     id="defs88389" />
  <sodipodi:namedview
     id="base"
     pagecolor="#ffffff"
     bordercolor="#666666"
     borderopacity="1.0"
     inkscape:pageopacity="0.0"
     inkscape:pageshadow="2"
     inkscape:zoom="2.3078773"
     inkscape:cx="885.82677"
     inkscape:cy="890.24122"
     inkscape:document-units="mm"
     inkscape:current-layer="layer7"
     showgrid="false"
     units="in"
     inkscape:window-width="1680"
     inkscape:window-height="1002"
     inkscape:window-x="0"
     inkscape:window-y="0"
     inkscape:window-maximized="0"
     showguides="false"
     inkscape:guide-bbox="true"
     inkscape:snap-global="true">
    <sodipodi:guide
       orientation="1,0"
       position="708.66142,708.66142"
       id="guide88414" />
    <sodipodi:guide
       orientation="0,1"
       position="708.66142,708.66142"
       id="guide88416" />
    <sodipodi:guide
       orientation="1,0"
       position="1062.9921,1062.9921"
       id="guide88418" />
    <sodipodi:guide
       orientation="0,1"
       position="1062.9921,1062.9921"
       id="guide88420" />
    <sodipodi:guide
       orientation="1,0"
       position="885.82677,885.82677"
       id="guide88424" />
    <sodipodi:guide
       orientation="0,1"
       position="885.82677,885.82677"
       id="guide88426" />
    <sodipodi:guide
       orientation="1,0"
       position="938.97638,938.97638"
       id="guide88430" />
    <sodipodi:guide
       orientation="1,0"
       position="690.94488,885.82677"
       id="guide88434" />
    <sodipodi:guide
       orientation="0,1"
       position="690.94488,931.88976"
       id="guide88436" />
    <sodipodi:guide
       orientation="0,1"
       position="690.94488,839.76378"
       id="guide88438" />
    <sodipodi:guide
       orientation="1,0"
       position="956.69291,956.69291"
       id="guide88440" />
    <sodipodi:guide
       orientation="1,0"
       position="1027.5591,1027.5591"
       id="guide88444" />
    <sodipodi:guide
       orientation="1,0"
       position="896.45669,885.82677"
       id="guide88456" />
    <sodipodi:guide
       orientation="1,0"
       position="875.19685,885.82677"
       id="guide88458" />
    <sodipodi:guide
       orientation="-0.9961947,0.087155743"
       position="907.08661,885.82677"
       id="guide88478" />
    <sodipodi:guide
       orientation="-0.9961947,-0.087155743"
       position="864.56693,885.82677"
       id="guide88480" />
    <sodipodi:guide
       orientation="0,1"
       position="885.82677,1066.5354"
       id="guide88482" />
    <sodipodi:guide
       orientation="1,0"
       position="1034.6457,1034.6457"
       id="guide88484" />
    <sodipodi:guide
       orientation="1,0"
       position="1066.5354,1066.5354"
       id="guide88488" />
    <sodipodi:guide
       orientation="0,1"
       position="1034.6457,1034.6457"
       id="guide88503" />
    <sodipodi:guide
       orientation="0,1"
       position="885.82677,1050.5906"
       id="guide88505" />
    <sodipodi:guide
       orientation="-0.9961947,-0.087155743"
       position="857.48031,885.82677"
       id="guide88511" />
    <sodipodi:guide
       orientation="1,0"
       position="1036.4173,1036.4173"
       id="guide88513" />
    <sodipodi:guide
       orientation="0,1"
       position="1036.4173,1036.4173"
       id="guide88515" />
    <sodipodi:guide
       orientation="0,1"
       position="1059.4488,1059.4488"
       id="guide88519" />
    <sodipodi:guide
       orientation="1,0"
       position="1045.2756,1045.2756"
       id="guide88534" />
    <sodipodi:guide
       orientation="1,0"
       position="832.67717,814.96063"
       id="guide88539" />
    <sodipodi:guide
       orientation="0,1"
       position="850.3937,797.24409"
       id="guide88541" />
    <sodipodi:guide
       orientation="1,0"
       position="850.3937,797.24409"
       id="guide88543" />
    <sodipodi:guide
       orientation="1,0"
       position="836.22047,811.41732"
       id="guide88547" />
    <sodipodi:guide
       orientation="0,1"
       position="885.82677,1073.622"
       id="guide88588" />
    <sodipodi:guide
       orientation="1,0"
       position="878.74016,1073.622"
       id="guide88603" />
    <sodipodi:guide
       orientation="-0.9998477,0.017452406"
       position="892.91339,1073.622"
       id="guide88605" />
    <sodipodi:guide
       orientation="0,1"
       position="885.82677,1070.0787"
       id="guide88612" />
    <sodipodi:guide
       orientation="0,1"
       position="885.82677,1055.0197"
       id="guide88614" />
    <sodipodi:guide
       orientation="1,0"
       position="1055.9055,1055.9055"
       id="guide88669" />
    <sodipodi:guide
       orientation="1,0"
       position="1052.3622,1052.3622"
       id="guide88673" />
    <sodipodi:guide
       orientation="-0.9998477,-0.017452406"
       position="882.28346,885.82677"
       id="guide88678" />
    <sodipodi:guide
       orientation="-0.99862953,-0.052335956"
       position="868.11024,885.82677"
       id="guide88738" />
    <sodipodi:guide
       orientation="-0.99939083,0.034899497"
       position="903.54331,885.82677"
       id="guide88740" />
    <sodipodi:guide
       orientation="0,1"
       position="690.94488,938.97638"
       id="guide88760" />
    <sodipodi:guide
       orientation="0,1"
       position="690.94488,832.67717"
       id="guide88762" />
    <sodipodi:guide
       orientation="1,0"
       position="680.31496,885.82677"
       id="guide88764" />
    <sodipodi:guide
       orientation="1,0"
       position="705.11811,885.82677"
       id="guide88766" />
    <sodipodi:guide
       orientation="1,0"
       position="666.14173,885.82677"
       id="guide88774" />
    <sodipodi:guide
       orientation="0,1"
       position="666.14173,822.04724"
       id="guide88776" />
    <sodipodi:guide
       orientation="0,1"
       position="666.14173,949.6063"
       id="guide88778" />
    <sodipodi:guide
       orientation="1,0"
       position="669.68504,885.82677"
       id="guide88788" />
    <sodipodi:guide
       orientation="0,1"
       position="669.68504,946.06299"
       id="guide88790" />
    <sodipodi:guide
       orientation="0,1"
       position="669.68504,825.59055"
       id="guide88792" />
    <sodipodi:guide
       orientation="1,0"
       position="673.22835,885.82677"
       id="guide88802" />
    <sodipodi:guide
       orientation="0,1"
       position="673.22835,892.91339"
       id="guide88804" />
    <sodipodi:guide
       orientation="0,1"
       position="690.94488,942.51969"
       id="guide88812" />
    <sodipodi:guide
       orientation="0,1"
       position="690.94488,935.43307"
       id="guide88818" />
    <sodipodi:guide
       orientation="0,1"
       position="690.94488,836.22047"
       id="guide88820" />
    <sodipodi:guide
       orientation="1,0"
       position="1101.9685,885.82677"
       id="guide88884" />
    <sodipodi:guide
       orientation="1,0"
       position="1105.5118,885.82677"
       id="guide88886" />
  </sodipodi:namedview>
  <metadata
     id="metadata88392">
    <rdf:RDF>
      <cc:Work
         rdf:about="">
        <dc:format>image/svg+xml</dc:format>
        <dc:type
           rdf:resource="http://purl.org/dc/dcmitype/StillImage" />
        <dc:title></dc:title>
      </cc:Work>
    </rdf:RDF>
  </metadata>
  <g
     inkscape:groupmode="layer"
     id="layer2"
     inkscape:label="eye"
     style="display:inline"
     sodipodi:insensitive="true">
    <path
       sodipodi:type="arc"
       style="fill:#000000;stroke:none;display:inline"
       id="path88509"
       sodipodi:cx="885.82678"
       sodipodi:cy="569.40942"
       sodipodi:rx="10.62992"
       sodipodi:ry="12.4015"
       d="m 896.4567,569.40942 a 10.62992,12.4015 0 1 1 -21.25984,0 10.62992,12.4015 0 1 1 21.25984,0 z"
       transform="matrix(2.1077218,0,0,1,-981.24963,0)" />
    <path
       id="path88525"
       style="fill:#ffff00;stroke:#ff0000;stroke-width:0.09;stroke-miterlimit:4;stroke-opacity:1;stroke-dasharray:none;display:inline"
       d="m 851.71875,587.46875 -2.03125,-23.125 m 36.125,-10.875 c -12.59601,0 -24.88124,1.26566 -36.75,3.71875 l 0.625,7.15625 c -2.33504,0.49417 -4.63817,1.00674 -6.9375,1.59375 l 2.0625,23.3125 c 2.27913,-0.64364 4.58457,-1.24363 6.90625,-1.78125 L 851.875,589.25 c 10.90612,-2.54614 22.25581,-3.90625 33.9375,-3.90625 11.68272,0 23.06066,1.35967 33.96875,3.90625 l 2.8125,-32.03125 c -11.88089,-2.45798 -24.17237,-3.75 -36.78125,-3.75 z m 0,3.53125 c 12.37389,0 22.40625,5.55709 22.40625,12.40625 0,6.84916 -10.03236,12.40625 -22.40625,12.40625 -12.37389,0 -22.375,-5.55709 -22.375,-12.40625 0,-6.84916 10.00111,-12.40625 22.375,-12.40625 z"
       inkscape:connector-curvature="0" />
  </g>
  <g
     inkscape:groupmode="layer"
     id="layer3"
     inkscape:label="projector"
     style="display:inline"
     sodipodi:insensitive="true">
    <path
       style="fill:none;stroke:#ff0000;stroke-width:0.09;stroke-miterlimit:4;stroke-dasharray:none"
       d="m 955.50232,563.44024 c 0.6693,-1.83889 -1.78039,-4.40589 -5.45819,-5.74449 l 0,0 c -3.6778,-1.33861 -7.17503,-0.93613 -7.84434,0.90277 l 0,0"
       id="path88626"
       inkscape:connector-curvature="0" />
    <path
       style="fill:none;stroke:#ff0000;stroke-width:0.09;stroke-miterlimit:4;stroke-dasharray:none"
       d="m 942.19979,558.59852 -7.9945,12.18826 -0.0614,0.0774 c -0.19562,0.20504 -0.34994,0.41324 -0.4434,0.67001 -0.83662,2.2986 2.94983,5.79594 8.46652,7.80385 5.51669,2.00791 10.69469,1.77337 11.53131,-0.52523 0.0935,-0.25677 0.10907,-0.51547 0.091,-0.79827 -0.002,-0.0337 0.006,-0.0648 0.003,-0.0988 l 1.71032,-14.47552 c 0,0 0,0 0,0"
       id="path88601"
       inkscape:connector-curvature="0" />
    <path
       inkscape:connector-curvature="0"
       id="path88628"
       d="m 955.342,563.88072 c -0.66931,1.8389 -4.19591,2.23069 -7.87371,0.89209 l 0,0 c -3.67779,-1.33861 -6.09812,-3.89492 -5.42882,-5.73381 l 0,0"
       style="fill:none;stroke:#ff0000;stroke-width:0.09;stroke-miterlimit:4;stroke-dasharray:none" />
  </g>
  <g
     inkscape:label="center_pattern"
     inkscape:groupmode="layer"
     id="layer1"
     transform="translate(0,567.6403)"
     style="display:inline"
     sodipodi:insensitive="true">
    <path
       id="path88432"
       transform="translate(0,-567.6403)"
       style="fill:#ffff00;stroke:none"
       d="m 938.97639,734.17322 c 0,29.35372 -23.79589,53.14961 -53.14961,53.14961 -29.35372,0 -53.14961,-23.79589 -53.14961,-53.14961 0,-29.35372 23.79589,-53.14961 53.14961,-53.14961 29.35372,0 53.14961,23.79589 53.14961,53.14961 z M 875.1875,592.8125 c -44.22337,3.27833 -82.79045,26.87862 -106.4375,61.46875 l 61.75,35.65625 c 10.8854,-13.60676 26.66344,-23.13019 44.6875,-25.84375 l 0,-71.28125 z m 21.28125,0.0312 0,71.28125 c 18.01433,2.7208 33.80158,12.2119 44.6875,25.8125 L 1002.9062,654.2812 C 979.2573,619.6935 940.68476,596.13161 896.46875,592.8437 z m -138.375,79.84375 c -8.97429,18.60643 -14,39.45995 -14,61.5 0,22.03013 5.0333,42.87222 14,61.46875 L 819.84375,760 c -3.12833,-7.99724 -4.875,-16.70423 -4.875,-25.8125 0,-9.11859 1.73993,-17.83646 4.875,-25.84375 l -61.75,-35.65625 z m 255.46875,0 -61.75,35.65625 c 3.13767,8.00729 4.875,16.72516 4.875,25.84375 0,9.10827 -1.74408,17.81526 -4.875,25.8125 l 61.75,35.65625 c 8.9703,-18.59653 14,-39.43862 14,-61.46875 0,-22.04005 -5.0221,-42.89357 -14,-61.5 z m -183.09375,105.71875 -61.75,35.65625 c 23.6452,34.59859 62.23216,58.19101 106.46875,61.46875 l 0,-71.28125 C 857.15409,801.5375 841.3547,792.01692 830.46875,778.4062 z m 110.6875,0 c -10.88608,13.59649 -26.6705,23.09382 -44.6875,25.8125 l 0,71.28125 c 44.22301,-3.28686 82.78953,-26.84929 106.43745,-61.4375 L 941.15625,778.4062 z m -90.75,26.625 c 9.78457,0 17.71875,7.93418 17.71875,17.71875 0,9.78457 -7.93418,17.71875 -17.71875,17.71875 -9.78457,0 -17.71875,-7.93418 -17.71875,-17.71875 0,-9.78457 7.93418,-17.71875 17.71875,-17.71875 z"
       inkscape:connector-curvature="0" />
    <path
       id="path88551"
       transform="translate(0,-567.6403)"
       style="fill:none;stroke:#ff0000;stroke-width:0.09;stroke-miterlimit:4;stroke-opacity:1;stroke-dasharray:none"
       d="m 864.56691,822.75592 c 0,7.82766 -6.34557,14.17323 -14.17323,14.17323 -7.82766,0 -14.17323,-6.34557 -14.17323,-14.17323 0,-7.82766 6.34557,-14.17323 14.17323,-14.17323 7.82766,0 14.17323,6.34557 14.17323,14.17323 z m 3.5433,0 c 0,9.78457 -7.93196,17.71654 -17.71653,17.71654 -9.78457,0 -17.71653,-7.93197 -17.71653,-17.71654 0,-9.78457 7.93196,-17.71654 17.71653,-17.71654 9.78457,0 17.71653,7.93197 17.71653,17.71654 z"
       inkscape:connector-curvature="0" />
  </g>
  <g
     inkscape:groupmode="layer"
     id="layer4"
     inkscape:label="cutout"
     style="display:inline"
     sodipodi:insensitive="true">
    <path
       style="fill:none;stroke:#000000;stroke-width:0.09;stroke-miterlimit:4;stroke-opacity:1;stroke-dasharray:none;display:inline"
       d="m 885.8125,553.46875 c -12.59601,0 -24.88124,1.26566 -36.75,3.71875 l 0.3125,3.5625 c -64.14145,13.41607 -115.55425,61.53158 -133.6875,123.8125 l -7.03125,0 0,-14.15625 -42.5,0 0,127.53125 42.5,0 0,-14.15625 7.03125,0 c 21.44755,73.70554 89.49444,127.5625 170.125,127.5625 80.63056,0 148.7012,-53.85696 170.1563,-127.5625 l 7.0312,0 0,14.15625 42.5,0 0,-127.53125 -42.5,0 0,14.15625 -7.0312,0 C 1041.0014,633.17324 1003.3625,591.43965 954.625,570.875 l 0.875,-7.4375 c 0.6693,-1.83889 -1.79095,-4.4114 -5.46875,-5.75 -1.37918,-0.50198 -2.71747,-0.75289 -3.90625,-0.78125 -0.24766,-0.006 -0.48626,-0.0137 -0.71875,0 -1.6274,0.0961 -2.85272,0.68185 -3.21875,1.6875 l -4.09375,6.25 c -5.17834,-1.59725 -10.44361,-2.97077 -15.8125,-4.09375 l 0.3125,-3.53125 c -11.88089,-2.45798 -24.17237,-3.75 -36.78125,-3.75 z"
       id="path88651"
       inkscape:connector-curvature="0" />
  </g>
  <g
     inkscape:groupmode="layer"
     id="layer5"
     inkscape:label="outer_ring"
     style="display:inline"
     sodipodi:insensitive="true">
    <path
       id="path88754"
       style="fill:#ffff00;stroke:none"
       d="m 712.87817,749.31871 c 0.79187,9.05242 2.25266,17.88066 4.35217,26.44001 l 14.12768,-2.02026 c -2.11283,-8.2911 -3.60752,-16.85241 -4.37751,-25.65356 -0.68827,-7.86766 -0.78881,-15.65052 -0.34532,-23.3086 l -14.20547,0.77226 c -0.37936,7.81701 -0.25281,15.7557 0.44845,23.77015 z M 1028.0321,634.58247 c -5.212,-7.44371 -10.8912,-14.35878 -16.9891,-20.72165 l -11.22481,8.81345 c 5.97531,6.12388 11.55041,12.79084 16.61781,20.02788 4.5299,6.46944 8.5084,13.15935 11.9534,20.01319 l 11.9161,-7.77156 c -3.5799,-6.95942 -7.6589,-13.77123 -12.2734,-20.36131 z m -42.63798,-42.63103 c -7.44372,-5.21215 -15.14537,-9.76781 -23.05181,-13.66135 l -7.5335,12.12104 c 7.70946,3.71088 15.22856,8.06899 22.46561,13.13643 6.46942,4.52996 12.49595,9.45573 18.07737,14.71798 l 8.53951,-11.37846 c -5.74438,-5.3153 -11.90712,-10.32123 -18.49718,-14.93564 z m 74.04328,142.20736 c 0,-12.37561 -1.3197,-24.45181 -3.7814,-36.09373 l -14.2186,1.24999 c 2.5025,11.21884 3.8437,22.87064 3.8437,34.84379 10e-5,11.98372 -1.3371,23.64611 -3.8439,34.87507 l 14.2189,1.24991 c 2.4657,-11.65196 3.7811,-23.73864 3.7813,-36.12498 z M 945.21845,897.30906 c 11.62927,-4.23269 22.5259,-9.60308 32.62376,-15.89802 l -6.03771,-12.93372 c -9.68632,6.18864 -20.1767,11.43411 -31.42773,15.5292 -11.26108,4.09869 -22.67732,6.83111 -34.08645,8.316 l 3.68848,13.78879 c 11.79266,-1.66822 23.60038,-4.56591 35.23967,-8.80227 z m -118.75675,0.01 c 11.62927,4.23272 23.42857,7.12299 35.21029,8.79157 l 3.68847,-13.78878 c -11.39813,-1.48548 -22.80596,-4.21029 -34.05701,-8.30532 -11.26107,-4.09869 -21.76279,-9.34374 -31.45718,-15.53991 l -6.03773,12.93373 c 10.10602,6.30225 21.01385,11.67233 32.65314,15.90869 z M 763.05534,611.42199 c -8.75089,8.7509 -16.35696,18.22318 -22.84836,28.19588 l 10.93804,9.17028 c 6.16338,-9.70242 13.45402,-18.88989 21.92031,-27.35618 8.47379,-8.47379 17.66564,-15.77492 27.37831,-21.9424 l -9.17032,-10.93808 c -9.98277,6.4957 -19.45956,14.11208 -28.21797,22.8705 z m -37.04362,54.92921 c -0.85966,2.02522 -1.67189,4.05102 -2.44911,6.08966 l 13.15734,5.31337 c 0.74231,-1.95692 1.4977,-3.92825 2.32267,-5.87173 0.86184,-2.03038 1.78517,-4.03286 2.72021,-6.00854 l -12.93321,-5.76141 c -0.96937,2.0579 -1.9213,4.1264 -2.8179,6.23865 z m 7.96481,-16.33368 c -1.06664,1.92426 -2.08618,3.85406 -3.07224,5.80029 l 12.52987,6.65958 c 0.94279,-1.8686 1.90011,-3.75017 2.92371,-5.59678 1.06935,-1.92917 2.19694,-3.82416 3.33337,-5.69128 l -12.26013,-7.08174 c -1.17917,1.9453 -2.3421,3.90297 -3.45458,5.90993 z m 75.7315,-71.87834 c -1.97745,0.96447 -3.9195,1.96048 -5.84354,2.98916 l 6.44409,12.64205 c 1.84407,-0.98991 3.70749,-1.98211 5.60514,-2.90765 1.98249,-0.96693 3.99308,-1.87245 5.99492,-2.75008 l -5.98099,-12.83314 c -2.08169,0.91715 -4.15718,1.85375 -6.21962,2.85966 z"
       inkscape:connector-curvature="0" />
  </g>
  <g
     inkscape:groupmode="layer"
     id="layer6"
     inkscape:label="windows"
     style="display:inline"
     sodipodi:insensitive="true">
    <path
       id="path88675"
       style="fill:none;stroke:#ff0000;stroke-width:0.09;stroke-miterlimit:4;stroke-opacity:1;stroke-dasharray:none"
       d="m 829.45974,579.34781 c -2.01557,0.73361 -4.00728,1.50691 -5.97715,2.30853 l 1.91576,4.98942 c 1.93745,-0.79173 3.89437,-1.58371 5.87837,-2.30583 2.0727,-0.7544 4.16693,-1.4448 6.24954,-2.10837 l -1.72889,-5.02418 c -2.11467,0.67738 -4.23246,1.37421 -6.33763,2.14043 z m -3.02474,-8.3104 c -2.06744,0.75248 -4.10296,1.54003 -6.12398,2.36196 l 1.29585,3.28623 c 1.99298,-0.81113 3.99682,-1.58775 6.03589,-2.32991 2.13781,-0.77809 4.27801,-1.48499 6.42573,-2.17249 l -1.14903,-3.33967 c -2.16615,0.69453 -4.32818,1.40905 -6.48446,2.19388 z"
       inkscape:connector-curvature="0" />
  </g>
  <g
     inkscape:groupmode="layer"
     id="layer7"
     inkscape:label="feet"
     style="display:inline"
     sodipodi:insensitive="true">
    <path
       id="path88893"
       style="fill:none;stroke:#ff0000;stroke-width:0.09;stroke-linecap:butt;stroke-linejoin:miter;stroke-miterlimit:4;stroke-opacity:1;stroke-dasharray:none"
       d="m 1080.7087,677.48031 -14.1733,0 m 35.4331,116.92914 -10.6299,-7.08662 m 0,-106.29921 10.6299,-7.08661 m -10.6299,7.08661 -24.8032,0 0,106.29921 24.8032,0 z m 0,3.54331 7.0866,0 0,99.2126 -7.0866,0 m -24.8032,-102.75591 0,-7.08661 35.4331,0 0,120.47244 -35.4331,0 0,-7.08662 m -3.5433,-102.7559 3.5433,0 m -3.5433,99.2126 3.5433,0 m -10.5694,0.002 c 4.5792,-15.73662 7.0313,-32.37859 7.0313,-49.59375 0,-17.22303 -2.447,-33.87981 -7.0313,-49.625 l 0,0 m -365.02112,-7.08247 14.17323,0 m -35.43307,116.92914 10.62992,-7.08662 m 0,-106.29921 -10.62992,-7.08661 m 10.6299,7.08661 24.80315,0 0,106.29921 -24.80315,0 z m 2e-5,3.54331 -7.08661,0 0,99.2126 7.08661,0 m 24.80315,-102.75591 0,-7.08661 -35.43307,0 0,120.47244 35.43307,0 0,-7.08662 m 3.54331,-102.7559 -3.54331,0 m 3.54331,99.2126 -3.54331,0 m 10.56939,0.002 c -4.57919,-15.73662 -7.03125,-32.37859 -7.03125,-49.59375 0,-17.22303 2.447,-33.87981 7.03125,-49.625 l 0,0"
       inkscape:connector-curvature="0" />
  </g>
</svg>
