<?xml version="1.0" encoding="UTF-8" standalone="no"?>
<!-- Created with Inkscape (http://www.inkscape.org/) -->

<svg
   xmlns:dc="http://purl.org/dc/elements/1.1/"
   xmlns:cc="http://creativecommons.org/ns#"
   xmlns:rdf="http://www.w3.org/1999/02/22-rdf-syntax-ns#"
   xmlns:svg="http://www.w3.org/2000/svg"
   xmlns="http://www.w3.org/2000/svg"
   xmlns:sodipodi="http://sodipodi.sourceforge.net/DTD/sodipodi-0.dtd"
   xmlns:inkscape="http://www.inkscape.org/namespaces/inkscape"
   width="2160"
   height="1620"
   id="svg88387"
   version="1.1"
   inkscape:version="0.48.1 r9760"
   sodipodi:docname="r2.svg">
  <defs
     id="defs88389" />
  <sodipodi:namedview
     id="base"
     pagecolor="#ffffff"
     bordercolor="#666666"
     borderopacity="1.0"
     inkscape:pageopacity="0.0"
     inkscape:pageshadow="2"
     inkscape:zoom="2.2949095"
     inkscape:cx="885.39238"
     inkscape:cy="885.82812"
     inkscape:document-units="mm"
     inkscape:current-layer="layer5"
     showgrid="false"
     units="in"
     inkscape:window-width="1680"
     inkscape:window-height="1002"
     inkscape:window-x="0"
     inkscape:window-y="0"
     inkscape:window-maximized="1"
     showguides="true"
     inkscape:guide-bbox="true"
     inkscape:snap-global="true">
    <sodipodi:guide
       orientation="1,0"
       position="708.66142,708.66142"
       id="guide88414" />
    <sodipodi:guide
       orientation="0,1"
       position="708.66142,708.66142"
       id="guide88416" />
    <sodipodi:guide
       orientation="1,0"
       position="1062.9921,1062.9921"
       id="guide88418" />
    <sodipodi:guide
       orientation="0,1"
       position="1062.9921,1062.9921"
       id="guide88420" />
    <sodipodi:guide
       orientation="1,0"
       position="885.82677,885.82677"
       id="guide88424" />
    <sodipodi:guide
       orientation="0,1"
       position="885.82677,885.82677"
       id="guide88426" />
    <sodipodi:guide
       orientation="1,0"
       position="921.25984,921.25984"
       id="guide88430" />
    <sodipodi:guide
       orientation="1,0"
       position="690.94488,885.82677"
       id="guide88434" />
    <sodipodi:guide
       orientation="0,1"
       position="690.94488,931.88976"
       id="guide88436" />
    <sodipodi:guide
       orientation="0,1"
       position="690.94488,839.76378"
       id="guide88438" />
    <sodipodi:guide
       orientation="1,0"
       position="931.88976,931.88976"
       id="guide88440" />
    <sodipodi:guide
       orientation="1,0"
       position="992.12598,992.12598"
       id="guide88444" />
    <sodipodi:guide
       orientation="1,0"
       position="896.45669,885.82677"
       id="guide88456" />
    <sodipodi:guide
       orientation="1,0"
       position="875.19685,885.82677"
       id="guide88458" />
    <sodipodi:guide
       orientation="-0.9961947,0.087155743"
       position="907.08661,885.82677"
       id="guide88478" />
    <sodipodi:guide
       orientation="-0.9961947,-0.087155743"
       position="864.56693,885.82677"
       id="guide88480" />
    <sodipodi:guide
       orientation="0,1"
       position="885.82677,1066.5354"
       id="guide88482" />
    <sodipodi:guide
       orientation="1,0"
       position="1034.6457,1034.6457"
       id="guide88484" />
    <sodipodi:guide
       orientation="1,0"
       position="1066.5354,1066.5354"
       id="guide88488" />
    <sodipodi:guide
       orientation="0,1"
       position="1034.6457,1034.6457"
       id="guide88503" />
    <sodipodi:guide
       orientation="0,1"
       position="885.82677,1050.5906"
       id="guide88505" />
    <sodipodi:guide
       orientation="-0.9961947,-0.087155743"
       position="857.48031,885.82677"
       id="guide88511" />
    <sodipodi:guide
       orientation="1,0"
       position="1036.4173,1036.4173"
       id="guide88513" />
    <sodipodi:guide
       orientation="0,1"
       position="1036.4173,1036.4173"
       id="guide88515" />
    <sodipodi:guide
       orientation="0,1"
       position="1059.4488,1059.4488"
       id="guide88519" />
    <sodipodi:guide
       orientation="1,0"
       position="1045.2756,1045.2756"
       id="guide88534" />
    <sodipodi:guide
       orientation="1,0"
       position="832.67717,814.96063"
       id="guide88539" />
    <sodipodi:guide
       orientation="0,1"
       position="850.3937,797.24409"
       id="guide88541" />
    <sodipodi:guide
       orientation="1,0"
       position="850.3937,797.24409"
       id="guide88543" />
    <sodipodi:guide
       orientation="1,0"
       position="836.22047,811.41732"
       id="guide88547" />
    <sodipodi:guide
       orientation="0,1"
       position="885.82677,1073.622"
       id="guide88588" />
    <sodipodi:guide
       orientation="1,0"
       position="878.74016,1073.622"
       id="guide88603" />
    <sodipodi:guide
       orientation="-0.9998477,0.017452406"
       position="892.91339,1073.622"
       id="guide88605" />
    <sodipodi:guide
       orientation="0,1"
       position="885.82677,1070.0787"
       id="guide88612" />
    <sodipodi:guide
       orientation="0,1"
       position="885.82677,1055.0197"
       id="guide88614" />
    <sodipodi:guide
       orientation="1,0"
       position="1055.9055,1055.9055"
       id="guide88669" />
    <sodipodi:guide
       orientation="1,0"
       position="1052.3622,1052.3622"
       id="guide88673" />
    <sodipodi:guide
       orientation="-0.9998477,-0.017452406"
       position="882.28346,885.82677"
       id="guide88678" />
    <sodipodi:guide
       orientation="-0.99862953,-0.052335956"
       position="868.11024,885.82677"
       id="guide88738" />
    <sodipodi:guide
       orientation="-0.99939083,0.034899497"
       position="903.54331,885.82677"
       id="guide88740" />
    <sodipodi:guide
       orientation="0,1"
       position="690.94488,938.97638"
       id="guide88760" />
    <sodipodi:guide
       orientation="0,1"
       position="690.94488,832.67717"
       id="guide88762" />
    <sodipodi:guide
       orientation="1,0"
       position="680.31496,885.82677"
       id="guide88764" />
    <sodipodi:guide
       orientation="1,0"
       position="705.11811,885.82677"
       id="guide88766" />
    <sodipodi:guide
       orientation="1,0"
       position="666.14173,885.82677"
       id="guide88774" />
    <sodipodi:guide
       orientation="0,1"
       position="666.14173,822.04724"
       id="guide88776" />
    <sodipodi:guide
       orientation="0,1"
       position="666.14173,949.6063"
       id="guide88778" />
    <sodipodi:guide
       orientation="1,0"
       position="669.68504,885.82677"
       id="guide88788" />
    <sodipodi:guide
       orientation="0,1"
       position="669.68504,946.06299"
       id="guide88790" />
    <sodipodi:guide
       orientation="0,1"
       position="669.68504,825.59055"
       id="guide88792" />
    <sodipodi:guide
       orientation="1,0"
       position="673.22835,885.82677"
       id="guide88802" />
    <sodipodi:guide
       orientation="0,1"
       position="673.22835,892.91339"
       id="guide88804" />
    <sodipodi:guide
       orientation="0,1"
       position="690.94488,942.51969"
       id="guide88812" />
    <sodipodi:guide
       orientation="0,1"
       position="690.94488,935.43307"
       id="guide88818" />
    <sodipodi:guide
       orientation="0,1"
       position="690.94488,836.22047"
       id="guide88820" />
    <sodipodi:guide
       orientation="1,0"
       position="1101.9685,885.82677"
       id="guide88884" />
    <sodipodi:guide
       orientation="1,0"
       position="1105.5118,885.82677"
       id="guide88886" />
    <sodipodi:guide
       orientation="1,0"
       position="974.40945,974.40945"
       id="guide3878" />
    <sodipodi:guide
       orientation="1,0"
       position="891.14173,885.82677"
       id="guide3887" />
    <sodipodi:guide
       orientation="1,0"
       position="880.51181,885.82677"
       id="guide3889" />
    <sodipodi:guide
       orientation="-0.9961947,0.087155743"
       position="914.17323,885.82677"
       id="guide3910" />
    <sodipodi:guide
       orientation="1,0"
       position="1009.8425,1009.8425"
       id="guide3926" />
  </sodipodi:namedview>
  <metadata
     id="metadata88392">
    <rdf:RDF>
      <cc:Work
         rdf:about="">
        <dc:format>image/svg+xml</dc:format>
        <dc:type
           rdf:resource="http://purl.org/dc/dcmitype/StillImage" />
        <dc:title />
      </cc:Work>
    </rdf:RDF>
  </metadata>
  <path
     style="fill:none;stroke:#000000;stroke-width:0.35433072;stroke-miterlimit:4;stroke-opacity:1;stroke-dasharray:none"
     d="M 885.8125 564.96875 C 791.88061 564.96875 715.75 640.74482 715.75 734.1875 C 715.75 827.63018 791.88061 903.375 885.8125 903.375 C 979.74439 903.375 1055.9062 827.63018 1055.9062 734.1875 C 1055.9062 640.74482 979.74439 564.96875 885.8125 564.96875 z M 885.8125 610.15625 C 954.3045 610.15625 1009.8438 665.6955 1009.8438 734.1875 C 1009.8438 802.6795 954.3045 858.1875 885.8125 858.1875 C 817.3205 858.1875 761.8125 802.6795 761.8125 734.1875 C 761.8125 665.6955 817.3205 610.15625 885.8125 610.15625 z "
     id="path3930" />
  <g
     inkscape:groupmode="layer"
     id="layer2"
     inkscape:label="eye"
     style="display:none"
     sodipodi:insensitive="true">
    <path
       style="fill:none;stroke:#000000;stroke-width:0.35433072;stroke-miterlimit:4;stroke-opacity:1;stroke-dasharray:none;display:inline"
       d="m 885.8125,553.46875 c -15.05499,0 -29.67492,1.84293 -43.65625,5.3125 l 6.625,75.71875 c 11.52845,-4.28575 24.00968,-6.625 37.03125,-6.625 13.11641,0 25.68031,2.37329 37.28125,6.71875 L 930.625,559.0625 c -14.33137,-3.65728 -29.34255,-5.59375 -44.8125,-5.59375 z"
       id="path3908"
       inkscape:connector-curvature="0" />
  </g>
  <g
     inkscape:groupmode="layer"
     id="layer3"
     inkscape:label="projector"
     style="display:inline" />
  <g
     inkscape:label="center_pattern"
     inkscape:groupmode="layer"
     id="layer1"
     transform="translate(0,567.6403)"
     style="display:inline"
     sodipodi:insensitive="true">
    <path
       sodipodi:type="arc"
       style="fill:#000000;stroke:none"
       id="path3874"
       sodipodi:cx="885.82678"
       sodipodi:cy="734.17322"
       sodipodi:rx="35.433071"
       sodipodi:ry="34.932751"
       d="m 921.25985,734.17322 a 35.433071,34.932751 0 1 1 -70.86614,0 35.433071,34.932751 0 1 1 70.86614,0 z"
       transform="translate(0,-567.6403)" />
    <path
       style="fill:#000000;stroke:none"
       d="m 880.5,645.75 c -28.55718,1.68795 -53.49314,16.8835 -68.46875,39.28125 l 37.03125,21.375 c 7.40314,-9.78085 18.61923,-16.497 31.4375,-17.96875 l 0,-42.6875 z m 11.09375,0.0312 0,42.71875 c 12.69774,1.59157 23.78342,8.33786 31.09375,18.09375 l 37.03125,-21.375 c -14.88847,-22.37496 -39.68561,-37.60615 -68.125,-39.4375 z m -85.125,48.84375 c -5.9565,11.90737 -9.3125,25.34629 -9.3125,39.5625 0,14.21215 3.35919,27.63015 9.3125,39.53125 l 37,-21.375 c -2.39024,-5.5696 -3.71875,-11.71117 -3.71875,-18.1562 0,-6.45978 1.3494,-12.6077 3.75,-18.1875 l -37.03125,-21.375 z m 158.8125,0.21875 -37.03125,21.375 c 2.33795,5.51793 3.625,11.59858 3.625,17.96875 0,6.37017 -1.28705,12.45082 -3.625,17.96875 l 37.03125,21.375 c 5.89598,-11.8525 9.21875,-25.2095 9.21875,-39.34375 0,-14.12943 -3.32654,-27.49055 -9.21875,-39.34375 z m -42.5625,66.9063 c -7.31002,9.77469 -18.4121,16.53153 -31.125,18.125 l 0,42.6875 C 920.04838,820.73158 944.86418,805.51101 959.75,783.125 L 922.71875,761.75 z m -73.65625,0.1875 -37.03125,21.375 c 14.97401,22.4011 39.90226,37.59405 68.46875,39.28125 l 0,-42.65625 c -12.82678,-1.47272 -24.03452,-8.2086 -31.4375,-18 z"
       transform="translate(0,-567.6403)"
       id="path3884"
       inkscape:connector-curvature="0" />
  </g>
  <g
     inkscape:groupmode="layer"
     id="layer4"
     inkscape:label="cutout"
     style="display:inline"
     sodipodi:insensitive="true">
    <path
       style="fill:none;stroke:#ff0000;stroke-width:0.35433072;stroke-miterlimit:4;stroke-opacity:1;stroke-dasharray:none"
       d="m 885.8125,557 c -80.61695,0 -148.63192,53.87393 -170.09375,127.5625 l -7.0625,0 0,-14.15625 -42.5,0 0,127.53125 42.5,0 0,-14.15625 7.0625,0 c 21.45498,73.6994 89.4691,127.5625 170.09375,127.5625 80.62465,0 148.67,-53.8631 170.125,-127.5625 l 7.0625,0 0,14.15625 42.5,0 0,-127.53125 -42.5,0 0,14.15625 -7.0625,0 C 1034.4757,610.87393 966.42945,557 885.8125,557 z"
       id="path3867"
       inkscape:connector-curvature="0" />
  </g>
  <g
     inkscape:groupmode="layer"
     id="layer5"
     inkscape:label="outer_ring"
     style="display:inline">
    <path
       style="fill:#000000;stroke:none"
       d="m 801.21218,587.645 c -1.87921,1.08496 -3.71755,2.1981 -5.5396,3.34263 l 23.27033,38.7429 c 1.59269,-1.01816 3.20935,-1.99727 4.86302,-2.95201 1.73568,-1.00209 3.48465,-1.94003 5.24721,-2.84906 l -21.91716,-39.52414 c -1.98619,1.04595 -3.96265,2.1074 -5.9238,3.23968 z"
       id="rect3933"
       inkscape:connector-curvature="0" />
    <rect
       style="fill:none;stroke:#ff00ff;stroke-width:1.00503778"
       id="rect3939"
       width="354.33069"
       height="354.33069"
       x="222.89656"
       y="901.56073"
       transform="matrix(0.8660254,-0.5,0.5,0.8660254,0,0)" />
    <path
       inkscape:connector-curvature="0"
       id="path3941"
       d="m 783.98558,599.04912 c -1.73297,1.3059 -3.42195,2.63479 -5.09093,3.99283 l 27.81843,35.61818 c 1.45674,-1.20468 2.94205,-2.37351 4.46701,-3.52265 1.60063,-1.20617 3.22226,-2.35025 4.8609,-3.46731 l -26.57057,-36.5585 c -1.84392,1.2802 -3.6763,2.57461 -5.48484,3.93745 z"
       style="fill:#000000;stroke:none" />
    <rect
       transform="matrix(0.79863551,-0.60181503,0.60181503,0.79863551,0,0)"
       y="942.27533"
       x="88.45092"
       height="354.33069"
       width="354.33069"
       id="rect3943"
       style="fill:none;stroke:#ff00ff;stroke-width:1.00503778" />
  </g>
  <g
     inkscape:groupmode="layer"
     id="layer6"
     inkscape:label="windows"
     style="display:inline" />
  <g
     inkscape:groupmode="layer"
     id="layer7"
     inkscape:label="feet"
     style="display:inline"
     sodipodi:insensitive="true">
    <path
       id="path88893"
       style="fill:none;stroke:#008000;stroke-width:0.35433072;stroke-linecap:butt;stroke-linejoin:miter;stroke-miterlimit:4;stroke-opacity:1;stroke-dasharray:none"
       d="m 1080.7087,677.48031 -14.1733,0 m 35.4331,116.92914 -10.6299,-7.08662 m 0,-106.29921 10.6299,-7.08661 m -10.6299,7.08661 -24.8032,0 0,106.29921 24.8032,0 z m 0,3.54331 7.0866,0 0,99.2126 -7.0866,0 m -24.8032,-102.75591 0,-7.08661 35.4331,0 0,120.47244 -35.4331,0 0,-7.08662 m -3.5433,-102.7559 3.5433,0 m -3.5433,99.2126 3.5433,0 m -10.5694,0.002 c 4.5792,-15.73662 7.0313,-32.37859 7.0313,-49.59375 0,-17.22303 -2.447,-33.87981 -7.0313,-49.625 l 0,0 m -365.02112,-7.08247 14.17323,0 m -35.43307,116.92914 10.62992,-7.08662 m 0,-106.29921 -10.62992,-7.08661 m 10.6299,7.08661 24.80315,0 0,106.29921 -24.80315,0 z m 2e-5,3.54331 -7.08661,0 0,99.2126 7.08661,0 m 24.80315,-102.75591 0,-7.08661 -35.43307,0 0,120.47244 35.43307,0 0,-7.08662 m 3.54331,-102.7559 -3.54331,0 m 3.54331,99.2126 -3.54331,0 m 10.56939,0.002 c -4.57919,-15.73662 -7.03125,-32.37859 -7.03125,-49.59375 0,-17.22303 2.447,-33.87981 7.03125,-49.625 l 0,0"
       inkscape:connector-curvature="0" />
  </g>
</svg>
