  0
SECTION
  2
BLOCKS
  0
ENDSEC
  0
SECTION
  2
ENTITIES
  0
LINE
  8
0
 10
-80.963
 11
-80.944
 20
0
 21
0.415
  0
LINE
  8
0
 10
-80.944
 11
-80.89
 20
0.415
 21
0.827
  0
LINE
  8
0
 10
-80.89
 11
-80.8
 20
0.827
 21
1.233
  0
LINE
  8
0
 10
-80.8
 11
-80.675
 20
1.233
 21
1.629
  0
LINE
  8
0
 10
-80.675
 11
-80.516
 20
1.629
 21
2.013
  0
LINE
  8
0
 10
-80.516
 11
-80.324
 20
2.013
 21
2.381
  0
LINE
  8
0
 10
-80.324
 11
-80.101
 20
2.381
 21
2.732
  0
LINE
  8
0
 10
-80.101
 11
-79.848
 20
2.732
 21
3.061
  0
LINE
  8
0
 10
-79.848
 11
-79.568
 20
3.061
 21
3.368
  0
LINE
  8
0
 10
-79.568
 11
-79.261
 20
3.368
 21
3.648
  0
LINE
  8
0
 10
-79.261
 11
-78.932
 20
3.648
 21
3.901
  0
LINE
  8
0
 10
-78.932
 11
-78.581
 20
3.901
 21
4.124
  0
LINE
  8
0
 10
-78.581
 11
-78.213
 20
4.124
 21
4.316
  0
LINE
  8
0
 10
-78.213
 11
-77.829
 20
4.316
 21
4.475
  0
LINE
  8
0
 10
-77.829
 11
-77.433
 20
4.475
 21
4.6
  0
LINE
  8
0
 10
-77.433
 11
-77.027
 20
4.6
 21
4.69
  0
LINE
  8
0
 10
-77.027
 11
-76.615
 20
4.69
 21
4.744
  0
LINE
  8
0
 10
-76.615
 11
-76.2
 20
4.744
 21
4.763
  0
LINE
  8
0
 10
-76.2
 11
-75.785
 20
4.763
 21
4.744
  0
LINE
  8
0
 10
-75.785
 11
-75.373
 20
4.744
 21
4.69
  0
LINE
  8
0
 10
-75.373
 11
-74.967
 20
4.69
 21
4.6
  0
LINE
  8
0
 10
-74.967
 11
-74.571
 20
4.6
 21
4.475
  0
LINE
  8
0
 10
-74.571
 11
-74.187
 20
4.475
 21
4.316
  0
LINE
  8
0
 10
-74.187
 11
-73.819
 20
4.316
 21
4.124
  0
LINE
  8
0
 10
-73.819
 11
-73.468
 20
4.124
 21
3.901
  0
LINE
  8
0
 10
-73.468
 11
-73.139
 20
3.901
 21
3.648
  0
LINE
  8
0
 10
-73.139
 11
-72.832
 20
3.648
 21
3.368
  0
LINE
  8
0
 10
-72.832
 11
-72.552
 20
3.368
 21
3.061
  0
LINE
  8
0
 10
-72.552
 11
-72.299
 20
3.061
 21
2.732
  0
LINE
  8
0
 10
-72.299
 11
-72.076
 20
2.732
 21
2.381
  0
LINE
  8
0
 10
-72.076
 11
-71.884
 20
2.381
 21
2.013
  0
LINE
  8
0
 10
-71.884
 11
-71.725
 20
2.013
 21
1.629
  0
LINE
  8
0
 10
-71.725
 11
-71.6
 20
1.629
 21
1.233
  0
LINE
  8
0
 10
-71.6
 11
-71.51
 20
1.233
 21
0.827
  0
LINE
  8
0
 10
-71.51
 11
-71.456
 20
0.827
 21
0.415
  0
LINE
  8
0
 10
-71.456
 11
-71.437
 20
0.415
 21
0
  0
LINE
  8
0
 10
-71.437
 11
-71.456
 20
0
 21
-0.415
  0
LINE
  8
0
 10
-71.456
 11
-71.51
 20
-0.415
 21
-0.827
  0
LINE
  8
0
 10
-71.51
 11
-71.6
 20
-0.827
 21
-1.233
  0
LINE
  8
0
 10
-71.6
 11
-71.725
 20
-1.233
 21
-1.629
  0
LINE
  8
0
 10
-71.725
 11
-71.884
 20
-1.629
 21
-2.013
  0
LINE
  8
0
 10
-71.884
 11
-72.076
 20
-2.013
 21
-2.381
  0
LINE
  8
0
 10
-72.076
 11
-72.299
 20
-2.381
 21
-2.732
  0
LINE
  8
0
 10
-72.299
 11
-72.552
 20
-2.732
 21
-3.061
  0
LINE
  8
0
 10
-72.552
 11
-72.832
 20
-3.061
 21
-3.368
  0
LINE
  8
0
 10
-72.832
 11
-73.139
 20
-3.368
 21
-3.648
  0
LINE
  8
0
 10
-73.139
 11
-73.468
 20
-3.648
 21
-3.901
  0
LINE
  8
0
 10
-73.468
 11
-73.819
 20
-3.901
 21
-4.124
  0
LINE
  8
0
 10
-73.819
 11
-74.187
 20
-4.124
 21
-4.316
  0
LINE
  8
0
 10
-74.187
 11
-74.571
 20
-4.316
 21
-4.475
  0
LINE
  8
0
 10
-74.571
 11
-74.967
 20
-4.475
 21
-4.6
  0
LINE
  8
0
 10
-74.967
 11
-75.373
 20
-4.6
 21
-4.69
  0
LINE
  8
0
 10
-75.373
 11
-75.785
 20
-4.69
 21
-4.744
  0
LINE
  8
0
 10
-75.785
 11
-76.2
 20
-4.744
 21
-4.763
  0
LINE
  8
0
 10
-76.2
 11
-76.615
 20
-4.763
 21
-4.744
  0
LINE
  8
0
 10
-76.615
 11
-77.027
 20
-4.744
 21
-4.69
  0
LINE
  8
0
 10
-77.027
 11
-77.433
 20
-4.69
 21
-4.6
  0
LINE
  8
0
 10
-77.433
 11
-77.829
 20
-4.6
 21
-4.475
  0
LINE
  8
0
 10
-77.829
 11
-78.213
 20
-4.475
 21
-4.316
  0
LINE
  8
0
 10
-78.213
 11
-78.581
 20
-4.316
 21
-4.124
  0
LINE
  8
0
 10
-78.581
 11
-78.932
 20
-4.124
 21
-3.901
  0
LINE
  8
0
 10
-78.932
 11
-79.261
 20
-3.901
 21
-3.648
  0
LINE
  8
0
 10
-79.261
 11
-79.568
 20
-3.648
 21
-3.368
  0
LINE
  8
0
 10
-79.568
 11
-79.848
 20
-3.368
 21
-3.061
  0
LINE
  8
0
 10
-79.848
 11
-80.101
 20
-3.061
 21
-2.732
  0
LINE
  8
0
 10
-80.101
 11
-80.324
 20
-2.732
 21
-2.381
  0
LINE
  8
0
 10
-80.324
 11
-80.516
 20
-2.381
 21
-2.013
  0
LINE
  8
0
 10
-80.516
 11
-80.675
 20
-2.013
 21
-1.629
  0
LINE
  8
0
 10
-80.675
 11
-80.8
 20
-1.629
 21
-1.233
  0
LINE
  8
0
 10
-80.8
 11
-80.89
 20
-1.233
 21
-0.827
  0
LINE
  8
0
 10
-80.89
 11
-80.944
 20
-0.827
 21
-0.415
  0
LINE
  8
0
 10
-80.944
 11
-80.963
 20
-0.415
 21
0
  0
LINE
  8
0
 10
71.437
 11
71.456
 20
0
 21
0.415
  0
LINE
  8
0
 10
71.456
 11
71.51
 20
0.415
 21
0.827
  0
LINE
  8
0
 10
71.51
 11
71.6
 20
0.827
 21
1.233
  0
LINE
  8
0
 10
71.6
 11
71.725
 20
1.233
 21
1.629
  0
LINE
  8
0
 10
71.725
 11
71.884
 20
1.629
 21
2.013
  0
LINE
  8
0
 10
71.884
 11
72.076
 20
2.013
 21
2.381
  0
LINE
  8
0
 10
72.076
 11
72.299
 20
2.381
 21
2.732
  0
LINE
  8
0
 10
72.299
 11
72.552
 20
2.732
 21
3.061
  0
LINE
  8
0
 10
72.552
 11
72.832
 20
3.061
 21
3.368
  0
LINE
  8
0
 10
72.832
 11
73.139
 20
3.368
 21
3.648
  0
LINE
  8
0
 10
73.139
 11
73.468
 20
3.648
 21
3.901
  0
LINE
  8
0
 10
73.468
 11
73.819
 20
3.901
 21
4.124
  0
LINE
  8
0
 10
73.819
 11
74.187
 20
4.124
 21
4.316
  0
LINE
  8
0
 10
74.187
 11
74.571
 20
4.316
 21
4.475
  0
LINE
  8
0
 10
74.571
 11
74.967
 20
4.475
 21
4.6
  0
LINE
  8
0
 10
74.967
 11
75.373
 20
4.6
 21
4.69
  0
LINE
  8
0
 10
75.373
 11
75.785
 20
4.69
 21
4.744
  0
LINE
  8
0
 10
75.785
 11
76.2
 20
4.744
 21
4.763
  0
LINE
  8
0
 10
76.2
 11
76.615
 20
4.763
 21
4.744
  0
LINE
  8
0
 10
76.615
 11
77.027
 20
4.744
 21
4.69
  0
LINE
  8
0
 10
77.027
 11
77.433
 20
4.69
 21
4.6
  0
LINE
  8
0
 10
77.433
 11
77.829
 20
4.6
 21
4.475
  0
LINE
  8
0
 10
77.829
 11
78.213
 20
4.475
 21
4.316
  0
LINE
  8
0
 10
78.213
 11
78.581
 20
4.316
 21
4.124
  0
LINE
  8
0
 10
78.581
 11
78.932
 20
4.124
 21
3.901
  0
LINE
  8
0
 10
78.932
 11
79.261
 20
3.901
 21
3.648
  0
LINE
  8
0
 10
79.261
 11
79.568
 20
3.648
 21
3.368
  0
LINE
  8
0
 10
79.568
 11
79.848
 20
3.368
 21
3.061
  0
LINE
  8
0
 10
79.848
 11
80.101
 20
3.061
 21
2.732
  0
LINE
  8
0
 10
80.101
 11
80.324
 20
2.732
 21
2.381
  0
LINE
  8
0
 10
80.324
 11
80.516
 20
2.381
 21
2.013
  0
LINE
  8
0
 10
80.516
 11
80.675
 20
2.013
 21
1.629
  0
LINE
  8
0
 10
80.675
 11
80.8
 20
1.629
 21
1.233
  0
LINE
  8
0
 10
80.8
 11
80.89
 20
1.233
 21
0.827
  0
LINE
  8
0
 10
80.89
 11
80.944
 20
0.827
 21
0.415
  0
LINE
  8
0
 10
80.944
 11
80.963
 20
0.415
 21
0
  0
LINE
  8
0
 10
80.963
 11
80.944
 20
0
 21
-0.415
  0
LINE
  8
0
 10
80.944
 11
80.89
 20
-0.415
 21
-0.827
  0
LINE
  8
0
 10
80.89
 11
80.8
 20
-0.827
 21
-1.233
  0
LINE
  8
0
 10
80.8
 11
80.675
 20
-1.233
 21
-1.629
  0
LINE
  8
0
 10
80.675
 11
80.516
 20
-1.629
 21
-2.013
  0
LINE
  8
0
 10
80.516
 11
80.324
 20
-2.013
 21
-2.381
  0
LINE
  8
0
 10
80.324
 11
80.101
 20
-2.381
 21
-2.732
  0
LINE
  8
0
 10
80.101
 11
79.848
 20
-2.732
 21
-3.061
  0
LINE
  8
0
 10
79.848
 11
79.568
 20
-3.061
 21
-3.368
  0
LINE
  8
0
 10
79.568
 11
79.261
 20
-3.368
 21
-3.648
  0
LINE
  8
0
 10
79.261
 11
78.932
 20
-3.648
 21
-3.901
  0
LINE
  8
0
 10
78.932
 11
78.581
 20
-3.901
 21
-4.124
  0
LINE
  8
0
 10
78.581
 11
78.213
 20
-4.124
 21
-4.316
  0
LINE
  8
0
 10
78.213
 11
77.829
 20
-4.316
 21
-4.475
  0
LINE
  8
0
 10
77.829
 11
77.433
 20
-4.475
 21
-4.6
  0
LINE
  8
0
 10
77.433
 11
77.027
 20
-4.6
 21
-4.69
  0
LINE
  8
0
 10
77.027
 11
76.615
 20
-4.69
 21
-4.744
  0
LINE
  8
0
 10
76.615
 11
76.2
 20
-4.744
 21
-4.763
  0
LINE
  8
0
 10
76.2
 11
75.785
 20
-4.763
 21
-4.744
  0
LINE
  8
0
 10
75.785
 11
75.373
 20
-4.744
 21
-4.69
  0
LINE
  8
0
 10
75.373
 11
74.967
 20
-4.69
 21
-4.6
  0
LINE
  8
0
 10
74.967
 11
74.571
 20
-4.6
 21
-4.475
  0
LINE
  8
0
 10
74.571
 11
74.187
 20
-4.475
 21
-4.316
  0
LINE
  8
0
 10
74.187
 11
73.819
 20
-4.316
 21
-4.124
  0
LINE
  8
0
 10
73.819
 11
73.468
 20
-4.124
 21
-3.901
  0
LINE
  8
0
 10
73.468
 11
73.139
 20
-3.901
 21
-3.648
  0
LINE
  8
0
 10
73.139
 11
72.832
 20
-3.648
 21
-3.368
  0
LINE
  8
0
 10
72.832
 11
72.552
 20
-3.368
 21
-3.061
  0
LINE
  8
0
 10
72.552
 11
72.299
 20
-3.061
 21
-2.732
  0
LINE
  8
0
 10
72.299
 11
72.076
 20
-2.732
 21
-2.381
  0
LINE
  8
0
 10
72.076
 11
71.884
 20
-2.381
 21
-2.013
  0
LINE
  8
0
 10
71.884
 11
71.725
 20
-2.013
 21
-1.629
  0
LINE
  8
0
 10
71.725
 11
71.6
 20
-1.629
 21
-1.233
  0
LINE
  8
0
 10
71.6
 11
71.51
 20
-1.233
 21
-0.827
  0
LINE
  8
0
 10
71.51
 11
71.456
 20
-0.827
 21
-0.415
  0
LINE
  8
0
 10
71.456
 11
71.437
 20
-0.415
 21
0
  0
ENDSEC
  0
SECTION
  2
OBJECTS
  0
DICTIONARY
  0
ENDSEC
  0
EOF
