<?xml version="1.0" encoding="UTF-8" standalone="no"?>
<!-- Created with Inkscape (http://www.inkscape.org/) -->

<svg
   xmlns:dc="http://purl.org/dc/elements/1.1/"
   xmlns:cc="http://creativecommons.org/ns#"
   xmlns:rdf="http://www.w3.org/1999/02/22-rdf-syntax-ns#"
   xmlns:svg="http://www.w3.org/2000/svg"
   xmlns="http://www.w3.org/2000/svg"
   xmlns:sodipodi="http://sodipodi.sourceforge.net/DTD/sodipodi-0.dtd"
   xmlns:inkscape="http://www.inkscape.org/namespaces/inkscape"
   width="990"
   height="765"
   id="svg4002"
   version="1.1"
   inkscape:version="0.48.1 r9760"
   sodipodi:docname="ak47.svg">
  <defs
     id="defs4004" />
  <sodipodi:namedview
     id="base"
     pagecolor="#ffffff"
     bordercolor="#666666"
     borderopacity="1.0"
     inkscape:pageopacity="0.0"
     inkscape:pageshadow="2"
     inkscape:zoom="22.627417"
     inkscape:cx="375.42607"
     inkscape:cy="286.05046"
     inkscape:document-units="mm"
     inkscape:current-layer="layer1"
     showgrid="false"
     units="mm"
     inkscape:window-width="1680"
     inkscape:window-height="1002"
     inkscape:window-x="0"
     inkscape:window-y="0"
     inkscape:window-maximized="0"
     showguides="true"
     inkscape:guide-bbox="true">
    <sodipodi:guide
       orientation="0,1"
       position="428.06477,283.46457"
       id="guide4188" />
    <sodipodi:guide
       orientation="0,1"
       position="423.55696,287.00787"
       id="guide4190" />
    <sodipodi:guide
       orientation="0,1"
       position="427.35766,279.92126"
       id="guide4192" />
    <sodipodi:guide
       orientation="1,0"
       position="389.76378,274.79937"
       id="guide4194" />
    <sodipodi:guide
       orientation="1,0"
       position="396.85039,279.92126"
       id="guide4196" />
    <sodipodi:guide
       orientation="1,0"
       position="391.53543,272.32441"
       id="guide4201" />
    <sodipodi:guide
       orientation="1,0"
       position="395.07874,268.78819"
       id="guide4203" />
    <sodipodi:guide
       orientation="0,1"
       position="422.05436,285.23622"
       id="guide4205" />
    <sodipodi:guide
       orientation="0,1"
       position="426.20861,281.69291"
       id="guide4207" />
    <sodipodi:guide
       orientation="1,0"
       position="414.4375,184.9375"
       id="guide4215" />
  </sodipodi:namedview>
  <metadata
     id="metadata4007">
    <rdf:RDF>
      <cc:Work
         rdf:about="">
        <dc:format>image/svg+xml</dc:format>
        <dc:type
           rdf:resource="http://purl.org/dc/dcmitype/StillImage" />
        <dc:title></dc:title>
      </cc:Work>
    </rdf:RDF>
  </metadata>
  <g
     inkscape:label="Layer 1"
     inkscape:groupmode="layer"
     id="layer1"
     transform="translate(0,-287.36232)">
    <path
       style="fill:none;stroke:#000000;stroke-width:0.28407654"
       d="m 393.3125,478 c -1.95691,0 -3.5625,1.57434 -3.5625,3.53125 0,0.085 0.008,-0.0793 0.0138,0.004 -1.81755,0.0756 -3.50034,-0.0186 -4.60758,0 -4.32388,0.0726 -4.8125,0.64448 -4.8125,2.18332 0,1.35309 1.19519,4.91939 3.34375,10.03125 1.15345,2.14708 2.51337,5.25997 2.95868,6.53282 0.50002,0.7578 3.85218,9.01348 6.35382,15.90468 0.83123,2.28975 2.09359,5.71715 2.8125,7.625 1.59177,4.22419 1.69209,5.55489 0.46875,6.1875 -1.14543,0.59233 -1.98325,0.54465 -3.15625,-0.1875 -0.54684,-0.34132 -1.37503,-0.83661 -1.84375,-1.09375 -1.32898,-0.72904 -5.92436,-3.67238 -6.09375,-3.90625 -0.0835,-0.11534 -0.66696,-0.46549 -1.3125,-0.75 -0.96976,-0.4274 -1.28787,-0.44184 -1.84375,-0.15625 -0.93184,0.95936 -1.57915,3.05772 -1.89829,3.26739 -0.69986,1.2828 -0.88235,1.74735 -1.22671,2.35756 0.0338,3.32193 0.17684,3.75 1.25,3.75 0.73151,0 3.9806,1.6289 5.15625,2.59375 0.15667,0.12858 1.65088,1.12497 3.3125,2.21875 2.11225,1.39042 3.13091,2.25447 3.375,2.84375 0.38884,0.93874 0.21822,1.71875 -0.375,1.71875 -0.87462,0 -1.08421,1.40139 -0.875,5.625 0.1966,3.96938 0.21278,4.13465 1,5.03125 0.44675,0.50881 0.8125,1.18375 0.8125,1.5 0,0.4746 -0.23369,0.58874 -1.40625,0.75 -1.48782,0.20463 -1.68628,0.71875 -0.28125,0.71875 0.44834,0 0.98103,0.16958 1.1875,0.375 0.20646,0.20543 0.62501,0.50707 0.9375,0.6875 0.53926,0.31139 0.52876,0.33575 -0.15625,0.34375 -0.95646,0.0114 -5.22969,1.40321 -8.21875,2.6875 -3.57708,1.53695 -9.6669,5.0826 -11.125,6.46875 -1.21212,1.15231 -3.04743,2.09976 -3.46875,2.625 -0.49866,0.71745 -1.54159,1.95178 -2.125,2.5625 -1.22173,1.27258 -2.96294,3.32042 -3.84375,4.5625 -0.9312,1.31314 -1.58875,2.57135 -1.59375,3 3.19315,3.46084 6.90172,5.40874 10.5937,7.5624 L 374.78125,585 c 3.94538,-4.98641 8.37642,-8.78623 13.15625,-11.3125 2.27698,-1.20345 7.40522,-2.90021 9.3125,-3.0625 l 1.5,-0.125 0.125,1.1875 c 0.0704,0.65956 0.1565,2.79545 0.1875,4.75 0.0563,3.55101 0.0756,3.55484 -0.78125,4.6875 -0.47161,0.62344 -0.871,1.44304 -0.875,1.8125 -0.004,0.36946 0.53353,1.85393 1.1875,3.28125 l 1.1875,2.59375 0.3125,11.65625 c 0.25451,9.81476 0.37014,11.75672 0.75,12.34375 0.3771,0.58275 0.4444,1.89822 0.5,7.90625 0.0493,5.32376 -0.0246,7.28455 -0.28125,7.59375 -0.26487,0.31916 -0.24905,0.57839 0,1.125 0.42112,0.92423 0.44912,21.78169 0.0312,22.5625 -0.38163,0.71307 -0.1524,1.21269 0.84375,1.78125 0.77845,0.44431 0.82745,0.59762 0.90625,2.40625 0.0809,1.85576 0.1326,1.9375 0.8125,1.9375 -0.0491,-0.006 1.80068,0.10816 1.78125,0.0937 l 0.90625,-0.0937 0.0937,-1.9375 c 0.0462,-1.05463 0.0931,-1.90125 0.125,-1.90625 0.0319,-0.005 1.92199,-0.0916 4.1875,-0.1875 2.50873,-0.10618 4.21663,-0.3084 4.34375,-0.5 0.11476,-0.17303 0.1855,-0.78199 0.1875,-1.375 0.006,-1.44537 -0.99185,-2.46875 -2.40625,-2.46875 -0.56077,0 -2.19621,-0.45315 -3.65625,-1 -1.46003,-0.54684 -2.81929,-1 -3,-1 -0.24444,0 -0.27064,-1.52096 -0.125,-5.90625 0.17332,-5.21873 0.25108,-6.06236 0.8125,-7.34375 0.67587,-1.54263 1.7398,-2.70417 3.125,-3.4375 1.55739,-0.82456 1.5525,-0.74554 1.5625,-9.53125 0.008,-6.95314 0.0857,-8.15625 0.4375,-8.15625 0.24141,0 0.46161,-0.3669 0.5625,-0.90625 0.095,-0.50779 0.18945,-5.9618 0.21875,-12.09375 l 0.0625,-11.15625 0.65625,0 c 0.76571,-10e-4 1.00063,-1.04483 0.90635,-2.125 0,0 10e-6,-1.53883 0,-1 0,0 -10e-6,-0.64809 0,-1.0625 0,-0.70703 0,-5.73226 0,-6.15625 3e-5,-0.46566 0,-0.52971 0,-1.28125 0,-0.20726 -0.002,-0.74771 0,-1.625 0.002,-0.753 0,-0.31657 -1.0939,-0.40625 -0.65946,-0.0541 -1.1752,-0.009 -1.1875,-0.0312 -0.0123,-0.0225 -0.1073,-9.25059 -0.1875,-20.8125 l -0.125,-21.03125 -0.90625,-1.125 c -0.48916,-0.62497 -1.16598,-1.39526 -1.53125,-1.6875 -0.36528,-0.29223 -0.60955,-0.67088 -0.53125,-0.875 0.0783,-0.20413 -0.0491,-0.52605 -0.28125,-0.71875 -0.2322,-0.1927 -0.36065,-0.54296 -0.28125,-0.75 0.11633,-0.30312 0.0358,-0.30732 -0.40625,-0.0312 -1.08335,0.67656 -1.56171,-0.39585 -2.78125,-6.28125 -0.83182,-4.01452 -1.05121,-5.5225 -0.8125,-5.71875 0.17835,-0.14662 0.63728,-0.50521 1,-0.78125 l 0.65625,-0.5 -0.625,-5.09375 c -0.33399,-2.80969 -0.72657,-6.28132 -0.875,-7.6875 -0.14845,-1.40618 -0.50434,-4.46887 -0.8125,-6.8125 -0.30816,-2.34364 -0.76465,-5.73447 -1,-7.53125 -0.65695,-5.0153 -0.94128,-6.19251 -1.625,-6.55842 -0.35656,-0.19089 -1.55887,-0.21728 -4.1875,-0.0978 -0.0502,-1.91314 -1.606,-3.4375 -3.53125,-3.4375 z m 0,1.75 c 0.97846,0 1.78125,0.80279 1.78125,1.78125 0,0.97846 -0.80279,1.78125 -1.78125,1.78125 -0.97846,0 -1.78125,-0.80279 -1.78125,-1.78125 0,-0.97846 0.80279,-1.78125 1.78125,-1.78125 z m 4.15625,62.53125 -0.53125,0.625 c -1.01884,1.23312 -1.29124,1.4375 -1.9375,1.4375 -1.00135,0 -2.55414,1.40547 -2.65625,2.40625 l -0.0937,0.875 0.59375,-0.9375 c 1.04784,-1.6686 2.89126,-1.84375 4.5625,-0.4375 0.83192,0.70001 0.84375,0.76121 0.84375,3.5 l 0,2.78125 -1.21875,0.15625 c -1.09183,0.14973 -3.77295,0.27995 -4.6875,0.21875 -0.19917,-0.0133 -0.46344,-0.33596 -0.59375,-0.6875 -0.37892,-1.02228 -0.59761,-7.65192 -0.28125,-8.5 0.36318,-0.97364 0.75208,-1.09212 3.625,-1.28125 z"
       transform="translate(0,287.36232)"
       id="path4075"
       inkscape:connector-curvature="0"
       sodipodi:nodetypes="ssccsccsssscsscccsssssssssscccssccscccscccssccccsssccsscccccsccsssssccsccccccccsscccccccccsccccccssccsscsssccscccsscccccccc" />
  </g>
</svg>
