<?xml version="1.0" encoding="UTF-8" standalone="no"?>
<!-- Created with Inkscape (http://www.inkscape.org/) -->

<svg
   xmlns:dc="http://purl.org/dc/elements/1.1/"
   xmlns:cc="http://creativecommons.org/ns#"
   xmlns:rdf="http://www.w3.org/1999/02/22-rdf-syntax-ns#"
   xmlns:svg="http://www.w3.org/2000/svg"
   xmlns="http://www.w3.org/2000/svg"
   xmlns:sodipodi="http://sodipodi.sourceforge.net/DTD/sodipodi-0.dtd"
   xmlns:inkscape="http://www.inkscape.org/namespaces/inkscape"
   width="990"
   height="765"
   id="svg3642"
   version="1.1"
   inkscape:version="0.48.1 r9760"
   sodipodi:docname="branches_and_roots.svg">
  <defs
     id="defs3644" />
  <sodipodi:namedview
     id="base"
     pagecolor="#ffffff"
     bordercolor="#666666"
     borderopacity="1.0"
     inkscape:pageopacity="0.0"
     inkscape:pageshadow="2"
     inkscape:zoom="4"
     inkscape:cx="434.82807"
     inkscape:cy="445.09287"
     inkscape:document-units="mm"
     inkscape:current-layer="layer1"
     showgrid="false"
     units="mm"
     showguides="false"
     inkscape:guide-bbox="true"
     inkscape:window-width="1680"
     inkscape:window-height="1002"
     inkscape:window-x="0"
     inkscape:window-y="0"
     inkscape:window-maximized="0">
    <sodipodi:guide
       orientation="1,0"
       position="354.33071,371"
       id="guide3650" />
    <sodipodi:guide
       orientation="0,1"
       position="513,354.33071"
       id="guide3652" />
    <sodipodi:guide
       orientation="1,0"
       position="496.06299,397.39401"
       id="guide3654" />
    <sodipodi:guide
       orientation="0,1"
       position="461.03362,496.06299"
       id="guide3656" />
    <sodipodi:guide
       orientation="0,1"
       position="475.52931,361.41732"
       id="guide3658" />
    <sodipodi:guide
       orientation="0,1"
       position="474.1151,488.97638"
       id="guide3660" />
    <sodipodi:guide
       orientation="1,0"
       position="361.41732,456.08387"
       id="guide3662" />
    <sodipodi:guide
       orientation="1,0"
       position="488.97638,452.54834"
       id="guide3664" />
    <sodipodi:guide
       orientation="1,0"
       position="425.19685,445.47727"
       id="guide3666" />
    <sodipodi:guide
       orientation="0,1"
       position="300.16683,425.19685"
       id="guide3668" />
    <sodipodi:guide
       orientation="0,1"
       position="521.49125,442.91339"
       id="guide3674" />
    <sodipodi:guide
       orientation="0,1"
       position="534.92628,407.48031"
       id="guide3676" />
    <sodipodi:guide
       orientation="1,0"
       position="372.04724,393.85848"
       id="guide3678" />
    <sodipodi:guide
       orientation="1,0"
       position="478.34646,383.25188"
       id="guide3680" />
    <sodipodi:guide
       orientation="0,1"
       position="549.06842,403.93701"
       id="guide3682" />
    <sodipodi:guide
       orientation="0,1"
       position="549.06842,400.3937"
       id="guide3684" />
    <sodipodi:guide
       orientation="0,1"
       position="546.59354,396.85039"
       id="guide3686" />
    <sodipodi:guide
       orientation="0,1"
       position="544.11867,393.30709"
       id="guide3688" />
    <sodipodi:guide
       orientation="0,1"
       position="543.05801,389.76378"
       id="guide3690" />
    <sodipodi:guide
       orientation="0,1"
       position="543.76512,386.22047"
       id="guide3692" />
    <sodipodi:guide
       orientation="1,0"
       position="375.59055,407.48031"
       id="guide3694" />
    <sodipodi:guide
       orientation="1,0"
       position="379.13386,425.19685"
       id="guide3696" />
    <sodipodi:guide
       orientation="1,0"
       position="382.67717,417.54655"
       id="guide3698" />
    <sodipodi:guide
       orientation="1,0"
       position="386.22047,416.13234"
       id="guide3700" />
    <sodipodi:guide
       orientation="1,0"
       position="389.76378,417.54655"
       id="guide3702" />
    <sodipodi:guide
       orientation="1,0"
       position="474.80315,414.71813"
       id="guide3704" />
    <sodipodi:guide
       orientation="1,0"
       position="471.25984,425.19685"
       id="guide3706" />
    <sodipodi:guide
       orientation="1,0"
       position="467.71654,417.54655"
       id="guide3708" />
    <sodipodi:guide
       orientation="1,0"
       position="464.17323,425.19685"
       id="guide3710" />
    <sodipodi:guide
       orientation="1,0"
       position="460.62992,407.48031"
       id="guide3712" />
    <sodipodi:guide
       orientation="1,0"
       position="457.08661,417.193"
       id="guide3714" />
    <sodipodi:guide
       orientation="1,0"
       position="393.30709,407.48031"
       id="guide3716" />
    <sodipodi:guide
       orientation="1,0"
       position="396.85039,456.43743"
       id="guide3741" />
    <sodipodi:guide
       orientation="1,0"
       position="400.3937,465.27626"
       id="guide3743" />
    <sodipodi:guide
       orientation="1,0"
       position="403.93701,458.55875"
       id="guide3745" />
    <sodipodi:guide
       orientation="1,0"
       position="407.48031,464.56916"
       id="guide3747" />
    <sodipodi:guide
       orientation="1,0"
       position="411.02362,456.08387"
       id="guide3749" />
    <sodipodi:guide
       orientation="1,0"
       position="414.56693,460.68007"
       id="guide3751" />
    <sodipodi:guide
       orientation="1,0"
       position="414.56693,461.74073"
       id="guide3753" />
    <sodipodi:guide
       orientation="1,0"
       position="418.11024,471.28667"
       id="guide3755" />
    <sodipodi:guide
       orientation="1,0"
       position="421.65354,467.04403"
       id="guide3757" />
    <sodipodi:guide
       orientation="1,0"
       position="428.74016,466.69048"
       id="guide3759" />
    <sodipodi:guide
       orientation="1,0"
       position="432.28346,466.69048"
       id="guide3761" />
    <sodipodi:guide
       orientation="1,0"
       position="435.82677,469.5189"
       id="guide3763" />
    <sodipodi:guide
       orientation="1,0"
       position="439.37008,463.5085"
       id="guide3765" />
    <sodipodi:guide
       orientation="1,0"
       position="442.91339,460.32651"
       id="guide3767" />
    <sodipodi:guide
       orientation="1,0"
       position="446.45669,462.09428"
       id="guide3769" />
    <sodipodi:guide
       orientation="1,0"
       position="450,461.38718"
       id="guide3771" />
    <sodipodi:guide
       orientation="1,0"
       position="453.54331,461.38718"
       id="guide3773" />
    <sodipodi:guide
       orientation="0,1"
       position="336.7596,357.87402"
       id="guide3793" />
    <sodipodi:guide
       orientation="0,1"
       position="337.99704,382.67717"
       id="guide3795" />
    <sodipodi:guide
       orientation="0,1"
       position="507.70267,446.45669"
       id="guide3804" />
    <sodipodi:guide
       orientation="0,1"
       position="511.41498,450"
       id="guide3806" />
    <sodipodi:guide
       orientation="0,1"
       position="510.5311,453.54331"
       id="guide3808" />
    <sodipodi:guide
       orientation="0,1"
       position="510.88465,457.08661"
       id="guide3810" />
    <sodipodi:guide
       orientation="0,1"
       position="510.70787,460.62992"
       id="guide3812" />
    <sodipodi:guide
       orientation="0,1"
       position="514.59696,464.17323"
       id="guide3814" />
    <sodipodi:guide
       orientation="0,1"
       position="515.30407,467.71654"
       id="guide3816" />
    <sodipodi:guide
       orientation="0,1"
       position="511.94531,471.25984"
       id="guide3818" />
    <sodipodi:guide
       orientation="0,1"
       position="508.76333,492.51969"
       id="guide3841" />
    <sodipodi:guide
       orientation="0,1"
       position="486.57785,490.74803"
       id="guide3881" />
    <sodipodi:guide
       orientation="1,0"
       position="476.5748,506.11168"
       id="guide3883" />
    <sodipodi:guide
       orientation="0,1"
       position="529.25,499.6063"
       id="guide3964" />
    <sodipodi:guide
       orientation="1,0"
       position="423.4252,514.25"
       id="guide3971" />
    <sodipodi:guide
       orientation="1,0"
       position="426.9685,510"
       id="guide3973" />
    <sodipodi:guide
       orientation="0,1"
       position="301.75,497.83465"
       id="guide3975" />
    <sodipodi:guide
       orientation="0,1"
       position="309.75,494.29134"
       id="guide3977" />
  </sodipodi:namedview>
  <metadata
     id="metadata3647">
    <rdf:RDF>
      <cc:Work
         rdf:about="">
        <dc:format>image/svg+xml</dc:format>
        <dc:type
           rdf:resource="http://purl.org/dc/dcmitype/StillImage" />
      </cc:Work>
    </rdf:RDF>
  </metadata>
  <g
     inkscape:label="Layer 1"
     inkscape:groupmode="layer"
     id="layer1"
     transform="translate(0,-287.36218)">
    <path
       style="fill:none;stroke:#000000;stroke-width:0.35433072;stroke-miterlimit:4;stroke-opacity:1;stroke-dasharray:none"
       d="M 425.1875 265.40625 C 423.23058 265.40625 421.65625 266.98059 421.65625 268.9375 C 421.65625 268.96917 421.65542 268.99978 421.65625 269.03125 C 384.15583 270.8677 354.34375 301.85549 354.34375 339.8125 C 354.34375 378.95079 386.04921 410.65625 425.1875 410.65625 C 464.32579 410.65625 496.0625 378.95079 496.0625 339.8125 C 496.0625 301.86594 466.23766 270.88324 428.75 269.03125 C 428.75081 269.00007 428.75 268.96887 428.75 268.9375 C 428.75 266.98059 427.14442 265.40625 425.1875 265.40625 z M 425.1875 267.15625 C 426.16596 267.15625 426.96875 267.95904 426.96875 268.9375 C 426.96875 269.91596 426.16596 270.71875 425.1875 270.71875 C 424.20904 270.71875 423.4375 269.91596 423.4375 268.9375 C 423.4375 267.95904 424.20904 267.15625 425.1875 267.15625 z M 425.1875 276.03125 C 427.58288 276.03125 429.95442 276.18026 432.28125 276.4375 L 432.28125 295.5 C 432.28125 296.48149 431.51275 297.28125 430.53125 297.28125 L 419.875 297.28125 C 418.8935 297.28125 418.125 296.48149 418.125 295.5 L 418.125 276.4375 C 420.44185 276.18251 422.80274 276.03125 425.1875 276.03125 z M 414.5625 276.9375 L 414.5625 298.8125 C 414.5625 298.85539 414.56022 298.89529 414.5625 298.9375 C 414.55984 298.97742 414.5625 299.02189 414.5625 299.0625 C 414.5625 299.92131 415.15998 300.61659 415.96875 300.78125 C 416.08429 300.80813 416.22106 300.8125 416.34375 300.8125 L 412.78125 300.8125 C 411.79975 300.8125 411.03125 300.01274 411.03125 299.03125 L 411.03125 277.625 C 412.20003 277.35981 413.37032 277.13751 414.5625 276.9375 z M 435.8125 276.9375 C 437.01475 277.1392 438.19656 277.35703 439.375 277.625 C 439.37003 277.67886 439.375 277.72594 439.375 277.78125 L 439.375 299.03125 C 439.375 300.01274 438.6065 300.8125 437.625 300.8125 L 434.0625 300.8125 C 434.18519 300.8125 434.29071 300.80477 434.40625 300.78125 C 435.21502 300.61659 435.8125 299.92131 435.8125 299.0625 L 435.8125 276.9375 z M 407.46875 278.53125 L 407.46875 302.59375 C 407.46875 303.57524 408.26851 304.375 409.25 304.375 L 405.6875 304.375 C 404.706 304.375 403.9375 303.57524 403.9375 302.59375 L 403.9375 279.6875 C 405.09953 279.27692 406.27692 278.87529 407.46875 278.53125 z M 442.90625 278.53125 C 444.1076 278.87804 445.29768 279.27311 446.46875 279.6875 L 446.46875 302.59375 C 446.46875 303.57524 445.70025 304.375 444.71875 304.375 L 441.15625 304.375 C 441.27894 304.375 441.38446 304.36727 441.5 304.34375 C 442.30877 304.17909 442.90625 303.45256 442.90625 302.59375 L 442.90625 278.53125 z M 400.375 281.03125 C 400.38399 281.02745 400.39726 281.03505 400.40625 281.03125 L 400.40625 306.15625 C 400.40625 307.13774 401.17476 307.90625 402.15625 307.90625 L 398.59375 307.90625 C 397.61225 307.90625 396.84375 307.10649 396.84375 306.125 L 396.84375 282.65625 C 397.99666 282.08339 399.18381 281.53509 400.375 281.03125 z M 450 281.03125 C 451.19119 281.53509 452.37834 282.08339 453.53125 282.65625 L 453.53125 306.125 C 453.53125 307.10649 452.76275 307.90625 451.78125 307.90625 L 448.21875 307.90625 C 448.34144 307.90625 448.47821 307.89852 448.59375 307.875 C 449.40252 307.71034 450 307.01506 450 306.15625 L 450 281.03125 z M 393.3125 284.5625 L 393.3125 309.6875 C 393.3125 310.66899 394.11226 311.46875 395.09375 311.46875 L 391.5 311.46875 C 390.5185 311.46875 389.75 310.66899 389.75 309.6875 L 389.75 286.78125 C 390.90774 286.0061 392.10286 285.26217 393.3125 284.5625 z M 457.09375 284.59375 C 458.29051 285.28704 459.4791 286.01403 460.625 286.78125 L 460.625 309.6875 C 460.625 310.66899 459.8565 311.46875 458.875 311.46875 L 455.3125 311.46875 C 455.43519 311.46875 455.57196 311.42977 455.6875 311.40625 C 456.49627 311.24159 457.09375 310.54631 457.09375 309.6875 L 457.09375 284.59375 z M 386.21875 289.34375 L 386.21875 313.21875 C 386.21875 314.20024 387.01851 315 388 315 L 384.4375 315 C 383.456 315 382.6875 314.20024 382.6875 313.21875 L 382.6875 292.28125 C 383.8282 291.26024 385.00638 290.28161 386.21875 289.34375 z M 464.1875 289.34375 C 465.3993 290.28191 466.57862 291.25999 467.71875 292.28125 L 467.71875 313.21875 C 467.71875 314.20024 466.95025 315 465.96875 315 L 462.40625 315 C 462.52894 315 462.63446 314.99227 462.75 314.96875 C 463.55877 314.80409 464.1875 314.07756 464.1875 313.21875 L 464.1875 289.34375 z M 379.125 295.71875 L 379.125 316.78125 C 379.125 317.76274 379.92476 318.53125 380.90625 318.53125 L 377.34375 318.53125 C 376.36225 318.53125 375.59375 317.73149 375.59375 316.75 L 375.59375 299.71875 C 376.71347 298.33585 377.89548 297.0026 379.125 295.71875 z M 471.25 295.71875 C 472.48962 297.01313 473.68452 298.35495 474.8125 299.75 L 474.8125 316.75 C 474.8125 317.73149 474.044 318.53125 473.0625 318.53125 L 469.5 318.53125 C 469.62269 318.53125 469.72821 318.52352 469.84375 318.5 C 470.65252 318.33534 471.25 317.64006 471.25 316.78125 L 471.25 295.71875 z M 372.0625 304.53125 L 372.0625 320.3125 C 372.0625 321.29399 372.83101 322.09375 373.8125 322.09375 L 418.125 322.09375 L 418.125 357.53125 L 373.8125 357.53125 C 372.83101 357.53125 372.0625 358.29976 372.0625 359.28125 L 372.0625 373.46875 L 372.0625 375.09375 C 365.33746 364.98772 361.40625 352.86136 361.40625 339.8125 C 361.40625 326.76364 365.33746 314.63728 372.0625 304.53125 z M 478.34375 304.59375 C 485.04545 314.68831 488.96875 326.78834 488.96875 339.8125 C 488.96875 352.83666 485.04545 364.93669 478.34375 375.03125 L 478.34375 359.28125 C 478.34375 358.29976 477.54399 357.53125 476.5625 357.53125 L 432.28125 357.53125 L 432.28125 322.09375 L 476.5625 322.09375 C 476.68519 322.09375 476.82196 322.08602 476.9375 322.0625 C 477.74627 321.89784 478.34375 321.17131 478.34375 320.3125 L 478.34375 304.59375 z M 377.34375 361.0625 L 380.90625 361.0625 C 379.92476 361.0625 379.125 361.86226 379.125 362.84375 L 379.125 383.90625 C 377.89548 382.6224 376.71347 381.28915 375.59375 379.90625 L 375.59375 377 L 375.59375 373.46875 L 375.59375 362.84375 C 375.59375 361.86226 376.36225 361.0625 377.34375 361.0625 z M 469.5 361.0625 L 473.0625 361.0625 C 474.044 361.0625 474.8125 361.86226 474.8125 362.84375 L 474.8125 377 L 474.8125 379.875 C 473.68452 381.27005 472.48962 382.61187 471.25 383.90625 L 471.25 362.84375 C 471.25 361.86226 470.48149 361.0625 469.5 361.0625 z M 384.4375 364.59375 L 388 364.59375 C 387.01851 364.59375 386.21875 365.39351 386.21875 366.375 L 386.21875 390.28125 C 385.00638 389.34339 383.8282 388.36476 382.6875 387.34375 L 382.6875 366.375 C 382.6875 365.39351 383.456 364.59375 384.4375 364.59375 z M 462.40625 364.59375 L 465.96875 364.59375 C 466.95025 364.59375 467.71875 365.39351 467.71875 366.375 L 467.71875 387.34375 C 466.57862 388.36501 465.3993 389.34309 464.1875 390.28125 L 464.1875 366.375 C 464.1875 365.39351 463.38774 364.59375 462.40625 364.59375 z M 391.5 368.15625 L 395.09375 368.15625 C 394.11226 368.15625 393.3125 368.92476 393.3125 369.90625 L 393.3125 395.0625 C 392.10286 394.36283 390.90774 393.6189 389.75 392.84375 L 389.75 369.9375 C 389.75 368.95601 390.5185 368.15625 391.5 368.15625 z M 455.3125 368.15625 L 458.875 368.15625 C 459.8565 368.15625 460.625 368.95601 460.625 369.9375 L 460.625 392.84375 C 459.4791 393.61097 458.29051 394.33796 457.09375 395.03125 L 457.09375 369.90625 C 457.09375 368.92476 456.29399 368.15625 455.3125 368.15625 z M 398.59375 371.6875 L 402.15625 371.6875 C 401.17476 371.6875 400.40625 372.48726 400.40625 373.46875 L 400.40625 398.59375 C 399.20579 398.08664 398.00536 397.54594 396.84375 396.96875 L 396.84375 373.46875 C 396.84375 372.48726 397.61225 371.6875 398.59375 371.6875 z M 448.21875 371.6875 L 451.78125 371.6875 C 452.76275 371.6875 453.53125 372.48726 453.53125 373.46875 L 453.53125 396.96875 C 452.37834 397.54161 451.19119 398.08991 450 398.59375 L 450 373.46875 C 450 372.48726 449.20024 371.6875 448.21875 371.6875 z M 405.6875 375.25 L 409.25 375.25 C 408.26851 375.25 407.46875 376.01851 407.46875 377 C 407.46875 377.0315 407.49839 377.06266 407.5 377.09375 C 407.49763 377.13614 407.46875 377.17567 407.46875 377.21875 L 407.46875 401.09375 C 406.27692 400.74971 405.09953 400.34808 403.9375 399.9375 L 403.9375 377.03125 C 403.9375 376.04976 404.706 375.25 405.6875 375.25 z M 441.15625 375.25 L 444.71875 375.25 C 445.70025 375.25 446.46875 376.04976 446.46875 377.03125 L 446.46875 399.9375 C 445.29768 400.35189 444.1076 400.74696 442.90625 401.09375 L 442.90625 377.21875 C 442.90625 377.14487 442.91315 377.07175 442.90625 377 C 442.90625 376.01851 442.13774 375.25 441.15625 375.25 z M 412.78125 378.78125 L 416.34375 378.78125 C 415.36226 378.78125 414.5625 379.58101 414.5625 380.5625 L 414.5625 402.6875 C 413.37032 402.48749 412.20003 402.26519 411.03125 402 L 411.03125 380.5625 C 411.03125 379.58101 411.79975 378.78125 412.78125 378.78125 z M 434.0625 378.78125 L 437.625 378.78125 C 438.6065 378.78125 439.375 379.58101 439.375 380.5625 L 439.375 402 C 438.19656 402.26797 437.01475 402.4858 435.8125 402.6875 L 435.8125 380.5625 C 435.8125 379.58101 435.04399 378.78125 434.0625 378.78125 z M 419.875 382.3125 L 430.53125 382.3125 C 431.51275 382.3125 432.28125 383.11226 432.28125 384.09375 L 432.28125 403.1875 C 429.95442 403.44474 427.58288 403.59375 425.1875 403.59375 C 422.80274 403.59375 420.44185 403.44249 418.125 403.1875 L 418.125 384.09375 C 418.125 383.11226 418.8935 382.3125 419.875 382.3125 z "
       transform="translate(0,287.36218)"
       id="path3670" />
  </g>
</svg>
