  0
SECTION
  2
BLOCKS
  0
ENDSEC
  0
SECTION
  2
ENTITIES
  0
LINE
  8
0
 10
-17.5
 11
-17.485
 20
0
 21
0.733
  0
LINE
  8
0
 10
-17.485
 11
-17.439
 20
0.733
 21
1.464
  0
LINE
  8
0
 10
-17.439
 11
-17.362
 20
1.464
 21
2.193
  0
LINE
  8
0
 10
-17.362
 11
-17.255
 20
2.193
 21
2.918
  0
LINE
  8
0
 10
-17.255
 11
-17.118
 20
2.918
 21
3.638
  0
LINE
  8
0
 10
-17.118
 11
-16.95
 20
3.638
 21
4.352
  0
LINE
  8
0
 10
-16.95
 11
-16.753
 20
4.352
 21
5.058
  0
LINE
  8
0
 10
-16.753
 11
-16.527
 20
5.058
 21
5.755
  0
LINE
  8
0
 10
-16.527
 11
-16.271
 20
5.755
 21
6.442
  0
LINE
  8
0
 10
-16.271
 11
-15.987
 20
6.442
 21
7.118
  0
LINE
  8
0
 10
-15.987
 11
-15.675
 20
7.118
 21
7.781
  0
LINE
  8
0
 10
-15.675
 11
-15.335
 20
7.781
 21
8.431
  0
LINE
  8
0
 10
-15.335
 11
-14.969
 20
8.431
 21
9.065
  0
LINE
  8
0
 10
-14.969
 11
-14.576
 20
9.065
 21
9.684
  0
LINE
  8
0
 10
-14.576
 11
-14.158
 20
9.684
 21
10.286
  0
LINE
  8
0
 10
-14.158
 11
-13.715
 20
10.286
 21
10.87
  0
LINE
  8
0
 10
-13.715
 11
-13.247
 20
10.87
 21
11.435
  0
LINE
  8
0
 10
-13.247
 11
-12.757
 20
11.435
 21
11.98
  0
LINE
  8
0
 10
-12.757
 11
-12.244
 20
11.98
 21
12.503
  0
LINE
  8
0
 10
-12.244
 11
-11.71
 20
12.503
 21
13.005
  0
LINE
  8
0
 10
-11.71
 11
-11.155
 20
13.005
 21
13.484
  0
LINE
  8
0
 10
-11.155
 11
-10.58
 20
13.484
 21
13.939
  0
LINE
  8
0
 10
-10.58
 11
-9.987
 20
13.939
 21
14.37
  0
LINE
  8
0
 10
-9.987
 11
-9.377
 20
14.37
 21
14.776
  0
LINE
  8
0
 10
-9.377
 11
-8.75
 20
14.776
 21
15.155
  0
LINE
  8
0
 10
-8.75
 11
-8.108
 20
15.155
 21
15.509
  0
LINE
  8
0
 10
-8.108
 11
-7.451
 20
15.509
 21
15.834
  0
LINE
  8
0
 10
-7.451
 11
-6.782
 20
15.834
 21
16.133
  0
LINE
  8
0
 10
-6.782
 11
-6.1
 20
16.133
 21
16.402
  0
LINE
  8
0
 10
-6.1
 11
-5.408
 20
16.402
 21
16.643
  0
LINE
  8
0
 10
-5.408
 11
-4.706
 20
16.643
 21
16.855
  0
LINE
  8
0
 10
-4.706
 11
-3.996
 20
16.855
 21
17.038
  0
LINE
  8
0
 10
-3.996
 11
-3.279
 20
17.038
 21
17.19
  0
LINE
  8
0
 10
-3.279
 11
-2.556
 20
17.19
 21
17.312
  0
LINE
  8
0
 10
-2.556
 11
-1.829
 20
17.312
 21
17.404
  0
LINE
  8
0
 10
-1.829
 11
-1.099
 20
17.404
 21
17.465
  0
LINE
  8
0
 10
-1.099
 11
-0.366
 20
17.465
 21
17.496
  0
LINE
  8
0
 10
-0.366
 11
0.366
 20
17.496
 21
17.496
  0
LINE
  8
0
 10
0.366
 11
1.099
 20
17.496
 21
17.465
  0
LINE
  8
0
 10
1.099
 11
1.829
 20
17.465
 21
17.404
  0
LINE
  8
0
 10
1.829
 11
2.556
 20
17.404
 21
17.312
  0
LINE
  8
0
 10
2.556
 11
3.279
 20
17.312
 21
17.19
  0
LINE
  8
0
 10
3.279
 11
3.996
 20
17.19
 21
17.038
  0
LINE
  8
0
 10
3.996
 11
4.706
 20
17.038
 21
16.855
  0
LINE
  8
0
 10
4.706
 11
5.408
 20
16.855
 21
16.643
  0
LINE
  8
0
 10
5.408
 11
6.1
 20
16.643
 21
16.402
  0
LINE
  8
0
 10
6.1
 11
6.782
 20
16.402
 21
16.133
  0
LINE
  8
0
 10
6.782
 11
7.451
 20
16.133
 21
15.834
  0
LINE
  8
0
 10
7.451
 11
8.108
 20
15.834
 21
15.509
  0
LINE
  8
0
 10
8.108
 11
8.75
 20
15.509
 21
15.155
  0
LINE
  8
0
 10
8.75
 11
9.377
 20
15.155
 21
14.776
  0
LINE
  8
0
 10
9.377
 11
9.987
 20
14.776
 21
14.37
  0
LINE
  8
0
 10
9.987
 11
10.58
 20
14.37
 21
13.939
  0
LINE
  8
0
 10
10.58
 11
11.155
 20
13.939
 21
13.484
  0
LINE
  8
0
 10
11.155
 11
11.71
 20
13.484
 21
13.005
  0
LINE
  8
0
 10
11.71
 11
12.244
 20
13.005
 21
12.503
  0
LINE
  8
0
 10
12.244
 11
12.757
 20
12.503
 21
11.98
  0
LINE
  8
0
 10
12.757
 11
13.247
 20
11.98
 21
11.435
  0
LINE
  8
0
 10
13.247
 11
13.715
 20
11.435
 21
10.87
  0
LINE
  8
0
 10
13.715
 11
14.158
 20
10.87
 21
10.286
  0
LINE
  8
0
 10
14.158
 11
14.576
 20
10.286
 21
9.684
  0
LINE
  8
0
 10
14.576
 11
14.969
 20
9.684
 21
9.065
  0
LINE
  8
0
 10
14.969
 11
15.335
 20
9.065
 21
8.431
  0
LINE
  8
0
 10
15.335
 11
15.675
 20
8.431
 21
7.781
  0
LINE
  8
0
 10
15.675
 11
15.987
 20
7.781
 21
7.118
  0
LINE
  8
0
 10
15.987
 11
16.271
 20
7.118
 21
6.442
  0
LINE
  8
0
 10
16.271
 11
16.527
 20
6.442
 21
5.755
  0
LINE
  8
0
 10
16.527
 11
16.753
 20
5.755
 21
5.058
  0
LINE
  8
0
 10
16.753
 11
16.95
 20
5.058
 21
4.352
  0
LINE
  8
0
 10
16.95
 11
17.118
 20
4.352
 21
3.638
  0
LINE
  8
0
 10
17.118
 11
17.255
 20
3.638
 21
2.918
  0
LINE
  8
0
 10
17.255
 11
17.362
 20
2.918
 21
2.193
  0
LINE
  8
0
 10
17.362
 11
17.439
 20
2.193
 21
1.464
  0
LINE
  8
0
 10
17.439
 11
17.485
 20
1.464
 21
0.733
  0
LINE
  8
0
 10
17.485
 11
17.5
 20
0.733
 21
0
  0
LINE
  8
0
 10
17.5
 11
17.485
 20
0
 21
-0.733
  0
LINE
  8
0
 10
17.485
 11
17.439
 20
-0.733
 21
-1.464
  0
LINE
  8
0
 10
17.439
 11
17.362
 20
-1.464
 21
-2.193
  0
LINE
  8
0
 10
17.362
 11
17.255
 20
-2.193
 21
-2.918
  0
LINE
  8
0
 10
17.255
 11
17.118
 20
-2.918
 21
-3.638
  0
LINE
  8
0
 10
17.118
 11
16.95
 20
-3.638
 21
-4.352
  0
LINE
  8
0
 10
16.95
 11
16.753
 20
-4.352
 21
-5.058
  0
LINE
  8
0
 10
16.753
 11
16.527
 20
-5.058
 21
-5.755
  0
LINE
  8
0
 10
16.527
 11
16.271
 20
-5.755
 21
-6.442
  0
LINE
  8
0
 10
16.271
 11
15.987
 20
-6.442
 21
-7.118
  0
LINE
  8
0
 10
15.987
 11
15.675
 20
-7.118
 21
-7.781
  0
LINE
  8
0
 10
15.675
 11
15.335
 20
-7.781
 21
-8.431
  0
LINE
  8
0
 10
15.335
 11
14.969
 20
-8.431
 21
-9.065
  0
LINE
  8
0
 10
14.969
 11
14.576
 20
-9.065
 21
-9.684
  0
LINE
  8
0
 10
14.576
 11
14.158
 20
-9.684
 21
-10.286
  0
LINE
  8
0
 10
14.158
 11
13.715
 20
-10.286
 21
-10.87
  0
LINE
  8
0
 10
13.715
 11
13.247
 20
-10.87
 21
-11.435
  0
LINE
  8
0
 10
13.247
 11
12.757
 20
-11.435
 21
-11.98
  0
LINE
  8
0
 10
12.757
 11
12.244
 20
-11.98
 21
-12.503
  0
LINE
  8
0
 10
12.244
 11
11.71
 20
-12.503
 21
-13.005
  0
LINE
  8
0
 10
11.71
 11
11.155
 20
-13.005
 21
-13.484
  0
LINE
  8
0
 10
11.155
 11
10.58
 20
-13.484
 21
-13.939
  0
LINE
  8
0
 10
10.58
 11
9.987
 20
-13.939
 21
-14.37
  0
LINE
  8
0
 10
9.987
 11
9.377
 20
-14.37
 21
-14.776
  0
LINE
  8
0
 10
9.377
 11
8.75
 20
-14.776
 21
-15.155
  0
LINE
  8
0
 10
8.75
 11
8.108
 20
-15.155
 21
-15.509
  0
LINE
  8
0
 10
8.108
 11
7.451
 20
-15.509
 21
-15.834
  0
LINE
  8
0
 10
7.451
 11
6.782
 20
-15.834
 21
-16.133
  0
LINE
  8
0
 10
6.782
 11
6.1
 20
-16.133
 21
-16.402
  0
LINE
  8
0
 10
6.1
 11
5.408
 20
-16.402
 21
-16.643
  0
LINE
  8
0
 10
5.408
 11
4.706
 20
-16.643
 21
-16.855
  0
LINE
  8
0
 10
4.706
 11
3.996
 20
-16.855
 21
-17.038
  0
LINE
  8
0
 10
3.996
 11
3.279
 20
-17.038
 21
-17.19
  0
LINE
  8
0
 10
3.279
 11
2.556
 20
-17.19
 21
-17.312
  0
LINE
  8
0
 10
2.556
 11
1.829
 20
-17.312
 21
-17.404
  0
LINE
  8
0
 10
1.829
 11
1.099
 20
-17.404
 21
-17.465
  0
LINE
  8
0
 10
1.099
 11
0.366
 20
-17.465
 21
-17.496
  0
LINE
  8
0
 10
0.366
 11
-0.366
 20
-17.496
 21
-17.496
  0
LINE
  8
0
 10
-0.366
 11
-1.099
 20
-17.496
 21
-17.465
  0
LINE
  8
0
 10
-1.099
 11
-1.829
 20
-17.465
 21
-17.404
  0
LINE
  8
0
 10
-1.829
 11
-2.556
 20
-17.404
 21
-17.312
  0
LINE
  8
0
 10
-2.556
 11
-3.279
 20
-17.312
 21
-17.19
  0
LINE
  8
0
 10
-3.279
 11
-3.996
 20
-17.19
 21
-17.038
  0
LINE
  8
0
 10
-3.996
 11
-4.706
 20
-17.038
 21
-16.855
  0
LINE
  8
0
 10
-4.706
 11
-5.408
 20
-16.855
 21
-16.643
  0
LINE
  8
0
 10
-5.408
 11
-6.1
 20
-16.643
 21
-16.402
  0
LINE
  8
0
 10
-6.1
 11
-6.782
 20
-16.402
 21
-16.133
  0
LINE
  8
0
 10
-6.782
 11
-7.451
 20
-16.133
 21
-15.834
  0
LINE
  8
0
 10
-7.451
 11
-8.108
 20
-15.834
 21
-15.509
  0
LINE
  8
0
 10
-8.108
 11
-8.75
 20
-15.509
 21
-15.155
  0
LINE
  8
0
 10
-8.75
 11
-9.377
 20
-15.155
 21
-14.776
  0
LINE
  8
0
 10
-9.377
 11
-9.987
 20
-14.776
 21
-14.37
  0
LINE
  8
0
 10
-9.987
 11
-10.58
 20
-14.37
 21
-13.939
  0
LINE
  8
0
 10
-10.58
 11
-11.155
 20
-13.939
 21
-13.484
  0
LINE
  8
0
 10
-11.155
 11
-11.71
 20
-13.484
 21
-13.005
  0
LINE
  8
0
 10
-11.71
 11
-12.244
 20
-13.005
 21
-12.503
  0
LINE
  8
0
 10
-12.244
 11
-12.757
 20
-12.503
 21
-11.98
  0
LINE
  8
0
 10
-12.757
 11
-13.247
 20
-11.98
 21
-11.435
  0
LINE
  8
0
 10
-13.247
 11
-13.715
 20
-11.435
 21
-10.87
  0
LINE
  8
0
 10
-13.715
 11
-14.158
 20
-10.87
 21
-10.286
  0
LINE
  8
0
 10
-14.158
 11
-14.576
 20
-10.286
 21
-9.684
  0
LINE
  8
0
 10
-14.576
 11
-14.969
 20
-9.684
 21
-9.065
  0
LINE
  8
0
 10
-14.969
 11
-15.335
 20
-9.065
 21
-8.431
  0
LINE
  8
0
 10
-15.335
 11
-15.675
 20
-8.431
 21
-7.781
  0
LINE
  8
0
 10
-15.675
 11
-15.987
 20
-7.781
 21
-7.118
  0
LINE
  8
0
 10
-15.987
 11
-16.271
 20
-7.118
 21
-6.442
  0
LINE
  8
0
 10
-16.271
 11
-16.527
 20
-6.442
 21
-5.755
  0
LINE
  8
0
 10
-16.527
 11
-16.753
 20
-5.755
 21
-5.058
  0
LINE
  8
0
 10
-16.753
 11
-16.95
 20
-5.058
 21
-4.352
  0
LINE
  8
0
 10
-16.95
 11
-17.118
 20
-4.352
 21
-3.638
  0
LINE
  8
0
 10
-17.118
 11
-17.255
 20
-3.638
 21
-2.918
  0
LINE
  8
0
 10
-17.255
 11
-17.362
 20
-2.918
 21
-2.193
  0
LINE
  8
0
 10
-17.362
 11
-17.439
 20
-2.193
 21
-1.464
  0
LINE
  8
0
 10
-17.439
 11
-17.485
 20
-1.464
 21
-0.733
  0
LINE
  8
0
 10
-17.485
 11
-17.5
 20
-0.733
 21
0
  0
LINE
  8
0
 10
-17
 11
-16.985
 20
0
 21
0.712
  0
LINE
  8
0
 10
-16.985
 11
-16.941
 20
0.712
 21
1.422
  0
LINE
  8
0
 10
-16.941
 11
-16.915
 20
1.422
 21
1.665
  0
LINE
  8
0
 10
-16.915
 11
-15
 20
1.665
 21
-0.25
  0
LINE
  8
0
 10
-15
 11
-12.859
 20
-0.25
 21
1.891
  0
LINE
  8
0
 10
-12.859
 11
-12.898
 20
1.891
 21
1.629
  0
LINE
  8
0
 10
-12.898
 11
-12.954
 20
1.629
 21
1.088
  0
LINE
  8
0
 10
-12.954
 11
-12.988
 20
1.088
 21
0.545
  0
LINE
  8
0
 10
-12.988
 11
-13
 20
0.545
 21
0
  0
LINE
  8
0
 10
-13
 11
-12.989
 20
0
 21
-0.544
  0
LINE
  8
0
 10
-12.989
 11
-12.955
 20
-0.544
 21
-1.088
  0
LINE
  8
0
 10
-12.955
 11
-12.897
 20
-1.088
 21
-1.629
  0
LINE
  8
0
 10
-12.897
 11
-12.818
 20
-1.629
 21
-2.169
  0
LINE
  8
0
 10
-12.818
 11
-12.716
 20
-2.169
 21
-2.703
  0
LINE
  8
0
 10
-12.716
 11
-12.592
 20
-2.703
 21
-3.233
  0
LINE
  8
0
 10
-12.592
 11
-12.446
 20
-3.233
 21
-3.757
  0
LINE
  8
0
 10
-12.446
 11
-12.295
 20
-3.757
 21
-4.221
  0
LINE
  8
0
 10
-12.295
 11
-13.115
 20
-4.221
 21
-7.283
  0
LINE
  8
0
 10
-13.115
 11
-15.662
 20
-7.283
 21
-6.601
  0
LINE
  8
0
 10
-15.662
 11
-15.806
 20
-6.601
 21
-6.259
  0
LINE
  8
0
 10
-15.806
 11
-16.054
 20
-6.259
 21
-5.591
  0
LINE
  8
0
 10
-16.054
 11
-16.275
 20
-5.591
 21
-4.914
  0
LINE
  8
0
 10
-16.275
 11
-16.466
 20
-4.914
 21
-4.228
  0
LINE
  8
0
 10
-16.466
 11
-16.628
 20
-4.228
 21
-3.535
  0
LINE
  8
0
 10
-16.628
 11
-16.762
 20
-3.535
 21
-2.835
  0
LINE
  8
0
 10
-16.762
 11
-16.866
 20
-2.835
 21
-2.131
  0
LINE
  8
0
 10
-16.866
 11
-16.94
 20
-2.131
 21
-1.423
  0
LINE
  8
0
 10
-16.94
 11
-16.985
 20
-1.423
 21
-0.712
  0
LINE
  8
0
 10
-16.985
 11
-17
 20
-0.712
 21
0
  0
LINE
  8
0
 10
-16.864
 11
-16.818
 20
2.114
 21
2.483
  0
LINE
  8
0
 10
-16.818
 11
-16.699
 20
2.483
 21
3.185
  0
LINE
  8
0
 10
-16.699
 11
-16.552
 20
3.185
 21
3.882
  0
LINE
  8
0
 10
-16.552
 11
-16.374
 20
3.882
 21
4.571
  0
LINE
  8
0
 10
-16.374
 11
-16.168
 20
4.571
 21
5.253
  0
LINE
  8
0
 10
-16.168
 11
-15.934
 20
5.253
 21
5.926
  0
LINE
  8
0
 10
-15.934
 11
-15.672
 20
5.926
 21
6.587
  0
LINE
  8
0
 10
-15.672
 11
-15.382
 20
6.587
 21
7.238
  0
LINE
  8
0
 10
-15.382
 11
-15.065
 20
7.238
 21
7.876
  0
LINE
  8
0
 10
-15.065
 11
-14.722
 20
7.876
 21
8.5
  0
LINE
  8
0
 10
-14.722
 11
-14.353
 20
8.5
 21
9.109
  0
LINE
  8
0
 10
-14.353
 11
-13.96
 20
9.109
 21
9.702
  0
LINE
  8
0
 10
-13.96
 11
-13.816
 20
9.702
 21
9.899
  0
LINE
  8
0
 10
-13.816
 11
-13.115
 20
9.899
 21
7.283
  0
LINE
  8
0
 10
-13.115
 11
-10.191
 20
7.283
 21
8.067
  0
LINE
  8
0
 10
-10.191
 11
-10.355
 20
8.067
 21
7.86
  0
LINE
  8
0
 10
-10.355
 11
-10.674
 20
7.86
 21
7.419
  0
LINE
  8
0
 10
-10.674
 11
-10.975
 20
7.419
 21
6.966
  0
LINE
  8
0
 10
-10.975
 11
-11.258
 20
6.966
 21
6.5
  0
LINE
  8
0
 10
-11.258
 11
-11.521
 20
6.5
 21
6.023
  0
LINE
  8
0
 10
-11.521
 11
-11.763
 20
6.023
 21
5.535
  0
LINE
  8
0
 10
-11.763
 11
-11.984
 20
5.535
 21
5.038
  0
LINE
  8
0
 10
-11.984
 11
-12.185
 20
5.038
 21
4.531
  0
LINE
  8
0
 10
-12.185
 11
-12.364
 20
4.531
 21
4.017
  0
LINE
  8
0
 10
-12.364
 11
-12.521
 20
4.017
 21
3.496
  0
LINE
  8
0
 10
-12.521
 11
-12.657
 20
3.496
 21
2.969
  0
LINE
  8
0
 10
-12.657
 11
-12.758
 20
2.969
 21
2.492
  0
LINE
  8
0
 10
-12.758
 11
-14.999
 20
2.492
 21
0.25
  0
LINE
  8
0
 10
-14.999
 11
-16.864
 20
0.25
 21
2.114
  0
LINE
  8
0
 10
-15.481
 11
-12.865
 20
-7.016
 21
-7.717
  0
LINE
  8
0
 10
-12.865
 11
-12.082
 20
-7.717
 21
-4.792
  0
LINE
  8
0
 10
-12.082
 11
-11.984
 20
-4.792
 21
-5.038
  0
LINE
  8
0
 10
-11.984
 11
-11.762
 20
-5.038
 21
-5.535
  0
LINE
  8
0
 10
-11.762
 11
-11.52
 20
-5.535
 21
-6.022
  0
LINE
  8
0
 10
-11.52
 11
-11.258
 20
-6.022
 21
-6.5
  0
LINE
  8
0
 10
-11.258
 11
-10.977
 20
-6.5
 21
-6.966
  0
LINE
  8
0
 10
-10.977
 11
-10.675
 20
-6.966
 21
-7.42
  0
LINE
  8
0
 10
-10.675
 11
-10.355
 20
-7.42
 21
-7.859
  0
LINE
  8
0
 10
-10.355
 11
-10.016
 20
-7.859
 21
-8.287
  0
LINE
  8
0
 10
-10.016
 11
-9.661
 20
-8.287
 21
-8.699
  0
LINE
  8
0
 10
-9.661
 11
-9.288
 20
-8.699
 21
-9.096
  0
LINE
  8
0
 10
-9.288
 11
-8.9
 20
-9.096
 21
-9.477
  0
LINE
  8
0
 10
-8.9
 11
-8.537
 20
-9.477
 21
-9.803
  0
LINE
  8
0
 10
-8.537
 11
-7.716
 20
-9.803
 21
-12.865
  0
LINE
  8
0
 10
-7.716
 11
-10.263
 20
-12.865
 21
-13.548
  0
LINE
  8
0
 10
-10.263
 11
-10.559
 20
-13.548
 21
-13.323
  0
LINE
  8
0
 10
-10.559
 11
-11.108
 20
-13.323
 21
-12.869
  0
LINE
  8
0
 10
-11.108
 11
-11.638
 20
-12.869
 21
-12.393
  0
LINE
  8
0
 10
-11.638
 11
-12.146
 20
-12.393
 21
-11.895
  0
LINE
  8
0
 10
-12.146
 11
-12.633
 20
-11.895
 21
-11.375
  0
LINE
  8
0
 10
-12.633
 11
-13.099
 20
-11.375
 21
-10.836
  0
LINE
  8
0
 10
-13.099
 11
-13.541
 20
-10.836
 21
-10.278
  0
LINE
  8
0
 10
-13.541
 11
-13.959
 20
-10.278
 21
-9.702
  0
LINE
  8
0
 10
-13.959
 11
-14.353
 20
-9.702
 21
-9.109
  0
LINE
  8
0
 10
-14.353
 11
-14.722
 20
-9.109
 21
-8.5
  0
LINE
  8
0
 10
-14.722
 11
-15.065
 20
-8.5
 21
-7.876
  0
LINE
  8
0
 10
-15.065
 11
-15.382
 20
-7.876
 21
-7.239
  0
LINE
  8
0
 10
-15.382
 11
-15.481
 20
-7.239
 21
-7.016
  0
LINE
  8
0
 10
-13.548
 11
-13.323
 20
10.263
 21
10.559
  0
LINE
  8
0
 10
-13.323
 11
-12.869
 20
10.559
 21
11.108
  0
LINE
  8
0
 10
-12.869
 11
-12.393
 20
11.108
 21
11.638
  0
LINE
  8
0
 10
-12.393
 11
-11.895
 20
11.638
 21
12.146
  0
LINE
  8
0
 10
-11.895
 11
-11.375
 20
12.146
 21
12.633
  0
LINE
  8
0
 10
-11.375
 11
-10.836
 20
12.633
 21
13.099
  0
LINE
  8
0
 10
-10.836
 11
-10.278
 20
13.099
 21
13.541
  0
LINE
  8
0
 10
-10.278
 11
-9.702
 20
13.541
 21
13.959
  0
LINE
  8
0
 10
-9.702
 11
-9.109
 20
13.959
 21
14.353
  0
LINE
  8
0
 10
-9.109
 11
-8.5
 20
14.353
 21
14.722
  0
LINE
  8
0
 10
-8.5
 11
-7.876
 20
14.722
 21
15.065
  0
LINE
  8
0
 10
-7.876
 11
-7.239
 20
15.065
 21
15.382
  0
LINE
  8
0
 10
-7.239
 11
-7.016
 20
15.382
 21
15.481
  0
LINE
  8
0
 10
-7.016
 11
-7.717
 20
15.481
 21
12.865
  0
LINE
  8
0
 10
-7.717
 11
-4.792
 20
12.865
 21
12.082
  0
LINE
  8
0
 10
-4.792
 11
-5.038
 20
12.082
 21
11.984
  0
LINE
  8
0
 10
-5.038
 11
-5.535
 20
11.984
 21
11.762
  0
LINE
  8
0
 10
-5.535
 11
-6.022
 20
11.762
 21
11.52
  0
LINE
  8
0
 10
-6.022
 11
-6.5
 20
11.52
 21
11.258
  0
LINE
  8
0
 10
-6.5
 11
-6.966
 20
11.258
 21
10.977
  0
LINE
  8
0
 10
-6.966
 11
-7.42
 20
10.977
 21
10.675
  0
LINE
  8
0
 10
-7.42
 11
-7.859
 20
10.675
 21
10.355
  0
LINE
  8
0
 10
-7.859
 11
-8.287
 20
10.355
 21
10.016
  0
LINE
  8
0
 10
-8.287
 11
-8.699
 20
10.016
 21
9.661
  0
LINE
  8
0
 10
-8.699
 11
-9.096
 20
9.661
 21
9.288
  0
LINE
  8
0
 10
-9.096
 11
-9.477
 20
9.288
 21
8.9
  0
LINE
  8
0
 10
-9.477
 11
-9.803
 20
8.9
 21
8.537
  0
LINE
  8
0
 10
-9.803
 11
-12.865
 20
8.537
 21
7.716
  0
LINE
  8
0
 10
-12.865
 11
-13.548
 20
7.716
 21
10.263
  0
LINE
  8
0
 10
-12.5
 11
-12.489
 20
0
 21
0.523
  0
LINE
  8
0
 10
-12.489
 11
-12.456
 20
0.523
 21
1.046
  0
LINE
  8
0
 10
-12.456
 11
-12.401
 20
1.046
 21
1.567
  0
LINE
  8
0
 10
-12.401
 11
-12.325
 20
1.567
 21
2.085
  0
LINE
  8
0
 10
-12.325
 11
-12.227
 20
2.085
 21
2.599
  0
LINE
  8
0
 10
-12.227
 11
-12.107
 20
2.599
 21
3.109
  0
LINE
  8
0
 10
-12.107
 11
-11.966
 20
3.109
 21
3.613
  0
LINE
  8
0
 10
-11.966
 11
-11.805
 20
3.613
 21
4.111
  0
LINE
  8
0
 10
-11.805
 11
-11.622
 20
4.111
 21
4.602
  0
LINE
  8
0
 10
-11.622
 11
-11.419
 20
4.602
 21
5.084
  0
LINE
  8
0
 10
-11.419
 11
-11.196
 20
5.084
 21
5.558
  0
LINE
  8
0
 10
-11.196
 11
-10.954
 20
5.558
 21
6.022
  0
LINE
  8
0
 10
-10.954
 11
-10.692
 20
6.022
 21
6.475
  0
LINE
  8
0
 10
-10.692
 11
-10.412
 20
6.475
 21
6.917
  0
LINE
  8
0
 10
-10.412
 11
-10.113
 20
6.917
 21
7.347
  0
LINE
  8
0
 10
-10.113
 11
-9.796
 20
7.347
 21
7.764
  0
LINE
  8
0
 10
-9.796
 11
-9.462
 20
7.764
 21
8.168
  0
LINE
  8
0
 10
-9.462
 11
-9.112
 20
8.168
 21
8.557
  0
LINE
  8
0
 10
-9.112
 11
-8.746
 20
8.557
 21
8.931
  0
LINE
  8
0
 10
-8.746
 11
-8.364
 20
8.931
 21
9.289
  0
LINE
  8
0
 10
-8.364
 11
-7.968
 20
9.289
 21
9.631
  0
LINE
  8
0
 10
-7.968
 11
-7.557
 20
9.631
 21
9.957
  0
LINE
  8
0
 10
-7.557
 11
-7.134
 20
9.957
 21
10.264
  0
LINE
  8
0
 10
-7.134
 11
-6.698
 20
10.264
 21
10.554
  0
LINE
  8
0
 10
-6.698
 11
-6.25
 20
10.554
 21
10.825
  0
LINE
  8
0
 10
-6.25
 11
-5.791
 20
10.825
 21
11.078
  0
LINE
  8
0
 10
-5.791
 11
-5.322
 20
11.078
 21
11.31
  0
LINE
  8
0
 10
-5.322
 11
-4.844
 20
11.31
 21
11.523
  0
LINE
  8
0
 10
-4.844
 11
-4.357
 20
11.523
 21
11.716
  0
LINE
  8
0
 10
-4.357
 11
-3.863
 20
11.716
 21
11.888
  0
LINE
  8
0
 10
-3.863
 11
-3.361
 20
11.888
 21
12.04
  0
LINE
  8
0
 10
-3.361
 11
-2.854
 20
12.04
 21
12.17
  0
LINE
  8
0
 10
-2.854
 11
-2.342
 20
12.17
 21
12.279
  0
LINE
  8
0
 10
-2.342
 11
-1.826
 20
12.279
 21
12.366
  0
LINE
  8
0
 10
-1.826
 11
-1.307
 20
12.366
 21
12.432
  0
LINE
  8
0
 10
-1.307
 11
-0.785
 20
12.432
 21
12.475
  0
LINE
  8
0
 10
-0.785
 11
-0.262
 20
12.475
 21
12.497
  0
LINE
  8
0
 10
-0.262
 11
0.262
 20
12.497
 21
12.497
  0
LINE
  8
0
 10
0.262
 11
0.785
 20
12.497
 21
12.475
  0
LINE
  8
0
 10
0.785
 11
1.307
 20
12.475
 21
12.432
  0
LINE
  8
0
 10
1.307
 11
1.826
 20
12.432
 21
12.366
  0
LINE
  8
0
 10
1.826
 11
2.342
 20
12.366
 21
12.279
  0
LINE
  8
0
 10
2.342
 11
2.854
 20
12.279
 21
12.17
  0
LINE
  8
0
 10
2.854
 11
3.361
 20
12.17
 21
12.04
  0
LINE
  8
0
 10
3.361
 11
3.863
 20
12.04
 21
11.888
  0
LINE
  8
0
 10
3.863
 11
4.357
 20
11.888
 21
11.716
  0
LINE
  8
0
 10
4.357
 11
4.844
 20
11.716
 21
11.523
  0
LINE
  8
0
 10
4.844
 11
5.322
 20
11.523
 21
11.31
  0
LINE
  8
0
 10
5.322
 11
5.791
 20
11.31
 21
11.078
  0
LINE
  8
0
 10
5.791
 11
6.25
 20
11.078
 21
10.825
  0
LINE
  8
0
 10
6.25
 11
6.698
 20
10.825
 21
10.554
  0
LINE
  8
0
 10
6.698
 11
7.134
 20
10.554
 21
10.264
  0
LINE
  8
0
 10
7.134
 11
7.557
 20
10.264
 21
9.957
  0
LINE
  8
0
 10
7.557
 11
7.968
 20
9.957
 21
9.631
  0
LINE
  8
0
 10
7.968
 11
8.364
 20
9.631
 21
9.289
  0
LINE
  8
0
 10
8.364
 11
8.746
 20
9.289
 21
8.931
  0
LINE
  8
0
 10
8.746
 11
9.112
 20
8.931
 21
8.557
  0
LINE
  8
0
 10
9.112
 11
9.462
 20
8.557
 21
8.168
  0
LINE
  8
0
 10
9.462
 11
9.796
 20
8.168
 21
7.764
  0
LINE
  8
0
 10
9.796
 11
10.113
 20
7.764
 21
7.347
  0
LINE
  8
0
 10
10.113
 11
10.412
 20
7.347
 21
6.917
  0
LINE
  8
0
 10
10.412
 11
10.692
 20
6.917
 21
6.475
  0
LINE
  8
0
 10
10.692
 11
10.954
 20
6.475
 21
6.022
  0
LINE
  8
0
 10
10.954
 11
11.196
 20
6.022
 21
5.558
  0
LINE
  8
0
 10
11.196
 11
11.419
 20
5.558
 21
5.084
  0
LINE
  8
0
 10
11.419
 11
11.622
 20
5.084
 21
4.602
  0
LINE
  8
0
 10
11.622
 11
11.805
 20
4.602
 21
4.111
  0
LINE
  8
0
 10
11.805
 11
11.966
 20
4.111
 21
3.613
  0
LINE
  8
0
 10
11.966
 11
12.107
 20
3.613
 21
3.109
  0
LINE
  8
0
 10
12.107
 11
12.227
 20
3.109
 21
2.599
  0
LINE
  8
0
 10
12.227
 11
12.325
 20
2.599
 21
2.085
  0
LINE
  8
0
 10
12.325
 11
12.401
 20
2.085
 21
1.567
  0
LINE
  8
0
 10
12.401
 11
12.456
 20
1.567
 21
1.046
  0
LINE
  8
0
 10
12.456
 11
12.489
 20
1.046
 21
0.523
  0
LINE
  8
0
 10
12.489
 11
12.5
 20
0.523
 21
0
  0
LINE
  8
0
 10
12.5
 11
12.489
 20
0
 21
-0.523
  0
LINE
  8
0
 10
12.489
 11
12.456
 20
-0.523
 21
-1.046
  0
LINE
  8
0
 10
12.456
 11
12.401
 20
-1.046
 21
-1.567
  0
LINE
  8
0
 10
12.401
 11
12.325
 20
-1.567
 21
-2.085
  0
LINE
  8
0
 10
12.325
 11
12.227
 20
-2.085
 21
-2.599
  0
LINE
  8
0
 10
12.227
 11
12.107
 20
-2.599
 21
-3.109
  0
LINE
  8
0
 10
12.107
 11
11.966
 20
-3.109
 21
-3.613
  0
LINE
  8
0
 10
11.966
 11
11.805
 20
-3.613
 21
-4.111
  0
LINE
  8
0
 10
11.805
 11
11.622
 20
-4.111
 21
-4.602
  0
LINE
  8
0
 10
11.622
 11
11.419
 20
-4.602
 21
-5.084
  0
LINE
  8
0
 10
11.419
 11
11.196
 20
-5.084
 21
-5.558
  0
LINE
  8
0
 10
11.196
 11
10.954
 20
-5.558
 21
-6.022
  0
LINE
  8
0
 10
10.954
 11
10.692
 20
-6.022
 21
-6.475
  0
LINE
  8
0
 10
10.692
 11
10.412
 20
-6.475
 21
-6.917
  0
LINE
  8
0
 10
10.412
 11
10.113
 20
-6.917
 21
-7.347
  0
LINE
  8
0
 10
10.113
 11
9.796
 20
-7.347
 21
-7.764
  0
LINE
  8
0
 10
9.796
 11
9.462
 20
-7.764
 21
-8.168
  0
LINE
  8
0
 10
9.462
 11
9.112
 20
-8.168
 21
-8.557
  0
LINE
  8
0
 10
9.112
 11
8.746
 20
-8.557
 21
-8.931
  0
LINE
  8
0
 10
8.746
 11
8.364
 20
-8.931
 21
-9.289
  0
LINE
  8
0
 10
8.364
 11
7.968
 20
-9.289
 21
-9.631
  0
LINE
  8
0
 10
7.968
 11
7.557
 20
-9.631
 21
-9.957
  0
LINE
  8
0
 10
7.557
 11
7.134
 20
-9.957
 21
-10.264
  0
LINE
  8
0
 10
7.134
 11
6.698
 20
-10.264
 21
-10.554
  0
LINE
  8
0
 10
6.698
 11
6.25
 20
-10.554
 21
-10.825
  0
LINE
  8
0
 10
6.25
 11
5.791
 20
-10.825
 21
-11.078
  0
LINE
  8
0
 10
5.791
 11
5.322
 20
-11.078
 21
-11.31
  0
LINE
  8
0
 10
5.322
 11
4.844
 20
-11.31
 21
-11.523
  0
LINE
  8
0
 10
4.844
 11
4.357
 20
-11.523
 21
-11.716
  0
LINE
  8
0
 10
4.357
 11
3.863
 20
-11.716
 21
-11.888
  0
LINE
  8
0
 10
3.863
 11
3.361
 20
-11.888
 21
-12.04
  0
LINE
  8
0
 10
3.361
 11
2.854
 20
-12.04
 21
-12.17
  0
LINE
  8
0
 10
2.854
 11
2.342
 20
-12.17
 21
-12.279
  0
LINE
  8
0
 10
2.342
 11
1.826
 20
-12.279
 21
-12.366
  0
LINE
  8
0
 10
1.826
 11
1.307
 20
-12.366
 21
-12.432
  0
LINE
  8
0
 10
1.307
 11
0.785
 20
-12.432
 21
-12.475
  0
LINE
  8
0
 10
0.785
 11
0.262
 20
-12.475
 21
-12.497
  0
LINE
  8
0
 10
0.262
 11
-0.262
 20
-12.497
 21
-12.497
  0
LINE
  8
0
 10
-0.262
 11
-0.785
 20
-12.497
 21
-12.475
  0
LINE
  8
0
 10
-0.785
 11
-1.307
 20
-12.475
 21
-12.432
  0
LINE
  8
0
 10
-1.307
 11
-1.826
 20
-12.432
 21
-12.366
  0
LINE
  8
0
 10
-1.826
 11
-2.342
 20
-12.366
 21
-12.279
  0
LINE
  8
0
 10
-2.342
 11
-2.854
 20
-12.279
 21
-12.17
  0
LINE
  8
0
 10
-2.854
 11
-3.361
 20
-12.17
 21
-12.04
  0
LINE
  8
0
 10
-3.361
 11
-3.863
 20
-12.04
 21
-11.888
  0
LINE
  8
0
 10
-3.863
 11
-4.357
 20
-11.888
 21
-11.716
  0
LINE
  8
0
 10
-4.357
 11
-4.844
 20
-11.716
 21
-11.523
  0
LINE
  8
0
 10
-4.844
 11
-5.322
 20
-11.523
 21
-11.31
  0
LINE
  8
0
 10
-5.322
 11
-5.791
 20
-11.31
 21
-11.078
  0
LINE
  8
0
 10
-5.791
 11
-6.25
 20
-11.078
 21
-10.825
  0
LINE
  8
0
 10
-6.25
 11
-6.698
 20
-10.825
 21
-10.554
  0
LINE
  8
0
 10
-6.698
 11
-7.134
 20
-10.554
 21
-10.264
  0
LINE
  8
0
 10
-7.134
 11
-7.557
 20
-10.264
 21
-9.957
  0
LINE
  8
0
 10
-7.557
 11
-7.968
 20
-9.957
 21
-9.631
  0
LINE
  8
0
 10
-7.968
 11
-8.364
 20
-9.631
 21
-9.289
  0
LINE
  8
0
 10
-8.364
 11
-8.746
 20
-9.289
 21
-8.931
  0
LINE
  8
0
 10
-8.746
 11
-9.112
 20
-8.931
 21
-8.557
  0
LINE
  8
0
 10
-9.112
 11
-9.462
 20
-8.557
 21
-8.168
  0
LINE
  8
0
 10
-9.462
 11
-9.796
 20
-8.168
 21
-7.764
  0
LINE
  8
0
 10
-9.796
 11
-10.113
 20
-7.764
 21
-7.347
  0
LINE
  8
0
 10
-10.113
 11
-10.412
 20
-7.347
 21
-6.917
  0
LINE
  8
0
 10
-10.412
 11
-10.692
 20
-6.917
 21
-6.475
  0
LINE
  8
0
 10
-10.692
 11
-10.954
 20
-6.475
 21
-6.022
  0
LINE
  8
0
 10
-10.954
 11
-11.196
 20
-6.022
 21
-5.558
  0
LINE
  8
0
 10
-11.196
 11
-11.419
 20
-5.558
 21
-5.084
  0
LINE
  8
0
 10
-11.419
 11
-11.622
 20
-5.084
 21
-4.602
  0
LINE
  8
0
 10
-11.622
 11
-11.805
 20
-4.602
 21
-4.111
  0
LINE
  8
0
 10
-11.805
 11
-11.966
 20
-4.111
 21
-3.613
  0
LINE
  8
0
 10
-11.966
 11
-12.107
 20
-3.613
 21
-3.109
  0
LINE
  8
0
 10
-12.107
 11
-12.227
 20
-3.109
 21
-2.599
  0
LINE
  8
0
 10
-12.227
 11
-12.325
 20
-2.599
 21
-2.085
  0
LINE
  8
0
 10
-12.325
 11
-12.401
 20
-2.085
 21
-1.567
  0
LINE
  8
0
 10
-12.401
 11
-12.456
 20
-1.567
 21
-1.046
  0
LINE
  8
0
 10
-12.456
 11
-12.489
 20
-1.046
 21
-0.523
  0
LINE
  8
0
 10
-12.489
 11
-12.5
 20
-0.523
 21
0
  0
LINE
  8
0
 10
-9.899
 11
-7.283
 20
-13.816
 21
-13.115
  0
LINE
  8
0
 10
-7.283
 11
-8.067
 20
-13.115
 21
-10.191
  0
LINE
  8
0
 10
-8.067
 11
-7.86
 20
-10.191
 21
-10.355
  0
LINE
  8
0
 10
-7.86
 11
-7.419
 20
-10.355
 21
-10.674
  0
LINE
  8
0
 10
-7.419
 11
-6.966
 20
-10.674
 21
-10.975
  0
LINE
  8
0
 10
-6.966
 11
-6.5
 20
-10.975
 21
-11.258
  0
LINE
  8
0
 10
-6.5
 11
-6.023
 20
-11.258
 21
-11.521
  0
LINE
  8
0
 10
-6.023
 11
-5.535
 20
-11.521
 21
-11.763
  0
LINE
  8
0
 10
-5.535
 11
-5.038
 20
-11.763
 21
-11.984
  0
LINE
  8
0
 10
-5.038
 11
-4.531
 20
-11.984
 21
-12.185
  0
LINE
  8
0
 10
-4.531
 11
-4.017
 20
-12.185
 21
-12.364
  0
LINE
  8
0
 10
-4.017
 11
-3.496
 20
-12.364
 21
-12.521
  0
LINE
  8
0
 10
-3.496
 11
-2.969
 20
-12.521
 21
-12.657
  0
LINE
  8
0
 10
-2.969
 11
-2.492
 20
-12.657
 21
-12.758
  0
LINE
  8
0
 10
-2.492
 11
-0.25
 20
-12.758
 21
-14.999
  0
LINE
  8
0
 10
-0.25
 11
-2.114
 20
-14.999
 21
-16.864
  0
LINE
  8
0
 10
-2.114
 11
-2.483
 20
-16.864
 21
-16.818
  0
LINE
  8
0
 10
-2.483
 11
-3.185
 20
-16.818
 21
-16.699
  0
LINE
  8
0
 10
-3.185
 11
-3.882
 20
-16.699
 21
-16.552
  0
LINE
  8
0
 10
-3.882
 11
-4.571
 20
-16.552
 21
-16.374
  0
LINE
  8
0
 10
-4.571
 11
-5.253
 20
-16.374
 21
-16.168
  0
LINE
  8
0
 10
-5.253
 11
-5.926
 20
-16.168
 21
-15.934
  0
LINE
  8
0
 10
-5.926
 11
-6.587
 20
-15.934
 21
-15.672
  0
LINE
  8
0
 10
-6.587
 11
-7.238
 20
-15.672
 21
-15.382
  0
LINE
  8
0
 10
-7.238
 11
-7.876
 20
-15.382
 21
-15.065
  0
LINE
  8
0
 10
-7.876
 11
-8.5
 20
-15.065
 21
-14.722
  0
LINE
  8
0
 10
-8.5
 11
-9.109
 20
-14.722
 21
-14.353
  0
LINE
  8
0
 10
-9.109
 11
-9.702
 20
-14.353
 21
-13.96
  0
LINE
  8
0
 10
-9.702
 11
-9.899
 20
-13.96
 21
-13.816
  0
LINE
  8
0
 10
-7.283
 11
-6.601
 20
13.115
 21
15.662
  0
LINE
  8
0
 10
-6.601
 11
-6.259
 20
15.662
 21
15.806
  0
LINE
  8
0
 10
-6.259
 11
-5.591
 20
15.806
 21
16.054
  0
LINE
  8
0
 10
-5.591
 11
-4.914
 20
16.054
 21
16.275
  0
LINE
  8
0
 10
-4.914
 11
-4.228
 20
16.275
 21
16.466
  0
LINE
  8
0
 10
-4.228
 11
-3.535
 20
16.466
 21
16.628
  0
LINE
  8
0
 10
-3.535
 11
-2.835
 20
16.628
 21
16.762
  0
LINE
  8
0
 10
-2.835
 11
-2.131
 20
16.762
 21
16.866
  0
LINE
  8
0
 10
-2.131
 11
-1.423
 20
16.866
 21
16.94
  0
LINE
  8
0
 10
-1.423
 11
-0.712
 20
16.94
 21
16.985
  0
LINE
  8
0
 10
-0.712
 11
0
 20
16.985
 21
17
  0
LINE
  8
0
 10
0
 11
0.712
 20
17
 21
16.985
  0
LINE
  8
0
 10
0.712
 11
1.422
 20
16.985
 21
16.941
  0
LINE
  8
0
 10
1.422
 11
1.665
 20
16.941
 21
16.915
  0
LINE
  8
0
 10
1.665
 11
-0.25
 20
16.915
 21
15
  0
LINE
  8
0
 10
-0.25
 11
1.891
 20
15
 21
12.859
  0
LINE
  8
0
 10
1.891
 11
1.629
 20
12.859
 21
12.898
  0
LINE
  8
0
 10
1.629
 11
1.088
 20
12.898
 21
12.954
  0
LINE
  8
0
 10
1.088
 11
0.545
 20
12.954
 21
12.988
  0
LINE
  8
0
 10
0.545
 11
0
 20
12.988
 21
13
  0
LINE
  8
0
 10
0
 11
-0.544
 20
13
 21
12.989
  0
LINE
  8
0
 10
-0.544
 11
-1.088
 20
12.989
 21
12.955
  0
LINE
  8
0
 10
-1.088
 11
-1.629
 20
12.955
 21
12.897
  0
LINE
  8
0
 10
-1.629
 11
-2.169
 20
12.897
 21
12.818
  0
LINE
  8
0
 10
-2.169
 11
-2.703
 20
12.818
 21
12.716
  0
LINE
  8
0
 10
-2.703
 11
-3.233
 20
12.716
 21
12.592
  0
LINE
  8
0
 10
-3.233
 11
-3.757
 20
12.592
 21
12.446
  0
LINE
  8
0
 10
-3.757
 11
-4.221
 20
12.446
 21
12.295
  0
LINE
  8
0
 10
-4.221
 11
-7.283
 20
12.295
 21
13.115
  0
LINE
  8
0
 10
-1.891
 11
-1.629
 20
-12.859
 21
-12.898
  0
LINE
  8
0
 10
-1.629
 11
-1.088
 20
-12.898
 21
-12.954
  0
LINE
  8
0
 10
-1.088
 11
-0.545
 20
-12.954
 21
-12.988
  0
LINE
  8
0
 10
-0.545
 11
0
 20
-12.988
 21
-13
  0
LINE
  8
0
 10
0
 11
0.544
 20
-13
 21
-12.989
  0
LINE
  8
0
 10
0.544
 11
1.088
 20
-12.989
 21
-12.955
  0
LINE
  8
0
 10
1.088
 11
1.629
 20
-12.955
 21
-12.897
  0
LINE
  8
0
 10
1.629
 11
2.169
 20
-12.897
 21
-12.818
  0
LINE
  8
0
 10
2.169
 11
2.703
 20
-12.818
 21
-12.716
  0
LINE
  8
0
 10
2.703
 11
3.233
 20
-12.716
 21
-12.592
  0
LINE
  8
0
 10
3.233
 11
3.757
 20
-12.592
 21
-12.446
  0
LINE
  8
0
 10
3.757
 11
4.221
 20
-12.446
 21
-12.295
  0
LINE
  8
0
 10
4.221
 11
7.283
 20
-12.295
 21
-13.115
  0
LINE
  8
0
 10
7.283
 11
6.601
 20
-13.115
 21
-15.662
  0
LINE
  8
0
 10
6.601
 11
6.259
 20
-15.662
 21
-15.806
  0
LINE
  8
0
 10
6.259
 11
5.591
 20
-15.806
 21
-16.054
  0
LINE
  8
0
 10
5.591
 11
4.914
 20
-16.054
 21
-16.275
  0
LINE
  8
0
 10
4.914
 11
4.228
 20
-16.275
 21
-16.466
  0
LINE
  8
0
 10
4.228
 11
3.535
 20
-16.466
 21
-16.628
  0
LINE
  8
0
 10
3.535
 11
2.835
 20
-16.628
 21
-16.762
  0
LINE
  8
0
 10
2.835
 11
2.131
 20
-16.762
 21
-16.866
  0
LINE
  8
0
 10
2.131
 11
1.423
 20
-16.866
 21
-16.94
  0
LINE
  8
0
 10
1.423
 11
0.712
 20
-16.94
 21
-16.985
  0
LINE
  8
0
 10
0.712
 11
0
 20
-16.985
 21
-17
  0
LINE
  8
0
 10
0
 11
-0.712
 20
-17
 21
-16.985
  0
LINE
  8
0
 10
-0.712
 11
-1.422
 20
-16.985
 21
-16.941
  0
LINE
  8
0
 10
-1.422
 11
-1.665
 20
-16.941
 21
-16.915
  0
LINE
  8
0
 10
-1.665
 11
0.25
 20
-16.915
 21
-15
  0
LINE
  8
0
 10
0.25
 11
-1.891
 20
-15
 21
-12.859
  0
LINE
  8
0
 10
0.25
 11
2.114
 20
14.999
 21
16.864
  0
LINE
  8
0
 10
2.114
 11
2.483
 20
16.864
 21
16.818
  0
LINE
  8
0
 10
2.483
 11
3.185
 20
16.818
 21
16.699
  0
LINE
  8
0
 10
3.185
 11
3.882
 20
16.699
 21
16.552
  0
LINE
  8
0
 10
3.882
 11
4.571
 20
16.552
 21
16.374
  0
LINE
  8
0
 10
4.571
 11
5.253
 20
16.374
 21
16.168
  0
LINE
  8
0
 10
5.253
 11
5.926
 20
16.168
 21
15.934
  0
LINE
  8
0
 10
5.926
 11
6.587
 20
15.934
 21
15.672
  0
LINE
  8
0
 10
6.587
 11
7.238
 20
15.672
 21
15.382
  0
LINE
  8
0
 10
7.238
 11
7.876
 20
15.382
 21
15.065
  0
LINE
  8
0
 10
7.876
 11
8.5
 20
15.065
 21
14.722
  0
LINE
  8
0
 10
8.5
 11
9.109
 20
14.722
 21
14.353
  0
LINE
  8
0
 10
9.109
 11
9.702
 20
14.353
 21
13.96
  0
LINE
  8
0
 10
9.702
 11
9.899
 20
13.96
 21
13.816
  0
LINE
  8
0
 10
9.899
 11
7.283
 20
13.816
 21
13.115
  0
LINE
  8
0
 10
7.283
 11
8.067
 20
13.115
 21
10.191
  0
LINE
  8
0
 10
8.067
 11
7.86
 20
10.191
 21
10.355
  0
LINE
  8
0
 10
7.86
 11
7.419
 20
10.355
 21
10.674
  0
LINE
  8
0
 10
7.419
 11
6.966
 20
10.674
 21
10.975
  0
LINE
  8
0
 10
6.966
 11
6.5
 20
10.975
 21
11.258
  0
LINE
  8
0
 10
6.5
 11
6.023
 20
11.258
 21
11.521
  0
LINE
  8
0
 10
6.023
 11
5.535
 20
11.521
 21
11.763
  0
LINE
  8
0
 10
5.535
 11
5.038
 20
11.763
 21
11.984
  0
LINE
  8
0
 10
5.038
 11
4.531
 20
11.984
 21
12.185
  0
LINE
  8
0
 10
4.531
 11
4.017
 20
12.185
 21
12.364
  0
LINE
  8
0
 10
4.017
 11
3.496
 20
12.364
 21
12.521
  0
LINE
  8
0
 10
3.496
 11
2.969
 20
12.521
 21
12.657
  0
LINE
  8
0
 10
2.969
 11
2.492
 20
12.657
 21
12.758
  0
LINE
  8
0
 10
2.492
 11
0.25
 20
12.758
 21
14.999
  0
LINE
  8
0
 10
4.792
 11
5.038
 20
-12.082
 21
-11.984
  0
LINE
  8
0
 10
5.038
 11
5.535
 20
-11.984
 21
-11.762
  0
LINE
  8
0
 10
5.535
 11
6.022
 20
-11.762
 21
-11.52
  0
LINE
  8
0
 10
6.022
 11
6.5
 20
-11.52
 21
-11.258
  0
LINE
  8
0
 10
6.5
 11
6.966
 20
-11.258
 21
-10.977
  0
LINE
  8
0
 10
6.966
 11
7.42
 20
-10.977
 21
-10.675
  0
LINE
  8
0
 10
7.42
 11
7.859
 20
-10.675
 21
-10.355
  0
LINE
  8
0
 10
7.859
 11
8.287
 20
-10.355
 21
-10.016
  0
LINE
  8
0
 10
8.287
 11
8.699
 20
-10.016
 21
-9.661
  0
LINE
  8
0
 10
8.699
 11
9.096
 20
-9.661
 21
-9.288
  0
LINE
  8
0
 10
9.096
 11
9.477
 20
-9.288
 21
-8.9
  0
LINE
  8
0
 10
9.477
 11
9.803
 20
-8.9
 21
-8.537
  0
LINE
  8
0
 10
9.803
 11
12.865
 20
-8.537
 21
-7.716
  0
LINE
  8
0
 10
12.865
 11
13.548
 20
-7.716
 21
-10.263
  0
LINE
  8
0
 10
13.548
 11
13.323
 20
-10.263
 21
-10.559
  0
LINE
  8
0
 10
13.323
 11
12.869
 20
-10.559
 21
-11.108
  0
LINE
  8
0
 10
12.869
 11
12.393
 20
-11.108
 21
-11.638
  0
LINE
  8
0
 10
12.393
 11
11.895
 20
-11.638
 21
-12.146
  0
LINE
  8
0
 10
11.895
 11
11.375
 20
-12.146
 21
-12.633
  0
LINE
  8
0
 10
11.375
 11
10.836
 20
-12.633
 21
-13.099
  0
LINE
  8
0
 10
10.836
 11
10.278
 20
-13.099
 21
-13.541
  0
LINE
  8
0
 10
10.278
 11
9.702
 20
-13.541
 21
-13.959
  0
LINE
  8
0
 10
9.702
 11
9.109
 20
-13.959
 21
-14.353
  0
LINE
  8
0
 10
9.109
 11
8.5
 20
-14.353
 21
-14.722
  0
LINE
  8
0
 10
8.5
 11
7.876
 20
-14.722
 21
-15.065
  0
LINE
  8
0
 10
7.876
 11
7.239
 20
-15.065
 21
-15.382
  0
LINE
  8
0
 10
7.239
 11
7.016
 20
-15.382
 21
-15.481
  0
LINE
  8
0
 10
7.016
 11
7.717
 20
-15.481
 21
-12.865
  0
LINE
  8
0
 10
7.717
 11
4.792
 20
-12.865
 21
-12.082
  0
LINE
  8
0
 10
7.716
 11
10.263
 20
12.865
 21
13.548
  0
LINE
  8
0
 10
10.263
 11
10.559
 20
13.548
 21
13.323
  0
LINE
  8
0
 10
10.559
 11
11.108
 20
13.323
 21
12.869
  0
LINE
  8
0
 10
11.108
 11
11.638
 20
12.869
 21
12.393
  0
LINE
  8
0
 10
11.638
 11
12.146
 20
12.393
 21
11.895
  0
LINE
  8
0
 10
12.146
 11
12.633
 20
11.895
 21
11.375
  0
LINE
  8
0
 10
12.633
 11
13.099
 20
11.375
 21
10.836
  0
LINE
  8
0
 10
13.099
 11
13.541
 20
10.836
 21
10.278
  0
LINE
  8
0
 10
13.541
 11
13.959
 20
10.278
 21
9.702
  0
LINE
  8
0
 10
13.959
 11
14.353
 20
9.702
 21
9.109
  0
LINE
  8
0
 10
14.353
 11
14.722
 20
9.109
 21
8.5
  0
LINE
  8
0
 10
14.722
 11
15.065
 20
8.5
 21
7.876
  0
LINE
  8
0
 10
15.065
 11
15.382
 20
7.876
 21
7.239
  0
LINE
  8
0
 10
15.382
 11
15.481
 20
7.239
 21
7.016
  0
LINE
  8
0
 10
15.481
 11
12.865
 20
7.016
 21
7.717
  0
LINE
  8
0
 10
12.865
 11
12.082
 20
7.717
 21
4.792
  0
LINE
  8
0
 10
12.082
 11
11.984
 20
4.792
 21
5.038
  0
LINE
  8
0
 10
11.984
 11
11.762
 20
5.038
 21
5.535
  0
LINE
  8
0
 10
11.762
 11
11.52
 20
5.535
 21
6.022
  0
LINE
  8
0
 10
11.52
 11
11.258
 20
6.022
 21
6.5
  0
LINE
  8
0
 10
11.258
 11
10.977
 20
6.5
 21
6.966
  0
LINE
  8
0
 10
10.977
 11
10.675
 20
6.966
 21
7.42
  0
LINE
  8
0
 10
10.675
 11
10.355
 20
7.42
 21
7.859
  0
LINE
  8
0
 10
10.355
 11
10.016
 20
7.859
 21
8.287
  0
LINE
  8
0
 10
10.016
 11
9.661
 20
8.287
 21
8.699
  0
LINE
  8
0
 10
9.661
 11
9.288
 20
8.699
 21
9.096
  0
LINE
  8
0
 10
9.288
 11
8.9
 20
9.096
 21
9.477
  0
LINE
  8
0
 10
8.9
 11
8.537
 20
9.477
 21
9.803
  0
LINE
  8
0
 10
8.537
 11
7.716
 20
9.803
 21
12.865
  0
LINE
  8
0
 10
10.191
 11
10.355
 20
-8.067
 21
-7.86
  0
LINE
  8
0
 10
10.355
 11
10.674
 20
-7.86
 21
-7.419
  0
LINE
  8
0
 10
10.674
 11
10.975
 20
-7.419
 21
-6.966
  0
LINE
  8
0
 10
10.975
 11
11.258
 20
-6.966
 21
-6.5
  0
LINE
  8
0
 10
11.258
 11
11.521
 20
-6.5
 21
-6.023
  0
LINE
  8
0
 10
11.521
 11
11.763
 20
-6.023
 21
-5.535
  0
LINE
  8
0
 10
11.763
 11
11.984
 20
-5.535
 21
-5.038
  0
LINE
  8
0
 10
11.984
 11
12.185
 20
-5.038
 21
-4.531
  0
LINE
  8
0
 10
12.185
 11
12.364
 20
-4.531
 21
-4.017
  0
LINE
  8
0
 10
12.364
 11
12.521
 20
-4.017
 21
-3.496
  0
LINE
  8
0
 10
12.521
 11
12.657
 20
-3.496
 21
-2.969
  0
LINE
  8
0
 10
12.657
 11
12.758
 20
-2.969
 21
-2.492
  0
LINE
  8
0
 10
12.758
 11
14.999
 20
-2.492
 21
-0.25
  0
LINE
  8
0
 10
14.999
 11
16.864
 20
-0.25
 21
-2.114
  0
LINE
  8
0
 10
16.864
 11
16.818
 20
-2.114
 21
-2.483
  0
LINE
  8
0
 10
16.818
 11
16.699
 20
-2.483
 21
-3.185
  0
LINE
  8
0
 10
16.699
 11
16.552
 20
-3.185
 21
-3.882
  0
LINE
  8
0
 10
16.552
 11
16.374
 20
-3.882
 21
-4.571
  0
LINE
  8
0
 10
16.374
 11
16.168
 20
-4.571
 21
-5.253
  0
LINE
  8
0
 10
16.168
 11
15.934
 20
-5.253
 21
-5.926
  0
LINE
  8
0
 10
15.934
 11
15.672
 20
-5.926
 21
-6.587
  0
LINE
  8
0
 10
15.672
 11
15.382
 20
-6.587
 21
-7.238
  0
LINE
  8
0
 10
15.382
 11
15.065
 20
-7.238
 21
-7.876
  0
LINE
  8
0
 10
15.065
 11
14.722
 20
-7.876
 21
-8.5
  0
LINE
  8
0
 10
14.722
 11
14.353
 20
-8.5
 21
-9.109
  0
LINE
  8
0
 10
14.353
 11
13.96
 20
-9.109
 21
-9.702
  0
LINE
  8
0
 10
13.96
 11
13.816
 20
-9.702
 21
-9.899
  0
LINE
  8
0
 10
13.816
 11
13.115
 20
-9.899
 21
-7.283
  0
LINE
  8
0
 10
13.115
 11
10.191
 20
-7.283
 21
-8.067
  0
LINE
  8
0
 10
12.295
 11
13.115
 20
4.221
 21
7.283
  0
LINE
  8
0
 10
13.115
 11
15.662
 20
7.283
 21
6.601
  0
LINE
  8
0
 10
15.662
 11
15.806
 20
6.601
 21
6.259
  0
LINE
  8
0
 10
15.806
 11
16.054
 20
6.259
 21
5.591
  0
LINE
  8
0
 10
16.054
 11
16.275
 20
5.591
 21
4.914
  0
LINE
  8
0
 10
16.275
 11
16.466
 20
4.914
 21
4.228
  0
LINE
  8
0
 10
16.466
 11
16.628
 20
4.228
 21
3.535
  0
LINE
  8
0
 10
16.628
 11
16.762
 20
3.535
 21
2.835
  0
LINE
  8
0
 10
16.762
 11
16.866
 20
2.835
 21
2.131
  0
LINE
  8
0
 10
16.866
 11
16.94
 20
2.131
 21
1.423
  0
LINE
  8
0
 10
16.94
 11
16.985
 20
1.423
 21
0.712
  0
LINE
  8
0
 10
16.985
 11
17
 20
0.712
 21
0
  0
LINE
  8
0
 10
17
 11
16.985
 20
0
 21
-0.712
  0
LINE
  8
0
 10
16.985
 11
16.941
 20
-0.712
 21
-1.422
  0
LINE
  8
0
 10
16.941
 11
16.915
 20
-1.422
 21
-1.665
  0
LINE
  8
0
 10
16.915
 11
15
 20
-1.665
 21
0.25
  0
LINE
  8
0
 10
15
 11
12.859
 20
0.25
 21
-1.891
  0
LINE
  8
0
 10
12.859
 11
12.898
 20
-1.891
 21
-1.629
  0
LINE
  8
0
 10
12.898
 11
12.954
 20
-1.629
 21
-1.088
  0
LINE
  8
0
 10
12.954
 11
12.988
 20
-1.088
 21
-0.545
  0
LINE
  8
0
 10
12.988
 11
13
 20
-0.545
 21
0
  0
LINE
  8
0
 10
13
 11
12.989
 20
0
 21
0.544
  0
LINE
  8
0
 10
12.989
 11
12.955
 20
0.544
 21
1.088
  0
LINE
  8
0
 10
12.955
 11
12.897
 20
1.088
 21
1.629
  0
LINE
  8
0
 10
12.897
 11
12.818
 20
1.629
 21
2.169
  0
LINE
  8
0
 10
12.818
 11
12.716
 20
2.169
 21
2.703
  0
LINE
  8
0
 10
12.716
 11
12.592
 20
2.703
 21
3.233
  0
LINE
  8
0
 10
12.592
 11
12.446
 20
3.233
 21
3.757
  0
LINE
  8
0
 10
12.446
 11
12.295
 20
3.757
 21
4.221
  0
ENDSEC
  0
SECTION
  2
OBJECTS
  0
DICTIONARY
  0
ENDSEC
  0
EOF
