<?xml version="1.0" encoding="UTF-8" standalone="no"?>
<!-- Created with Inkscape (http://www.inkscape.org/) -->

<svg
   xmlns:osb="http://www.openswatchbook.org/uri/2009/osb"
   xmlns:dc="http://purl.org/dc/elements/1.1/"
   xmlns:cc="http://creativecommons.org/ns#"
   xmlns:rdf="http://www.w3.org/1999/02/22-rdf-syntax-ns#"
   xmlns:svg="http://www.w3.org/2000/svg"
   xmlns="http://www.w3.org/2000/svg"
   xmlns:sodipodi="http://sodipodi.sourceforge.net/DTD/sodipodi-0.dtd"
   xmlns:inkscape="http://www.inkscape.org/namespaces/inkscape"
   width="744.09448819"
   height="1052.3622047"
   id="svg5212"
   version="1.1"
   inkscape:version="0.48.1 r9760"
   sodipodi:docname="cricular_arrows.svg">
  <defs
     id="defs5214">
    <linearGradient
       inkscape:collect="always"
       id="linearGradient13775"
       osb:paint="gradient">
      <stop
         style="stop-color:#000000;stop-opacity:1;"
         offset="0"
         id="stop13777" />
      <stop
         style="stop-color:#000000;stop-opacity:0;"
         offset="1"
         id="stop13779" />
    </linearGradient>
    <linearGradient
       inkscape:collect="always"
       id="linearGradient13763"
       osb:paint="gradient">
      <stop
         style="stop-color:#000000;stop-opacity:1;"
         offset="0"
         id="stop13765" />
      <stop
         style="stop-color:#000000;stop-opacity:0;"
         offset="1"
         id="stop13767" />
    </linearGradient>
    <marker
       orient="auto"
       id="DistanceX"
       style="overflow:visible"
       refX="0.0"
       refY="0.0">
      <path
         id="path5262"
         d="M 3,-3 L -3,3 M 0,-5 L  0,5"
         style="stroke:#000000; stroke-width:0.5" />
    </marker>
  </defs>
  <sodipodi:namedview
     id="base"
     pagecolor="#ffffff"
     bordercolor="#666666"
     borderopacity="1.0"
     inkscape:pageopacity="0.0"
     inkscape:pageshadow="2"
     inkscape:zoom="6.5461763"
     inkscape:cx="305.71431"
     inkscape:cy="439.999"
     inkscape:document-units="px"
     inkscape:current-layer="layer1"
     showgrid="false"
     showguides="false"
     inkscape:window-width="1680"
     inkscape:window-height="1002"
     inkscape:window-x="0"
     inkscape:window-y="0"
     inkscape:window-maximized="0" />
  <metadata
     id="metadata5217">
    <rdf:RDF>
      <cc:Work
         rdf:about="">
        <dc:format>image/svg+xml</dc:format>
        <dc:type
           rdf:resource="http://purl.org/dc/dcmitype/StillImage" />
        <dc:title></dc:title>
      </cc:Work>
    </rdf:RDF>
  </metadata>
  <g
     inkscape:label="Layer 1"
     inkscape:groupmode="layer"
     id="layer1">
    <path
       style="fill:none;stroke:#000000;stroke-width:0.36000001;stroke-miterlimit:4;stroke-dasharray:none"
       d="M 304.40625 550.375 L 301.8125 550.46875 L 299.21875 550.6875 L 296.65625 551.03125 L 294.09375 551.46875 L 291.5625 552 L 289.03125 552.65625 L 286.5625 553.40625 L 284.09375 554.25 L 281.6875 555.1875 L 279.3125 556.25 L 277 557.40625 L 274.71875 558.65625 L 272.5 560 L 270.3125 561.4375 L 268.21875 562.96875 L 266.1875 564.59375 L 264.21875 566.28125 L 262.34375 568.0625 L 260.5 569.90625 L 258.78125 571.84375 L 257.125 573.84375 L 255.5625 575.90625 L 254.0625 578.0625 L 252.6875 580.25 L 251.375 582.5 L 250.1875 584.78125 L 249.0625 587.15625 L 248.0625 589.53125 L 247.15625 591.96875 L 246.34375 594.4375 L 245.65625 596.9375 L 245.0625 599.46875 L 244.5625 602.03125 L 244.1875 604.59375 L 243.9375 607.1875 L 243.75 609.78125 L 243.71875 612.375 L 243.75 614.96875 L 243.9375 617.5625 L 244.1875 620.125 L 244.5625 622.6875 L 245.0625 625.25 L 245.65625 627.78125 L 246.34375 630.28125 L 247.15625 632.75 L 248.0625 635.1875 L 249.0625 637.59375 L 250.1875 639.9375 L 251.375 642.25 L 252.6875 644.46875 L 254.0625 646.6875 L 255.5625 648.8125 L 257.125 650.875 L 258.78125 652.875 L 260.5 654.8125 L 262.34375 656.65625 L 264.21875 658.4375 L 266.1875 660.15625 L 268.21875 661.75 L 270.3125 663.28125 L 272.5 664.71875 L 274.71875 666.0625 L 277 667.3125 L 279.3125 668.46875 L 281.6875 669.53125 L 284.09375 670.46875 L 286.5625 671.34375 L 289.03125 672.09375 L 291.5625 672.71875 L 294.09375 673.28125 L 296.65625 673.71875 L 299.21875 674.03125 L 301.8125 674.25 L 304.40625 674.34375 L 307 674.34375 L 309.59375 674.25 L 312.1875 674.03125 L 314.78125 673.71875 L 317.34375 673.28125 L 319.875 672.71875 L 322.375 672.09375 L 324.875 671.34375 L 327.34375 670.46875 L 329.75 669.53125 L 332.125 668.46875 L 334.4375 667.3125 L 336.71875 666.0625 L 338.9375 664.71875 L 341.09375 663.28125 L 343.1875 661.75 L 345.25 660.15625 L 347.21875 658.4375 L 349.09375 656.65625 L 350.90625 654.8125 L 352.65625 652.875 L 354.3125 650.875 L 355.875 648.8125 L 357.375 646.6875 L 358.75 644.46875 L 360.0625 642.25 L 361.25 639.9375 L 362.375 637.59375 L 363.375 635.1875 L 364.28125 632.75 L 365.0625 630.28125 L 365.78125 627.78125 L 366.375 625.25 L 366.84375 622.6875 L 367.21875 620.125 L 367.5 617.5625 L 367.65625 614.96875 L 367.71875 612.375 L 367.65625 609.78125 L 367.5 607.1875 L 367.21875 604.59375 L 366.84375 602.03125 L 366.375 599.46875 L 365.78125 596.9375 L 365.0625 594.4375 L 364.28125 591.96875 L 363.375 589.53125 L 362.375 587.15625 L 361.25 584.78125 L 360.0625 582.5 L 358.75 580.25 L 357.375 578.0625 L 355.875 575.90625 L 354.3125 573.84375 L 352.65625 571.84375 L 350.90625 569.90625 L 349.09375 568.0625 L 347.21875 566.28125 L 345.25 564.59375 L 343.1875 562.96875 L 341.09375 561.4375 L 338.9375 560 L 336.71875 558.65625 L 334.4375 557.40625 L 332.125 556.25 L 329.75 555.1875 L 327.34375 554.25 L 324.875 553.40625 L 322.375 552.65625 L 319.875 552 L 317.34375 551.46875 L 314.78125 551.03125 L 312.1875 550.6875 L 309.59375 550.46875 L 307 550.375 L 304.40625 550.375 z M 305.71875 552.3125 C 306.63035 552.3125 307.375 553.0259 307.375 553.9375 C 307.375 554.8491 306.63035 555.59375 305.71875 555.59375 C 304.80715 555.59375 304.0625 554.8491 304.0625 553.9375 C 304.0625 553.0259 304.80715 552.3125 305.71875 552.3125 z M 304.78125 568.09375 L 306.65625 568.09375 L 308.5 568.15625 L 310.34375 568.3125 L 312.1875 568.53125 L 314 568.84375 L 315.8125 569.25 L 317.625 569.6875 L 319.40625 570.25 L 321.15625 570.84375 L 322.875 571.53125 L 324.5625 572.28125 L 326.21875 573.125 L 327.875 574 L 329.4375 574.96875 L 331 576 L 332.5 577.09375 L 333.9375 578.25 L 335.34375 579.4375 L 336.71875 580.71875 L 338 582.03125 L 339.25 583.40625 L 340.4375 584.84375 L 341.5625 586.34375 L 342.59375 587.84375 L 343.59375 589.40625 L 344.53125 591.03125 L 345.375 592.65625 L 346.1875 594.34375 L 346.90625 596.0625 L 347.53125 597.78125 L 348.125 599.5625 L 348.625 601.34375 L 349.03125 603.15625 L 349.375 604.96875 L 349.65625 606.8125 L 349.84375 608.65625 L 349.96875 610.5 L 350 612.375 L 349.96875 614.21875 L 349.84375 616.0625 L 349.65625 617.90625 L 349.375 619.75 L 349.03125 621.5625 L 348.625 623.375 L 348.125 625.15625 L 347.53125 626.9375 L 346.90625 628.65625 L 346.1875 630.375 L 345.375 632.0625 L 344.53125 633.6875 L 343.59375 635.3125 L 342.59375 636.875 L 341.5625 638.40625 L 340.4375 639.875 L 339.25 641.3125 L 338 642.6875 L 336.71875 644 L 335.34375 645.28125 L 333.9375 646.5 L 332.5 647.65625 L 331 648.71875 L 329.4375 649.75 L 327.875 650.71875 L 326.21875 651.625 L 324.5625 652.4375 L 322.875 653.1875 L 321.15625 653.875 L 319.40625 654.5 L 317.625 655.03125 L 315.8125 655.5 L 314 655.875 L 312.1875 656.1875 L 310.34375 656.40625 L 308.5 656.5625 L 306.65625 656.65625 L 304.78125 656.65625 L 302.9375 656.5625 L 301.09375 656.40625 L 299.25 656.1875 L 297.40625 655.875 L 295.59375 655.5 L 293.8125 655.03125 L 292.03125 654.5 L 290.28125 653.875 L 288.5625 653.1875 L 286.84375 652.4375 L 285.1875 651.625 L 283.5625 650.71875 L 281.96875 649.75 L 280.4375 648.71875 L 278.9375 647.65625 L 277.46875 646.5 L 276.0625 645.28125 L 274.71875 644 L 273.4375 642.6875 L 272.1875 641.3125 L 271 639.875 L 269.875 638.40625 L 268.8125 636.875 L 267.84375 635.3125 L 266.90625 633.6875 L 266.03125 632.0625 L 265.25 630.375 L 264.53125 628.65625 L 263.875 626.9375 L 263.3125 625.15625 L 262.8125 623.375 L 262.375 621.5625 L 262.03125 619.75 L 261.78125 617.90625 L 261.59375 616.0625 L 261.46875 614.21875 L 261.4375 612.375 L 261.46875 610.5 L 261.59375 608.65625 L 261.78125 606.8125 L 262.03125 604.96875 L 262.375 603.15625 L 262.8125 601.34375 L 263.3125 599.5625 L 263.875 597.78125 L 264.53125 596.0625 L 265.25 594.34375 L 266.03125 592.65625 L 266.90625 591.03125 L 267.84375 589.40625 L 268.8125 587.84375 L 269.875 586.34375 L 271 584.84375 L 272.1875 583.40625 L 273.4375 582.03125 L 274.71875 580.71875 L 276.0625 579.4375 L 277.46875 578.25 L 278.9375 577.09375 L 280.4375 576 L 281.96875 574.96875 L 283.5625 574 L 285.1875 573.125 L 286.84375 572.28125 L 288.5625 571.53125 L 290.28125 570.84375 L 292.03125 570.25 L 293.8125 569.6875 L 295.59375 569.25 L 297.40625 568.84375 L 299.25 568.53125 L 301.09375 568.3125 L 302.9375 568.15625 L 304.78125 568.09375 z "
       id="path12298" />
    <path
       inkscape:connector-curvature="0"
       style="fill:#0000ff;stroke:none;stroke-width:0.35999999999999999;stroke-miterlimit:4;stroke-opacity:1;stroke-dasharray:none;fill-opacity:1"
       d="m 279.90789,565.89268 2.41654,-9.02477 0,0 1.21181,-0.51024 0,0 2.36693,-0.87874 0,0 2.39882,-0.78307 0,0 2.43071,-0.67677 0,0 2.45551,-0.57402 0,0 2.48031,-0.4748 0,0 2.49449,-0.3685 0,0 2.50866,-0.26221 0,0 2.51929,-0.15945 0,0 2.52284,-0.0532 0,5e-5 2.52283,0.0531 0,5e-5 2.51575,0.15591 0,0 0.86103,0.0921 0,2e-5 -6.78544,6.78544 0,0 7.58622,7.5862 0,0 -0.92834,-0.1382 0,0 -1.91693,-0.1984 0,0 -1.92402,-0.1205 0,0 -1.9311,-0.0425 0,-5e-4 -1.92756,0.039 0,0 -1.92756,0.1205 0,0 -1.91693,0.2055 0,0 -1.91338,0.2799 0,0 -1.89213,0.3614 0,0 -1.87795,0.4394 0,0 -1.8567,0.5173 0,0 -1.64409,0.535 0,0 -10.84961,-2.9055 z"
       id="path12284" />
    <path
       inkscape:connector-curvature="0"
       style="fill:#0000ff;stroke:none;stroke-width:0.35999999999999999;stroke-miterlimit:4;stroke-dasharray:none;fill-opacity:1"
       d="m 259.65081,612.36318 0.039,1.9276 -3e-5,0 0.12048,1.9275 0,0 0.20551,1.917 0,0 0.27992,1.9133 0,0 0.36142,1.8922 0,0 0.43937,1.8779 0,0 0.51732,1.8567 0,0 0.53504,1.6441 0,0 -2.90551,10.8496 0,0 -9.02481,-2.4165 0,0 -0.51023,-1.2118 0,0 -0.87874,-2.367 0,0 -0.78307,-2.3988 0,0 -0.67677,-2.4307 0,0 -0.57402,-2.4555 0,0 -0.4748,-2.4803 0,0 -0.36851,-2.4945 0,0 -0.2622,-2.5087 0,0 -0.15945,-2.5193 0,0 -0.0531,-2.5228 4.3e-4,0 0.0531,-2.5228 5e-5,0 0.1559,-2.5158 0,0 0.0921,-0.861 3e-5,0 6.78543,6.7854 0,0 7.58622,-7.5862 0,0 -0.13819,0.9284 0,0 -0.19842,1.9169 0,0 -0.12047,1.924 0,0 -0.0425,1.9311 z"
       id="path12296" />
    <path
       inkscape:connector-curvature="0"
       style="fill:#0000ff;stroke:none;stroke-width:0.35999999999999999;stroke-miterlimit:4;stroke-dasharray:none;fill-opacity:1"
       d="m 245.95947,604.87268 0.16299,-1.3075 0,0 0.42165,-2.4874 0,0 0.52087,-2.4697 0,0 0.63071,-2.4414 0,0 0.72992,-2.4165 0,0 0.82913,-2.3846 0,0 0.92835,-2.3422 0,0 1.02756,-2.3067 0,0 1.12323,-2.2606 0,0 1.21535,-2.211 0,0 1.30748,-2.1579 0,0 1.39252,-2.1012 0,0 0.51024,-0.698 0,0 2.48386,9.2693 0,0 10.36063,-2.778 0,0 -0.58111,0.7335 0,0 -1.13031,1.5626 0,0 -1.06654,1.6051 0,0 -1.00275,1.6512 0,0 -0.93189,1.6902 0,0 -0.85748,1.7291 0,0 -0.78307,1.761 0,0 -0.71221,1.7965 0,0 -0.63425,1.8212 0,0 -0.5563,1.8461 0,0 -0.48189,1.8673 0,0 -0.35787,1.6902 0,0 -7.94055,7.9441 0,0 -6.60827,-6.6047 z"
       id="path12294" />
    <path
       inkscape:connector-curvature="0"
       style="fill:#0000ff;stroke:none;stroke-width:0.35999999999999999;stroke-miterlimit:4;stroke-dasharray:none;fill-opacity:1"
       d="m 250.85986,637.22298 9.26929,2.4839 0,0 2.77441,-10.3642 0,0 0.34725,0.8717 0,0 0.78661,1.761 0,0 0.85748,1.7256 0,0 0.92835,1.6937 0,0 0.99567,1.6512 0,0 1.07008,1.6086 0,0 1.13385,1.5556 0,0 1.20119,1.5165 0,0 1.25787,1.4598 0,0 1.32165,1.4067 0,0 1.37481,1.35 0,0 1.28622,1.1551 0,0 2.90905,10.8497 0,0 -9.0248,2.42 0,0 -1.04882,-0.7972 0,0 -1.94528,-1.6087 0,0 -1.87795,-1.6866 0,0 -1.8,-1.7646 0,0 -1.72559,-1.8425 0,0 -1.65118,-1.9098 0,0 -1.56614,-1.9772 0,0 -1.4811,-2.0409 0,0 -1.39607,-2.1012 0,0 -1.30748,-2.1579 0,0 -1.21535,-2.211 0,0 -1.12323,-2.2571 0,0 -0.35079,-0.7902 z"
       id="path12292" />
    <path
       inkscape:connector-curvature="0"
       style="fill:#0000ff;stroke:none;stroke-width:0.35999999999999999;stroke-miterlimit:4;stroke-dasharray:none;fill-opacity:1"
       d="m 257.70908,575.99818 0.79724,-1.0488 0,0 1.60866,-1.9453 0,0 1.68661,-1.8779 0,0 1.76457,-1.8 0,0 1.84252,-1.7256 0,0 1.90984,-1.6512 0,0 1.97717,-1.5661 0,0 2.04094,-1.4811 0,0 2.10119,-1.3961 0,0 2.15787,-1.3075 0,0 2.21102,-1.21532 0,0 2.25709,-1.12323 0,0 0.79016,-0.35078 0,0 -2.48386,9.26933 0,0 10.36417,2.7744 0,0 -0.87165,0.3472 0,0 -1.76103,0.7866 0,0 -1.72559,0.8575 0,0 -1.6937,0.9284 0,0 -1.65118,0.9956 0,0 -1.60866,1.0701 0,0 -1.55551,1.1339 0,0 -1.51654,1.2011 0,0 -1.45984,1.2579 0,0 -1.40669,1.3217 0,0 -1.35,1.3748 0,0 -1.15512,1.2862 0,0 -10.84961,2.909 0,0 -2.42007,-9.0248 z"
       id="path12290" />
    <path
       inkscape:connector-curvature="0"
       style="fill:#0000ff;stroke:none;stroke-width:0.35999999999999999;stroke-miterlimit:4;stroke-dasharray:none;fill-opacity:1"
       d="m 270.6386,661.31748 9.26929,-2.4838 0,0 -2.77795,-10.3607 0,0 0.73347,0.5812 0,0 1.56259,1.1303 0,0 1.60512,1.0665 0,0 1.65118,1.0028 0,0 1.69016,0.9318 0,0 1.72913,0.8575 0,0 1.76103,0.7831 0,0 1.79646,0.7122 0,0 1.82125,0.6343 0,0 1.84607,0.5563 0,0 1.86732,0.4818 0,0 1.69016,0.3579 0,0 7.94409,7.9406 0,0 -6.60472,6.6082 0,0 -1.30748,-0.163 0,0 -2.4874,-0.4216 0,0 -2.46969,-0.5209 0,0 -2.44134,-0.6307 0,0 -2.41653,-0.7299 0,0 -2.38465,-0.8291 0,0 -2.34212,-0.9284 0,0 -2.3067,-1.0275 0,0 -2.26063,-1.1233 0,0 -2.21102,-1.2153 0,0 -2.15787,-1.3075 0,0 -2.10119,-1.3925 0,0 -0.69803,-0.5103 z"
       id="path12286" />
    <path
       inkscape:connector-curvature="0"
       style="fill:#0000ff;stroke:none;stroke-width:0.35999999999999999;stroke-miterlimit:4;stroke-dasharray:none;fill-opacity:1"
       d="m 305.7138,658.42518 1.92756,-0.039 0,0 1.92756,-0.1205 0,0 1.91693,-0.2055 0,0 1.91338,-0.2799 0,0 1.89213,-0.3614 0,0 1.87795,-0.4394 0,0 1.85669,-0.5173 0,0 1.6441,-0.535 0,0 10.84961,2.9055 0,0 -2.41654,9.0248 0,0 -1.21181,0.5102 0,0 -2.36693,0.8788 0,0 -2.39882,0.783 0,0 -2.43071,0.6768 0,0 -2.45551,0.574 0,0 -2.48031,0.4748 0,0 -2.49449,0.3685 0,0 -2.50866,0.2622 0,0 -2.5193,0.1595 0,0 -2.52283,0.0531 0,0 -2.52284,-0.053 0,-10e-5 -2.51574,-0.1559 0,0 -0.86103,-0.092 0,-2e-4 6.78544,-6.7854 0,0 -7.58622,-7.5862 0,5e-4 0.92834,0.1382 0,0 1.91693,0.1984 0,0 1.92402,0.1205 0,0 1.9311,0.0425 z"
       id="path12282" />
    <path
       inkscape:connector-curvature="0"
       style="fill:#0000ff;stroke:none;stroke-width:0.35999999999999999;stroke-miterlimit:4;stroke-dasharray:none;fill-opacity:1"
       d="m 306.59963,559.21612 6.60472,-6.60827 0,0 1.30748,0.163 0,0 2.4874,0.42165 0,0 2.46969,0.52087 0,0 2.44134,0.6307 0,0 2.41653,0.72993 0,0 2.38465,0.82913 0,0 2.34212,0.92835 0,0 2.3067,1.02755 0,0 2.26063,1.12323 0,0 2.21102,1.21532 0,0 2.15787,1.3075 0,0 2.10118,1.3925 0,0 0.69804,0.5103 0,0 -9.26929,2.4838 0,0 2.77795,10.3607 0,0 -0.73347,-0.5811 0,0 -1.5626,-1.1304 0,0 -1.60511,-1.0665 0,0 -1.65118,-1.0027 0,0 -1.69016,-0.9319 0,0 -1.72914,-0.8575 0,0 -1.76102,-0.7831 0,0 -1.79646,-0.7122 0,0 -1.82126,-0.6342 0,0 -1.84606,-0.5563 0,0 -1.86732,-0.4819 0,0 -1.69016,-0.3579 0,0 -7.94409,-7.94056 z"
       id="path12280" />
    <path
       inkscape:connector-curvature="0"
       style="fill:#0000ff;stroke:none;stroke-width:0.35999999999999999;stroke-miterlimit:4;stroke-dasharray:none;fill-opacity:1"
       d="m 322.69333,655.17238 0.87165,-0.3472 0,0 1.76102,-0.7866 0,0 1.72559,-0.8575 0,0 1.69371,-0.9283 0,0 1.65118,-0.9957 0,0 1.60866,-1.0701 0,0 1.55551,-1.1338 0,0 1.51654,-1.2012 0,0 1.45984,-1.2579 0,0 1.40669,-1.3217 0,0 1.35,-1.3748 0,0 1.15512,-1.2862 0,0 10.84961,-2.909 0,0 2.42007,9.0248 0,0 -0.79724,1.0488 0,0 -1.60866,1.9453 0,0 -1.68662,1.8779 0,0 -1.76456,1.8 0,0 -1.84252,1.7256 0,0 -1.90984,1.6512 0,0 -1.97717,1.5661 0,0 -2.04095,1.4811 0,0 -2.10118,1.3961 0,0 -2.15787,1.3075 0,0 -2.21102,1.2153 0,0 -2.25709,1.1233 0,0 -0.79016,0.3507 0,0 2.48386,-9.2692 0,0 -10.36417,-2.7745 z"
       id="path12278" />
    <path
       inkscape:connector-curvature="0"
       style="fill:#0000ff;stroke:none;stroke-width:0.35999999999999999;stroke-miterlimit:4;stroke-dasharray:none;fill-opacity:1"
       d="m 333.05396,566.77758 9.0248,-2.4201 0,0 1.04882,0.7972 0,0 1.94527,1.6087 0,0 1.87796,1.6866 0,0 1.8,1.7646 0,0 1.72559,1.8425 0,0 1.65118,1.9098 0,0 1.56614,1.9772 0,0 1.4811,2.0409 0,0 1.39607,2.1012 0,0 1.30748,2.1579 0,0 1.21535,2.211 0,0 1.12323,2.2571 0,0 0.35079,0.7902 0,0 -9.26929,-2.4839 0,0 -2.77441,10.3642 0,0 -0.34725,-0.8717 0,0 -0.78661,-1.761 0,0 -0.85748,-1.7256 0,0 -0.92835,-1.6937 0,0 -0.99567,-1.6512 0,0 -1.07008,-1.6086 0,0 -1.13386,-1.5555 0,0 -1.20118,-1.5166 0,0 -1.25787,-1.4598 0,0 -1.32165,-1.4067 0,0 -1.37481,-1.35 0,0 -1.28622,-1.1551 0,0 -2.90905,-10.8496 z"
       id="path12276" />
    <path
       inkscape:connector-curvature="0"
       style="fill:#0000ff;stroke:none;stroke-width:0.35999999999999999;stroke-miterlimit:4;stroke-dasharray:none;fill-opacity:1"
       d="m 341.82364,640.94608 0.5811,-0.7335 0,0 1.13032,-1.5626 0,0 1.06653,-1.6051 0,0 1.00276,-1.6512 0,0 0.93189,-1.6902 0,0 0.85748,-1.7291 0,0 0.78307,-1.761 0,0 0.71221,-1.7965 0,0 0.63425,-1.8212 0,0 0.5563,-1.8461 0,0 0.48189,-1.8673 0,0 0.35787,-1.6902 0,0 7.94055,-7.9441 0,0 6.60827,6.6048 0,0 -0.16299,1.3074 0,0 -0.42166,2.4874 0,0 -0.52086,2.4697 0,0 -0.63071,2.4414 0,0 -0.72992,2.4165 0,0 -0.82914,2.3846 0,0 -0.92834,2.3422 0,0 -1.02756,2.3067 0,0 -1.12323,2.2606 0,0 -1.21535,2.211 0,0 -1.30748,2.1579 0,0 -1.39252,2.1012 0,0 -0.51024,0.698 0,0 -2.48386,-9.2693 0,0 -10.36063,2.778 z"
       id="path12274" />
    <path
       inkscape:connector-curvature="0"
       style="fill:#0000ff;stroke:none;stroke-width:0.35999999999999999;stroke-miterlimit:4;stroke-dasharray:none;fill-opacity:1"
       d="m 351.77727,612.36218 -0.039,-1.9276 3e-5,0 -0.12048,-1.9275 0,0 -0.20551,-1.9169 0,0 -0.27992,-1.9134 0,0 -0.36142,-1.8922 0,0 -0.43937,-1.8779 0,0 -0.51732,-1.8567 0,0 -0.53504,-1.6441 -4.8e-4,0 2.90551,-10.8496 0,0 9.02481,2.4165 0,0 0.51023,1.2118 0,0 0.87874,2.367 0,0 0.78307,2.3988 0,0 0.67677,2.4307 0,0 0.57402,2.4555 0,0 0.4748,2.4803 0,0 0.36851,2.4945 0,0 0.2622,2.5087 0,0 0.15945,2.5193 0,0 0.0531,2.5228 5e-5,0 -0.0531,2.5228 -5e-5,0 -0.15591,2.5158 0,0 -0.0921,0.861 -2e-5,0 -6.78543,-6.7854 0,0 -7.58622,7.5862 0,0 0.13818,-0.9283 0,0 0.19843,-1.917 0,0 0.12047,-1.924 0,0 0.0425,-1.9311 z"
       id="path6560" />
  </g>
</svg>
