<?xml version="1.0" encoding="UTF-8" standalone="no"?>
<!-- Created with Inkscape (http://www.inkscape.org/) -->

<svg
   xmlns:dc="http://purl.org/dc/elements/1.1/"
   xmlns:cc="http://creativecommons.org/ns#"
   xmlns:rdf="http://www.w3.org/1999/02/22-rdf-syntax-ns#"
   xmlns:svg="http://www.w3.org/2000/svg"
   xmlns="http://www.w3.org/2000/svg"
   xmlns:sodipodi="http://sodipodi.sourceforge.net/DTD/sodipodi-0.dtd"
   xmlns:inkscape="http://www.inkscape.org/namespaces/inkscape"
   width="2160"
   height="1620"
   id="svg4726"
   version="1.1"
   inkscape:version="0.48.1 r9760"
   sodipodi:docname="New document 9">
  <defs
     id="defs4728" />
  <sodipodi:namedview
     id="base"
     pagecolor="#ffffff"
     bordercolor="#666666"
     borderopacity="1.0"
     inkscape:pageopacity="0.0"
     inkscape:pageshadow="2"
     inkscape:zoom="6.4983541"
     inkscape:cx="293.852"
     inkscape:cy="239.17185"
     inkscape:document-units="mm"
     inkscape:current-layer="layer1"
     showgrid="false"
     units="in"
     showguides="false"
     inkscape:guide-bbox="true"
     inkscape:window-width="1680"
     inkscape:window-height="1002"
     inkscape:window-x="0"
     inkscape:window-y="0"
     inkscape:window-maximized="0">
    <sodipodi:guide
       orientation="1,0"
       position="177.16535,177.16535"
       id="guide4734" />
    <sodipodi:guide
       orientation="1,0"
       position="301.1811,301.1811"
       id="guide4736" />
    <sodipodi:guide
       orientation="0,1"
       position="301.1811,301.1811"
       id="guide4738" />
    <sodipodi:guide
       orientation="0,1"
       position="177.16535,177.16535"
       id="guide4740" />
    <sodipodi:guide
       orientation="0,1"
       position="301.1811,290.55118"
       id="guide4744" />
    <sodipodi:guide
       orientation="0,1"
       position="301.1811,287.00787"
       id="guide4746" />
    <sodipodi:guide
       orientation="1,0"
       position="237.40157,287.00787"
       id="guide4748" />
    <sodipodi:guide
       orientation="1,0"
       position="240.94488,287.00787"
       id="guide4750" />
  </sodipodi:namedview>
  <metadata
     id="metadata4731">
    <rdf:RDF>
      <cc:Work
         rdf:about="">
        <dc:format>image/svg+xml</dc:format>
        <dc:type
           rdf:resource="http://purl.org/dc/dcmitype/StillImage" />
        <dc:title></dc:title>
      </cc:Work>
    </rdf:RDF>
  </metadata>
  <g
     inkscape:label="Layer 1"
     inkscape:groupmode="layer"
     id="layer1"
     transform="translate(0,567.64025)">
    <path
       style="fill:none;stroke:#000000;stroke-width:0.36000001;stroke-miterlimit:4;stroke-opacity:1;stroke-dasharray:none"
       d="M 239.1875 1318.8125 C 204.9415 1318.8125 177.15625 1346.5665 177.15625 1380.8125 C 177.15625 1415.0585 204.9415 1442.8438 239.1875 1442.8438 C 273.4335 1442.8438 301.1875 1415.0585 301.1875 1380.8125 C 301.1875 1346.5665 273.4335 1318.8125 239.1875 1318.8125 z M 239.1875 1329.4375 C 240.16596 1329.4375 240.9375 1330.2403 240.9375 1331.2188 C 240.9375 1332.1972 240.16596 1333 239.1875 1333 C 238.20904 1333 237.40625 1332.1972 237.40625 1331.2188 C 237.40625 1330.2403 238.20904 1329.4375 239.1875 1329.4375 z "
       transform="translate(0,-567.64025)"
       id="path4742" />
    <path
       style="fill:#000000"
       d="m 229.20673,820.99033 c 0.0213,-0.1028 0.0772,-0.24059 0.12446,-0.30621 0.0473,-0.0656 0.14495,-0.49186 0.21708,-0.94724 0.16221,-1.02395 0.54291,-1.78871 1.11741,-2.24474 0.14335,-0.1138 0.25166,-0.23588 0.24066,-0.27128 -0.011,-0.0355 0.0173,-0.0547 0.0632,-0.0429 0.0457,0.0118 0.0691,-0.0236 0.0517,-0.0798 -0.0173,-0.0557 0.009,-0.13295 0.0579,-0.17167 0.0491,-0.0387 0.11331,-0.20941 0.1426,-0.37932 0.11359,-0.65882 0.43356,-1.38955 0.71812,-1.64003 0.15141,-0.13327 0.30547,-0.25597 0.34233,-0.27265 0.6793,-0.30761 0.79028,-0.39153 0.95376,-0.72134 0.22773,-0.45939 0.27952,-0.60041 0.25248,-0.68751 -0.0126,-0.0405 -0.0108,-0.13713 0.004,-0.21476 0.0349,-0.18211 0.051,-0.43345 0.0337,-0.52542 -0.0283,-0.14991 0.14031,-0.8921 0.25223,-1.11033 0.17688,-0.34491 0.27494,-0.47905 0.73463,-1.00494 0.59872,-0.68495 0.76397,-0.78616 1.47734,-0.9049 0.69471,-0.11565 0.92169,-0.2478 1.30356,-0.75894 0.13763,-0.18426 0.27719,-0.34418 0.31012,-0.35537 0.0328,-0.0115 0.15024,-0.17258 0.26066,-0.35861 0.41147,-0.69318 0.51061,-0.79644 0.872,-0.90813 0.18811,-0.0585 0.4466,-0.0868 0.57423,-0.0636 0.12762,0.0231 0.30691,0.019 0.3984,-0.009 0.0915,-0.0284 0.17403,-0.0269 0.18342,0.003 0.009,0.0302 0.23651,-0.0415 0.50493,-0.15883 0.2682,-0.11793 0.67204,-0.28539 0.89738,-0.37214 0.22532,-0.0868 0.57189,-0.26052 0.77012,-0.38615 0.35549,-0.22528 0.89332,-0.40485 1.07336,-0.35843 0.10104,0.0262 0.44415,-0.40291 0.62153,-0.77708 0.0616,-0.12993 0.14208,-0.24557 0.17887,-0.257 0.0367,-0.0114 0.11431,-0.13009 0.17227,-0.26371 0.0579,-0.13362 0.11425,-0.21456 0.12506,-0.17988 0.0108,0.0347 0.0594,-0.003 0.10791,-0.0837 0.0485,-0.0807 0.32353,-0.33071 0.61109,-0.5556 0.28757,-0.22489 0.55905,-0.46723 0.60331,-0.53851 0.0442,-0.0714 0.14646,-0.1501 0.22714,-0.17516 0.0807,-0.025 0.14722,-0.10593 0.14789,-0.17968 0.002,-0.16673 0.55723,-0.72778 0.8246,-0.83242 0.10898,-0.0426 0.21818,-0.1239 0.24265,-0.18054 0.14262,-0.33022 1.92705,-1.07037 2.82753,-1.17283 0.36059,-0.041 0.62808,-0.0151 0.96737,0.0937 1.74247,0.5588 2.13793,0.59433 3.15832,0.2838 0.36444,-0.11107 0.75241,-0.20526 0.86212,-0.20955 0.10968,-0.004 0.34872,-0.0953 0.53123,-0.20208 0.2935,-0.17172 1.52646,-0.56149 2.0478,-0.64735 0.54476,-0.0897 0.92801,-0.13092 1.03735,-0.11155 0.1103,0.0196 0.40177,-0.11125 0.87076,-0.3908 0.57672,-0.34376 1.52699,-0.53277 1.92599,-0.38311 0.0595,0.0222 0.10096,0.0173 0.0922,-0.0109 -0.009,-0.0283 0.0772,-0.0245 0.19084,0.008 0.11376,0.0326 0.23616,0.0501 0.27202,0.039 0.0358,-0.0112 0.30334,0.0433 0.59444,0.12087 0.29111,0.0776 0.6639,0.1592 0.82842,0.18131 0.16454,0.0221 0.30609,0.0626 0.31455,0.0897 0.008,0.0273 0.22106,0.10981 0.47246,0.18346 0.25138,0.0736 0.78426,0.33146 1.18416,0.57292 0.3999,0.24147 0.76507,0.44097 0.81148,0.44333 0.0465,0.003 0.18769,0.047 0.31395,0.0993 0.12627,0.0522 0.34877,0.10411 0.49447,0.11526 0.14568,0.0112 0.32392,0.0443 0.39605,0.0734 0.19767,0.0801 1.20076,0.024 1.75145,-0.098 0.60618,-0.13425 1.03829,-0.14159 1.24181,-0.0212 0.0861,0.0509 0.1935,0.0811 0.23875,0.067 0.11166,-0.0347 0.54719,0.23466 0.77084,0.47668 0.20512,0.22196 0.71271,0.33485 1.46681,0.32623 0.25138,-0.003 0.55611,0.0251 0.67716,0.0622 0.12106,0.0371 0.35658,0.0478 0.52338,0.024 0.3712,-0.0533 1.21655,0.32826 1.39597,0.62998 0.0632,0.10637 0.15808,0.22306 0.21072,0.25928 0.0527,0.0362 0.0699,0.0738 0.0384,0.0837 -0.0315,0.01 -0.008,0.0438 0.0523,0.0754 0.0603,0.0317 0.13294,0.13276 0.16143,0.2245 0.0285,0.0917 0.13929,0.22711 0.24628,0.3008 0.10695,0.0737 0.2058,0.17044 0.21963,0.21501 0.027,0.0869 1.03879,0.58101 1.76649,0.86274 0.24391,0.0944 0.69721,0.18316 1.00733,0.19717 0.49156,0.0223 0.65955,0.0757 1.31037,0.41738 0.60691,0.31862 1.385,0.87259 1.43024,1.0183 0.015,0.0485 0.51074,0.43568 0.73842,0.57675 0.41046,0.25435 0.76825,0.5358 0.74273,0.58428 -0.0144,0.0273 0.0727,0.10633 0.19338,0.17577 0.12069,0.0695 0.26794,0.21783 0.32721,0.32976 0.0593,0.11194 0.21452,0.27033 0.34497,0.352 0.13046,0.0817 0.2503,0.19067 0.26629,0.24222 0.0161,0.0515 0.0624,0.0834 0.10295,0.0708 0.0406,-0.0126 0.0642,0.0145 0.0524,0.0602 -0.0118,0.0457 0.0219,0.0696 0.0749,0.0532 0.0966,-0.03 0.61545,0.44867 0.66904,0.61729 0.0156,0.0494 0.0736,0.1015 0.12852,0.11568 0.14326,0.037 0.46852,0.44448 0.5872,0.73567 0.12141,0.29786 0.22789,1.08857 0.14985,1.1128 -0.0303,0.009 -0.0229,0.0583 0.0168,0.10851 0.0396,0.0502 0.0684,0.19626 0.064,0.32447 -0.0117,0.34151 -0.2664,1.16048 -0.35382,1.13792 -0.0412,-0.0107 -0.0643,0.0152 -0.0513,0.0575 0.0324,0.10418 -0.46205,1.062 -0.5646,1.09383 -0.0451,0.014 -0.0671,0.0725 -0.0493,0.12997 0.0179,0.0576 0.008,0.1069 -0.0232,0.10975 -0.14059,0.0131 -0.74857,0.5731 -0.88956,0.81946 -0.0601,0.10491 -0.13102,0.19753 -0.15777,0.20584 -0.0267,0.008 -0.12712,0.12547 -0.22305,0.26036 -0.0959,0.13489 -0.22357,0.26052 -0.28366,0.27918 -0.0601,0.0187 -0.10109,0.0602 -0.0911,0.0923 0.01,0.0321 -0.14365,0.17442 -0.3414,0.31621 -0.19775,0.14181 -0.38881,0.30993 -0.42462,0.37359 -0.0358,0.0637 -0.0994,0.12642 -0.14127,0.13942 -0.0419,0.0131 -0.27667,0.20822 -0.52166,0.43381 -0.245,0.22559 -0.52973,0.45604 -0.63274,0.5121 -0.103,0.0561 -0.19526,0.13286 -0.20502,0.17066 -0.01,0.0379 -0.0627,0.0658 -0.11771,0.0621 -0.055,-0.003 -0.13794,0.0753 -0.18434,0.17524 -0.0464,0.1 -0.12273,0.19369 -0.16961,0.20825 -0.0469,0.0146 -0.10971,0.0856 -0.13959,0.15801 -0.0299,0.0723 -0.11099,0.14912 -0.18027,0.17062 -0.0693,0.0215 -0.15869,0.10128 -0.19868,0.17737 -0.04,0.0761 -0.17029,0.19071 -0.2895,0.25479 -0.1192,0.0641 -0.22629,0.14934 -0.238,0.18947 -0.0116,0.0402 -0.11914,0.11749 -0.23876,0.1719 -0.1196,0.0544 -0.31436,0.19449 -0.43276,0.31131 -0.11841,0.11682 -0.30136,0.26759 -0.40654,0.33507 -0.24345,0.15619 -0.21319,0.13298 -0.49251,0.37764 -0.25073,0.2196 -0.98371,0.59687 -1.10087,0.56665 -0.0375,-0.01 -0.0602,0.009 -0.05,0.0412 0.0171,0.0551 -0.10421,0.12178 -0.41962,0.23053 -0.0732,0.0248 -0.16527,0.11616 -0.20479,0.20219 -0.077,0.16746 -0.40215,0.38338 -1.24068,0.82375 -0.28922,0.15189 -0.68608,0.42488 -0.88192,0.60667 -0.56881,0.52791 -0.82907,0.72793 -0.938,0.7208 -0.0559,-0.004 -0.0924,0.0231 -0.081,0.06 0.0271,0.087 -1.0239,1.04776 -1.51848,1.38803 -0.13857,0.0954 -0.28687,0.22714 -0.32954,0.29285 -0.10365,0.15968 -1.26826,1.2728 -1.36217,1.30195 -0.15832,0.0492 -0.98736,0.76973 -1.08806,0.94573 -0.0584,0.10226 -0.20763,0.2573 -0.33136,0.34452 -0.12372,0.0872 -0.34688,0.26453 -0.49589,0.394 -0.14901,0.12947 -0.35633,0.30951 -0.46071,0.40008 -0.10437,0.0906 -0.20743,0.17017 -0.22904,0.17688 -0.11652,0.0362 -1.5138,1.68243 -1.49081,1.75646 0.007,0.0227 -0.0613,0.10729 -0.15181,0.18819 -0.0905,0.081 -0.28781,0.35694 -0.43845,0.61345 -0.15063,0.25652 -0.31384,0.4788 -0.36267,0.49396 -0.0488,0.0152 -0.0797,0.0567 -0.0686,0.0926 0.0112,0.0358 -0.0321,0.10146 -0.096,0.14595 -0.16372,0.11403 -1.3751,2.40583 -1.42767,2.70101 -0.0239,0.13414 -0.0759,0.25394 -0.11548,0.26624 -0.0397,0.0122 -0.0447,0.0461 -0.0113,0.0753 0.0333,0.029 0.0153,0.10249 -0.0403,0.16312 -0.0556,0.0606 -0.0752,0.1032 -0.0434,0.0946 0.0317,-0.009 0.0209,0.0961 -0.0239,0.23254 -0.0591,0.17947 -0.0549,0.24877 0.0152,0.25043 0.0743,0.003 0.0943,0.10338 0.0861,0.4359 -0.006,0.23846 -0.0425,0.42538 -0.0812,0.41537 -0.0389,-0.01 -0.0489,0.0544 -0.0224,0.14336 0.0263,0.0889 0.043,0.42117 0.0366,0.73848 -0.006,0.31729 0.0467,0.92007 0.11776,1.33948 0.17524,1.0339 0.45406,2.54906 0.56558,3.07338 0.0503,0.23665 0.14771,0.72242 0.21643,1.07951 0.0687,0.35707 0.16768,0.84237 0.21993,1.07842 0.0523,0.23604 0.12055,0.57605 0.15171,0.75559 0.0312,0.17951 0.0968,0.46014 0.146,0.62357 0.0486,0.16358 0.0597,0.30637 0.0236,0.3176 -0.0361,0.0113 -0.0251,0.068 0.0244,0.12621 0.0873,0.1025 0.5904,1.73558 0.56519,1.83393 -0.007,0.0268 0.11931,0.53896 0.28045,1.13807 0.16119,0.59909 0.3112,1.20402 0.33341,1.34428 0.0223,0.14027 0.0672,0.34133 0.0999,0.44679 0.0327,0.10547 0.0294,0.2011 -0.008,0.21253 -0.0367,0.0114 -0.0567,0.054 -0.044,0.0946 0.0126,0.0406 0.0454,0.048 0.0729,0.0165 0.0648,-0.0745 0.20661,0.15428 0.21534,0.34737 0.004,0.0865 -0.0329,0.14026 -0.0871,0.12705 -0.0518,-0.0126 -0.0333,0.0175 0.0408,0.067 0.10952,0.073 0.12958,0.12985 0.10736,0.3042 -0.0197,0.15558 -0.003,0.21487 0.0591,0.21618 0.063,0.002 0.0726,0.035 0.0359,0.12467 -0.0386,0.0936 -0.024,0.14048 0.0614,0.19604 0.0846,0.0551 0.0962,0.0914 0.0473,0.14778 -0.0476,0.0546 -0.0348,0.0826 0.0474,0.10378 0.0896,0.0231 0.0912,0.0575 0.008,0.16985 -0.0974,0.13129 -0.0934,0.15006 0.0591,0.27581 0.11978,0.0988 0.15515,0.17459 0.13211,0.28314 -0.0226,0.10607 -0.003,0.15581 0.072,0.1749 0.0569,0.0146 0.0917,0.0722 0.0772,0.12796 -0.0205,0.0794 -0.0432,0.0864 -0.10465,0.0331 -0.0518,-0.0451 -0.0861,-0.0391 -0.10075,0.0176 -0.0122,0.0473 0.0436,0.0864 0.12396,0.0869 0.12761,6.5e-4 0.17042,0.0754 0.33771,0.58867 0.12529,0.38354 0.16511,0.59596 0.11542,0.6114 -0.0478,0.0148 -0.0362,0.094 0.0312,0.21239 0.065,0.11405 0.082,0.21789 0.0431,0.2625 -0.0354,0.0406 -0.025,0.13828 0.0231,0.2171 0.0483,0.0793 0.0604,0.217 0.0278,0.30793 -0.0677,0.18731 -0.0546,0.3084 0.0235,0.21855 0.029,-0.0332 0.0823,-0.0343 0.11877,-0.003 0.0787,0.0686 -0.0383,0.31782 -0.16901,0.36009 -0.0688,0.022 -0.061,0.038 0.0311,0.0627 0.0791,0.0213 0.13112,0.002 0.14597,-0.0562 0.0127,-0.0492 0.0597,-0.0799 0.1043,-0.0685 0.0983,0.0254 0.15261,0.40235 0.0719,0.49951 -0.0391,0.047 -0.0218,0.0928 0.0535,0.1419 0.0783,0.0509 0.0962,0.10117 0.0605,0.16915 -0.0358,0.068 -0.01,0.13202 0.0872,0.21573 0.11076,0.0955 0.12946,0.15177 0.0945,0.28443 -0.024,0.091 -0.0308,0.20487 -0.0151,0.25313 0.0191,0.0598 0.0396,0.0478 0.0635,-0.0378 0.0193,-0.069 0.0449,-0.0942 0.0568,-0.0559 0.012,0.0384 0.006,0.12623 -0.0135,0.1953 -0.0193,0.0691 -0.0468,0.0899 -0.061,0.0461 -0.0141,-0.0436 -0.0761,-0.0827 -0.13767,-0.0867 -0.0753,-0.005 -0.0947,0.0363 -0.0596,0.12498 0.0489,0.12391 0.1233,0.14508 0.25944,0.0739 0.0315,-0.0167 0.0539,0.023 0.0497,0.0878 -0.004,0.0648 0.0281,0.12695 0.0718,0.13825 0.0437,0.0113 0.099,0.0833 0.12276,0.15997 0.0239,0.0767 0.006,0.12979 -0.0398,0.11801 -0.0457,-0.0118 -0.0679,0.0273 -0.0493,0.0872 0.0185,0.0597 0.0651,0.099 0.10347,0.087 0.0774,-0.024 0.20471,0.33522 0.21547,0.60817 0.004,0.11922 -0.035,0.17792 -0.12292,0.1819 -0.0774,0.003 -0.15977,0.0896 -0.20392,0.21321 -0.0408,0.11401 -0.1196,0.20432 -0.17528,0.20068 -0.0556,-0.004 -0.11065,0.0296 -0.12205,0.0742 -0.0115,0.0444 -0.0651,0.0692 -0.11918,0.055 -0.0541,-0.0142 -0.16453,-0.0176 -0.24548,-0.008 -0.081,0.0101 -0.19695,0.0243 -0.25776,0.0316 -0.12192,0.0146 -0.19767,-0.19663 -0.31008,-0.86442 -0.0369,-0.21978 -0.0758,-0.44913 -0.0863,-0.5097 -0.0104,-0.0606 -0.008,-0.15362 0.006,-0.20678 0.0138,-0.0532 -0.0137,-0.10666 -0.0609,-0.11883 -0.0473,-0.0121 -0.0775,-0.0543 -0.0673,-0.0937 0.0314,-0.1215 -0.16479,-1.17723 -0.33257,-1.7901 -0.0877,-0.32031 -0.1506,-0.59924 -0.13972,-0.61985 0.0109,-0.0206 -0.0597,-0.27363 -0.15668,-0.5623 -0.097,-0.28868 -0.14961,-0.51797 -0.11695,-0.50952 0.0326,0.008 -0.007,-0.20082 -0.088,-0.46503 -0.0989,-0.32303 -0.16738,-0.45815 -0.20822,-0.41256 -0.0333,0.0373 -0.035,0.003 -0.003,-0.0756 0.0315,-0.0789 0.0187,-0.19903 -0.0286,-0.26691 -0.0473,-0.0679 -0.0568,-0.15688 -0.0214,-0.19772 0.0469,-0.0538 0.0335,-0.0827 -0.0485,-0.10486 -0.0902,-0.0243 -0.0947,-0.0366 -0.0221,-0.0601 0.05,-0.0162 0.0584,-0.0576 0.019,-0.092 -0.0396,-0.0344 -0.0376,-0.10335 0.005,-0.15335 0.0599,-0.0704 0.0479,-0.0819 -0.0537,-0.0513 -0.10126,0.0301 -0.1199,0.013 -0.0826,-0.0774 0.0266,-0.0643 -0.004,-0.32324 -0.0684,-0.57543 -0.0642,-0.25219 -0.10574,-0.50062 -0.0925,-0.55209 0.0132,-0.0515 -0.01,-0.10238 -0.0517,-0.11315 -0.0448,-0.0115 -0.0841,-0.13426 -0.096,-0.30038 -0.0113,-0.15437 -0.0595,-0.40906 -0.10723,-0.56593 -0.0473,-0.15699 -0.0716,-0.31401 -0.0531,-0.3492 0.0185,-0.0351 -0.0102,-0.247 -0.0637,-0.47074 -0.17225,-0.71948 -0.17987,-0.76206 -0.15418,-0.85638 0.0139,-0.051 -0.20951,-0.79012 -0.49648,-1.64236 -0.6298,-1.87011 -1.08027,-3.26662 -1.34227,-4.16152 -0.10744,-0.36609 -0.21631,-0.7279 -0.24246,-0.80388 -0.0518,-0.15102 -0.74691,-2.65776 -0.90255,-3.25544 -0.0532,-0.20422 -0.11237,-0.36645 -0.13172,-0.36045 -0.0192,0.006 -0.0926,-0.18625 -0.16295,-0.4272 -0.0707,-0.24086 -0.27629,-0.70889 -0.45758,-1.03989 -0.18132,-0.331 -0.49191,-1.02331 -0.69022,-1.53844 -0.35225,-0.91502 -0.3718,-0.94825 -0.84765,-1.44075 -0.26792,-0.27727 -0.51463,-0.51399 -0.54828,-0.52603 -0.0337,-0.0121 -0.14367,-0.11551 -0.24451,-0.22988 -0.26099,-0.29606 -0.37319,-0.38688 -1.00203,-0.81113 -0.53012,-0.35764 -2.17458,-1.26532 -2.64866,-1.46199 -0.12064,-0.0501 -0.43188,-0.2215 -0.69163,-0.38101 -0.25975,-0.15952 -0.79596,-0.3908 -1.19158,-0.51393 -0.39561,-0.12314 -0.83875,-0.27623 -0.98473,-0.34017 -0.14599,-0.0639 -0.28577,-0.11001 -0.31064,-0.10236 -0.0248,0.008 -0.28206,-0.0452 -0.57157,-0.1174 -0.28951,-0.0722 -0.61241,-0.13144 -0.71755,-0.13156 -0.10515,-8e-5 -0.2132,-0.0156 -0.24011,-0.0347 -0.0269,-0.019 -0.25704,-0.0954 -0.51139,-0.16978 -0.25435,-0.0744 -0.56399,-0.18534 -0.68808,-0.24649 -0.35725,-0.17601 -1.65507,-0.53843 -1.7844,-0.49828 -0.0645,0.02 -0.12761,0.003 -0.14021,-0.0374 -0.0126,-0.0406 -0.0494,-0.0434 -0.0817,-0.007 -0.0324,0.0373 -0.1118,0.0457 -0.17657,0.019 -0.2069,-0.0855 -1.30023,-0.28096 -2.11006,-0.37732 -0.26194,-0.0311 -0.53232,-0.0711 -0.60085,-0.0886 -0.0685,-0.0175 -0.24117,-0.0462 -0.38368,-0.0637 -0.26294,-0.0323 -0.74596,-0.15902 -1.80937,-0.47487 -0.32421,-0.0963 -0.6985,-0.19384 -0.83175,-0.21676 -0.86355,-0.14857 -1.54112,-0.28374 -1.58631,-0.31646 -0.029,-0.0209 -0.20749,-0.0851 -0.39669,-0.14253 -0.18919,-0.0574 -0.46296,-0.16361 -0.60839,-0.23597 -0.14541,-0.0724 -0.41852,-0.18487 -0.60693,-0.24997 -0.1884,-0.0651 -0.42922,-0.17648 -0.53517,-0.24745 -0.10595,-0.071 -0.2675,-0.15842 -0.35901,-0.19434 -1.91779,-0.75268 -5.9361,-2.9681 -6.0502,-3.33565 -0.0104,-0.0334 -0.25154,-0.25083 -0.5359,-0.48307 -0.69846,-0.57045 -1.27164,-1.1479 -1.31856,-1.32837 -0.0213,-0.0817 -0.0213,-0.23262 -5e-5,-0.33541 z"
       id="path4815"
       inkscape:connector-curvature="0" />
  </g>
</svg>
