<?xml version="1.0" encoding="UTF-8" standalone="no"?>
<!-- Created with Inkscape (http://www.inkscape.org/) -->

<svg
   xmlns:dc="http://purl.org/dc/elements/1.1/"
   xmlns:cc="http://creativecommons.org/ns#"
   xmlns:rdf="http://www.w3.org/1999/02/22-rdf-syntax-ns#"
   xmlns:svg="http://www.w3.org/2000/svg"
   xmlns="http://www.w3.org/2000/svg"
   xmlns:sodipodi="http://sodipodi.sourceforge.net/DTD/sodipodi-0.dtd"
   xmlns:inkscape="http://www.inkscape.org/namespaces/inkscape"
   width="2160"
   height="1620"
   id="svg2"
   version="1.1"
   inkscape:version="0.48.1 r9760"
   sodipodi:docname="New document 1">
  <defs
     id="defs4" />
  <sodipodi:namedview
     id="base"
     pagecolor="#ffffff"
     bordercolor="#666666"
     borderopacity="1.0"
     inkscape:pageopacity="0.0"
     inkscape:pageshadow="2"
     inkscape:zoom="7.2280921"
     inkscape:cx="194.63177"
     inkscape:cy="231.7603"
     inkscape:document-units="mm"
     inkscape:current-layer="layer1"
     showgrid="false"
     units="in"
     showguides="true"
     inkscape:guide-bbox="true"
     inkscape:window-width="1680"
     inkscape:window-height="1002"
     inkscape:window-x="0"
     inkscape:window-y="0"
     inkscape:window-maximized="0">
    <sodipodi:guide
       orientation="1,0"
       position="177.16535,177.16535"
       id="guide3875" />
    <sodipodi:guide
       orientation="0,1"
       position="177.16535,177.16535"
       id="guide3877" />
    <sodipodi:guide
       orientation="1,0"
       position="248.0315,248.0315"
       id="guide3879" />
    <sodipodi:guide
       orientation="0,1"
       position="248.0315,248.0315"
       id="guide3881" />
    <sodipodi:guide
       orientation="0,1"
       position="248.0315,244.48819"
       id="guide4661" />
    <sodipodi:guide
       orientation="0,1"
       position="248.0315,240.94488"
       id="guide4663" />
    <sodipodi:guide
       orientation="1,0"
       position="210.82677,244.48819"
       id="guide4665" />
    <sodipodi:guide
       orientation="1,0"
       position="214.37008,244.48819"
       id="guide4667" />
  </sodipodi:namedview>
  <metadata
     id="metadata7">
    <rdf:RDF>
      <cc:Work
         rdf:about="">
        <dc:format>image/svg+xml</dc:format>
        <dc:type
           rdf:resource="http://purl.org/dc/dcmitype/StillImage" />
        <dc:title></dc:title>
      </cc:Work>
    </rdf:RDF>
  </metadata>
  <g
     inkscape:label="Layer 1"
     inkscape:groupmode="layer"
     id="layer1"
     transform="translate(0,567.64025)">
    <path
       style="fill:#0000ff;fill-opacity:1;stroke:none"
       d="m 212.59375,804.32855 c -19.56915,0 -35.4375,15.8683 -35.4375,35.4374 0,19.5692 15.86835,35.4376 35.4375,35.4376 9.33386,0 17.82759,-3.6326 24.15625,-9.5313 l -3.59375,-1.75 c -8.40811,-4.1384 -13.3091,-4.2721 -17.375,-0.4375 -1.4342,1.3522 -2.53125,1.9113 -2.53125,1.3438 0,-0.542 1.4829,-2.4263 3.25,-4.2188 2.67189,-2.7103 3.65527,-3.2812 5.90625,-3.2812 3.44913,-10e-5 7.70575,2.1054 11.84375,5.8124 l 2.65625,2.375 c 0.40481,-0.382 0.80104,-0.7556 1.1875,-1.1562 -3.04257,-5.1914 -6.92942,-10.2505 -11.53125,-14.875 -4.79124,-4.8148 -5.48887,-5.2405 -7.4375,-4.8125 -1.18103,0.2594 -2.81515,0.1209 -3.625,-0.3125 -1.18814,-0.6359 -1.75684,-0.5243 -2.9375,0.6562 -0.80475,0.8048 -1.74,1.4688 -2.09375,1.4688 -1.52914,0 -3.83944,-2.7355 -4.40625,-5.25 -0.53945,-2.393 -0.39571,-2.8269 0.96875,-3.5312 1.85639,-0.9586 4.7135,-4.2714 4.75,-5.4688 0.0535,-1.7533 1.92446,-2.6855 3.9375,-2.6875 1.5657,-0.002 3.22844,0.5653 4.25,1.8125 1.53091,1.8691 1.57512,3.194 0.21875,4.4375 -0.87358,0.8008 -0.84281,1.1094 0.0625,2.125 0.57987,0.6505 1.1083,1.9654 1.1875,2.9063 0.0875,1.04 2.16695,3.682 5.28125,6.7812 5.17558,5.1505 9.2531,10.3003 12.375,15.6562 5.55259,-6.2555 8.9375,-14.4777 8.9375,-23.5 0,-19.5691 -15.86835,-35.4374 -35.4375,-35.4374 z m -2.84375,6.0937 c 1.26041,0.0394 2.4375,1.1149 2.4375,3.2187 0,1.3921 -0.4904,2.3249 -1.53125,2.8438 -1.41719,0.7065 -1.47913,0.938 -0.5625,2.6875 1.33822,2.5541 0.44734,5.1013 -1.40625,4.0625 -0.72034,-0.4037 -1.77119,-0.5634 -2.34375,-0.3438 -1.45425,0.5581 -3.21875,-0.2225 -3.21875,-1.4374 0,-0.5597 -0.37041,-1.6484 -0.84375,-2.4063 -1.10473,-1.7689 0.30646,-3.6563 2.71875,-3.6563 1.26839,10e-5 1.70134,-0.4836 1.875,-1.9374 0.25037,-2.0962 1.6146,-3.0706 2.875,-3.0313 z m 12.59375,3.1563 c 0.60043,-0.031 1.27426,0.0701 1.84375,0.375 0.76681,0.4103 1.375,1.4136 1.375,2.2187 0,0.8051 -0.27209,1.2806 -0.625,1.0625 -0.3529,-0.2181 -0.617,0.1831 -0.5625,0.875 0.0618,0.7834 -0.37286,1.2181 -1.15625,1.1562 -0.69189,-0.0545 -1.06185,0.2096 -0.84375,0.5626 0.21811,0.3528 -0.26973,0.625 -1.0625,0.625 -1.12965,-2e-4 -1.37353,0.3793 -1.125,1.75 0.43971,2.4248 -2.54174,5.8225 -5.28125,6.0312 -1.16426,0.0887 -2.31004,-0.0289 -2.5625,-0.2812 -0.25246,-0.2526 0.33188,-1.8269 1.3125,-3.5 1.00455,-1.7142 1.78125,-4.1841 1.78125,-5.6563 0,-2.8299 1.41231,-4.197 3.71875,-3.5937 0.73913,0.1932 1.34375,0.0265 1.34375,-0.375 0,-0.7298 0.84302,-1.1989 1.84375,-1.25 z M 193.5,813.76595 c 0.28253,-0.009 0.72996,0.4756 1.53125,1.5626 1.74309,2.3643 1.4003,2.8643 -0.8125,1.1874 -0.73113,-0.554 -1.19691,-1.5551 -1.0625,-2.2187 0.0712,-0.3517 0.17424,-0.5262 0.34375,-0.5313 z m 20.15625,1.875 c 0.28964,0.0318 0.34375,0.7571 0.34375,2.5313 0,2.4495 -1.5849,7.3419 -2.375,7.3437 -0.0892,3e-4 -0.1164,-1.8346 -0.0625,-4.0624 0.0642,-2.6573 0.51514,-4.4527 1.28125,-5.2188 0.40309,-0.4031 0.6387,-0.6126 0.8125,-0.5938 z m -21.59375,1.2813 c 0.65356,-0.004 1.13298,0.4505 2.0625,1.5313 1.41943,1.6501 1.8157,1.7747 2.5625,0.875 1.0606,-1.278 2.97773,-1.3348 4.15625,-0.1563 1.22764,1.2276 1.06816,2.7187 -0.28125,2.7187 -0.62732,10e-5 -2.13705,0.9807 -3.34375,2.1876 -1.60228,1.6021 -2.09284,2.6968 -1.84375,4 0.28352,1.483 0.0548,1.7812 -1.34375,1.7812 -0.94224,0 -2.03518,-0.6274 -2.46875,-1.4375 -0.53748,-1.0043 -0.55105,-1.9037 -0.0312,-2.875 0.92614,-1.7305 0.96718,-2.4148 0.0937,-1.875 -1.05126,0.6497 -2.96875,-1.7072 -2.96875,-3.6563 0,-1.2094 0.61403,-2.0362 1.90625,-2.625 0.63564,-0.2896 1.10787,-0.4667 1.5,-0.4687 z m 33.25,3.1875 c 0.20755,0.048 0.0979,0.4463 -0.15625,1.25 -0.77794,2.4601 -2.40662,4.6478 -4.375,5.9375 l -1.75,1.1875 1.40625,-2.6875 c 0.78845,-1.4711 1.33909,-2.8797 1.1875,-3.125 -0.1516,-0.2453 0.68732,-1.0059 1.875,-1.6875 1.07096,-0.6147 1.60496,-0.923 1.8125,-0.875 z m -38.84375,2.5 c 0.6818,-10e-4 1.73427,0.5535 2.5625,1.4688 1.43473,1.5853 0.88779,1.7744 -1.625,0.5624 -0.89509,-0.4316 -1.625,-1.0692 -1.625,-1.4062 0,-0.4218 0.27841,-0.6244 0.6875,-0.625 z m 14.0625,0.75 c 0.14236,-0.0168 0.29234,0 0.4375,0 1.14741,0 2.30224,0.3289 2.5625,0.75 0.2679,0.4335 1.36844,0.5679 2.53125,0.3125 2.52899,-0.5555 5.03125,1.6532 5.03125,4.4063 0,2.4149 -1.76079,5.7097 -3.78125,7.125 -2.43367,1.7045 -6.83787,1.5045 -7.84375,-0.375 -0.44967,-0.8403 -0.65298,-2.3488 -0.46875,-3.3126 0.18424,-0.9637 0.17796,-1.5529 -0.0312,-1.3437 -0.7111,0.7111 -2.34375,-1.247 -2.34375,-2.8125 0,-2.3961 1.7709,-4.4975 3.90625,-4.75 z m -8.09375,7.625 c 0.34837,-0.0107 0.72294,0.007 1.125,0.0625 4.03288,0.5618 4.53303,0.805 4.0625,2.0313 -0.23594,0.6148 0.0957,1.9389 0.75,2.9374 1.075,1.6407 1.09064,1.8868 0.0625,2.2813 -0.62582,0.2402 -2.40409,0.219 -3.96875,-0.0313 -2.35974,-0.3773 -2.78745,-0.2868 -2.4375,0.625 0.95721,2.4945 -3.35231,4.429 -5.375,2.4063 -1.96282,-1.9628 -0.42075,-4.9375 2.5625,-4.9375 1.46491,0 1.57771,-0.1829 0.90625,-1.4375 -1.18941,-2.2224 -0.12609,-3.8624 2.3125,-3.9375 z m 8.375,7.625 c 0.28378,-0.0776 0.0915,0.2207 -0.5,0.9375 -1.36008,1.6483 -4.67508,3.3125 -6.5625,3.3125 -1.28384,0 -1.40913,-0.2059 -0.75,-1.4375 0.51274,-0.9581 1.54825,-1.4375 3,-1.4375 1.2056,0 2.88106,-0.3807 3.75,-0.8438 0.54312,-0.2893 0.89222,-0.4846 1.0625,-0.5312 z m 2.625,0 c 0.81831,-0.0995 1.15625,0.8658 1.15625,2.875 0,3.3225 -2.45707,6.4375 -5.0625,6.4375 -1.15565,0 -1.44492,0.3359 -1.125,1.3437 0.4811,1.5158 -2.06402,5.1876 -3.59375,5.1876 -0.53944,-10e-5 -1.46862,-0.5 -2.09375,-1.125 -1.41925,-1.4193 -1.44756,-2.0693 -0.0625,-3.2188 0.811,-0.6731 0.89968,-1.1675 0.3125,-1.875 -1.34378,-1.6191 -0.0765,-3.6345 2.8125,-4.5 1.50078,-0.4496 3.6606,-1.7977 4.8125,-3 1.27148,-1.3272 2.2073,-2.0476 2.84375,-2.125 z m 2.4375,6.0312 c 0.3179,-0.0909 -0.119,1.0031 -1.28125,3.2813 -1.28246,2.5138 -3.86824,5.0625 -5.125,5.0625 -0.25414,0 -0.28953,-0.8195 -0.0937,-1.8438 0.20122,-1.0525 1.0538,-2.1208 1.96875,-2.4687 0.89026,-0.3385 2.30838,-1.5159 3.15625,-2.5937 0.72293,-0.9191 1.18426,-1.383 1.375,-1.4376 z m 14.125,10.5313 -1.96875,1.8125 c -2.11897,1.9638 -5.33093,2.3245 -8.28125,0.9062 -1.57295,-0.7559 -1.37902,-0.8933 2.53125,-1.7187 2.32937,-0.4917 5.01558,-0.9434 5.96875,-0.9687 l 1.75,-0.0313 z"
       id="path4658"
       inkscape:connector-curvature="0" />
    <path
       style="fill:#000000"
       d="m 38.5913,809.86221 c -1.74257,-0.0544 -3.59135,1.32072 -3.9375,4.21875 -0.24009,2.01008 -0.87139,2.65625 -2.625,2.65625 -3.33511,0 -5.27734,2.61684 -3.75,5.0625 0.65441,1.04788 1.1875,2.53888 1.1875,3.3125 0,1.67983 2.42693,2.77153 4.4375,2 0.7916,-0.30376 2.2541,-0.0894 3.25,0.46875 2.56268,1.43621 3.78765,-2.09386 1.9375,-5.625 -1.26729,-2.41873 -1.20934,-2.74191 0.75,-3.71875 1.43902,-0.71742 2.125,-1.98162 2.125,-3.90625 0,-2.90885 -1.63243,-4.41431 -3.375,-4.46875 z m 17.4375,4.375 c -1.38355,0.071 -2.5625,0.70994 -2.5625,1.71875 0,0.55527 -0.82187,0.79848 -1.84375,0.53125 -3.18876,-0.83388 -5.15625,1.05624 -5.15625,4.96875 0,2.03536 -1.04866,5.44261 -2.4375,7.8125 -1.35575,2.31341 -2.19279,4.49471 -1.84375,4.84375 0.34904,0.34902 1.95285,0.5289 3.5625,0.40625 3.7875,-0.2886 7.92042,-4.99131 7.3125,-8.34375 -0.3436,-1.89485 -0.0305,-2.4375 1.53125,-2.4375 1.09604,0 1.77029,-0.38709 1.46875,-0.875 -0.30154,-0.4879 0.23092,-0.8254 1.1875,-0.75 1.08307,0.0854 1.67915,-0.51068 1.59375,-1.59375 -0.0754,-0.95658 0.2621,-1.52029 0.75,-1.21875 0.48791,0.30154 0.875,-0.35564 0.875,-1.46875 0,-1.11311 -0.84609,-2.49512 -1.90625,-3.0625 -0.78734,-0.42137 -1.70112,-0.57384 -2.53125,-0.53125 z m -39.90625,0.25 c -0.23436,0.007 -0.37025,0.2637 -0.46875,0.75 -0.18582,0.91741 0.48918,2.29652 1.5,3.0625 3.0593,2.31825 3.50365,1.61256 1.09375,-1.65625 -1.10783,-1.50267 -1.7344,-2.16866 -2.125,-2.15625 z m 27.90625,2.59375 c -0.24028,-0.0263 -0.59895,0.28645 -1.15625,0.84375 -1.05918,1.05918 -1.6612,3.54493 -1.75,7.21875 -0.0745,3.0802 -0.0296,5.59413 0.0937,5.59375 1.09234,-0.003 3.25,-6.76971 3.25,-10.15625 0,-2.45293 -0.037,-3.45613 -0.4375,-3.5 z m -29.875,1.78125 c -0.54215,0.003 -1.1837,0.25584 -2.0625,0.65625 -1.78657,0.81402 -2.625,1.95275 -2.625,3.625 0,2.69447 2.64033,5.96076 4.09375,5.0625 1.20756,-0.74631 1.15545,0.20122 -0.125,2.59375 -0.71865,1.34285 -0.71185,2.54901 0.0312,3.9375 0.59943,1.12004 2.10356,2 3.40625,2 1.93361,0 2.23572,-0.41828 1.84375,-2.46875 -0.34438,-1.80146 0.34727,-3.28476 2.5625,-5.5 1.66831,-1.66831 3.75769,-3.03125 4.625,-3.03125 1.86562,0 2.07227,-2.08398 0.375,-3.78125 -1.62936,-1.62936 -4.28366,-1.51683 -5.75,0.25 -1.03248,1.24407 -1.56882,1.06271 -3.53125,-1.21875 -1.28511,-1.49403 -1.94017,-2.13027 -2.84375,-2.125 z m 45.96875,4.40625 c -0.28694,-0.0664 -1.01934,0.36897 -2.5,1.21875 -1.64203,0.9424 -2.80334,1.97337 -2.59375,2.3125 0.20959,0.33913 -0.53493,2.27867 -1.625,4.3125 l -1.96875,3.71875 2.4375,-1.625 c 2.72139,-1.78312 4.9557,-4.81752 6.03125,-8.21875 0.35137,-1.11113 0.50569,-1.65234 0.21875,-1.71875 z M 6.4038,826.73721 c -0.56558,9e-4 -0.9375,0.26058 -0.9375,0.84375 0,0.46595 1.0125,1.34067 2.25,1.9375 3.47406,1.67547 4.23359,1.41059 2.25,-0.78125 -1.14507,-1.26529 -2.61987,-2.0015 -3.5625,-2 z m 20.0625,1 c -3.21104,0 -6,3.06021 -6,6.59375 0,2.16437 2.23561,4.85815 3.21875,3.875 0.28923,-0.28926 0.3172,0.5426 0.0625,1.875 -0.25471,1.3324 0.0346,3.40087 0.65625,4.5625 1.39068,2.59851 7.47908,2.88795 10.84375,0.53125 2.79338,-1.95657 5.21875,-6.53606 5.21875,-9.875 0,-3.80604 -3.4723,-6.83045 -6.96875,-6.0625 -1.60764,0.3531 -3.09837,0.16178 -3.46875,-0.4375 -0.35982,-0.5822 -1.97615,-1.0625 -3.5625,-1.0625 z m 20.375,8.5625 c -2.78313,0.003 -5.33229,1.32595 -5.40625,3.75 -0.0505,1.65543 -4.0272,6.20619 -6.59375,7.53125 -1.88643,0.97393 -2.05831,1.59777 -1.3125,4.90625 0.78365,3.47637 3.94838,7.25 6.0625,7.25 0.48907,0 1.79364,-0.91864 2.90625,-2.03125 1.63232,-1.63232 2.41984,-1.78537 4.0625,-0.90625 1.11965,0.59923 3.36717,0.79613 5,0.4375 2.69407,-0.59171 3.65713,-4.7e-4 10.28125,6.65625 14.63247,14.7045 24.07886,32.47103 25.96875,48.75 l 0.5,4.375 -2.9375,-3.25 c -3.13131,-3.42835 -2.89486,-3.37669 -12.90625,-1.375 -2.41406,0.48267 -2.4369,0.42047 -0.5625,-1.09375 1.06762,-0.86247 3.76762,-1.57705 6,-1.59375 3.35943,-0.0252 3.76667,-0.21193 2.25,-1.09375 -2.86997,-1.66866 -8.28208,-0.11236 -11.8125,3.40625 l -3.21875,3.21875 3.84375,0.3125 c 2.12017,0.17631 5.77255,-0.41409 8.125,-1.3125 5.24899,-2.0046 7.88967,-0.91343 9.96875,4.0625 1.84109,4.40637 1.78129,8.90982 -0.21875,17.75 -1.62222,7.1702 -4.21233,13.48624 -8.21875,19.96875 -1.15944,1.87602 -1.78021,3.75104 -1.375,4.15625 0.40521,0.40541 0.21563,0.58959 -0.40625,0.40625 -1.44617,-0.42634 -9.54997,8.6491 -8.59375,9.625 0.39444,0.40257 3.49574,-2.24604 6.875,-5.875 4.46545,-4.79538 6.83648,-6.59375 8.6875,-6.59375 1.40077,0 2.85566,0.47498 3.21875,1.0625 0.3631,0.58749 1.26849,0.8552 2.03125,0.5625 0.76277,-0.2927 1.28716,-0.0503 1.15625,0.5625 -0.26646,1.24734 6.92835,5.4779 7.8125,4.59375 0.31058,-0.31058 -0.12233,-2.22422 -0.96875,-4.25 l -1.53125,-3.6875 2.71875,0.5625 c 1.5017,0.29752 4.51875,0.82129 6.71875,1.1875 2.2,0.3662 4.7875,1.09679 5.75,1.59375 2.09909,1.0838 2.16956,0.17043 0.25,-3.1875 -1.89816,-3.32048 -1.84997,-3.75415 0.5,-4.5 1.1,-0.34913 2,-1.27456 2,-2.0625 0,-1.7031 -1.17842,-1.85283 -2.6875,-0.34375 -0.78285,0.78282 -1.25515,0.76943 -1.75,-0.0312 -0.37796,-0.61155 -0.32838,-0.99487 0.125,-0.84375 0.45338,0.15113 0.93324,-0.16875 1.0625,-0.71875 0.12925,-0.55 -1.14423,-1.45903 -2.84375,-2.03125 -2.73646,-0.92136 -2.91162,-1.20346 -1.5,-2.375 2.02797,-1.68307 1.16468,-3.09375 -1.875,-3.09375 -3.39624,0 -5.53125,1.02183 -5.53125,2.625 0,0.76615 -0.5904,1.375 -1.3125,1.375 -0.7221,0 -2.54809,1.29429 -4.0625,2.875 l -2.75,2.875 2.8125,-0.53125 c 1.53955,-0.2943 3.61311,-1.58859 4.625,-2.875 1.86217,-2.36736 4.6875,-3.18002 4.6875,-1.34375 0,0.55 -0.61734,1 -1.375,1 -0.75765,0 -1.87046,0.61645 -2.5,1.375 -0.91414,1.10147 -0.63255,1.47929 1.4375,1.875 1.82242,0.34838 2.92684,-0.0569 3.75,-1.375 0.64392,-1.03107 1.81581,-1.875 2.59375,-1.875 1.12303,0 1.05488,0.39859 -0.28125,1.875 -1.58721,1.75384 -1.55465,1.94115 0.59375,3.46875 1.97216,1.40229 2.01284,1.5423 0.28125,1 -1.64067,-0.51383 -1.77542,-0.38639 -0.75,0.71875 2.50575,2.70056 1.19404,3.23599 -1.53125,0.625 -1.70303,-1.63161 -3.92556,-2.6875 -5.65625,-2.6875 -2.78692,0 -2.83225,0.0444 -1.0625,2 0.99549,1.1 1.34915,2 0.78125,2 -0.5679,0 -1.57034,-0.64981 -2.25,-1.46875 -0.67967,-0.81899 -1.70858,-1.22892 -2.28125,-0.875 -0.60466,0.3737 -0.75812,0.17046 -0.34375,-0.5 0.44333,-0.71732 0.0195,-1.15625 -1.15625,-1.15625 -2.61666,0 -3.36324,0.99744 -1.9375,2.59375 3.0087,3.3687 3.6875,4.42514 3.6875,5.59375 0,0.6887 -1.77834,-0.73587 -3.96875,-3.15625 l -4,-4.40625 -2.6875,2.4375 -2.6875,2.4375 2.28125,-3.78125 c 1.2497,-2.07647 2.00969,-4.44165 1.6875,-5.28125 -0.32218,-0.83961 -0.17762,-1.30292 0.3125,-1 1.17672,0.72725 2.87304,-4.31613 3.625,-10.75 0.54076,-4.62683 1.14197,-5.66766 5.75,-9.875 l 5.15625,-4.71875 0.375,-7.53125 c 0.20969,-4.1525 0.79136,-7.5625 1.28125,-7.5625 0.73938,0 0.97129,1.73165 1.125,8 0.007,0.275 -0.24721,2.02043 -0.59375,3.875 -0.54341,2.90818 -0.43993,3.19036 0.84375,2.125 0.81858,-0.67938 1.19767,-1.67733 0.84375,-2.25 -0.35392,-0.57266 -0.16584,-0.75982 0.40625,-0.40625 1.58029,0.97667 2.24814,-4.31495 1.125,-8.84375 -0.54559,-2.2 -2.29263,-5.575 -3.875,-7.5 l -2.875,-3.5 -1.625,3.90625 c -1.36209,3.2449 -1.46406,4.93416 -0.59375,9.875 1.15856,6.57725 0.0838,10.69883 -3.625,14 -1.98798,1.76948 -2.00746,1.71736 -2.71875,-7.375 -1.74027,-22.24601 -10.27592,-39.73676 -27.96875,-57.34375 -4.30567,-4.28479 -7.16022,-7.96831 -7.28125,-9.40625 -0.10947,-1.30064 -0.85455,-3.10064 -1.65625,-4 -1.25164,-1.4041 -1.27026,-1.8303 -0.0625,-2.9375 1.87526,-1.71913 1.7728,-3.54093 -0.34375,-6.125 -1.41236,-1.72434 -3.71034,-2.53351 -5.875,-2.53125 z m -32.15625,2 c -3.37147,0.1038 -4.86317,2.36488 -3.21875,5.4375 0.92833,1.7346 0.77531,2 -1.25,2 -4.1245,0 -6.24495,4.0988 -3.53125,6.8125 2.79646,2.79645 8.76089,0.1362 7.4375,-3.3125 -0.48382,-1.26081 0.0813,-1.39669 3.34375,-0.875 2.16321,0.34586 4.63477,0.36328 5.5,0.0312 1.42145,-0.54547 1.42375,-0.85671 -0.0625,-3.125 -0.90464,-1.38066 -1.3887,-3.21244 -1.0625,-4.0625 0.65053,-1.69525 -0.0493,-2.03583 -5.625,-2.8125 -0.55588,-0.0774 -1.04961,-0.10858 -1.53125,-0.0937 z m 15.1875,10.53125 c -0.87993,0.10702 -2.14836,1.10266 -3.90625,2.9375 -1.59256,1.66227 -4.61259,3.53459 -6.6875,4.15625 -3.99415,1.19667 -5.73284,3.98019 -3.875,6.21875 0.8118,0.97815 0.71499,1.6632 -0.40625,2.59375 -1.91491,1.58923 -1.89969,2.47531 0.0625,4.4375 0.86428,0.86429 2.16045,1.5625 2.90625,1.5625 2.11492,0 5.63389,-5.06058 4.96875,-7.15625 -0.4423,-1.39357 -0.0665,-1.84375 1.53125,-1.84375 3.60213,0 7,-4.34397 7,-8.9375 0,-2.77788 -0.46241,-4.10635 -1.59375,-3.96875 z m -3.625,0.0312 c -0.23541,0.0644 -0.71785,0.31869 -1.46875,0.71875 -1.20134,0.64005 -3.5207,1.15625 -5.1875,1.15625 -2.00711,0 -3.41611,0.67542 -4.125,2 -0.91127,1.70273 -0.74372,2 1.03125,2 2.60945,0 7.18213,-2.31484 9.0625,-4.59375 0.81771,-0.99102 1.07984,-1.38854 0.6875,-1.28125 z m 7,8.3125 c -0.2637,0.0754 -0.90677,0.72937 -1.90625,2 -1.17223,1.49025 -3.14417,3.09454 -4.375,3.5625 -1.26496,0.48094 -2.44056,1.98226 -2.71875,3.4375 -0.27068,1.41597 -0.19511,2.5625 0.15625,2.5625 1.73754,0 5.32068,-3.55576 7.09375,-7.03125 1.60687,-3.14972 2.18951,-4.65694 1.75,-4.53125 z m 19.53125,14.5625 -2.40625,0.0625 c -1.31781,0.0353 -5.02954,0.63272 -8.25,1.3125 -5.40614,1.14113 -5.67467,1.32971 -3.5,2.375 4.07897,1.96064 8.50792,1.46504 11.4375,-1.25 l 2.71875,-2.5 z m 3.3125,3 c -3.11209,0 -4.46224,0.75294 -8.15625,4.5 -2.44311,2.47819 -4.46875,5.12575 -4.46875,5.875 0,0.78482 1.4859,-0.005 3.46875,-1.875 5.6213,-5.30157 12.40663,-5.12776 24.03125,0.59375 l 6,2.9375 -4.5,-4.03125 c -5.72099,-5.12531 -11.60642,-8 -16.375,-8 z"
       id="path3704"
       inkscape:connector-curvature="0" />
    <path
       id="path3080"
       style="fill:#000000"
       d="m -122.29724,383.55899 c 0,-2.06242 -0.45,-4.02797 -1,-4.36789 -0.60979,-0.37687 -1,1.12902 -1,3.8592 0,2.46247 -0.26174,5.30153 -0.58164,6.30901 -0.53223,1.67622 -0.44731,1.66694 1,-0.10934 0.8699,-1.06762 1.58164,-3.62856 1.58164,-5.69098 z m 13.73364,5.88211 c 0.86698,-0.9625 1.09659,-1.75 0.51024,-1.75 -0.58635,0 -2.29935,1.4625 -3.80667,3.25 -1.50732,1.7875 -3.45982,3.11874 -4.33889,2.9583 -1.30348,-0.23789 -1.34085,-0.11815 -0.2026,0.64908 0.76764,0.51742 1.13615,1.61719 0.8189,2.44393 -1.33063,3.46756 0.809,2.37461 3.03281,-1.5492 1.32543,-2.33866 3.11922,-5.03961 3.98621,-6.00211 z m -28.46543,9.54977 c 1.55187,-7.70887 1.35514,-12.69948 -0.61943,-15.71305 -2.53581,-3.87013 -3.07522,-2.60917 -1.22063,2.85341 0.86452,2.54637 1.54175,5.62654 1.50495,6.84482 -0.0438,1.45007 -0.50153,0.83363 -1.32541,-1.78495 -0.69219,-2.2 -1.82535,-5.05441 -2.51814,-6.34314 -0.69279,-1.28873 -0.98777,-3.42623 -0.65553,-4.75 0.58949,-2.3487 0.8544,-2.40686 10.96259,-2.40686 8.16766,0 10.63251,0.33016 11.65406,1.56105 1.04391,1.25783 2.52249,1.42967 7.61199,0.88463 6.0119,-0.64382 6.35934,-0.56239 7.2065,1.68894 0.97315,2.58619 -0.51734,6.49857 -3.38123,8.8754 -0.90417,0.75039 -2.74142,3.53012 -4.08278,6.17717 -2.31501,4.56844 -2.64652,4.81281 -6.52898,4.81281 -3.51382,0 -3.98469,-0.24659 -3.34173,-1.75 0.41163,-0.9625 0.9573,-3.1 1.21259,-4.75 l 0.46418,-3 -2.99829,3.5 -2.9983,3.5 -1.13448,-4.20778 c -1.67747,-6.22168 -3.07368,-6.26698 -3.12018,-0.10124 -0.0398,5.27568 -0.0494,5.29175 -1.53193,2.55902 -0.82055,-1.5125 -1.67523,-2.75 -1.8993,-2.75 -0.22406,0 -0.32219,1.9125 -0.21806,4.25 0.16162,3.62805 -0.11784,4.29387 -1.90969,4.54977 -1.99316,0.28464 -2.05029,0.0577 -1.13277,-4.5 z m -5.26821,-9.54336 c 0,-1.76749 -5.8741,-6.75641 -7.9552,-6.75641 -2.64975,0 -8.57802,2.43572 -9.47987,3.89494 -0.48561,0.78573 0.0683,0.81482 1.94302,0.10204 4.2524,-1.61676 9.98683,-1.21272 11.83924,0.83417 0.91145,1.00713 1.43119,2.05713 1.15499,2.33333 -0.2762,0.2762 0.17282,0.50219 0.99782,0.50219 0.825,0 1.5,-0.40962 1.5,-0.91026 z m 0.25092,13.09451 c -0.86544,-0.86544 -1.10934,-0.62154 -0.98809,0.98809 0.10603,1.40761 0.49829,1.79987 1.14908,1.14908 0.65079,-0.65079 0.59583,-1.38035 -0.16099,-2.13717 z m -19.20942,5.22663 c -1.40408,-2.62355 -5.95496,-6.08737 -7.92636,-6.03301 -1.23195,0.034 -1.06691,0.44916 0.69565,1.75 1.27093,0.938 3.52093,2.70374 5,3.92386 3.3175,2.73669 3.52064,2.7694 2.23071,0.35915 z m -12.54151,14.1292 c -1.65,-1.05623 -3.9,-2.9411 -5,-4.1886 l -2,-2.26817 3.5,2.12126 c 1.925,1.16669 4.4,2.12983 5.5,2.1403 1.68701,0.0161 1.76526,0.18507 0.5,1.07987 -1.22006,0.86284 -1.23172,0.98829 -0.0625,0.67219 2.07777,-0.56173 2.53104,-2.76363 0.56892,-2.76363 -0.91315,0 -2.97565,-1.31539 -4.58334,-2.92308 -3.13344,-3.13343 -3.73267,-6.81734 -1.8951,-11.65051 0.56539,-1.48708 0.82357,-2.9082 0.57373,-3.15803 -0.95705,-0.95706 -3.71953,6.02894 -3.86932,9.78509 -0.11354,2.84715 -0.40119,3.50284 -1.03772,2.36542 -0.57736,-1.03168 0.009,-4.38813 1.70261,-9.74625 1.46211,-4.62566 2.31986,-9.14915 1.97636,-10.42264 -0.56983,-2.11256 -0.30382,-2.25 4.35469,-2.25 4.11562,0 6.05002,-0.70348 11.345,-4.12579 8.32304,-5.37943 12.46152,-5.97794 16.69628,-2.41462 3.5997,3.02895 5.21672,7.71939 5.22482,15.15555 0.006,5.39719 -2.10183,9.30161 -6.2074,11.49884 -1.87409,1.00299 -2.00151,0.87675 -1.42671,-1.41342 0.34714,-1.38312 0.88394,-3.1735 1.1929,-3.97862 0.31543,-0.822 -0.14394,-1.73465 -1.04768,-2.08144 -0.93368,-0.35829 -1.35335,-0.20328 -0.99954,0.3692 0.33543,0.54273 -0.0664,1.95228 -0.89292,3.13233 l -1.50279,2.14554 -0.66355,-2.64379 c -0.71869,-2.8635 -2.44673,-3.62489 -2.44673,-1.07804 0,0.86116 0.51107,2.54866 1.13572,3.75 1.07568,2.06879 0.99638,2.0561 -1.5,-0.24005 -2.68981,-2.47407 -3.4703,-1.50363 -1.60054,1.99005 0.91777,1.71487 0.69092,1.93426 -2,1.93426 -3.1587,0 -4.35818,1.94032 -1.28518,2.07895 1.10254,0.0497 0.73256,0.45055 -1,1.08333 -4.1026,1.4984 -3.33225,2.47127 1.90082,2.40056 9.76428,-0.13193 4.40165,4.32895 -6.15082,5.11655 -4.7441,0.35408 -6.62796,0.0458 -9.00001,-1.47261 z m 90.869715,-22.45678 c 1.17131,-4.3707 0.60433,-8.49255 -1.61971,-11.77502 -3.46477,-5.11369 -4.81649,-4.63839 -2.07413,0.72931 1.7391,3.40398 2.35721,6.02907 2.12992,9.04571 -0.3424,4.54468 0.56947,5.71081 1.56392,2 z m -20.725455,-2.5176 c 1.72933,-2.26081 3.3204,-3.93441 3.53571,-3.71911 0.215305,0.21531 0.433215,-0.3746 0.484255,-1.31091 0.051,-0.93631 0.4427,-3.23485 0.87038,-5.10787 0.53751,-2.35402 0.4444,-3.19956 -0.30157,-2.73853 -0.59353,0.36682 -1.378345,2.02917 -1.744025,3.69409 -0.36568,1.66493 -2.10759,4.92226 -3.87091,7.23853 -4.61754,6.06552 -5.15017,7.05454 -3.50729,6.51262 0.76406,-0.25203 2.80411,-2.308 4.53345,-4.56882 z m 16.388715,17.2676 c 1.35701,-1.85001 1.33579,-1.89707 -0.28297,-0.62756 -0.9625,0.75485 -1.75,1.84235 -1.75,2.41667 0,0.57432 0.12734,0.85672 0.28297,0.62756 0.15563,-0.22917 0.94313,-1.31667 1.75,-2.41667 z m 8.87268,1.75183 c -2.07904,-5.46829 -5.13345,-7.29602 -14.65565,-8.76983 -6.63997,-1.0277 -4.98295,0.96665 2,2.40716 5.19311,1.07129 6.84186,1.94745 9.75,5.18122 1.925,2.14054 3.60136,3.90038 3.72525,3.91076 0.12389,0.0104 -0.24494,-1.21782 -0.8196,-2.72931 z m -17.36279,11.49817 c -0.83199,-2.63706 -1.16484,-7.75 -0.50453,-7.75 0.38058,0 1.90134,0.9513 3.37947,2.114 3.64597,2.86792 4.79914,1.33292 1.27644,-1.69907 -2.97133,-2.55743 -2.82746,-3.09178 0.3715,-1.37975 3.35047,1.79312 2.23738,-0.87024 -1.31574,-3.14825 -2.70365,-1.73339 -2.84976,-1.99307 -0.86917,-1.54471 1.33584,0.3024 2.96571,-0.0459 3.71337,-0.79356 1.11003,-1.11003 0.96296,-1.33151 -0.88084,-1.32644 -3.34559,0.009 -11.758265,-3.43626 -14.504095,-5.94022 -1.33773,-1.2199 -3.28207,-2.48772 -4.32075,-2.81739 -2.63778,-0.83719 -2.44949,-1.5138 2.4075,-8.6514 2.36281,-3.47227 4.88157,-7.74957 5.59726,-9.50512 0.89514,-2.19575 2.181025,-3.38514 4.120305,-3.81107 6.14923,-1.3506 15.86722,3.61491 16.06293,8.20752 0.0421,0.9875 0.2385,2.6595 0.43648,3.71554 0.19798,1.05605 -0.2799,3.75605 -1.06196,6 -1.97508,5.66707 -1.89045,5.99995 1.99648,7.8535 4.6586,2.22153 6.54704,7.90248 4.16083,12.51691 -2.53978,4.91139 -9.57297,9.20951 -15.0699,9.20951 -2.80397,0 -4.75525,-0.48825 -4.99558,-1.25 z m -31.876185,-17.20598 c 0,-0.80081 -0.375,-1.22425 -0.83334,-0.94098 -0.45833,0.28326 -0.83333,-0.0365 -0.83333,-0.71066 0,-0.67413 -0.28913,-0.93656 -0.6425,-0.58318 -0.35338,0.35337 -0.0733,1.32837 0.62244,2.16666 1.56095,1.88083 1.68673,1.88591 1.68673,0.0682 z m -0.11667,13.54437 c 0.5225,-0.5014 2.975,-1.35321 5.45,-1.89291 l 4.5,-0.98127 -5.05,-0.10709 c -4.63078,-0.0982 -7.45,1.07221 -7.45,3.09291 0,1.07408 1.37722,1.01379 2.55,-0.11164 z m -9.62414,17.07609 c 3.89369,-1.15504 3.40321,-2.66044 -0.88345,-2.71157 -3.35,-0.04 -3.76751,0.17495 -2.74648,1.41372 1.02861,1.24796 0.89618,1.29683 -0.90878,0.33534 -5.2708,-2.80773 -6.67221,-16.23469 -2.35428,-22.55653 l 2.46713,-3.61209 0.29847,6.0124 c 0.35117,7.07385 1.86011,7.00873 2.80592,-0.1211 0.63643,-4.79764 0.73547,-4.92703 2.52899,-3.30391 1.02664,0.92909 1.86662,2.71796 1.86662,3.97526 0,1.2573 0.42726,2.55006 0.94947,2.8728 1.10949,0.68571 2.52629,-5.78657 1.72424,-7.8767 -0.38821,-1.01165 1.02312,-0.70459 4.88248,1.06229 3.26106,1.49296 6.23014,2.23084 7.43617,1.84806 3.24406,-1.02962 2.34729,-1.94844 -3.1841,-3.26238 -3.04149,-0.72249 -6.38235,-2.37363 -8.06643,-3.98665 l -2.87468,-2.75339 2.81642,-1.1727 c 7.89365,-3.28674 20.60801,-1.97756 24.69929,2.54326 1.49598,1.65304 1.08376,1.58739 -2.99346,-0.47676 -2.86688,-1.4514 -6.33479,-2.3586 -8.80888,-2.30438 l -4.08052,0.0894 4.71486,1.298 c 5.99729,1.65107 10.99659,4.56287 12.29072,7.15863 0.55553,1.11429 1.56904,1.83966 2.25224,1.61192 1.7005,-0.56683 1.60568,3.87324 -0.13351,6.25172 -0.87887,1.20192 -3.11359,2.08352 -6.18788,2.44113 -4.42572,0.51481 -5.02465,0.92116 -7.45759,5.05976 -2.76648,4.70599 -3.81931,5.06479 -10.17126,3.46638 -2.40226,-0.6045 -2.88738,-0.262 -4.50143,3.17805 -1.55349,3.31097 -2.30319,3.8827 -5.30758,4.04761 -2.84562,0.15619 -3.04582,0.0577 -1.07271,-0.52759 z m 18.54726,13.27294 c 3.84951,-2.00728 3.90161,-2.07962 2.01807,-2.8024 -0.92393,-0.35454 -1.338,-0.19615 -0.98411,0.37646 0.34179,0.55303 -0.51646,0.98855 -1.94806,0.98855 -1.9168,0 -2.55902,-0.51674 -2.55902,-2.05902 0,-1.13246 -0.45,-1.7809 -1,-1.44098 -1.41615,0.87523 -1.2425,4.23548 0.25,4.83772 0.78542,0.31692 0.83093,0.53373 0.12244,0.58333 -0.62015,0.0434 -1.705,-0.61683 -2.41077,-1.46723 -1.06373,-1.28172 -0.93887,-2.00865 0.72996,-4.25 1.71848,-2.30802 3.06535,-2.82815 9.20078,-3.55315 5.99657,-0.70859 6.99498,-1.08143 6.02515,-2.25 -0.93623,-1.12809 -0.73793,-1.40067 1.01901,-1.40067 1.19981,0 1.92337,-0.4176 1.60793,-0.928 -0.31545,-0.51041 0.36691,-1.22649 1.51634,-1.59131 1.14943,-0.36482 1.83487,-0.91831 1.5232,-1.22999 -0.31168,-0.31167 -0.0116,-1.2355 0.66679,-2.05294 1.05297,-1.26874 0.86876,-1.38238 -1.25867,-0.7765 -1.37856,0.39261 -1.96838,0.34047 -1.31998,-0.11668 0.6447,-0.45453 2.26945,-2.7582 3.61055,-5.11925 l 2.438365,-4.29283 1.63945,3.45488 c 1.74789,3.6834 2.0876,7.39966 0.85379,9.34006 -0.89968,1.4149 -6.077025,3.51546 -7.102545,2.88165 -0.39621,-0.24487 -0.69595,1.43941 -0.66609,3.74284 l 0.0543,4.18807 -4.25,0.3075 c -2.3375,0.16912 -4.25,0.73162 -4.25,1.25 0,1.78145 -4.00226,4.94249 -6.25,4.93634 -2.02484,-0.005 -1.95248,-0.1613 0.72312,-1.55645 z m -52.89954,-11.46537 c 4.00707,-1.52348 2.36357,-2.16522 -3.53965,-1.38214 -3.4082,0.45212 -4.74036,0.98082 -3.86673,1.53462 1.79027,1.13487 4.14806,1.08633 7.40638,-0.15248 z m -5.07359,8.02798 c -0.33992,-0.55 -1.45695,-1 -2.48229,-1 -2.8673,0 -8.01771,-4.83704 -8.01771,-7.52988 0,-1.29365 -0.45,-2.6302 -1,-2.97012 -1.40427,-0.86789 -1.25424,3.84791 0.22576,7.09615 1.2904,2.83211 5.69682,5.29883 9.58326,5.36471 1.29207,0.0219 2.03682,-0.40128 1.69098,-0.96086 z m 18.00001,7.03655 c 1.29288,-0.53194 -0.6517,-0.81089 -5.5,-0.78899 -4.125,0.0186 -9.01881,-0.30256 -10.87512,-0.71377 -2.52325,-0.55895 -3.18687,-0.4431 -2.62932,0.45904 0.56412,0.91276 0.2901,0.94697 -1.12489,0.14042 -4.84882,-2.76381 -4.88679,-3.12185 -0.26621,-2.51051 4.65023,0.61527 11.89554,-1.68209 11.89554,-3.77187 0,-0.55584 -0.69411,-0.5498 -1.75,0.0152 -0.9625,0.51507 -3.80816,1.2451 -6.32367,1.62229 -10.89427,1.63354 -17.39081,-6.68539 -14.28274,-18.2893 0.60828,-2.27101 0.64,-2.2619 2.44212,0.70145 2.77394,4.56138 11.04808,8.21686 10.52453,4.64969 -0.11702,-0.79736 -1.37013,-2.36012 -2.78466,-3.4728 -3.5245,-2.77237 -6.02328,-8.3451 -5.28615,-11.78904 0.57063,-2.66605 0.52801,-2.70323 -0.97131,-0.84728 -0.86247,1.06763 -1.56813,2.81452 -1.56813,3.88198 0,2.86574 3.79559,8.49849 6.84143,10.15283 1.46221,0.7942 2.15676,1.46201 1.54343,1.48403 -1.85796,0.0667 -6.32658,-3.94658 -8.00214,-7.18675 -1.88063,-3.63674 -1.28623,-7.6956 1.75178,-11.96209 l 2.15083,-3.02057 2.52167,3.2221 c 1.38692,1.77215 3.91022,3.86896 5.60733,4.65957 2.17666,1.01402 2.406,1.29721 0.77852,0.96131 -1.94575,-0.40159 -2.11443,-0.24397 -1.07689,1.0062 0.97334,1.1728 2.6038,1.34033 7.80717,0.80222 3.61728,-0.37408 8.03938,-1.2786 9.82688,-2.01003 3.48542,-1.4262 3.79004,-1.04786 2.63244,3.26942 -0.49517,1.84675 -1.41921,2.2533 -5.73635,2.52386 l -5.14609,0.32251 3.5,1.6463 3.5,1.64631 -4,0.35393 -4,0.35393 2.71864,1.37214 c 1.49526,0.75467 2.5126,1.70553 2.26077,2.113 -0.25184,0.40748 0.32477,0.67918 1.28135,0.60377 2.59001,-0.20415 2.10613,2.8108 -0.51076,3.18246 -3.46412,0.49198 -2.6687,2.01127 1.45833,2.78551 l 3.70834,0.69569 -3.70834,3.2056 c -2.03958,1.76308 -3.70833,3.421 -3.70833,3.68427 0,0.26326 2.67791,-0.21902 5.9509,-1.07175 6.37082,-1.6598 7.57895,-1.36364 6.63027,1.62539 -0.593,1.86838 -6.49782,5.32228 -8.8651,5.18545 -0.66884,-0.0386 -0.31607,-0.44058 0.78393,-0.89316 z m 25.84781,-12.96358 c -0.76602,-0.88768 -3.10119,3.40611 -2.58457,4.75239 0.3655,0.95249 0.93163,0.47996 1.7469,-1.45811 0.66338,-1.577 1.04033,-3.05943 0.83767,-3.29428 z m -2.34781,11.44042 c 0,-0.26762 -1.67173,-1.18507 -3.71495,-2.03879 -4.33668,-1.81198 -5.24886,-2.976 -5.26974,-6.72463 -0.008,-1.5125 -0.46531,-2.75 -1.01531,-2.75 -1.7531,0 -1.13998,7.56494 0.75,9.25384 1.95902,1.75059 9.25,3.53162 9.25,2.25958 z m -3.3162,2.03777 c -7.17979,-2.56064 -11.42789,-8.81546 -10.12291,-14.90478 1.0216,-4.76698 1.34096,-4.90678 4.71788,-2.06529 2.70676,2.27758 3.82636,2.57489 8.29958,2.20394 l 5.17074,-0.4288 -1.45833,3.49028 c -1.65638,3.96428 -0.49853,8.15346 2.25354,8.15346 0.87295,0 2.48665,0.48138 3.58601,1.06974 1.59618,0.85425 1.75971,1.35785 0.81181,2.5 -1.49534,1.80178 -8.18049,1.79243 -13.25832,-0.0185 z"
       inkscape:connector-curvature="0" />
    <path
       style="fill:none;fill-opacity:1;stroke:#000000;stroke-width:0.36;stroke-miterlimit:4;stroke-opacity:1;stroke-dasharray:none"
       d="M 212.59375 1371.9688 C 193.0246 1371.9688 177.15625 1387.8371 177.15625 1407.4062 C 177.15625 1426.9754 193.0246 1442.8438 212.59375 1442.8438 C 232.1629 1442.8438 248.03125 1426.9754 248.03125 1407.4062 C 248.03125 1387.8371 232.1629 1371.9688 212.59375 1371.9688 z M 212.59375 1375.5 C 213.57221 1375.5 214.375 1376.3028 214.375 1377.2812 C 214.375 1378.2597 213.57221 1379.0625 212.59375 1379.0625 C 211.61529 1379.0625 210.8125 1378.2597 210.8125 1377.2812 C 210.8125 1376.3028 211.61529 1375.5 212.59375 1375.5 z "
       transform="translate(0,-567.64025)"
       id="path3883" />
  </g>
</svg>
