<?xml version="1.0" encoding="UTF-8" standalone="no"?>
<!-- Created with Inkscape (http://www.inkscape.org/) -->

<svg
   xmlns:dc="http://purl.org/dc/elements/1.1/"
   xmlns:cc="http://creativecommons.org/ns#"
   xmlns:rdf="http://www.w3.org/1999/02/22-rdf-syntax-ns#"
   xmlns:svg="http://www.w3.org/2000/svg"
   xmlns="http://www.w3.org/2000/svg"
   xmlns:sodipodi="http://sodipodi.sourceforge.net/DTD/sodipodi-0.dtd"
   xmlns:inkscape="http://www.inkscape.org/namespaces/inkscape"
   width="1080"
   height="1080"
   id="svg15030"
   version="1.1"
   inkscape:version="0.48.2 r9819"
   sodipodi:docname="v1.svg">
  <defs
     id="defs15032" />
  <sodipodi:namedview
     id="base"
     pagecolor="#ffffff"
     bordercolor="#666666"
     borderopacity="1.0"
     inkscape:pageopacity="0.0"
     inkscape:pageshadow="2"
     inkscape:zoom="5.8272409"
     inkscape:cx="106.29921"
     inkscape:cy="54.399672"
     inkscape:document-units="mm"
     inkscape:current-layer="layer1"
     showgrid="false"
     units="in"
     inkscape:window-width="1440"
     inkscape:window-height="852"
     inkscape:window-x="1"
     inkscape:window-y="0"
     inkscape:window-maximized="0" />
  <metadata
     id="metadata15035">
    <rdf:RDF>
      <cc:Work
         rdf:about="">
        <dc:format>image/svg+xml</dc:format>
        <dc:type
           rdf:resource="http://purl.org/dc/dcmitype/StillImage" />
        <dc:title></dc:title>
      </cc:Work>
    </rdf:RDF>
  </metadata>
  <g
     inkscape:label="Layer 1"
     inkscape:groupmode="layer"
     id="layer1"
     transform="translate(0,27.64025)">
    <path
       id="path15176"
       style="fill:#000000;stroke:#000000;stroke-width:0.29533517"
       d="m 21.96721,1044.9392 c -4.54214,-4.5536 -7.52441,-9.5132 -10.53585,-17.5215 -0.95761,-2.5466 -2.7525,-8.5837 -2.98583,-10.0429 -0.15686,-0.9809 -0.0956,-0.9478 -2.72592,-1.4778 -2.62617,-0.5291 -2.77986,-0.5087 -2.77986,0.3698 0,2.7886 1.7325,10.414 3.18031,13.9977 3.44725,8.5331 9.26421,14.3685 16.68207,16.7352 0.93919,0.2997 1.73077,0.5553 1.75904,0.5682 0.0283,0.013 -1.13901,-1.1701 -2.59396,-2.6287 z m 12.08993,3.7334 c 0,-0.054 -0.80612,-0.9287 -1.79138,-1.9448 -4.27262,-4.4064 -8.04975,-9.7862 -11.06237,-15.756 -1.91298,-3.7909 -3.38231,-7.6977 -3.92175,-10.4277 l -0.29039,-1.4695 -1.42697,-0.4664 c -2.24437,-0.7335 -4.91981,-1.4311 -5.03745,-1.3134 -0.17771,0.1777 2.27846,8.0618 3.41631,10.966 2.06212,5.2632 5.0412,10.3539 8.02159,13.7073 2.98819,3.3622 7.01966,6.3067 9.02068,6.5885 1.29718,0.1826 3.07173,0.2497 3.07173,0.116 z m 41.83766,-0.079 c -1.27039,-1.991 -3.61578,-4.2248 -7.77355,-7.4037 -1.84113,-1.4076 -5.51711,-3.6005 -5.71086,-3.4067 -0.13577,0.1357 1.89803,3.257 4.81781,7.3938 1.0098,1.4308 2.01672,2.9306 2.23758,3.3331 l 0.40158,0.7318 3.22054,0 3.22053,0 -0.41363,-0.6483 z m -8.59863,0.439 c 0,-0.1151 -0.35482,-0.7251 -0.78848,-1.3555 -0.43366,-0.6304 -1.89229,-2.742 -3.24139,-4.6924 -1.34911,-1.9504 -2.92823,-4.4588 -3.50917,-5.5743 l -1.05625,-2.0281 -2.47504,-1.4978 c -3.22929,-1.9543 -5.72648,-3.2851 -5.87877,-3.1328 -0.1653,0.1653 3.66714,7.7541 5.17102,10.2394 2.27331,3.7567 2.76474,4.4349 5.75894,7.9471 0.28803,0.3379 6.01914,0.4277 6.01914,0.094 z m -9.62386,-1.2641 c -3.08845,-3.9732 -6.95263,-10.7787 -9.60397,-16.9142 -0.36419,-0.8427 -0.68235,-1.5634 -0.70704,-1.6015 -0.0717,-0.1106 -6.23007,-2.406 -6.45503,-2.406 -0.20108,0 0.67064,2.3363 2.06707,5.5398 1.73693,3.9847 7.03672,12.7376 9.52778,15.7355 l 0.93043,1.1198 2.69301,0 2.693,0 -1.14525,-1.4734 z m -15.83582,1.2767 c 0,-0.1081 -0.40074,-0.7712 -0.89054,-1.4733 -0.48979,-0.7022 -1.67243,-2.6028 -2.62809,-4.2235 -2.30347,-3.9064 -2.90805,-4.8915 -4.62985,-7.5436 -4.16292,-6.4122 -5.95451,-9.5652 -7.05101,-12.409 l -0.64889,-1.6829 -2.97868,-0.8345 c -1.63828,-0.4589 -3.17626,-0.911 -3.41773,-1.0045 -0.39237,-0.152 -0.4216,-0.085 -0.27491,0.6315 0.30144,1.4721 1.80875,5.6975 2.76109,7.7402 2.79473,5.9944 7.27431,12.5615 11.56227,16.9504 3.30736,3.3852 3.74037,3.6704 5.81604,3.83 0.98503,0.076 1.92356,0.1554 2.08563,0.1768 0.16207,0.022 0.29467,-0.049 0.29467,-0.1576 z m 8.53517,-0.3626 c -1.38646,-1.5422 -6.01125,-9.0351 -8.1668,-13.2314 -0.66602,-1.2965 -1.81942,-3.8956 -2.56312,-5.7756 -0.7437,-1.88 -1.44012,-3.5581 -1.5476,-3.7292 -0.19215,-0.3059 -4.39532,-1.9323 -7.74987,-2.9988 -2.09704,-0.6667 -2.1061,-0.6333 -0.62861,2.3135 1.23917,2.4714 2.37654,4.3797 5.13016,8.6075 1.07361,1.6484 2.68024,4.217 3.5703,5.708 0.89006,1.4911 2.087,3.4951 2.65988,4.4535 1.18404,1.9807 2.02798,3.1814 3.07173,4.3702 l 0.72364,0.8241 2.3133,0.068 c 1.27231,0.037 2.61134,0.028 2.9756,-0.02 0.65889,-0.087 0.65998,-0.09 0.21139,-0.5893 z m -27.18031,-40.064 c -2.81093,-1.4821 -3.45965,-5.5716 -1.2365,-7.7948 2.34597,-2.34593 5.93432,-1.97354 7.77429,0.8068 1.62146,2.4502 0.51481,6.0516 -2.20929,7.1898 -1.26334,0.5279 -3.10778,0.4419 -4.3285,-0.2018 z m 112.11518,40.8649 c 10.41159,-0.7798 15.53411,-1.3822 19.15352,-2.2523 10.41642,-2.504 20.05867,-8.6928 24.91494,-15.9913 2.29831,-3.4541 3.8836,-7.4521 4.34838,-10.9663 0.23826,-1.8014 0.7856,-3.3438 1.51598,-4.2722 0.59932,-0.7618 1.43458,-1.0917 2.21049,-1.5461 0.0625,-0.037 0.12811,-0.068 0.19562,-0.094 0.91586,-0.3546 1.09177,-0.6249 2.82371,-0.841 4.63291,-0.578 9.19571,-3.8459 12.99448,-9.3067 3.07758,-4.42401 5.34788,-11.911 5.67638,-18.71948 0.14158,-2.93457 0.1305,-3.03899 -0.30391,-2.86438 -1.03838,0.41734 -4.94409,1.07419 -8.46596,1.42378 -5.86108,0.5818 -9.11697,1.35144 -11.00629,2.60174 -2.49607,1.65181 -5.68562,5.627 -7.18647,8.95657 -0.64382,1.42828 -0.87598,2.25964 -1.39064,4.97957 -0.13298,0.7029 -1.35189,1.1818 -2.11858,0.8325 -0.75367,-0.3434 -0.93913,-0.8603 -1.2818,-3.57256 -0.59173,-4.68353 -3.00845,-9.47659 -5.96118,-11.82276 -3.9175,-3.11275 -8.32098,-5.11331 -12.47136,-5.6659 -1.13945,-0.15171 -2.12903,-0.21853 -2.19907,-0.14849 -0.07,0.07 -0.12934,3.19188 -0.13178,6.93741 -0.005,7.00587 0.28067,10.51773 1.07965,13.2929 1.66759,5.7921 3.1773,7.6958 8.48554,10.7002 2.63825,1.4931 4.12785,2.9144 4.55749,4.3485 1.21399,4.0519 -5.08388,8.427 -13.46342,9.3531 -2.51413,0.2778 -9.91985,0.1477 -12.36043,-0.2173 -6.04284,-0.9035 -10.49403,-3.5746 -14.73081,-8.8396 -1.54949,-1.9255 -5.48936,-7.8266 -6.33846,-9.4937 -0.28535,-0.5603 -0.7521,-1.3369 -1.03723,-1.7258 -0.46394,-0.6329 -1.93035,-3.2262 -4.13235,-7.3079 -0.41968,-0.77794 -3.18426,-6.2562 -6.1435,-12.17393 -6.38054,-12.75946 -8.73428,-16.84936 -12.4582,-21.64764 -6.25286,-8.05682 -13.45489,-12.21129 -25.76505,-14.86246 -8.04411,-1.73242 -16.40954,-2.0573 -27.05776,-1.05082 -0.32414,0.0306 -1.22584,0.17056 -2.00377,0.31094 -0.77794,0.14038 -1.83876,0.32507 -2.35738,0.41043 -1.51854,0.24991 -6.55394,1.69615 -8.90744,2.55834 -6.16806,2.25962 -10.84865,5.16014 -15.04096,9.32074 -3.47494,3.44865 -4.90925,5.8105 -8.23515,13.56062 -2.91307,6.78817 -3.95306,9.95428 -5.05534,15.39038 -1.14318,5.6378 -2.24539,15.8066 -2.24649,20.7258 l -5.9e-4,3.1128 0.88401,0.1377 c 2.77138,0.4317 3.96186,0.7314 6.75349,1.7001 3.67868,1.2765 5.96396,1.9448 9.45348,2.7646 2.97371,0.6986 6.14083,1.6766 9.19378,2.839 1.1669,0.4442 3.39462,1.1997 4.95049,1.6787 3.73622,1.1503 9.48202,3.3059 12.84771,4.8199 1.49104,0.6707 3.2414,1.4273 3.88967,1.6813 4.39493,1.7217 10.77343,5.3998 15.08889,8.7009 0.77702,0.5944 2.15534,1.4835 3.06292,1.9757 2.74884,1.4909 4.84345,2.9897 6.53018,4.6725 1.5585,1.5549 2.78147,3.4729 2.78147,4.3622 0,0.416 0.54975,0.453 11.02074,0.7433 6.06141,0.168 13.99104,0.4444 17.6214,0.6143 7.31524,0.3423 22.49748,0.2749 27.81706,-0.1236 z m -42.78641,2.5497 c -4.73244,-0.1215 -15.39368,-0.1669 -23.69165,-0.1008 -25.37241,0.2019 -38.69819,-0.3646 -44.79019,-1.9041 -12.19275,-3.0812 -20.49806,-13.3546 -22.94733,-28.385 -1.17659,-7.2203 -1.23533,-11.7717 -0.27209,-21.0813 1.12956,-10.91703 2.72049,-18.10945 5.42299,-24.51671 4.83799,-11.47022 6.24047,-13.91545 10.35943,-18.06168 3.98317,-4.00956 8.17278,-6.79514 13.83327,-9.19746 4.8378,-2.05316 12.7293,-4.13528 15.56371,-4.10638 0.66828,0.007 1.17428,-0.0536 1.12444,-0.13433 -0.1525,-0.24692 1.47385,-0.43516 6.0292,-0.69787 11.94032,-0.68859 24.16595,1.20087 33.59264,5.19173 9.04731,3.83024 15.54241,10.26453 22.02602,21.81975 1.01849,1.81519 4.19391,7.96794 7.05648,13.6728 5.56687,11.09429 6.33909,12.56412 9.28887,17.68035 1.04655,1.8152 2.11787,3.7008 2.3807,4.1902 0.26283,0.4894 0.64625,1.0728 0.85204,1.2965 0.20579,0.2237 1.11292,1.5089 2.01586,2.856 4.84545,7.229 8.64496,9.9087 15.5993,11.0019 3.37721,0.5309 10.45135,0.3608 13.65588,-0.3283 3.80282,-0.8177 8.10078,-3.2528 8.10078,-4.5896 0,-0.6173 -1.13589,-1.62 -3.01366,-2.6601 -6.87719,-3.8094 -9.27108,-7.4005 -10.80399,-16.20696 -0.44482,-2.55544 -0.70585,-12.32461 -0.44852,-16.78605 0.2239,-3.88204 0.22227,-3.8803 3.64349,-3.87803 4.78953,0.003 9.4653,1.65049 14.7481,5.19587 3.16464,2.12386 5.5767,5.27746 7.2776,9.51493 l 0.55924,1.39327 0.41966,-0.68606 c 2.05297,-3.35621 3.99502,-5.72376 6.1598,-7.50938 3.02174,-2.49247 5.51735,-3.243 13.77254,-4.14199 5.00289,-0.54482 7.0978,-0.94661 9.34436,-1.79222 1.59389,-0.59993 2.44472,-0.50636 2.76695,0.30431 0.56532,1.42223 0.30884,7.98468 -0.47888,12.25166 -1.11957,6.0647 -3.77718,12.32545 -6.91947,16.30075 -1.93585,2.4491 -5.26942,5.364 -7.34879,6.4259 l -1.7508,0.8945 c -0.62664,0.4929 -1.89145,0.8262 -4.74621,1.2508 -0.9289,0.1382 -2.01195,0.4477 -2.40679,0.6878 -0.8545,0.5197 -1.67393,2.0172 -1.695,3.0977 -0.0214,1.0981 -0.56233,3.5378 -0.74404,3.356 -0.0835,-0.084 -0.0949,0.066 -0.0252,0.3323 0.16054,0.614 -1.0478,3.7994 -2.42362,6.3892 -4.1466,7.8055 -12.42226,14.373 -22.55066,17.896 -5.7967,2.0162 -9.19009,2.6289 -19.26724,3.4785 -5.34743,0.4509 -35.92679,0.6281 -49.2692,0.2856 z"
       inkscape:connector-curvature="0" />
    <path
       transform="matrix(1.046761,0,0,1.046761,-308.64438,425.3346)"
       style="fill:#000000;fill-opacity:1;stroke:#000000;stroke-width:0.03543307;stroke-miterlimit:4;stroke-opacity:1"
       d="m 429.4042,582.03058 c 0,4.17184 -3.38195,7.55379 -7.5538,7.55379 -4.17184,0 -7.55379,-3.38195 -7.55379,-7.55379 0,-4.17185 3.38195,-7.5538 7.55379,-7.5538 4.17185,0 7.5538,3.38195 7.5538,7.5538 z"
       id="path15745" />
  </g>
</svg>
