<?xml version="1.0" encoding="UTF-8" standalone="no"?>
<!-- Created with Inkscape (http://www.inkscape.org/) -->

<svg
   xmlns:dc="http://purl.org/dc/elements/1.1/"
   xmlns:cc="http://creativecommons.org/ns#"
   xmlns:rdf="http://www.w3.org/1999/02/22-rdf-syntax-ns#"
   xmlns:svg="http://www.w3.org/2000/svg"
   xmlns="http://www.w3.org/2000/svg"
   xmlns:sodipodi="http://sodipodi.sourceforge.net/DTD/sodipodi-0.dtd"
   xmlns:inkscape="http://www.inkscape.org/namespaces/inkscape"
   inkscape:version="0.48.1 r9760"
   version="1.1"
   id="svg2"
   height="744.09448"
   width="1052.3622"
   sodipodi:docname="lamp.svg">
  <defs
     id="defs4" />
  <sodipodi:namedview
     id="base"
     pagecolor="#ffffff"
     bordercolor="#666666"
     borderopacity="1.0"
     inkscape:pageopacity="0.0"
     inkscape:pageshadow="2"
     inkscape:zoom="1"
     inkscape:cx="2055"
     inkscape:cy="1949.2949"
     inkscape:document-units="mm"
     inkscape:current-layer="svg2"
     showgrid="true"
     showguides="true"
     inkscape:guide-bbox="true"
     inkscape:window-width="1680"
     inkscape:window-height="1002"
     inkscape:window-x="0"
     inkscape:window-y="0"
     inkscape:window-maximized="0">
    <sodipodi:guide
       orientation="1,0"
       position="1062.9921,1070"
       id="guide2985" />
    <sodipodi:guide
       orientation="0,1"
       position="1216,1062.9921"
       id="guide2987" />
    <inkscape:grid
       type="xygrid"
       id="grid3057"
       empspacing="5"
       visible="true"
       enabled="true"
       snapvisiblegridlinesonly="true"
       spacingx="10mm"
       spacingy="10mm"
       units="mm"
       originx="300mm"
       originy="300mm" />
    <sodipodi:guide
       orientation="0,1"
       position="1771.6535,1619.2913"
       id="guide3212" />
    <sodipodi:guide
       orientation="1,0"
       position="1782.2835,1629.9213"
       id="guide3230" />
    <sodipodi:guide
       orientation="0,1"
       position="1771.6535,1782.2835"
       id="guide3381" />
  </sodipodi:namedview>
  <metadata
     id="metadata7">
    <rdf:RDF>
      <cc:Work
         rdf:about="">
        <dc:format>image/svg+xml</dc:format>
        <dc:type
           rdf:resource="http://purl.org/dc/dcmitype/StillImage" />
        <dc:title></dc:title>
      </cc:Work>
    </rdf:RDF>
  </metadata>
  <g
     inkscape:label="Layer 1"
     inkscape:groupmode="layer"
     id="layer1"
     transform="translate(0,-308.2677)" />
  <rect
     style="fill:#ff7f2a;stroke:#000000;stroke-width:0.39121833000000000;stroke-miterlimit:4;stroke-opacity:1;stroke-dasharray:none"
     id="rect3059"
     width="566.92926"
     height="566.92914"
     x="1062.9921"
     y="-885.82678"
     ry="3.0506115e-05" />
  <rect
     style="fill:#ffb380;stroke:#000000;stroke-width:0.35433071999999999;stroke-miterlimit:4;stroke-opacity:1;stroke-dasharray:none"
     id="rect3061"
     width="496.06299"
     height="496.06299"
     x="1098.4252"
     y="-850.39368"
     ry="3.0506115e-05" />
  <rect
     style="fill:#000000;stroke:#000000;stroke-width:0.35433071999999999;stroke-miterlimit:4;stroke-opacity:1;stroke-dasharray:none"
     id="rect3063"
     width="35.433071"
     height="35.433071"
     x="1133.8583"
     y="-814.96063"
     ry="3.0506115e-05" />
  <rect
     style="fill:#000000;stroke:#000000;stroke-width:0.35433071999999999;stroke-miterlimit:4;stroke-opacity:1;stroke-dasharray:none"
     id="rect3065"
     width="35.433071"
     height="35.433071"
     x="1523.6221"
     y="-814.96063"
     ry="3.0506115e-05" />
  <rect
     style="fill:#000000;stroke:#000000;stroke-width:0.35433071999999999;stroke-miterlimit:4;stroke-opacity:1;stroke-dasharray:none"
     id="rect3067"
     width="35.433071"
     height="35.433071"
     x="1523.6221"
     y="-425.19687"
     ry="3.0506115e-05" />
  <rect
     style="fill:#000000;stroke:#000000;stroke-width:0.35433071999999999;stroke-miterlimit:4;stroke-opacity:1;stroke-dasharray:none"
     id="rect3069"
     width="35.433071"
     height="35.433071"
     x="1133.8583"
     y="-425.19687"
     ry="3.0506115e-05" />
  <path
     style="fill:#ff7f2a;stroke:#000000;stroke-width:0.35433071999999999;stroke-miterlimit:4;stroke-opacity:1;stroke-dasharray:none"
     d="M 1240.1562 -779.53125 L 1240.1562 -744.09375 L 1204.7188 -744.09375 L 1204.7188 -637.78125 L 1275.5938 -637.78125 L 1275.5938 -744.09375 L 1381.875 -744.09375 L 1381.875 -637.78125 L 1346.4688 -637.78125 L 1346.4688 -602.375 L 1311.0312 -602.375 L 1311.0312 -531.5 L 1381.875 -531.5 L 1381.875 -602.375 L 1452.75 -602.375 L 1452.75 -744.09375 L 1417.3125 -744.09375 L 1417.3125 -779.53125 L 1240.1562 -779.53125 z "
     id="rect3071" />
  <rect
     style="fill:#ff7f2a;stroke:#000000;stroke-width:0.35433071999999999;stroke-miterlimit:4;stroke-opacity:1;stroke-dasharray:none"
     id="rect3081"
     width="70.866142"
     height="70.866142"
     x="1311.0237"
     y="-496.06299"
     ry="3.0506115e-05" />
  <path
     style="fill:#000000;stroke:#000000;stroke-width:0.35433071999999999;stroke-miterlimit:4;stroke-opacity:1;stroke-dasharray:none"
     d="M 1275.5938 -744.09375 L 1275.5938 -637.78125 L 1240.1562 -637.78125 L 1240.1562 -602.375 L 1311.0312 -602.375 L 1311.0312 -637.78125 L 1311.0312 -708.65625 L 1381.875 -708.65625 L 1381.875 -744.09375 L 1311.0312 -744.09375 L 1275.5938 -744.09375 z "
     id="rect3084" />
  <path
     style="fill:#000000;stroke:#000000;stroke-width:0.35433071999999999;stroke-miterlimit:4;stroke-opacity:1;stroke-dasharray:none"
     d="M 1452.75 -708.65625 L 1452.75 -602.375 L 1417.3125 -602.375 L 1381.875 -602.375 L 1381.875 -531.5 L 1346.4688 -531.5 L 1346.4688 -496.0625 L 1381.875 -496.0625 L 1417.3125 -496.0625 L 1417.3125 -566.9375 L 1452.75 -566.9375 L 1488.1875 -566.9375 L 1488.1875 -708.65625 L 1452.75 -708.65625 z "
     id="rect3090" />
  <path
     style="fill:#000000;stroke:#000000;stroke-width:0.35433071999999999;stroke-miterlimit:4;stroke-opacity:1;stroke-dasharray:none"
     d="M 1381.875 -460.625 L 1381.875 -425.1875 L 1346.4688 -425.1875 L 1346.4688 -389.75 L 1381.875 -389.75 L 1417.3125 -389.75 L 1417.3125 -460.625 L 1381.875 -460.625 z "
     id="rect3098" />
  <path
     style="fill:none;stroke:#000000;stroke-width:0.35433071999999999;stroke-miterlimit:4;stroke-opacity:1;stroke-dasharray:none"
     d="M 1807.0938 -850.40625 L 1807.0938 -354.34375 L 2303.1562 -354.34375 L 2303.1562 -850.40625 L 1807.0938 -850.40625 z M 1842.5312 -814.96875 L 1877.9375 -814.96875 L 1877.9375 -779.53125 L 1842.5312 -779.53125 L 1842.5312 -814.96875 z M 2232.2812 -814.96875 L 2267.7188 -814.96875 L 2267.7188 -779.53125 L 2232.2812 -779.53125 L 2232.2812 -814.96875 z M 1948.8125 -779.53125 L 2125.9688 -779.53125 L 2125.9688 -744.09375 L 2161.4062 -744.09375 L 2161.4062 -708.65625 L 2196.8438 -708.65625 L 2196.8438 -566.9375 L 2161.4062 -566.9375 L 2125.9688 -566.9375 L 2125.9688 -496.0625 L 2090.5625 -496.0625 L 2090.5625 -460.625 L 2125.9688 -460.625 L 2125.9688 -389.75 L 2090.5312 -389.75 L 2055.125 -389.75 L 2055.125 -425.1875 L 2019.6875 -425.1875 L 2019.6875 -496.0625 L 2055.125 -496.0625 L 2055.125 -531.5 L 2019.6875 -531.5 L 2019.6875 -602.375 L 1948.8125 -602.375 L 1948.8125 -637.78125 L 1913.375 -637.78125 L 1913.375 -744.09375 L 1948.8125 -744.09375 L 1948.8125 -779.53125 z M 2019.6875 -602.375 L 2055.125 -602.375 L 2055.125 -637.78125 L 2090.5312 -637.78125 L 2090.5312 -708.65625 L 2019.6875 -708.65625 L 2019.6875 -637.78125 L 2019.6875 -602.375 z M 1842.5312 -425.1875 L 1877.9375 -425.1875 L 1877.9375 -389.75 L 1842.5312 -389.75 L 1842.5312 -425.1875 z M 2232.2812 -425.1875 L 2267.7188 -425.1875 L 2267.7188 -389.75 L 2232.2812 -389.75 L 2232.2812 -425.1875 z "
     id="rect3192" />
  <rect
     ry="3.0506115e-05"
     y="-283.46457"
     x="1807.0867"
     height="35.433071"
     width="35.433071"
     id="rect3194"
     style="fill:#000000;stroke:#000000;stroke-width:0.35433072;stroke-miterlimit:4;stroke-opacity:1;stroke-dasharray:none" />
  <rect
     ry="3.0506115e-05"
     y="-120.46457"
     x="1954.8503"
     height="35.433071"
     width="35.433071"
     id="rect3196"
     style="fill:#000000;stroke:#000000;stroke-width:0.35433072;stroke-miterlimit:4;stroke-opacity:1;stroke-dasharray:none" />
  <rect
     ry="3.0506115e-05"
     y="-133.70078"
     x="1822.8503"
     height="35.433071"
     width="35.433071"
     id="rect3198"
     style="fill:#000000;stroke:#000000;stroke-width:0.35433072;stroke-miterlimit:4;stroke-opacity:1;stroke-dasharray:none" />
  <rect
     ry="3.0506115e-05"
     y="-243.70078"
     x="1806.0867"
     height="35.433071"
     width="35.433071"
     id="rect3200"
     style="fill:#000000;stroke:#000000;stroke-width:0.35433072;stroke-miterlimit:4;stroke-opacity:1;stroke-dasharray:none" />
  <path
     id="path3206"
     d="m 1847.5154,-283.469 0,106.3125 -35.4376,0 0,35.40625 70.875,0 0,-35.40625 0,-70.875 70.8438,0 0,-35.4375 -70.8438,0 -35.4374,0 z"
     style="fill:#000000;stroke:#000000;stroke-width:0.35433072;stroke-miterlimit:4;stroke-opacity:1;stroke-dasharray:none"
     inkscape:connector-curvature="0" />
  <path
     id="path3208"
     d="m 1970.7165,-276.87968 0,106.28125 -35.4375,0 -35.4375,0 0,70.875 -35.4062,0 0,35.4375 35.4062,0 35.4375,0 0,-70.875 35.4375,0 35.4375,0 0,-141.71875 -35.4375,0 z"
     style="fill:#000000;stroke:#000000;stroke-width:0.35433072;stroke-miterlimit:4;stroke-opacity:1;stroke-dasharray:none"
     inkscape:connector-curvature="0" />
  <path
     id="path3210"
     d="m 1926.4444,-245.0315 0,35.4375 -35.4062,0 0,35.4375 35.4062,0 35.4375,0 0,-70.875 -35.4375,0 z"
     style="fill:#000000;stroke:#000000;stroke-width:0.35433072;stroke-miterlimit:4;stroke-opacity:1;stroke-dasharray:none"
     inkscape:connector-curvature="0" />
  <g
     id="g3343"
     transform="translate(708.6499,-0.01427742)">
    <path
       id="rect3190"
       d="m 1807.0938,-885.8125 0,10.625 -24.8126,0 0,24.78125 -10.625,0 0,35.4375 10.625,0 0,35.4375 -10.625,0 0,35.4375 10.625,0 0,35.4375 -10.625,0 0,35.4375 10.625,0 0,35.4375 -10.625,0 0,35.40625 10.625,0 0,35.4375 -10.625,0 0,35.4375 10.625,0 0,35.4375 -10.625,0 0,35.4375 10.625,0 0,35.4375 -10.625,0 0,35.4375 10.625,0 0,35.40625 -10.625,0 0,35.4375 35.4376,0 0,-10.625 35.4374,0 0,10.625 35.4063,0 0,-10.625 35.4375,0 0,10.625 35.4375,0 0,-10.625 35.4375,0 0,10.625 35.4375,0 0,-10.625 35.4375,0 0,10.625 35.4375,0 0,-10.625 35.4063,0 0,10.625 35.4374,0 0,-10.625 35.4376,0 0,10.625 35.4374,0 0,-10.625 35.4376,0 0,10.625 35.4374,0 0,-10.625 24.7813,0 0,-24.8125 10.6563,0 0,-35.40625 -10.6563,0 0,-35.4375 10.6563,0 0,-35.4375 -10.6563,0 0,-35.4375 10.6563,0 0,-35.4375 -10.6563,0 0,-35.4375 10.6563,0 0,-35.4375 -10.6563,0 0,-35.40625 10.6563,0 0,-35.4375 -10.6563,0 0,-35.4375 10.6563,0 0,-35.4375 -10.6563,0 0,-35.4375 10.6563,0 0,-35.4375 -10.6563,0 0,-35.4375 10.6563,0 0,-35.40625 -35.4376,0 0,10.625 -35.4374,0 0,-10.625 -35.4376,0 0,10.625 -35.4374,0 0,-10.625 -35.4376,0 0,10.625 -35.4374,0 0,-10.625 -35.4063,0 0,10.625 -35.4375,0 0,-10.625 -35.4375,0 0,10.625 -35.4375,0 0,-10.625 -35.4375,0 0,10.625 -35.4375,0 0,-10.625 -35.4375,0 0,10.625 -35.4063,0 0,-10.625 -35.4374,0 z"
       style="fill:none;stroke:#000000;stroke-width:0.39121833;stroke-miterlimit:4;stroke-opacity:1;stroke-dasharray:none"
       inkscape:connector-curvature="0" />
    <rect
       ry="3.0506115e-05"
       y="-814.96063"
       x="1842.5198"
       height="35.433071"
       width="35.433071"
       id="rect3335"
       style="fill:none;stroke:#000000;stroke-width:0.35433072;stroke-miterlimit:4;stroke-opacity:1;stroke-dasharray:none" />
    <rect
       ry="3.0506115e-05"
       y="-814.96063"
       x="2232.2834"
       height="35.433071"
       width="35.433071"
       id="rect3337"
       style="fill:none;stroke:#000000;stroke-width:0.35433072;stroke-miterlimit:4;stroke-opacity:1;stroke-dasharray:none" />
    <rect
       ry="3.0506115e-05"
       y="-425.19684"
       x="2232.2834"
       height="35.433071"
       width="35.433071"
       id="rect3339"
       style="fill:none;stroke:#000000;stroke-width:0.35433072;stroke-miterlimit:4;stroke-opacity:1;stroke-dasharray:none" />
    <rect
       ry="3.0506115e-05"
       y="-425.19684"
       x="1842.5198"
       height="35.433071"
       width="35.433071"
       id="rect3341"
       style="fill:none;stroke:#000000;stroke-width:0.35433072;stroke-miterlimit:4;stroke-opacity:1;stroke-dasharray:none" />
  </g>
  <rect
     ry="3.0506115e-05"
     y="-1594.4883"
     x="1771.6536"
     height="566.92914"
     width="566.92926"
     id="rect3371"
     style="fill:#ff7f2a;stroke:#000000;stroke-width:0.39121833;stroke-miterlimit:4;stroke-opacity:1;stroke-dasharray:none" />
  <rect
     ry="3.0506115e-05"
     y="-1133.8583"
     x="1842.5197"
     height="35.433071"
     width="35.433071"
     id="rect3373"
     style="fill:#000000;stroke:#000000;stroke-width:0.35433072;stroke-miterlimit:4;stroke-opacity:1;stroke-dasharray:none" />
  <rect
     style="fill:#000000;stroke:#000000;stroke-width:0.35433072;stroke-miterlimit:4;stroke-opacity:1;stroke-dasharray:none"
     id="rect3375"
     width="35.433071"
     height="35.433071"
     x="2232.2834"
     y="-1133.8583"
     ry="3.0506115e-05" />
  <rect
     ry="3.0506115e-05"
     y="-1523.6221"
     x="2232.2834"
     height="35.433071"
     width="35.433071"
     id="rect3377"
     style="fill:#000000;stroke:#000000;stroke-width:0.35433072;stroke-miterlimit:4;stroke-opacity:1;stroke-dasharray:none" />
  <rect
     style="fill:#000000;stroke:#000000;stroke-width:0.35433072;stroke-miterlimit:4;stroke-opacity:1;stroke-dasharray:none"
     id="rect3379"
     width="35.433071"
     height="35.433071"
     x="1842.5197"
     y="-1523.6221"
     ry="3.0506115e-05" />
  <rect
     style="fill:none;stroke:#000000;stroke-width:0.35433072;stroke-miterlimit:4;stroke-opacity:1;stroke-dasharray:none"
     id="rect3383"
     width="35.433071"
     height="10.629956"
     x="2303.1497"
     y="-1038.189"
     ry="3.0506115e-05" />
  <rect
     style="fill:none;stroke:#000000;stroke-width:0.35433072;stroke-miterlimit:4;stroke-opacity:1;stroke-dasharray:none"
     id="rect3385"
     width="35.433071"
     height="10.629956"
     x="2232.2834"
     y="-1038.189"
     ry="3.0506115e-05" />
  <rect
     style="fill:none;stroke:#000000;stroke-width:0.35433072;stroke-miterlimit:4;stroke-opacity:1;stroke-dasharray:none"
     id="rect3387"
     width="35.433071"
     height="10.629956"
     x="2161.4172"
     y="-1038.189"
     ry="3.0506115e-05" />
  <rect
     style="fill:none;stroke:#000000;stroke-width:0.35433072;stroke-miterlimit:4;stroke-opacity:1;stroke-dasharray:none"
     id="rect3389"
     width="35.433071"
     height="10.629956"
     x="2090.5513"
     y="-1038.189"
     ry="3.0506115e-05" />
  <rect
     style="fill:none;stroke:#000000;stroke-width:0.35433072;stroke-miterlimit:4;stroke-opacity:1;stroke-dasharray:none"
     id="rect3391"
     width="35.433071"
     height="10.629956"
     x="2019.6851"
     y="-1038.189"
     ry="3.0506115e-05" />
  <rect
     style="fill:none;stroke:#000000;stroke-width:0.35433072;stroke-miterlimit:4;stroke-opacity:1;stroke-dasharray:none"
     id="rect3393"
     width="35.433071"
     height="10.629956"
     x="1948.8188"
     y="-1038.189"
     ry="3.0506115e-05" />
  <rect
     style="fill:none;stroke:#000000;stroke-width:0.35433072;stroke-miterlimit:4;stroke-opacity:1;stroke-dasharray:none"
     id="rect3395"
     width="35.433071"
     height="10.629956"
     x="1877.9528"
     y="-1038.189"
     ry="3.0506115e-05" />
  <rect
     style="fill:none;stroke:#000000;stroke-width:0.35433072;stroke-miterlimit:4;stroke-opacity:1;stroke-dasharray:none"
     id="rect3397"
     width="35.433071"
     height="10.629956"
     x="1807.0867"
     y="-1038.189"
     ry="3.0506115e-05" />
  <rect
     style="fill:none;stroke:#000000;stroke-width:0.35433072;stroke-miterlimit:4;stroke-opacity:1;stroke-dasharray:none"
     id="rect3399"
     width="0"
     height="0"
     x="0"
     y="0" />
</svg>
