<?xml version="1.0" encoding="UTF-8" standalone="no"?>
<svg
   xmlns:dc="http://purl.org/dc/elements/1.1/"
   xmlns:cc="http://creativecommons.org/ns#"
   xmlns:rdf="http://www.w3.org/1999/02/22-rdf-syntax-ns#"
   xmlns:svg="http://www.w3.org/2000/svg"
   xmlns="http://www.w3.org/2000/svg"
   xmlns:sodipodi="http://sodipodi.sourceforge.net/DTD/sodipodi-0.dtd"
   xmlns:inkscape="http://www.inkscape.org/namespaces/inkscape"
   id="svg3254"
   version="1.1"
   inkscape:version="0.48.1 r9760"
   width="990"
   height="765"
   sodipodi:docname="temp.svg">
  <metadata
     id="metadata3340">
    <rdf:RDF>
      <cc:Work
         rdf:about="">
        <dc:format>image/svg+xml</dc:format>
        <dc:type
           rdf:resource="http://purl.org/dc/dcmitype/StillImage" />
        <dc:title></dc:title>
      </cc:Work>
    </rdf:RDF>
  </metadata>
  <defs
     id="defs3338" />
  <sodipodi:namedview
     pagecolor="#ffffff"
     bordercolor="#666666"
     borderopacity="1"
     objecttolerance="10"
     gridtolerance="10"
     guidetolerance="10"
     inkscape:pageopacity="0"
     inkscape:pageshadow="2"
     inkscape:window-width="1680"
     inkscape:window-height="1002"
     id="namedview3336"
     showgrid="false"
     inkscape:document-units="mm"
     units="mm"
     inkscape:zoom="0.78480654"
     inkscape:cx="426.57354"
     inkscape:cy="395.566"
     inkscape:window-x="0"
     inkscape:window-y="0"
     inkscape:window-maximized="0"
     inkscape:current-layer="svg3254" />
  <path
     style="fill:none;stroke:#000000;stroke-width:0.1mm"
     d="M 425.375 20.71875 L 425.375 56.15625 L 283.65625 56.15625 L 283.65625 127.03125 L 248.21875 127.03125 L 248.21875 197.90625 L 203.90625 197.90625 L 203.90625 76.3125 L 62.15625 76.3125 L 62.15625 197.90625 L 35.625 197.90625 L 35.625 410.5 L 0.1875 410.5 L 0.1875 587.65625 L 248.21875 587.65625 L 248.21875 516.78125 L 283.65625 516.78125 L 283.65625 552.21875 L 425.375 552.21875 L 425.375 623.09375 L 106.46875 623.09375 L 106.46875 753.4375 L 389.9375 753.4375 L 389.9375 764.8125 L 708.84375 764.8125 L 708.84375 753.4375 L 744.28125 753.4375 L 744.28125 764.8125 L 850.5625 764.8125 L 850.5625 759 L 886 759 L 886 764.8125 L 1027.75 764.8125 L 1027.75 658.53125 L 886 658.53125 L 886 623.09375 L 850.5625 623.09375 L 850.5625 516.78125 L 815.125 516.78125 L 815.125 445.9375 L 925.125 445.9375 L 925.125 375.0625 L 956.875 375.0625 L 956.875 127.03125 L 850.5625 127.03125 L 850.5625 233.3125 L 673.40625 233.3125 L 673.40625 56.15625 L 567.09375 56.15625 L 567.09375 20.71875 L 425.375 20.71875 z M 443.09375 38.4375 L 549.375 38.4375 L 549.375 56.15625 L 443.09375 56.15625 L 443.09375 38.4375 z M 301.34375 73.875 L 425.375 73.875 L 425.375 127.03125 L 301.34375 127.03125 L 301.34375 73.875 z M 443.09375 73.875 L 549.375 73.875 L 549.375 127.03125 L 443.09375 127.03125 L 443.09375 73.875 z M 567.09375 73.875 L 655.6875 73.875 L 655.6875 215.625 L 637.96875 215.625 L 637.96875 127.03125 L 567.09375 127.03125 L 567.09375 73.875 z M 79.875 94.03125 L 186.1875 94.03125 L 186.1875 197.90625 L 79.875 197.90625 L 79.875 94.03125 z M 265.9375 144.75 L 283.65625 144.75 L 283.65625 197.90625 L 265.9375 197.90625 L 265.9375 144.75 z M 301.34375 144.75 L 425.375 144.75 L 425.375 197.90625 L 301.34375 197.90625 L 301.34375 144.75 z M 443.09375 144.75 L 549.375 144.75 L 549.375 197.90625 L 443.09375 197.90625 L 443.09375 144.75 z M 567.09375 144.75 L 620.25 144.75 L 620.25 215.625 L 602.53125 215.625 L 602.53125 197.90625 L 567.09375 197.90625 L 567.09375 144.75 z M 868.28125 144.75 L 939.15625 144.75 L 939.15625 357.34375 L 925.125 357.34375 L 925.125 339.625 L 886 339.625 L 886 233.3125 L 868.28125 233.3125 L 868.28125 144.75 z M 53.3125 215.625 L 62.15625 215.625 L 62.15625 392.78125 L 53.3125 392.78125 L 53.3125 215.625 z M 79.875 215.625 L 186.1875 215.625 L 186.1875 392.78125 L 79.875 392.78125 L 79.875 215.625 z M 203.90625 215.625 L 248.21875 215.625 L 248.21875 375.0625 L 212.78125 375.0625 L 212.78125 392.78125 L 203.90625 392.78125 L 203.90625 215.625 z M 265.9375 215.625 L 283.65625 215.625 L 283.65625 233.3125 L 319.0625 233.3125 L 319.0625 357.34375 L 265.9375 357.34375 L 265.9375 215.625 z M 496.25 233.3125 L 549.375 233.3125 L 549.375 286.46875 L 496.25 286.46875 L 496.25 233.3125 z M 567.09375 233.3125 L 584.8125 233.3125 L 584.8125 357.34375 L 496.25 357.34375 L 496.25 304.1875 L 567.09375 304.1875 L 567.09375 233.3125 z M 602.53125 233.3125 L 620.25 233.3125 L 620.25 357.34375 L 602.53125 357.34375 L 602.53125 233.3125 z M 336.78125 251.03125 L 425.375 251.03125 L 425.375 304.1875 L 478.53125 304.1875 L 478.53125 357.34375 L 336.78125 357.34375 L 336.78125 251.03125 z M 443.09375 251.03125 L 478.53125 251.03125 L 478.53125 286.46875 L 443.09375 286.46875 L 443.09375 251.03125 z M 655.6875 251.03125 L 850.5625 251.03125 L 850.5625 321.90625 L 779.71875 321.90625 L 779.71875 304.1875 L 673.40625 304.1875 L 673.40625 321.90625 L 655.6875 321.90625 L 655.6875 251.03125 z M 637.96875 339.625 L 673.40625 339.625 L 673.40625 375.0625 L 637.96875 375.0625 L 637.96875 339.625 z M 691.125 339.625 L 762 339.625 L 762 375.0625 L 691.125 375.0625 L 691.125 339.625 z M 779.71875 339.625 L 815.125 339.625 L 815.125 375.0625 L 779.71875 375.0625 L 779.71875 339.625 z M 832.84375 357.34375 L 850.5625 357.34375 L 850.5625 375.0625 L 907.40625 375.0625 L 907.40625 428.21875 L 832.84375 428.21875 L 832.84375 357.34375 z M 602.53125 392.78125 L 673.40625 392.78125 L 673.40625 445.9375 L 496.25 445.9375 L 496.25 410.5 L 602.53125 410.5 L 602.53125 392.78125 z M 691.125 392.78125 L 762 392.78125 L 762 499.0625 L 708.84375 499.0625 L 708.84375 445.9375 L 691.125 445.9375 L 691.125 392.78125 z M 779.71875 392.78125 L 797.40625 392.78125 L 797.40625 499.0625 L 779.71875 499.0625 L 779.71875 392.78125 z M 248.21875 410.5 L 319.0625 410.5 L 319.0625 445.9375 L 283.65625 445.9375 L 283.65625 499.0625 L 248.21875 499.0625 L 248.21875 410.5 z M 336.78125 410.5 L 478.53125 410.5 L 478.53125 445.9375 L 336.78125 445.9375 L 336.78125 410.5 z M 17.90625 428.21875 L 62.15625 428.21875 L 62.15625 466.0625 L 203.90625 466.0625 L 203.90625 428.21875 L 212.78125 428.21875 L 212.78125 516.78125 L 230.5 516.78125 L 230.5 569.9375 L 17.90625 569.9375 L 17.90625 428.21875 z M 79.875 428.21875 L 186.1875 428.21875 L 186.1875 448.375 L 79.875 448.375 L 79.875 428.21875 z M 301.34375 463.65625 L 319.0625 463.65625 L 319.0625 481.34375 L 425.375 481.34375 L 425.375 499.0625 L 301.34375 499.0625 L 301.34375 463.65625 z M 496.25 463.65625 L 673.40625 463.65625 L 673.40625 499.0625 L 602.53125 499.0625 L 602.53125 481.34375 L 496.25 481.34375 L 496.25 463.65625 z M 301.34375 516.78125 L 425.375 516.78125 L 425.375 534.5 L 301.34375 534.5 L 301.34375 516.78125 z M 443.09375 516.78125 L 496.25 516.78125 L 496.25 534.5 L 443.09375 534.5 L 443.09375 516.78125 z M 708.84375 534.5 L 762 534.5 L 762 605.375 L 691.125 605.375 L 691.125 552.21875 L 708.84375 552.21875 L 708.84375 534.5 z M 779.71875 534.5 L 832.84375 534.5 L 832.84375 605.375 L 779.71875 605.375 L 779.71875 534.5 z M 443.09375 552.21875 L 496.25 552.21875 L 496.25 623.09375 L 443.09375 623.09375 L 443.09375 552.21875 z M 513.96875 552.21875 L 584.8125 552.21875 L 584.8125 605.375 L 513.96875 605.375 L 513.96875 552.21875 z M 602.53125 552.21875 L 673.40625 552.21875 L 673.40625 605.375 L 602.53125 605.375 L 602.53125 552.21875 z M 744.28125 623.09375 L 762 623.09375 L 762 658.53125 L 744.28125 658.53125 L 744.28125 623.09375 z M 124.1875 640.8125 L 425.375 640.8125 L 425.375 658.53125 L 389.9375 658.53125 L 389.9375 735.71875 L 124.1875 735.71875 L 124.1875 640.8125 z M 602.53125 640.8125 L 673.40625 640.8125 L 673.40625 658.53125 L 602.53125 658.53125 L 602.53125 640.8125 z M 691.125 640.8125 L 726.5625 640.8125 L 726.5625 676.25 L 708.84375 676.25 L 708.84375 658.53125 L 691.125 658.53125 L 691.125 640.8125 z M 797.40625 640.8125 L 868.28125 640.8125 L 868.28125 741.28125 L 850.5625 741.28125 L 850.5625 658.53125 L 797.40625 658.53125 L 797.40625 640.8125 z M 407.65625 676.25 L 673.40625 676.25 L 673.40625 693.96875 L 691.125 693.96875 L 691.125 735.71875 L 407.65625 735.71875 L 407.65625 676.25 z M 797.40625 676.25 L 832.84375 676.25 L 832.84375 741.28125 L 797.40625 741.28125 L 797.40625 676.25 z M 903.71875 676.25 L 1010.0312 676.25 L 1010.0312 747.09375 L 903.71875 747.09375 L 903.71875 676.25 z M 708.84375 693.96875 L 726.5625 693.96875 L 726.5625 735.71875 L 708.84375 735.71875 L 708.84375 693.96875 z M 762 693.96875 L 779.71875 693.96875 L 779.71875 747.09375 L 762 747.09375 L 762 693.96875 z "
     id="rect3256" />
</svg>
