<?xml version="1.0" encoding="UTF-8" standalone="no"?>
<svg
   xmlns:dc="http://purl.org/dc/elements/1.1/"
   xmlns:cc="http://creativecommons.org/ns#"
   xmlns:rdf="http://www.w3.org/1999/02/22-rdf-syntax-ns#"
   xmlns:svg="http://www.w3.org/2000/svg"
   xmlns="http://www.w3.org/2000/svg"
   xmlns:sodipodi="http://sodipodi.sourceforge.net/DTD/sodipodi-0.dtd"
   xmlns:inkscape="http://www.inkscape.org/namespaces/inkscape"
   width="280mm"
   height="215mm"
   viewBox="0 0 280 215"
   id="svg3121"
   version="1.1"
   inkscape:version="0.48.1 r9760"
   sodipodi:docname="test2.svg">
  <metadata
     id="metadata3167">
    <rdf:RDF>
      <cc:Work
         rdf:about="">
        <dc:format>image/svg+xml</dc:format>
        <dc:type
           rdf:resource="http://purl.org/dc/dcmitype/StillImage" />
        <dc:title></dc:title>
      </cc:Work>
    </rdf:RDF>
  </metadata>
  <defs
     id="defs3165" />
  <sodipodi:namedview
     pagecolor="#ffffff"
     bordercolor="#666666"
     borderopacity="1"
     objecttolerance="10"
     gridtolerance="10"
     guidetolerance="10"
     inkscape:pageopacity="0"
     inkscape:pageshadow="2"
     inkscape:window-width="1680"
     inkscape:window-height="1002"
     id="namedview3163"
     showgrid="false"
     inkscape:zoom="1"
     inkscape:cx="496.06299"
     inkscape:cy="380.90552"
     inkscape:window-x="0"
     inkscape:window-y="0"
     inkscape:window-maximized="0"
     inkscape:current-layer="svg3121" />
  <path
     style="fill:#000000;stroke:#000000;stroke-width:0.35433071999999999"
     d="M 318.53125 -0.34375 L 318.53125 35.09375 L 176.8125 35.09375 L 176.8125 142.09375 L 247.6875 142.09375 L 247.6875 212.25 L 212.25 212.25 L 212.25 318.53125 L 141.375 318.53125 L 141.375 495.71875 L 71.21875 495.71875 L 71.21875 283.125 L -0.34375 283.125 L -0.34375 496.40625 L 35.09375 496.40625 L 35.09375 585 L 141.375 585 L 141.375 602 L 105.9375 602 L 105.9375 637.4375 L 35.09375 637.4375 L 35.09375 697.21875 L 390.125 697.21875 L 390.125 655.875 L 567.28125 655.875 L 567.28125 638.15625 L 602 638.15625 L 602 694.5625 L 726.71875 694.5625 L 726.71875 638.15625 L 743.75 638.15625 L 743.75 673.59375 L 850.03125 673.59375 L 850.03125 704.5 L 903.90625 704.5 L 903.90625 637.4375 L 886.1875 637.4375 L 886.1875 496.40625 L 903.90625 496.40625 L 903.90625 424.84375 L 886.1875 424.84375 L 886.1875 336.96875 L 903.90625 336.96875 L 903.90625 283.125 L 886.1875 283.125 L 886.1875 105.9375 L 743.75 105.9375 L 743.75 141.375 L 709.03125 141.375 L 709.03125 -0.34375 L 318.53125 -0.34375 z M 336.96875 18.0625 L 690.59375 18.0625 L 690.59375 141.375 L 620.4375 141.375 L 620.4375 35.09375 L 336.96875 35.09375 L 336.96875 18.0625 z M 195.25 53.5 L 318.53125 53.5 L 318.53125 70.5 L 283.125 70.5 L 283.125 123.65625 L 195.25 123.65625 L 195.25 53.5 z M 336.96875 53.5 L 602 53.5 L 602 123.65625 L 390.125 123.65625 L 390.125 70.5 L 336.96875 70.5 L 336.96875 53.5 z M 301.53125 88.9375 L 318.53125 88.9375 L 318.53125 123.65625 L 301.53125 123.65625 L 301.53125 88.9375 z M 336.96875 88.9375 L 371.6875 88.9375 L 371.6875 123.65625 L 336.96875 123.65625 L 336.96875 88.9375 z M 762.15625 124.375 L 867.75 124.375 L 867.75 283.125 L 815.3125 283.125 L 815.3125 230.65625 L 850.75 230.65625 L 850.75 176.8125 L 815.3125 176.8125 L 815.3125 141.375 L 762.15625 141.375 L 762.15625 124.375 z M 266.09375 159.8125 L 283.125 159.8125 L 283.125 212.25 L 266.09375 212.25 L 266.09375 159.8125 z M 301.53125 159.8125 L 318.53125 159.8125 L 318.53125 212.25 L 301.53125 212.25 L 301.53125 159.8125 z M 336.96875 159.8125 L 371.6875 159.8125 L 371.6875 212.25 L 336.96875 212.25 L 336.96875 159.8125 z M 390.125 159.8125 L 690.59375 159.8125 L 690.59375 212.25 L 390.125 212.25 L 390.125 159.8125 z M 709.03125 159.8125 L 743.75 159.8125 L 743.75 176.8125 L 709.03125 176.8125 L 709.03125 159.8125 z M 762.15625 159.8125 L 796.875 159.8125 L 796.875 176.8125 L 762.15625 176.8125 L 762.15625 159.8125 z M 726.71875 195.25 L 743.75 195.25 L 743.75 212.25 L 726.71875 212.25 L 726.71875 195.25 z M 762.15625 195.25 L 796.875 195.25 L 796.875 212.25 L 762.15625 212.25 L 762.15625 195.25 z M 815.3125 195.25 L 832.3125 195.25 L 832.3125 212.25 L 815.3125 212.25 L 815.3125 195.25 z M 230.65625 230.65625 L 247.6875 230.65625 L 247.6875 318.53125 L 230.65625 318.53125 L 230.65625 230.65625 z M 266.09375 230.65625 L 283.125 230.65625 L 283.125 301.53125 L 318.53125 301.53125 L 318.53125 318.53125 L 266.09375 318.53125 L 266.09375 230.65625 z M 301.53125 230.65625 L 318.53125 230.65625 L 318.53125 283.125 L 301.53125 283.125 L 301.53125 230.65625 z M 336.96875 230.65625 L 371.6875 230.65625 L 371.6875 283.125 L 336.96875 283.125 L 336.96875 230.65625 z M 390.125 230.65625 L 690.59375 230.65625 L 690.59375 247.6875 L 637.4375 247.6875 L 637.4375 353.96875 L 354.6875 353.96875 L 354.6875 318.53125 L 336.96875 318.53125 L 336.96875 301.53125 L 390.125 301.53125 L 390.125 230.65625 z M 709.03125 230.65625 L 726.03125 230.65625 L 726.03125 283.125 L 709.03125 283.125 L 709.03125 230.65625 z M 762.15625 230.65625 L 796.875 230.65625 L 796.875 283.125 L 762.15625 283.125 L 762.15625 230.65625 z M 655.875 266.09375 L 672.875 266.09375 L 672.875 283.125 L 672.875 336.96875 L 672.875 353.96875 L 655.875 353.96875 L 655.875 266.09375 z M 18.0625 301.53125 L 52.78125 301.53125 L 52.78125 478 L 18.0625 478 L 18.0625 301.53125 z M 709.03125 301.53125 L 726.03125 301.53125 L 726.03125 318.53125 L 709.03125 318.53125 L 709.03125 301.53125 z M 762.15625 301.53125 L 796.875 301.53125 L 796.875 318.53125 L 762.15625 318.53125 L 762.15625 301.53125 z M 815.3125 301.53125 L 867.75 301.53125 L 867.75 318.53125 L 815.3125 318.53125 L 815.3125 301.53125 z M 159.8125 336.96875 L 212.25 336.96875 L 212.25 495.71875 L 159.8125 495.71875 L 159.8125 336.96875 z M 230.65625 336.96875 L 247.6875 336.96875 L 247.6875 495.71875 L 230.65625 495.71875 L 230.65625 336.96875 z M 266.09375 336.96875 L 318.53125 336.96875 L 318.53125 353.96875 L 283.125 353.96875 L 283.125 443.28125 L 318.53125 443.28125 L 318.53125 495.71875 L 266.09375 495.71875 L 266.09375 336.96875 z M 709.03125 336.96875 L 726.03125 336.96875 L 726.03125 353.96875 L 709.03125 353.96875 L 709.03125 336.96875 z M 762.15625 336.96875 L 796.875 336.96875 L 796.875 353.96875 L 762.15625 353.96875 L 762.15625 336.96875 z M 815.3125 336.96875 L 867.75 336.96875 L 867.75 424.84375 L 850.75 424.84375 L 850.75 353.96875 L 815.3125 353.96875 L 815.3125 336.96875 z M 301.53125 372.40625 L 318.53125 372.40625 L 318.53125 424.84375 L 301.53125 424.84375 L 301.53125 372.40625 z M 354.6875 372.40625 L 637.4375 372.40625 L 637.4375 424.84375 L 354.6875 424.84375 L 354.6875 372.40625 z M 655.875 372.40625 L 672.875 372.40625 L 672.875 424.84375 L 655.875 424.84375 L 655.875 372.40625 z M 709.03125 372.40625 L 726.03125 372.40625 L 726.03125 424.84375 L 709.03125 424.84375 L 709.03125 372.40625 z M 762.15625 372.40625 L 796.875 372.40625 L 796.875 424.84375 L 762.15625 424.84375 L 762.15625 372.40625 z M 815.3125 372.40625 L 832.3125 372.40625 L 832.3125 424.84375 L 815.3125 424.84375 L 815.3125 372.40625 z M 354.6875 443.28125 L 637.4375 443.28125 L 637.4375 460.28125 L 424.84375 460.28125 L 424.84375 495.71875 L 354.6875 495.71875 L 354.6875 443.28125 z M 655.875 443.28125 L 672.875 443.28125 L 672.875 460.28125 L 655.875 460.28125 L 655.875 443.28125 z M 709.03125 443.28125 L 726.03125 443.28125 L 726.03125 460.28125 L 709.03125 460.28125 L 709.03125 443.28125 z M 762.15625 443.28125 L 796.875 443.28125 L 796.875 478 L 762.15625 478 L 762.15625 460.28125 L 762.15625 443.28125 z M 815.3125 443.28125 L 867.75 443.28125 L 867.75 478 L 815.3125 478 L 815.3125 443.28125 z M 443.28125 478.6875 L 637.4375 478.6875 L 637.4375 513.4375 L 460.96875 513.4375 L 460.96875 495.71875 L 443.28125 495.71875 L 443.28125 478.6875 z M 655.875 478.6875 L 672.875 478.6875 L 672.875 495.71875 L 655.875 495.71875 L 655.875 478.6875 z M 709.03125 496.40625 L 726.03125 496.40625 L 726.03125 513.4375 L 709.03125 513.4375 L 709.03125 496.40625 z M 762.15625 496.40625 L 796.875 496.40625 L 796.875 619.71875 L 762.15625 619.71875 L 762.15625 531.84375 L 762.15625 496.40625 z M 815.3125 496.40625 L 867.75 496.40625 L 867.75 637.4375 L 850.03125 637.4375 L 850.03125 655.15625 L 762.15625 655.15625 L 762.15625 638.15625 L 815.3125 638.15625 L 815.3125 496.40625 z M 53.5 514.125 L 141.375 514.125 L 141.375 566.5625 L 53.5 566.5625 L 53.5 514.125 z M 159.8125 514.125 L 212.25 514.125 L 212.25 549.5625 L 247.6875 549.5625 L 247.6875 566.5625 L 159.8125 566.5625 L 159.8125 514.125 z M 230.65625 514.125 L 247.6875 514.125 L 247.6875 531.15625 L 230.65625 531.15625 L 230.65625 514.125 z M 266.09375 514.125 L 318.53125 514.125 L 318.53125 531.15625 L 266.09375 531.15625 L 266.09375 514.125 z M 354.6875 514.125 L 424.84375 514.125 L 424.84375 531.15625 L 354.6875 531.15625 L 354.6875 514.125 z M 266.09375 549.5625 L 318.53125 549.5625 L 318.53125 566.5625 L 266.09375 566.5625 L 266.09375 549.5625 z M 354.6875 549.5625 L 442.5625 549.5625 L 442.5625 566.5625 L 354.6875 566.5625 L 354.6875 549.5625 z M 460.96875 549.5625 L 690.59375 549.5625 L 690.59375 602 L 567.28125 602 L 567.28125 566.5625 L 460.96875 566.5625 L 460.96875 549.5625 z M 709.03125 549.5625 L 743.75 549.5625 L 743.75 619.71875 L 709.03125 619.71875 L 709.03125 549.5625 z M 354.6875 585 L 548.84375 585 L 548.84375 602 L 354.6875 602 L 354.6875 585 z M 266.09375 602.71875 L 318.53125 602.71875 L 318.53125 619.71875 L 266.09375 619.71875 L 266.09375 602.71875 z M 124.375 620.4375 L 212.25 620.4375 L 212.25 637.4375 L 124.375 637.4375 L 124.375 620.4375 z M 230.65625 620.4375 L 247.6875 620.4375 L 247.6875 637.4375 L 230.65625 637.4375 L 230.65625 620.4375 z M 53.5 655.875 L 105.9375 655.875 L 105.9375 673.59375 L 266.09375 673.59375 L 266.09375 655.875 L 371.6875 655.875 L 371.6875 678.78125 L 53.5 678.78125 L 53.5 655.875 z M 620.4375 655.875 L 708.3125 655.875 L 708.3125 676.15625 L 620.4375 676.15625 L 620.4375 655.875 z M 868.46875 673.59375 L 885.46875 673.59375 L 885.46875 686.0625 L 868.46875 686.0625 L 868.46875 673.59375 z "
     transform="matrix(0.28222222,0,0,0.28222222,0,-2.4607825e-6)"
     id="path3123" />
</svg>
