<?xml version="1.0" encoding="UTF-8" standalone="no"?>
<svg
   xmlns:dc="http://purl.org/dc/elements/1.1/"
   xmlns:cc="http://creativecommons.org/ns#"
   xmlns:rdf="http://www.w3.org/1999/02/22-rdf-syntax-ns#"
   xmlns:svg="http://www.w3.org/2000/svg"
   xmlns="http://www.w3.org/2000/svg"
   xmlns:sodipodi="http://sodipodi.sourceforge.net/DTD/sodipodi-0.dtd"
   xmlns:inkscape="http://www.inkscape.org/namespaces/inkscape"
   width="280mm"
   height="215mm"
   viewBox="0 0 280 215"
   id="svg3217"
   version="1.1"
   inkscape:version="0.48.1 r9760"
   sodipodi:docname="test4.svg">
  <metadata
     id="metadata3263">
    <rdf:RDF>
      <cc:Work
         rdf:about="">
        <dc:format>image/svg+xml</dc:format>
        <dc:type
           rdf:resource="http://purl.org/dc/dcmitype/StillImage" />
        <dc:title></dc:title>
      </cc:Work>
    </rdf:RDF>
  </metadata>
  <defs
     id="defs3261" />
  <sodipodi:namedview
     pagecolor="#ffffff"
     bordercolor="#666666"
     borderopacity="1"
     objecttolerance="10"
     gridtolerance="10"
     guidetolerance="10"
     inkscape:pageopacity="0"
     inkscape:pageshadow="2"
     inkscape:window-width="1680"
     inkscape:window-height="1002"
     id="namedview3259"
     showgrid="false"
     inkscape:zoom="1"
     inkscape:cx="496.06299"
     inkscape:cy="380.90552"
     inkscape:window-x="0"
     inkscape:window-y="0"
     inkscape:window-maximized="0"
     inkscape:current-layer="svg3217" />
  <path
     style="fill:#000000;stroke:#000000;stroke-width:0.35433071999999999"
     d="M 672.875 -0.34375 L 672.875 141.375 L 549.5625 141.375 L 549.5625 105.9375 L 531.84375 105.9375 L 531.84375 35.09375 L 105.9375 35.09375 L 105.9375 318.53125 L 70.5 318.53125 L 70.5 353.96875 L -0.34375 353.96875 L -0.34375 585 L 35.09375 585 L 35.09375 655.875 L 301.53125 655.875 L 301.53125 638.15625 L 478.6875 638.15625 L 478.6875 620.4375 L 495.71875 620.4375 L 495.71875 638.15625 L 549.5625 638.15625 L 549.5625 620.4375 L 637.4375 620.4375 L 637.4375 638.15625 L 708.3125 638.15625 L 708.3125 694.25 L 779.875 694.25 L 779.875 673.59375 L 850.75 673.59375 L 850.75 655.875 L 886.1875 655.875 L 886.1875 602 L 850.75 602 L 850.75 567.28125 L 886.1875 567.28125 L 886.1875 425.5625 L 939.34375 425.5625 L 939.34375 105.9375 L 903.90625 105.9375 L 903.90625 35.09375 L 850.03125 35.09375 L 850.03125 195.25 L 885.46875 195.25 L 885.46875 247.6875 L 833.03125 247.6875 L 833.03125 -0.34375 L 672.875 -0.34375 z M 691.3125 18.0625 L 814.59375 18.0625 L 814.59375 247.6875 L 814.59375 336.25 L 762.15625 336.25 L 762.15625 318.53125 L 709.03125 318.53125 L 709.03125 141.375 L 691.3125 141.375 L 691.3125 18.0625 z M 124.375 53.5 L 513.4375 53.5 L 513.4375 105.9375 L 141.375 105.9375 L 141.375 159.8125 L 353.96875 159.8125 L 353.96875 176.8125 L 141.375 176.8125 L 141.375 318.53125 L 124.375 318.53125 L 124.375 53.5 z M 868.46875 53.5 L 885.46875 53.5 L 885.46875 105.9375 L 885.46875 176.8125 L 868.46875 176.8125 L 868.46875 53.5 z M 159.8125 124.375 L 513.4375 124.375 L 513.4375 141.375 L 159.8125 141.375 L 159.8125 124.375 z M 903.90625 124.375 L 920.90625 124.375 L 920.90625 407.125 L 903.90625 407.125 L 903.90625 195.25 L 903.90625 124.375 z M 372.40625 159.8125 L 513.4375 159.8125 L 513.4375 353.96875 L 478.6875 353.96875 L 478.6875 176.8125 L 372.40625 176.8125 L 372.40625 159.8125 z M 531.84375 159.8125 L 549.5625 159.8125 L 672.875 159.8125 L 672.875 353.96875 L 531.84375 353.96875 L 531.84375 159.8125 z M 159.8125 195.25 L 353.96875 195.25 L 353.96875 247.6875 L 247.6875 247.6875 L 247.6875 318.53125 L 159.8125 318.53125 L 159.8125 195.25 z M 372.40625 195.25 L 460.28125 195.25 L 460.28125 353.96875 L 372.40625 353.96875 L 372.40625 336.96875 L 407.84375 336.96875 L 407.84375 247.6875 L 372.40625 247.6875 L 372.40625 195.25 z M 266.09375 266.09375 L 353.96875 266.09375 L 353.96875 318.53125 L 283.8125 318.53125 L 266.09375 318.53125 L 266.09375 266.09375 z M 372.40625 266.09375 L 389.40625 266.09375 L 389.40625 318.53125 L 372.40625 318.53125 L 372.40625 266.09375 z M 833.03125 266.09375 L 867.75 266.09375 L 867.75 548.84375 L 850.75 548.84375 L 850.75 424.84375 L 833.03125 424.84375 L 833.03125 266.09375 z M 88.9375 336.96875 L 105.9375 336.96875 L 105.9375 353.96875 L 88.9375 353.96875 L 88.9375 336.96875 z M 124.375 336.96875 L 141.375 336.96875 L 141.375 353.96875 L 124.375 353.96875 L 124.375 336.96875 z M 159.8125 336.96875 L 265.40625 336.96875 L 265.40625 353.96875 L 159.8125 353.96875 L 159.8125 336.96875 z M 283.8125 336.96875 L 353.96875 336.96875 L 353.96875 353.96875 L 283.8125 353.96875 L 283.8125 336.96875 z M 762.15625 354.6875 L 814.59375 354.6875 L 814.59375 424.84375 L 779.1875 424.84375 L 779.1875 460.28125 L 762.15625 460.28125 L 762.15625 354.6875 z M 18.0625 372.40625 L 70.5 372.40625 L 70.5 424.84375 L 35.09375 424.84375 L 35.09375 566.5625 L 18.0625 566.5625 L 18.0625 372.40625 z M 88.9375 372.40625 L 105.9375 372.40625 L 105.9375 424.84375 L 88.9375 424.84375 L 88.9375 372.40625 z M 124.375 372.40625 L 141.375 372.40625 L 141.375 424.84375 L 124.375 424.84375 L 124.375 372.40625 z M 159.8125 372.40625 L 265.40625 372.40625 L 265.40625 424.84375 L 159.8125 424.84375 L 159.8125 372.40625 z M 283.8125 372.40625 L 353.96875 372.40625 L 353.96875 407.84375 L 460.28125 407.84375 L 460.28125 460.28125 L 424.84375 460.28125 L 424.84375 531.15625 L 301.53125 531.15625 L 301.53125 424.84375 L 283.8125 424.84375 L 283.8125 372.40625 z M 372.40625 372.40625 L 460.28125 372.40625 L 460.28125 389.40625 L 372.40625 389.40625 L 372.40625 372.40625 z M 478.6875 372.40625 L 513.4375 372.40625 L 513.4375 389.40625 L 478.6875 389.40625 L 478.6875 372.40625 z M 531.84375 372.40625 L 690.59375 372.40625 L 690.59375 389.40625 L 531.84375 389.40625 L 531.84375 372.40625 z M 478.6875 407.84375 L 513.4375 407.84375 L 513.4375 531.15625 L 496.40625 531.15625 L 496.40625 460.28125 L 478.6875 460.28125 L 478.6875 407.84375 z M 531.84375 407.84375 L 708.3125 407.84375 L 708.3125 460.28125 L 637.4375 460.28125 L 637.4375 531.15625 L 531.84375 531.15625 L 531.84375 407.84375 z M 53.5 443.28125 L 70.5 443.28125 L 70.5 566.5625 L 53.5 566.5625 L 53.5 443.28125 z M 88.9375 443.28125 L 105.9375 443.28125 L 105.9375 549.5625 L 141.375 549.5625 L 141.375 566.5625 L 88.9375 566.5625 L 88.9375 443.28125 z M 124.375 443.28125 L 141.375 443.28125 L 141.375 531.15625 L 124.375 531.15625 L 124.375 443.28125 z M 159.8125 443.28125 L 265.40625 443.28125 L 265.40625 531.15625 L 159.8125 531.15625 L 159.8125 443.28125 z M 797.59375 443.28125 L 814.59375 443.28125 L 814.59375 460.28125 L 797.59375 460.28125 L 797.59375 443.28125 z M 443.28125 478.6875 L 460.28125 478.6875 L 460.28125 513.4375 L 443.28125 513.4375 L 443.28125 478.6875 z M 655.875 478.6875 L 726.03125 478.6875 L 726.03125 566.5625 L 655.875 566.5625 L 655.875 531.15625 L 655.875 478.6875 z M 744.4375 478.6875 L 779.1875 478.6875 L 779.1875 619.71875 L 655.875 619.71875 L 655.875 585 L 744.4375 585 L 744.4375 478.6875 z M 159.8125 549.5625 L 265.40625 549.5625 L 265.40625 566.5625 L 159.8125 566.5625 L 159.8125 549.5625 z M 301.53125 549.5625 L 353.96875 549.5625 L 353.96875 566.5625 L 301.53125 566.5625 L 301.53125 549.5625 z M 372.40625 549.5625 L 460.28125 549.5625 L 460.28125 566.5625 L 372.40625 566.5625 L 372.40625 549.5625 z M 478.6875 549.5625 L 637.4375 549.5625 L 637.4375 566.5625 L 478.6875 566.5625 L 478.6875 549.5625 z M 815.3125 567.28125 L 832.3125 567.28125 L 832.3125 602 L 815.3125 602 L 815.3125 567.28125 z M 53.5 585 L 70.5 585 L 70.5 620.4375 L 141.375 620.4375 L 141.375 637.4375 L 53.5 637.4375 L 53.5 585 z M 88.9375 585 L 141.375 585 L 141.375 602 L 88.9375 602 L 88.9375 585 z M 159.8125 585 L 265.40625 585 L 265.40625 602 L 159.8125 602 L 159.8125 585 z M 301.53125 585 L 353.96875 585 L 353.96875 619.71875 L 301.53125 619.71875 L 301.53125 585 z M 372.40625 585 L 460.28125 585 L 460.28125 602 L 372.40625 602 L 372.40625 585 z M 478.6875 585 L 495.71875 585 L 495.71875 602 L 478.6875 602 L 478.6875 585 z M 514.125 585 L 531.15625 585 L 531.15625 602 L 514.125 602 L 514.125 585 z M 549.5625 585 L 637.4375 585 L 637.4375 602 L 549.5625 602 L 549.5625 585 z M 850.75 620.4375 L 867.75 620.4375 L 867.75 637.4375 L 850.75 637.4375 L 850.75 620.4375 z M 797.59375 638.15625 L 814.59375 638.15625 L 814.59375 655.15625 L 797.59375 655.15625 L 797.59375 638.15625 z M 726.71875 655.875 L 761.46875 655.875 L 761.46875 675.8125 L 726.71875 675.8125 L 726.71875 655.875 z "
     transform="matrix(0.28222222,0,0,0.28222222,0,-2.4607825e-6)"
     id="path3219" />
</svg>
