<?xml version="1.0" encoding="UTF-8" standalone="no"?>
<svg
   xmlns:dc="http://purl.org/dc/elements/1.1/"
   xmlns:cc="http://creativecommons.org/ns#"
   xmlns:rdf="http://www.w3.org/1999/02/22-rdf-syntax-ns#"
   xmlns:svg="http://www.w3.org/2000/svg"
   xmlns="http://www.w3.org/2000/svg"
   xmlns:sodipodi="http://sodipodi.sourceforge.net/DTD/sodipodi-0.dtd"
   xmlns:inkscape="http://www.inkscape.org/namespaces/inkscape"
   width="280mm"
   height="215mm"
   viewBox="0 0 280 215"
   id="svg3409"
   version="1.1"
   inkscape:version="0.48.1 r9760"
   sodipodi:docname="test8.svg">
  <metadata
     id="metadata3455">
    <rdf:RDF>
      <cc:Work
         rdf:about="">
        <dc:format>image/svg+xml</dc:format>
        <dc:type
           rdf:resource="http://purl.org/dc/dcmitype/StillImage" />
        <dc:title></dc:title>
      </cc:Work>
    </rdf:RDF>
  </metadata>
  <defs
     id="defs3453" />
  <sodipodi:namedview
     pagecolor="#ffffff"
     bordercolor="#666666"
     borderopacity="1"
     objecttolerance="10"
     gridtolerance="10"
     guidetolerance="10"
     inkscape:pageopacity="0"
     inkscape:pageshadow="2"
     inkscape:window-width="1680"
     inkscape:window-height="1002"
     id="namedview3451"
     showgrid="false"
     inkscape:zoom="1"
     inkscape:cx="496.06299"
     inkscape:cy="380.90552"
     inkscape:window-x="0"
     inkscape:window-y="0"
     inkscape:window-maximized="0"
     inkscape:current-layer="svg3409" />
  <path
     style="fill:#000000;stroke:#000000;stroke-width:0.35433071999999999"
     d="M 283.125 -0.34375 L 283.125 70.5 L 247.6875 70.5 L 247.6875 141.375 L 176.8125 141.375 L 176.8125 212.25 L 105.9375 212.25 L 105.9375 283.125 L 70.5 283.125 L 70.5 390.125 L 247.6875 390.125 L 247.6875 424.84375 L -0.34375 424.84375 L -0.34375 478.6875 L 247.6875 478.6875 L 247.6875 496.40625 L 353.96875 496.40625 L 353.96875 549.5625 L 424.84375 549.5625 L 424.84375 566.5625 L 353.96875 566.5625 L 353.96875 620.4375 L 566.5625 620.4375 L 566.5625 637.4375 L 389.40625 637.4375 L 389.40625 706.46875 L 868.46875 706.46875 L 868.46875 637.4375 L 797.59375 637.4375 L 797.59375 531.15625 L 585 531.15625 L 585 478.6875 L 743.75 478.6875 L 743.75 514.125 L 868.46875 514.125 L 868.46875 478.6875 L 886.1875 478.6875 L 886.1875 424.84375 L 868.46875 424.84375 L 868.46875 354.6875 L 886.1875 354.6875 L 886.1875 247.6875 L 585 247.6875 L 585 230.65625 L 691.3125 230.65625 L 691.3125 142.09375 L 886.1875 142.09375 L 886.1875 -0.34375 L 283.125 -0.34375 z M 301.53125 18.0625 L 867.75 18.0625 L 867.75 123.65625 L 460.96875 123.65625 L 460.96875 70.5 L 301.53125 70.5 L 301.53125 18.0625 z M 266.09375 88.9375 L 283.125 88.9375 L 283.125 141.375 L 266.09375 141.375 L 266.09375 88.9375 z M 301.53125 88.9375 L 442.5625 88.9375 L 442.5625 123.65625 L 301.53125 123.65625 L 301.53125 88.9375 z M 195.25 159.8125 L 247.6875 159.8125 L 247.6875 212.25 L 195.25 212.25 L 195.25 159.8125 z M 266.09375 159.8125 L 442.5625 159.8125 L 442.5625 176.8125 L 353.96875 176.8125 L 353.96875 212.25 L 266.09375 212.25 L 266.09375 159.8125 z M 460.96875 159.8125 L 672.875 159.8125 L 672.875 212.25 L 585 212.25 L 585 176.8125 L 460.96875 176.8125 L 460.96875 159.8125 z M 372.40625 195.25 L 442.5625 195.25 L 442.5625 212.25 L 372.40625 212.25 L 372.40625 195.25 z M 460.96875 195.25 L 566.5625 195.25 L 566.5625 212.25 L 460.96875 212.25 L 460.96875 195.25 z M 124.375 230.65625 L 247.6875 230.65625 L 247.6875 265.40625 L 124.375 265.40625 L 124.375 230.65625 z M 266.09375 230.65625 L 353.96875 230.65625 L 353.96875 247.6875 L 318.53125 247.6875 L 318.53125 265.40625 L 266.09375 265.40625 L 266.09375 230.65625 z M 372.40625 230.65625 L 442.5625 230.65625 L 442.5625 247.6875 L 372.40625 247.6875 L 372.40625 230.65625 z M 460.96875 230.65625 L 513.4375 230.65625 L 513.4375 265.40625 L 460.96875 265.40625 L 460.96875 230.65625 z M 531.84375 230.65625 L 566.5625 230.65625 L 566.5625 247.6875 L 531.84375 247.6875 L 531.84375 230.65625 z M 549.5625 266.09375 L 566.5625 266.09375 L 566.5625 283.125 L 549.5625 283.125 L 549.5625 266.09375 z M 585 266.09375 L 867.75 266.09375 L 867.75 336.25 L 797.59375 336.25 L 797.59375 283.125 L 585 283.125 L 585 266.09375 z M 88.9375 301.53125 L 247.6875 301.53125 L 247.6875 371.6875 L 88.9375 371.6875 L 88.9375 301.53125 z M 266.09375 301.53125 L 353.96875 301.53125 L 353.96875 371.6875 L 266.09375 371.6875 L 266.09375 301.53125 z M 372.40625 301.53125 L 442.5625 301.53125 L 442.5625 371.6875 L 372.40625 371.6875 L 372.40625 301.53125 z M 460.96875 301.53125 L 531.15625 301.53125 L 531.15625 354.6875 L 566.5625 354.6875 L 566.5625 371.6875 L 460.96875 371.6875 L 460.96875 301.53125 z M 549.5625 301.53125 L 566.5625 301.53125 L 566.5625 336.25 L 549.5625 336.25 L 549.5625 301.53125 z M 585 301.53125 L 779.1875 301.53125 L 779.1875 336.25 L 726.71875 336.25 L 726.71875 318.53125 L 672.875 318.53125 L 672.875 336.25 L 585 336.25 L 585 301.53125 z M 585 354.6875 L 672.875 354.6875 L 672.875 371.6875 L 585 371.6875 L 585 354.6875 z M 691.3125 354.6875 L 708.3125 354.6875 L 708.3125 371.6875 L 691.3125 371.6875 L 691.3125 354.6875 z M 726.71875 354.6875 L 743.75 354.6875 L 743.75 371.6875 L 726.71875 371.6875 L 726.71875 354.6875 z M 797.59375 372.40625 L 850.03125 372.40625 L 850.03125 424.84375 L 762.15625 424.84375 L 762.15625 390.125 L 797.59375 390.125 L 797.59375 372.40625 z M 266.09375 390.125 L 353.96875 390.125 L 353.96875 424.84375 L 266.09375 424.84375 L 266.09375 390.125 z M 372.40625 390.125 L 442.5625 390.125 L 442.5625 424.84375 L 372.40625 424.84375 L 372.40625 390.125 z M 460.96875 390.125 L 566.5625 390.125 L 566.5625 424.84375 L 460.96875 424.84375 L 460.96875 390.125 z M 585 390.125 L 672.875 390.125 L 672.875 407.84375 L 726.71875 407.84375 L 726.71875 390.125 L 743.75 390.125 L 743.75 424.84375 L 585 424.84375 L 585 390.125 z M 18.0625 443.28125 L 247.6875 443.28125 L 247.6875 460.28125 L 18.0625 460.28125 L 18.0625 443.28125 z M 266.09375 443.28125 L 353.96875 443.28125 L 353.96875 460.28125 L 266.09375 460.28125 L 266.09375 443.28125 z M 372.40625 443.28125 L 442.5625 443.28125 L 442.5625 460.28125 L 372.40625 460.28125 L 372.40625 443.28125 z M 460.96875 443.28125 L 566.5625 443.28125 L 566.5625 460.28125 L 460.96875 460.28125 L 460.96875 443.28125 z M 585 443.28125 L 743.75 443.28125 L 743.75 460.28125 L 585 460.28125 L 585 443.28125 z M 762.15625 443.28125 L 850.03125 443.28125 L 850.03125 460.28125 L 762.15625 460.28125 L 762.15625 443.28125 z M 460.96875 478.6875 L 548.84375 478.6875 L 548.84375 531.15625 L 443.28125 531.15625 L 443.28125 496.40625 L 460.96875 496.40625 L 460.96875 478.6875 z M 762.15625 478.6875 L 850.03125 478.6875 L 850.03125 495.71875 L 762.15625 495.71875 L 762.15625 478.6875 z M 372.40625 496.40625 L 424.84375 496.40625 L 424.84375 531.15625 L 372.40625 531.15625 L 372.40625 496.40625 z M 443.28125 549.5625 L 548.84375 549.5625 L 548.84375 566.5625 L 443.28125 566.5625 L 443.28125 549.5625 z M 585 549.5625 L 779.1875 549.5625 L 779.1875 637.4375 L 673.59375 637.4375 L 673.59375 620.4375 L 762.15625 620.4375 L 762.15625 566.5625 L 585 566.5625 L 585 549.5625 z M 372.40625 585 L 424.84375 585 L 424.84375 602 L 372.40625 602 L 372.40625 585 z M 585 585 L 743.75 585 L 743.75 602 L 585 602 L 585 585 z M 585 620.4375 L 602 620.4375 L 602 637.4375 L 585 637.4375 L 585 620.4375 z M 620.4375 620.4375 L 655.15625 620.4375 L 655.15625 637.4375 L 620.4375 637.4375 L 620.4375 620.4375 z M 407.84375 655.875 L 602 655.875 L 602 673.59375 L 673.59375 673.59375 L 673.59375 655.875 L 850.03125 655.875 L 850.03125 688.0625 L 407.84375 688.0625 L 407.84375 655.875 z "
     transform="matrix(0.28222222,0,0,0.28222222,0,-2.4607825e-6)"
     id="path3411" />
</svg>
