<?xml version="1.0" encoding="UTF-8" standalone="no"?>
<svg
   xmlns:dc="http://purl.org/dc/elements/1.1/"
   xmlns:cc="http://creativecommons.org/ns#"
   xmlns:rdf="http://www.w3.org/1999/02/22-rdf-syntax-ns#"
   xmlns:svg="http://www.w3.org/2000/svg"
   xmlns="http://www.w3.org/2000/svg"
   xmlns:sodipodi="http://sodipodi.sourceforge.net/DTD/sodipodi-0.dtd"
   xmlns:inkscape="http://www.inkscape.org/namespaces/inkscape"
   width="280mm"
   height="215mm"
   viewBox="0 0 280 215"
   id="svg3409"
   version="1.1"
   inkscape:version="0.48.1 r9760"
   sodipodi:docname="cutit2.svg">
  <metadata
     id="metadata3455">
    <rdf:RDF>
      <cc:Work
         rdf:about="">
        <dc:format>image/svg+xml</dc:format>
        <dc:type
           rdf:resource="http://purl.org/dc/dcmitype/StillImage" />
        <dc:title />
      </cc:Work>
    </rdf:RDF>
  </metadata>
  <defs
     id="defs3453" />
  <sodipodi:namedview
     pagecolor="#ffffff"
     bordercolor="#666666"
     borderopacity="1"
     objecttolerance="10"
     gridtolerance="10"
     guidetolerance="10"
     inkscape:pageopacity="0"
     inkscape:pageshadow="2"
     inkscape:window-width="1680"
     inkscape:window-height="1002"
     id="namedview3451"
     showgrid="false"
     inkscape:zoom="1"
     inkscape:cx="496.06299"
     inkscape:cy="380.90552"
     inkscape:window-x="0"
     inkscape:window-y="0"
     inkscape:window-maximized="1"
     inkscape:current-layer="svg3409" />
  <path
     style="fill:none;stroke:#000000;stroke-width:0.35433071999999999"
     d="m 79.904166,-0.09701635 0,19.99368035 -10.00125,0 0,20.0025 -20.0025,0 0,20.0025 -20.0025,0 0,20.0025 -10.001249,0 0,30.197776 50.006249,0 0,9.7984 -69.99992989,0 0,15.19591 69.99992989,0 0,5.00062 29.99493,0 0,15.00188 20.002504,0 0,4.79777 -20.002504,0 0,15.20473 59.998684,0 0,4.79777 -49.99743,0 0,19.48216 135.20208,0 0,-19.48216 -20.0025,0 0,-29.99493 -59.99868,0 0,-14.80784 44.80278,0 0,10.00125 35.1984,0 0,-10.00125 5.00062,0 0,-15.19591 -5.00062,0 0,-19.79965 5.00062,0 0,-30.197776 -85.0018,0 0,-4.806598 30.00375,0 0,-24.994305 54.99805,0 0,-40.19902735 -170.197634,0 z"
     id="path3400" />
  <path
     style="fill:none;stroke:#ff0000;stroke-width:0.35433071999999999"
     d="m 85.098819,5.0976364 159.799511,0 0,29.8009026 -114.80271,0 0,-15.001875 -44.996801,0 0,-14.7990276 z"
     id="path3398" />
  <path
     style="fill:none;stroke:#0000ff;stroke-width:0.35433071999999999"
     d="m 75.097569,25.100136 4.806597,0 0,14.799028 -4.806597,0 0,-14.799028 z"
     id="path3396" />
  <path
     style="fill:none;stroke:#0000ff;stroke-width:0.35433071999999999"
     d="m 85.098819,25.100136 39.802151,0 0,9.798403 -39.802151,0 0,-9.798403 z"
     id="path3394" />
  <path
     style="fill:none;stroke:#0000ff;stroke-width:0.35433071999999999"
     d="m 55.103888,45.102636 14.799028,0 0,14.799028 -14.799028,0 0,-14.799028 z"
     id="path3392" />
  <path
     style="fill:none;stroke:#0000ff;stroke-width:0.35433071999999999"
     d="m 75.097569,45.102636 49.803401,0 0,4.797778 -25.003124,0 0,10.00125 -24.800277,0 0,-14.799028 z"
     id="path3390" />
  <path
     style="fill:none;stroke:#0000ff;stroke-width:0.35433071999999999"
     d="m 130.09562,45.102636 59.80466,0 0,14.799028 -24.80028,0 0,-10.00125 -35.00438,0 0,-4.797778 z"
     id="path3388" />
  <path
     style="fill:none;stroke:#0000ff;stroke-width:0.35433071999999999"
     d="m 105.10132,55.103886 19.79965,0 0,4.797778 -19.79965,0 0,-4.797778 z"
     id="path3386" />
  <path
     style="fill:none;stroke:#0000ff;stroke-width:0.35433071999999999"
     d="m 130.09562,55.103886 29.80091,0 0,4.797778 -29.80091,0 0,-4.797778 z"
     id="path3384" />
  <path
     style="fill:none;stroke:#0000ff;stroke-width:0.35433071999999999"
     d="m 35.101389,65.096316 34.801527,0 0,9.807223 -34.801527,0 0,-9.807223 z"
     id="path3382" />
  <path
     style="fill:none;stroke:#0000ff;stroke-width:0.35433071999999999"
     d="m 75.097569,65.096316 24.800277,0 0,4.806598 -10.001249,0 0,5.000625 -14.799028,0 0,-9.807223 z"
     id="path3380" />
  <path
     style="fill:none;stroke:#0000ff;stroke-width:0.35433071999999999"
     d="m 105.10132,65.096316 19.79965,0 0,4.806598 -19.79965,0 0,-4.806598 z"
     id="path3378" />
  <path
     style="fill:none;stroke:#0000ff;stroke-width:0.35433071999999999"
     d="m 130.09562,65.096316 14.80785,0 0,9.807223 -14.80785,0 0,-9.807223 z"
     id="path3376" />
  <path
     style="fill:none;stroke:#0000ff;stroke-width:0.35433071999999999"
     d="m 150.09812,65.096316 9.79841,0 0,4.806598 -9.79841,0 0,-4.806598 z"
     id="path3374" />
  <path
     style="fill:none;stroke:#0000ff;stroke-width:0.35433071999999999"
     d="m 155.09875,75.097566 4.79778,0 0,4.806598 -4.79778,0 0,-4.806598 z"
     id="path3372" />
  <path
     style="fill:none;stroke:#0000ff;stroke-width:0.35433071999999999"
     d="m 165.1,75.097566 79.79833,0 0,19.799653 -19.79965,0 0,-14.993055 -59.99868,0 0,-4.806598 z"
     id="path3370" />
  <path
     style="fill:none;stroke:#0000ff;stroke-width:0.35433071999999999"
     d="m 25.100139,85.098816 44.802777,0 0,19.799654 -44.802777,0 0,-19.799654 z"
     id="path3368" />
  <path
     style="fill:none;stroke:#0000ff;stroke-width:0.35433071999999999"
     d="m 75.097569,85.098816 24.800277,0 0,19.799654 -24.800277,0 0,-19.799654 z"
     id="path3366" />
  <path
     style="fill:none;stroke:#0000ff;stroke-width:0.35433071999999999"
     d="m 105.10132,85.098816 19.79965,0 0,19.799654 -19.79965,0 0,-19.799654 z"
     id="path3364" />
  <path
     style="fill:none;stroke:#0000ff;stroke-width:0.35433071999999999"
     d="m 130.09562,85.098816 19.80848,0 0,15.001874 9.99243,0 0,4.79778 -29.80091,0 0,-19.799654 z"
     id="path3362" />
  <path
     style="fill:none;stroke:#0000ff;stroke-width:0.35433071999999999"
     d="m 155.09875,85.098816 4.79778,0 0,9.798403 -4.79778,0 0,-9.798403 z"
     id="path3360" />
  <path
     style="fill:none;stroke:#0000ff;stroke-width:0.35433071999999999"
     d="m 165.1,85.098816 54.80403,0 0,9.798403 -14.80785,0 0,-5.000625 -15.1959,0 0,5.000625 -24.80028,0 0,-9.798403 z"
     id="path3358" />
  <path
     style="fill:none;stroke:#0000ff;stroke-width:0.35433071999999999"
     d="m 165.1,100.10069 24.80028,0 0,4.79778 -24.80028,0 0,-4.79778 z"
     id="path3356" />
  <path
     style="fill:none;stroke:#0000ff;stroke-width:0.35433071999999999"
     d="m 195.10375,100.10069 4.79778,0 0,4.79778 -4.79778,0 0,-4.79778 z"
     id="path3354" />
  <path
     style="fill:none;stroke:#0000ff;stroke-width:0.35433071999999999"
     d="m 205.09618,100.10069 4.8066,0 0,4.79778 -4.8066,0 0,-4.79778 z"
     id="path3352" />
  <path
     style="fill:none;stroke:#0000ff;stroke-width:0.35433071999999999"
     d="m 225.09868,105.10132 14.79903,0 0,14.79902 -24.80028,0 0,-9.7984 10.00125,0 0,-5.00062 z"
     id="path3350" />
  <path
     style="fill:none;stroke:#0000ff;stroke-width:0.35433071999999999"
     d="m 75.097569,110.10194 24.800277,0 0,9.7984 -24.800277,0 0,-9.7984 z"
     id="path3348" />
  <path
     style="fill:none;stroke:#0000ff;stroke-width:0.35433071999999999"
     d="m 105.10132,110.10194 19.79965,0 0,9.7984 -19.79965,0 0,-9.7984 z"
     id="path3346" />
  <path
     style="fill:none;stroke:#0000ff;stroke-width:0.35433071999999999"
     d="m 130.09562,110.10194 29.80091,0 0,9.7984 -29.80091,0 0,-9.7984 z"
     id="path3344" />
  <path
     style="fill:none;stroke:#0000ff;stroke-width:0.35433071999999999"
     d="m 165.1,110.10194 24.80028,0 0,5.00063 15.1959,0 0,-5.00063 4.8066,0 0,9.7984 -44.80278,0 0,-9.7984 z"
     id="path3342" />
  <path
     style="fill:none;stroke:#0000ff;stroke-width:0.35433071999999999"
     d="m 5.0976388,125.10382 64.8052772,0 0,4.79777 -64.8052772,0 0,-4.79777 z"
     id="path3340" />
  <path
     style="fill:none;stroke:#0000ff;stroke-width:0.35433071999999999"
     d="m 75.097569,125.10382 24.800277,0 0,4.79777 -24.800277,0 0,-4.79777 z"
     id="path3338" />
  <path
     style="fill:none;stroke:#0000ff;stroke-width:0.35433071999999999"
     d="m 105.10132,125.10382 19.79965,0 0,4.79777 -19.79965,0 0,-4.79777 z"
     id="path3336" />
  <path
     style="fill:none;stroke:#0000ff;stroke-width:0.35433071999999999"
     d="m 130.09562,125.10382 29.80091,0 0,4.79777 -29.80091,0 0,-4.79777 z"
     id="path3334" />
  <path
     style="fill:none;stroke:#0000ff;stroke-width:0.35433071999999999"
     d="m 165.1,125.10382 44.80278,0 0,4.79777 -44.80278,0 0,-4.79777 z"
     id="path3332" />
  <path
     style="fill:none;stroke:#0000ff;stroke-width:0.35433071999999999"
     d="m 215.09743,125.10382 24.80028,0 0,4.79777 -24.80028,0 0,-4.79777 z"
     id="path3330" />
  <path
     style="fill:none;stroke:#0000ff;stroke-width:0.35433071999999999"
     d="m 130.09562,135.09625 24.80028,0 0,14.80784 -29.79208,0 0,-9.80722 4.9918,0 0,-5.00062 z"
     id="path3328" />
  <path
     style="fill:none;stroke:#0000ff;stroke-width:0.35433071999999999"
     d="m 215.09743,135.09625 24.80028,0 0,4.80659 -24.80028,0 0,-4.80659 z"
     id="path3326" />
  <path
     style="fill:none;stroke:#0000ff;stroke-width:0.35433071999999999"
     d="m 105.10132,140.09687 14.79903,0 0,9.80722 -14.79903,0 0,-9.80722 z"
     id="path3324" />
  <path
     style="fill:none;stroke:#0000ff;stroke-width:0.35433071999999999"
     d="m 125.10382,155.09875 29.79208,0 0,4.79777 -29.79208,0 0,-4.79777 z"
     id="path3322" />
  <path
     style="fill:none;stroke:#0000ff;stroke-width:0.35433071999999999"
     d="m 165.1,155.09875 54.80403,0 0,24.80027 -29.80091,0 0,-4.79777 24.99431,0 0,-15.20473 -49.99743,0 0,-4.79777 z"
     id="path3320" />
  <path
     style="fill:none;stroke:#0000ff;stroke-width:0.35433071999999999"
     d="m 105.10132,165.1 14.79903,0 0,4.79777 -14.79903,0 0,-4.79777 z"
     id="path3318" />
  <path
     style="fill:none;stroke:#0000ff;stroke-width:0.35433071999999999"
     d="m 165.1,165.1 44.80278,0 0,4.79777 -44.80278,0 0,-4.79777 z"
     id="path3316" />
  <path
     style="fill:none;stroke:#0000ff;stroke-width:0.35433071999999999"
     d="m 165.1,175.10125 4.79778,0 0,4.79777 -4.79778,0 0,-4.79777 z"
     id="path3314" />
  <path
     style="fill:none;stroke:#0000ff;stroke-width:0.35433071999999999"
     d="m 175.10125,175.10125 9.7984,0 0,4.79777 -9.7984,0 0,-4.79777 z"
     id="path3312" />
  <path
     style="fill:none;stroke:#0000ff;stroke-width:0.35433071999999999"
     d="m 115.10257,185.1025 54.79521,0 0,5.00062 20.20534,0 0,-5.00062 49.79459,0 0,9.08402 -124.79514,0 0,-9.08402 z"
     id="path3411" />
</svg>
