<?xml version="1.0" encoding="UTF-8" standalone="no"?>
<svg
   xmlns:dc="http://purl.org/dc/elements/1.1/"
   xmlns:cc="http://creativecommons.org/ns#"
   xmlns:rdf="http://www.w3.org/1999/02/22-rdf-syntax-ns#"
   xmlns:svg="http://www.w3.org/2000/svg"
   xmlns="http://www.w3.org/2000/svg"
   xmlns:sodipodi="http://sodipodi.sourceforge.net/DTD/sodipodi-0.dtd"
   xmlns:inkscape="http://www.inkscape.org/namespaces/inkscape"
   width="280mm"
   height="215mm"
   viewBox="0 0 280 215"
   id="svg3457"
   version="1.1"
   inkscape:version="0.48.1 r9760"
   sodipodi:docname="test9.svg">
  <metadata
     id="metadata3503">
    <rdf:RDF>
      <cc:Work
         rdf:about="">
        <dc:format>image/svg+xml</dc:format>
        <dc:type
           rdf:resource="http://purl.org/dc/dcmitype/StillImage" />
        <dc:title></dc:title>
      </cc:Work>
    </rdf:RDF>
  </metadata>
  <defs
     id="defs3501" />
  <sodipodi:namedview
     pagecolor="#ffffff"
     bordercolor="#666666"
     borderopacity="1"
     objecttolerance="10"
     gridtolerance="10"
     guidetolerance="10"
     inkscape:pageopacity="0"
     inkscape:pageshadow="2"
     inkscape:window-width="1680"
     inkscape:window-height="1002"
     id="namedview3499"
     showgrid="false"
     inkscape:zoom="1"
     inkscape:cx="496.06299"
     inkscape:cy="380.90552"
     inkscape:window-x="0"
     inkscape:window-y="0"
     inkscape:window-maximized="0"
     inkscape:current-layer="svg3457" />
  <path
     style="fill:#000000;stroke:#000000;stroke-width:0.35433071999999999"
     d="M 105.9375 -0.34375 L 105.9375 212.9375 L 176.8125 212.9375 L 176.8125 354.6875 L 301.53125 354.6875 L 301.53125 212.9375 L 353.96875 212.9375 L 353.96875 318.53125 L 318.53125 318.53125 L 318.53125 389.40625 L 105.9375 389.40625 L 105.9375 531.84375 L 283.125 531.84375 L 283.125 567.28125 L 389.40625 567.28125 L 389.40625 637.4375 L 105.9375 637.4375 L 105.9375 697.65625 L 549.5625 697.65625 L 549.5625 673.59375 L 691.3125 673.59375 L 691.3125 638.15625 L 743.75 638.15625 L 743.75 701.34375 L 797.59375 701.34375 L 797.59375 638.15625 L 814.59375 638.15625 L 814.59375 705.125 L 886.1875 705.125 L 886.1875 637.4375 L 868.46875 637.4375 L 868.46875 602.71875 L 903.90625 602.71875 L 903.90625 495.71875 L 868.46875 495.71875 L 868.46875 177.53125 L 885.46875 177.53125 L 885.46875 283.8125 L 939.34375 283.8125 L 939.34375 -0.34375 L 885.46875 -0.34375 L 885.46875 70.5 L 496.40625 70.5 L 496.40625 -0.34375 L 105.9375 -0.34375 z M 124.375 18.0625 L 478 18.0625 L 478 70.5 L 389.40625 70.5 L 389.40625 105.9375 L 353.96875 105.9375 L 353.96875 194.53125 L 301.53125 194.53125 L 301.53125 176.8125 L 176.8125 176.8125 L 176.8125 194.53125 L 124.375 194.53125 L 124.375 18.0625 z M 903.90625 18.0625 L 920.90625 18.0625 L 920.90625 265.40625 L 903.90625 265.40625 L 903.90625 18.0625 z M 407.84375 88.9375 L 478 88.9375 L 478 105.9375 L 407.84375 105.9375 L 407.84375 88.9375 z M 496.40625 88.9375 L 885.46875 88.9375 L 885.46875 159.09375 L 868.46875 159.09375 L 868.46875 141.375 L 709.03125 141.375 L 709.03125 105.9375 L 496.40625 105.9375 L 496.40625 88.9375 z M 372.40625 124.375 L 389.40625 124.375 L 389.40625 177.53125 L 478 177.53125 L 478 194.53125 L 372.40625 194.53125 L 372.40625 124.375 z M 407.84375 124.375 L 478 124.375 L 478 159.09375 L 407.84375 159.09375 L 407.84375 124.375 z M 496.40625 124.375 L 690.59375 124.375 L 690.59375 141.375 L 566.5625 141.375 L 566.5625 159.09375 L 496.40625 159.09375 L 496.40625 124.375 z M 496.40625 177.53125 L 566.5625 177.53125 L 566.5625 247.6875 L 531.15625 247.6875 L 531.15625 318.53125 L 372.40625 318.53125 L 372.40625 212.9375 L 496.40625 212.9375 L 496.40625 177.53125 z M 585 177.53125 L 637.4375 177.53125 L 637.4375 212.25 L 602 212.25 L 602 247.6875 L 585 247.6875 L 585 177.53125 z M 815.3125 177.53125 L 850.03125 177.53125 L 850.03125 495.71875 L 833.03125 495.71875 L 833.03125 212.25 L 815.3125 212.25 L 815.3125 177.53125 z M 655.875 195.25 L 690.59375 195.25 L 690.59375 212.25 L 655.875 212.25 L 655.875 195.25 z M 709.03125 195.25 L 796.875 195.25 L 796.875 212.25 L 709.03125 212.25 L 709.03125 195.25 z M 195.25 212.9375 L 283.125 212.9375 L 283.125 336.25 L 195.25 336.25 L 195.25 212.9375 z M 620.4375 230.65625 L 637.4375 230.65625 L 637.4375 247.6875 L 620.4375 247.6875 L 620.4375 230.65625 z M 655.875 230.65625 L 690.59375 230.65625 L 690.59375 283.125 L 655.875 283.125 L 655.875 230.65625 z M 709.03125 230.65625 L 796.875 230.65625 L 796.875 283.125 L 709.03125 283.125 L 709.03125 230.65625 z M 549.5625 266.09375 L 566.5625 266.09375 L 566.5625 318.53125 L 549.5625 318.53125 L 549.5625 266.09375 z M 585 266.09375 L 602 266.09375 L 602 318.53125 L 585 318.53125 L 585 266.09375 z M 620.4375 266.09375 L 637.4375 266.09375 L 637.4375 301.53125 L 637.4375 318.53125 L 620.4375 318.53125 L 620.4375 266.09375 z M 655.875 301.53125 L 690.59375 301.53125 L 690.59375 318.53125 L 655.875 318.53125 L 655.875 301.53125 z M 709.03125 301.53125 L 814.59375 301.53125 L 814.59375 318.53125 L 709.03125 318.53125 L 709.03125 301.53125 z M 336.96875 336.96875 L 531.15625 336.96875 L 531.15625 390.125 L 566.5625 390.125 L 566.5625 424.84375 L 407.84375 424.84375 L 407.84375 389.40625 L 336.96875 389.40625 L 336.96875 336.96875 z M 549.5625 336.96875 L 566.5625 336.96875 L 566.5625 371.6875 L 549.5625 371.6875 L 549.5625 336.96875 z M 585 336.96875 L 602 336.96875 L 602 371.6875 L 585 371.6875 L 585 336.96875 z M 620.4375 336.96875 L 637.4375 336.96875 L 637.4375 371.6875 L 620.4375 371.6875 L 620.4375 336.96875 z M 655.875 336.96875 L 796.875 336.96875 L 796.875 478 L 779.875 478 L 779.875 460.28125 L 620.4375 460.28125 L 620.4375 390.125 L 655.875 390.125 L 655.875 336.96875 z M 585 390.125 L 602 390.125 L 602 424.84375 L 585 424.84375 L 585 390.125 z M 124.375 407.84375 L 318.53125 407.84375 L 318.53125 424.84375 L 283.125 424.84375 L 283.125 513.4375 L 124.375 513.4375 L 124.375 407.84375 z M 336.96875 407.84375 L 389.40625 407.84375 L 389.40625 424.84375 L 336.96875 424.84375 L 336.96875 407.84375 z M 301.53125 443.28125 L 318.53125 443.28125 L 318.53125 496.40625 L 389.40625 496.40625 L 389.40625 513.4375 L 301.53125 513.4375 L 301.53125 443.28125 z M 336.96875 443.28125 L 389.40625 443.28125 L 389.40625 478 L 336.96875 478 L 336.96875 443.28125 z M 407.84375 443.28125 L 566.5625 443.28125 L 566.5625 460.28125 L 424.84375 460.28125 L 424.84375 478 L 407.84375 478 L 407.84375 443.28125 z M 407.84375 496.40625 L 424.84375 496.40625 L 424.84375 548.84375 L 301.53125 548.84375 L 301.53125 531.84375 L 407.84375 531.84375 L 407.84375 496.40625 z M 443.28125 496.40625 L 566.5625 496.40625 L 566.5625 548.84375 L 443.28125 548.84375 L 443.28125 496.40625 z M 620.4375 496.40625 L 761.46875 496.40625 L 761.46875 531.15625 L 620.4375 531.15625 L 620.4375 496.40625 z M 779.875 496.40625 L 814.59375 496.40625 L 814.59375 531.15625 L 779.875 531.15625 L 779.875 496.40625 z M 833.03125 514.125 L 850.03125 514.125 L 850.03125 584.28125 L 833.03125 584.28125 L 833.03125 514.125 z M 868.46875 514.125 L 885.46875 514.125 L 885.46875 584.28125 L 868.46875 584.28125 L 868.46875 514.125 z M 602.71875 549.5625 L 761.46875 549.5625 L 761.46875 602 L 673.59375 602 L 673.59375 566.5625 L 602.71875 566.5625 L 602.71875 549.5625 z M 779.875 549.5625 L 814.59375 549.5625 L 814.59375 602.71875 L 850.03125 602.71875 L 850.03125 619.71875 L 779.875 619.71875 L 779.875 549.5625 z M 407.84375 585 L 424.84375 585 L 424.84375 620.4375 L 495.71875 620.4375 L 495.71875 637.4375 L 407.84375 637.4375 L 407.84375 585 z M 443.28125 585 L 566.5625 585 L 566.5625 602 L 443.28125 602 L 443.28125 585 z M 585 585 L 655.15625 585 L 655.15625 602 L 585 602 L 585 585 z M 514.125 620.4375 L 566.5625 620.4375 L 566.5625 637.4375 L 549.5625 637.4375 L 514.125 637.4375 L 514.125 620.4375 z M 124.375 655.875 L 495.71875 655.875 L 495.71875 673.59375 L 531.15625 673.59375 L 531.15625 679.25 L 124.375 679.25 L 124.375 655.875 z M 762.15625 655.875 L 779.1875 655.875 L 779.1875 682.9375 L 762.15625 682.9375 L 762.15625 655.875 z M 833.03125 655.875 L 867.75 655.875 L 867.75 686.71875 L 833.03125 686.71875 L 833.03125 655.875 z "
     transform="matrix(0.28222222,0,0,0.28222222,0,-2.4607825e-6)"
     id="path3459" />
</svg>
