<?xml version="1.0" encoding="UTF-8" standalone="no"?>
<svg
   xmlns:dc="http://purl.org/dc/elements/1.1/"
   xmlns:cc="http://creativecommons.org/ns#"
   xmlns:rdf="http://www.w3.org/1999/02/22-rdf-syntax-ns#"
   xmlns:svg="http://www.w3.org/2000/svg"
   xmlns="http://www.w3.org/2000/svg"
   xmlns:sodipodi="http://sodipodi.sourceforge.net/DTD/sodipodi-0.dtd"
   xmlns:inkscape="http://www.inkscape.org/namespaces/inkscape"
   width="280mm"
   height="215mm"
   viewBox="0 0 280 215"
   id="svg3361"
   version="1.1"
   inkscape:version="0.48.1 r9760"
   sodipodi:docname="test7.svg">
  <metadata
     id="metadata3407">
    <rdf:RDF>
      <cc:Work
         rdf:about="">
        <dc:format>image/svg+xml</dc:format>
        <dc:type
           rdf:resource="http://purl.org/dc/dcmitype/StillImage" />
        <dc:title></dc:title>
      </cc:Work>
    </rdf:RDF>
  </metadata>
  <defs
     id="defs3405" />
  <sodipodi:namedview
     pagecolor="#ffffff"
     bordercolor="#666666"
     borderopacity="1"
     objecttolerance="10"
     gridtolerance="10"
     guidetolerance="10"
     inkscape:pageopacity="0"
     inkscape:pageshadow="2"
     inkscape:window-width="1680"
     inkscape:window-height="1002"
     id="namedview3403"
     showgrid="false"
     inkscape:zoom="1"
     inkscape:cx="496.06299"
     inkscape:cy="380.90552"
     inkscape:window-x="0"
     inkscape:window-y="0"
     inkscape:window-maximized="0"
     inkscape:current-layer="svg3361" />
  <path
     style="fill:#000000;stroke:#000000;stroke-width:0.35433071999999999"
     d="M 318.53125 -0.34375 L 318.53125 35.09375 L 212.25 35.09375 L 212.25 176.8125 L 105.9375 176.8125 L 105.9375 318.53125 L 35.09375 318.53125 L 35.09375 372.40625 L 283.125 372.40625 L 283.125 460.96875 L 708.3125 460.96875 L 708.3125 495.71875 L 389.40625 495.71875 L 389.40625 531.15625 L 353.96875 531.15625 L 353.96875 673.59375 L 424.84375 673.59375 L 424.84375 707.78125 L 762.15625 707.78125 L 762.15625 655.875 L 815.3125 655.875 L 815.3125 602 L 797.59375 602 L 797.59375 495.71875 L 779.875 495.71875 L 779.875 460.96875 L 850.03125 460.96875 L 850.03125 638.15625 L 903.90625 638.15625 L 903.90625 602.71875 L 939.34375 602.71875 L 939.34375 424.84375 L 903.90625 424.84375 L 903.90625 248.375 L 939.34375 248.375 L 939.34375 176.8125 L 885.46875 176.8125 L 885.46875 212.25 L 850.03125 212.25 L 850.03125 283.125 L 833.03125 283.125 L 833.03125 141.375 L 638.15625 141.375 L 638.15625 70.5 L 549.5625 70.5 L 549.5625 35.09375 L 496.40625 35.09375 L 496.40625 -0.34375 L 318.53125 -0.34375 z M 336.96875 18.0625 L 478 18.0625 L 478 35.09375 L 336.96875 35.09375 L 336.96875 18.0625 z M 230.65625 53.5 L 318.53125 53.5 L 318.53125 176.8125 L 230.65625 176.8125 L 230.65625 53.5 z M 336.96875 53.5 L 478 53.5 L 478 176.8125 L 336.96875 176.8125 L 336.96875 53.5 z M 496.40625 53.5 L 531.15625 53.5 L 531.15625 70.5 L 531.15625 176.8125 L 496.40625 176.8125 L 496.40625 53.5 z M 549.5625 88.9375 L 619.71875 88.9375 L 619.71875 141.375 L 602 141.375 L 602 283.125 L 549.5625 283.125 L 549.5625 88.9375 z M 638.15625 159.8125 L 814.59375 159.8125 L 814.59375 283.125 L 779.875 283.125 L 779.875 247.6875 L 708.3125 247.6875 L 708.3125 283.125 L 638.15625 283.125 L 638.15625 159.8125 z M 124.375 195.25 L 318.53125 195.25 L 318.53125 248.375 L 442.5625 248.375 L 442.5625 283.125 L 283.125 283.125 L 283.125 300.8125 L 124.375 300.8125 L 124.375 195.25 z M 336.96875 195.25 L 442.5625 195.25 L 442.5625 229.96875 L 336.96875 229.96875 L 336.96875 195.25 z M 460.96875 195.25 L 478 195.25 L 478 229.96875 L 460.96875 229.96875 L 460.96875 195.25 z M 496.40625 195.25 L 531.15625 195.25 L 531.15625 283.125 L 460.96875 283.125 L 460.96875 248.375 L 496.40625 248.375 L 496.40625 195.25 z M 903.90625 195.25 L 920.90625 195.25 L 920.90625 229.96875 L 903.90625 229.96875 L 903.90625 195.25 z M 868.46875 230.65625 L 885.46875 230.65625 L 885.46875 248.375 L 885.46875 283.125 L 868.46875 283.125 L 868.46875 230.65625 z M 726.71875 266.09375 L 761.46875 266.09375 L 761.46875 283.125 L 726.71875 283.125 L 726.71875 266.09375 z M 460.96875 301.53125 L 531.15625 301.53125 L 531.15625 318.53125 L 495.71875 318.53125 L 495.71875 372.40625 L 531.15625 372.40625 L 531.15625 425.5625 L 602 425.5625 L 602 442.5625 L 301.53125 442.5625 L 301.53125 372.40625 L 478.6875 372.40625 L 478.6875 318.53125 L 460.96875 318.53125 L 460.96875 301.53125 z M 549.5625 301.53125 L 602 301.53125 L 602 318.53125 L 549.5625 318.53125 L 549.5625 301.53125 z M 638.15625 301.53125 L 708.3125 301.53125 L 708.3125 318.53125 L 638.15625 318.53125 L 638.15625 301.53125 z M 726.71875 301.53125 L 761.46875 301.53125 L 761.46875 424.84375 L 726.71875 424.84375 L 726.71875 372.40625 L 744.4375 372.40625 L 744.4375 318.53125 L 726.71875 318.53125 L 726.71875 301.53125 z M 779.875 301.53125 L 814.59375 301.53125 L 814.59375 424.84375 L 779.875 424.84375 L 779.875 301.53125 z M 833.03125 301.53125 L 850.03125 301.53125 L 850.03125 442.5625 L 833.03125 442.5625 L 833.03125 301.53125 z M 53.5 336.96875 L 283.125 336.96875 L 283.125 353.96875 L 53.5 353.96875 L 53.5 336.96875 z M 301.53125 336.96875 L 460.28125 336.96875 L 460.28125 353.96875 L 301.53125 353.96875 L 301.53125 336.96875 z M 514.125 336.96875 L 531.15625 336.96875 L 531.15625 353.96875 L 514.125 353.96875 L 514.125 336.96875 z M 549.5625 336.96875 L 602 336.96875 L 602 353.96875 L 549.5625 353.96875 L 549.5625 336.96875 z M 638.15625 336.96875 L 708.3125 336.96875 L 708.3125 353.96875 L 638.15625 353.96875 L 638.15625 336.96875 z M 549.5625 372.40625 L 602 372.40625 L 602 407.125 L 549.5625 407.125 L 549.5625 372.40625 z M 638.15625 372.40625 L 708.3125 372.40625 L 708.3125 424.84375 L 638.15625 424.84375 L 638.15625 372.40625 z M 903.90625 443.28125 L 920.90625 443.28125 L 920.90625 584.28125 L 903.90625 584.28125 L 903.90625 443.28125 z M 726.71875 460.96875 L 761.46875 460.96875 L 761.46875 495.71875 L 726.71875 495.71875 L 726.71875 460.96875 z M 868.46875 460.96875 L 885.46875 460.96875 L 885.46875 602.71875 L 885.46875 619.71875 L 868.46875 619.71875 L 868.46875 460.96875 z M 407.84375 514.125 L 708.3125 514.125 L 708.3125 531.15625 L 460.28125 531.15625 L 460.28125 585 L 566.5625 585 L 566.5625 602 L 443.28125 602 L 443.28125 531.15625 L 407.84375 531.15625 L 407.84375 514.125 z M 726.71875 514.125 L 761.46875 514.125 L 761.46875 531.15625 L 726.71875 531.15625 L 726.71875 514.125 z M 372.40625 549.5625 L 389.40625 549.5625 L 389.40625 620.4375 L 424.84375 620.4375 L 424.84375 655.15625 L 372.40625 655.15625 L 372.40625 549.5625 z M 407.84375 549.5625 L 424.84375 549.5625 L 424.84375 602 L 407.84375 602 L 407.84375 549.5625 z M 478.6875 549.5625 L 690.59375 549.5625 L 690.59375 566.5625 L 478.6875 566.5625 L 478.6875 549.5625 z M 709.03125 549.5625 L 779.1875 549.5625 L 779.1875 602 L 673.59375 602 L 673.59375 585 L 709.03125 585 L 709.03125 549.5625 z M 585 585 L 655.15625 585 L 655.15625 602 L 585 602 L 585 585 z M 443.28125 620.4375 L 566.5625 620.4375 L 566.5625 637.4375 L 443.28125 637.4375 L 443.28125 620.4375 z M 585 620.4375 L 655.15625 620.4375 L 655.15625 637.4375 L 585 637.4375 L 585 620.4375 z M 673.59375 620.4375 L 743.75 620.4375 L 743.75 637.4375 L 673.59375 637.4375 L 673.59375 620.4375 z M 762.15625 620.4375 L 796.875 620.4375 L 796.875 637.4375 L 762.15625 637.4375 L 762.15625 620.4375 z M 443.28125 655.875 L 566.5625 655.875 L 566.5625 673.59375 L 673.59375 673.59375 L 673.59375 655.875 L 743.75 655.875 L 743.75 689.375 L 443.28125 689.375 L 443.28125 655.875 z "
     transform="matrix(0.28222222,0,0,0.28222222,0,-2.4607825e-6)"
     id="path3363" />
</svg>
