<?xml version="1.0" encoding="UTF-8" standalone="no"?>
<svg
   xmlns:dc="http://purl.org/dc/elements/1.1/"
   xmlns:cc="http://creativecommons.org/ns#"
   xmlns:rdf="http://www.w3.org/1999/02/22-rdf-syntax-ns#"
   xmlns:svg="http://www.w3.org/2000/svg"
   xmlns="http://www.w3.org/2000/svg"
   xmlns:sodipodi="http://sodipodi.sourceforge.net/DTD/sodipodi-0.dtd"
   xmlns:inkscape="http://www.inkscape.org/namespaces/inkscape"
   width="280mm"
   height="215mm"
   viewBox="0 0 280 215"
   id="svg3217"
   version="1.1"
   inkscape:version="0.48.1 r9760"
   sodipodi:docname="cutit3.svg">
  <metadata
     id="metadata3263">
    <rdf:RDF>
      <cc:Work
         rdf:about="">
        <dc:format>image/svg+xml</dc:format>
        <dc:type
           rdf:resource="http://purl.org/dc/dcmitype/StillImage" />
        <dc:title />
      </cc:Work>
    </rdf:RDF>
  </metadata>
  <defs
     id="defs3261" />
  <sodipodi:namedview
     pagecolor="#ffffff"
     bordercolor="#666666"
     borderopacity="1"
     objecttolerance="10"
     gridtolerance="10"
     guidetolerance="10"
     inkscape:pageopacity="0"
     inkscape:pageshadow="2"
     inkscape:window-width="1680"
     inkscape:window-height="1002"
     id="namedview3259"
     showgrid="false"
     inkscape:zoom="1"
     inkscape:cx="496.06299"
     inkscape:cy="380.90552"
     inkscape:window-x="0"
     inkscape:window-y="0"
     inkscape:window-maximized="1"
     inkscape:current-layer="svg3217" />
  <path
     style="fill:none;stroke:#000000;stroke-width:0.35433071999999999"
     d="m 189.90028,-0.09701635 0,39.99618035 -34.80153,0 0,-10.00125 -5.00063,0 0,-19.9936804 -120.200204,0 0,79.9923604 -10.001249,0 0,10.00125 -19.99368089,0 0,65.202156 10.00124989,0 0,20.0025 75.194583,0 0,-5.00063 49.997431,0 0,-5.00062 4.8066,0 0,5.00062 15.1959,0 0,-5.00062 24.80028,0 0,5.00062 20.0025,0 0,15.8309 20.19652,0 0,-5.82965 20.0025,0 0,-5.00062 10.00125,0 0,-15.20473 -10.00125,0 0,-9.7984 10.00125,0 0,-39.99618 15.00188,0 0,-90.205276 -10.00125,0 0,-19.9936804 -15.20472,0 0,45.1996524 10.00125,0 0,14.799028 -14.79903,0 0,-69.99993035 -45.19965,0 z"
     id="path3504" />
  <path
     style="fill:none;stroke:#ff0000;stroke-width:0.35433071999999999"
     d="m 195.10375,5.0976364 34.79271,0 0,64.8052776 0,24.994305 -14.79903,0 0,-5.000625 -14.99306,0 0,-49.99743 -5.00062,0 0,-34.8015276 z"
     id="path3502" />
  <path
     style="fill:none;stroke:#ff0000;stroke-width:0.35433071999999999"
     d="m 35.101389,15.098886 109.802081,0 0,14.799028 -105.004304,0 0,15.204722 59.99868,0 0,4.797778 -59.99868,0 0,39.99618 -4.797777,0 0,-74.797708 z"
     id="path3500" />
  <path
     style="fill:none;stroke:#0000ff;stroke-width:0.35433071999999999"
     d="m 245.10118,15.098886 4.79778,0 0,14.799028 0,20.0025 -4.79778,0 0,-34.801528 z"
     id="path3498" />
  <path
     style="fill:none;stroke:#0000ff;stroke-width:0.35433071999999999"
     d="m 45.102639,35.101386 99.800831,0 0,4.797778 -99.800831,0 0,-4.797778 z"
     id="path3496" />
  <path
     style="fill:none;stroke:#0000ff;stroke-width:0.35433071999999999"
     d="m 255.10243,35.101386 4.79778,0 0,79.798334 -4.79778,0 0,-59.795834 0,-20.0025 z"
     id="path3494" />
  <path
     style="fill:none;stroke:#0000ff;stroke-width:0.35433071999999999"
     d="m 105.10132,45.102636 39.80215,0 0,54.795208 -9.80722,0 0,-49.99743 -29.99493,0 0,-4.797778 z"
     id="path3492" />
  <path
     style="fill:none;stroke:#ff0000;stroke-width:0.35433071999999999"
     d="m 150.09812,45.102636 5.00063,0 34.80153,0 0,54.795208 -39.80216,0 0,-54.795208 z"
     id="path3490" />
  <path
     style="fill:none;stroke:#0000ff;stroke-width:0.35433071999999999"
     d="m 45.102639,55.103886 54.795207,0 0,14.799028 -29.99493,0 0,19.99368 -24.800277,0 0,-34.792708 z"
     id="path3488" />
  <path
     style="fill:none;stroke:#0000ff;stroke-width:0.35433071999999999"
     d="m 105.10132,55.103886 24.80028,0 0,44.793958 -24.80028,0 0,-4.797778 10.00125,0 0,-25.197152 -10.00125,0 0,-14.799028 z"
     id="path3486" />
  <path
     style="fill:none;stroke:#0000ff;stroke-width:0.35433071999999999"
     d="m 75.097569,75.097566 24.800277,0 0,14.799028 -19.799652,0 -5.000625,0 0,-14.799028 z"
     id="path3484" />
  <path
     style="fill:none;stroke:#0000ff;stroke-width:0.35433071999999999"
     d="m 105.10132,75.097566 4.79778,0 0,14.799028 -4.79778,0 0,-14.799028 z"
     id="path3482" />
  <path
     style="fill:none;stroke:#0000ff;stroke-width:0.35433071999999999"
     d="m 235.09993,75.097566 9.7984,0 0,79.798334 -4.79778,0 0,-34.99556 -5.00062,0 0,-44.802774 z"
     id="path3480" />
  <path
     style="fill:none;stroke:#0000ff;stroke-width:0.35433071999999999"
     d="m 25.100139,95.100066 4.797777,0 0,4.797778 -4.797777,0 0,-4.797778 z"
     id="path3478" />
  <path
     style="fill:none;stroke:#0000ff;stroke-width:0.35433071999999999"
     d="m 35.101389,95.100066 4.797777,0 0,4.797778 -4.797777,0 0,-4.797778 z"
     id="path3476" />
  <path
     style="fill:none;stroke:#0000ff;stroke-width:0.35433071999999999"
     d="m 45.102639,95.100066 29.800902,0 0,4.797778 -29.800902,0 0,-4.797778 z"
     id="path3474" />
  <path
     style="fill:none;stroke:#0000ff;stroke-width:0.35433071999999999"
     d="m 80.098194,95.100066 19.799652,0 0,4.797778 -19.799652,0 0,-4.797778 z"
     id="path3472" />
  <path
     style="fill:none;stroke:#0000ff;stroke-width:0.35433071999999999"
     d="m 215.09743,100.10069 14.79903,0 0,19.79965 -9.99243,0 0,10.00125 -4.8066,0 0,-29.8009 z"
     id="path3470" />
  <path
     style="fill:none;stroke:#0000ff;stroke-width:0.35433071999999999"
     d="m 5.0976388,105.10132 14.7990282,0 0,14.79902 -9.992431,0 0,39.99618 -4.8065972,0 0,-54.7952 z"
     id="path3468" />
  <path
     style="fill:none;stroke:#0000ff;stroke-width:0.35433071999999999"
     d="m 25.100139,105.10132 4.797777,0 0,14.79902 -4.797777,0 0,-14.79902 z"
     id="path3466" />
  <path
     style="fill:none;stroke:#0000ff;stroke-width:0.35433071999999999"
     d="m 35.101389,105.10132 4.797777,0 0,14.79902 -4.797777,0 0,-14.79902 z"
     id="path3464" />
  <path
     style="fill:none;stroke:#0000ff;stroke-width:0.35433071999999999"
     d="m 45.102639,105.10132 29.800902,0 0,14.79902 -29.800902,0 0,-14.79902 z"
     id="path3462" />
  <path
     style="fill:none;stroke:#0000ff;stroke-width:0.35433071999999999"
     d="m 80.098194,105.10132 19.799652,0 0,10.00125 30.003754,0 0,14.79902 -10.00125,0 0,20.0025 -34.801531,0 0,-30.00375 -5.000625,0 0,-14.79902 z"
     id="path3460" />
  <path
     style="fill:none;stroke:#0000ff;stroke-width:0.35433071999999999"
     d="m 105.10132,105.10132 24.80028,0 0,4.79777 -24.80028,0 0,-4.79777 z"
     id="path3458" />
  <path
     style="fill:none;stroke:#0000ff;stroke-width:0.35433071999999999"
     d="m 135.09625,105.10132 9.80722,0 0,4.79777 -9.80722,0 0,-4.79777 z"
     id="path3456" />
  <path
     style="fill:none;stroke:#0000ff;stroke-width:0.35433071999999999"
     d="m 150.09812,105.10132 44.80278,0 0,4.79777 -44.80278,0 0,-4.79777 z"
     id="path3454" />
  <path
     style="fill:none;stroke:#0000ff;stroke-width:0.35433071999999999"
     d="m 135.09625,115.10257 9.80722,0 0,34.80152 -4.8066,0 0,-20.0025 -5.00062,0 0,-14.79902 z"
     id="path3452" />
  <path
     style="fill:none;stroke:#0000ff;stroke-width:0.35433071999999999"
     d="m 150.09812,115.10257 49.80341,0 0,14.79902 -20.0025,0 0,20.0025 -29.80091,0 0,-34.80152 z"
     id="path3450" />
  <path
     style="fill:none;stroke:#0000ff;stroke-width:0.35433071999999999"
     d="m 15.098889,125.10382 4.797778,0 0,34.7927 -4.797778,0 0,-34.7927 z"
     id="path3448" />
  <path
     style="fill:none;stroke:#0000ff;stroke-width:0.35433071999999999"
     d="m 25.100139,125.10382 4.797777,0 0,29.99493 10.00125,0 0,4.79777 -14.799027,0 0,-34.7927 z"
     id="path3446" />
  <path
     style="fill:none;stroke:#0000ff;stroke-width:0.35433071999999999"
     d="m 35.101389,125.10382 4.797777,0 0,24.80027 -4.797777,0 0,-24.80027 z"
     id="path3444" />
  <path
     style="fill:none;stroke:#0000ff;stroke-width:0.35433071999999999"
     d="m 45.102639,125.10382 29.800902,0 0,24.80027 -29.800902,0 0,-24.80027 z"
     id="path3442" />
  <path
     style="fill:none;stroke:#0000ff;stroke-width:0.35433071999999999"
     d="m 225.09868,125.10382 4.79778,0 0,4.79777 -4.79778,0 0,-4.79777 z"
     id="path3440" />
  <path
     style="fill:none;stroke:#0000ff;stroke-width:0.35433071999999999"
     d="m 125.10382,135.09625 4.79778,0 0,9.80722 -4.79778,0 0,-9.80722 z"
     id="path3438" />
  <path
     style="fill:none;stroke:#0000ff;stroke-width:0.35433071999999999"
     d="m 185.1025,135.09625 19.79965,0 0,24.80027 -19.79965,0 0,-9.99243 0,-14.80784 z"
     id="path3436" />
  <path
     style="fill:none;stroke:#0000ff;stroke-width:0.35433071999999999"
     d="m 210.0968,135.09625 9.80723,0 0,39.80215 -34.80153,0 0,-9.7984 24.9943,0 0,-30.00375 z"
     id="path3434" />
  <path
     style="fill:none;stroke:#0000ff;stroke-width:0.35433071999999999"
     d="m 45.102639,155.09875 29.800902,0 0,4.79777 -29.800902,0 0,-4.79777 z"
     id="path3432" />
  <path
     style="fill:none;stroke:#0000ff;stroke-width:0.35433071999999999"
     d="m 85.098819,155.09875 14.799027,0 0,4.79777 -14.799027,0 0,-4.79777 z"
     id="path3430" />
  <path
     style="fill:none;stroke:#0000ff;stroke-width:0.35433071999999999"
     d="m 105.10132,155.09875 24.80028,0 0,4.79777 -24.80028,0 0,-4.79777 z"
     id="path3428" />
  <path
     style="fill:none;stroke:#0000ff;stroke-width:0.35433071999999999"
     d="m 135.09625,155.09875 44.80278,0 0,4.79777 -44.80278,0 0,-4.79777 z"
     id="path3426" />
  <path
     style="fill:none;stroke:#0000ff;stroke-width:0.35433071999999999"
     d="m 230.0993,160.09937 4.79778,0 0,9.7984 -4.79778,0 0,-9.7984 z"
     id="path3424" />
  <path
     style="fill:none;stroke:#0000ff;stroke-width:0.35433071999999999"
     d="m 15.098889,165.1 4.797778,0 0,10.00125 20.002499,0 0,4.79777 -24.800277,0 0,-14.79902 z"
     id="path3422" />
  <path
     style="fill:none;stroke:#0000ff;stroke-width:0.35433071999999999"
     d="m 25.100139,165.1 14.799027,0 0,4.79777 -14.799027,0 0,-4.79777 z"
     id="path3420" />
  <path
     style="fill:none;stroke:#0000ff;stroke-width:0.35433071999999999"
     d="m 45.102639,165.1 29.800902,0 0,4.79777 -29.800902,0 0,-4.79777 z"
     id="path3418" />
  <path
     style="fill:none;stroke:#0000ff;stroke-width:0.35433071999999999"
     d="m 85.098819,165.1 14.799027,0 0,9.7984 -14.799027,0 0,-9.7984 z"
     id="path3416" />
  <path
     style="fill:none;stroke:#0000ff;stroke-width:0.35433071999999999"
     d="m 105.10132,165.1 24.80028,0 0,4.79777 -24.80028,0 0,-4.79777 z"
     id="path3414" />
  <path
     style="fill:none;stroke:#0000ff;stroke-width:0.35433071999999999"
     d="m 135.09625,165.1 4.8066,0 0,4.79777 -4.8066,0 0,-4.79777 z"
     id="path3412" />
  <path
     style="fill:none;stroke:#0000ff;stroke-width:0.35433071999999999"
     d="m 145.0975,165.1 4.8066,0 0,4.79777 -4.8066,0 0,-4.79777 z"
     id="path3410" />
  <path
     style="fill:none;stroke:#0000ff;stroke-width:0.35433071999999999"
     d="m 155.09875,165.1 24.80028,0 0,4.79777 -24.80028,0 0,-4.79777 z"
     id="path3408" />
  <path
     style="fill:none;stroke:#0000ff;stroke-width:0.35433071999999999"
     d="m 240.10055,175.10125 4.79778,0 0,4.79777 -4.79778,0 0,-4.79777 z"
     id="path3406" />
  <path
     style="fill:none;stroke:#0000ff;stroke-width:0.35433071999999999"
     d="m 225.09868,180.10187 4.79778,0 0,4.79778 -4.79778,0 0,-4.79778 z"
     id="path3404" />
  <path
     style="fill:none;stroke:#0000ff;stroke-width:0.35433071999999999"
     d="m 205.09618,185.1025 9.80722,0 0,5.6268 -9.80722,0 0,-5.6268 z"
     id="path3219" />
</svg>
