<?xml version="1.0" encoding="UTF-8" standalone="no"?>
<svg
   xmlns:dc="http://purl.org/dc/elements/1.1/"
   xmlns:cc="http://creativecommons.org/ns#"
   xmlns:rdf="http://www.w3.org/1999/02/22-rdf-syntax-ns#"
   xmlns:svg="http://www.w3.org/2000/svg"
   xmlns="http://www.w3.org/2000/svg"
   xmlns:sodipodi="http://sodipodi.sourceforge.net/DTD/sodipodi-0.dtd"
   xmlns:inkscape="http://www.inkscape.org/namespaces/inkscape"
   width="280mm"
   height="215mm"
   viewBox="0 0 280 215"
   id="svg3121"
   version="1.1"
   inkscape:version="0.48.1 r9760"
   sodipodi:docname="cutit5.svg">
  <metadata
     id="metadata3167">
    <rdf:RDF>
      <cc:Work
         rdf:about="">
        <dc:format>image/svg+xml</dc:format>
        <dc:type
           rdf:resource="http://purl.org/dc/dcmitype/StillImage" />
        <dc:title />
      </cc:Work>
    </rdf:RDF>
  </metadata>
  <defs
     id="defs3165" />
  <sodipodi:namedview
     pagecolor="#ffffff"
     bordercolor="#666666"
     borderopacity="1"
     objecttolerance="10"
     gridtolerance="10"
     guidetolerance="10"
     inkscape:pageopacity="0"
     inkscape:pageshadow="2"
     inkscape:window-width="1680"
     inkscape:window-height="1002"
     id="namedview3163"
     showgrid="false"
     inkscape:zoom="1"
     inkscape:cx="496.06299"
     inkscape:cy="380.90552"
     inkscape:window-x="0"
     inkscape:window-y="0"
     inkscape:window-maximized="1"
     inkscape:current-layer="svg3121" />
  <path
     style="fill:none;stroke:#000000;stroke-width:0.35433071999999999"
     d="m 89.896597,-0.09701635 0,10.00124995 -39.996181,0 0,30.1977774 20.0025,0 0,19.799653 -10.00125,0 0,29.99493 -20.0025,0 0,50.006246 -19.799652,0 0,-59.998676 -20.19652789,0 0,60.192706 10.00124989,0 0,25.00313 29.99493,0 0,4.79777 -10.00125,0 0,10.00125 -19.99368,0 0,16.8716 100.197704,0 0,-11.66812 49.99743,0 0,-5.00063 9.79841,0 0,15.9191 35.1984,0 0,-15.9191 4.8066,0 0,10.00125 29.99493,0 0,8.72243 15.20472,0 0,-18.92653 -5.00063,0 0,-39.80215 5.00063,0 0,-20.19653 -5.00063,0 0,-24.800274 5.00063,0 0,-15.195902 -5.00063,0 0,-50.00625 -40.19902,0 0,10.00125 -9.79841,0 0,-39.99618035 -110.207773,0 z"
     id="path3132" />
  <path
     style="fill:none;stroke:#0000ff;stroke-width:0.35433071999999999"
     d="m 95.100069,5.0976364 99.800831,0 0,34.8015276 -19.79965,0 0,-29.9949304 -80.001181,0 0,-4.8065972 z"
     id="path3130" />
  <path
     style="fill:none;stroke:#0000ff;stroke-width:0.35433071999999999"
     d="m 55.103888,15.098886 34.792709,0 0,4.797778 -9.992431,0 0,15.001875 -24.800278,0 0,-19.799653 z"
     id="path3128" />
  <path
     style="fill:none;stroke:#0000ff;stroke-width:0.35433071999999999"
     d="m 95.100069,15.098886 74.797711,0 0,19.799653 -59.79584,0 0,-15.001875 -15.001871,0 0,-4.797778 z"
     id="path3126" />
  <path
     style="fill:none;stroke:#0000ff;stroke-width:0.35433071999999999"
     d="m 85.098819,25.100136 4.797778,0 0,9.798403 -4.797778,0 0,-9.798403 z"
     id="path3124" />
  <path
     style="fill:none;stroke:#0000ff;stroke-width:0.35433071999999999"
     d="m 95.100069,25.100136 9.798401,0 0,9.798403 -9.798401,0 0,-9.798403 z"
     id="path3122" />
  <path
     style="fill:none;stroke:#0000ff;stroke-width:0.35433071999999999"
     d="m 215.09743,35.101386 29.8009,0 0,44.802778 -14.79903,0 0,-14.807848 10.00125,0 0,-15.195902 -10.00125,0 0,-10.00125 -15.00187,0 0,-4.797778 z"
     id="path3120" />
  <path
     style="fill:none;stroke:#0000ff;stroke-width:0.35433071999999999"
     d="m 75.097569,45.102636 4.806597,0 0,14.799028 -4.806597,0 0,-14.799028 z"
     id="path3118" />
  <path
     style="fill:none;stroke:#0000ff;stroke-width:0.35433071999999999"
     d="m 85.098819,45.102636 4.797778,0 0,14.799028 -4.797778,0 0,-14.799028 z"
     id="path3116" />
  <path
     style="fill:none;stroke:#0000ff;stroke-width:0.35433071999999999"
     d="m 95.100069,45.102636 9.798401,0 0,14.799028 -9.798401,0 0,-14.799028 z"
     id="path3114" />
  <path
     style="fill:none;stroke:#0000ff;stroke-width:0.35433071999999999"
     d="m 110.10194,45.102636 84.79896,0 0,14.799028 -84.79896,0 0,-14.799028 z"
     id="path3112" />
  <path
     style="fill:none;stroke:#0000ff;stroke-width:0.35433071999999999"
     d="m 200.10437,45.102636 9.79841,0 0,4.797778 -9.79841,0 0,-4.797778 z"
     id="path3110" />
  <path
     style="fill:none;stroke:#0000ff;stroke-width:0.35433071999999999"
     d="m 215.09743,45.102636 9.7984,0 0,4.797778 -9.7984,0 0,-4.797778 z"
     id="path3108" />
  <path
     style="fill:none;stroke:#0000ff;stroke-width:0.35433071999999999"
     d="m 205.09618,55.103886 4.8066,0 0,4.797778 -4.8066,0 0,-4.797778 z"
     id="path3106" />
  <path
     style="fill:none;stroke:#0000ff;stroke-width:0.35433071999999999"
     d="m 215.09743,55.103886 9.7984,0 0,4.797778 -9.7984,0 0,-4.797778 z"
     id="path3104" />
  <path
     style="fill:none;stroke:#0000ff;stroke-width:0.35433071999999999"
     d="m 230.0993,55.103886 4.79778,0 0,4.797778 -4.79778,0 0,-4.797778 z"
     id="path3102" />
  <path
     style="fill:none;stroke:#0000ff;stroke-width:0.35433071999999999"
     d="m 65.096319,65.096316 4.806597,0 0,24.800278 -4.806597,0 0,-24.800278 z"
     id="path3100" />
  <path
     style="fill:none;stroke:#0000ff;stroke-width:0.35433071999999999"
     d="m 75.097569,65.096316 4.806597,0 0,20.0025 9.992431,0 0,4.797778 -14.799028,0 0,-24.800278 z"
     id="path3098" />
  <path
     style="fill:none;stroke:#0000ff;stroke-width:0.35433071999999999"
     d="m 85.098819,65.096316 4.797778,0 0,14.807848 -4.797778,0 0,-14.807848 z"
     id="path3096" />
  <path
     style="fill:none;stroke:#0000ff;stroke-width:0.35433071999999999"
     d="m 95.100069,65.096316 9.798401,0 0,14.807848 -9.798401,0 0,-14.807848 z"
     id="path3094" />
  <path
     style="fill:none;stroke:#ff0000;stroke-width:0.35433071999999999"
     d="m 110.10194,65.096316 84.79896,0 0,4.806598 -15.00187,0 0,29.99493 -79.79834,0 0,-10.00125 -5.000621,0 0,-4.797778 15.001871,0 0,-20.0025 z"
     id="path3092" />
  <path
     style="fill:none;stroke:#0000ff;stroke-width:0.35433071999999999"
     d="m 200.10437,65.096316 4.79778,0 0,14.807848 -4.79778,0 0,-14.807848 z"
     id="path3090" />
  <path
     style="fill:none;stroke:#0000ff;stroke-width:0.35433071999999999"
     d="m 215.09743,65.096316 9.7984,0 0,14.807848 -9.7984,0 0,-14.807848 z"
     id="path3088" />
  <path
     style="fill:none;stroke:#0000ff;stroke-width:0.35433071999999999"
     d="m 185.1025,75.097566 4.79778,0 0,4.806598 0,15.195902 0,4.797778 -4.79778,0 0,-24.800278 z"
     id="path3086" />
  <path
     style="fill:none;stroke:#0000ff;stroke-width:0.35433071999999999"
     d="m 5.0976388,85.098816 9.7984032,0 0,49.803404 -9.7984032,0 0,-49.803404 z"
     id="path3084" />
  <path
     style="fill:none;stroke:#0000ff;stroke-width:0.35433071999999999"
     d="m 200.10437,85.098816 4.79778,0 0,4.797778 -4.79778,0 0,-4.797778 z"
     id="path3082" />
  <path
     style="fill:none;stroke:#0000ff;stroke-width:0.35433071999999999"
     d="m 215.09743,85.098816 9.7984,0 0,4.797778 -9.7984,0 0,-4.797778 z"
     id="path3080" />
  <path
     style="fill:none;stroke:#0000ff;stroke-width:0.35433071999999999"
     d="m 230.0993,85.098816 14.79903,0 0,4.797778 -14.79903,0 0,-4.797778 z"
     id="path3078" />
  <path
     style="fill:none;stroke:#0000ff;stroke-width:0.35433071999999999"
     d="m 45.102639,95.100066 14.799027,0 0,44.802774 -14.799027,0 0,-44.802774 z"
     id="path3076" />
  <path
     style="fill:none;stroke:#0000ff;stroke-width:0.35433071999999999"
     d="m 65.096319,95.100066 4.806597,0 0,44.802774 -4.806597,0 0,-44.802774 z"
     id="path3074" />
  <path
     style="fill:none;stroke:#0000ff;stroke-width:0.35433071999999999"
     d="m 75.097569,95.100066 14.799028,0 0,4.797778 -9.992431,0 0,25.205976 9.992431,0 0,14.79902 -14.799028,0 0,-44.802774 z"
     id="path3072" />
  <path
     style="fill:none;stroke:#0000ff;stroke-width:0.35433071999999999"
     d="m 200.10437,95.100066 4.79778,0 0,4.797778 -4.79778,0 0,-4.797778 z"
     id="path3070" />
  <path
     style="fill:none;stroke:#0000ff;stroke-width:0.35433071999999999"
     d="m 215.09743,95.100066 9.7984,0 0,4.797778 -9.7984,0 0,-4.797778 z"
     id="path3068" />
  <path
     style="fill:none;stroke:#0000ff;stroke-width:0.35433071999999999"
     d="m 230.0993,95.100066 14.79903,0 0,24.800274 -4.79778,0 0,-20.002496 -10.00125,0 0,-4.797778 z"
     id="path3066" />
  <path
     style="fill:none;stroke:#0000ff;stroke-width:0.35433071999999999"
     d="m 85.098819,105.10132 4.797778,0 0,14.79902 -4.797778,0 0,-14.79902 z"
     id="path3064" />
  <path
     style="fill:none;stroke:#0000ff;stroke-width:0.35433071999999999"
     d="m 100.10069,105.10132 79.79834,0 0,14.79902 -79.79834,0 0,-14.79902 z"
     id="path3062" />
  <path
     style="fill:none;stroke:#0000ff;stroke-width:0.35433071999999999"
     d="m 185.1025,105.10132 4.79778,0 0,14.79902 -4.79778,0 0,-14.79902 z"
     id="path3060" />
  <path
     style="fill:none;stroke:#0000ff;stroke-width:0.35433071999999999"
     d="m 200.10437,105.10132 4.79778,0 0,14.79902 -4.79778,0 0,-14.79902 z"
     id="path3058" />
  <path
     style="fill:none;stroke:#0000ff;stroke-width:0.35433071999999999"
     d="m 215.09743,105.10132 9.7984,0 0,14.79902 -9.7984,0 0,-14.79902 z"
     id="path3056" />
  <path
     style="fill:none;stroke:#0000ff;stroke-width:0.35433071999999999"
     d="m 230.0993,105.10132 4.79778,0 0,14.79902 -4.79778,0 0,-14.79902 z"
     id="path3054" />
  <path
     style="fill:none;stroke:#0000ff;stroke-width:0.35433071999999999"
     d="m 100.10069,125.10382 79.79834,0 0,4.79777 -59.99868,0 0,10.00125 -19.79966,0 0,-14.79902 z"
     id="path3052" />
  <path
     style="fill:none;stroke:#0000ff;stroke-width:0.35433071999999999"
     d="m 185.1025,125.10382 4.79778,0 0,4.79777 -4.79778,0 0,-4.79777 z"
     id="path3050" />
  <path
     style="fill:none;stroke:#0000ff;stroke-width:0.35433071999999999"
     d="m 200.10437,125.10382 4.79778,0 0,4.79777 -4.79778,0 0,-4.79777 z"
     id="path3048" />
  <path
     style="fill:none;stroke:#0000ff;stroke-width:0.35433071999999999"
     d="m 215.09743,125.10382 9.7984,0 0,9.7984 -9.7984,0 0,-5.00063 0,-4.79777 z"
     id="path3046" />
  <path
     style="fill:none;stroke:#0000ff;stroke-width:0.35433071999999999"
     d="m 230.0993,125.10382 14.79903,0 0,9.7984 -14.79903,0 0,-9.7984 z"
     id="path3044" />
  <path
     style="fill:none;stroke:#0000ff;stroke-width:0.35433071999999999"
     d="m 125.10382,135.09625 54.79521,0 0,9.80722 -49.80341,0 0,-5.00063 -4.9918,0 0,-4.80659 z"
     id="path3042" />
  <path
     style="fill:none;stroke:#0000ff;stroke-width:0.35433071999999999"
     d="m 185.1025,135.09625 4.79778,0 0,4.80659 -4.79778,0 0,-4.80659 z"
     id="path3040" />
  <path
     style="fill:none;stroke:#0000ff;stroke-width:0.35433071999999999"
     d="m 200.10437,140.09687 4.79778,0 0,4.8066 -4.79778,0 0,-4.8066 z"
     id="path3038" />
  <path
     style="fill:none;stroke:#0000ff;stroke-width:0.35433071999999999"
     d="m 215.09743,140.09687 9.7984,0 0,34.80153 -9.7984,0 0,-24.80028 0,-10.00125 z"
     id="path3036" />
  <path
     style="fill:none;stroke:#0000ff;stroke-width:0.35433071999999999"
     d="m 230.0993,140.09687 14.79903,0 0,39.80215 -5.00062,0 0,5.00063 -24.80028,0 0,-4.79778 15.00187,0 0,-40.005 z"
     id="path3034" />
  <path
     style="fill:none;stroke:#0000ff;stroke-width:0.35433071999999999"
     d="m 15.098889,145.0975 24.800277,0 0,14.79902 -24.800277,0 0,-14.79902 z"
     id="path3032" />
  <path
     style="fill:none;stroke:#0000ff;stroke-width:0.35433071999999999"
     d="m 45.102639,145.0975 14.799027,0 0,10.00125 10.00125,0 0,4.79777 -24.800277,0 0,-14.79902 z"
     id="path3030" />
  <path
     style="fill:none;stroke:#0000ff;stroke-width:0.35433071999999999"
     d="m 65.096319,145.0975 4.806597,0 0,4.80659 -4.806597,0 0,-4.80659 z"
     id="path3028" />
  <path
     style="fill:none;stroke:#0000ff;stroke-width:0.35433071999999999"
     d="m 75.097569,145.0975 14.799028,0 0,4.80659 -14.799028,0 0,-4.80659 z"
     id="path3026" />
  <path
     style="fill:none;stroke:#0000ff;stroke-width:0.35433071999999999"
     d="m 100.10069,145.0975 19.79966,0 0,4.80659 -19.79966,0 0,-4.80659 z"
     id="path3024" />
  <path
     style="fill:none;stroke:#0000ff;stroke-width:0.35433071999999999"
     d="m 75.097569,155.09875 14.799028,0 0,4.79777 -14.799028,0 0,-4.79777 z"
     id="path3022" />
  <path
     style="fill:none;stroke:#0000ff;stroke-width:0.35433071999999999"
     d="m 100.10069,155.09875 24.80028,0 0,4.79777 -24.80028,0 0,-4.79777 z"
     id="path3020" />
  <path
     style="fill:none;stroke:#0000ff;stroke-width:0.35433071999999999"
     d="m 130.09562,155.09875 64.80528,0 0,14.79902 -34.80153,0 0,-10.00125 -30.00375,0 0,-4.79777 z"
     id="path3018" />
  <path
     style="fill:none;stroke:#0000ff;stroke-width:0.35433071999999999"
     d="m 200.10437,155.09875 9.79841,0 0,19.79965 -9.79841,0 0,-19.79965 z"
     id="path3016" />
  <path
     style="fill:none;stroke:#0000ff;stroke-width:0.35433071999999999"
     d="m 100.10069,165.1 54.79521,0 0,4.79777 -54.79521,0 0,-4.79777 z"
     id="path3014" />
  <path
     style="fill:none;stroke:#0000ff;stroke-width:0.35433071999999999"
     d="m 75.097569,170.10062 14.799028,0 0,4.79778 -14.799028,0 0,-4.79778 z"
     id="path3012" />
  <path
     style="fill:none;stroke:#0000ff;stroke-width:0.35433071999999999"
     d="m 35.101389,175.10125 24.800277,0 0,4.79777 -24.800277,0 0,-4.79777 z"
     id="path3010" />
  <path
     style="fill:none;stroke:#0000ff;stroke-width:0.35433071999999999"
     d="m 65.096319,175.10125 4.806597,0 0,4.79777 -4.806597,0 0,-4.79777 z"
     id="path3008" />
  <path
     style="fill:none;stroke:#0000ff;stroke-width:0.35433071999999999"
     d="m 15.098889,185.1025 14.799027,0 0,5.00062 45.199653,0 0,-5.00062 29.800901,0 0,6.46465 -89.799581,0 0,-6.46465 z"
     id="path3006" />
  <path
     style="fill:none;stroke:#0000ff;stroke-width:0.35433071999999999"
     d="m 175.10125,185.1025 24.80028,0 0,5.72382 -24.80028,0 0,-5.72382 z"
     id="path3004" />
  <path
     style="fill:none;stroke:#0000ff;stroke-width:0.35433071999999999"
     d="m 245.10118,190.10312 4.79778,0 0,3.51896 -4.79778,0 0,-3.51896 z"
     id="path3123" />
</svg>
