<?xml version="1.0" encoding="UTF-8" standalone="no"?>
<svg
   xmlns:dc="http://purl.org/dc/elements/1.1/"
   xmlns:cc="http://creativecommons.org/ns#"
   xmlns:rdf="http://www.w3.org/1999/02/22-rdf-syntax-ns#"
   xmlns:svg="http://www.w3.org/2000/svg"
   xmlns="http://www.w3.org/2000/svg"
   xmlns:sodipodi="http://sodipodi.sourceforge.net/DTD/sodipodi-0.dtd"
   xmlns:inkscape="http://www.inkscape.org/namespaces/inkscape"
   width="280mm"
   height="215mm"
   viewBox="0 0 280 215"
   id="svg3361"
   version="1.1"
   inkscape:version="0.48.1 r9760"
   sodipodi:docname="cutit1.svg">
  <metadata
     id="metadata3407">
    <rdf:RDF>
      <cc:Work
         rdf:about="">
        <dc:format>image/svg+xml</dc:format>
        <dc:type
           rdf:resource="http://purl.org/dc/dcmitype/StillImage" />
        <dc:title />
      </cc:Work>
    </rdf:RDF>
  </metadata>
  <defs
     id="defs3405" />
  <sodipodi:namedview
     pagecolor="#ffffff"
     bordercolor="#666666"
     borderopacity="1"
     objecttolerance="10"
     gridtolerance="10"
     guidetolerance="10"
     inkscape:pageopacity="0"
     inkscape:pageshadow="2"
     inkscape:window-width="1680"
     inkscape:window-height="1002"
     id="namedview3403"
     showgrid="false"
     inkscape:zoom="1"
     inkscape:cx="496.06299"
     inkscape:cy="380.90552"
     inkscape:window-x="0"
     inkscape:window-y="0"
     inkscape:window-maximized="1"
     inkscape:current-layer="svg3361" />
  <path
     style="fill:none;stroke:#000000;stroke-width:0.35433071999999999"
     d="m 89.896597,-0.09701635 0,10.00124995 -29.994931,0 0,39.9961804 -30.00375,0 0,39.99618 -19.99368,0 0,15.204726 69.99993,0 0,24.9943 119.997364,0 0,9.80722 -90.00243,0 0,10.00125 -10.001254,0 0,40.19903 20.002504,0 0,9.64847 95.19708,0 0,-14.64909 15.00187,0 0,-15.20473 -5.00062,0 0,-29.99493 -5.00063,0 0,-9.80722 19.79966,0 0,50.00625 15.20472,0 0,-10.00125 10.00125,0 0,-50.20028 -10.00125,0 0,-49.803399 10.00125,0 0,-20.196527 -15.20472,0 0,10.00125 -10.00125,0 0,20.0025 -4.79778,0 0,-40.005 -54.99806,0 0,-20.0025 -25.00312,0 0,-9.9924304 -15.00188,0 0,-10.00124995 -50.200273,0 z"
     id="path3216" />
  <path
     style="fill:none;stroke:#0000ff;stroke-width:0.35433071999999999"
     d="m 95.100069,5.0976364 39.802151,0 0,4.8065972 -39.802151,0 0,-4.8065972 z"
     id="path3214" />
  <path
     style="fill:none;stroke:#0000ff;stroke-width:0.35433071999999999"
     d="m 65.096319,15.098886 24.800278,0 0,34.801528 -24.800278,0 0,-34.801528 z"
     id="path3212" />
  <path
     style="fill:none;stroke:#0000ff;stroke-width:0.35433071999999999"
     d="m 95.100069,15.098886 39.802151,0 0,34.801528 -39.802151,0 0,-34.801528 z"
     id="path3210" />
  <path
     style="fill:none;stroke:#0000ff;stroke-width:0.35433071999999999"
     d="m 140.09687,15.098886 9.80723,0 0,4.797778 0,30.00375 -9.80723,0 0,-34.801528 z"
     id="path3208" />
  <path
     style="fill:none;stroke:#0000ff;stroke-width:0.35433071999999999"
     d="m 155.09875,25.100136 19.79965,0 0,14.799028 -5.00062,0 0,40.005 -14.79903,0 0,-54.804028 z"
     id="path3206" />
  <path
     style="fill:none;stroke:#0000ff;stroke-width:0.35433071999999999"
     d="m 180.10187,45.102636 49.79459,0 0,34.801528 -9.79841,0 0,-10.00125 -20.19652,0 0,10.00125 -19.79966,0 0,-34.801528 z"
     id="path3204" />
  <path
     style="fill:none;stroke:#0000ff;stroke-width:0.35433071999999999"
     d="m 35.101389,55.103886 54.795208,0 0,14.993055 35.004373,0 0,9.807223 -44.996804,0 0,4.991805 -44.802777,0 0,-29.792083 z"
     id="path3202" />
  <path
     style="fill:none;stroke:#0000ff;stroke-width:0.35433071999999999"
     d="m 95.100069,55.103886 29.800901,0 0,9.798403 -29.800901,0 0,-9.798403 z"
     id="path3200" />
  <path
     style="fill:none;stroke:#0000ff;stroke-width:0.35433071999999999"
     d="m 130.09562,55.103886 4.8066,0 0,9.798403 -4.8066,0 0,-9.798403 z"
     id="path3198" />
  <path
     style="fill:none;stroke:#0000ff;stroke-width:0.35433071999999999"
     d="m 140.09687,55.103886 9.80723,0 0,24.800278 -19.80848,0 0,-9.807223 10.00125,0 0,-14.993055 z"
     id="path3196" />
  <path
     style="fill:none;stroke:#0000ff;stroke-width:0.35433071999999999"
     d="m 255.10243,55.103886 4.79778,0 0,9.798403 -4.79778,0 0,-9.798403 z"
     id="path3194" />
  <path
     style="fill:none;stroke:#0000ff;stroke-width:0.35433071999999999"
     d="m 245.10118,65.096316 4.79778,0 0,5.000625 0,9.807223 -4.79778,0 0,-14.807848 z"
     id="path3192" />
  <path
     style="fill:none;stroke:#0000ff;stroke-width:0.35433071999999999"
     d="m 205.09618,75.097566 9.80722,0 0,4.806598 -9.80722,0 0,-4.806598 z"
     id="path3190" />
  <path
     style="fill:none;stroke:#0000ff;stroke-width:0.35433071999999999"
     d="m 130.09562,85.098816 19.80848,0 0,4.797778 -10.00125,0 0,15.204726 10.00125,0 0,15.00187 19.99368,0 0,4.79778 -84.798961,0 0,-19.79965 49.997431,0 0,-15.204726 -5.00063,0 0,-4.797778 z"
     id="path3188" />
  <path
     style="fill:none;stroke:#0000ff;stroke-width:0.35433071999999999"
     d="m 155.09875,85.098816 14.79903,0 0,4.797778 -14.79903,0 0,-4.797778 z"
     id="path3186" />
  <path
     style="fill:none;stroke:#0000ff;stroke-width:0.35433071999999999"
     d="m 180.10187,85.098816 19.79966,0 0,4.797778 -19.79966,0 0,-4.797778 z"
     id="path3184" />
  <path
     style="fill:none;stroke:#0000ff;stroke-width:0.35433071999999999"
     d="m 205.09618,85.098816 9.80722,0 0,34.801524 -9.80722,0 0,-14.79902 5.00062,0 0,-15.204726 -5.00062,0 0,-4.797778 z"
     id="path3182" />
  <path
     style="fill:none;stroke:#0000ff;stroke-width:0.35433071999999999"
     d="m 220.09805,85.098816 9.79841,0 0,34.801524 -9.79841,0 0,-34.801524 z"
     id="path3180" />
  <path
     style="fill:none;stroke:#0000ff;stroke-width:0.35433071999999999"
     d="m 235.09993,85.098816 4.79778,0 0,39.802154 -4.79778,0 0,-39.802154 z"
     id="path3178" />
  <path
     style="fill:none;stroke:#0000ff;stroke-width:0.35433071999999999"
     d="m 15.098889,95.100066 64.805277,0 0,4.797778 -64.805277,0 0,-4.797778 z"
     id="path3176" />
  <path
     style="fill:none;stroke:#0000ff;stroke-width:0.35433071999999999"
     d="m 85.098819,95.100066 44.802781,0 0,4.797778 -44.802781,0 0,-4.797778 z"
     id="path3174" />
  <path
     style="fill:none;stroke:#0000ff;stroke-width:0.35433071999999999"
     d="m 145.0975,95.100066 4.8066,0 0,4.797778 -4.8066,0 0,-4.797778 z"
     id="path3172" />
  <path
     style="fill:none;stroke:#0000ff;stroke-width:0.35433071999999999"
     d="m 155.09875,95.100066 14.79903,0 0,4.797778 -14.79903,0 0,-4.797778 z"
     id="path3170" />
  <path
     style="fill:none;stroke:#0000ff;stroke-width:0.35433071999999999"
     d="m 180.10187,95.100066 19.79966,0 0,4.797778 -19.79966,0 0,-4.797778 z"
     id="path3168" />
  <path
     style="fill:none;stroke:#0000ff;stroke-width:0.35433071999999999"
     d="m 155.09875,105.10132 14.79903,0 0,9.7984 -14.79903,0 0,-9.7984 z"
     id="path3166" />
  <path
     style="fill:none;stroke:#0000ff;stroke-width:0.35433071999999999"
     d="m 180.10187,105.10132 19.79966,0 0,14.79902 -19.79966,0 0,-14.79902 z"
     id="path3164" />
  <path
     style="fill:none;stroke:#0000ff;stroke-width:0.35433071999999999"
     d="m 255.10243,125.10382 4.79778,0 0,39.79333 -4.79778,0 0,-39.79333 z"
     id="path3162" />
  <path
     style="fill:none;stroke:#0000ff;stroke-width:0.35433071999999999"
     d="m 205.09618,130.09562 9.80722,0 0,9.80722 -9.80722,0 0,-9.80722 z"
     id="path3160" />
  <path
     style="fill:none;stroke:#0000ff;stroke-width:0.35433071999999999"
     d="m 245.10118,130.09562 4.79778,0 0,40.005 0,4.79778 -4.79778,0 0,-44.80278 z"
     id="path3158" />
  <path
     style="fill:none;stroke:#0000ff;stroke-width:0.35433071999999999"
     d="m 115.10257,145.0975 84.79896,0 0,4.80659 -69.99993,0 0,15.19591 29.99493,0 0,4.79777 -34.79271,0 0,-19.99368 -10.00125,0 0,-4.80659 z"
     id="path3156" />
  <path
     style="fill:none;stroke:#0000ff;stroke-width:0.35433071999999999"
     d="m 205.09618,145.0975 9.80722,0 0,4.80659 -9.80722,0 0,-4.80659 z"
     id="path3154" />
  <path
     style="fill:none;stroke:#0000ff;stroke-width:0.35433071999999999"
     d="m 105.10132,155.09875 4.79778,0 0,20.0025 10.00125,0 0,9.7984 -14.79903,0 0,-29.8009 z"
     id="path3152" />
  <path
     style="fill:none;stroke:#0000ff;stroke-width:0.35433071999999999"
     d="m 115.10257,155.09875 4.79778,0 0,14.79902 -4.79778,0 0,-14.79902 z"
     id="path3150" />
  <path
     style="fill:none;stroke:#0000ff;stroke-width:0.35433071999999999"
     d="m 135.09625,155.09875 59.80465,0 0,4.79777 -59.80465,0 0,-4.79777 z"
     id="path3148" />
  <path
     style="fill:none;stroke:#0000ff;stroke-width:0.35433071999999999"
     d="m 200.10437,155.09875 19.79966,0 0,14.79902 -29.80091,0 0,-4.79777 10.00125,0 0,-10.00125 z"
     id="path3146" />
  <path
     style="fill:none;stroke:#0000ff;stroke-width:0.35433071999999999"
     d="m 165.1,165.1 19.79965,0 0,4.79777 -19.79965,0 0,-4.79777 z"
     id="path3144" />
  <path
     style="fill:none;stroke:#0000ff;stroke-width:0.35433071999999999"
     d="m 125.10382,175.10125 34.79271,0 0,4.79777 -34.79271,0 0,-4.79777 z"
     id="path3142" />
  <path
     style="fill:none;stroke:#0000ff;stroke-width:0.35433071999999999"
     d="m 165.1,175.10125 19.79965,0 0,4.79777 -19.79965,0 0,-4.79777 z"
     id="path3140" />
  <path
     style="fill:none;stroke:#0000ff;stroke-width:0.35433071999999999"
     d="m 190.10312,175.10125 19.79966,0 0,4.79777 -19.79966,0 0,-4.79777 z"
     id="path3138" />
  <path
     style="fill:none;stroke:#0000ff;stroke-width:0.35433071999999999"
     d="m 215.09743,175.10125 9.7984,0 0,4.79777 -9.7984,0 0,-4.79777 z"
     id="path3136" />
  <path
     style="fill:none;stroke:#0000ff;stroke-width:0.35433071999999999"
     d="m 125.10382,185.1025 34.79271,0 0,5.00062 30.20659,0 0,-5.00062 19.79966,0 0,9.45444 -84.79896,0 0,-9.45444 z"
     id="path3363" />
</svg>
