<?xml version="1.0" encoding="UTF-8" standalone="no"?>
<svg
   xmlns:dc="http://purl.org/dc/elements/1.1/"
   xmlns:cc="http://creativecommons.org/ns#"
   xmlns:rdf="http://www.w3.org/1999/02/22-rdf-syntax-ns#"
   xmlns:svg="http://www.w3.org/2000/svg"
   xmlns="http://www.w3.org/2000/svg"
   xmlns:sodipodi="http://sodipodi.sourceforge.net/DTD/sodipodi-0.dtd"
   xmlns:inkscape="http://www.inkscape.org/namespaces/inkscape"
   width="280mm"
   height="215mm"
   viewBox="0 0 280 215"
   id="svg3457"
   version="1.1"
   inkscape:version="0.48.1 r9760"
   sodipodi:docname="cutit4.svg">
  <metadata
     id="metadata3503">
    <rdf:RDF>
      <cc:Work
         rdf:about="">
        <dc:format>image/svg+xml</dc:format>
        <dc:type
           rdf:resource="http://purl.org/dc/dcmitype/StillImage" />
        <dc:title />
      </cc:Work>
    </rdf:RDF>
  </metadata>
  <defs
     id="defs3501" />
  <sodipodi:namedview
     pagecolor="#ffffff"
     bordercolor="#666666"
     borderopacity="1"
     objecttolerance="10"
     gridtolerance="10"
     guidetolerance="10"
     inkscape:pageopacity="0"
     inkscape:pageshadow="2"
     inkscape:window-width="1680"
     inkscape:window-height="1002"
     id="namedview3499"
     showgrid="false"
     inkscape:zoom="1"
     inkscape:cx="496.06299"
     inkscape:cy="380.90552"
     inkscape:window-x="0"
     inkscape:window-y="0"
     inkscape:window-maximized="1"
     inkscape:current-layer="svg3457" />
  <path
     style="fill:none;stroke:#000000;stroke-width:0.35433071999999999"
     d="m 29.897916,-0.09701635 0,60.19270835 20.0025,0 0,40.004998 35.198403,0 0,-40.004998 14.799027,0 0,29.800902 -10.001249,0 0,20.002496 -59.998681,0 0,40.19903 50.00625,0 0,10.00125 29.994934,0 0,19.79965 -80.001184,0 0,16.99507 125.200834,0 0,-6.79097 40.005,0 0,-10.00125 14.79903,0 0,17.83292 15.1959,0 0,-17.83292 4.79778,0 0,18.90007 20.20534,0 0,-19.10292 -5.00062,0 0,-9.7984 10.00125,0 0,-30.19778 -10.00125,0 0,-89.799579 4.79778,0 0,29.99493 15.20472,0 0,-80.19520735 -15.20472,0 0,19.99368035 -109.80209,0 0,-19.99368035 -110.198954,0 z"
     id="path3600" />
  <path
     style="fill:none;stroke:#ff0000;stroke-width:0.35433071999999999"
     d="m 35.101389,5.0976364 99.800831,0 0,14.7990276 -25.00312,0 0,10.00125 -10.001254,0 0,25.003125 -14.799027,0 0,-5.000625 -35.198403,0 0,5.000625 -14.799027,0 0,-49.8034026 z"
     id="path3598" />
  <path
     style="fill:none;stroke:#0000ff;stroke-width:0.35433071999999999"
     d="m 255.10243,5.0976364 4.79778,0 0,69.8059026 -4.79778,0 0,-69.8059026 z"
     id="path3596" />
  <path
     style="fill:none;stroke:#0000ff;stroke-width:0.35433071999999999"
     d="m 115.10257,25.100136 19.79965,0 0,4.797778 -19.79965,0 0,-4.797778 z"
     id="path3594" />
  <path
     style="fill:none;stroke:#ff0000;stroke-width:0.35433071999999999"
     d="m 140.09687,25.100136 109.80209,0 0,19.799653 -4.79778,0 0,-5.000625 -44.99681,0 0,-10.00125 -60.0075,0 0,-4.797778 z"
     id="path3592" />
  <path
     style="fill:none;stroke:#0000ff;stroke-width:0.35433071999999999"
     d="m 105.10132,35.101386 4.79778,0 0,15.001875 25.00312,0 0,4.797778 -29.8009,0 0,-19.799653 z"
     id="path3590" />
  <path
     style="fill:none;stroke:#0000ff;stroke-width:0.35433071999999999"
     d="m 115.10257,35.101386 19.79965,0 0,9.798403 -19.79965,0 0,-9.798403 z"
     id="path3588" />
  <path
     style="fill:none;stroke:#0000ff;stroke-width:0.35433071999999999"
     d="m 140.09687,35.101386 54.80403,0 0,4.797778 -35.00437,0 0,5.000625 -19.79966,0 0,-9.798403 z"
     id="path3586" />
  <path
     style="fill:none;stroke:#ff0000;stroke-width:0.35433071999999999"
     d="m 140.09687,50.103261 19.79966,0 0,19.799653 -9.99243,0 0,19.99368 -44.80278,0 0,-29.800902 34.99555,0 0,-9.992431 z"
     id="path3584" />
  <path
     style="fill:none;stroke:#0000ff;stroke-width:0.35433071999999999"
     d="m 165.1,50.103261 14.79903,0 0,9.798403 -10.00125,0 0,10.00125 -4.79778,0 0,-19.799653 z"
     id="path3582" />
  <path
     style="fill:none;stroke:#0000ff;stroke-width:0.35433071999999999"
     d="m 230.0993,50.103261 9.79841,0 0,89.799579 -4.79778,0 0,-80.001176 -5.00063,0 0,-9.798403 z"
     id="path3580" />
  <path
     style="fill:none;stroke:#0000ff;stroke-width:0.35433071999999999"
     d="m 185.1025,55.103886 9.7984,0 0,4.797778 -9.7984,0 0,-4.797778 z"
     id="path3578" />
  <path
     style="fill:none;stroke:#0000ff;stroke-width:0.35433071999999999"
     d="m 200.10437,55.103886 24.79146,0 0,4.797778 -24.79146,0 0,-4.797778 z"
     id="path3576" />
  <path
     style="fill:none;stroke:#0000ff;stroke-width:0.35433071999999999"
     d="m 55.103888,60.095692 24.800278,0 0,34.801527 -24.800278,0 0,-34.801527 z"
     id="path3574" />
  <path
     style="fill:none;stroke:#0000ff;stroke-width:0.35433071999999999"
     d="m 175.10125,65.096316 4.79778,0 0,4.806598 -4.79778,0 0,-4.806598 z"
     id="path3572" />
  <path
     style="fill:none;stroke:#0000ff;stroke-width:0.35433071999999999"
     d="m 185.1025,65.096316 9.7984,0 0,14.807848 -9.7984,0 0,-14.807848 z"
     id="path3570" />
  <path
     style="fill:none;stroke:#0000ff;stroke-width:0.35433071999999999"
     d="m 200.10437,65.096316 24.79146,0 0,14.807848 -24.79146,0 0,-14.807848 z"
     id="path3568" />
  <path
     style="fill:none;stroke:#0000ff;stroke-width:0.35433071999999999"
     d="m 155.09875,75.097566 4.79778,0 0,14.799028 -4.79778,0 0,-14.799028 z"
     id="path3566" />
  <path
     style="fill:none;stroke:#0000ff;stroke-width:0.35433071999999999"
     d="m 165.1,75.097566 4.79778,0 0,14.799028 -4.79778,0 0,-14.799028 z"
     id="path3564" />
  <path
     style="fill:none;stroke:#0000ff;stroke-width:0.35433071999999999"
     d="m 175.10125,75.097566 4.79778,0 0,10.00125 0,4.797778 -4.79778,0 0,-14.799028 z"
     id="path3562" />
  <path
     style="fill:none;stroke:#0000ff;stroke-width:0.35433071999999999"
     d="m 185.1025,85.098816 9.7984,0 0,4.797778 -9.7984,0 0,-4.797778 z"
     id="path3560" />
  <path
     style="fill:none;stroke:#0000ff;stroke-width:0.35433071999999999"
     d="m 200.10437,85.098816 29.79209,0 0,4.797778 -29.79209,0 0,-4.797778 z"
     id="path3558" />
  <path
     style="fill:none;stroke:#ff0000;stroke-width:0.35433071999999999"
     d="m 95.100069,95.100066 54.804031,0 0,15.001874 9.99243,0 0,9.7984 -44.79396,0 0,-10.00125 -20.002501,0 0,-14.799024 z"
     id="path3556" />
  <path
     style="fill:none;stroke:#0000ff;stroke-width:0.35433071999999999"
     d="m 155.09875,95.100066 4.79778,0 0,9.798404 -4.79778,0 0,-9.798404 z"
     id="path3554" />
  <path
     style="fill:none;stroke:#0000ff;stroke-width:0.35433071999999999"
     d="m 165.1,95.100066 4.79778,0 0,9.798404 -4.79778,0 0,-9.798404 z"
     id="path3552" />
  <path
     style="fill:none;stroke:#0000ff;stroke-width:0.35433071999999999"
     d="m 175.10125,95.100066 4.79778,0 0,9.798404 -4.79778,0 0,-9.798404 z"
     id="path3550" />
  <path
     style="fill:none;stroke:#ff0000;stroke-width:0.35433071999999999"
     d="m 185.1025,95.100066 39.79333,0 0,39.802154 -4.79778,0 0,-5.00063 -44.9968,0 0,-19.79965 10.00125,0 0,-15.001874 z"
     id="path3548" />
  <path
     style="fill:none;stroke:#0000ff;stroke-width:0.35433071999999999"
     d="m 165.1,110.10194 4.79778,0 0,9.7984 -4.79778,0 0,-9.7984 z"
     id="path3546" />
  <path
     style="fill:none;stroke:#ff0000;stroke-width:0.35433071999999999"
     d="m 35.101389,115.10257 54.795208,0 0,4.79777 -9.992431,0 0,25.00313 -44.802777,0 0,-29.8009 z"
     id="path3544" />
  <path
     style="fill:none;stroke:#0000ff;stroke-width:0.35433071999999999"
     d="m 95.100069,115.10257 14.799031,0 0,4.79777 -14.799031,0 0,-4.79777 z"
     id="path3542" />
  <path
     style="fill:none;stroke:#0000ff;stroke-width:0.35433071999999999"
     d="m 85.098819,125.10382 4.797778,0 0,14.99305 20.002503,0 0,4.8066 -24.800281,0 0,-19.79965 z"
     id="path3540" />
  <path
     style="fill:none;stroke:#0000ff;stroke-width:0.35433071999999999"
     d="m 95.100069,125.10382 14.799031,0 0,9.7984 -14.799031,0 0,-9.7984 z"
     id="path3538" />
  <path
     style="fill:none;stroke:#0000ff;stroke-width:0.35433071999999999"
     d="m 115.10257,125.10382 44.79396,0 0,4.79777 -39.99618,0 0,5.00063 -4.79778,0 0,-9.7984 z"
     id="path3536" />
  <path
     style="fill:none;stroke:#0000ff;stroke-width:0.35433071999999999"
     d="m 115.10257,140.09687 4.79778,0 0,14.79903 -34.801531,0 0,-4.79778 30.003751,0 0,-10.00125 z"
     id="path3534" />
  <path
     style="fill:none;stroke:#0000ff;stroke-width:0.35433071999999999"
     d="m 125.10382,140.09687 34.79271,0 0,14.79903 -34.79271,0 0,-14.79903 z"
     id="path3532" />
  <path
     style="fill:none;stroke:#0000ff;stroke-width:0.35433071999999999"
     d="m 175.10125,140.09687 39.80215,0 0,9.80722 -39.80215,0 0,-9.80722 z"
     id="path3530" />
  <path
     style="fill:none;stroke:#0000ff;stroke-width:0.35433071999999999"
     d="m 220.09805,140.09687 9.79841,0 0,9.80722 -9.79841,0 0,-9.80722 z"
     id="path3528" />
  <path
     style="fill:none;stroke:#0000ff;stroke-width:0.35433071999999999"
     d="m 235.09993,145.0975 4.79778,0 0,19.79965 -4.79778,0 0,-19.79965 z"
     id="path3526" />
  <path
     style="fill:none;stroke:#0000ff;stroke-width:0.35433071999999999"
     d="m 245.10118,145.0975 4.79778,0 0,19.79965 -4.79778,0 0,-19.79965 z"
     id="path3524" />
  <path
     style="fill:none;stroke:#0000ff;stroke-width:0.35433071999999999"
     d="m 170.10062,155.09875 44.80278,0 0,14.79902 -24.80028,0 0,-10.00125 -20.0025,0 0,-4.79777 z"
     id="path3522" />
  <path
     style="fill:none;stroke:#0000ff;stroke-width:0.35433071999999999"
     d="m 220.09805,155.09875 9.79841,0 0,15.00187 10.00125,0 0,4.79778 -19.79966,0 0,-19.79965 z"
     id="path3520" />
  <path
     style="fill:none;stroke:#0000ff;stroke-width:0.35433071999999999"
     d="m 115.10257,165.1 4.79778,0 0,10.00125 20.0025,0 0,4.79777 -24.80028,0 0,-14.79902 z"
     id="path3518" />
  <path
     style="fill:none;stroke:#0000ff;stroke-width:0.35433071999999999"
     d="m 125.10382,165.1 34.79271,0 0,4.79777 -34.79271,0 0,-4.79777 z"
     id="path3516" />
  <path
     style="fill:none;stroke:#0000ff;stroke-width:0.35433071999999999"
     d="m 165.1,165.1 19.79965,0 0,4.79777 -19.79965,0 0,-4.79777 z"
     id="path3514" />
  <path
     style="fill:none;stroke:#0000ff;stroke-width:0.35433071999999999"
     d="m 145.0975,175.10125 14.79903,0 0,4.79777 -4.79778,0 -10.00125,0 0,-4.79777 z"
     id="path3512" />
  <path
     style="fill:none;stroke:#ff0000;stroke-width:0.35433071999999999"
     d="m 35.101389,185.1025 104.801461,0 0,5.00062 10.00125,0 0,1.59632 -114.802711,0 0,-6.59694 z"
     id="path3510" />
  <path
     style="fill:none;stroke:#0000ff;stroke-width:0.35433071999999999"
     d="m 215.09743,185.1025 4.8066,0 0,7.63763 -4.8066,0 0,-7.63763 z"
     id="path3508" />
  <path
     style="fill:none;stroke:#0000ff;stroke-width:0.35433071999999999"
     d="m 235.09993,185.1025 9.7984,0 0,8.70479 -9.7984,0 0,-8.70479 z"
     id="path3459" />
</svg>
