<?xml version="1.0" encoding="UTF-8" standalone="no"?>
<!-- Created with Inkscape (http://www.inkscape.org/) -->

<svg
   xmlns:dc="http://purl.org/dc/elements/1.1/"
   xmlns:cc="http://creativecommons.org/ns#"
   xmlns:rdf="http://www.w3.org/1999/02/22-rdf-syntax-ns#"
   xmlns:svg="http://www.w3.org/2000/svg"
   xmlns="http://www.w3.org/2000/svg"
   xmlns:sodipodi="http://sodipodi.sourceforge.net/DTD/sodipodi-0.dtd"
   xmlns:inkscape="http://www.inkscape.org/namespaces/inkscape"
   width="990"
   height="765"
   id="svg7831"
   version="1.1"
   inkscape:version="0.48.1 r9760"
   sodipodi:docname="rectangles_wall_art.svg">
  <defs
     id="defs7833" />
  <sodipodi:namedview
     id="base"
     pagecolor="#ffffff"
     bordercolor="#666666"
     borderopacity="1.0"
     inkscape:pageopacity="0.0"
     inkscape:pageshadow="2"
     inkscape:zoom="1"
     inkscape:cx="366.65681"
     inkscape:cy="387.15511"
     inkscape:document-units="mm"
     inkscape:current-layer="layer1"
     showgrid="false"
     units="mm"
     inkscape:window-width="1680"
     inkscape:window-height="1002"
     inkscape:window-x="0"
     inkscape:window-y="0"
     inkscape:window-maximized="0" />
  <metadata
     id="metadata7836">
    <rdf:RDF>
      <cc:Work
         rdf:about="">
        <dc:format>image/svg+xml</dc:format>
        <dc:type
           rdf:resource="http://purl.org/dc/dcmitype/StillImage" />
        <dc:title />
      </cc:Work>
    </rdf:RDF>
  </metadata>
  <g
     inkscape:label="Layer 1"
     inkscape:groupmode="layer"
     id="layer1"
     transform="translate(0,-287.36232)">
    <rect
       style="fill:none;stroke:#000000;stroke-width:0.1mm"
       x="324.98425"
       y="1005.4883"
       width="258.66141"
       height="0"
       id="rect8812" />
    <path
       style="fill:#000000;stroke:#000000;stroke-width:0.1mm"
       d="m 198.61467,376.81017 0,49.59375 -81.5,0 0,99.21875 81.5,0 0,190.0625 -17.3125,0 0,-69.125 -141.718755,0 0,34.21875 -13.71875,0 0,21.25 13.71875,0 0,74.8125 -39.40624964,0 0,138.1875 39.40624964,0 0,18.53125 86.000005,0 0,19.53125 170.0625,0 0,-38.0625 65.96875,0 0,-20.90625 56.96875,0 0,113.37503 81.21875,0 0,44.6875 92.125,0 0,-44.6875 124.3125,0 0,-361.40628 -18,0 0,-152.375 -152.375,0 0,-21.25 -63.78125,0 0,21.25 -99.21875,0 0,-67.3125 -159.4375,0 0,-49.59375 -24.8125,0 z m 8.875,8.84375 7.0625,0 0,40.75 -7.0625,0 0,-40.75 z m -81.5,49.59375 72.625,0 0,81.5 -72.625,0 0,-81.5 z m 81.5,0 7.0625,0 0,81.5 -7.0625,0 0,-81.5 z m 15.9375,0 150.59375,0 0,58.46875 -62.03125,0 0,23.03125 -88.5625,0 0,-81.5 z m 267.5,46.0625 46.0625,0 0,12.40625 -46.0625,0 0,-12.40625 z m -170.0625,21.28125 53.15625,0 0,14.15625 -53.15625,0 0,-14.15625 z m 62,0 99.21875,0 0,108.0625 63.78125,0 0,-108.0625 143.5,0 0,143.5 -270.78125,0 0,171.625 -56.96875,0 0,-40.875 -40.75,0 0,-123.65625 54.90625,0 0,-39 -54.90625,0 0,-88.5625 62,0 0,-23.03125 z m 108.0625,0 46.0625,0 0,99.21875 -46.0625,0 0,-99.21875 z m -283.4375,23.03125 7.0625,0 0,190.0625 -7.0625,0 0,-190.0625 z m 15.9375,0 88.5625,0 0,88.5625 -14.15625,0 0,39 14.15625,0 0,123.65625 -16.34375,0 0,-61.15625 -72.21875,0 0,-190.0625 z m 83.25,97.4375 5.3125,0 0,21.25 -5.3125,0 0,-21.25 z m 14.1875,0 46.0625,0 0,21.25 -46.0625,0 0,-21.25 z m 106.59375,31.875 261.90625,0 0,230.3125 -261.90625,0 0,-28.5625 189.09375,0 0,-38.96875 -189.09375,0 0,-162.78125 z m 270.78125,0 9.125,0 0,343.71875 -115.4375,0 0,-20.875 -92.125,0 0,20.875 -72.34375,0 0,-104.53125 270.78125,0 0,-239.1875 z m -649.812505,0.46875 124.031255,0 0,60.28125 -46.875,0 0,61.15625 -77.156255,0 0,-74.8125 34.15625,0 0,-21.25 -34.15625,0 0,-25.375 z m -13.6875,34.21875 4.84375,0 0,3.5625 -4.84375,0 0,-3.5625 z m 13.6875,0 25.28125,0 0,3.5625 -25.28125,0 0,-3.5625 z m 86.000005,34.9375 38.03125,0 0,52.28125 -38.03125,0 0,-52.28125 z m 46.875,0 17.3125,0 0,52.28125 -17.3125,0 0,-52.28125 z m 26.1875,0 7.0625,0 0,52.28125 -7.0625,0 0,-52.28125 z m 15.9375,0 63.375,0 0,52.28125 -63.375,0 0,-52.28125 z m -214.3750046,61.15625 30.5312496,0 0,120.46875 -30.5312496,0 0,-120.46875 z m 39.3749996,0 77.156255,0 0,120.46875 -77.156255,0 0,-120.46875 z m 86.000005,0 38.03125,0 0,120.46875 -38.03125,0 0,-120.46875 z m 46.875,0 17.3125,0 0,101.3125 24.8125,0 0,-101.3125 63.375,0 0,120.46875 -105.5,0 0,-120.46875 z m 26.1875,0 7.0625,0 0,92.46875 -7.0625,0 0,-92.46875 z m 88.15625,0 16.34375,0 0,108.40625 40.75,0 0,12.0625 -57.09375,0 0,-120.46875 z m 25.21875,0 31.875,0 0,32 -23.1875,0 0,38.96875 23.1875,0 0,28.5625 -31.875,0 0,-99.53125 z m 17.53125,40.84375 14.34375,0 0,21.28125 -14.34375,0 0,-21.28125 z m 23.21875,0 56.96875,0 0,21.28125 -56.96875,0 0,-21.28125 z m 65.84375,0 180.25,0 0,21.28125 -180.25,0 0,-21.28125 z m -65.84375,30.125 56.96875,0 0,28.5625 -56.96875,0 0,-28.5625 z m -313.187505,58.34375 77.156255,0 0,9.65625 -77.156255,0 0,-9.65625 z m 86.000005,0 38.03125,0 0,9.65625 -38.03125,0 0,-9.65625 z m 46.875,0 105.5,0 0,29.21875 -152.375,0 0,-10.6875 46.875,0 0,-18.53125 z m 327.34375,71.625 74.40625,0 0,12 -74.40625,0 0,-12 z m 0,20.84378 74.40625,0 0,35.8438 -74.40625,0 0,-35.8438 z"
       id="rect8814"
       inkscape:connector-curvature="0" />
    <rect
       style="fill:none;stroke:#000000;stroke-width:0.1mm"
       x="314.35434"
       y="431.47253"
       width="7.0866141"
       height="0"
       id="rect8832" />
    <rect
       style="fill:none;stroke:#000000;stroke-width:0.1mm"
       x="456.08661"
       y="403.1261"
       width="0"
       height="538.5827"
       id="rect8844" />
  </g>
</svg>
