<?xml version="1.0" encoding="UTF-8" standalone="no"?>
<!-- Created with Inkscape (http://www.inkscape.org/) -->

<svg
   xmlns:dc="http://purl.org/dc/elements/1.1/"
   xmlns:cc="http://creativecommons.org/ns#"
   xmlns:rdf="http://www.w3.org/1999/02/22-rdf-syntax-ns#"
   xmlns:svg="http://www.w3.org/2000/svg"
   xmlns="http://www.w3.org/2000/svg"
   xmlns:sodipodi="http://sodipodi.sourceforge.net/DTD/sodipodi-0.dtd"
   xmlns:inkscape="http://www.inkscape.org/namespaces/inkscape"
   width="1052.3622"
   height="744.09448"
   id="svg5854"
   version="1.1"
   inkscape:version="0.48.1 r9760"
   sodipodi:docname="tree_lamp_2.svg">
  <defs
     id="defs5856" />
  <sodipodi:namedview
     id="base"
     pagecolor="#ffffff"
     bordercolor="#666666"
     borderopacity="1.0"
     inkscape:pageopacity="0.0"
     inkscape:pageshadow="2"
     inkscape:zoom="0.7"
     inkscape:cx="1735.4088"
     inkscape:cy="1846.7557"
     inkscape:document-units="mm"
     inkscape:current-layer="layer1"
     showgrid="false"
     units="mm"
     showguides="false"
     inkscape:guide-bbox="true"
     inkscape:window-width="1680"
     inkscape:window-height="1002"
     inkscape:window-x="0"
     inkscape:window-y="0"
     inkscape:window-maximized="0">
    <sodipodi:guide
       orientation="1,0"
       position="1062.9921,1008.5714"
       id="guide5862" />
    <sodipodi:guide
       orientation="0,1"
       position="1291.4286,1062.9921"
       id="guide5864" />
    <sodipodi:guide
       orientation="1,0"
       position="1417.3228,1805.7143"
       id="guide5866" />
    <sodipodi:guide
       orientation="1,0"
       position="1240.1575,1527.1429"
       id="guide5868" />
    <sodipodi:guide
       orientation="0,1"
       position="1572.8571,1594.4882"
       id="guide5870" />
    <sodipodi:guide
       orientation="1,0"
       position="1771.6535,1707.1429"
       id="guide5985" />
    <sodipodi:guide
       orientation="1,0"
       position="1877.9528,1781.4286"
       id="guide5987" />
    <sodipodi:guide
       orientation="1,0"
       position="1133.8583,1721.4286"
       id="guide5991" />
    <sodipodi:guide
       orientation="1,0"
       position="1523.622,1690"
       id="guide5993" />
    <sodipodi:guide
       orientation="1,0"
       position="1665.3543,1752.8571"
       id="guide5995" />
    <sodipodi:guide
       orientation="1,0"
       position="1984.252,1734.2857"
       id="guide5997" />
    <sodipodi:guide
       orientation="0,1"
       position="1165.7143,1169.2913"
       id="guide5999" />
    <sodipodi:guide
       orientation="0,1"
       position="1182.8571,1098.4252"
       id="guide6001" />
    <sodipodi:guide
       orientation="0,1"
       position="1133.8583,1027.5591"
       id="guide6003" />
    <sodipodi:guide
       orientation="1,0"
       position="1204.7244,1238.5714"
       id="guide6005" />
    <sodipodi:guide
       orientation="1,0"
       position="1275.5906,1238.5714"
       id="guide6011" />
    <sodipodi:guide
       orientation="1,0"
       position="1169.2913,1261.4286"
       id="guide6045" />
    <sodipodi:guide
       orientation="0,1"
       position="1165.7143,1204.7244"
       id="guide6047" />
    <sodipodi:guide
       orientation="1,0"
       position="1098.4252,1237.4369"
       id="guide6084" />
    <sodipodi:guide
       orientation="0,1"
       position="1306.1272,1311.0236"
       id="guide6088" />
    <sodipodi:guide
       orientation="1,0"
       position="1250.7874,1649.5791"
       id="guide6115" />
    <sodipodi:guide
       orientation="1,0"
       position="1406.6929,1626.3456"
       id="guide6117" />
    <sodipodi:guide
       orientation="0,1"
       position="1562.706,1116.1417"
       id="guide6119" />
    <sodipodi:guide
       orientation="1,0"
       position="1761.0236,1639.4776"
       id="guide6125" />
    <sodipodi:guide
       orientation="1,0"
       position="1888.5827,1624.3253"
       id="guide6127" />
    <sodipodi:guide
       orientation="0,1"
       position="1098.4252,1612.2047"
       id="guide6137" />
    <sodipodi:guide
       orientation="0,1"
       position="1098.4252,1576.7717"
       id="guide6139" />
    <sodipodi:guide
       orientation="0,1"
       position="1596.041,1080.7087"
       id="guide6143" />
    <sodipodi:guide
       orientation="1,0"
       position="1311.0236,1684.9346"
       id="guide6157" />
    <sodipodi:guide
       orientation="1,0"
       position="1346.4567,1659.6806"
       id="guide6159" />
    <sodipodi:guide
       orientation="1,0"
       position="1300.3937,1485.9344"
       id="guide6161" />
    <sodipodi:guide
       orientation="1,0"
       position="1357.0866,1447.5486"
       id="guide6163" />
    <sodipodi:guide
       orientation="1,0"
       position="1381.8898,1612.2047"
       id="guide6168" />
    <sodipodi:guide
       orientation="0,1"
       position="1098.4252,1452.7559"
       id="guide6170" />
    <sodipodi:guide
       orientation="0,1"
       position="1098.4252,1736.2205"
       id="guide6172" />
    <sodipodi:guide
       orientation="0,1"
       position="1098.4252,1505.9055"
       id="guide6178" />
    <sodipodi:guide
       orientation="0,1"
       position="1592.0004,1523.622"
       id="guide6209" />
    <sodipodi:guide
       orientation="1,0"
       position="1328.7402,1684.9346"
       id="guide6211" />
    <sodipodi:guide
       orientation="0,1"
       position="1417.3228,1700.7874"
       id="guide6215" />
    <sodipodi:guide
       orientation="1,0"
       position="1116.1417,1700.7874"
       id="guide6221" />
    <sodipodi:guide
       orientation="0,1"
       position="1328.7402,1665.3543"
       id="guide6223" />
    <sodipodi:guide
       orientation="1,0"
       position="1222.4409,1665.3543"
       id="guide6227" />
    <sodipodi:guide
       orientation="1,0"
       position="1541.3386,1700.7874"
       id="guide6231" />
    <sodipodi:guide
       orientation="0,1"
       position="1592.0004,1544.8819"
       id="guide6264" />
    <sodipodi:guide
       orientation="1,0"
       position="1087.7953,1700.7874"
       id="guide6305" />
    <sodipodi:guide
       orientation="1,0"
       position="1144.4882,1700.7874"
       id="guide6307" />
    <sodipodi:guide
       orientation="0,1"
       position="1116.1417,1622.8346"
       id="guide6309" />
    <sodipodi:guide
       orientation="1,0"
       position="1512.9921,1700.7874"
       id="guide6311" />
    <sodipodi:guide
       orientation="1,0"
       position="1435.0394,1622.8346"
       id="guide6398" />
    <sodipodi:guide
       orientation="0,1"
       position="1222.4409,1559.0551"
       id="guide6423" />
  </sodipodi:namedview>
  <metadata
     id="metadata5859">
    <rdf:RDF>
      <cc:Work
         rdf:about="">
        <dc:format>image/svg+xml</dc:format>
        <dc:type
           rdf:resource="http://purl.org/dc/dcmitype/StillImage" />
        <dc:title></dc:title>
      </cc:Work>
    </rdf:RDF>
  </metadata>
  <g
     inkscape:label="Layer 1"
     inkscape:groupmode="layer"
     id="layer1"
     transform="translate(0,-308.26769)">
    <path
       style="fill:none;stroke:#000000;stroke-width:3.54330707;stroke-miterlimit:4;stroke-opacity:1;stroke-dasharray:none"
       d="M 1098.4375 -868.125 L 1098.4375 -850.40625 C 1098.4375 -772.12966 1161.8798 -708.65625 1240.1562 -708.65625 L 1240.1562 -460.625 C 1240.1562 -456.95579 1240.0233 -453.32347 1239.7812 -449.75 C 1239.5394 -446.17653 1239.1907 -442.67866 1238.7188 -439.21875 C 1238.2462 -435.75884 1237.6588 -432.35979 1236.9688 -429.03125 C 1236.2782 -425.70271 1235.4902 -422.42937 1234.5938 -419.25 C 1233.6968 -416.07063 1232.6844 -412.98113 1231.5938 -409.96875 C 1230.5023 -406.95637 1229.336 -404.01508 1228.0625 -401.1875 C 1226.789 -398.35992 1225.4128 -395.62497 1223.9688 -393 C 1222.524 -390.37503 1221.0093 -387.8733 1219.4062 -385.46875 C 1217.8037 -383.0642 1216.125 -380.76007 1214.375 -378.59375 C 1212.625 -376.42743 1210.7913 -374.41027 1208.9062 -372.5 C 1207.0216 -370.58973 1205.0708 -368.79267 1203.0625 -367.15625 C 1201.0542 -365.51983 1198.9946 -364.03226 1196.875 -362.6875 C 1194.7554 -361.34274 1192.594 -360.16028 1190.375 -359.125 C 1188.156 -358.08972 1185.8691 -357.208 1183.5625 -356.5 C 1181.2559 -355.792 1178.9136 -355.23791 1176.5312 -354.875 C 1174.149 -354.51209 1171.7274 -354.34375 1169.2812 -354.34375 C 1149.7124 -354.34375 1133.8437 -338.47538 1133.8438 -318.90625 L 1169.2812 -318.90625 L 1204.7188 -318.90625 L 1240.1562 -318.90625 L 1240.1562 -372.0625 L 1250.7812 -372.0625 L 1250.7812 -318.90625 L 1406.6875 -318.90625 L 1406.6875 -372.0625 L 1417.3125 -372.0625 L 1417.3125 -318.90625 L 1452.75 -318.90625 L 1488.1875 -318.90625 L 1523.625 -318.90625 C 1523.625 -338.47538 1507.7565 -354.34375 1488.1875 -354.34375 C 1485.7413 -354.34375 1483.3197 -354.51209 1480.9375 -354.875 C 1478.5551 -355.23791 1476.2128 -355.792 1473.9062 -356.5 C 1471.6 -357.208 1469.3127 -358.08972 1467.0938 -359.125 C 1464.8745 -360.16028 1462.7131 -361.34274 1460.5938 -362.6875 C 1458.4742 -364.03226 1456.4145 -365.51983 1454.4062 -367.15625 C 1452.3982 -368.79267 1450.4474 -370.58973 1448.5625 -372.5 C 1446.6774 -374.41027 1444.8438 -376.42743 1443.0938 -378.59375 C 1441.3438 -380.76007 1439.6654 -383.0642 1438.0625 -385.46875 C 1436.4594 -387.8733 1434.9444 -390.37503 1433.5 -393 C 1432.0559 -395.62497 1430.6798 -398.35992 1429.4062 -401.1875 C 1428.1329 -404.01508 1426.9661 -406.95637 1425.875 -409.96875 C 1424.7842 -412.98113 1423.7717 -416.07063 1422.875 -419.25 C 1421.9786 -422.42937 1421.1903 -425.70271 1420.5 -429.03125 C 1419.81 -432.35979 1419.2222 -435.75884 1418.75 -439.21875 C 1418.278 -442.67866 1417.9293 -446.17653 1417.6875 -449.75 C 1417.4454 -453.32347 1417.3125 -456.95579 1417.3125 -460.625 L 1417.3125 -708.65625 C 1495.5889 -708.65625 1559.0312 -772.12966 1559.0312 -850.40625 L 1559.0312 -868.125 L 1523.625 -868.125 L 1523.625 -850.40625 C 1523.625 -801.48337 1476.0199 -761.8125 1417.3125 -761.8125 L 1417.3125 -850.40625 L 1346.4688 -850.40625 L 1357.0938 -868.125 L 1300.4062 -868.125 L 1311.0312 -850.40625 L 1240.1562 -850.40625 L 1240.1562 -761.8125 C 1181.4488 -761.8125 1133.8438 -801.48337 1133.8438 -850.40625 L 1133.8438 -868.125 L 1098.4375 -868.125 z "
       transform="translate(0,308.26769)"
       id="path6093" />
    <path
       style="fill:none;stroke:#000000;stroke-width:4.33964777;stroke-miterlimit:4;stroke-opacity:1;stroke-dasharray:none"
       d="M 1771.6562 -850.40625 L 1771.6562 -460.625 L 1771.6562 -372.0625 L 1761.0312 -372.0625 L 1761.0312 -404.59375 C 1760.5594 -403.44349 1760.0658 -402.30488 1759.5625 -401.1875 C 1758.289 -398.35992 1756.9128 -395.62497 1755.4688 -393 C 1754.0242 -390.37503 1752.5094 -387.8733 1750.9062 -385.46875 C 1749.3034 -383.0642 1747.625 -380.76007 1745.875 -378.59375 C 1744.125 -376.42743 1742.2915 -374.41027 1740.4062 -372.5 C 1738.5214 -370.58973 1736.5708 -368.79267 1734.5625 -367.15625 C 1732.5542 -365.51983 1730.4946 -364.03226 1728.375 -362.6875 C 1726.2554 -361.34274 1724.094 -360.16028 1721.875 -359.125 C 1719.656 -358.08972 1717.3691 -357.208 1715.0625 -356.5 C 1712.7559 -355.792 1710.4137 -355.23791 1708.0312 -354.875 C 1705.649 -354.51209 1703.2275 -354.34375 1700.7812 -354.34375 C 1681.2124 -354.34375 1665.3437 -338.47538 1665.3438 -318.90625 L 1700.7812 -318.90625 L 1736.2188 -318.90625 L 1771.6562 -318.90625 L 1877.9375 -318.90625 L 1913.375 -318.90625 L 1948.8125 -318.90625 L 1984.25 -318.90625 C 1984.25 -338.47538 1968.3815 -354.34375 1948.8125 -354.34375 C 1946.3663 -354.34375 1943.9447 -354.51209 1941.5625 -354.875 C 1939.1801 -355.23791 1936.8378 -355.792 1934.5312 -356.5 C 1932.2248 -357.208 1929.9378 -358.08972 1927.7188 -359.125 C 1925.4996 -360.16028 1923.3382 -361.34274 1921.2188 -362.6875 C 1919.0992 -364.03226 1917.0395 -365.51983 1915.0312 -367.15625 C 1913.0231 -368.79267 1911.0724 -370.58973 1909.1875 -372.5 C 1907.3024 -374.41027 1905.4688 -376.42743 1903.7188 -378.59375 C 1901.9688 -380.76007 1900.2904 -383.0642 1898.6875 -385.46875 C 1897.0844 -387.8733 1895.5694 -390.37503 1894.125 -393 C 1892.6809 -395.62497 1891.3048 -398.35992 1890.0312 -401.1875 C 1889.5375 -402.28381 1889.0572 -403.40324 1888.5938 -404.53125 L 1888.5938 -372.0625 L 1877.9375 -372.0625 L 1877.9375 -460.625 L 1877.9375 -850.40625 L 1771.6562 -850.40625 z "
       transform="translate(0,308.26769)"
       id="rect5989" />
    <path
       id="path6299"
       d="m 2408.75,-825.57611 c -94.8408,0 -173.8414,61.5734 -191.2812,143.1563 -6.8914,-0.93587 -14.0066,-1.4375 -21.3126,-1.4375 -58.7074,0 -106.3124,31.73674 -106.3124,70.875 0,39.13826 47.605,70.84375 106.3124,70.84375 18.1481,0 35.2102,-3.02954 50.1563,-8.375 34.9073,47.77229 94.6223,79.25 162.4375,79.25 67.8007,0 127.4958,-31.46357 162.4062,-79.21875 14.944,5.34337 32.0433,8.34375 50.1876,8.34375 58.7074,0 106.2812,-31.70549 106.2812,-70.84375 0,-39.13826 -47.5738,-70.875 -106.2812,-70.875 -7.2954,0 -14.4305,0.50427 -21.3126,1.4375 -17.4381,-81.5847 -96.4389,-143.1563 -191.2812,-143.1563 z"
       style="fill:none;stroke:#000000;stroke-width:3.54330707;stroke-miterlimit:4;stroke-opacity:1;stroke-dasharray:none"
       inkscape:connector-curvature="0" />
    <path
       style="fill:none;stroke:#000000;stroke-width:3.54330707;stroke-miterlimit:4;stroke-opacity:1;stroke-dasharray:none"
       d="m 2408.75,-405.57611 c -94.8408,0 -173.8416,61.5734 -191.2812,143.1563 -6.892,-0.93587 -14.0064,-1.4375 -21.3126,-1.4375 -58.7074,0 -106.3124,31.73674 -106.3124,70.875 0,34.24598 36.4332,62.80253 84.875,69.40625 1.2249,0.16703 2.4772,0.30055 3.7187,0.4375 l 0,-16.71875 35.4063,0 0,16.71875 c 0.7384,-0.0825 1.4874,-0.1576 2.2187,-0.25 1.0625,-0.13431 2.1361,-0.28216 3.1875,-0.4375 1.0625,-0.15714 2.1372,-0.3218 3.1875,-0.5 8.4023,-1.42557 16.402,-3.51477 23.875,-6.1875 15.2719,20.90038 35.2867,38.67133 58.6563,52.0625 3.3384,1.91302 6.7476,3.73863 10.2187,5.46875 1.644,0.8194 3.2964,1.62905 4.9687,2.40625 l 0,-19.125 0,-32.4375 70.875,0 -10.625,-17.71875 56.6876,0 -10.625,17.71875 70.8437,0 0,32.46875 0,19.03125 c 0.8354,-0.38837 1.6716,-0.75734 2.5,-1.15625 0.8314,-0.38035 1.6543,-0.75032 2.4687,-1.15625 3.4706,-1.72941 6.881,-3.5565 10.2188,-5.46875 23.3645,-13.38576 43.3829,-31.16961 58.6562,-52.0625 8.9047,3.18377 18.5817,5.52516 28.7813,6.90625 1.2174,0.16485 2.4539,0.29797 3.6875,0.4375 l 0,-16.71875 35.4375,0 0,16.71875 c 0.7405,-0.0817 1.4846,-0.15719 2.2187,-0.25 0.1684,-0.0212 0.3326,-0.0407 0.5,-0.0625 0.7437,-0.0965 1.4808,-0.20576 2.2188,-0.3125 0.1571,-0.0227 0.3119,-0.0393 0.4688,-0.0625 1.0609,-0.15704 2.1372,-0.32181 3.1874,-0.5 45.9742,-7.8023 79.9688,-35.57393 79.9688,-68.65625 0,-39.13826 -47.5738,-70.875 -106.2812,-70.875 -7.296,0 -14.4304,0.50427 -21.3126,1.4375 -17.4375,-81.5847 -96.4389,-143.1563 -191.2812,-143.1563 z m 0,17.125 c 87.4329,0 158.9343,56.654 174.5312,129.62505 a 17.121421,17.121421 0 0 0 19.0626,13.375 c 6.1339,-0.83187 12.4928,-1.28125 19,-1.28125 26.2682,0 49.7686,7.27894 65.6562,17.875 15.8876,10.59606 23.5,23.24239 23.5,35.875 0,12.63261 -7.6132,25.25472 -23.5,35.84375 -9.8718,6.57984 -22.6926,11.86399 -37.2812,14.9375 l 0,-8.28125 -56.7188,0 0,8.375 c -5.6571,-1.17433 -11.0498,-2.69654 -16.0938,-4.5 a 17.121421,17.121421 0 0 0 -19.5624,6.03125 c -11.3528,15.5295 -25.6982,29.22691 -42.3126,40.40625 l 0,-50.3125 -212.5937,0 0,50.28125 c -16.615,-11.18341 -30.9629,-24.87383 -42.3125,-40.40625 a 17.121421,17.121421 0 0 0 -19.5625,-6.03125 c -5.0387,1.80209 -10.4304,3.32196 -16.0625,4.5 l 0,-8.34375 -56.7188,0 0,8.28125 c -14.608,-3.07225 -27.4286,-8.35224 -37.3124,-14.9375 -15.896,-10.59046 -23.5,-23.21569 -23.5,-35.84375 -7e-4,-12.62804 7.6033,-25.27752 23.5,-35.875 15.8958,-10.59748 39.4191,-17.875 65.6874,-17.875 6.5232,0 12.8576,0.44705 19,1.28125 a 17.121421,17.121421 0 0 0 19.0626,-13.375 c 15.5978,-72.96945 87.1001,-129.62505 174.5312,-129.62505 z"
       id="rect6313"
       inkscape:connector-curvature="0" />
    <path
       inkscape:connector-curvature="0"
       id="path6388"
       d="m 1961.7109,63.85157 c -94.8408,0 -173.8415,61.5734 -191.2812,143.1563 -6.8915,-0.93587 -14.0065,-1.4375 -21.3126,-1.4375 -58.7074,0 -106.3124,31.73674 -106.3124,70.875 0,39.13826 47.6051,70.84375 106.3124,70.84375 18.1482,0 35.2102,-3.02954 50.1563,-8.375 34.9073,47.77229 94.6223,79.25 162.4375,79.25 67.8007,0 127.4958,-31.46357 162.4062,-79.21875 14.9441,5.34337 32.0433,8.34375 50.1876,8.34375 58.7074,0 106.2812,-31.70549 106.2812,-70.84375 0,-39.13826 -47.5738,-70.875 -106.2812,-70.875 -7.2955,0 -14.4305,0.50427 -21.3126,1.4375 -17.438,-81.5847 -96.4389,-143.1563 -191.2812,-143.1563 z m 0,17.125 c 87.4329,0 158.9343,56.654 174.5312,129.62505 a 17.121421,17.121421 0 0 0 19.0626,13.375 c 6.1345,-0.83187 12.4933,-1.28125 19,-1.28125 26.2687,0 49.7686,7.27894 65.6562,17.875 15.8876,10.59606 23.5,23.24239 23.5,35.875 0,12.63261 -7.6132,25.25472 -23.5,35.84375 -15.8868,10.58903 -39.3845,17.875 -65.6562,17.875 -16.257,0 -31.4788,-2.71025 -44.4376,-7.34375 a 17.121421,17.121421 0 0 0 -19.5624,6.03125 c -31.5374,43.14118 -86.0895,72.1875 -148.5938,72.1875 -62.5176,0 -117.0913,-29.06343 -148.625,-72.21875 a 17.121421,17.121421 0 0 0 -19.5625,-6.03125 c -12.9873,4.64491 -28.1632,7.375 -44.4063,7.375 -26.2717,0 -49.7922,-7.28454 -65.6874,-17.875 -15.8954,-10.59046 -23.5,-23.21569 -23.5,-35.84375 -2e-4,-12.62804 7.6036,-25.27752 23.5,-35.875 15.8961,-10.59748 39.4188,-17.875 65.6874,-17.875 6.5226,0 12.8574,0.44705 19,1.28125 a 17.121421,17.121421 0 0 0 19.0626,-13.375 c 15.5983,-72.96945 87.1001,-129.62505 174.5312,-129.62505 z"
       style="fill:none;stroke:#000000;stroke-width:3.54330707;stroke-miterlimit:4;stroke-opacity:1;stroke-dasharray:none" />
    <path
       style="fill:none;stroke:#0000ff;stroke-width:3.54330707;stroke-miterlimit:4;stroke-opacity:1;stroke-dasharray:none"
       d="m 2435.8772,-1231.6574 c -94.8408,0 -173.8419,61.5734 -191.2812,143.1563 -6.8922,-0.9359 -14.0064,-1.4375 -21.3126,-1.4375 -58.7074,0 -106.3124,31.7367 -106.3124,70.875 0,34.24595 36.4336,62.8025 84.875,69.40622 0.01,0.001 0.021,-0.001 0.031,0 1.2152,0.16542 2.4534,0.29811 3.6875,0.4375 l 0,-16.71875 35.4063,0 0,16.75 c 2.9059,-0.32449 5.7695,-0.70833 8.5937,-1.1875 0.3322,-0.0564 0.6483,-0.14518 0.9687,-0.21875 8.0461,-1.41996 15.7235,-3.43108 22.9063,-6 18.4869,25.30023 43.923,46.03308 73.8437,59.9375 l 0,-51.5625 10.625,0 0,-17.71875 -28.3437,0 0,39.6875 c -16.6259,-11.18657 -30.9571,-24.89707 -42.3125,-40.4375 a 17.121421,17.121421 0 0 0 -19.5625,-6.03125 c -5.0457,1.80459 -10.4219,3.32126 -16.0625,4.5 l 0,-0.0937 0,-8.25 -56.7188,0 0,8.28125 c -14.5966,-3.07316 -27.4353,-8.35651 -37.3124,-14.9375 -15.8962,-10.59046 -23.5,-23.21572 -23.5,-35.84372 -9e-4,-12.6281 7.6032,-25.2776 23.5,-35.875 15.8958,-10.5975 39.4195,-17.875 65.6874,-17.875 6.5233,0 12.858,0.447 19,1.2812 a 17.121421,17.121421 0 0 0 19.0626,-13.375 c 15.5978,-72.9693 87.1001,-129.625 174.5312,-129.625 87.4329,0 158.9343,56.654 174.5312,129.625 a 17.121421,17.121421 0 0 0 19.0626,13.375 c 6.1337,-0.8318 12.4926,-1.2812 19,-1.2812 26.2681,0 49.7686,7.2789 65.6562,17.875 15.8876,10.596 23.5,23.2424 23.5,35.875 0,12.6326 -7.6132,25.25469 -23.5,35.84372 -9.8722,6.58015 -22.6917,11.89531 -37.2812,14.96875 l 0,-0.0625 0,-8.25 -56.7188,0 0,8.3125 0,0.0625 c -5.6566,-1.1743 -11.0503,-2.69668 -16.0938,-4.5 a 17.121421,17.121421 0 0 0 -19.5624,6.03125 c -11.3475,15.52175 -25.7088,29.19872 -42.3126,40.375 l 0,-39.65625 -28.3437,0 0,17.71875 10.625,0 0,51.5625 c 29.9138,-13.89868 55.3555,-34.61527 73.8437,-59.90625 9.9671,3.56365 20.9136,6.0898 32.4688,7.375 l 0,-16.75 35.4375,0 0,16.71875 c 1.2441,-0.13914 2.4908,-0.26983 3.7187,-0.4375 1.6322,-0.22282 3.2695,-0.44631 4.875,-0.71875 0.087,-0.0146 0.1655,-0.0461 0.25,-0.0625 0.1156,-0.0198 0.2287,-0.0425 0.3438,-0.0625 45.6727,-7.93963 79.375,-35.62259 79.375,-68.56247 0,-39.1383 -47.5738,-70.875 -106.2812,-70.875 -7.2962,0 -14.4304,0.5043 -21.3126,1.4375 -17.4373,-81.5847 -96.4389,-143.1563 -191.2812,-143.1563 z"
       id="path6419"
       inkscape:connector-curvature="0" />
    <path
       style="fill:none;stroke:#0000ff;stroke-width:3.54330707;stroke-miterlimit:4;stroke-opacity:1;stroke-dasharray:none"
       d="m 3108.6388,-1018.8584 c -94.8408,0 -173.8417,61.57342 -191.2812,143.15632 -6.8917,-0.9359 -14.0064,-1.4375 -21.3126,-1.4375 -58.7074,0 -106.3124,31.73674 -106.3124,70.875 0,39.13826 47.6053,70.84375 106.3124,70.84375 18.1486,0 35.2102,-3.02954 50.1563,-8.375 18.4869,25.30023 43.9227,46.03308 73.8437,59.9375 l 0,-51.5625 10.625,0 0,49.625 24.8126,0 0,-67.34375 -53.1563,0 0,39.6875 c -16.6259,-11.18657 -30.9571,-24.89707 -42.3125,-40.4375 a 17.121421,17.121421 0 0 0 -19.5625,-6.03125 c -12.9873,4.64491 -28.1629,7.375 -44.4063,7.375 -26.2717,0 -49.7924,-7.28454 -65.6874,-17.875 -15.8958,-10.59046 -23.5,-23.21569 -23.5,-35.84375 -4e-4,-12.62804 7.6032,-25.27752 23.5,-35.875 15.8958,-10.59748 39.4191,-17.875 65.6874,-17.875 6.5229,0 12.8576,0.44705 19,1.28125 a 17.121421,17.121421 0 0 0 19.0626,-13.375 c 15.598,-72.96945 87.1001,-129.62507 174.5312,-129.62507 87.4329,0 158.9343,56.65402 174.5312,129.62507 a 17.121421,17.121421 0 0 0 19.0626,13.375 c 6.1341,-0.83187 12.493,-1.28125 19,-1.28125 26.2684,0 49.7686,7.27894 65.6562,17.875 15.8876,10.59606 23.5,23.24239 23.5,35.875 0,12.63261 -7.6132,25.25472 -23.5,35.84375 -15.8868,10.58903 -39.3845,17.875 -65.6562,17.875 -16.2573,0 -31.4787,-2.71025 -44.4376,-7.34375 a 17.121421,17.121421 0 0 0 -19.5624,6.03125 c -11.3471,15.52175 -25.7088,29.19872 -42.3126,40.375 l 0,-39.65625 -53.1562,0 0,67.34375 24.8125,0 0,-49.625 10.625,0 0,51.5625 c 29.9138,-13.89868 55.3555,-34.61527 73.8437,-59.90625 14.9444,5.34337 32.0433,8.34375 50.1876,8.34375 58.7074,0 106.2812,-31.70549 106.2812,-70.84375 0,-39.13826 -47.5738,-70.875 -106.2812,-70.875 -7.2957,0 -14.4304,0.5043 -21.3126,1.4375 -17.4377,-81.5847 -96.4389,-143.15632 -191.2812,-143.15632 z"
       id="path6442"
       inkscape:connector-curvature="0" />
    <path
       inkscape:connector-curvature="0"
       id="path6476"
       d="m 1275.8772,-1231.6574 c -94.8408,0 -173.8419,61.5734 -191.2812,143.1563 -6.8922,-0.9359 -14.0064,-1.4375 -21.3126,-1.4375 -58.7074,0 -106.3124,31.7367 -106.3124,70.875 0,34.24595 36.4336,62.8025 84.875,69.40622 0.01,10e-4 0.021,-10e-4 0.031,0 1.2152,0.16542 2.4534,0.29811 3.6875,0.4375 l 0,-16.71875 35.4063,0 0,16.75 c 2.9059,-0.32449 5.7695,-0.70833 8.5937,-1.1875 0.3322,-0.0564 0.6483,-0.14518 0.9687,-0.21875 8.0461,-1.41996 15.7235,-3.43108 22.9063,-6 18.4869,25.30023 43.923,46.03308 73.8437,59.9375 l 0,-51.5625 10.625,0 0,-17.71875 -28.3437,0 0,39.6875 c -16.6259,-11.18657 -30.9571,-24.89707 -42.3125,-40.4375 a 17.121421,17.121421 0 0 0 -19.5625,-6.03125 c -5.0457,1.80459 -10.4219,3.32126 -16.0625,4.5 l 0,-0.0937 0,-8.25 -56.7188,0 0,8.28125 c -14.5966,-3.07316 -27.4353,-8.35651 -37.3124,-14.9375 -15.8962,-10.59046 -23.5,-23.21577 -23.5,-35.84367 -9e-4,-12.6282 7.6032,-25.2777 23.5,-35.875 15.8958,-10.5976 39.4195,-17.875 65.6874,-17.875 6.5233,0 12.858,0.4469 19,1.2811 a 17.121421,17.121421 0 0 0 19.0626,-13.375 c 15.5978,-72.9693 87.1001,-129.625 174.5312,-129.625 87.4329,0 158.9343,56.654 174.5312,129.625 a 17.121421,17.121421 0 0 0 19.0626,13.375 c 6.1337,-0.8317 12.4926,-1.2811 19,-1.2811 26.2681,0 49.7686,7.2789 65.6562,17.875 15.8876,10.596 23.5,23.2424 23.5,35.875 0,12.6326 -7.6132,25.25464 -23.5,35.84367 -9.8722,6.58015 -22.6917,11.89531 -37.2812,14.96875 l 0,-0.0625 0,-8.25 -56.7188,0 0,8.3125 0,0.0625 c -5.6566,-1.1743 -11.0503,-2.69668 -16.0938,-4.5 a 17.121421,17.121421 0 0 0 -19.5624,6.03125 c -11.3475,15.52175 -25.7088,29.19872 -42.3126,40.375 l 0,-39.65625 -28.3437,0 0,17.71875 10.625,0 0,51.5625 c 29.9138,-13.89868 55.3555,-34.61527 73.8437,-59.90625 9.9671,3.56365 20.9136,6.0898 32.4688,7.375 l 0,-16.75 35.4375,0 0,16.71875 c 1.2441,-0.13914 2.4908,-0.26983 3.7187,-0.4375 1.6322,-0.22282 3.2695,-0.44631 4.875,-0.71875 0.087,-0.0146 0.1655,-0.0461 0.25,-0.0625 0.1156,-0.0198 0.2287,-0.0425 0.3438,-0.0625 45.6727,-7.93963 79.375,-35.62259 79.375,-68.56242 0,-39.1384 -47.5738,-70.875 -106.2812,-70.875 -7.2962,0 -14.4304,0.5043 -21.3126,1.4375 -17.4373,-81.5847 -96.4389,-143.1564 -191.2812,-143.1564 z"
       style="fill:none;stroke:#0000ff;stroke-width:3.54330707;stroke-miterlimit:4;stroke-opacity:1;stroke-dasharray:none" />
    <path
       inkscape:connector-curvature="0"
       id="path6478"
       d="m 1398.3531,-1401.0012 c -94.8408,0 -173.8417,-61.5735 -191.2812,-143.1564 -6.8917,0.9359 -14.0064,1.4375 -21.3126,1.4375 -58.7074,0 -106.3124,-31.7367 -106.3124,-70.875 0,-39.1382 47.6053,-70.8437 106.3124,-70.8437 18.1486,0 35.2102,3.0295 50.1563,8.375 18.4869,-25.3002 43.9227,-46.0331 73.8437,-59.9375 l 0,51.5625 10.625,0 0,-49.625 24.8126,0 0,67.3437 -53.1563,0 0,-39.6875 c -16.6259,11.1866 -30.9571,24.8971 -42.3125,40.4375 a 17.121421,17.121421 0 0 1 -19.5625,6.0313 c -12.9873,-4.6449 -28.1629,-7.375 -44.4063,-7.375 -26.2717,0 -49.7924,7.2845 -65.6874,17.875 -15.8958,10.5904 -23.5,23.2157 -23.5,35.8437 -4e-4,12.6281 7.6032,25.2776 23.5,35.875 15.8958,10.5975 39.4191,17.875 65.6874,17.875 6.5229,0 12.8576,-0.447 19,-1.2812 a 17.121421,17.121421 0 0 1 19.0626,13.375 c 15.598,72.9694 87.1001,129.6251 174.5312,129.6251 87.4329,0 158.9343,-56.6541 174.5312,-129.6251 a 17.121421,17.121421 0 0 1 19.0626,-13.375 c 6.1341,0.8319 12.493,1.2812 19,1.2812 26.2684,0 49.7686,-7.2789 65.6562,-17.875 15.8876,-10.596 23.5,-23.2424 23.5,-35.875 0,-12.6326 -7.6132,-25.2547 -23.5,-35.8437 -15.8868,-10.589 -39.3845,-17.875 -65.6562,-17.875 -16.2573,0 -31.4787,2.7102 -44.4376,7.3437 a 17.121421,17.121421 0 0 1 -19.5624,-6.0312 c -11.3471,-15.5218 -25.7088,-29.1987 -42.3126,-40.375 l 0,39.6562 -53.1562,0 0,-67.3437 24.8125,0 0,49.625 10.625,0 0,-51.5625 c 29.9138,13.8987 55.3555,34.6153 73.8437,59.9062 14.9444,-5.3433 32.0433,-8.3437 50.1876,-8.3437 58.7074,0 106.2812,31.7055 106.2812,70.8437 0,39.1383 -47.5738,70.875 -106.2812,70.875 -7.2957,0 -14.4304,-0.5043 -21.3126,-1.4375 -17.4377,81.5847 -96.4389,143.1564 -191.2812,143.1564 z"
       style="fill:#000000;fill-opacity:0;stroke:#0000ff;stroke-width:3.54330707;stroke-miterlimit:4;stroke-opacity:1;stroke-dasharray:none" />
    <path
       style="fill:none;stroke:#0000ff;stroke-width:3.54330707;stroke-miterlimit:4;stroke-opacity:1;stroke-dasharray:none"
       d="m 1407.8772,-828.6574 c -94.8408,0 -173.8419,-61.5734 -191.2812,-143.1563 -6.8922,0.9359 -14.0064,1.4375 -21.3126,1.4375 -58.7074,0 -106.3124,-31.7367 -106.3124,-70.875 0,-34.246 36.4336,-62.8025 84.875,-69.4062 0.01,-10e-4 0.021,0 0.031,0 1.2152,-0.1655 2.4534,-0.2982 3.6875,-0.4375 l 0,16.7187 35.4063,0 0,-16.75 c 2.9059,0.3245 5.7695,0.7083 8.5937,1.1875 0.3322,0.056 0.6483,0.1452 0.9687,0.2188 8.0461,1.4199 15.7235,3.431 22.9063,6 18.4869,-25.3003 43.923,-46.0331 73.8437,-59.9375 l 0,51.5625 10.625,0 0,17.7187 -28.3437,0 0,-39.6875 c -16.6259,11.1866 -30.9571,24.8971 -42.3125,40.4375 a 17.121421,17.121421 0 0 1 -19.5625,6.0313 c -5.0457,-1.8046 -10.4219,-3.3213 -16.0625,-4.5 l 0,0.094 0,8.25 -56.7188,0 0,-8.2813 c -14.5966,3.0732 -27.4353,8.3565 -37.3124,14.9375 -15.8962,10.5905 -23.5,23.2158 -23.5,35.8437 -9e-4,12.6282 7.6032,25.2777 23.5,35.875 15.8958,10.5976 39.4195,17.875 65.6874,17.875 6.5233,0 12.858,-0.4469 19,-1.2811 a 17.121421,17.121421 0 0 1 19.0626,13.375 c 15.5978,72.9693 87.1001,129.625 174.5312,129.625 87.4329,0 158.9343,-56.654 174.5312,-129.625 a 17.121421,17.121421 0 0 1 19.0626,-13.375 c 6.1337,0.8317 12.4926,1.2811 19,1.2811 26.2681,0 49.7686,-7.2789 65.6562,-17.875 15.8876,-10.596 23.5,-23.2424 23.5,-35.875 0,-12.6326 -7.6132,-25.2547 -23.5,-35.8437 -9.8722,-6.5801 -22.6917,-11.8953 -37.2812,-14.9687 l 0,0.062 0,8.25 -56.7188,0 0,-8.3125 0,-0.062 c -5.6566,1.1743 -11.0503,2.6966 -16.0938,4.5 a 17.121421,17.121421 0 0 1 -19.5624,-6.0313 c -11.3475,-15.5217 -25.7088,-29.1987 -42.3126,-40.375 l 0,39.6562 -28.3437,0 0,-17.7187 10.625,0 0,-51.5625 c 29.9138,13.8987 55.3555,34.6153 73.8437,59.9062 9.9671,-3.5636 20.9136,-6.0897 32.4688,-7.3749 l 0,16.7499 35.4375,0 0,-16.7187 c 1.2441,0.1391 2.4908,0.2698 3.7187,0.4375 1.6322,0.2228 3.2695,0.4463 4.875,0.7188 0.087,0.015 0.1655,0.046 0.25,0.062 0.1156,0.02 0.2287,0.043 0.3438,0.062 45.6727,7.9396 79.375,35.6225 79.375,68.5624 0,39.1384 -47.5738,70.875 -106.2812,70.875 -7.2962,0 -14.4304,-0.5043 -21.3126,-1.4375 -17.4373,81.5847 -96.4389,143.1564 -191.2812,143.1564 z"
       id="path6486"
       inkscape:connector-curvature="0" />
    <path
       inkscape:connector-curvature="0"
       id="path6494"
       d="m 1260.3218,-1800.2871 c 94.8408,0 173.8417,61.5735 191.2812,143.1565 6.8917,-0.9359 14.0064,-1.4375 21.3126,-1.4375 58.7074,0 106.3124,31.7366 106.3124,70.875 0,39.1382 -47.6053,70.8436 -106.3124,70.8436 -18.1486,0 -35.2102,-3.0295 -50.1563,-8.375 -18.4869,25.3002 -43.9227,46.0332 -73.8437,59.9375 l 0,-51.5625 -10.625,0 0,49.625 -24.8126,0 0,-67.3436 53.1563,0 0,39.6875 c 16.6259,-11.1866 30.9571,-24.8971 42.3125,-40.4375 a 17.121421,17.121421 0 0 1 19.5625,-6.0314 c 12.9873,4.6449 28.1629,7.375 44.4064,7.375 26.2717,0 49.7924,-7.2845 65.6874,-17.875 15.8958,-10.5904 23.5,-23.2157 23.5,-35.8436 3e-4,-12.6281 -7.6032,-25.2776 -23.5,-35.875 -15.8958,-10.5976 -39.4192,-17.875 -65.6874,-17.875 -6.5229,0 -12.8577,0.4469 -19,1.2811 a 17.121421,17.121421 0 0 1 -19.0626,-13.375 c -15.598,-72.9693 -87.1001,-129.6251 -174.5313,-129.6251 -87.4329,0 -158.9342,56.6541 -174.5311,129.6251 a 17.121421,17.121421 0 0 1 -19.0626,13.375 c -6.1341,-0.8318 -12.493,-1.2811 -19,-1.2811 -26.2684,0 -49.7687,7.2789 -65.6562,17.875 -15.8876,10.596 -23.5,23.2424 -23.5,35.875 0,12.6325 7.6132,25.2547 23.5,35.8436 15.8868,10.589 39.3845,17.875 65.6562,17.875 16.2573,0 31.4786,-2.7102 44.4376,-7.3436 a 17.121421,17.121421 0 0 1 19.5624,6.0311 c 11.347,15.5218 25.7088,29.1987 42.3126,40.375 l 0,-39.6561 53.1561,0 0,67.3436 -24.8125,0 0,-49.625 -10.625,0 0,51.5625 c -29.9138,-13.8986 -55.3554,-34.6152 -73.8436,-59.9061 -14.9445,5.3433 -32.0434,8.3436 -50.1876,8.3436 -58.7074,0 -106.2812,-31.7055 -106.2812,-70.8436 0,-39.1384 47.5738,-70.875 106.2812,-70.875 7.2956,0 14.4304,0.5043 21.3126,1.4375 17.4376,-81.5848 96.4389,-143.1565 191.2811,-143.1565 z"
       style="fill:#000000;fill-opacity:0;stroke:#0000ff;stroke-width:3.54330707;stroke-miterlimit:4;stroke-opacity:1;stroke-dasharray:none" />
    <path
       inkscape:connector-curvature="0"
       id="path6508"
       d="m 1488.3531,-1739.0012 c -94.8408,0 -173.8417,-61.5735 -191.2812,-143.1564 -6.8917,0.9359 -14.0064,1.4375 -21.3126,1.4375 -58.7074,0 -106.3124,-31.7367 -106.3124,-70.875 0,-39.1382 47.6053,-70.8437 106.3124,-70.8437 18.1486,0 35.2102,3.0295 50.1563,8.375 18.4869,-25.3002 43.9227,-46.0331 73.8437,-59.9375 l 0,51.5625 10.625,0 0,-49.625 24.8126,0 0,67.3437 -53.1563,0 0,-39.6875 c -16.6259,11.1866 -30.9571,24.8971 -42.3125,40.4375 a 17.121421,17.121421 0 0 1 -19.5625,6.0313 c -12.9873,-4.6449 -28.1629,-7.375 -44.4063,-7.375 -26.2717,0 -49.7924,7.2845 -65.6874,17.875 -15.8958,10.5904 -23.5,23.2157 -23.5,35.8437 -4e-4,12.6281 7.6032,25.2776 23.5,35.875 15.8958,10.5975 39.4191,17.875 65.6874,17.875 6.5229,0 12.8576,-0.447 19,-1.2812 a 17.121421,17.121421 0 0 1 19.0626,13.375 c 15.598,72.9694 87.1001,129.6251 174.5312,129.6251 87.4329,0 158.9343,-56.6541 174.5312,-129.6251 a 17.121421,17.121421 0 0 1 19.0626,-13.375 c 6.1341,0.8319 12.493,1.2812 19,1.2812 26.2684,0 49.7686,-7.2789 65.6562,-17.875 15.8876,-10.596 23.5,-23.2424 23.5,-35.875 0,-12.6326 -7.6132,-25.2547 -23.5,-35.8437 -15.8868,-10.589 -39.3845,-17.875 -65.6562,-17.875 -16.2573,0 -31.4787,2.7102 -44.4376,7.3437 a 17.121421,17.121421 0 0 1 -19.5624,-6.0312 c -11.3471,-15.5218 -25.7088,-29.1987 -42.3126,-40.375 l 0,39.6562 -53.1562,0 0,-67.3437 24.8125,0 0,49.625 10.625,0 0,-51.5625 c 29.9138,13.8987 55.3555,34.6153 73.8437,59.9062 14.9444,-5.3433 32.0433,-8.3437 50.1876,-8.3437 58.7074,0 106.2812,31.7055 106.2812,70.8437 0,39.1383 -47.5738,70.875 -106.2812,70.875 -7.2957,0 -14.4304,-0.5043 -21.3126,-1.4375 -17.4377,81.5847 -96.4389,143.1564 -191.2812,143.1564 z"
       style="fill:#000000;fill-opacity:0;stroke:#0000ff;stroke-width:3.54330707;stroke-miterlimit:4;stroke-opacity:1;stroke-dasharray:none" />
    <path
       inkscape:connector-curvature="0"
       id="path6510"
       d="m 1350.3218,-2138.2871 c 94.8408,0 173.8417,61.5735 191.2812,143.1565 6.8917,-0.9359 14.0064,-1.4375 21.3126,-1.4375 58.7074,0 106.3124,31.7366 106.3124,70.875 0,39.1382 -47.6053,70.8436 -106.3124,70.8436 -18.1486,0 -35.2102,-3.0295 -50.1563,-8.375 -18.4869,25.3002 -43.9227,46.0332 -73.8437,59.9375 l 0,-51.5625 -10.625,0 0,49.625 -24.8126,0 0,-67.3436 53.1563,0 0,39.6875 c 16.6259,-11.1866 30.9571,-24.8971 42.3125,-40.4375 a 17.121421,17.121421 0 0 1 19.5625,-6.0314 c 12.9873,4.6449 28.1629,7.375 44.4064,7.375 26.2717,0 49.7924,-7.2845 65.6874,-17.875 15.8958,-10.5904 23.5,-23.2157 23.5,-35.8436 3e-4,-12.6281 -7.6032,-25.2776 -23.5,-35.875 -15.8958,-10.5976 -39.4192,-17.875 -65.6874,-17.875 -6.5229,0 -12.8577,0.4469 -19,1.2811 a 17.121421,17.121421 0 0 1 -19.0626,-13.375 c -15.598,-72.9693 -87.1001,-129.6251 -174.5313,-129.6251 -87.4329,0 -158.9342,56.6541 -174.5311,129.6251 a 17.121421,17.121421 0 0 1 -19.0626,13.375 c -6.1341,-0.8318 -12.493,-1.2811 -19,-1.2811 -26.2684,0 -49.7687,7.2789 -65.6562,17.875 -15.8876,10.596 -23.5,23.2424 -23.5,35.875 0,12.6325 7.6132,25.2547 23.5,35.8436 15.8868,10.589 39.3845,17.875 65.6562,17.875 16.2573,0 31.4786,-2.7102 44.4376,-7.3436 a 17.121421,17.121421 0 0 1 19.5624,6.0311 c 11.347,15.5218 25.7088,29.1987 42.3126,40.375 l 0,-39.6561 53.1561,0 0,67.3436 -24.8125,0 0,-49.625 -10.625,0 0,51.5625 c -29.9138,-13.8986 -55.3554,-34.6152 -73.8436,-59.9061 -14.9445,5.3433 -32.0434,8.3436 -50.1876,8.3436 -58.7074,0 -106.2812,-31.7055 -106.2812,-70.8436 0,-39.1384 47.5738,-70.875 106.2812,-70.875 7.2956,0 14.4304,0.5043 21.3126,1.4375 17.4376,-81.5848 96.4389,-143.1565 191.2811,-143.1565 z"
       style="fill:#000000;fill-opacity:0;stroke:#0000ff;stroke-width:3.54330707;stroke-miterlimit:4;stroke-opacity:1;stroke-dasharray:none" />
    <path
       style="fill:#000000;fill-opacity:0;stroke:#0000ff;stroke-width:3.54330707;stroke-miterlimit:4;stroke-opacity:1;stroke-dasharray:none"
       d="m 2028.3531,-1287.0012 c -94.8408,0 -173.8417,-61.5735 -191.2812,-143.1564 -6.8917,0.9359 -14.0064,1.4375 -21.3126,1.4375 -58.7074,0 -106.3124,-31.7367 -106.3124,-70.875 0,-39.1382 47.6053,-70.8437 106.3124,-70.8437 18.1486,0 35.2102,3.0295 50.1563,8.375 18.4869,-25.3002 43.9227,-46.0331 73.8437,-59.9375 l 0,51.5625 10.625,0 0,-49.625 24.8126,0 0,67.3437 -53.1563,0 0,-39.6875 c -16.6259,11.1866 -30.9571,24.8971 -42.3125,40.4375 a 17.121421,17.121421 0 0 1 -19.5625,6.0313 c -12.9873,-4.6449 -28.1629,-7.375 -44.4063,-7.375 -26.2717,0 -49.7924,7.2845 -65.6874,17.875 -15.8958,10.5904 -23.5,23.2157 -23.5,35.8437 -4e-4,12.6281 7.6032,25.2776 23.5,35.875 15.8958,10.5975 39.4191,17.875 65.6874,17.875 6.5229,0 12.8576,-0.447 19,-1.2812 a 17.121421,17.121421 0 0 1 19.0626,13.375 c 15.598,72.9694 87.1001,129.6251 174.5312,129.6251 87.4329,0 158.9343,-56.6541 174.5312,-129.6251 a 17.121421,17.121421 0 0 1 19.0626,-13.375 c 6.1341,0.8319 12.493,1.2812 19,1.2812 26.2684,0 49.7686,-7.2789 65.6562,-17.875 15.8876,-10.596 23.5,-23.2424 23.5,-35.875 0,-12.6326 -7.6132,-25.2547 -23.5,-35.8437 -15.8868,-10.589 -39.3845,-17.875 -65.6562,-17.875 -16.2573,0 -31.4787,2.7102 -44.4376,7.3437 a 17.121421,17.121421 0 0 1 -19.5624,-6.0312 c -11.3471,-15.5218 -25.7088,-29.1987 -42.3126,-40.375 l 0,39.6562 -53.1562,0 0,-67.3437 24.8125,0 0,49.625 10.625,0 0,-51.5625 c 29.9138,13.8987 55.3555,34.6153 73.8437,59.9062 14.9444,-5.3433 32.0433,-8.3437 50.1876,-8.3437 58.7074,0 106.2812,31.7055 106.2812,70.8437 0,39.1383 -47.5738,70.875 -106.2812,70.875 -7.2957,0 -14.4304,-0.5043 -21.3126,-1.4375 -17.4377,81.5847 -96.4389,143.1564 -191.2812,143.1564 z"
       id="path6516"
       inkscape:connector-curvature="0" />
    <path
       style="fill:#000000;fill-opacity:0;stroke:#0000ff;stroke-width:3.54330707;stroke-miterlimit:4;stroke-opacity:1;stroke-dasharray:none"
       d="m 1890.3218,-1686.2871 c 94.8408,0 173.8417,61.5735 191.2812,143.1565 6.8917,-0.9359 14.0064,-1.4375 21.3126,-1.4375 58.7074,0 106.3124,31.7366 106.3124,70.875 0,39.1382 -47.6053,70.8436 -106.3124,70.8436 -18.1486,0 -35.2102,-3.0295 -50.1563,-8.375 -18.4869,25.3002 -43.9227,46.0332 -73.8437,59.9375 l 0,-51.5625 -10.625,0 0,49.625 -24.8126,0 0,-67.3436 53.1563,0 0,39.6875 c 16.6259,-11.1866 30.9571,-24.8971 42.3125,-40.4375 a 17.121421,17.121421 0 0 1 19.5625,-6.0314 c 12.9873,4.6449 28.1629,7.375 44.4064,7.375 26.2717,0 49.7924,-7.2845 65.6874,-17.875 15.8958,-10.5904 23.5,-23.2157 23.5,-35.8436 3e-4,-12.6281 -7.6032,-25.2776 -23.5,-35.875 -15.8958,-10.5976 -39.4192,-17.875 -65.6874,-17.875 -6.5229,0 -12.8577,0.4469 -19,1.2811 a 17.121421,17.121421 0 0 1 -19.0626,-13.375 c -15.598,-72.9693 -87.1001,-129.6251 -174.5313,-129.6251 -87.4329,0 -158.9342,56.6541 -174.5311,129.6251 a 17.121421,17.121421 0 0 1 -19.0626,13.375 c -6.1341,-0.8318 -12.493,-1.2811 -19,-1.2811 -26.2684,0 -49.7687,7.2789 -65.6562,17.875 -15.8876,10.596 -23.5,23.2424 -23.5,35.875 0,12.6325 7.6132,25.2547 23.5,35.8436 15.8868,10.589 39.3845,17.875 65.6562,17.875 16.2573,0 31.4786,-2.7102 44.4376,-7.3436 a 17.121421,17.121421 0 0 1 19.5624,6.0311 c 11.347,15.5218 25.7088,29.1987 42.3126,40.375 l 0,-39.6561 53.1561,0 0,67.3436 -24.8125,0 0,-49.625 -10.625,0 0,51.5625 c -29.9138,-13.8986 -55.3554,-34.6152 -73.8436,-59.9061 -14.9445,5.3433 -32.0434,8.3436 -50.1876,8.3436 -58.7074,0 -106.2812,-31.7055 -106.2812,-70.8436 0,-39.1384 47.5738,-70.875 106.2812,-70.875 7.2956,0 14.4304,0.5043 21.3126,1.4375 17.4376,-81.5848 96.4389,-143.1565 191.2811,-143.1565 z"
       id="path6518"
       inkscape:connector-curvature="0" />
    <path
       style="fill:#000000;fill-opacity:0;stroke:#0000ff;stroke-width:3.54330707;stroke-miterlimit:4;stroke-opacity:1;stroke-dasharray:none"
       d="m 2118.3531,-1625.0012 c -94.8408,0 -173.8417,-61.5735 -191.2812,-143.1564 -6.8917,0.9359 -14.0064,1.4375 -21.3126,1.4375 -58.7074,0 -106.3124,-31.7367 -106.3124,-70.875 0,-39.1382 47.6053,-70.8437 106.3124,-70.8437 18.1486,0 35.2102,3.0295 50.1563,8.375 18.4869,-25.3002 43.9227,-46.0331 73.8437,-59.9375 l 0,51.5625 10.625,0 0,-49.625 24.8126,0 0,67.3437 -53.1563,0 0,-39.6875 c -16.6259,11.1866 -30.9571,24.8971 -42.3125,40.4375 a 17.121421,17.121421 0 0 1 -19.5625,6.0313 c -12.9873,-4.6449 -28.1629,-7.375 -44.4063,-7.375 -26.2717,0 -49.7924,7.2845 -65.6874,17.875 -15.8958,10.5904 -23.5,23.2157 -23.5,35.8437 -4e-4,12.6281 7.6032,25.2776 23.5,35.875 15.8958,10.5975 39.4191,17.875 65.6874,17.875 6.5229,0 12.8576,-0.447 19,-1.2812 a 17.121421,17.121421 0 0 1 19.0626,13.375 c 15.598,72.9694 87.1001,129.6251 174.5312,129.6251 87.4329,0 158.9343,-56.6541 174.5312,-129.6251 a 17.121421,17.121421 0 0 1 19.0626,-13.375 c 6.1341,0.8319 12.493,1.2812 19,1.2812 26.2684,0 49.7686,-7.2789 65.6562,-17.875 15.8876,-10.596 23.5,-23.2424 23.5,-35.875 0,-12.6326 -7.6132,-25.2547 -23.5,-35.8437 -15.8868,-10.589 -39.3845,-17.875 -65.6562,-17.875 -16.2573,0 -31.4787,2.7102 -44.4376,7.3437 a 17.121421,17.121421 0 0 1 -19.5624,-6.0312 c -11.3471,-15.5218 -25.7088,-29.1987 -42.3126,-40.375 l 0,39.6562 -53.1562,0 0,-67.3437 24.8125,0 0,49.625 10.625,0 0,-51.5625 c 29.9138,13.8987 55.3555,34.6153 73.8437,59.9062 14.9444,-5.3433 32.0433,-8.3437 50.1876,-8.3437 58.7074,0 106.2812,31.7055 106.2812,70.8437 0,39.1383 -47.5738,70.875 -106.2812,70.875 -7.2957,0 -14.4304,-0.5043 -21.3126,-1.4375 -17.4377,81.5847 -96.4389,143.1564 -191.2812,143.1564 z"
       id="path6520"
       inkscape:connector-curvature="0" />
    <path
       style="fill:#000000;fill-opacity:0;stroke:#0000ff;stroke-width:3.54330707;stroke-miterlimit:4;stroke-opacity:1;stroke-dasharray:none"
       d="m 1980.3218,-2024.2871 c 94.8408,0 173.8417,61.5735 191.2812,143.1565 6.8917,-0.9359 14.0064,-1.4375 21.3126,-1.4375 58.7074,0 106.3124,31.7366 106.3124,70.875 0,39.1382 -47.6053,70.8436 -106.3124,70.8436 -18.1486,0 -35.2102,-3.0295 -50.1563,-8.375 -18.4869,25.3002 -43.9227,46.0332 -73.8437,59.9375 l 0,-51.5625 -10.625,0 0,49.625 -24.8126,0 0,-67.3436 53.1563,0 0,39.6875 c 16.6259,-11.1866 30.9571,-24.8971 42.3125,-40.4375 a 17.121421,17.121421 0 0 1 19.5625,-6.0314 c 12.9873,4.6449 28.1629,7.375 44.4064,7.375 26.2717,0 49.7924,-7.2845 65.6874,-17.875 15.8958,-10.5904 23.5,-23.2157 23.5,-35.8436 3e-4,-12.6281 -7.6032,-25.2776 -23.5,-35.875 -15.8958,-10.5976 -39.4192,-17.875 -65.6874,-17.875 -6.5229,0 -12.8577,0.4469 -19,1.2811 a 17.121421,17.121421 0 0 1 -19.0626,-13.375 c -15.598,-72.9693 -87.1001,-129.6251 -174.5313,-129.6251 -87.4329,0 -158.9342,56.6541 -174.5311,129.6251 a 17.121421,17.121421 0 0 1 -19.0626,13.375 c -6.1341,-0.8318 -12.493,-1.2811 -19,-1.2811 -26.2684,0 -49.7687,7.2789 -65.6562,17.875 -15.8876,10.596 -23.5,23.2424 -23.5,35.875 0,12.6325 7.6132,25.2547 23.5,35.8436 15.8868,10.589 39.3845,17.875 65.6562,17.875 16.2573,0 31.4786,-2.7102 44.4376,-7.3436 a 17.121421,17.121421 0 0 1 19.5624,6.0311 c 11.347,15.5218 25.7088,29.1987 42.3126,40.375 l 0,-39.6561 53.1561,0 0,67.3436 -24.8125,0 0,-49.625 -10.625,0 0,51.5625 c -29.9138,-13.8986 -55.3554,-34.6152 -73.8436,-59.9061 -14.9445,5.3433 -32.0434,8.3436 -50.1876,8.3436 -58.7074,0 -106.2812,-31.7055 -106.2812,-70.8436 0,-39.1384 47.5738,-70.875 106.2812,-70.875 7.2956,0 14.4304,0.5043 21.3126,1.4375 17.4376,-81.5848 96.4389,-143.1565 191.2811,-143.1565 z"
       id="path6522"
       inkscape:connector-curvature="0" />
  </g>
</svg>
