999
DXF created by Inkscape
  0
SECTION
  2
HEADER
  9
$ACADVER
  1
AC1014
  9
$HANDSEED
  5
FFFF
  9
$MEASUREMENT
 70
     1
  0
ENDSEC
  0
SECTION
  2
TABLES
  0
TABLE
  2
VPORT
  5
8
330
0
100
AcDbSymbolTable
 70
     4
  0
VPORT
  5
2E
330
8
100
AcDbSymbolTableRecord
100
AcDbViewportTableRecord
  2
*ACTIVE
 70
     0
 10
0.0
 20
0.0
 11
1.0
 21
1.0
 12
210.0
 22
148.5
 13
0.0
 23
0.0
 14
10.0
 24
10.0
 15
10.0
 25
10.0
 16
0.0
 26
0.0
 36
1.0
 17
0.0
 27
0.0
 37
0.0
 40
341.0
 41
1.24
 42
50.0
 43
0.0
 44
0.0
 50
0.0
 51
0.0
 71
     0
 72
   100
 73
     1
 74
     3
 75
     0
 76
     0
 77
     0
 78
     0
  0
ENDTAB
  0
TABLE
  2
LTYPE
  5
5
330
0
100
AcDbSymbolTable
 70
     1
  0
LTYPE
  5
14
330
5
100
AcDbSymbolTableRecord
100
AcDbLinetypeTableRecord
  2
BYBLOCK
 70
     0
  3

 72
    65
 73
     0
 40
0.0
  0
LTYPE
  5
15
330
5
100
AcDbSymbolTableRecord
100
AcDbLinetypeTableRecord
  2
BYLAYER
 70
     0
  3

 72
    65
 73
     0
 40
0.0
  0
LTYPE
  5
16
330
5
100
AcDbSymbolTableRecord
100
AcDbLinetypeTableRecord
  2
CONTINUOUS
 70
     0
  3
Solid line
 72
    65
 73
     0
 40
0.0
  0
ENDTAB
  0
TABLE
  2
LAYER
  5
2
100
AcDbSymbolTable
 70
1
  0
LAYER
  5
50
100
AcDbSymbolTableRecord
100
AcDbLayerTableRecord
  2
0
 70
0
  6
CONTINUOUS
  0
ENDTAB
  0
TABLE
  2
STYLE
  5
3
330
0
100
AcDbSymbolTable
 70
     1
  0
STYLE
  5
11
330
3
100
AcDbSymbolTableRecord
100
AcDbTextStyleTableRecord
  2
STANDARD
 70
     0
 40
0.0
 41
1.0
 50
0.0
 71
     0
 42
2.5
  3
txt
  4

  0
ENDTAB
  0
TABLE
  2
VIEW
  5
6
330
0
100
AcDbSymbolTable
 70
     0
  0
ENDTAB
  0
TABLE
  2
UCS
  5
7
330
0
100
AcDbSymbolTable
 70
     0
  0
ENDTAB
  0
TABLE
  2
APPID
  5
9
330
0
100
AcDbSymbolTable
 70
     2
  0
APPID
  5
12
330
9
100
AcDbSymbolTableRecord
100
AcDbRegAppTableRecord
  2
ACAD
 70
     0
  0
ENDTAB
  0
TABLE
  2
DIMSTYLE
  5
A
330
0
100
AcDbSymbolTable
 70
     1
  0
DIMSTYLE
105
27
330
A
100
AcDbSymbolTableRecord
100
AcDbDimStyleTableRecord
  2
ISO-25
 70
     0
  3

  4

  5

  6

  7

 40
1.0
 41
2.5
 42
0.625
 43
3.75
 44
1.25
 45
0.0
 46
0.0
 47
0.0
 48
0.0
140
2.5
141
2.5
142
0.0
143
0.03937007874016
144
1.0
145
0.0
146
1.0
147
0.625
 71
     0
 72
     0
 73
     0
 74
     0
 75
     0
 76
     0
 77
     1
 78
     8
170
     0
171
     3
172
     1
173
     0
174
     0
175
     0
176
     0
177
     0
178
     0
270
     2
271
     2
272
     2
273
     2
274
     3
340
11
275
     0
280
     0
281
     0
282
     0
283
     0
284
     8
285
     0
286
     0
287
     3
288
     0
  0
ENDTAB
  0
TABLE
  2
BLOCK_RECORD
  5
1
330
0
100
AcDbSymbolTable
 70
     1
  0
BLOCK_RECORD
  5
1F
330
1
100
AcDbSymbolTableRecord
100
AcDbBlockTableRecord
  2
*MODEL_SPACE
  0
BLOCK_RECORD
  5
1B
330
1
100
AcDbSymbolTableRecord
100
AcDbBlockTableRecord
  2
*PAPER_SPACE
  0
ENDTAB
  0
ENDSEC
  0
SECTION
  2
BLOCKS
  0
BLOCK
  5
20
330
1F
100
AcDbEntity
  8
0
100
AcDbBlockBegin
  2
*MODEL_SPACE
 70
     0
 10
0.0
 20
0.0
 30
0.0
  3
*MODEL_SPACE
  1

  0
ENDBLK
  5
21
330
1F
100
AcDbEntity
  8
0
100
AcDbBlockEnd
  0
BLOCK
  5
1C
330
1B
100
AcDbEntity
 67
     1
  8
0
100
AcDbBlockBegin
  2
*PAPER_SPACE
  1

  0
ENDBLK
  5
1D
330
1B
100
AcDbEntity
 67
     1
  8
0
100
AcDbBlockEnd
  0
ENDSEC
  0
SECTION
  2
ENTITIES
  0
LWPOLYLINE
  5
100
100
AcDbEntity
  8
0
 62
7
100
AcDbPolyline
 90
53
 70
0
 10
-488.178997
 20
-141.821704
 30
0.0
 10
-488.178997
 20
141.820307
 30
0.0
 10
-472.617998
 20
141.820307
 30
0.0
 10
-472.617998
 20
149.999308
 30
0.0
 10
-457.073000
 20
149.999308
 30
0.0
 10
-457.073000
 20
141.820307
 30
0.0
 10
-441.507005
 20
141.820307
 30
0.0
 10
-441.507005
 20
149.999308
 30
0.0
 10
-425.962008
 20
149.999308
 30
0.0
 10
-425.962008
 20
141.820307
 30
0.0
 10
-410.396013
 20
141.820307
 30
0.0
 10
-410.396013
 20
149.999308
 30
0.0
 10
-394.849999
 20
149.999308
 30
0.0
 10
-394.849999
 20
141.820307
 30
0.0
 10
-379.284992
 20
141.820307
 30
0.0
 10
-379.284992
 20
149.999308
 30
0.0
 10
-363.739007
 20
149.999308
 30
0.0
 10
-363.739007
 20
141.820307
 30
0.0
 10
-356.357992
 20
141.820307
 30
0.0
 10
-356.357992
 20
116.661308
 30
0.0
 10
-348.178995
 20
116.661308
 30
0.0
 10
-348.178995
 20
83.337307
 30
0.0
 10
-356.357992
 20
83.337307
 30
0.0
 10
-356.357992
 20
49.994306
 30
0.0
 10
-348.178995
 20
49.994306
 30
0.0
 10
-348.178995
 20
16.671307
 30
0.0
 10
-356.357992
 20
16.671307
 30
0.0
 10
-356.357992
 20
-16.672687
 30
0.0
 10
-348.178995
 20
-16.672687
 30
0.0
 10
-348.178995
 20
-49.995681
 30
0.0
 10
-356.357992
 20
-49.995681
 30
0.0
 10
-356.357992
 20
-83.338684
 30
0.0
 10
-348.178995
 20
-83.338684
 30
0.0
 10
-348.178995
 20
-116.662694
 30
0.0
 10
-356.357992
 20
-116.662694
 30
0.0
 10
-356.357992
 20
-141.821704
 30
0.0
 10
-363.739007
 20
-141.821704
 30
0.0
 10
-363.739007
 20
-150.000702
 30
0.0
 10
-379.284992
 20
-150.000702
 30
0.0
 10
-379.284992
 20
-141.821704
 30
0.0
 10
-394.849999
 20
-141.821704
 30
0.0
 10
-394.849999
 20
-150.000702
 30
0.0
 10
-410.396013
 20
-150.000702
 30
0.0
 10
-410.396013
 20
-141.821704
 30
0.0
 10
-425.962008
 20
-141.821704
 30
0.0
 10
-425.962008
 20
-150.000702
 30
0.0
 10
-441.507005
 20
-150.000702
 30
0.0
 10
-441.507005
 20
-141.821704
 30
0.0
 10
-457.073000
 20
-141.821704
 30
0.0
 10
-457.073000
 20
-150.000702
 30
0.0
 10
-472.617998
 20
-150.000702
 30
0.0
 10
-472.617998
 20
-141.821704
 30
0.0
 10
-488.178997
 20
-141.821704
 30
0.0
  0
LWPOLYLINE
  5
101
100
AcDbEntity
  8
0
 62
7
100
AcDbPolyline
 90
37
 70
0
 10
-473.679012
 20
49.999307
 30
0.0
 10
-473.594994
 20
50.954308
 30
0.0
 10
-473.347006
 20
51.880307
 30
0.0
 10
-472.941989
 20
52.749306
 30
0.0
 10
-472.391994
 20
53.534307
 30
0.0
 10
-471.714012
 20
54.212307
 30
0.0
 10
-470.929010
 20
54.762307
 30
0.0
 10
-470.059992
 20
55.167307
 30
0.0
 10
-469.133992
 20
55.415307
 30
0.0
 10
-468.179009
 20
55.499308
 30
0.0
 10
-467.223997
 20
55.415307
 30
0.0
 10
-466.297998
 20
55.167307
 30
0.0
 10
-465.429007
 20
54.762307
 30
0.0
 10
-464.642990
 20
54.212307
 30
0.0
 10
-463.965996
 20
53.534307
 30
0.0
 10
-463.416001
 20
52.749306
 30
0.0
 10
-463.009996
 20
51.880307
 30
0.0
 10
-462.762007
 20
50.954308
 30
0.0
 10
-462.679006
 20
49.999307
 30
0.0
 10
-462.762007
 20
49.044307
 30
0.0
 10
-463.009996
 20
48.118308
 30
0.0
 10
-463.416001
 20
47.249306
 30
0.0
 10
-463.965996
 20
46.464307
 30
0.0
 10
-464.642990
 20
45.786308
 30
0.0
 10
-465.429007
 20
45.236308
 30
0.0
 10
-466.297998
 20
44.831308
 30
0.0
 10
-467.223997
 20
44.583308
 30
0.0
 10
-468.179009
 20
44.499307
 30
0.0
 10
-469.133992
 20
44.583308
 30
0.0
 10
-470.059992
 20
44.831308
 30
0.0
 10
-470.929010
 20
45.236308
 30
0.0
 10
-471.714012
 20
45.786308
 30
0.0
 10
-472.391994
 20
46.464307
 30
0.0
 10
-472.941989
 20
47.249306
 30
0.0
 10
-473.347006
 20
48.118308
 30
0.0
 10
-473.594994
 20
49.044307
 30
0.0
 10
-473.679012
 20
49.999307
 30
0.0
  0
LWPOLYLINE
  5
102
100
AcDbEntity
  8
0
 62
7
100
AcDbPolyline
 90
37
 70
0
 10
-473.679012
 20
119.999308
 30
0.0
 10
-473.594994
 20
120.954306
 30
0.0
 10
-473.347006
 20
121.880308
 30
0.0
 10
-472.941989
 20
122.749307
 30
0.0
 10
-472.391994
 20
123.534308
 30
0.0
 10
-471.714012
 20
124.212308
 30
0.0
 10
-470.929010
 20
124.762308
 30
0.0
 10
-470.059992
 20
125.167308
 30
0.0
 10
-469.133992
 20
125.415308
 30
0.0
 10
-468.179009
 20
125.499309
 30
0.0
 10
-467.223997
 20
125.415308
 30
0.0
 10
-466.297998
 20
125.167308
 30
0.0
 10
-465.429007
 20
124.762308
 30
0.0
 10
-464.642990
 20
124.212308
 30
0.0
 10
-463.965996
 20
123.534308
 30
0.0
 10
-463.416001
 20
122.749307
 30
0.0
 10
-463.009996
 20
121.880308
 30
0.0
 10
-462.762007
 20
120.954306
 30
0.0
 10
-462.679006
 20
119.999308
 30
0.0
 10
-462.762007
 20
119.044308
 30
0.0
 10
-463.009996
 20
118.118306
 30
0.0
 10
-463.416001
 20
117.249307
 30
0.0
 10
-463.965996
 20
116.464306
 30
0.0
 10
-464.642990
 20
115.786306
 30
0.0
 10
-465.429007
 20
115.236306
 30
0.0
 10
-466.297998
 20
114.831306
 30
0.0
 10
-467.223997
 20
114.583306
 30
0.0
 10
-468.179009
 20
114.499308
 30
0.0
 10
-469.133992
 20
114.583306
 30
0.0
 10
-470.059992
 20
114.831306
 30
0.0
 10
-470.929010
 20
115.236306
 30
0.0
 10
-471.714012
 20
115.786306
 30
0.0
 10
-472.391994
 20
116.464306
 30
0.0
 10
-472.941989
 20
117.249307
 30
0.0
 10
-473.347006
 20
118.118306
 30
0.0
 10
-473.594994
 20
119.044308
 30
0.0
 10
-473.679012
 20
119.999308
 30
0.0
  0
LWPOLYLINE
  5
103
100
AcDbEntity
  8
0
 62
7
100
AcDbPolyline
 90
31
 70
0
 10
-344.089002
 20
-141.821704
 30
0.0
 10
-344.089002
 20
-107.148701
 30
0.0
 10
-335.910005
 20
-107.148701
 30
0.0
 10
-335.910005
 20
-64.281685
 30
0.0
 10
-344.089002
 20
-64.281685
 30
0.0
 10
-344.089002
 20
-21.434679
 30
0.0
 10
-335.910005
 20
-21.434679
 30
0.0
 10
-335.910005
 20
21.433307
 30
0.0
 10
-344.089002
 20
21.433307
 30
0.0
 10
-344.089002
 20
64.280308
 30
0.0
 10
-335.910005
 20
64.280308
 30
0.0
 10
-335.910005
 20
107.147306
 30
0.0
 10
-344.089002
 20
107.147306
 30
0.0
 10
-344.089002
 20
141.820307
 30
0.0
 10
-328.528990
 20
141.820307
 30
0.0
 10
-328.528990
 20
149.999308
 30
0.0
 10
-312.983005
 20
149.999308
 30
0.0
 10
-312.983005
 20
141.820307
 30
0.0
 10
-297.417998
 20
141.820307
 30
0.0
 10
-297.417998
 20
149.999308
 30
0.0
 10
-281.871999
 20
149.999308
 30
0.0
 10
-281.871999
 20
141.820307
 30
0.0
 10
-266.307000
 20
141.820307
 30
0.0
 10
-266.307000
 20
149.999308
 30
0.0
 10
-250.761000
 20
149.999308
 30
0.0
 10
-250.761000
 20
141.820307
 30
0.0
 10
-235.195999
 20
141.820307
 30
0.0
 10
-235.195999
 20
149.999308
 30
0.0
 10
-219.650000
 20
149.999308
 30
0.0
 10
-219.650000
 20
141.820307
 30
0.0
 10
-204.089000
 20
141.820307
 30
0.0
  0
LWPOLYLINE
  5
104
100
AcDbEntity
  8
0
 62
7
100
AcDbPolyline
 90
18
 70
0
 10
-204.089000
 20
-141.821704
 30
0.0
 10
-219.650000
 20
-141.821704
 30
0.0
 10
-219.650000
 20
-150.000702
 30
0.0
 10
-235.195999
 20
-150.000702
 30
0.0
 10
-235.195999
 20
-141.821704
 30
0.0
 10
-250.761000
 20
-141.821704
 30
0.0
 10
-250.761000
 20
-150.000702
 30
0.0
 10
-266.307000
 20
-150.000702
 30
0.0
 10
-266.307000
 20
-141.821704
 30
0.0
 10
-281.871999
 20
-141.821704
 30
0.0
 10
-281.871999
 20
-150.000702
 30
0.0
 10
-297.417998
 20
-150.000702
 30
0.0
 10
-297.417998
 20
-141.821704
 30
0.0
 10
-312.983005
 20
-141.821704
 30
0.0
 10
-312.983005
 20
-150.000702
 30
0.0
 10
-328.528990
 20
-150.000702
 30
0.0
 10
-328.528990
 20
-141.821704
 30
0.0
 10
-344.089002
 20
-141.821704
 30
0.0
  0
LWPOLYLINE
  5
105
100
AcDbEntity
  8
0
 62
7
100
AcDbPolyline
 90
37
 70
0
 10
-323.849012
 20
177.267308
 30
0.0
 10
-323.773010
 20
178.135308
 30
0.0
 10
-323.547994
 20
178.977307
 30
0.0
 10
-323.178988
 20
179.767306
 30
0.0
 10
-322.679991
 20
180.481309
 30
0.0
 10
-322.062997
 20
181.097307
 30
0.0
 10
-321.349003
 20
181.597308
 30
0.0
 10
-320.559007
 20
181.966308
 30
0.0
 10
-319.718013
 20
182.191307
 30
0.0
 10
-318.848994
 20
182.267307
 30
0.0
 10
-317.980991
 20
182.191307
 30
0.0
 10
-317.139010
 20
181.966308
 30
0.0
 10
-316.349013
 20
181.597308
 30
0.0
 10
-315.634991
 20
181.097307
 30
0.0
 10
-315.019013
 20
180.481309
 30
0.0
 10
-314.519000
 20
179.767306
 30
0.0
 10
-314.151010
 20
178.977307
 30
0.0
 10
-313.925006
 20
178.135308
 30
0.0
 10
-313.849004
 20
177.267308
 30
0.0
 10
-313.925006
 20
176.399309
 30
0.0
 10
-314.151010
 20
175.557307
 30
0.0
 10
-314.519000
 20
174.767308
 30
0.0
 10
-315.019013
 20
174.053308
 30
0.0
 10
-315.634991
 20
173.437307
 30
0.0
 10
-316.349013
 20
172.937308
 30
0.0
 10
-317.139010
 20
172.569307
 30
0.0
 10
-317.980991
 20
172.343307
 30
0.0
 10
-318.848994
 20
172.267307
 30
0.0
 10
-319.718013
 20
172.343307
 30
0.0
 10
-320.559007
 20
172.569307
 30
0.0
 10
-321.349003
 20
172.937308
 30
0.0
 10
-322.062997
 20
173.437307
 30
0.0
 10
-322.679991
 20
174.053308
 30
0.0
 10
-323.178988
 20
174.767308
 30
0.0
 10
-323.547994
 20
175.557307
 30
0.0
 10
-323.773010
 20
176.399309
 30
0.0
 10
-323.849012
 20
177.267308
 30
0.0
  0
LWPOLYLINE
  5
106
100
AcDbEntity
  8
0
 62
7
100
AcDbPolyline
 90
37
 70
0
 10
-316.805000
 20
163.178307
 30
0.0
 10
-316.728997
 20
164.046306
 30
0.0
 10
-316.502994
 20
164.888308
 30
0.0
 10
-316.135004
 20
165.678307
 30
0.0
 10
-315.634991
 20
166.392307
 30
0.0
 10
-315.019013
 20
167.008308
 30
0.0
 10
-314.304990
 20
167.508307
 30
0.0
 10
-313.514994
 20
167.876307
 30
0.0
 10
-312.673012
 20
168.102308
 30
0.0
 10
-311.805010
 20
168.178308
 30
0.0
 10
-310.935991
 20
168.102308
 30
0.0
 10
-310.094009
 20
167.876307
 30
0.0
 10
-309.305000
 20
167.508307
 30
0.0
 10
-308.591006
 20
167.008308
 30
0.0
 10
-307.974012
 20
166.392307
 30
0.0
 10
-307.473999
 20
165.678307
 30
0.0
 10
-307.106010
 20
164.888308
 30
0.0
 10
-306.880994
 20
164.046306
 30
0.0
 10
-306.804991
 20
163.178307
 30
0.0
 10
-306.880994
 20
162.310307
 30
0.0
 10
-307.106010
 20
161.468308
 30
0.0
 10
-307.473999
 20
160.678306
 30
0.0
 10
-307.974012
 20
159.964306
 30
0.0
 10
-308.591006
 20
159.348308
 30
0.0
 10
-309.305000
 20
158.848306
 30
0.0
 10
-310.094009
 20
158.479307
 30
0.0
 10
-310.935991
 20
158.254308
 30
0.0
 10
-311.805010
 20
158.178308
 30
0.0
 10
-312.673012
 20
158.254308
 30
0.0
 10
-313.514994
 20
158.479307
 30
0.0
 10
-314.304990
 20
158.848306
 30
0.0
 10
-315.019013
 20
159.348308
 30
0.0
 10
-315.634991
 20
159.964306
 30
0.0
 10
-316.135004
 20
160.678306
 30
0.0
 10
-316.502994
 20
161.468308
 30
0.0
 10
-316.728997
 20
162.310307
 30
0.0
 10
-316.805000
 20
163.178307
 30
0.0
  0
LWPOLYLINE
  5
107
100
AcDbEntity
  8
0
 62
7
100
AcDbPolyline
 90
37
 70
0
 10
-309.759999
 20
177.267308
 30
0.0
 10
-309.683997
 20
178.135308
 30
0.0
 10
-309.457993
 20
178.977307
 30
0.0
 10
-309.090004
 20
179.767306
 30
0.0
 10
-308.589990
 20
180.481309
 30
0.0
 10
-307.974012
 20
181.097307
 30
0.0
 10
-307.259990
 20
181.597308
 30
0.0
 10
-306.469994
 20
181.966308
 30
0.0
 10
-305.628012
 20
182.191307
 30
0.0
 10
-304.760009
 20
182.267307
 30
0.0
 10
-303.892006
 20
182.191307
 30
0.0
 10
-303.049996
 20
181.966308
 30
0.0
 10
-302.260000
 20
181.597308
 30
0.0
 10
-301.546006
 20
181.097307
 30
0.0
 10
-300.930000
 20
180.481309
 30
0.0
 10
-300.429986
 20
179.767306
 30
0.0
 10
-300.061009
 20
178.977307
 30
0.0
 10
-299.835993
 20
178.135308
 30
0.0
 10
-299.759991
 20
177.267308
 30
0.0
 10
-299.835993
 20
176.399309
 30
0.0
 10
-300.061009
 20
175.557307
 30
0.0
 10
-300.429986
 20
174.767308
 30
0.0
 10
-300.930000
 20
174.053308
 30
0.0
 10
-301.546006
 20
173.437307
 30
0.0
 10
-302.260000
 20
172.937308
 30
0.0
 10
-303.049996
 20
172.569307
 30
0.0
 10
-303.892006
 20
172.343307
 30
0.0
 10
-304.760009
 20
172.267307
 30
0.0
 10
-305.628012
 20
172.343307
 30
0.0
 10
-306.469994
 20
172.569307
 30
0.0
 10
-307.259990
 20
172.937308
 30
0.0
 10
-307.974012
 20
173.437307
 30
0.0
 10
-308.589990
 20
174.053308
 30
0.0
 10
-309.090004
 20
174.767308
 30
0.0
 10
-309.457993
 20
175.557307
 30
0.0
 10
-309.683997
 20
176.399309
 30
0.0
 10
-309.759999
 20
177.267308
 30
0.0
  0
LWPOLYLINE
  5
108
100
AcDbEntity
  8
0
 62
7
100
AcDbPolyline
 90
37
 70
0
 10
-302.714999
 20
163.178307
 30
0.0
 10
-302.638996
 20
164.046306
 30
0.0
 10
-302.414009
 20
164.888308
 30
0.0
 10
-302.045003
 20
165.678307
 30
0.0
 10
-301.544990
 20
166.392307
 30
0.0
 10
-300.929012
 20
167.008308
 30
0.0
 10
-300.214990
 20
167.508307
 30
0.0
 10
-299.424993
 20
167.876307
 30
0.0
 10
-298.583011
 20
168.102308
 30
0.0
 10
-297.715009
 20
168.178308
 30
0.0
 10
-296.847006
 20
168.102308
 30
0.0
 10
-296.004996
 20
167.876307
 30
0.0
 10
-295.215000
 20
167.508307
 30
0.0
 10
-294.501006
 20
167.008308
 30
0.0
 10
-293.884999
 20
166.392307
 30
0.0
 10
-293.385014
 20
165.678307
 30
0.0
 10
-293.016996
 20
164.888308
 30
0.0
 10
-292.790993
 20
164.046306
 30
0.0
 10
-292.714990
 20
163.178307
 30
0.0
 10
-292.790993
 20
162.310307
 30
0.0
 10
-293.016996
 20
161.468308
 30
0.0
 10
-293.385014
 20
160.678306
 30
0.0
 10
-293.884999
 20
159.964306
 30
0.0
 10
-294.501006
 20
159.348308
 30
0.0
 10
-295.215000
 20
158.848306
 30
0.0
 10
-296.004996
 20
158.479307
 30
0.0
 10
-296.847006
 20
158.254308
 30
0.0
 10
-297.715009
 20
158.178308
 30
0.0
 10
-298.583011
 20
158.254308
 30
0.0
 10
-299.424993
 20
158.479307
 30
0.0
 10
-300.214990
 20
158.848306
 30
0.0
 10
-300.929012
 20
159.348308
 30
0.0
 10
-301.544990
 20
159.964306
 30
0.0
 10
-302.045003
 20
160.678306
 30
0.0
 10
-302.414009
 20
161.468308
 30
0.0
 10
-302.638996
 20
162.310307
 30
0.0
 10
-302.714999
 20
163.178307
 30
0.0
  0
LWPOLYLINE
  5
109
100
AcDbEntity
  8
0
 62
7
100
AcDbPolyline
 90
37
 70
0
 10
-295.671014
 20
177.267308
 30
0.0
 10
-295.595012
 20
178.135308
 30
0.0
 10
-295.369008
 20
178.977307
 30
0.0
 10
-295.000990
 20
179.767306
 30
0.0
 10
-294.501006
 20
180.481309
 30
0.0
 10
-293.884011
 20
181.097307
 30
0.0
 10
-293.171005
 20
181.597308
 30
0.0
 10
-292.381009
 20
181.966308
 30
0.0
 10
-291.538999
 20
182.191307
 30
0.0
 10
-290.670996
 20
182.267307
 30
0.0
 10
-289.802006
 20
182.191307
 30
0.0
 10
-288.959996
 20
181.966308
 30
0.0
 10
-288.170987
 20
181.597308
 30
0.0
 10
-287.456993
 20
181.097307
 30
0.0
 10
-286.839999
 20
180.481309
 30
0.0
 10
-286.340014
 20
179.767306
 30
0.0
 10
-285.971996
 20
178.977307
 30
0.0
 10
-285.745992
 20
178.135308
 30
0.0
 10
-285.671006
 20
177.267308
 30
0.0
 10
-285.745992
 20
176.399309
 30
0.0
 10
-285.971996
 20
175.557307
 30
0.0
 10
-286.340014
 20
174.767308
 30
0.0
 10
-286.839999
 20
174.053308
 30
0.0
 10
-287.456993
 20
173.437307
 30
0.0
 10
-288.170987
 20
172.937308
 30
0.0
 10
-288.959996
 20
172.569307
 30
0.0
 10
-289.802006
 20
172.343307
 30
0.0
 10
-290.670996
 20
172.267307
 30
0.0
 10
-291.538999
 20
172.343307
 30
0.0
 10
-292.381009
 20
172.569307
 30
0.0
 10
-293.171005
 20
172.937308
 30
0.0
 10
-293.884011
 20
173.437307
 30
0.0
 10
-294.501006
 20
174.053308
 30
0.0
 10
-295.000990
 20
174.767308
 30
0.0
 10
-295.369008
 20
175.557307
 30
0.0
 10
-295.595012
 20
176.399309
 30
0.0
 10
-295.671014
 20
177.267308
 30
0.0
  0
LWPOLYLINE
  5
10a
100
AcDbEntity
  8
0
 62
7
100
AcDbPolyline
 90
37
 70
0
 10
-288.626014
 20
163.178307
 30
0.0
 10
-288.550011
 20
164.046306
 30
0.0
 10
-288.324008
 20
164.888308
 30
0.0
 10
-287.955990
 20
165.678307
 30
0.0
 10
-287.456005
 20
166.392307
 30
0.0
 10
-286.839999
 20
167.008308
 30
0.0
 10
-286.126005
 20
167.508307
 30
0.0
 10
-285.336008
 20
167.876307
 30
0.0
 10
-284.493998
 20
168.102308
 30
0.0
 10
-283.625996
 20
168.178308
 30
0.0
 10
-282.757993
 20
168.102308
 30
0.0
 10
-281.916000
 20
167.876307
 30
0.0
 10
-281.126001
 20
167.508307
 30
0.0
 10
-280.412001
 20
167.008308
 30
0.0
 10
-279.796000
 20
166.392307
 30
0.0
 10
-279.296001
 20
165.678307
 30
0.0
 10
-278.927001
 20
164.888308
 30
0.0
 10
-278.702000
 20
164.046306
 30
0.0
 10
-278.626000
 20
163.178307
 30
0.0
 10
-278.702000
 20
162.310307
 30
0.0
 10
-278.927001
 20
161.468308
 30
0.0
 10
-279.296001
 20
160.678306
 30
0.0
 10
-279.796000
 20
159.964306
 30
0.0
 10
-280.412001
 20
159.348308
 30
0.0
 10
-281.126001
 20
158.848306
 30
0.0
 10
-281.916000
 20
158.479307
 30
0.0
 10
-282.757993
 20
158.254308
 30
0.0
 10
-283.625996
 20
158.178308
 30
0.0
 10
-284.493998
 20
158.254308
 30
0.0
 10
-285.336008
 20
158.479307
 30
0.0
 10
-286.126005
 20
158.848306
 30
0.0
 10
-286.839999
 20
159.348308
 30
0.0
 10
-287.456005
 20
159.964306
 30
0.0
 10
-287.955990
 20
160.678306
 30
0.0
 10
-288.324008
 20
161.468308
 30
0.0
 10
-288.550011
 20
162.310307
 30
0.0
 10
-288.626014
 20
163.178307
 30
0.0
  0
LWPOLYLINE
  5
10b
100
AcDbEntity
  8
0
 62
7
100
AcDbPolyline
 90
37
 70
0
 10
-281.580999
 20
177.267308
 30
0.0
 10
-281.505000
 20
178.135308
 30
0.0
 10
-281.280001
 20
178.977307
 30
0.0
 10
-280.911001
 20
179.767306
 30
0.0
 10
-280.410999
 20
180.481309
 30
0.0
 10
-279.795001
 20
181.097307
 30
0.0
 10
-279.080999
 20
181.597308
 30
0.0
 10
-278.290999
 20
181.966308
 30
0.0
 10
-277.449001
 20
182.191307
 30
0.0
 10
-276.581001
 20
182.267307
 30
0.0
 10
-275.713001
 20
182.191307
 30
0.0
 10
-274.870999
 20
181.966308
 30
0.0
 10
-274.081000
 20
181.597308
 30
0.0
 10
-273.367000
 20
181.097307
 30
0.0
 10
-272.751000
 20
180.481309
 30
0.0
 10
-272.251001
 20
179.767306
 30
0.0
 10
-271.883000
 20
178.977307
 30
0.0
 10
-271.656999
 20
178.135308
 30
0.0
 10
-271.580999
 20
177.267308
 30
0.0
 10
-271.656999
 20
176.399309
 30
0.0
 10
-271.883000
 20
175.557307
 30
0.0
 10
-272.251001
 20
174.767308
 30
0.0
 10
-272.751000
 20
174.053308
 30
0.0
 10
-273.367000
 20
173.437307
 30
0.0
 10
-274.081000
 20
172.937308
 30
0.0
 10
-274.870999
 20
172.569307
 30
0.0
 10
-275.713001
 20
172.343307
 30
0.0
 10
-276.581001
 20
172.267307
 30
0.0
 10
-277.449001
 20
172.343307
 30
0.0
 10
-278.290999
 20
172.569307
 30
0.0
 10
-279.080999
 20
172.937308
 30
0.0
 10
-279.795001
 20
173.437307
 30
0.0
 10
-280.410999
 20
174.053308
 30
0.0
 10
-280.911001
 20
174.767308
 30
0.0
 10
-281.280001
 20
175.557307
 30
0.0
 10
-281.505000
 20
176.399309
 30
0.0
 10
-281.580999
 20
177.267308
 30
0.0
  0
LWPOLYLINE
  5
10c
100
AcDbEntity
  8
0
 62
7
100
AcDbPolyline
 90
37
 70
0
 10
-274.535999
 20
163.178307
 30
0.0
 10
-274.459999
 20
164.046306
 30
0.0
 10
-274.235000
 20
164.888308
 30
0.0
 10
-273.866999
 20
165.678307
 30
0.0
 10
-273.367000
 20
166.392307
 30
0.0
 10
-272.750001
 20
167.008308
 30
0.0
 10
-272.036001
 20
167.508307
 30
0.0
 10
-271.247001
 20
167.876307
 30
0.0
 10
-270.404999
 20
168.102308
 30
0.0
 10
-269.536000
 20
168.178308
 30
0.0
 10
-268.668000
 20
168.102308
 30
0.0
 10
-267.825999
 20
167.876307
 30
0.0
 10
-267.036000
 20
167.508307
 30
0.0
 10
-266.322000
 20
167.008308
 30
0.0
 10
-265.705999
 20
166.392307
 30
0.0
 10
-265.206000
 20
165.678307
 30
0.0
 10
-264.837999
 20
164.888308
 30
0.0
 10
-264.612001
 20
164.046306
 30
0.0
 10
-264.535999
 20
163.178307
 30
0.0
 10
-264.612001
 20
162.310307
 30
0.0
 10
-264.837999
 20
161.468308
 30
0.0
 10
-265.206000
 20
160.678306
 30
0.0
 10
-265.705999
 20
159.964306
 30
0.0
 10
-266.322000
 20
159.348308
 30
0.0
 10
-267.036000
 20
158.848306
 30
0.0
 10
-267.825999
 20
158.479307
 30
0.0
 10
-268.668000
 20
158.254308
 30
0.0
 10
-269.536000
 20
158.178308
 30
0.0
 10
-270.404999
 20
158.254308
 30
0.0
 10
-271.247001
 20
158.479307
 30
0.0
 10
-272.036001
 20
158.848306
 30
0.0
 10
-272.750001
 20
159.348308
 30
0.0
 10
-273.367000
 20
159.964306
 30
0.0
 10
-273.866999
 20
160.678306
 30
0.0
 10
-274.235000
 20
161.468308
 30
0.0
 10
-274.459999
 20
162.310307
 30
0.0
 10
-274.535999
 20
163.178307
 30
0.0
  0
LWPOLYLINE
  5
10d
100
AcDbEntity
  8
0
 62
7
100
AcDbPolyline
 90
37
 70
0
 10
-267.492000
 20
177.267308
 30
0.0
 10
-267.416001
 20
178.135308
 30
0.0
 10
-267.190000
 20
178.977307
 30
0.0
 10
-266.821999
 20
179.767306
 30
0.0
 10
-266.322000
 20
180.481309
 30
0.0
 10
-265.705999
 20
181.097307
 30
0.0
 10
-264.992000
 20
181.597308
 30
0.0
 10
-264.202000
 20
181.966308
 30
0.0
 10
-263.359999
 20
182.191307
 30
0.0
 10
-262.491999
 20
182.267307
 30
0.0
 10
-261.623000
 20
182.191307
 30
0.0
 10
-260.782000
 20
181.966308
 30
0.0
 10
-259.992001
 20
181.597308
 30
0.0
 10
-259.278001
 20
181.097307
 30
0.0
 10
-258.660999
 20
180.481309
 30
0.0
 10
-258.161999
 20
179.767306
 30
0.0
 10
-257.792999
 20
178.977307
 30
0.0
 10
-257.568000
 20
178.135308
 30
0.0
 10
-257.492000
 20
177.267308
 30
0.0
 10
-257.568000
 20
176.399309
 30
0.0
 10
-257.792999
 20
175.557307
 30
0.0
 10
-258.161999
 20
174.767308
 30
0.0
 10
-258.660999
 20
174.053308
 30
0.0
 10
-259.278001
 20
173.437307
 30
0.0
 10
-259.992001
 20
172.937308
 30
0.0
 10
-260.782000
 20
172.569307
 30
0.0
 10
-261.623000
 20
172.343307
 30
0.0
 10
-262.491999
 20
172.267307
 30
0.0
 10
-263.359999
 20
172.343307
 30
0.0
 10
-264.202000
 20
172.569307
 30
0.0
 10
-264.992000
 20
172.937308
 30
0.0
 10
-265.705999
 20
173.437307
 30
0.0
 10
-266.322000
 20
174.053308
 30
0.0
 10
-266.821999
 20
174.767308
 30
0.0
 10
-267.190000
 20
175.557307
 30
0.0
 10
-267.416001
 20
176.399309
 30
0.0
 10
-267.492000
 20
177.267308
 30
0.0
  0
LWPOLYLINE
  5
10e
100
AcDbEntity
  8
0
 62
7
100
AcDbPolyline
 90
37
 70
0
 10
-260.447000
 20
163.178307
 30
0.0
 10
-260.371000
 20
164.046306
 30
0.0
 10
-260.144999
 20
164.888308
 30
0.0
 10
-259.777001
 20
165.678307
 30
0.0
 10
-259.277000
 20
166.392307
 30
0.0
 10
-258.660999
 20
167.008308
 30
0.0
 10
-257.946999
 20
167.508307
 30
0.0
 10
-257.157000
 20
167.876307
 30
0.0
 10
-256.315001
 20
168.102308
 30
0.0
 10
-255.446998
 20
168.178308
 30
0.0
 10
-254.578999
 20
168.102308
 30
0.0
 10
-253.737000
 20
167.876307
 30
0.0
 10
-252.947001
 20
167.508307
 30
0.0
 10
-252.233001
 20
167.008308
 30
0.0
 10
-251.617000
 20
166.392307
 30
0.0
 10
-251.117001
 20
165.678307
 30
0.0
 10
-250.749000
 20
164.888308
 30
0.0
 10
-250.523000
 20
164.046306
 30
0.0
 10
-250.447000
 20
163.178307
 30
0.0
 10
-250.523000
 20
162.310307
 30
0.0
 10
-250.749000
 20
161.468308
 30
0.0
 10
-251.117001
 20
160.678306
 30
0.0
 10
-251.617000
 20
159.964306
 30
0.0
 10
-252.233001
 20
159.348308
 30
0.0
 10
-252.947001
 20
158.848306
 30
0.0
 10
-253.737000
 20
158.479307
 30
0.0
 10
-254.578999
 20
158.254308
 30
0.0
 10
-255.446998
 20
158.178308
 30
0.0
 10
-256.315001
 20
158.254308
 30
0.0
 10
-257.157000
 20
158.479307
 30
0.0
 10
-257.946999
 20
158.848306
 30
0.0
 10
-258.660999
 20
159.348308
 30
0.0
 10
-259.277000
 20
159.964306
 30
0.0
 10
-259.777001
 20
160.678306
 30
0.0
 10
-260.144999
 20
161.468308
 30
0.0
 10
-260.371000
 20
162.310307
 30
0.0
 10
-260.447000
 20
163.178307
 30
0.0
  0
LWPOLYLINE
  5
10f
100
AcDbEntity
  8
0
 62
7
100
AcDbPolyline
 90
37
 70
0
 10
-253.401999
 20
177.267308
 30
0.0
 10
-253.326000
 20
178.135308
 30
0.0
 10
-253.101001
 20
178.977307
 30
0.0
 10
-252.732001
 20
179.767306
 30
0.0
 10
-252.233001
 20
180.481309
 30
0.0
 10
-251.616001
 20
181.097307
 30
0.0
 10
-250.901999
 20
181.597308
 30
0.0
 10
-250.111999
 20
181.966308
 30
0.0
 10
-249.271000
 20
182.191307
 30
0.0
 10
-248.402001
 20
182.267307
 30
0.0
 10
-247.534001
 20
182.191307
 30
0.0
 10
-246.691999
 20
181.966308
 30
0.0
 10
-245.902000
 20
181.597308
 30
0.0
 10
-245.188001
 20
181.097307
 30
0.0
 10
-244.572000
 20
180.481309
 30
0.0
 10
-244.072001
 20
179.767306
 30
0.0
 10
-243.704000
 20
178.977307
 30
0.0
 10
-243.477999
 20
178.135308
 30
0.0
 10
-243.402000
 20
177.267308
 30
0.0
 10
-243.477999
 20
176.399309
 30
0.0
 10
-243.704000
 20
175.557307
 30
0.0
 10
-244.072001
 20
174.767308
 30
0.0
 10
-244.572000
 20
174.053308
 30
0.0
 10
-245.188001
 20
173.437307
 30
0.0
 10
-245.902000
 20
172.937308
 30
0.0
 10
-246.691999
 20
172.569307
 30
0.0
 10
-247.534001
 20
172.343307
 30
0.0
 10
-248.402001
 20
172.267307
 30
0.0
 10
-249.271000
 20
172.343307
 30
0.0
 10
-250.111999
 20
172.569307
 30
0.0
 10
-250.901999
 20
172.937308
 30
0.0
 10
-251.616001
 20
173.437307
 30
0.0
 10
-252.233001
 20
174.053308
 30
0.0
 10
-252.732001
 20
174.767308
 30
0.0
 10
-253.101001
 20
175.557307
 30
0.0
 10
-253.326000
 20
176.399309
 30
0.0
 10
-253.401999
 20
177.267308
 30
0.0
  0
LWPOLYLINE
  5
110
100
AcDbEntity
  8
0
 62
7
100
AcDbPolyline
 90
37
 70
0
 10
-246.358001
 20
163.178307
 30
0.0
 10
-246.282001
 20
164.046306
 30
0.0
 10
-246.056000
 20
164.888308
 30
0.0
 10
-245.688000
 20
165.678307
 30
0.0
 10
-245.188001
 20
166.392307
 30
0.0
 10
-244.572000
 20
167.008308
 30
0.0
 10
-243.858000
 20
167.508307
 30
0.0
 10
-243.068001
 20
167.876307
 30
0.0
 10
-242.225999
 20
168.102308
 30
0.0
 10
-241.357999
 20
168.178308
 30
0.0
 10
-240.489001
 20
168.102308
 30
0.0
 10
-239.646999
 20
167.876307
 30
0.0
 10
-238.857999
 20
167.508307
 30
0.0
 10
-238.143999
 20
167.008308
 30
0.0
 10
-237.526999
 20
166.392307
 30
0.0
 10
-237.027000
 20
165.678307
 30
0.0
 10
-236.658999
 20
164.888308
 30
0.0
 10
-236.434001
 20
164.046306
 30
0.0
 10
-236.358001
 20
163.178307
 30
0.0
 10
-236.434001
 20
162.310307
 30
0.0
 10
-236.658999
 20
161.468308
 30
0.0
 10
-237.027000
 20
160.678306
 30
0.0
 10
-237.526999
 20
159.964306
 30
0.0
 10
-238.143999
 20
159.348308
 30
0.0
 10
-238.857999
 20
158.848306
 30
0.0
 10
-239.646999
 20
158.479307
 30
0.0
 10
-240.489001
 20
158.254308
 30
0.0
 10
-241.357999
 20
158.178308
 30
0.0
 10
-242.225999
 20
158.254308
 30
0.0
 10
-243.068001
 20
158.479307
 30
0.0
 10
-243.858000
 20
158.848306
 30
0.0
 10
-244.572000
 20
159.348308
 30
0.0
 10
-245.188001
 20
159.964306
 30
0.0
 10
-245.688000
 20
160.678306
 30
0.0
 10
-246.056000
 20
161.468308
 30
0.0
 10
-246.282001
 20
162.310307
 30
0.0
 10
-246.358001
 20
163.178307
 30
0.0
  0
LWPOLYLINE
  5
111
100
AcDbEntity
  8
0
 62
7
100
AcDbPolyline
 90
37
 70
0
 10
-239.313000
 20
177.267308
 30
0.0
 10
-239.237001
 20
178.135308
 30
0.0
 10
-239.011000
 20
178.977307
 30
0.0
 10
-238.642999
 20
179.767306
 30
0.0
 10
-238.143000
 20
180.481309
 30
0.0
 10
-237.526999
 20
181.097307
 30
0.0
 10
-236.813000
 20
181.597308
 30
0.0
 10
-236.023000
 20
181.966308
 30
0.0
 10
-235.180999
 20
182.191307
 30
0.0
 10
-234.312999
 20
182.267307
 30
0.0
 10
-233.444999
 20
182.191307
 30
0.0
 10
-232.603000
 20
181.966308
 30
0.0
 10
-231.813001
 20
181.597308
 30
0.0
 10
-231.098999
 20
181.097307
 30
0.0
 10
-230.483001
 20
180.481309
 30
0.0
 10
-229.982999
 20
179.767306
 30
0.0
 10
-229.613999
 20
178.977307
 30
0.0
 10
-229.389000
 20
178.135308
 30
0.0
 10
-229.313001
 20
177.267308
 30
0.0
 10
-229.389000
 20
176.399309
 30
0.0
 10
-229.613999
 20
175.557307
 30
0.0
 10
-229.982999
 20
174.767308
 30
0.0
 10
-230.483001
 20
174.053308
 30
0.0
 10
-231.098999
 20
173.437307
 30
0.0
 10
-231.813001
 20
172.937308
 30
0.0
 10
-232.603000
 20
172.569307
 30
0.0
 10
-233.444999
 20
172.343307
 30
0.0
 10
-234.312999
 20
172.267307
 30
0.0
 10
-235.180999
 20
172.343307
 30
0.0
 10
-236.023000
 20
172.569307
 30
0.0
 10
-236.813000
 20
172.937308
 30
0.0
 10
-237.526999
 20
173.437307
 30
0.0
 10
-238.143000
 20
174.053308
 30
0.0
 10
-238.642999
 20
174.767308
 30
0.0
 10
-239.011000
 20
175.557307
 30
0.0
 10
-239.237001
 20
176.399309
 30
0.0
 10
-239.313000
 20
177.267308
 30
0.0
  0
LWPOLYLINE
  5
112
100
AcDbEntity
  8
0
 62
7
100
AcDbPolyline
 90
37
 70
0
 10
-232.268000
 20
163.178307
 30
0.0
 10
-232.192000
 20
164.046306
 30
0.0
 10
-231.966999
 20
164.888308
 30
0.0
 10
-231.597999
 20
165.678307
 30
0.0
 10
-231.098000
 20
166.392307
 30
0.0
 10
-230.481999
 20
167.008308
 30
0.0
 10
-229.767999
 20
167.508307
 30
0.0
 10
-228.978000
 20
167.876307
 30
0.0
 10
-228.136001
 20
168.102308
 30
0.0
 10
-227.267999
 20
168.178308
 30
0.0
 10
-226.399999
 20
168.102308
 30
0.0
 10
-225.558000
 20
167.876307
 30
0.0
 10
-224.768001
 20
167.508307
 30
0.0
 10
-224.054001
 20
167.008308
 30
0.0
 10
-223.438000
 20
166.392307
 30
0.0
 10
-222.938001
 20
165.678307
 30
0.0
 10
-222.570000
 20
164.888308
 30
0.0
 10
-222.344000
 20
164.046306
 30
0.0
 10
-222.268000
 20
163.178307
 30
0.0
 10
-222.344000
 20
162.310307
 30
0.0
 10
-222.570000
 20
161.468308
 30
0.0
 10
-222.938001
 20
160.678306
 30
0.0
 10
-223.438000
 20
159.964306
 30
0.0
 10
-224.054001
 20
159.348308
 30
0.0
 10
-224.768001
 20
158.848306
 30
0.0
 10
-225.558000
 20
158.479307
 30
0.0
 10
-226.399999
 20
158.254308
 30
0.0
 10
-227.267999
 20
158.178308
 30
0.0
 10
-228.136001
 20
158.254308
 30
0.0
 10
-228.978000
 20
158.479307
 30
0.0
 10
-229.767999
 20
158.848306
 30
0.0
 10
-230.481999
 20
159.348308
 30
0.0
 10
-231.098000
 20
159.964306
 30
0.0
 10
-231.597999
 20
160.678306
 30
0.0
 10
-231.966999
 20
161.468308
 30
0.0
 10
-232.192000
 20
162.310307
 30
0.0
 10
-232.268000
 20
163.178307
 30
0.0
  0
LWPOLYLINE
  5
113
100
AcDbEntity
  8
0
 62
7
100
AcDbPolyline
 90
37
 70
0
 10
-225.223999
 20
177.267308
 30
0.0
 10
-225.147999
 20
178.135308
 30
0.0
 10
-224.922001
 20
178.977307
 30
0.0
 10
-224.554000
 20
179.767306
 30
0.0
 10
-224.054001
 20
180.481309
 30
0.0
 10
-223.437001
 20
181.097307
 30
0.0
 10
-222.724001
 20
181.597308
 30
0.0
 10
-221.933999
 20
181.966308
 30
0.0
 10
-221.092000
 20
182.191307
 30
0.0
 10
-220.224000
 20
182.267307
 30
0.0
 10
-219.355001
 20
182.191307
 30
0.0
 10
-218.513000
 20
181.966308
 30
0.0
 10
-217.723999
 20
181.597308
 30
0.0
 10
-217.010000
 20
181.097307
 30
0.0
 10
-216.393000
 20
180.481309
 30
0.0
 10
-215.893001
 20
179.767306
 30
0.0
 10
-215.525000
 20
178.977307
 30
0.0
 10
-215.298999
 20
178.135308
 30
0.0
 10
-215.223999
 20
177.267308
 30
0.0
 10
-215.298999
 20
176.399309
 30
0.0
 10
-215.525000
 20
175.557307
 30
0.0
 10
-215.893001
 20
174.767308
 30
0.0
 10
-216.393000
 20
174.053308
 30
0.0
 10
-217.010000
 20
173.437307
 30
0.0
 10
-217.723999
 20
172.937308
 30
0.0
 10
-218.513000
 20
172.569307
 30
0.0
 10
-219.355001
 20
172.343307
 30
0.0
 10
-220.224000
 20
172.267307
 30
0.0
 10
-221.092000
 20
172.343307
 30
0.0
 10
-221.933999
 20
172.569307
 30
0.0
 10
-222.724001
 20
172.937308
 30
0.0
 10
-223.437001
 20
173.437307
 30
0.0
 10
-224.054001
 20
174.053308
 30
0.0
 10
-224.554000
 20
174.767308
 30
0.0
 10
-224.922001
 20
175.557307
 30
0.0
 10
-225.147999
 20
176.399309
 30
0.0
 10
-225.223999
 20
177.267308
 30
0.0
  0
LWPOLYLINE
  5
114
100
AcDbEntity
  8
0
 62
7
100
AcDbPolyline
 90
37
 70
0
 10
-218.179001
 20
163.178307
 30
0.0
 10
-218.103001
 20
164.046306
 30
0.0
 10
-217.877001
 20
164.888308
 30
0.0
 10
-217.509000
 20
165.678307
 30
0.0
 10
-217.009001
 20
166.392307
 30
0.0
 10
-216.393000
 20
167.008308
 30
0.0
 10
-215.679000
 20
167.508307
 30
0.0
 10
-214.889001
 20
167.876307
 30
0.0
 10
-214.046999
 20
168.102308
 30
0.0
 10
-213.179000
 20
168.178308
 30
0.0
 10
-212.311000
 20
168.102308
 30
0.0
 10
-211.469001
 20
167.876307
 30
0.0
 10
-210.678999
 20
167.508307
 30
0.0
 10
-209.964999
 20
167.008308
 30
0.0
 10
-209.348999
 20
166.392307
 30
0.0
 10
-208.849000
 20
165.678307
 30
0.0
 10
-208.480000
 20
164.888308
 30
0.0
 10
-208.255001
 20
164.046306
 30
0.0
 10
-208.179001
 20
163.178307
 30
0.0
 10
-208.255001
 20
162.310307
 30
0.0
 10
-208.480000
 20
161.468308
 30
0.0
 10
-208.849000
 20
160.678306
 30
0.0
 10
-209.348999
 20
159.964306
 30
0.0
 10
-209.964999
 20
159.348308
 30
0.0
 10
-210.678999
 20
158.848306
 30
0.0
 10
-211.469001
 20
158.479307
 30
0.0
 10
-212.311000
 20
158.254308
 30
0.0
 10
-213.179000
 20
158.178308
 30
0.0
 10
-214.046999
 20
158.254308
 30
0.0
 10
-214.889001
 20
158.479307
 30
0.0
 10
-215.679000
 20
158.848306
 30
0.0
 10
-216.393000
 20
159.348308
 30
0.0
 10
-217.009001
 20
159.964306
 30
0.0
 10
-217.509000
 20
160.678306
 30
0.0
 10
-217.877001
 20
161.468308
 30
0.0
 10
-218.103001
 20
162.310307
 30
0.0
 10
-218.179001
 20
163.178307
 30
0.0
  0
LWPOLYLINE
  5
115
100
AcDbEntity
  8
0
 62
7
100
AcDbPolyline
 90
2
 70
0
 10
-204.089000
 20
141.820307
 30
0.0
 10
-204.089000
 20
-141.821704
 30
0.0
  0
LWPOLYLINE
  5
116
100
AcDbEntity
  8
0
 62
7
100
AcDbPolyline
 90
25
 70
0
 10
17.915672
 20
435.136668
 30
0.0
 10
25.286666
 20
435.136668
 30
0.0
 10
25.286666
 20
426.957668
 30
0.0
 10
40.852660
 20
426.957668
 30
0.0
 10
40.852660
 20
435.136668
 30
0.0
 10
56.397655
 20
435.136668
 30
0.0
 10
56.397655
 20
426.957668
 30
0.0
 10
71.963649
 20
426.957668
 30
0.0
 10
71.963649
 20
435.136668
 30
0.0
 10
87.508644
 20
435.136668
 30
0.0
 10
87.508644
 20
426.957668
 30
0.0
 10
103.074666
 20
426.957668
 30
0.0
 10
103.074666
 20
435.136668
 30
0.0
 10
118.619662
 20
435.136668
 30
0.0
 10
118.619662
 20
426.957668
 30
0.0
 10
134.185655
 20
426.957668
 30
0.0
 10
134.185655
 20
435.136668
 30
0.0
 10
149.731639
 20
435.136668
 30
0.0
 10
149.731639
 20
426.957668
 30
0.0
 10
149.736719
 20
426.957668
 30
0.0
 10
149.736634
 20
418.779666
 30
0.0
 10
149.731554
 20
418.779666
 30
0.0
 10
149.731639
 20
410.599667
 30
0.0
 10
149.736719
 20
410.599667
 30
0.0
 10
149.736634
 20
59.673668
 30
0.0
  0
LWPOLYLINE
  5
117
100
AcDbEntity
  8
0
 62
7
100
AcDbPolyline
 90
41
 70
0
 10
149.731639
 20
35.136667
 30
0.0
 10
134.185655
 20
35.136667
 30
0.0
 10
134.185655
 20
43.315667
 30
0.0
 10
118.619662
 20
43.315667
 30
0.0
 10
118.619662
 20
35.136667
 30
0.0
 10
103.074666
 20
35.136667
 30
0.0
 10
103.074666
 20
43.315667
 30
0.0
 10
87.508644
 20
43.315667
 30
0.0
 10
87.508644
 20
35.136667
 30
0.0
 10
71.963649
 20
35.136667
 30
0.0
 10
71.963649
 20
43.315667
 30
0.0
 10
56.397655
 20
43.315667
 30
0.0
 10
56.397655
 20
35.136667
 30
0.0
 10
40.852660
 20
35.136667
 30
0.0
 10
40.852660
 20
43.315667
 30
0.0
 10
25.286666
 20
43.315667
 30
0.0
 10
25.286666
 20
35.136667
 30
0.0
 10
9.736675
 20
35.136667
 30
0.0
 10
9.736675
 20
71.495666
 30
0.0
 10
17.915672
 20
71.495666
 30
0.0
 10
17.915672
 20
107.868666
 30
0.0
 10
9.736675
 20
107.868666
 30
0.0
 10
9.736675
 20
144.222668
 30
0.0
 10
17.915672
 20
144.222668
 30
0.0
 10
17.915672
 20
180.596667
 30
0.0
 10
9.736675
 20
180.596667
 30
0.0
 10
9.736675
 20
216.949667
 30
0.0
 10
17.915672
 20
216.949667
 30
0.0
 10
17.915672
 20
253.323667
 30
0.0
 10
9.736675
 20
253.323667
 30
0.0
 10
9.736675
 20
289.676668
 30
0.0
 10
17.915672
 20
289.676668
 30
0.0
 10
17.915672
 20
326.050667
 30
0.0
 10
9.736675
 20
326.050667
 30
0.0
 10
9.736675
 20
362.404668
 30
0.0
 10
17.915672
 20
362.404668
 30
0.0
 10
17.915672
 20
398.777669
 30
0.0
 10
9.736675
 20
398.777669
 30
0.0
 10
9.736675
 20
435.131667
 30
0.0
 10
17.915672
 20
435.131667
 30
0.0
 10
17.915672
 20
435.136663
 30
0.0
  0
LWPOLYLINE
  5
118
100
AcDbEntity
  8
0
 62
7
100
AcDbPolyline
 90
5
 70
0
 10
25.286666
 20
418.779666
 30
0.0
 10
40.852660
 20
418.779666
 30
0.0
 10
40.852660
 20
410.599667
 30
0.0
 10
25.286666
 20
410.599667
 30
0.0
 10
25.286666
 20
418.779666
 30
0.0
  0
LWPOLYLINE
  5
119
100
AcDbEntity
  8
0
 62
7
100
AcDbPolyline
 90
5
 70
0
 10
56.397655
 20
418.779666
 30
0.0
 10
71.963649
 20
418.779666
 30
0.0
 10
71.963649
 20
410.599667
 30
0.0
 10
56.397655
 20
410.599667
 30
0.0
 10
56.397655
 20
418.779666
 30
0.0
  0
LWPOLYLINE
  5
11a
100
AcDbEntity
  8
0
 62
7
100
AcDbPolyline
 90
5
 70
0
 10
87.508644
 20
418.779666
 30
0.0
 10
103.074666
 20
418.779666
 30
0.0
 10
103.074666
 20
410.599667
 30
0.0
 10
87.508644
 20
410.599667
 30
0.0
 10
87.508644
 20
418.779666
 30
0.0
  0
LWPOLYLINE
  5
11b
100
AcDbEntity
  8
0
 62
7
100
AcDbPolyline
 90
5
 70
0
 10
118.619662
 20
418.779666
 30
0.0
 10
134.185655
 20
418.779666
 30
0.0
 10
134.185655
 20
410.599667
 30
0.0
 10
118.619662
 20
410.599667
 30
0.0
 10
118.619662
 20
418.779666
 30
0.0
  0
LWPOLYLINE
  5
11c
100
AcDbEntity
  8
0
 62
7
100
AcDbPolyline
 90
5
 70
0
 10
25.286666
 20
59.673668
 30
0.0
 10
40.852660
 20
59.673668
 30
0.0
 10
40.852660
 20
51.493668
 30
0.0
 10
25.286666
 20
51.493668
 30
0.0
 10
25.286666
 20
59.673668
 30
0.0
  0
LWPOLYLINE
  5
11d
100
AcDbEntity
  8
0
 62
7
100
AcDbPolyline
 90
5
 70
0
 10
56.397655
 20
59.673668
 30
0.0
 10
71.963649
 20
59.673668
 30
0.0
 10
71.963649
 20
51.493668
 30
0.0
 10
56.397655
 20
51.493668
 30
0.0
 10
56.397655
 20
59.673668
 30
0.0
  0
LWPOLYLINE
  5
11e
100
AcDbEntity
  8
0
 62
7
100
AcDbPolyline
 90
5
 70
0
 10
87.508644
 20
59.673668
 30
0.0
 10
103.074666
 20
59.673668
 30
0.0
 10
103.074666
 20
51.493668
 30
0.0
 10
87.508644
 20
51.493668
 30
0.0
 10
87.508644
 20
59.673668
 30
0.0
  0
LWPOLYLINE
  5
11f
100
AcDbEntity
  8
0
 62
7
100
AcDbPolyline
 90
5
 70
0
 10
118.619662
 20
59.673668
 30
0.0
 10
134.185655
 20
59.673668
 30
0.0
 10
134.185655
 20
51.493668
 30
0.0
 10
118.619662
 20
51.493668
 30
0.0
 10
118.619662
 20
59.673668
 30
0.0
  0
LWPOLYLINE
  5
120
100
AcDbEntity
  8
0
 62
7
100
AcDbPolyline
 90
7
 70
0
 10
149.736634
 20
59.673668
 30
0.0
 10
149.731554
 20
59.673668
 30
0.0
 10
149.731639
 20
51.493668
 30
0.0
 10
149.736719
 20
51.493668
 30
0.0
 10
149.736634
 20
43.315667
 30
0.0
 10
149.731554
 20
43.315667
 30
0.0
 10
149.731639
 20
35.136667
 30
0.0
  0
LWPOLYLINE
  5
121
100
AcDbEntity
  8
0
 62
7
100
AcDbPolyline
 90
69
 70
0
 10
196.687654
 20
435.136668
 30
0.0
 10
239.534627
 20
435.136668
 30
0.0
 10
239.534627
 20
426.957668
 30
0.0
 10
282.401638
 20
426.957668
 30
0.0
 10
282.401638
 20
435.136668
 30
0.0
 10
325.249630
 20
435.136668
 30
0.0
 10
325.249630
 20
426.957668
 30
0.0
 10
368.116623
 20
426.957668
 30
0.0
 10
368.116623
 20
435.136668
 30
0.0
 10
410.963619
 20
435.136668
 30
0.0
 10
410.963619
 20
426.957668
 30
0.0
 10
445.646615
 20
426.957668
 30
0.0
 10
445.646615
 20
398.767667
 30
0.0
 10
453.825615
 20
398.767667
 30
0.0
 10
453.825615
 20
362.414668
 30
0.0
 10
445.646615
 20
362.414668
 30
0.0
 10
445.646615
 20
326.040668
 30
0.0
 10
453.825615
 20
326.040668
 30
0.0
 10
453.825615
 20
289.686667
 30
0.0
 10
445.646615
 20
289.686667
 30
0.0
 10
445.646615
 20
253.313667
 30
0.0
 10
453.825615
 20
253.313667
 30
0.0
 10
453.825615
 20
216.959667
 30
0.0
 10
445.646615
 20
216.959667
 30
0.0
 10
445.646615
 20
180.586668
 30
0.0
 10
453.825615
 20
180.586668
 30
0.0
 10
453.825615
 20
144.232667
 30
0.0
 10
445.646615
 20
144.232667
 30
0.0
 10
445.646615
 20
107.858667
 30
0.0
 10
453.825615
 20
107.858667
 30
0.0
 10
453.825615
 20
71.505668
 30
0.0
 10
445.646615
 20
71.505668
 30
0.0
 10
445.646615
 20
43.315667
 30
0.0
 10
410.963619
 20
43.315667
 30
0.0
 10
410.963619
 20
35.136667
 30
0.0
 10
368.116623
 20
35.136667
 30
0.0
 10
368.116623
 20
43.315667
 30
0.0
 10
325.249630
 20
43.315667
 30
0.0
 10
325.249630
 20
35.136667
 30
0.0
 10
282.401638
 20
35.136667
 30
0.0
 10
282.401638
 20
43.315667
 30
0.0
 10
239.534627
 20
43.315667
 30
0.0
 10
239.534627
 20
35.136667
 30
0.0
 10
196.687654
 20
35.136667
 30
0.0
 10
196.687654
 20
43.315667
 30
0.0
 10
162.004635
 20
43.315667
 30
0.0
 10
162.004635
 20
71.505668
 30
0.0
 10
153.825638
 20
71.505668
 30
0.0
 10
153.825638
 20
107.858667
 30
0.0
 10
162.004635
 20
107.858667
 30
0.0
 10
162.004635
 20
144.232667
 30
0.0
 10
153.825638
 20
144.232667
 30
0.0
 10
153.825638
 20
180.586668
 30
0.0
 10
162.004635
 20
180.586668
 30
0.0
 10
162.004635
 20
216.959667
 30
0.0
 10
153.825638
 20
216.959667
 30
0.0
 10
153.825638
 20
253.313667
 30
0.0
 10
162.004635
 20
253.313667
 30
0.0
 10
162.004635
 20
289.686667
 30
0.0
 10
153.825638
 20
289.686667
 30
0.0
 10
153.825638
 20
326.040668
 30
0.0
 10
162.004635
 20
326.040668
 30
0.0
 10
162.004635
 20
362.414668
 30
0.0
 10
153.825638
 20
362.414668
 30
0.0
 10
153.825638
 20
398.767667
 30
0.0
 10
162.004635
 20
398.767667
 30
0.0
 10
162.004635
 20
426.957668
 30
0.0
 10
196.687654
 20
426.957668
 30
0.0
 10
196.687654
 20
435.136668
 30
0.0
  0
LWPOLYLINE
  5
122
100
AcDbEntity
  8
0
 62
7
100
AcDbPolyline
 90
5
 70
0
 10
187.153652
 20
418.779666
 30
0.0
 10
220.497639
 20
418.779666
 30
0.0
 10
220.497639
 20
410.599667
 30
0.0
 10
187.153652
 20
410.599667
 30
0.0
 10
187.153652
 20
418.779666
 30
0.0
  0
LWPOLYLINE
  5
123
100
AcDbEntity
  8
0
 62
7
100
AcDbPolyline
 90
5
 70
0
 10
253.820630
 20
418.779666
 30
0.0
 10
287.163629
 20
418.779666
 30
0.0
 10
287.163629
 20
410.599667
 30
0.0
 10
253.820630
 20
410.599667
 30
0.0
 10
253.820630
 20
418.779666
 30
0.0
  0
LWPOLYLINE
  5
124
100
AcDbEntity
  8
0
 62
7
100
AcDbPolyline
 90
5
 70
0
 10
320.487630
 20
418.779666
 30
0.0
 10
353.830626
 20
418.779666
 30
0.0
 10
353.830626
 20
410.599667
 30
0.0
 10
320.487630
 20
410.599667
 30
0.0
 10
320.487630
 20
418.779666
 30
0.0
  0
LWPOLYLINE
  5
125
100
AcDbEntity
  8
0
 62
7
100
AcDbPolyline
 90
5
 70
0
 10
387.153622
 20
418.779666
 30
0.0
 10
420.497618
 20
418.779666
 30
0.0
 10
420.497618
 20
410.599667
 30
0.0
 10
387.153622
 20
410.599667
 30
0.0
 10
387.153622
 20
418.779666
 30
0.0
  0
LWPOLYLINE
  5
126
100
AcDbEntity
  8
0
 62
7
100
AcDbPolyline
 90
5
 70
0
 10
187.153652
 20
59.673668
 30
0.0
 10
220.497639
 20
59.673668
 30
0.0
 10
220.497639
 20
51.493668
 30
0.0
 10
187.153652
 20
51.493668
 30
0.0
 10
187.153652
 20
59.673668
 30
0.0
  0
LWPOLYLINE
  5
127
100
AcDbEntity
  8
0
 62
7
100
AcDbPolyline
 90
5
 70
0
 10
253.820630
 20
59.673668
 30
0.0
 10
287.163629
 20
59.673668
 30
0.0
 10
287.163629
 20
51.493668
 30
0.0
 10
253.820630
 20
51.493668
 30
0.0
 10
253.820630
 20
59.673668
 30
0.0
  0
LWPOLYLINE
  5
128
100
AcDbEntity
  8
0
 62
7
100
AcDbPolyline
 90
5
 70
0
 10
320.487630
 20
59.673668
 30
0.0
 10
353.830626
 20
59.673668
 30
0.0
 10
353.830626
 20
51.493668
 30
0.0
 10
320.487630
 20
51.493668
 30
0.0
 10
320.487630
 20
59.673668
 30
0.0
  0
LWPOLYLINE
  5
129
100
AcDbEntity
  8
0
 62
7
100
AcDbPolyline
 90
5
 70
0
 10
387.153622
 20
59.673668
 30
0.0
 10
420.497618
 20
59.673668
 30
0.0
 10
420.497618
 20
51.493668
 30
0.0
 10
387.153622
 20
51.493668
 30
0.0
 10
387.153622
 20
59.673668
 30
0.0
  0
LWPOLYLINE
  5
12a
100
AcDbEntity
  8
0
 62
7
100
AcDbPolyline
 90
71
 70
0
 10
466.094612
 20
435.136668
 30
0.0
 10
473.465612
 20
435.136668
 30
0.0
 10
473.465612
 20
426.957668
 30
0.0
 10
489.031611
 20
426.957668
 30
0.0
 10
489.031611
 20
435.136668
 30
0.0
 10
504.576610
 20
435.136668
 30
0.0
 10
504.576610
 20
426.957668
 30
0.0
 10
520.142606
 20
426.957668
 30
0.0
 10
520.142606
 20
435.136668
 30
0.0
 10
535.687605
 20
435.136668
 30
0.0
 10
535.687605
 20
426.957668
 30
0.0
 10
551.253603
 20
426.957668
 30
0.0
 10
551.253603
 20
435.136668
 30
0.0
 10
566.798602
 20
435.136668
 30
0.0
 10
566.798602
 20
426.957668
 30
0.0
 10
582.364600
 20
426.957668
 30
0.0
 10
582.364600
 20
435.136668
 30
0.0
 10
597.909599
 20
435.136668
 30
0.0
 10
597.909599
 20
426.957668
 30
0.0
 10
597.914600
 20
426.957668
 30
0.0
 10
597.914599
 20
418.779666
 30
0.0
 10
597.909598
 20
418.779666
 30
0.0
 10
597.909599
 20
410.599667
 30
0.0
 10
597.914600
 20
410.599667
 30
0.0
 10
597.914599
 20
59.673668
 30
0.0
 10
597.909598
 20
59.673668
 30
0.0
 10
597.909599
 20
51.493668
 30
0.0
 10
597.914600
 20
51.493668
 30
0.0
 10
597.914599
 20
43.315667
 30
0.0
 10
597.909598
 20
43.315667
 30
0.0
 10
597.909599
 20
35.136667
 30
0.0
 10
582.364600
 20
35.136667
 30
0.0
 10
582.364600
 20
43.315667
 30
0.0
 10
566.798602
 20
43.315667
 30
0.0
 10
566.798602
 20
35.136667
 30
0.0
 10
551.253603
 20
35.136667
 30
0.0
 10
551.253603
 20
43.315667
 30
0.0
 10
535.687605
 20
43.315667
 30
0.0
 10
535.687605
 20
35.136667
 30
0.0
 10
520.142606
 20
35.136667
 30
0.0
 10
520.142606
 20
43.315667
 30
0.0
 10
504.576610
 20
43.315667
 30
0.0
 10
504.576610
 20
35.136667
 30
0.0
 10
489.031611
 20
35.136667
 30
0.0
 10
489.031611
 20
43.315667
 30
0.0
 10
473.465612
 20
43.315667
 30
0.0
 10
473.465612
 20
35.136667
 30
0.0
 10
457.914614
 20
35.136667
 30
0.0
 10
457.914614
 20
71.495666
 30
0.0
 10
466.094612
 20
71.495666
 30
0.0
 10
466.094612
 20
107.868666
 30
0.0
 10
457.914614
 20
107.868666
 30
0.0
 10
457.914614
 20
144.222668
 30
0.0
 10
466.094612
 20
144.222668
 30
0.0
 10
466.094612
 20
180.596667
 30
0.0
 10
457.914614
 20
180.596667
 30
0.0
 10
457.914614
 20
216.949667
 30
0.0
 10
466.094612
 20
216.949667
 30
0.0
 10
466.094612
 20
253.323667
 30
0.0
 10
457.914614
 20
253.323667
 30
0.0
 10
457.914614
 20
289.676668
 30
0.0
 10
466.094612
 20
289.676668
 30
0.0
 10
466.094612
 20
326.050667
 30
0.0
 10
457.914614
 20
326.050667
 30
0.0
 10
457.914614
 20
362.404668
 30
0.0
 10
466.094612
 20
362.404668
 30
0.0
 10
466.094612
 20
398.777669
 30
0.0
 10
457.914614
 20
398.777669
 30
0.0
 10
457.914614
 20
435.131667
 30
0.0
 10
466.094612
 20
435.131667
 30
0.0
 10
466.094612
 20
435.136663
 30
0.0
  0
LWPOLYLINE
  5
12b
100
AcDbEntity
  8
0
 62
7
100
AcDbPolyline
 90
5
 70
0
 10
473.465612
 20
418.779666
 30
0.0
 10
489.031611
 20
418.779666
 30
0.0
 10
489.031611
 20
410.599667
 30
0.0
 10
473.465612
 20
410.599667
 30
0.0
 10
473.465612
 20
418.779666
 30
0.0
  0
LWPOLYLINE
  5
12c
100
AcDbEntity
  8
0
 62
7
100
AcDbPolyline
 90
5
 70
0
 10
504.576610
 20
418.779666
 30
0.0
 10
520.142606
 20
418.779666
 30
0.0
 10
520.142606
 20
410.599667
 30
0.0
 10
504.576610
 20
410.599667
 30
0.0
 10
504.576610
 20
418.779666
 30
0.0
  0
LWPOLYLINE
  5
12d
100
AcDbEntity
  8
0
 62
7
100
AcDbPolyline
 90
5
 70
0
 10
535.687605
 20
418.779666
 30
0.0
 10
551.253603
 20
418.779666
 30
0.0
 10
551.253603
 20
410.599667
 30
0.0
 10
535.687605
 20
410.599667
 30
0.0
 10
535.687605
 20
418.779666
 30
0.0
  0
LWPOLYLINE
  5
12e
100
AcDbEntity
  8
0
 62
7
100
AcDbPolyline
 90
5
 70
0
 10
566.798602
 20
418.779666
 30
0.0
 10
582.364600
 20
418.779666
 30
0.0
 10
582.364600
 20
410.599667
 30
0.0
 10
566.798602
 20
410.599667
 30
0.0
 10
566.798602
 20
418.779666
 30
0.0
  0
LWPOLYLINE
  5
12f
100
AcDbEntity
  8
0
 62
7
100
AcDbPolyline
 90
5
 70
0
 10
473.465612
 20
59.673668
 30
0.0
 10
489.031611
 20
59.673668
 30
0.0
 10
489.031611
 20
51.493668
 30
0.0
 10
473.465612
 20
51.493668
 30
0.0
 10
473.465612
 20
59.673668
 30
0.0
  0
LWPOLYLINE
  5
130
100
AcDbEntity
  8
0
 62
7
100
AcDbPolyline
 90
5
 70
0
 10
504.576610
 20
59.673668
 30
0.0
 10
520.142606
 20
59.673668
 30
0.0
 10
520.142606
 20
51.493668
 30
0.0
 10
504.576610
 20
51.493668
 30
0.0
 10
504.576610
 20
59.673668
 30
0.0
  0
LWPOLYLINE
  5
131
100
AcDbEntity
  8
0
 62
7
100
AcDbPolyline
 90
5
 70
0
 10
535.687605
 20
59.673668
 30
0.0
 10
551.253603
 20
59.673668
 30
0.0
 10
551.253603
 20
51.493668
 30
0.0
 10
535.687605
 20
51.493668
 30
0.0
 10
535.687605
 20
59.673668
 30
0.0
  0
LWPOLYLINE
  5
132
100
AcDbEntity
  8
0
 62
7
100
AcDbPolyline
 90
5
 70
0
 10
566.798602
 20
59.673668
 30
0.0
 10
582.364600
 20
59.673668
 30
0.0
 10
582.364600
 20
51.493668
 30
0.0
 10
566.798602
 20
51.493668
 30
0.0
 10
566.798602
 20
59.673668
 30
0.0
  0
LWPOLYLINE
  5
133
100
AcDbEntity
  8
0
 62
7
100
AcDbPolyline
 90
49
 70
0
 10
-196.666556
 20
-141.821704
 30
0.0
 10
-196.666556
 20
141.820307
 30
0.0
 10
-181.105556
 20
141.820307
 30
0.0
 10
-181.105556
 20
149.999308
 30
0.0
 10
-165.559557
 20
149.999308
 30
0.0
 10
-165.559557
 20
141.820307
 30
0.0
 10
-149.994555
 20
141.820307
 30
0.0
 10
-149.994555
 20
149.999308
 30
0.0
 10
-134.448556
 20
149.999308
 30
0.0
 10
-134.448556
 20
141.820307
 30
0.0
 10
-118.883557
 20
141.820307
 30
0.0
 10
-118.883557
 20
149.999308
 30
0.0
 10
-103.337558
 20
149.999308
 30
0.0
 10
-103.337558
 20
141.820307
 30
0.0
 10
-87.772550
 20
141.820307
 30
0.0
 10
-87.772550
 20
149.999308
 30
0.0
 10
-72.226565
 20
149.999308
 30
0.0
 10
-72.226565
 20
141.820307
 30
0.0
 10
-56.666553
 20
141.820307
 30
0.0
 10
-56.666553
 20
107.147306
 30
0.0
 10
-64.845551
 20
107.147306
 30
0.0
 10
-64.845551
 20
64.280308
 30
0.0
 10
-56.666553
 20
64.280308
 30
0.0
 10
-56.666553
 20
21.433307
 30
0.0
 10
-64.845551
 20
21.433307
 30
0.0
 10
-64.845551
 20
-21.434679
 30
0.0
 10
-56.666553
 20
-21.434679
 30
0.0
 10
-56.666553
 20
-64.281685
 30
0.0
 10
-64.845551
 20
-64.281685
 30
0.0
 10
-64.845551
 20
-107.148701
 30
0.0
 10
-56.666553
 20
-107.148701
 30
0.0
 10
-56.666553
 20
-141.821704
 30
0.0
 10
-72.226565
 20
-141.821704
 30
0.0
 10
-72.226565
 20
-150.000702
 30
0.0
 10
-87.772550
 20
-150.000702
 30
0.0
 10
-87.772550
 20
-141.821704
 30
0.0
 10
-103.337558
 20
-141.821704
 30
0.0
 10
-103.337558
 20
-150.000702
 30
0.0
 10
-118.883557
 20
-150.000702
 30
0.0
 10
-118.883557
 20
-141.821704
 30
0.0
 10
-134.448556
 20
-141.821704
 30
0.0
 10
-134.448556
 20
-150.000702
 30
0.0
 10
-149.994555
 20
-150.000702
 30
0.0
 10
-149.994555
 20
-141.821704
 30
0.0
 10
-165.559557
 20
-141.821704
 30
0.0
 10
-165.559557
 20
-150.000702
 30
0.0
 10
-181.105556
 20
-150.000702
 30
0.0
 10
-181.105556
 20
-141.821704
 30
0.0
 10
-196.666556
 20
-141.821704
 30
0.0
  0
LWPOLYLINE
  5
134
100
AcDbEntity
  8
0
 62
7
100
AcDbPolyline
 90
63
 70
0
 10
-192.576554
 20
-236.358698
 30
0.0
 10
-192.358555
 20
-234.278692
 30
0.0
 10
-191.712556
 20
-232.290691
 30
0.0
 10
-190.666556
 20
-230.480687
 30
0.0
 10
-189.268554
 20
-228.926686
 30
0.0
 10
-187.576556
 20
-227.697693
 30
0.0
 10
-185.666555
 20
-226.847696
 30
0.0
 10
-183.621556
 20
-226.412679
 30
0.0
 10
-181.636554
 20
-226.412679
 30
0.0
 10
-179.603555
 20
-224.106698
 30
0.0
 10
-177.163555
 20
-221.666689
 30
0.0
 10
-174.575555
 20
-219.384697
 30
0.0
 10
-171.848554
 20
-217.269695
 30
0.0
 10
-168.994557
 20
-215.330687
 30
0.0
 10
-166.025556
 20
-213.573685
 30
0.0
 10
-162.950556
 20
-212.007690
 30
0.0
 10
-159.784556
 20
-210.636683
 30
0.0
 10
-156.537556
 20
-209.468706
 30
0.0
 10
-153.224555
 20
-208.505679
 30
0.0
 10
-149.856557
 20
-207.752682
 30
0.0
 10
-146.448554
 20
-207.213694
 30
0.0
 10
-143.013557
 20
-206.888687
 30
0.0
 10
-139.565555
 20
-206.780680
 30
0.0
 10
-136.116557
 20
-206.888687
 30
0.0
 10
-132.681557
 20
-207.213694
 30
0.0
 10
-129.273557
 20
-207.752682
 30
0.0
 10
-125.905556
 20
-208.505679
 30
0.0
 10
-122.592555
 20
-209.468706
 30
0.0
 10
-119.346557
 20
-210.636683
 30
0.0
 10
-116.179544
 20
-212.007690
 30
0.0
 10
-113.105551
 20
-213.573685
 30
0.0
 10
-110.135557
 20
-215.330687
 30
0.0
 10
-107.281557
 20
-217.269695
 30
0.0
 10
-104.555544
 20
-219.384697
 30
0.0
 10
-101.966550
 20
-221.666689
 30
0.0
 10
-99.527558
 20
-224.106698
 30
0.0
 10
-97.493554
 20
-226.412679
 30
0.0
 10
-95.508544
 20
-226.412679
 30
0.0
 10
-93.463562
 20
-226.847696
 30
0.0
 10
-91.553566
 20
-227.697693
 30
0.0
 10
-89.862547
 20
-228.926686
 30
0.0
 10
-88.463543
 20
-230.480687
 30
0.0
 10
-87.417543
 20
-232.290691
 30
0.0
 10
-86.771565
 20
-234.278692
 30
0.0
 10
-86.553548
 20
-236.358698
 30
0.0
 10
-86.771565
 20
-238.437688
 30
0.0
 10
-87.417543
 20
-240.425690
 30
0.0
 10
-88.463543
 20
-242.235694
 30
0.0
 10
-89.862547
 20
-243.789694
 30
0.0
 10
-91.553566
 20
-245.018687
 30
0.0
 10
-93.463562
 20
-245.868684
 30
0.0
 10
-95.508544
 20
-246.303701
 30
0.0
 10
-97.598569
 20
-246.303701
 30
0.0
 10
-99.643551
 20
-245.868684
 30
0.0
 10
-101.553546
 20
-245.018687
 30
0.0
 10
-103.244565
 20
-243.789694
 30
0.0
 10
-104.643569
 20
-242.235694
 30
0.0
 10
-105.688553
 20
-240.425690
 30
0.0
 10
-106.334560
 20
-238.437688
 30
0.0
 10
-106.553564
 20
-236.358698
 30
0.0
 10
-106.334560
 20
-234.278692
 30
0.0
 10
-105.688553
 20
-232.290691
 30
0.0
 10
-105.667669
 20
-232.254679
 30
0.0
  0
LWPOLYLINE
  5
135
100
AcDbEntity
  8
0
 62
7
100
AcDbPolyline
 90
47
 70
0
 10
-105.667556
 20
-232.254679
 30
0.0
 10
-106.816567
 20
-230.951687
 30
0.0
 10
-108.812556
 20
-228.955699
 30
0.0
 10
-110.929561
 20
-227.089702
 30
0.0
 10
-113.159568
 20
-225.359680
 30
0.0
 10
-115.493546
 20
-223.773704
 30
0.0
 10
-117.922548
 20
-222.336685
 30
0.0
 10
-120.437554
 20
-221.055706
 30
0.0
 10
-123.027556
 20
-219.934691
 30
0.0
 10
-125.682556
 20
-218.978692
 30
0.0
 10
-128.392555
 20
-218.191687
 30
0.0
 10
-131.147555
 20
-217.575680
 30
0.0
 10
-133.934556
 20
-217.134680
 30
0.0
 10
-136.744555
 20
-216.868685
 30
0.0
 10
-139.565555
 20
-216.780689
 30
0.0
 10
-142.385556
 20
-216.868685
 30
0.0
 10
-145.195555
 20
-217.134680
 30
0.0
 10
-147.983555
 20
-217.575680
 30
0.0
 10
-150.737556
 20
-218.191687
 30
0.0
 10
-153.447555
 20
-218.978692
 30
0.0
 10
-156.102555
 20
-219.934691
 30
0.0
 10
-158.692556
 20
-221.055706
 30
0.0
 10
-161.207554
 20
-222.336685
 30
0.0
 10
-163.636556
 20
-223.773704
 30
0.0
 10
-165.970557
 20
-225.359680
 30
0.0
 10
-168.200555
 20
-227.089702
 30
0.0
 10
-170.317555
 20
-228.955699
 30
0.0
 10
-172.313555
 20
-230.951687
 30
0.0
 10
-173.462555
 20
-232.254679
 30
0.0
 10
-173.441558
 20
-232.290691
 30
0.0
 10
-172.795557
 20
-234.278692
 30
0.0
 10
-172.576555
 20
-236.358698
 30
0.0
 10
-172.795557
 20
-238.437688
 30
0.0
 10
-173.441555
 20
-240.425690
 30
0.0
 10
-174.486556
 20
-242.235694
 30
0.0
 10
-175.885557
 20
-243.789694
 30
0.0
 10
-177.576556
 20
-245.018687
 30
0.0
 10
-179.486554
 20
-245.868684
 30
0.0
 10
-181.531556
 20
-246.303701
 30
0.0
 10
-183.621556
 20
-246.303701
 30
0.0
 10
-185.666555
 20
-245.868684
 30
0.0
 10
-187.576556
 20
-245.018687
 30
0.0
 10
-189.268554
 20
-243.789694
 30
0.0
 10
-190.666556
 20
-242.235694
 30
0.0
 10
-191.712556
 20
-240.425690
 30
0.0
 10
-192.358555
 20
-238.437688
 30
0.0
 10
-192.576554
 20
-236.358698
 30
0.0
  0
LWPOLYLINE
  5
136
100
AcDbEntity
  8
0
 62
7
100
AcDbPolyline
 90
63
 70
0
 10
-192.576554
 20
-206.358702
 30
0.0
 10
-192.358555
 20
-204.278696
 30
0.0
 10
-191.712556
 20
-202.290694
 30
0.0
 10
-190.666556
 20
-200.480690
 30
0.0
 10
-189.268554
 20
-198.926690
 30
0.0
 10
-187.576556
 20
-197.697697
 30
0.0
 10
-185.666555
 20
-196.847700
 30
0.0
 10
-183.621556
 20
-196.412683
 30
0.0
 10
-181.636554
 20
-196.412683
 30
0.0
 10
-179.603555
 20
-194.106701
 30
0.0
 10
-177.163555
 20
-191.666693
 30
0.0
 10
-174.575555
 20
-189.384700
 30
0.0
 10
-171.848554
 20
-187.269699
 30
0.0
 10
-168.994557
 20
-185.330691
 30
0.0
 10
-166.025556
 20
-183.573688
 30
0.0
 10
-162.950556
 20
-182.007693
 30
0.0
 10
-159.784556
 20
-180.636686
 30
0.0
 10
-156.537556
 20
-179.468681
 30
0.0
 10
-153.224555
 20
-178.505683
 30
0.0
 10
-149.856557
 20
-177.752685
 30
0.0
 10
-146.448554
 20
-177.213697
 30
0.0
 10
-143.013557
 20
-176.888690
 30
0.0
 10
-139.565555
 20
-176.780684
 30
0.0
 10
-136.116557
 20
-176.888690
 30
0.0
 10
-132.681557
 20
-177.213697
 30
0.0
 10
-129.273557
 20
-177.752685
 30
0.0
 10
-125.905556
 20
-178.505683
 30
0.0
 10
-122.592555
 20
-179.468681
 30
0.0
 10
-119.346557
 20
-180.636686
 30
0.0
 10
-116.179544
 20
-182.007693
 30
0.0
 10
-113.105551
 20
-183.573688
 30
0.0
 10
-110.135557
 20
-185.330691
 30
0.0
 10
-107.281557
 20
-187.269699
 30
0.0
 10
-104.555544
 20
-189.384700
 30
0.0
 10
-101.966550
 20
-191.666693
 30
0.0
 10
-99.527558
 20
-194.106701
 30
0.0
 10
-97.493554
 20
-196.412683
 30
0.0
 10
-95.508544
 20
-196.412683
 30
0.0
 10
-93.463562
 20
-196.847700
 30
0.0
 10
-91.553566
 20
-197.697697
 30
0.0
 10
-89.862547
 20
-198.926690
 30
0.0
 10
-88.463543
 20
-200.480690
 30
0.0
 10
-87.417543
 20
-202.290694
 30
0.0
 10
-86.771565
 20
-204.278696
 30
0.0
 10
-86.553548
 20
-206.358702
 30
0.0
 10
-86.771565
 20
-208.437692
 30
0.0
 10
-87.417543
 20
-210.425693
 30
0.0
 10
-88.463543
 20
-212.235697
 30
0.0
 10
-89.862547
 20
-213.789697
 30
0.0
 10
-91.553566
 20
-215.018691
 30
0.0
 10
-93.463562
 20
-215.868687
 30
0.0
 10
-95.508544
 20
-216.303705
 30
0.0
 10
-97.598569
 20
-216.303705
 30
0.0
 10
-99.643551
 20
-215.868687
 30
0.0
 10
-101.553546
 20
-215.018691
 30
0.0
 10
-103.244565
 20
-213.789697
 30
0.0
 10
-104.643569
 20
-212.235697
 30
0.0
 10
-105.688553
 20
-210.425693
 30
0.0
 10
-106.334560
 20
-208.437692
 30
0.0
 10
-106.553564
 20
-206.358702
 30
0.0
 10
-106.334560
 20
-204.278696
 30
0.0
 10
-105.688553
 20
-202.290694
 30
0.0
 10
-105.667669
 20
-202.254683
 30
0.0
  0
LWPOLYLINE
  5
137
100
AcDbEntity
  8
0
 62
7
100
AcDbPolyline
 90
47
 70
0
 10
-105.667556
 20
-202.254683
 30
0.0
 10
-106.816567
 20
-200.951691
 30
0.0
 10
-108.812556
 20
-198.955702
 30
0.0
 10
-110.929561
 20
-197.089705
 30
0.0
 10
-113.159568
 20
-195.359683
 30
0.0
 10
-115.493546
 20
-193.773679
 30
0.0
 10
-117.922548
 20
-192.336688
 30
0.0
 10
-120.437554
 20
-191.055681
 30
0.0
 10
-123.027556
 20
-189.934695
 30
0.0
 10
-125.682556
 20
-188.978695
 30
0.0
 10
-128.392555
 20
-188.191690
 30
0.0
 10
-131.147555
 20
-187.575684
 30
0.0
 10
-133.934556
 20
-187.134683
 30
0.0
 10
-136.744555
 20
-186.868689
 30
0.0
 10
-139.565555
 20
-186.780692
 30
0.0
 10
-142.385556
 20
-186.868689
 30
0.0
 10
-145.195555
 20
-187.134683
 30
0.0
 10
-147.983555
 20
-187.575684
 30
0.0
 10
-150.737556
 20
-188.191690
 30
0.0
 10
-153.447555
 20
-188.978695
 30
0.0
 10
-156.102555
 20
-189.934695
 30
0.0
 10
-158.692556
 20
-191.055681
 30
0.0
 10
-161.207554
 20
-192.336688
 30
0.0
 10
-163.636556
 20
-193.773679
 30
0.0
 10
-165.970557
 20
-195.359683
 30
0.0
 10
-168.200555
 20
-197.089705
 30
0.0
 10
-170.317555
 20
-198.955702
 30
0.0
 10
-172.313555
 20
-200.951691
 30
0.0
 10
-173.462555
 20
-202.254683
 30
0.0
 10
-173.441558
 20
-202.290694
 30
0.0
 10
-172.795557
 20
-204.278696
 30
0.0
 10
-172.576555
 20
-206.358702
 30
0.0
 10
-172.795557
 20
-208.437692
 30
0.0
 10
-173.441555
 20
-210.425693
 30
0.0
 10
-174.486556
 20
-212.235697
 30
0.0
 10
-175.885557
 20
-213.789697
 30
0.0
 10
-177.576556
 20
-215.018691
 30
0.0
 10
-179.486554
 20
-215.868687
 30
0.0
 10
-181.531556
 20
-216.303705
 30
0.0
 10
-183.621556
 20
-216.303705
 30
0.0
 10
-185.666555
 20
-215.868687
 30
0.0
 10
-187.576556
 20
-215.018691
 30
0.0
 10
-189.268554
 20
-213.789697
 30
0.0
 10
-190.666556
 20
-212.235697
 30
0.0
 10
-191.712556
 20
-210.425693
 30
0.0
 10
-192.358555
 20
-208.437692
 30
0.0
 10
-192.576554
 20
-206.358702
 30
0.0
  0
LWPOLYLINE
  5
138
100
AcDbEntity
  8
0
 62
7
100
AcDbPolyline
 90
37
 70
0
 10
-187.576556
 20
-236.358698
 30
0.0
 10
-187.500556
 20
-235.489679
 30
0.0
 10
-187.275555
 20
-234.647698
 30
0.0
 10
-186.906555
 20
-233.858689
 30
0.0
 10
-186.406556
 20
-233.144695
 30
0.0
 10
-185.790555
 20
-232.527701
 30
0.0
 10
-185.076555
 20
-232.027688
 30
0.0
 10
-184.286556
 20
-231.659698
 30
0.0
 10
-183.444555
 20
-231.434682
 30
0.0
 10
-182.576555
 20
-231.358680
 30
0.0
 10
-181.708555
 20
-231.434682
 30
0.0
 10
-180.866556
 20
-231.659698
 30
0.0
 10
-180.076557
 20
-232.027688
 30
0.0
 10
-179.362554
 20
-232.527701
 30
0.0
 10
-178.746556
 20
-233.144695
 30
0.0
 10
-178.246555
 20
-233.858689
 30
0.0
 10
-177.878557
 20
-234.647698
 30
0.0
 10
-177.652556
 20
-235.489679
 30
0.0
 10
-177.576556
 20
-236.358698
 30
0.0
 10
-177.652556
 20
-237.226701
 30
0.0
 10
-177.878557
 20
-238.068683
 30
0.0
 10
-178.246555
 20
-238.858679
 30
0.0
 10
-178.746556
 20
-239.572701
 30
0.0
 10
-179.362554
 20
-240.188679
 30
0.0
 10
-180.076557
 20
-240.688693
 30
0.0
 10
-180.866556
 20
-241.056682
 30
0.0
 10
-181.708555
 20
-241.282686
 30
0.0
 10
-182.576555
 20
-241.358688
 30
0.0
 10
-183.444555
 20
-241.282686
 30
0.0
 10
-184.286556
 20
-241.056682
 30
0.0
 10
-185.076555
 20
-240.688693
 30
0.0
 10
-185.790555
 20
-240.188679
 30
0.0
 10
-186.406556
 20
-239.572701
 30
0.0
 10
-186.906555
 20
-238.858679
 30
0.0
 10
-187.275555
 20
-238.068683
 30
0.0
 10
-187.500556
 20
-237.226701
 30
0.0
 10
-187.576556
 20
-236.358698
 30
0.0
  0
LWPOLYLINE
  5
139
100
AcDbEntity
  8
0
 62
7
100
AcDbPolyline
 90
37
 70
0
 10
-187.576556
 20
-206.358702
 30
0.0
 10
-187.500556
 20
-205.489683
 30
0.0
 10
-187.275555
 20
-204.647701
 30
0.0
 10
-186.906555
 20
-203.858693
 30
0.0
 10
-186.406556
 20
-203.144699
 30
0.0
 10
-185.790555
 20
-202.527704
 30
0.0
 10
-185.076555
 20
-202.027691
 30
0.0
 10
-184.286556
 20
-201.659702
 30
0.0
 10
-183.444555
 20
-201.434686
 30
0.0
 10
-182.576555
 20
-201.358683
 30
0.0
 10
-181.708555
 20
-201.434686
 30
0.0
 10
-180.866556
 20
-201.659702
 30
0.0
 10
-180.076557
 20
-202.027691
 30
0.0
 10
-179.362554
 20
-202.527704
 30
0.0
 10
-178.746556
 20
-203.144699
 30
0.0
 10
-178.246555
 20
-203.858693
 30
0.0
 10
-177.878557
 20
-204.647701
 30
0.0
 10
-177.652556
 20
-205.489683
 30
0.0
 10
-177.576556
 20
-206.358702
 30
0.0
 10
-177.652556
 20
-207.226704
 30
0.0
 10
-177.878557
 20
-208.068686
 30
0.0
 10
-178.246555
 20
-208.858683
 30
0.0
 10
-178.746556
 20
-209.572705
 30
0.0
 10
-179.362554
 20
-210.188683
 30
0.0
 10
-180.076557
 20
-210.688696
 30
0.0
 10
-180.866556
 20
-211.056686
 30
0.0
 10
-181.708555
 20
-211.282689
 30
0.0
 10
-182.576555
 20
-211.358692
 30
0.0
 10
-183.444555
 20
-211.282689
 30
0.0
 10
-184.286556
 20
-211.056686
 30
0.0
 10
-185.076555
 20
-210.688696
 30
0.0
 10
-185.790555
 20
-210.188683
 30
0.0
 10
-186.406556
 20
-209.572705
 30
0.0
 10
-186.906555
 20
-208.858683
 30
0.0
 10
-187.275555
 20
-208.068686
 30
0.0
 10
-187.500556
 20
-207.226704
 30
0.0
 10
-187.576556
 20
-206.358702
 30
0.0
  0
LWPOLYLINE
  5
13a
100
AcDbEntity
  8
0
 62
7
100
AcDbPolyline
 90
37
 70
0
 10
-101.553546
 20
-236.358698
 30
0.0
 10
-101.477544
 20
-235.489679
 30
0.0
 10
-101.251568
 20
-234.647698
 30
0.0
 10
-100.883551
 20
-233.858689
 30
0.0
 10
-100.383566
 20
-233.144695
 30
0.0
 10
-99.767559
 20
-232.527701
 30
0.0
 10
-99.053565
 20
-232.027688
 30
0.0
 10
-98.263569
 20
-231.659698
 30
0.0
 10
-97.421559
 20
-231.434682
 30
0.0
 10
-96.553556
 20
-231.358680
 30
0.0
 10
-95.685554
 20
-231.434682
 30
0.0
 10
-94.843544
 20
-231.659698
 30
0.0
 10
-94.053547
 20
-232.027688
 30
0.0
 10
-93.339553
 20
-232.527701
 30
0.0
 10
-92.723547
 20
-233.144695
 30
0.0
 10
-92.223562
 20
-233.858689
 30
0.0
 10
-91.854556
 20
-234.647698
 30
0.0
 10
-91.629569
 20
-235.489679
 30
0.0
 10
-91.553566
 20
-236.358698
 30
0.0
 10
-91.629569
 20
-237.226701
 30
0.0
 10
-91.854556
 20
-238.068683
 30
0.0
 10
-92.223562
 20
-238.858679
 30
0.0
 10
-92.723547
 20
-239.572701
 30
0.0
 10
-93.339553
 20
-240.188679
 30
0.0
 10
-94.053547
 20
-240.688693
 30
0.0
 10
-94.843544
 20
-241.056682
 30
0.0
 10
-95.685554
 20
-241.282686
 30
0.0
 10
-96.553556
 20
-241.358688
 30
0.0
 10
-97.421559
 20
-241.282686
 30
0.0
 10
-98.263569
 20
-241.056682
 30
0.0
 10
-99.053565
 20
-240.688693
 30
0.0
 10
-99.767559
 20
-240.188679
 30
0.0
 10
-100.383566
 20
-239.572701
 30
0.0
 10
-100.883551
 20
-238.858679
 30
0.0
 10
-101.251568
 20
-238.068683
 30
0.0
 10
-101.477544
 20
-237.226701
 30
0.0
 10
-101.553546
 20
-236.358698
 30
0.0
  0
LWPOLYLINE
  5
13b
100
AcDbEntity
  8
0
 62
7
100
AcDbPolyline
 90
37
 70
0
 10
-101.553546
 20
-206.358702
 30
0.0
 10
-101.477544
 20
-205.489683
 30
0.0
 10
-101.251568
 20
-204.647701
 30
0.0
 10
-100.883551
 20
-203.858693
 30
0.0
 10
-100.383566
 20
-203.144699
 30
0.0
 10
-99.767559
 20
-202.527704
 30
0.0
 10
-99.053565
 20
-202.027691
 30
0.0
 10
-98.263569
 20
-201.659702
 30
0.0
 10
-97.421559
 20
-201.434686
 30
0.0
 10
-96.553556
 20
-201.358683
 30
0.0
 10
-95.685554
 20
-201.434686
 30
0.0
 10
-94.843544
 20
-201.659702
 30
0.0
 10
-94.053547
 20
-202.027691
 30
0.0
 10
-93.339553
 20
-202.527704
 30
0.0
 10
-92.723547
 20
-203.144699
 30
0.0
 10
-92.223562
 20
-203.858693
 30
0.0
 10
-91.854556
 20
-204.647701
 30
0.0
 10
-91.629569
 20
-205.489683
 30
0.0
 10
-91.553566
 20
-206.358702
 30
0.0
 10
-91.629569
 20
-207.226704
 30
0.0
 10
-91.854556
 20
-208.068686
 30
0.0
 10
-92.223562
 20
-208.858683
 30
0.0
 10
-92.723547
 20
-209.572705
 30
0.0
 10
-93.339553
 20
-210.188683
 30
0.0
 10
-94.053547
 20
-210.688696
 30
0.0
 10
-94.843544
 20
-211.056686
 30
0.0
 10
-95.685554
 20
-211.282689
 30
0.0
 10
-96.553556
 20
-211.358692
 30
0.0
 10
-97.421559
 20
-211.282689
 30
0.0
 10
-98.263569
 20
-211.056686
 30
0.0
 10
-99.053565
 20
-210.688696
 30
0.0
 10
-99.767559
 20
-210.188683
 30
0.0
 10
-100.383566
 20
-209.572705
 30
0.0
 10
-100.883551
 20
-208.858683
 30
0.0
 10
-101.251568
 20
-208.068686
 30
0.0
 10
-101.477544
 20
-207.226704
 30
0.0
 10
-101.553546
 20
-206.358702
 30
0.0
  0
LWPOLYLINE
  5
13c
100
AcDbEntity
  8
0
 62
7
100
AcDbPolyline
 90
117
 70
0
 10
-367.554332
 20
167.613863
 30
0.0
 10
-367.336332
 20
169.692862
 30
0.0
 10
-366.690334
 20
171.680863
 30
0.0
 10
-365.644334
 20
173.491864
 30
0.0
 10
-364.246332
 20
175.044862
 30
0.0
 10
-362.554334
 20
176.273864
 30
0.0
 10
-360.644333
 20
177.123863
 30
0.0
 10
-358.599334
 20
177.558864
 30
0.0
 10
-357.045333
 20
177.558864
 30
0.0
 10
-355.905333
 20
179.235862
 30
0.0
 10
-351.538334
 20
184.865862
 30
0.0
 10
-346.826332
 20
190.210863
 30
0.0
 10
-341.788332
 20
195.248863
 30
0.0
 10
-336.443334
 20
199.960862
 30
0.0
 10
-330.813334
 20
204.327862
 30
0.0
 10
-324.920333
 20
208.332863
 30
0.0
 10
-318.787334
 20
211.959862
 30
0.0
 10
-312.438333
 20
215.194862
 30
0.0
 10
-305.899335
 20
218.024862
 30
0.0
 10
-299.195335
 20
220.437862
 30
0.0
 10
-292.353323
 20
222.425864
 30
0.0
 10
-285.399339
 20
223.980863
 30
0.0
 10
-278.362325
 20
225.094862
 30
0.0
 10
-271.268331
 20
225.765862
 30
0.0
 10
-264.146340
 20
225.989862
 30
0.0
 10
-257.025338
 20
225.765862
 30
0.0
 10
-249.931343
 20
225.094862
 30
0.0
 10
-242.894330
 20
223.980863
 30
0.0
 10
-235.940346
 20
222.425864
 30
0.0
 10
-229.098320
 20
220.437862
 30
0.0
 10
-222.394328
 20
218.024862
 30
0.0
 10
-215.855324
 20
215.194862
 30
0.0
 10
-209.506340
 20
211.959862
 30
0.0
 10
-203.373341
 20
208.332863
 30
0.0
 10
-197.480343
 20
204.327862
 30
0.0
 10
-191.850320
 20
199.960862
 30
0.0
 10
-186.505342
 20
195.248863
 30
0.0
 10
-181.467337
 20
190.210863
 30
0.0
 10
-176.755326
 20
184.865862
 30
0.0
 10
-172.388332
 20
179.235862
 30
0.0
 10
-171.248324
 20
177.558864
 30
0.0
 10
-169.693336
 20
177.558864
 30
0.0
 10
-167.649342
 20
177.123863
 30
0.0
 10
-165.739346
 20
176.273864
 30
0.0
 10
-164.047339
 20
175.044862
 30
0.0
 10
-162.649323
 20
173.491864
 30
0.0
 10
-161.603323
 20
171.680863
 30
0.0
 10
-160.957345
 20
169.692862
 30
0.0
 10
-160.739328
 20
167.613863
 30
0.0
 10
-160.957345
 20
165.534862
 30
0.0
 10
-161.603323
 20
163.545864
 30
0.0
 10
-162.649323
 20
161.735863
 30
0.0
 10
-164.047339
 20
160.181863
 30
0.0
 10
-165.739346
 20
158.953863
 30
0.0
 10
-167.649342
 20
158.102862
 30
0.0
 10
-169.693336
 20
157.668863
 30
0.0
 10
-171.784320
 20
157.668863
 30
0.0
 10
-173.829331
 20
158.102862
 30
0.0
 10
-175.739326
 20
158.953863
 30
0.0
 10
-177.430345
 20
160.181863
 30
0.0
 10
-178.829321
 20
161.735863
 30
0.0
 10
-179.874333
 20
163.545864
 30
0.0
 10
-180.520340
 20
165.534862
 30
0.0
 10
-180.739344
 20
167.613863
 30
0.0
 10
-180.520340
 20
169.692862
 30
0.0
 10
-179.874333
 20
171.680863
 30
0.0
 10
-179.628320
 20
172.107863
 30
0.0
 10
-180.478345
 20
173.358864
 30
0.0
 10
-184.460332
 20
178.491862
 30
0.0
 10
-188.757334
 20
183.365862
 30
0.0
 10
-193.351319
 20
187.959862
 30
0.0
 10
-198.224338
 20
192.255862
 30
0.0
 10
-203.358327
 20
196.237863
 30
0.0
 10
-208.731330
 20
199.889864
 30
0.0
 10
-214.324325
 20
203.196862
 30
0.0
 10
-220.113324
 20
206.146863
 30
0.0
 10
-226.075325
 20
208.726862
 30
0.0
 10
-232.188343
 20
210.927863
 30
0.0
 10
-238.427345
 20
212.740864
 30
0.0
 10
-244.768342
 20
214.157862
 30
0.0
 10
-251.185341
 20
215.173862
 30
0.0
 10
-257.653338
 20
215.785864
 30
0.0
 10
-264.146340
 20
215.989862
 30
0.0
 10
-270.640330
 20
215.785864
 30
0.0
 10
-277.108327
 20
215.173862
 30
0.0
 10
-283.525327
 20
214.157862
 30
0.0
 10
-289.866324
 20
212.740864
 30
0.0
 10
-296.105334
 20
210.927863
 30
0.0
 10
-302.218333
 20
208.726862
 30
0.0
 10
-308.180334
 20
206.146863
 30
0.0
 10
-313.969332
 20
203.196862
 30
0.0
 10
-319.562333
 20
199.889864
 30
0.0
 10
-324.935334
 20
196.237863
 30
0.0
 10
-330.069334
 20
192.255862
 30
0.0
 10
-334.942332
 20
187.959862
 30
0.0
 10
-339.536334
 20
183.365862
 30
0.0
 10
-343.833334
 20
178.491862
 30
0.0
 10
-347.815332
 20
173.358864
 30
0.0
 10
-348.665334
 20
172.107863
 30
0.0
 10
-348.419333
 20
171.680863
 30
0.0
 10
-347.773334
 20
169.692862
 30
0.0
 10
-347.554333
 20
167.613863
 30
0.0
 10
-347.773334
 20
165.534862
 30
0.0
 10
-348.419333
 20
163.545864
 30
0.0
 10
-349.464334
 20
161.735863
 30
0.0
 10
-350.863335
 20
160.181863
 30
0.0
 10
-352.554334
 20
158.953863
 30
0.0
 10
-354.464332
 20
158.102862
 30
0.0
 10
-356.509334
 20
157.668863
 30
0.0
 10
-358.599334
 20
157.668863
 30
0.0
 10
-360.644333
 20
158.102862
 30
0.0
 10
-362.554334
 20
158.953863
 30
0.0
 10
-364.246332
 20
160.181863
 30
0.0
 10
-365.644334
 20
161.735863
 30
0.0
 10
-366.690334
 20
163.545864
 30
0.0
 10
-367.336332
 20
165.534862
 30
0.0
 10
-367.554332
 20
167.613863
 30
0.0
  0
LWPOLYLINE
  5
13d
100
AcDbEntity
  8
0
 62
7
100
AcDbPolyline
 90
117
 70
0
 10
-367.554332
 20
205.792863
 30
0.0
 10
-367.336332
 20
207.871862
 30
0.0
 10
-366.690334
 20
209.859863
 30
0.0
 10
-365.644334
 20
211.669861
 30
0.0
 10
-364.246332
 20
213.223862
 30
0.0
 10
-362.554334
 20
214.452863
 30
0.0
 10
-360.644333
 20
215.302863
 30
0.0
 10
-358.599334
 20
215.737863
 30
0.0
 10
-357.045333
 20
215.737863
 30
0.0
 10
-355.905333
 20
217.414862
 30
0.0
 10
-351.538334
 20
223.044862
 30
0.0
 10
-346.826332
 20
228.389863
 30
0.0
 10
-341.788332
 20
233.427863
 30
0.0
 10
-336.443334
 20
238.139862
 30
0.0
 10
-330.813334
 20
242.506864
 30
0.0
 10
-324.920333
 20
246.511863
 30
0.0
 10
-318.787334
 20
250.138864
 30
0.0
 10
-312.438333
 20
253.373862
 30
0.0
 10
-305.899335
 20
256.203862
 30
0.0
 10
-299.195335
 20
258.616862
 30
0.0
 10
-292.353323
 20
260.604864
 30
0.0
 10
-285.399339
 20
262.158864
 30
0.0
 10
-278.362325
 20
263.273862
 30
0.0
 10
-271.268331
 20
263.944862
 30
0.0
 10
-264.146340
 20
264.167863
 30
0.0
 10
-257.025338
 20
263.944862
 30
0.0
 10
-249.931343
 20
263.273862
 30
0.0
 10
-242.894330
 20
262.158864
 30
0.0
 10
-235.940346
 20
260.604864
 30
0.0
 10
-229.098320
 20
258.616862
 30
0.0
 10
-222.394328
 20
256.203862
 30
0.0
 10
-215.855324
 20
253.373862
 30
0.0
 10
-209.506340
 20
250.138864
 30
0.0
 10
-203.373341
 20
246.511863
 30
0.0
 10
-197.480343
 20
242.506864
 30
0.0
 10
-191.850320
 20
238.139862
 30
0.0
 10
-186.505342
 20
233.427863
 30
0.0
 10
-181.467337
 20
228.389863
 30
0.0
 10
-176.755326
 20
223.044862
 30
0.0
 10
-172.388332
 20
217.414862
 30
0.0
 10
-171.248324
 20
215.737863
 30
0.0
 10
-169.693336
 20
215.737863
 30
0.0
 10
-167.649342
 20
215.302863
 30
0.0
 10
-165.739346
 20
214.452863
 30
0.0
 10
-164.047339
 20
213.223862
 30
0.0
 10
-162.649323
 20
211.669861
 30
0.0
 10
-161.603323
 20
209.859863
 30
0.0
 10
-160.957345
 20
207.871862
 30
0.0
 10
-160.739328
 20
205.792863
 30
0.0
 10
-160.957345
 20
203.712863
 30
0.0
 10
-161.603323
 20
201.724864
 30
0.0
 10
-162.649323
 20
199.914863
 30
0.0
 10
-164.047339
 20
198.360863
 30
0.0
 10
-165.739346
 20
197.131864
 30
0.0
 10
-167.649342
 20
196.281864
 30
0.0
 10
-169.693336
 20
195.846864
 30
0.0
 10
-171.784320
 20
195.846864
 30
0.0
 10
-173.829331
 20
196.281864
 30
0.0
 10
-175.739326
 20
197.131864
 30
0.0
 10
-177.430345
 20
198.360863
 30
0.0
 10
-178.829321
 20
199.914863
 30
0.0
 10
-179.874333
 20
201.724864
 30
0.0
 10
-180.520340
 20
203.712863
 30
0.0
 10
-180.739344
 20
205.792863
 30
0.0
 10
-180.520340
 20
207.871862
 30
0.0
 10
-179.874333
 20
209.859863
 30
0.0
 10
-179.628320
 20
210.285863
 30
0.0
 10
-180.478345
 20
211.536864
 30
0.0
 10
-184.460332
 20
216.670862
 30
0.0
 10
-188.757334
 20
221.543863
 30
0.0
 10
-193.351319
 20
226.137862
 30
0.0
 10
-198.224338
 20
230.434862
 30
0.0
 10
-203.358327
 20
234.416862
 30
0.0
 10
-208.731330
 20
238.068863
 30
0.0
 10
-214.324325
 20
241.375864
 30
0.0
 10
-220.113324
 20
244.325862
 30
0.0
 10
-226.075325
 20
246.905862
 30
0.0
 10
-232.188343
 20
249.106862
 30
0.0
 10
-238.427345
 20
250.918864
 30
0.0
 10
-244.768342
 20
252.336862
 30
0.0
 10
-251.185341
 20
253.352862
 30
0.0
 10
-257.653338
 20
253.963864
 30
0.0
 10
-264.146340
 20
254.167863
 30
0.0
 10
-270.640330
 20
253.963864
 30
0.0
 10
-277.108327
 20
253.352862
 30
0.0
 10
-283.525327
 20
252.336862
 30
0.0
 10
-289.866324
 20
250.918864
 30
0.0
 10
-296.105334
 20
249.106862
 30
0.0
 10
-302.218333
 20
246.905862
 30
0.0
 10
-308.180334
 20
244.325862
 30
0.0
 10
-313.969332
 20
241.375864
 30
0.0
 10
-319.562333
 20
238.068863
 30
0.0
 10
-324.935334
 20
234.416862
 30
0.0
 10
-330.069334
 20
230.434862
 30
0.0
 10
-334.942332
 20
226.137862
 30
0.0
 10
-339.536334
 20
221.543863
 30
0.0
 10
-343.833334
 20
216.670862
 30
0.0
 10
-347.815332
 20
211.536864
 30
0.0
 10
-348.665334
 20
210.285863
 30
0.0
 10
-348.419333
 20
209.859863
 30
0.0
 10
-347.773334
 20
207.871862
 30
0.0
 10
-347.554333
 20
205.792863
 30
0.0
 10
-347.773334
 20
203.712863
 30
0.0
 10
-348.419333
 20
201.724864
 30
0.0
 10
-349.464334
 20
199.914863
 30
0.0
 10
-350.863335
 20
198.360863
 30
0.0
 10
-352.554334
 20
197.131864
 30
0.0
 10
-354.464332
 20
196.281864
 30
0.0
 10
-356.509334
 20
195.846864
 30
0.0
 10
-358.599334
 20
195.846864
 30
0.0
 10
-360.644333
 20
196.281864
 30
0.0
 10
-362.554334
 20
197.131864
 30
0.0
 10
-364.246332
 20
198.360863
 30
0.0
 10
-365.644334
 20
199.914863
 30
0.0
 10
-366.690334
 20
201.724864
 30
0.0
 10
-367.336332
 20
203.712863
 30
0.0
 10
-367.554332
 20
205.792863
 30
0.0
  0
LWPOLYLINE
  5
13e
100
AcDbEntity
  8
0
 62
7
100
AcDbPolyline
 90
37
 70
0
 10
-362.554334
 20
167.613863
 30
0.0
 10
-362.478334
 20
168.481863
 30
0.0
 10
-362.253332
 20
169.323862
 30
0.0
 10
-361.884333
 20
170.113864
 30
0.0
 10
-361.384334
 20
170.827864
 30
0.0
 10
-360.768333
 20
171.443862
 30
0.0
 10
-360.054333
 20
171.943863
 30
0.0
 10
-359.264334
 20
172.311862
 30
0.0
 10
-358.422332
 20
172.537862
 30
0.0
 10
-357.554332
 20
172.613862
 30
0.0
 10
-356.686333
 20
172.537862
 30
0.0
 10
-355.844334
 20
172.311862
 30
0.0
 10
-355.054335
 20
171.943863
 30
0.0
 10
-354.340332
 20
171.443862
 30
0.0
 10
-353.724334
 20
170.827864
 30
0.0
 10
-353.224332
 20
170.113864
 30
0.0
 10
-352.856334
 20
169.323862
 30
0.0
 10
-352.630334
 20
168.481863
 30
0.0
 10
-352.554334
 20
167.613863
 30
0.0
 10
-352.630334
 20
166.745864
 30
0.0
 10
-352.856334
 20
165.903862
 30
0.0
 10
-353.224332
 20
165.113863
 30
0.0
 10
-353.724334
 20
164.399863
 30
0.0
 10
-354.340332
 20
163.783862
 30
0.0
 10
-355.054335
 20
163.283863
 30
0.0
 10
-355.844334
 20
162.914863
 30
0.0
 10
-356.686333
 20
162.689862
 30
0.0
 10
-357.554332
 20
162.613862
 30
0.0
 10
-358.422332
 20
162.689862
 30
0.0
 10
-359.264334
 20
162.914863
 30
0.0
 10
-360.054333
 20
163.283863
 30
0.0
 10
-360.768333
 20
163.783862
 30
0.0
 10
-361.384334
 20
164.399863
 30
0.0
 10
-361.884333
 20
165.113863
 30
0.0
 10
-362.253332
 20
165.903862
 30
0.0
 10
-362.478334
 20
166.745864
 30
0.0
 10
-362.554334
 20
167.613863
 30
0.0
  0
LWPOLYLINE
  5
13f
100
AcDbEntity
  8
0
 62
7
100
AcDbPolyline
 90
37
 70
0
 10
-362.554334
 20
205.792863
 30
0.0
 10
-362.478334
 20
206.660863
 30
0.0
 10
-362.253332
 20
207.502862
 30
0.0
 10
-361.884333
 20
208.292864
 30
0.0
 10
-361.384334
 20
209.006863
 30
0.0
 10
-360.768333
 20
209.622861
 30
0.0
 10
-360.054333
 20
210.122863
 30
0.0
 10
-359.264334
 20
210.490864
 30
0.0
 10
-358.422332
 20
210.716862
 30
0.0
 10
-357.554332
 20
210.792862
 30
0.0
 10
-356.686333
 20
210.716862
 30
0.0
 10
-355.844334
 20
210.490864
 30
0.0
 10
-355.054335
 20
210.122863
 30
0.0
 10
-354.340332
 20
209.622861
 30
0.0
 10
-353.724334
 20
209.006863
 30
0.0
 10
-353.224332
 20
208.292864
 30
0.0
 10
-352.856334
 20
207.502862
 30
0.0
 10
-352.630334
 20
206.660863
 30
0.0
 10
-352.554334
 20
205.792863
 30
0.0
 10
-352.630334
 20
204.923864
 30
0.0
 10
-352.856334
 20
204.081863
 30
0.0
 10
-353.224332
 20
203.292862
 30
0.0
 10
-353.724334
 20
202.578863
 30
0.0
 10
-354.340332
 20
201.961863
 30
0.0
 10
-355.054335
 20
201.461864
 30
0.0
 10
-355.844334
 20
201.093863
 30
0.0
 10
-356.686333
 20
200.868864
 30
0.0
 10
-357.554332
 20
200.792862
 30
0.0
 10
-358.422332
 20
200.868864
 30
0.0
 10
-359.264334
 20
201.093863
 30
0.0
 10
-360.054333
 20
201.461864
 30
0.0
 10
-360.768333
 20
201.961863
 30
0.0
 10
-361.384334
 20
202.578863
 30
0.0
 10
-361.884333
 20
203.292862
 30
0.0
 10
-362.253332
 20
204.081863
 30
0.0
 10
-362.478334
 20
204.923864
 30
0.0
 10
-362.554334
 20
205.792863
 30
0.0
  0
LWPOLYLINE
  5
140
100
AcDbEntity
  8
0
 62
7
100
AcDbPolyline
 90
37
 70
0
 10
-175.739326
 20
167.613863
 30
0.0
 10
-175.663324
 20
168.481863
 30
0.0
 10
-175.437320
 20
169.323862
 30
0.0
 10
-175.069331
 20
170.113864
 30
0.0
 10
-174.569346
 20
170.827864
 30
0.0
 10
-173.953339
 20
171.443862
 30
0.0
 10
-173.239345
 20
171.943863
 30
0.0
 10
-172.449321
 20
172.311862
 30
0.0
 10
-171.607339
 20
172.537862
 30
0.0
 10
-170.739336
 20
172.613862
 30
0.0
 10
-169.871334
 20
172.537862
 30
0.0
 10
-169.029324
 20
172.311862
 30
0.0
 10
-168.239327
 20
171.943863
 30
0.0
 10
-167.525333
 20
171.443862
 30
0.0
 10
-166.909327
 20
170.827864
 30
0.0
 10
-166.409342
 20
170.113864
 30
0.0
 10
-166.040336
 20
169.323862
 30
0.0
 10
-165.815320
 20
168.481863
 30
0.0
 10
-165.739346
 20
167.613863
 30
0.0
 10
-165.815320
 20
166.745864
 30
0.0
 10
-166.040336
 20
165.903862
 30
0.0
 10
-166.409342
 20
165.113863
 30
0.0
 10
-166.909327
 20
164.399863
 30
0.0
 10
-167.525333
 20
163.783862
 30
0.0
 10
-168.239327
 20
163.283863
 30
0.0
 10
-169.029324
 20
162.914863
 30
0.0
 10
-169.871334
 20
162.689862
 30
0.0
 10
-170.739336
 20
162.613862
 30
0.0
 10
-171.607339
 20
162.689862
 30
0.0
 10
-172.449321
 20
162.914863
 30
0.0
 10
-173.239345
 20
163.283863
 30
0.0
 10
-173.953339
 20
163.783862
 30
0.0
 10
-174.569346
 20
164.399863
 30
0.0
 10
-175.069331
 20
165.113863
 30
0.0
 10
-175.437320
 20
165.903862
 30
0.0
 10
-175.663324
 20
166.745864
 30
0.0
 10
-175.739326
 20
167.613863
 30
0.0
  0
LWPOLYLINE
  5
141
100
AcDbEntity
  8
0
 62
7
100
AcDbPolyline
 90
37
 70
0
 10
-175.739326
 20
205.792863
 30
0.0
 10
-175.663324
 20
206.660863
 30
0.0
 10
-175.437320
 20
207.502862
 30
0.0
 10
-175.069331
 20
208.292864
 30
0.0
 10
-174.569346
 20
209.006863
 30
0.0
 10
-173.953339
 20
209.622861
 30
0.0
 10
-173.239345
 20
210.122863
 30
0.0
 10
-172.449321
 20
210.490864
 30
0.0
 10
-171.607339
 20
210.716862
 30
0.0
 10
-170.739336
 20
210.792862
 30
0.0
 10
-169.871334
 20
210.716862
 30
0.0
 10
-169.029324
 20
210.490864
 30
0.0
 10
-168.239327
 20
210.122863
 30
0.0
 10
-167.525333
 20
209.622861
 30
0.0
 10
-166.909327
 20
209.006863
 30
0.0
 10
-166.409342
 20
208.292864
 30
0.0
 10
-166.040336
 20
207.502862
 30
0.0
 10
-165.815320
 20
206.660863
 30
0.0
 10
-165.739346
 20
205.792863
 30
0.0
 10
-165.815320
 20
204.923864
 30
0.0
 10
-166.040336
 20
204.081863
 30
0.0
 10
-166.409342
 20
203.292862
 30
0.0
 10
-166.909327
 20
202.578863
 30
0.0
 10
-167.525333
 20
201.961863
 30
0.0
 10
-168.239327
 20
201.461864
 30
0.0
 10
-169.029324
 20
201.093863
 30
0.0
 10
-169.871334
 20
200.868864
 30
0.0
 10
-170.739336
 20
200.792862
 30
0.0
 10
-171.607339
 20
200.868864
 30
0.0
 10
-172.449321
 20
201.093863
 30
0.0
 10
-173.239345
 20
201.461864
 30
0.0
 10
-173.953339
 20
201.961863
 30
0.0
 10
-174.569346
 20
202.578863
 30
0.0
 10
-175.069331
 20
203.292862
 30
0.0
 10
-175.437320
 20
204.081863
 30
0.0
 10
-175.663324
 20
204.923864
 30
0.0
 10
-175.739326
 20
205.792863
 30
0.0
  0
LWPOLYLINE
  5
142
100
AcDbEntity
  8
0
 62
7
100
AcDbPolyline
 90
53
 70
0
 10
-154.176561
 20
193.781751
 30
0.0
 10
-154.176561
 20
227.105760
 30
0.0
 10
-145.997563
 20
227.105760
 30
0.0
 10
-145.997563
 20
260.448764
 30
0.0
 10
-154.176561
 20
260.448764
 30
0.0
 10
-154.176561
 20
293.771757
 30
0.0
 10
-145.997563
 20
293.771757
 30
0.0
 10
-145.997563
 20
327.115751
 30
0.0
 10
-154.176561
 20
327.115751
 30
0.0
 10
-154.176561
 20
360.438751
 30
0.0
 10
-145.997563
 20
360.438751
 30
0.0
 10
-145.997563
 20
393.781751
 30
0.0
 10
-154.176561
 20
393.781751
 30
0.0
 10
-154.176561
 20
427.105753
 30
0.0
 10
-145.997563
 20
427.105753
 30
0.0
 10
-145.997563
 20
452.264752
 30
0.0
 10
-138.616549
 20
452.264752
 30
0.0
 10
-138.616549
 20
460.443752
 30
0.0
 10
-123.070564
 20
460.443752
 30
0.0
 10
-123.070564
 20
452.264752
 30
0.0
 10
-107.505556
 20
452.264752
 30
0.0
 10
-107.505556
 20
460.443752
 30
0.0
 10
-91.959543
 20
460.443752
 30
0.0
 10
-91.959543
 20
452.264752
 30
0.0
 10
-76.393548
 20
452.264752
 30
0.0
 10
-76.393548
 20
460.443752
 30
0.0
 10
-60.848550
 20
460.443752
 30
0.0
 10
-60.848550
 20
452.264752
 30
0.0
 10
-45.282556
 20
452.264752
 30
0.0
 10
-45.282556
 20
460.443752
 30
0.0
 10
-29.737558
 20
460.443752
 30
0.0
 10
-29.737558
 20
452.264752
 30
0.0
 10
-14.176558
 20
452.264752
 30
0.0
 10
-14.176558
 20
168.622740
 30
0.0
 10
-29.737558
 20
168.622740
 30
0.0
 10
-29.737558
 20
160.443743
 30
0.0
 10
-45.282556
 20
160.443743
 30
0.0
 10
-45.282556
 20
168.622740
 30
0.0
 10
-60.848550
 20
168.622740
 30
0.0
 10
-60.848550
 20
160.443743
 30
0.0
 10
-76.393548
 20
160.443743
 30
0.0
 10
-76.393548
 20
168.622740
 30
0.0
 10
-91.959543
 20
168.622740
 30
0.0
 10
-91.959543
 20
160.443743
 30
0.0
 10
-107.505556
 20
160.443743
 30
0.0
 10
-107.505556
 20
168.622740
 30
0.0
 10
-123.070564
 20
168.622740
 30
0.0
 10
-123.070564
 20
160.443743
 30
0.0
 10
-138.616549
 20
160.443743
 30
0.0
 10
-138.616549
 20
168.622740
 30
0.0
 10
-145.997563
 20
168.622740
 30
0.0
 10
-145.997563
 20
193.781751
 30
0.0
 10
-154.176561
 20
193.781751
 30
0.0
  0
LWPOLYLINE
  5
143
100
AcDbEntity
  8
0
 62
7
100
AcDbPolyline
 90
37
 70
0
 10
-39.676550
 20
360.443752
 30
0.0
 10
-39.593548
 20
361.398752
 30
0.0
 10
-39.345560
 20
362.324752
 30
0.0
 10
-38.939555
 20
363.193751
 30
0.0
 10
-38.389560
 20
363.978752
 30
0.0
 10
-37.712565
 20
364.656751
 30
0.0
 10
-36.926548
 20
365.206751
 30
0.0
 10
-36.057558
 20
365.611751
 30
0.0
 10
-35.131558
 20
365.859751
 30
0.0
 10
-34.176547
 20
365.943752
 30
0.0
 10
-33.221563
 20
365.859751
 30
0.0
 10
-32.295564
 20
365.611751
 30
0.0
 10
-31.426545
 20
365.206751
 30
0.0
 10
-30.641544
 20
364.656751
 30
0.0
 10
-29.963562
 20
363.978752
 30
0.0
 10
-29.413567
 20
363.193751
 30
0.0
 10
-29.008550
 20
362.324752
 30
0.0
 10
-28.760561
 20
361.398752
 30
0.0
 10
-28.676544
 20
360.443752
 30
0.0
 10
-28.760561
 20
359.488751
 30
0.0
 10
-29.008550
 20
358.562752
 30
0.0
 10
-29.413567
 20
357.693750
 30
0.0
 10
-29.963562
 20
356.908752
 30
0.0
 10
-30.641544
 20
356.230753
 30
0.0
 10
-31.426545
 20
355.680752
 30
0.0
 10
-32.295564
 20
355.275752
 30
0.0
 10
-33.221563
 20
355.027752
 30
0.0
 10
-34.176547
 20
354.943751
 30
0.0
 10
-35.131558
 20
355.027752
 30
0.0
 10
-36.057558
 20
355.275752
 30
0.0
 10
-36.926548
 20
355.680752
 30
0.0
 10
-37.712565
 20
356.230753
 30
0.0
 10
-38.389560
 20
356.908752
 30
0.0
 10
-38.939555
 20
357.693750
 30
0.0
 10
-39.345560
 20
358.562752
 30
0.0
 10
-39.593548
 20
359.488751
 30
0.0
 10
-39.676550
 20
360.443752
 30
0.0
  0
LWPOLYLINE
  5
144
100
AcDbEntity
  8
0
 62
7
100
AcDbPolyline
 90
37
 70
0
 10
-39.676550
 20
430.443753
 30
0.0
 10
-39.593548
 20
431.398751
 30
0.0
 10
-39.345560
 20
432.324753
 30
0.0
 10
-38.939555
 20
433.193752
 30
0.0
 10
-38.389560
 20
433.978753
 30
0.0
 10
-37.712565
 20
434.656752
 30
0.0
 10
-36.926548
 20
435.206752
 30
0.0
 10
-36.057558
 20
435.611753
 30
0.0
 10
-35.131558
 20
435.859753
 30
0.0
 10
-34.176547
 20
435.943753
 30
0.0
 10
-33.221563
 20
435.859753
 30
0.0
 10
-32.295564
 20
435.611753
 30
0.0
 10
-31.426545
 20
435.206752
 30
0.0
 10
-30.641544
 20
434.656752
 30
0.0
 10
-29.963562
 20
433.978753
 30
0.0
 10
-29.413567
 20
433.193752
 30
0.0
 10
-29.008550
 20
432.324753
 30
0.0
 10
-28.760561
 20
431.398751
 30
0.0
 10
-28.676544
 20
430.443753
 30
0.0
 10
-28.760561
 20
429.488752
 30
0.0
 10
-29.008550
 20
428.562750
 30
0.0
 10
-29.413567
 20
427.693751
 30
0.0
 10
-29.963562
 20
426.908750
 30
0.0
 10
-30.641544
 20
426.230751
 30
0.0
 10
-31.426545
 20
425.680751
 30
0.0
 10
-32.295564
 20
425.275750
 30
0.0
 10
-33.221563
 20
425.027750
 30
0.0
 10
-34.176547
 20
424.943753
 30
0.0
 10
-35.131558
 20
425.027750
 30
0.0
 10
-36.057558
 20
425.275750
 30
0.0
 10
-36.926548
 20
425.680751
 30
0.0
 10
-37.712565
 20
426.230751
 30
0.0
 10
-38.389560
 20
426.908750
 30
0.0
 10
-38.939555
 20
427.693751
 30
0.0
 10
-39.345560
 20
428.562750
 30
0.0
 10
-39.593548
 20
429.488752
 30
0.0
 10
-39.676550
 20
430.443753
 30
0.0
  0
ENDSEC
  0
SECTION
  2
OBJECTS
  0
DICTIONARY
  5
C
330
0
100
AcDbDictionary
  3
ACAD_GROUP
350
D
  3
ACAD_MLINESTYLE
350
17
  0
DICTIONARY
  5
D
330
C
100
AcDbDictionary
  0
DICTIONARY
  5
1A
330
C
100
AcDbDictionary
  0
DICTIONARY
  5
17
330
C
100
AcDbDictionary
  3
STANDARD
350
18
  0
DICTIONARY
  5
19
330
C
100
AcDbDictionary
  0
ENDSEC
  0
EOF
