  0
SECTION
  2
BLOCKS
  0
ENDSEC
  0
SECTION
  2
ENTITIES
  0
LINE
  8
0
 10
-488.179
 11
-488.179
 20
-141.821
 21
141.821
  0
LINE
  8
0
 10
-488.179
 11
-472.618
 20
141.821
 21
141.821
  0
LINE
  8
0
 10
-472.618
 11
-472.618
 20
141.821
 21
150
  0
LINE
  8
0
 10
-472.618
 11
-457.073
 20
150
 21
150
  0
LINE
  8
0
 10
-457.073
 11
-457.073
 20
150
 21
141.821
  0
LINE
  8
0
 10
-457.073
 11
-441.507
 20
141.821
 21
141.821
  0
LINE
  8
0
 10
-441.507
 11
-441.507
 20
141.821
 21
150
  0
LINE
  8
0
 10
-441.507
 11
-425.962
 20
150
 21
150
  0
LINE
  8
0
 10
-425.962
 11
-425.962
 20
150
 21
141.821
  0
LINE
  8
0
 10
-425.962
 11
-410.396
 20
141.821
 21
141.821
  0
LINE
  8
0
 10
-410.396
 11
-410.396
 20
141.821
 21
150
  0
LINE
  8
0
 10
-410.396
 11
-394.85
 20
150
 21
150
  0
LINE
  8
0
 10
-394.85
 11
-394.85
 20
150
 21
141.821
  0
LINE
  8
0
 10
-394.85
 11
-379.285
 20
141.821
 21
141.821
  0
LINE
  8
0
 10
-379.285
 11
-379.285
 20
141.821
 21
150
  0
LINE
  8
0
 10
-379.285
 11
-363.739
 20
150
 21
150
  0
LINE
  8
0
 10
-363.739
 11
-363.739
 20
150
 21
141.821
  0
LINE
  8
0
 10
-363.739
 11
-356.358
 20
141.821
 21
141.821
  0
LINE
  8
0
 10
-356.358
 11
-356.358
 20
141.821
 21
116.662
  0
LINE
  8
0
 10
-356.358
 11
-348.179
 20
116.662
 21
116.662
  0
LINE
  8
0
 10
-348.179
 11
-348.179
 20
116.662
 21
83.338
  0
LINE
  8
0
 10
-348.179
 11
-356.358
 20
83.338
 21
83.338
  0
LINE
  8
0
 10
-356.358
 11
-356.358
 20
83.338
 21
49.995
  0
LINE
  8
0
 10
-356.358
 11
-348.179
 20
49.995
 21
49.995
  0
LINE
  8
0
 10
-348.179
 11
-348.179
 20
49.995
 21
16.672
  0
LINE
  8
0
 10
-348.179
 11
-356.358
 20
16.672
 21
16.672
  0
LINE
  8
0
 10
-356.358
 11
-356.358
 20
16.672
 21
-16.672
  0
LINE
  8
0
 10
-356.358
 11
-348.179
 20
-16.672
 21
-16.672
  0
LINE
  8
0
 10
-348.179
 11
-348.179
 20
-16.672
 21
-49.995
  0
LINE
  8
0
 10
-348.179
 11
-356.358
 20
-49.995
 21
-49.995
  0
LINE
  8
0
 10
-356.358
 11
-356.358
 20
-49.995
 21
-83.338
  0
LINE
  8
0
 10
-356.358
 11
-348.179
 20
-83.338
 21
-83.338
  0
LINE
  8
0
 10
-348.179
 11
-348.179
 20
-83.338
 21
-116.662
  0
LINE
  8
0
 10
-348.179
 11
-356.358
 20
-116.662
 21
-116.662
  0
LINE
  8
0
 10
-356.358
 11
-356.358
 20
-116.662
 21
-141.821
  0
LINE
  8
0
 10
-356.358
 11
-363.739
 20
-141.821
 21
-141.821
  0
LINE
  8
0
 10
-363.739
 11
-363.739
 20
-141.821
 21
-150
  0
LINE
  8
0
 10
-363.739
 11
-379.285
 20
-150
 21
-150
  0
LINE
  8
0
 10
-379.285
 11
-379.285
 20
-150
 21
-141.821
  0
LINE
  8
0
 10
-379.285
 11
-394.85
 20
-141.821
 21
-141.821
  0
LINE
  8
0
 10
-394.85
 11
-394.85
 20
-141.821
 21
-150
  0
LINE
  8
0
 10
-394.85
 11
-410.396
 20
-150
 21
-150
  0
LINE
  8
0
 10
-410.396
 11
-410.396
 20
-150
 21
-141.821
  0
LINE
  8
0
 10
-410.396
 11
-425.962
 20
-141.821
 21
-141.821
  0
LINE
  8
0
 10
-425.962
 11
-425.962
 20
-141.821
 21
-150
  0
LINE
  8
0
 10
-425.962
 11
-441.507
 20
-150
 21
-150
  0
LINE
  8
0
 10
-441.507
 11
-441.507
 20
-150
 21
-141.821
  0
LINE
  8
0
 10
-441.507
 11
-457.073
 20
-141.821
 21
-141.821
  0
LINE
  8
0
 10
-457.073
 11
-457.073
 20
-141.821
 21
-150
  0
LINE
  8
0
 10
-457.073
 11
-472.618
 20
-150
 21
-150
  0
LINE
  8
0
 10
-472.618
 11
-472.618
 20
-150
 21
-141.821
  0
LINE
  8
0
 10
-472.618
 11
-488.179
 20
-141.821
 21
-141.821
  0
LINE
  8
0
 10
-473.679
 11
-473.595
 20
50
 21
50.955
  0
LINE
  8
0
 10
-473.595
 11
-473.347
 20
50.955
 21
51.881
  0
LINE
  8
0
 10
-473.347
 11
-472.942
 20
51.881
 21
52.75
  0
LINE
  8
0
 10
-472.942
 11
-472.392
 20
52.75
 21
53.535
  0
LINE
  8
0
 10
-472.392
 11
-471.714
 20
53.535
 21
54.213
  0
LINE
  8
0
 10
-471.714
 11
-470.929
 20
54.213
 21
54.763
  0
LINE
  8
0
 10
-470.929
 11
-470.06
 20
54.763
 21
55.168
  0
LINE
  8
0
 10
-470.06
 11
-469.134
 20
55.168
 21
55.416
  0
LINE
  8
0
 10
-469.134
 11
-468.179
 20
55.416
 21
55.5
  0
LINE
  8
0
 10
-468.179
 11
-467.224
 20
55.5
 21
55.416
  0
LINE
  8
0
 10
-467.224
 11
-466.298
 20
55.416
 21
55.168
  0
LINE
  8
0
 10
-466.298
 11
-465.429
 20
55.168
 21
54.763
  0
LINE
  8
0
 10
-465.429
 11
-464.643
 20
54.763
 21
54.213
  0
LINE
  8
0
 10
-464.643
 11
-463.966
 20
54.213
 21
53.535
  0
LINE
  8
0
 10
-463.966
 11
-463.416
 20
53.535
 21
52.75
  0
LINE
  8
0
 10
-463.416
 11
-463.01
 20
52.75
 21
51.881
  0
LINE
  8
0
 10
-463.01
 11
-462.762
 20
51.881
 21
50.955
  0
LINE
  8
0
 10
-462.762
 11
-462.679
 20
50.955
 21
50
  0
LINE
  8
0
 10
-462.679
 11
-462.762
 20
50
 21
49.045
  0
LINE
  8
0
 10
-462.762
 11
-463.01
 20
49.045
 21
48.119
  0
LINE
  8
0
 10
-463.01
 11
-463.416
 20
48.119
 21
47.25
  0
LINE
  8
0
 10
-463.416
 11
-463.966
 20
47.25
 21
46.465
  0
LINE
  8
0
 10
-463.966
 11
-464.643
 20
46.465
 21
45.787
  0
LINE
  8
0
 10
-464.643
 11
-465.429
 20
45.787
 21
45.237
  0
LINE
  8
0
 10
-465.429
 11
-466.298
 20
45.237
 21
44.832
  0
LINE
  8
0
 10
-466.298
 11
-467.224
 20
44.832
 21
44.584
  0
LINE
  8
0
 10
-467.224
 11
-468.179
 20
44.584
 21
44.5
  0
LINE
  8
0
 10
-468.179
 11
-469.134
 20
44.5
 21
44.584
  0
LINE
  8
0
 10
-469.134
 11
-470.06
 20
44.584
 21
44.832
  0
LINE
  8
0
 10
-470.06
 11
-470.929
 20
44.832
 21
45.237
  0
LINE
  8
0
 10
-470.929
 11
-471.714
 20
45.237
 21
45.787
  0
LINE
  8
0
 10
-471.714
 11
-472.392
 20
45.787
 21
46.465
  0
LINE
  8
0
 10
-472.392
 11
-472.942
 20
46.465
 21
47.25
  0
LINE
  8
0
 10
-472.942
 11
-473.347
 20
47.25
 21
48.119
  0
LINE
  8
0
 10
-473.347
 11
-473.595
 20
48.119
 21
49.045
  0
LINE
  8
0
 10
-473.595
 11
-473.679
 20
49.045
 21
50
  0
LINE
  8
0
 10
-473.679
 11
-473.595
 20
120
 21
120.955
  0
LINE
  8
0
 10
-473.595
 11
-473.347
 20
120.955
 21
121.881
  0
LINE
  8
0
 10
-473.347
 11
-472.942
 20
121.881
 21
122.75
  0
LINE
  8
0
 10
-472.942
 11
-472.392
 20
122.75
 21
123.535
  0
LINE
  8
0
 10
-472.392
 11
-471.714
 20
123.535
 21
124.213
  0
LINE
  8
0
 10
-471.714
 11
-470.929
 20
124.213
 21
124.763
  0
LINE
  8
0
 10
-470.929
 11
-470.06
 20
124.763
 21
125.168
  0
LINE
  8
0
 10
-470.06
 11
-469.134
 20
125.168
 21
125.416
  0
LINE
  8
0
 10
-469.134
 11
-468.179
 20
125.416
 21
125.5
  0
LINE
  8
0
 10
-468.179
 11
-467.224
 20
125.5
 21
125.416
  0
LINE
  8
0
 10
-467.224
 11
-466.298
 20
125.416
 21
125.168
  0
LINE
  8
0
 10
-466.298
 11
-465.429
 20
125.168
 21
124.763
  0
LINE
  8
0
 10
-465.429
 11
-464.643
 20
124.763
 21
124.213
  0
LINE
  8
0
 10
-464.643
 11
-463.966
 20
124.213
 21
123.535
  0
LINE
  8
0
 10
-463.966
 11
-463.416
 20
123.535
 21
122.75
  0
LINE
  8
0
 10
-463.416
 11
-463.01
 20
122.75
 21
121.881
  0
LINE
  8
0
 10
-463.01
 11
-462.762
 20
121.881
 21
120.955
  0
LINE
  8
0
 10
-462.762
 11
-462.679
 20
120.955
 21
120
  0
LINE
  8
0
 10
-462.679
 11
-462.762
 20
120
 21
119.045
  0
LINE
  8
0
 10
-462.762
 11
-463.01
 20
119.045
 21
118.119
  0
LINE
  8
0
 10
-463.01
 11
-463.416
 20
118.119
 21
117.25
  0
LINE
  8
0
 10
-463.416
 11
-463.966
 20
117.25
 21
116.465
  0
LINE
  8
0
 10
-463.966
 11
-464.643
 20
116.465
 21
115.787
  0
LINE
  8
0
 10
-464.643
 11
-465.429
 20
115.787
 21
115.237
  0
LINE
  8
0
 10
-465.429
 11
-466.298
 20
115.237
 21
114.832
  0
LINE
  8
0
 10
-466.298
 11
-467.224
 20
114.832
 21
114.584
  0
LINE
  8
0
 10
-467.224
 11
-468.179
 20
114.584
 21
114.5
  0
LINE
  8
0
 10
-468.179
 11
-469.134
 20
114.5
 21
114.584
  0
LINE
  8
0
 10
-469.134
 11
-470.06
 20
114.584
 21
114.832
  0
LINE
  8
0
 10
-470.06
 11
-470.929
 20
114.832
 21
115.237
  0
LINE
  8
0
 10
-470.929
 11
-471.714
 20
115.237
 21
115.787
  0
LINE
  8
0
 10
-471.714
 11
-472.392
 20
115.787
 21
116.465
  0
LINE
  8
0
 10
-472.392
 11
-472.942
 20
116.465
 21
117.25
  0
LINE
  8
0
 10
-472.942
 11
-473.347
 20
117.25
 21
118.119
  0
LINE
  8
0
 10
-473.347
 11
-473.595
 20
118.119
 21
119.045
  0
LINE
  8
0
 10
-473.595
 11
-473.679
 20
119.045
 21
120
  0
LINE
  8
0
 10
-344.089
 11
-344.089
 20
-141.821
 21
-107.148
  0
LINE
  8
0
 10
-344.089
 11
-335.91
 20
-107.148
 21
-107.148
  0
LINE
  8
0
 10
-335.91
 11
-335.91
 20
-107.148
 21
-64.281
  0
LINE
  8
0
 10
-335.91
 11
-344.089
 20
-64.281
 21
-64.281
  0
LINE
  8
0
 10
-344.089
 11
-344.089
 20
-64.281
 21
-21.434
  0
LINE
  8
0
 10
-344.089
 11
-335.91
 20
-21.434
 21
-21.434
  0
LINE
  8
0
 10
-335.91
 11
-335.91
 20
-21.434
 21
21.434
  0
LINE
  8
0
 10
-335.91
 11
-344.089
 20
21.434
 21
21.434
  0
LINE
  8
0
 10
-344.089
 11
-344.089
 20
21.434
 21
64.281
  0
LINE
  8
0
 10
-344.089
 11
-335.91
 20
64.281
 21
64.281
  0
LINE
  8
0
 10
-335.91
 11
-335.91
 20
64.281
 21
107.148
  0
LINE
  8
0
 10
-335.91
 11
-344.089
 20
107.148
 21
107.148
  0
LINE
  8
0
 10
-344.089
 11
-344.089
 20
107.148
 21
141.821
  0
LINE
  8
0
 10
-344.089
 11
-328.529
 20
141.821
 21
141.821
  0
LINE
  8
0
 10
-328.529
 11
-328.529
 20
141.821
 21
150
  0
LINE
  8
0
 10
-328.529
 11
-312.983
 20
150
 21
150
  0
LINE
  8
0
 10
-312.983
 11
-312.983
 20
150
 21
141.821
  0
LINE
  8
0
 10
-312.983
 11
-297.418
 20
141.821
 21
141.821
  0
LINE
  8
0
 10
-297.418
 11
-297.418
 20
141.821
 21
150
  0
LINE
  8
0
 10
-297.418
 11
-281.872
 20
150
 21
150
  0
LINE
  8
0
 10
-281.872
 11
-281.872
 20
150
 21
141.821
  0
LINE
  8
0
 10
-281.872
 11
-266.307
 20
141.821
 21
141.821
  0
LINE
  8
0
 10
-266.307
 11
-266.307
 20
141.821
 21
150
  0
LINE
  8
0
 10
-266.307
 11
-250.761
 20
150
 21
150
  0
LINE
  8
0
 10
-250.761
 11
-250.761
 20
150
 21
141.821
  0
LINE
  8
0
 10
-250.761
 11
-235.196
 20
141.821
 21
141.821
  0
LINE
  8
0
 10
-235.196
 11
-235.196
 20
141.821
 21
150
  0
LINE
  8
0
 10
-235.196
 11
-219.65
 20
150
 21
150
  0
LINE
  8
0
 10
-219.65
 11
-219.65
 20
150
 21
141.821
  0
LINE
  8
0
 10
-219.65
 11
-204.089
 20
141.821
 21
141.821
  0
LINE
  8
0
 10
-204.089
 11
-204.089
 20
141.821
 21
-141.821
  0
LINE
  8
0
 10
-204.089
 11
-219.65
 20
-141.821
 21
-141.821
  0
LINE
  8
0
 10
-219.65
 11
-219.65
 20
-141.821
 21
-150
  0
LINE
  8
0
 10
-219.65
 11
-235.196
 20
-150
 21
-150
  0
LINE
  8
0
 10
-235.196
 11
-235.196
 20
-150
 21
-141.821
  0
LINE
  8
0
 10
-235.196
 11
-250.761
 20
-141.821
 21
-141.821
  0
LINE
  8
0
 10
-250.761
 11
-250.761
 20
-141.821
 21
-150
  0
LINE
  8
0
 10
-250.761
 11
-266.307
 20
-150
 21
-150
  0
LINE
  8
0
 10
-266.307
 11
-266.307
 20
-150
 21
-141.821
  0
LINE
  8
0
 10
-266.307
 11
-281.872
 20
-141.821
 21
-141.821
  0
LINE
  8
0
 10
-281.872
 11
-281.872
 20
-141.821
 21
-150
  0
LINE
  8
0
 10
-281.872
 11
-297.418
 20
-150
 21
-150
  0
LINE
  8
0
 10
-297.418
 11
-297.418
 20
-150
 21
-141.821
  0
LINE
  8
0
 10
-297.418
 11
-312.983
 20
-141.821
 21
-141.821
  0
LINE
  8
0
 10
-312.983
 11
-312.983
 20
-141.821
 21
-150
  0
LINE
  8
0
 10
-312.983
 11
-328.529
 20
-150
 21
-150
  0
LINE
  8
0
 10
-328.529
 11
-328.529
 20
-150
 21
-141.821
  0
LINE
  8
0
 10
-328.529
 11
-344.089
 20
-141.821
 21
-141.821
  0
LINE
  8
0
 10
-323.849
 11
-323.773
 20
177.268
 21
178.136
  0
LINE
  8
0
 10
-323.773
 11
-323.548
 20
178.136
 21
178.978
  0
LINE
  8
0
 10
-323.548
 11
-323.179
 20
178.978
 21
179.768
  0
LINE
  8
0
 10
-323.179
 11
-322.68
 20
179.768
 21
180.482
  0
LINE
  8
0
 10
-322.68
 11
-322.063
 20
180.482
 21
181.098
  0
LINE
  8
0
 10
-322.063
 11
-321.349
 20
181.098
 21
181.598
  0
LINE
  8
0
 10
-321.349
 11
-320.559
 20
181.598
 21
181.967
  0
LINE
  8
0
 10
-320.559
 11
-319.718
 20
181.967
 21
182.192
  0
LINE
  8
0
 10
-319.718
 11
-318.849
 20
182.192
 21
182.268
  0
LINE
  8
0
 10
-318.849
 11
-317.981
 20
182.268
 21
182.192
  0
LINE
  8
0
 10
-317.981
 11
-317.139
 20
182.192
 21
181.967
  0
LINE
  8
0
 10
-317.139
 11
-316.349
 20
181.967
 21
181.598
  0
LINE
  8
0
 10
-316.349
 11
-315.635
 20
181.598
 21
181.098
  0
LINE
  8
0
 10
-315.635
 11
-315.019
 20
181.098
 21
180.482
  0
LINE
  8
0
 10
-315.019
 11
-314.519
 20
180.482
 21
179.768
  0
LINE
  8
0
 10
-314.519
 11
-314.151
 20
179.768
 21
178.978
  0
LINE
  8
0
 10
-314.151
 11
-313.925
 20
178.978
 21
178.136
  0
LINE
  8
0
 10
-313.925
 11
-313.849
 20
178.136
 21
177.268
  0
LINE
  8
0
 10
-313.849
 11
-313.925
 20
177.268
 21
176.4
  0
LINE
  8
0
 10
-313.925
 11
-314.151
 20
176.4
 21
175.558
  0
LINE
  8
0
 10
-314.151
 11
-314.519
 20
175.558
 21
174.768
  0
LINE
  8
0
 10
-314.519
 11
-315.019
 20
174.768
 21
174.054
  0
LINE
  8
0
 10
-315.019
 11
-315.635
 20
174.054
 21
173.438
  0
LINE
  8
0
 10
-315.635
 11
-316.349
 20
173.438
 21
172.938
  0
LINE
  8
0
 10
-316.349
 11
-317.139
 20
172.938
 21
172.57
  0
LINE
  8
0
 10
-317.139
 11
-317.981
 20
172.57
 21
172.344
  0
LINE
  8
0
 10
-317.981
 11
-318.849
 20
172.344
 21
172.268
  0
LINE
  8
0
 10
-318.849
 11
-319.718
 20
172.268
 21
172.344
  0
LINE
  8
0
 10
-319.718
 11
-320.559
 20
172.344
 21
172.57
  0
LINE
  8
0
 10
-320.559
 11
-321.349
 20
172.57
 21
172.938
  0
LINE
  8
0
 10
-321.349
 11
-322.063
 20
172.938
 21
173.438
  0
LINE
  8
0
 10
-322.063
 11
-322.68
 20
173.438
 21
174.054
  0
LINE
  8
0
 10
-322.68
 11
-323.179
 20
174.054
 21
174.768
  0
LINE
  8
0
 10
-323.179
 11
-323.548
 20
174.768
 21
175.558
  0
LINE
  8
0
 10
-323.548
 11
-323.773
 20
175.558
 21
176.4
  0
LINE
  8
0
 10
-323.773
 11
-323.849
 20
176.4
 21
177.268
  0
LINE
  8
0
 10
-316.805
 11
-316.729
 20
163.179
 21
164.047
  0
LINE
  8
0
 10
-316.729
 11
-316.503
 20
164.047
 21
164.889
  0
LINE
  8
0
 10
-316.503
 11
-316.135
 20
164.889
 21
165.679
  0
LINE
  8
0
 10
-316.135
 11
-315.635
 20
165.679
 21
166.393
  0
LINE
  8
0
 10
-315.635
 11
-315.019
 20
166.393
 21
167.009
  0
LINE
  8
0
 10
-315.019
 11
-314.305
 20
167.009
 21
167.509
  0
LINE
  8
0
 10
-314.305
 11
-313.515
 20
167.509
 21
167.877
  0
LINE
  8
0
 10
-313.515
 11
-312.673
 20
167.877
 21
168.103
  0
LINE
  8
0
 10
-312.673
 11
-311.805
 20
168.103
 21
168.179
  0
LINE
  8
0
 10
-311.805
 11
-310.936
 20
168.179
 21
168.103
  0
LINE
  8
0
 10
-310.936
 11
-310.094
 20
168.103
 21
167.877
  0
LINE
  8
0
 10
-310.094
 11
-309.305
 20
167.877
 21
167.509
  0
LINE
  8
0
 10
-309.305
 11
-308.591
 20
167.509
 21
167.009
  0
LINE
  8
0
 10
-308.591
 11
-307.974
 20
167.009
 21
166.393
  0
LINE
  8
0
 10
-307.974
 11
-307.474
 20
166.393
 21
165.679
  0
LINE
  8
0
 10
-307.474
 11
-307.106
 20
165.679
 21
164.889
  0
LINE
  8
0
 10
-307.106
 11
-306.881
 20
164.889
 21
164.047
  0
LINE
  8
0
 10
-306.881
 11
-306.805
 20
164.047
 21
163.179
  0
LINE
  8
0
 10
-306.805
 11
-306.881
 20
163.179
 21
162.311
  0
LINE
  8
0
 10
-306.881
 11
-307.106
 20
162.311
 21
161.469
  0
LINE
  8
0
 10
-307.106
 11
-307.474
 20
161.469
 21
160.679
  0
LINE
  8
0
 10
-307.474
 11
-307.974
 20
160.679
 21
159.965
  0
LINE
  8
0
 10
-307.974
 11
-308.591
 20
159.965
 21
159.349
  0
LINE
  8
0
 10
-308.591
 11
-309.305
 20
159.349
 21
158.849
  0
LINE
  8
0
 10
-309.305
 11
-310.094
 20
158.849
 21
158.48
  0
LINE
  8
0
 10
-310.094
 11
-310.936
 20
158.48
 21
158.255
  0
LINE
  8
0
 10
-310.936
 11
-311.805
 20
158.255
 21
158.179
  0
LINE
  8
0
 10
-311.805
 11
-312.673
 20
158.179
 21
158.255
  0
LINE
  8
0
 10
-312.673
 11
-313.515
 20
158.255
 21
158.48
  0
LINE
  8
0
 10
-313.515
 11
-314.305
 20
158.48
 21
158.849
  0
LINE
  8
0
 10
-314.305
 11
-315.019
 20
158.849
 21
159.349
  0
LINE
  8
0
 10
-315.019
 11
-315.635
 20
159.349
 21
159.965
  0
LINE
  8
0
 10
-315.635
 11
-316.135
 20
159.965
 21
160.679
  0
LINE
  8
0
 10
-316.135
 11
-316.503
 20
160.679
 21
161.469
  0
LINE
  8
0
 10
-316.503
 11
-316.729
 20
161.469
 21
162.311
  0
LINE
  8
0
 10
-316.729
 11
-316.805
 20
162.311
 21
163.179
  0
LINE
  8
0
 10
-309.76
 11
-309.684
 20
177.268
 21
178.136
  0
LINE
  8
0
 10
-309.684
 11
-309.458
 20
178.136
 21
178.978
  0
LINE
  8
0
 10
-309.458
 11
-309.09
 20
178.978
 21
179.768
  0
LINE
  8
0
 10
-309.09
 11
-308.59
 20
179.768
 21
180.482
  0
LINE
  8
0
 10
-308.59
 11
-307.974
 20
180.482
 21
181.098
  0
LINE
  8
0
 10
-307.974
 11
-307.26
 20
181.098
 21
181.598
  0
LINE
  8
0
 10
-307.26
 11
-306.47
 20
181.598
 21
181.967
  0
LINE
  8
0
 10
-306.47
 11
-305.628
 20
181.967
 21
182.192
  0
LINE
  8
0
 10
-305.628
 11
-304.76
 20
182.192
 21
182.268
  0
LINE
  8
0
 10
-304.76
 11
-303.892
 20
182.268
 21
182.192
  0
LINE
  8
0
 10
-303.892
 11
-303.05
 20
182.192
 21
181.967
  0
LINE
  8
0
 10
-303.05
 11
-302.26
 20
181.967
 21
181.598
  0
LINE
  8
0
 10
-302.26
 11
-301.546
 20
181.598
 21
181.098
  0
LINE
  8
0
 10
-301.546
 11
-300.93
 20
181.098
 21
180.482
  0
LINE
  8
0
 10
-300.93
 11
-300.43
 20
180.482
 21
179.768
  0
LINE
  8
0
 10
-300.43
 11
-300.061
 20
179.768
 21
178.978
  0
LINE
  8
0
 10
-300.061
 11
-299.836
 20
178.978
 21
178.136
  0
LINE
  8
0
 10
-299.836
 11
-299.76
 20
178.136
 21
177.268
  0
LINE
  8
0
 10
-299.76
 11
-299.836
 20
177.268
 21
176.4
  0
LINE
  8
0
 10
-299.836
 11
-300.061
 20
176.4
 21
175.558
  0
LINE
  8
0
 10
-300.061
 11
-300.43
 20
175.558
 21
174.768
  0
LINE
  8
0
 10
-300.43
 11
-300.93
 20
174.768
 21
174.054
  0
LINE
  8
0
 10
-300.93
 11
-301.546
 20
174.054
 21
173.438
  0
LINE
  8
0
 10
-301.546
 11
-302.26
 20
173.438
 21
172.938
  0
LINE
  8
0
 10
-302.26
 11
-303.05
 20
172.938
 21
172.57
  0
LINE
  8
0
 10
-303.05
 11
-303.892
 20
172.57
 21
172.344
  0
LINE
  8
0
 10
-303.892
 11
-304.76
 20
172.344
 21
172.268
  0
LINE
  8
0
 10
-304.76
 11
-305.628
 20
172.268
 21
172.344
  0
LINE
  8
0
 10
-305.628
 11
-306.47
 20
172.344
 21
172.57
  0
LINE
  8
0
 10
-306.47
 11
-307.26
 20
172.57
 21
172.938
  0
LINE
  8
0
 10
-307.26
 11
-307.974
 20
172.938
 21
173.438
  0
LINE
  8
0
 10
-307.974
 11
-308.59
 20
173.438
 21
174.054
  0
LINE
  8
0
 10
-308.59
 11
-309.09
 20
174.054
 21
174.768
  0
LINE
  8
0
 10
-309.09
 11
-309.458
 20
174.768
 21
175.558
  0
LINE
  8
0
 10
-309.458
 11
-309.684
 20
175.558
 21
176.4
  0
LINE
  8
0
 10
-309.684
 11
-309.76
 20
176.4
 21
177.268
  0
LINE
  8
0
 10
-302.715
 11
-302.639
 20
163.179
 21
164.047
  0
LINE
  8
0
 10
-302.639
 11
-302.414
 20
164.047
 21
164.889
  0
LINE
  8
0
 10
-302.414
 11
-302.045
 20
164.889
 21
165.679
  0
LINE
  8
0
 10
-302.045
 11
-301.545
 20
165.679
 21
166.393
  0
LINE
  8
0
 10
-301.545
 11
-300.929
 20
166.393
 21
167.009
  0
LINE
  8
0
 10
-300.929
 11
-300.215
 20
167.009
 21
167.509
  0
LINE
  8
0
 10
-300.215
 11
-299.425
 20
167.509
 21
167.877
  0
LINE
  8
0
 10
-299.425
 11
-298.583
 20
167.877
 21
168.103
  0
LINE
  8
0
 10
-298.583
 11
-297.715
 20
168.103
 21
168.179
  0
LINE
  8
0
 10
-297.715
 11
-296.847
 20
168.179
 21
168.103
  0
LINE
  8
0
 10
-296.847
 11
-296.005
 20
168.103
 21
167.877
  0
LINE
  8
0
 10
-296.005
 11
-295.215
 20
167.877
 21
167.509
  0
LINE
  8
0
 10
-295.215
 11
-294.501
 20
167.509
 21
167.009
  0
LINE
  8
0
 10
-294.501
 11
-293.885
 20
167.009
 21
166.393
  0
LINE
  8
0
 10
-293.885
 11
-293.385
 20
166.393
 21
165.679
  0
LINE
  8
0
 10
-293.385
 11
-293.017
 20
165.679
 21
164.889
  0
LINE
  8
0
 10
-293.017
 11
-292.791
 20
164.889
 21
164.047
  0
LINE
  8
0
 10
-292.791
 11
-292.715
 20
164.047
 21
163.179
  0
LINE
  8
0
 10
-292.715
 11
-292.791
 20
163.179
 21
162.311
  0
LINE
  8
0
 10
-292.791
 11
-293.017
 20
162.311
 21
161.469
  0
LINE
  8
0
 10
-293.017
 11
-293.385
 20
161.469
 21
160.679
  0
LINE
  8
0
 10
-293.385
 11
-293.885
 20
160.679
 21
159.965
  0
LINE
  8
0
 10
-293.885
 11
-294.501
 20
159.965
 21
159.349
  0
LINE
  8
0
 10
-294.501
 11
-295.215
 20
159.349
 21
158.849
  0
LINE
  8
0
 10
-295.215
 11
-296.005
 20
158.849
 21
158.48
  0
LINE
  8
0
 10
-296.005
 11
-296.847
 20
158.48
 21
158.255
  0
LINE
  8
0
 10
-296.847
 11
-297.715
 20
158.255
 21
158.179
  0
LINE
  8
0
 10
-297.715
 11
-298.583
 20
158.179
 21
158.255
  0
LINE
  8
0
 10
-298.583
 11
-299.425
 20
158.255
 21
158.48
  0
LINE
  8
0
 10
-299.425
 11
-300.215
 20
158.48
 21
158.849
  0
LINE
  8
0
 10
-300.215
 11
-300.929
 20
158.849
 21
159.349
  0
LINE
  8
0
 10
-300.929
 11
-301.545
 20
159.349
 21
159.965
  0
LINE
  8
0
 10
-301.545
 11
-302.045
 20
159.965
 21
160.679
  0
LINE
  8
0
 10
-302.045
 11
-302.414
 20
160.679
 21
161.469
  0
LINE
  8
0
 10
-302.414
 11
-302.639
 20
161.469
 21
162.311
  0
LINE
  8
0
 10
-302.639
 11
-302.715
 20
162.311
 21
163.179
  0
LINE
  8
0
 10
-295.671
 11
-295.595
 20
177.268
 21
178.136
  0
LINE
  8
0
 10
-295.595
 11
-295.369
 20
178.136
 21
178.978
  0
LINE
  8
0
 10
-295.369
 11
-295.001
 20
178.978
 21
179.768
  0
LINE
  8
0
 10
-295.001
 11
-294.501
 20
179.768
 21
180.482
  0
LINE
  8
0
 10
-294.501
 11
-293.884
 20
180.482
 21
181.098
  0
LINE
  8
0
 10
-293.884
 11
-293.171
 20
181.098
 21
181.598
  0
LINE
  8
0
 10
-293.171
 11
-292.381
 20
181.598
 21
181.967
  0
LINE
  8
0
 10
-292.381
 11
-291.539
 20
181.967
 21
182.192
  0
LINE
  8
0
 10
-291.539
 11
-290.671
 20
182.192
 21
182.268
  0
LINE
  8
0
 10
-290.671
 11
-289.802
 20
182.268
 21
182.192
  0
LINE
  8
0
 10
-289.802
 11
-288.96
 20
182.192
 21
181.967
  0
LINE
  8
0
 10
-288.96
 11
-288.171
 20
181.967
 21
181.598
  0
LINE
  8
0
 10
-288.171
 11
-287.457
 20
181.598
 21
181.098
  0
LINE
  8
0
 10
-287.457
 11
-286.84
 20
181.098
 21
180.482
  0
LINE
  8
0
 10
-286.84
 11
-286.34
 20
180.482
 21
179.768
  0
LINE
  8
0
 10
-286.34
 11
-285.972
 20
179.768
 21
178.978
  0
LINE
  8
0
 10
-285.972
 11
-285.746
 20
178.978
 21
178.136
  0
LINE
  8
0
 10
-285.746
 11
-285.671
 20
178.136
 21
177.268
  0
LINE
  8
0
 10
-285.671
 11
-285.746
 20
177.268
 21
176.4
  0
LINE
  8
0
 10
-285.746
 11
-285.972
 20
176.4
 21
175.558
  0
LINE
  8
0
 10
-285.972
 11
-286.34
 20
175.558
 21
174.768
  0
LINE
  8
0
 10
-286.34
 11
-286.84
 20
174.768
 21
174.054
  0
LINE
  8
0
 10
-286.84
 11
-287.457
 20
174.054
 21
173.438
  0
LINE
  8
0
 10
-287.457
 11
-288.171
 20
173.438
 21
172.938
  0
LINE
  8
0
 10
-288.171
 11
-288.96
 20
172.938
 21
172.57
  0
LINE
  8
0
 10
-288.96
 11
-289.802
 20
172.57
 21
172.344
  0
LINE
  8
0
 10
-289.802
 11
-290.671
 20
172.344
 21
172.268
  0
LINE
  8
0
 10
-290.671
 11
-291.539
 20
172.268
 21
172.344
  0
LINE
  8
0
 10
-291.539
 11
-292.381
 20
172.344
 21
172.57
  0
LINE
  8
0
 10
-292.381
 11
-293.171
 20
172.57
 21
172.938
  0
LINE
  8
0
 10
-293.171
 11
-293.884
 20
172.938
 21
173.438
  0
LINE
  8
0
 10
-293.884
 11
-294.501
 20
173.438
 21
174.054
  0
LINE
  8
0
 10
-294.501
 11
-295.001
 20
174.054
 21
174.768
  0
LINE
  8
0
 10
-295.001
 11
-295.369
 20
174.768
 21
175.558
  0
LINE
  8
0
 10
-295.369
 11
-295.595
 20
175.558
 21
176.4
  0
LINE
  8
0
 10
-295.595
 11
-295.671
 20
176.4
 21
177.268
  0
LINE
  8
0
 10
-288.626
 11
-288.55
 20
163.179
 21
164.047
  0
LINE
  8
0
 10
-288.55
 11
-288.324
 20
164.047
 21
164.889
  0
LINE
  8
0
 10
-288.324
 11
-287.956
 20
164.889
 21
165.679
  0
LINE
  8
0
 10
-287.956
 11
-287.456
 20
165.679
 21
166.393
  0
LINE
  8
0
 10
-287.456
 11
-286.84
 20
166.393
 21
167.009
  0
LINE
  8
0
 10
-286.84
 11
-286.126
 20
167.009
 21
167.509
  0
LINE
  8
0
 10
-286.126
 11
-285.336
 20
167.509
 21
167.877
  0
LINE
  8
0
 10
-285.336
 11
-284.494
 20
167.877
 21
168.103
  0
LINE
  8
0
 10
-284.494
 11
-283.626
 20
168.103
 21
168.179
  0
LINE
  8
0
 10
-283.626
 11
-282.758
 20
168.179
 21
168.103
  0
LINE
  8
0
 10
-282.758
 11
-281.916
 20
168.103
 21
167.877
  0
LINE
  8
0
 10
-281.916
 11
-281.126
 20
167.877
 21
167.509
  0
LINE
  8
0
 10
-281.126
 11
-280.412
 20
167.509
 21
167.009
  0
LINE
  8
0
 10
-280.412
 11
-279.796
 20
167.009
 21
166.393
  0
LINE
  8
0
 10
-279.796
 11
-279.296
 20
166.393
 21
165.679
  0
LINE
  8
0
 10
-279.296
 11
-278.927
 20
165.679
 21
164.889
  0
LINE
  8
0
 10
-278.927
 11
-278.702
 20
164.889
 21
164.047
  0
LINE
  8
0
 10
-278.702
 11
-278.626
 20
164.047
 21
163.179
  0
LINE
  8
0
 10
-278.626
 11
-278.702
 20
163.179
 21
162.311
  0
LINE
  8
0
 10
-278.702
 11
-278.927
 20
162.311
 21
161.469
  0
LINE
  8
0
 10
-278.927
 11
-279.296
 20
161.469
 21
160.679
  0
LINE
  8
0
 10
-279.296
 11
-279.796
 20
160.679
 21
159.965
  0
LINE
  8
0
 10
-279.796
 11
-280.412
 20
159.965
 21
159.349
  0
LINE
  8
0
 10
-280.412
 11
-281.126
 20
159.349
 21
158.849
  0
LINE
  8
0
 10
-281.126
 11
-281.916
 20
158.849
 21
158.48
  0
LINE
  8
0
 10
-281.916
 11
-282.758
 20
158.48
 21
158.255
  0
LINE
  8
0
 10
-282.758
 11
-283.626
 20
158.255
 21
158.179
  0
LINE
  8
0
 10
-283.626
 11
-284.494
 20
158.179
 21
158.255
  0
LINE
  8
0
 10
-284.494
 11
-285.336
 20
158.255
 21
158.48
  0
LINE
  8
0
 10
-285.336
 11
-286.126
 20
158.48
 21
158.849
  0
LINE
  8
0
 10
-286.126
 11
-286.84
 20
158.849
 21
159.349
  0
LINE
  8
0
 10
-286.84
 11
-287.456
 20
159.349
 21
159.965
  0
LINE
  8
0
 10
-287.456
 11
-287.956
 20
159.965
 21
160.679
  0
LINE
  8
0
 10
-287.956
 11
-288.324
 20
160.679
 21
161.469
  0
LINE
  8
0
 10
-288.324
 11
-288.55
 20
161.469
 21
162.311
  0
LINE
  8
0
 10
-288.55
 11
-288.626
 20
162.311
 21
163.179
  0
LINE
  8
0
 10
-281.581
 11
-281.505
 20
177.268
 21
178.136
  0
LINE
  8
0
 10
-281.505
 11
-281.28
 20
178.136
 21
178.978
  0
LINE
  8
0
 10
-281.28
 11
-280.911
 20
178.978
 21
179.768
  0
LINE
  8
0
 10
-280.911
 11
-280.411
 20
179.768
 21
180.482
  0
LINE
  8
0
 10
-280.411
 11
-279.795
 20
180.482
 21
181.098
  0
LINE
  8
0
 10
-279.795
 11
-279.081
 20
181.098
 21
181.598
  0
LINE
  8
0
 10
-279.081
 11
-278.291
 20
181.598
 21
181.967
  0
LINE
  8
0
 10
-278.291
 11
-277.449
 20
181.967
 21
182.192
  0
LINE
  8
0
 10
-277.449
 11
-276.581
 20
182.192
 21
182.268
  0
LINE
  8
0
 10
-276.581
 11
-275.713
 20
182.268
 21
182.192
  0
LINE
  8
0
 10
-275.713
 11
-274.871
 20
182.192
 21
181.967
  0
LINE
  8
0
 10
-274.871
 11
-274.081
 20
181.967
 21
181.598
  0
LINE
  8
0
 10
-274.081
 11
-273.367
 20
181.598
 21
181.098
  0
LINE
  8
0
 10
-273.367
 11
-272.751
 20
181.098
 21
180.482
  0
LINE
  8
0
 10
-272.751
 11
-272.251
 20
180.482
 21
179.768
  0
LINE
  8
0
 10
-272.251
 11
-271.883
 20
179.768
 21
178.978
  0
LINE
  8
0
 10
-271.883
 11
-271.657
 20
178.978
 21
178.136
  0
LINE
  8
0
 10
-271.657
 11
-271.581
 20
178.136
 21
177.268
  0
LINE
  8
0
 10
-271.581
 11
-271.657
 20
177.268
 21
176.4
  0
LINE
  8
0
 10
-271.657
 11
-271.883
 20
176.4
 21
175.558
  0
LINE
  8
0
 10
-271.883
 11
-272.251
 20
175.558
 21
174.768
  0
LINE
  8
0
 10
-272.251
 11
-272.751
 20
174.768
 21
174.054
  0
LINE
  8
0
 10
-272.751
 11
-273.367
 20
174.054
 21
173.438
  0
LINE
  8
0
 10
-273.367
 11
-274.081
 20
173.438
 21
172.938
  0
LINE
  8
0
 10
-274.081
 11
-274.871
 20
172.938
 21
172.57
  0
LINE
  8
0
 10
-274.871
 11
-275.713
 20
172.57
 21
172.344
  0
LINE
  8
0
 10
-275.713
 11
-276.581
 20
172.344
 21
172.268
  0
LINE
  8
0
 10
-276.581
 11
-277.449
 20
172.268
 21
172.344
  0
LINE
  8
0
 10
-277.449
 11
-278.291
 20
172.344
 21
172.57
  0
LINE
  8
0
 10
-278.291
 11
-279.081
 20
172.57
 21
172.938
  0
LINE
  8
0
 10
-279.081
 11
-279.795
 20
172.938
 21
173.438
  0
LINE
  8
0
 10
-279.795
 11
-280.411
 20
173.438
 21
174.054
  0
LINE
  8
0
 10
-280.411
 11
-280.911
 20
174.054
 21
174.768
  0
LINE
  8
0
 10
-280.911
 11
-281.28
 20
174.768
 21
175.558
  0
LINE
  8
0
 10
-281.28
 11
-281.505
 20
175.558
 21
176.4
  0
LINE
  8
0
 10
-281.505
 11
-281.581
 20
176.4
 21
177.268
  0
LINE
  8
0
 10
-274.536
 11
-274.46
 20
163.179
 21
164.047
  0
LINE
  8
0
 10
-274.46
 11
-274.235
 20
164.047
 21
164.889
  0
LINE
  8
0
 10
-274.235
 11
-273.867
 20
164.889
 21
165.679
  0
LINE
  8
0
 10
-273.867
 11
-273.367
 20
165.679
 21
166.393
  0
LINE
  8
0
 10
-273.367
 11
-272.75
 20
166.393
 21
167.009
  0
LINE
  8
0
 10
-272.75
 11
-272.036
 20
167.009
 21
167.509
  0
LINE
  8
0
 10
-272.036
 11
-271.247
 20
167.509
 21
167.877
  0
LINE
  8
0
 10
-271.247
 11
-270.405
 20
167.877
 21
168.103
  0
LINE
  8
0
 10
-270.405
 11
-269.536
 20
168.103
 21
168.179
  0
LINE
  8
0
 10
-269.536
 11
-268.668
 20
168.179
 21
168.103
  0
LINE
  8
0
 10
-268.668
 11
-267.826
 20
168.103
 21
167.877
  0
LINE
  8
0
 10
-267.826
 11
-267.036
 20
167.877
 21
167.509
  0
LINE
  8
0
 10
-267.036
 11
-266.322
 20
167.509
 21
167.009
  0
LINE
  8
0
 10
-266.322
 11
-265.706
 20
167.009
 21
166.393
  0
LINE
  8
0
 10
-265.706
 11
-265.206
 20
166.393
 21
165.679
  0
LINE
  8
0
 10
-265.206
 11
-264.838
 20
165.679
 21
164.889
  0
LINE
  8
0
 10
-264.838
 11
-264.612
 20
164.889
 21
164.047
  0
LINE
  8
0
 10
-264.612
 11
-264.536
 20
164.047
 21
163.179
  0
LINE
  8
0
 10
-264.536
 11
-264.612
 20
163.179
 21
162.311
  0
LINE
  8
0
 10
-264.612
 11
-264.838
 20
162.311
 21
161.469
  0
LINE
  8
0
 10
-264.838
 11
-265.206
 20
161.469
 21
160.679
  0
LINE
  8
0
 10
-265.206
 11
-265.706
 20
160.679
 21
159.965
  0
LINE
  8
0
 10
-265.706
 11
-266.322
 20
159.965
 21
159.349
  0
LINE
  8
0
 10
-266.322
 11
-267.036
 20
159.349
 21
158.849
  0
LINE
  8
0
 10
-267.036
 11
-267.826
 20
158.849
 21
158.48
  0
LINE
  8
0
 10
-267.826
 11
-268.668
 20
158.48
 21
158.255
  0
LINE
  8
0
 10
-268.668
 11
-269.536
 20
158.255
 21
158.179
  0
LINE
  8
0
 10
-269.536
 11
-270.405
 20
158.179
 21
158.255
  0
LINE
  8
0
 10
-270.405
 11
-271.247
 20
158.255
 21
158.48
  0
LINE
  8
0
 10
-271.247
 11
-272.036
 20
158.48
 21
158.849
  0
LINE
  8
0
 10
-272.036
 11
-272.75
 20
158.849
 21
159.349
  0
LINE
  8
0
 10
-272.75
 11
-273.367
 20
159.349
 21
159.965
  0
LINE
  8
0
 10
-273.367
 11
-273.867
 20
159.965
 21
160.679
  0
LINE
  8
0
 10
-273.867
 11
-274.235
 20
160.679
 21
161.469
  0
LINE
  8
0
 10
-274.235
 11
-274.46
 20
161.469
 21
162.311
  0
LINE
  8
0
 10
-274.46
 11
-274.536
 20
162.311
 21
163.179
  0
LINE
  8
0
 10
-267.492
 11
-267.416
 20
177.268
 21
178.136
  0
LINE
  8
0
 10
-267.416
 11
-267.19
 20
178.136
 21
178.978
  0
LINE
  8
0
 10
-267.19
 11
-266.822
 20
178.978
 21
179.768
  0
LINE
  8
0
 10
-266.822
 11
-266.322
 20
179.768
 21
180.482
  0
LINE
  8
0
 10
-266.322
 11
-265.706
 20
180.482
 21
181.098
  0
LINE
  8
0
 10
-265.706
 11
-264.992
 20
181.098
 21
181.598
  0
LINE
  8
0
 10
-264.992
 11
-264.202
 20
181.598
 21
181.967
  0
LINE
  8
0
 10
-264.202
 11
-263.36
 20
181.967
 21
182.192
  0
LINE
  8
0
 10
-263.36
 11
-262.492
 20
182.192
 21
182.268
  0
LINE
  8
0
 10
-262.492
 11
-261.623
 20
182.268
 21
182.192
  0
LINE
  8
0
 10
-261.623
 11
-260.782
 20
182.192
 21
181.967
  0
LINE
  8
0
 10
-260.782
 11
-259.992
 20
181.967
 21
181.598
  0
LINE
  8
0
 10
-259.992
 11
-259.278
 20
181.598
 21
181.098
  0
LINE
  8
0
 10
-259.278
 11
-258.661
 20
181.098
 21
180.482
  0
LINE
  8
0
 10
-258.661
 11
-258.162
 20
180.482
 21
179.768
  0
LINE
  8
0
 10
-258.162
 11
-257.793
 20
179.768
 21
178.978
  0
LINE
  8
0
 10
-257.793
 11
-257.568
 20
178.978
 21
178.136
  0
LINE
  8
0
 10
-257.568
 11
-257.492
 20
178.136
 21
177.268
  0
LINE
  8
0
 10
-257.492
 11
-257.568
 20
177.268
 21
176.4
  0
LINE
  8
0
 10
-257.568
 11
-257.793
 20
176.4
 21
175.558
  0
LINE
  8
0
 10
-257.793
 11
-258.162
 20
175.558
 21
174.768
  0
LINE
  8
0
 10
-258.162
 11
-258.661
 20
174.768
 21
174.054
  0
LINE
  8
0
 10
-258.661
 11
-259.278
 20
174.054
 21
173.438
  0
LINE
  8
0
 10
-259.278
 11
-259.992
 20
173.438
 21
172.938
  0
LINE
  8
0
 10
-259.992
 11
-260.782
 20
172.938
 21
172.57
  0
LINE
  8
0
 10
-260.782
 11
-261.623
 20
172.57
 21
172.344
  0
LINE
  8
0
 10
-261.623
 11
-262.492
 20
172.344
 21
172.268
  0
LINE
  8
0
 10
-262.492
 11
-263.36
 20
172.268
 21
172.344
  0
LINE
  8
0
 10
-263.36
 11
-264.202
 20
172.344
 21
172.57
  0
LINE
  8
0
 10
-264.202
 11
-264.992
 20
172.57
 21
172.938
  0
LINE
  8
0
 10
-264.992
 11
-265.706
 20
172.938
 21
173.438
  0
LINE
  8
0
 10
-265.706
 11
-266.322
 20
173.438
 21
174.054
  0
LINE
  8
0
 10
-266.322
 11
-266.822
 20
174.054
 21
174.768
  0
LINE
  8
0
 10
-266.822
 11
-267.19
 20
174.768
 21
175.558
  0
LINE
  8
0
 10
-267.19
 11
-267.416
 20
175.558
 21
176.4
  0
LINE
  8
0
 10
-267.416
 11
-267.492
 20
176.4
 21
177.268
  0
LINE
  8
0
 10
-260.447
 11
-260.371
 20
163.179
 21
164.047
  0
LINE
  8
0
 10
-260.371
 11
-260.145
 20
164.047
 21
164.889
  0
LINE
  8
0
 10
-260.145
 11
-259.777
 20
164.889
 21
165.679
  0
LINE
  8
0
 10
-259.777
 11
-259.277
 20
165.679
 21
166.393
  0
LINE
  8
0
 10
-259.277
 11
-258.661
 20
166.393
 21
167.009
  0
LINE
  8
0
 10
-258.661
 11
-257.947
 20
167.009
 21
167.509
  0
LINE
  8
0
 10
-257.947
 11
-257.157
 20
167.509
 21
167.877
  0
LINE
  8
0
 10
-257.157
 11
-256.315
 20
167.877
 21
168.103
  0
LINE
  8
0
 10
-256.315
 11
-255.447
 20
168.103
 21
168.179
  0
LINE
  8
0
 10
-255.447
 11
-254.579
 20
168.179
 21
168.103
  0
LINE
  8
0
 10
-254.579
 11
-253.737
 20
168.103
 21
167.877
  0
LINE
  8
0
 10
-253.737
 11
-252.947
 20
167.877
 21
167.509
  0
LINE
  8
0
 10
-252.947
 11
-252.233
 20
167.509
 21
167.009
  0
LINE
  8
0
 10
-252.233
 11
-251.617
 20
167.009
 21
166.393
  0
LINE
  8
0
 10
-251.617
 11
-251.117
 20
166.393
 21
165.679
  0
LINE
  8
0
 10
-251.117
 11
-250.749
 20
165.679
 21
164.889
  0
LINE
  8
0
 10
-250.749
 11
-250.523
 20
164.889
 21
164.047
  0
LINE
  8
0
 10
-250.523
 11
-250.447
 20
164.047
 21
163.179
  0
LINE
  8
0
 10
-250.447
 11
-250.523
 20
163.179
 21
162.311
  0
LINE
  8
0
 10
-250.523
 11
-250.749
 20
162.311
 21
161.469
  0
LINE
  8
0
 10
-250.749
 11
-251.117
 20
161.469
 21
160.679
  0
LINE
  8
0
 10
-251.117
 11
-251.617
 20
160.679
 21
159.965
  0
LINE
  8
0
 10
-251.617
 11
-252.233
 20
159.965
 21
159.349
  0
LINE
  8
0
 10
-252.233
 11
-252.947
 20
159.349
 21
158.849
  0
LINE
  8
0
 10
-252.947
 11
-253.737
 20
158.849
 21
158.48
  0
LINE
  8
0
 10
-253.737
 11
-254.579
 20
158.48
 21
158.255
  0
LINE
  8
0
 10
-254.579
 11
-255.447
 20
158.255
 21
158.179
  0
LINE
  8
0
 10
-255.447
 11
-256.315
 20
158.179
 21
158.255
  0
LINE
  8
0
 10
-256.315
 11
-257.157
 20
158.255
 21
158.48
  0
LINE
  8
0
 10
-257.157
 11
-257.947
 20
158.48
 21
158.849
  0
LINE
  8
0
 10
-257.947
 11
-258.661
 20
158.849
 21
159.349
  0
LINE
  8
0
 10
-258.661
 11
-259.277
 20
159.349
 21
159.965
  0
LINE
  8
0
 10
-259.277
 11
-259.777
 20
159.965
 21
160.679
  0
LINE
  8
0
 10
-259.777
 11
-260.145
 20
160.679
 21
161.469
  0
LINE
  8
0
 10
-260.145
 11
-260.371
 20
161.469
 21
162.311
  0
LINE
  8
0
 10
-260.371
 11
-260.447
 20
162.311
 21
163.179
  0
LINE
  8
0
 10
-253.402
 11
-253.326
 20
177.268
 21
178.136
  0
LINE
  8
0
 10
-253.326
 11
-253.101
 20
178.136
 21
178.978
  0
LINE
  8
0
 10
-253.101
 11
-252.732
 20
178.978
 21
179.768
  0
LINE
  8
0
 10
-252.732
 11
-252.233
 20
179.768
 21
180.482
  0
LINE
  8
0
 10
-252.233
 11
-251.616
 20
180.482
 21
181.098
  0
LINE
  8
0
 10
-251.616
 11
-250.902
 20
181.098
 21
181.598
  0
LINE
  8
0
 10
-250.902
 11
-250.112
 20
181.598
 21
181.967
  0
LINE
  8
0
 10
-250.112
 11
-249.271
 20
181.967
 21
182.192
  0
LINE
  8
0
 10
-249.271
 11
-248.402
 20
182.192
 21
182.268
  0
LINE
  8
0
 10
-248.402
 11
-247.534
 20
182.268
 21
182.192
  0
LINE
  8
0
 10
-247.534
 11
-246.692
 20
182.192
 21
181.967
  0
LINE
  8
0
 10
-246.692
 11
-245.902
 20
181.967
 21
181.598
  0
LINE
  8
0
 10
-245.902
 11
-245.188
 20
181.598
 21
181.098
  0
LINE
  8
0
 10
-245.188
 11
-244.572
 20
181.098
 21
180.482
  0
LINE
  8
0
 10
-244.572
 11
-244.072
 20
180.482
 21
179.768
  0
LINE
  8
0
 10
-244.072
 11
-243.704
 20
179.768
 21
178.978
  0
LINE
  8
0
 10
-243.704
 11
-243.478
 20
178.978
 21
178.136
  0
LINE
  8
0
 10
-243.478
 11
-243.402
 20
178.136
 21
177.268
  0
LINE
  8
0
 10
-243.402
 11
-243.478
 20
177.268
 21
176.4
  0
LINE
  8
0
 10
-243.478
 11
-243.704
 20
176.4
 21
175.558
  0
LINE
  8
0
 10
-243.704
 11
-244.072
 20
175.558
 21
174.768
  0
LINE
  8
0
 10
-244.072
 11
-244.572
 20
174.768
 21
174.054
  0
LINE
  8
0
 10
-244.572
 11
-245.188
 20
174.054
 21
173.438
  0
LINE
  8
0
 10
-245.188
 11
-245.902
 20
173.438
 21
172.938
  0
LINE
  8
0
 10
-245.902
 11
-246.692
 20
172.938
 21
172.57
  0
LINE
  8
0
 10
-246.692
 11
-247.534
 20
172.57
 21
172.344
  0
LINE
  8
0
 10
-247.534
 11
-248.402
 20
172.344
 21
172.268
  0
LINE
  8
0
 10
-248.402
 11
-249.271
 20
172.268
 21
172.344
  0
LINE
  8
0
 10
-249.271
 11
-250.112
 20
172.344
 21
172.57
  0
LINE
  8
0
 10
-250.112
 11
-250.902
 20
172.57
 21
172.938
  0
LINE
  8
0
 10
-250.902
 11
-251.616
 20
172.938
 21
173.438
  0
LINE
  8
0
 10
-251.616
 11
-252.233
 20
173.438
 21
174.054
  0
LINE
  8
0
 10
-252.233
 11
-252.732
 20
174.054
 21
174.768
  0
LINE
  8
0
 10
-252.732
 11
-253.101
 20
174.768
 21
175.558
  0
LINE
  8
0
 10
-253.101
 11
-253.326
 20
175.558
 21
176.4
  0
LINE
  8
0
 10
-253.326
 11
-253.402
 20
176.4
 21
177.268
  0
LINE
  8
0
 10
-246.358
 11
-246.282
 20
163.179
 21
164.047
  0
LINE
  8
0
 10
-246.282
 11
-246.056
 20
164.047
 21
164.889
  0
LINE
  8
0
 10
-246.056
 11
-245.688
 20
164.889
 21
165.679
  0
LINE
  8
0
 10
-245.688
 11
-245.188
 20
165.679
 21
166.393
  0
LINE
  8
0
 10
-245.188
 11
-244.572
 20
166.393
 21
167.009
  0
LINE
  8
0
 10
-244.572
 11
-243.858
 20
167.009
 21
167.509
  0
LINE
  8
0
 10
-243.858
 11
-243.068
 20
167.509
 21
167.877
  0
LINE
  8
0
 10
-243.068
 11
-242.226
 20
167.877
 21
168.103
  0
LINE
  8
0
 10
-242.226
 11
-241.358
 20
168.103
 21
168.179
  0
LINE
  8
0
 10
-241.358
 11
-240.489
 20
168.179
 21
168.103
  0
LINE
  8
0
 10
-240.489
 11
-239.647
 20
168.103
 21
167.877
  0
LINE
  8
0
 10
-239.647
 11
-238.858
 20
167.877
 21
167.509
  0
LINE
  8
0
 10
-238.858
 11
-238.144
 20
167.509
 21
167.009
  0
LINE
  8
0
 10
-238.144
 11
-237.527
 20
167.009
 21
166.393
  0
LINE
  8
0
 10
-237.527
 11
-237.027
 20
166.393
 21
165.679
  0
LINE
  8
0
 10
-237.027
 11
-236.659
 20
165.679
 21
164.889
  0
LINE
  8
0
 10
-236.659
 11
-236.434
 20
164.889
 21
164.047
  0
LINE
  8
0
 10
-236.434
 11
-236.358
 20
164.047
 21
163.179
  0
LINE
  8
0
 10
-236.358
 11
-236.434
 20
163.179
 21
162.311
  0
LINE
  8
0
 10
-236.434
 11
-236.659
 20
162.311
 21
161.469
  0
LINE
  8
0
 10
-236.659
 11
-237.027
 20
161.469
 21
160.679
  0
LINE
  8
0
 10
-237.027
 11
-237.527
 20
160.679
 21
159.965
  0
LINE
  8
0
 10
-237.527
 11
-238.144
 20
159.965
 21
159.349
  0
LINE
  8
0
 10
-238.144
 11
-238.858
 20
159.349
 21
158.849
  0
LINE
  8
0
 10
-238.858
 11
-239.647
 20
158.849
 21
158.48
  0
LINE
  8
0
 10
-239.647
 11
-240.489
 20
158.48
 21
158.255
  0
LINE
  8
0
 10
-240.489
 11
-241.358
 20
158.255
 21
158.179
  0
LINE
  8
0
 10
-241.358
 11
-242.226
 20
158.179
 21
158.255
  0
LINE
  8
0
 10
-242.226
 11
-243.068
 20
158.255
 21
158.48
  0
LINE
  8
0
 10
-243.068
 11
-243.858
 20
158.48
 21
158.849
  0
LINE
  8
0
 10
-243.858
 11
-244.572
 20
158.849
 21
159.349
  0
LINE
  8
0
 10
-244.572
 11
-245.188
 20
159.349
 21
159.965
  0
LINE
  8
0
 10
-245.188
 11
-245.688
 20
159.965
 21
160.679
  0
LINE
  8
0
 10
-245.688
 11
-246.056
 20
160.679
 21
161.469
  0
LINE
  8
0
 10
-246.056
 11
-246.282
 20
161.469
 21
162.311
  0
LINE
  8
0
 10
-246.282
 11
-246.358
 20
162.311
 21
163.179
  0
LINE
  8
0
 10
-239.313
 11
-239.237
 20
177.268
 21
178.136
  0
LINE
  8
0
 10
-239.237
 11
-239.011
 20
178.136
 21
178.978
  0
LINE
  8
0
 10
-239.011
 11
-238.643
 20
178.978
 21
179.768
  0
LINE
  8
0
 10
-238.643
 11
-238.143
 20
179.768
 21
180.482
  0
LINE
  8
0
 10
-238.143
 11
-237.527
 20
180.482
 21
181.098
  0
LINE
  8
0
 10
-237.527
 11
-236.813
 20
181.098
 21
181.598
  0
LINE
  8
0
 10
-236.813
 11
-236.023
 20
181.598
 21
181.967
  0
LINE
  8
0
 10
-236.023
 11
-235.181
 20
181.967
 21
182.192
  0
LINE
  8
0
 10
-235.181
 11
-234.313
 20
182.192
 21
182.268
  0
LINE
  8
0
 10
-234.313
 11
-233.445
 20
182.268
 21
182.192
  0
LINE
  8
0
 10
-233.445
 11
-232.603
 20
182.192
 21
181.967
  0
LINE
  8
0
 10
-232.603
 11
-231.813
 20
181.967
 21
181.598
  0
LINE
  8
0
 10
-231.813
 11
-231.099
 20
181.598
 21
181.098
  0
LINE
  8
0
 10
-231.099
 11
-230.483
 20
181.098
 21
180.482
  0
LINE
  8
0
 10
-230.483
 11
-229.983
 20
180.482
 21
179.768
  0
LINE
  8
0
 10
-229.983
 11
-229.614
 20
179.768
 21
178.978
  0
LINE
  8
0
 10
-229.614
 11
-229.389
 20
178.978
 21
178.136
  0
LINE
  8
0
 10
-229.389
 11
-229.313
 20
178.136
 21
177.268
  0
LINE
  8
0
 10
-229.313
 11
-229.389
 20
177.268
 21
176.4
  0
LINE
  8
0
 10
-229.389
 11
-229.614
 20
176.4
 21
175.558
  0
LINE
  8
0
 10
-229.614
 11
-229.983
 20
175.558
 21
174.768
  0
LINE
  8
0
 10
-229.983
 11
-230.483
 20
174.768
 21
174.054
  0
LINE
  8
0
 10
-230.483
 11
-231.099
 20
174.054
 21
173.438
  0
LINE
  8
0
 10
-231.099
 11
-231.813
 20
173.438
 21
172.938
  0
LINE
  8
0
 10
-231.813
 11
-232.603
 20
172.938
 21
172.57
  0
LINE
  8
0
 10
-232.603
 11
-233.445
 20
172.57
 21
172.344
  0
LINE
  8
0
 10
-233.445
 11
-234.313
 20
172.344
 21
172.268
  0
LINE
  8
0
 10
-234.313
 11
-235.181
 20
172.268
 21
172.344
  0
LINE
  8
0
 10
-235.181
 11
-236.023
 20
172.344
 21
172.57
  0
LINE
  8
0
 10
-236.023
 11
-236.813
 20
172.57
 21
172.938
  0
LINE
  8
0
 10
-236.813
 11
-237.527
 20
172.938
 21
173.438
  0
LINE
  8
0
 10
-237.527
 11
-238.143
 20
173.438
 21
174.054
  0
LINE
  8
0
 10
-238.143
 11
-238.643
 20
174.054
 21
174.768
  0
LINE
  8
0
 10
-238.643
 11
-239.011
 20
174.768
 21
175.558
  0
LINE
  8
0
 10
-239.011
 11
-239.237
 20
175.558
 21
176.4
  0
LINE
  8
0
 10
-239.237
 11
-239.313
 20
176.4
 21
177.268
  0
LINE
  8
0
 10
-232.268
 11
-232.192
 20
163.179
 21
164.047
  0
LINE
  8
0
 10
-232.192
 11
-231.967
 20
164.047
 21
164.889
  0
LINE
  8
0
 10
-231.967
 11
-231.598
 20
164.889
 21
165.679
  0
LINE
  8
0
 10
-231.598
 11
-231.098
 20
165.679
 21
166.393
  0
LINE
  8
0
 10
-231.098
 11
-230.482
 20
166.393
 21
167.009
  0
LINE
  8
0
 10
-230.482
 11
-229.768
 20
167.009
 21
167.509
  0
LINE
  8
0
 10
-229.768
 11
-228.978
 20
167.509
 21
167.877
  0
LINE
  8
0
 10
-228.978
 11
-228.136
 20
167.877
 21
168.103
  0
LINE
  8
0
 10
-228.136
 11
-227.268
 20
168.103
 21
168.179
  0
LINE
  8
0
 10
-227.268
 11
-226.4
 20
168.179
 21
168.103
  0
LINE
  8
0
 10
-226.4
 11
-225.558
 20
168.103
 21
167.877
  0
LINE
  8
0
 10
-225.558
 11
-224.768
 20
167.877
 21
167.509
  0
LINE
  8
0
 10
-224.768
 11
-224.054
 20
167.509
 21
167.009
  0
LINE
  8
0
 10
-224.054
 11
-223.438
 20
167.009
 21
166.393
  0
LINE
  8
0
 10
-223.438
 11
-222.938
 20
166.393
 21
165.679
  0
LINE
  8
0
 10
-222.938
 11
-222.57
 20
165.679
 21
164.889
  0
LINE
  8
0
 10
-222.57
 11
-222.344
 20
164.889
 21
164.047
  0
LINE
  8
0
 10
-222.344
 11
-222.268
 20
164.047
 21
163.179
  0
LINE
  8
0
 10
-222.268
 11
-222.344
 20
163.179
 21
162.311
  0
LINE
  8
0
 10
-222.344
 11
-222.57
 20
162.311
 21
161.469
  0
LINE
  8
0
 10
-222.57
 11
-222.938
 20
161.469
 21
160.679
  0
LINE
  8
0
 10
-222.938
 11
-223.438
 20
160.679
 21
159.965
  0
LINE
  8
0
 10
-223.438
 11
-224.054
 20
159.965
 21
159.349
  0
LINE
  8
0
 10
-224.054
 11
-224.768
 20
159.349
 21
158.849
  0
LINE
  8
0
 10
-224.768
 11
-225.558
 20
158.849
 21
158.48
  0
LINE
  8
0
 10
-225.558
 11
-226.4
 20
158.48
 21
158.255
  0
LINE
  8
0
 10
-226.4
 11
-227.268
 20
158.255
 21
158.179
  0
LINE
  8
0
 10
-227.268
 11
-228.136
 20
158.179
 21
158.255
  0
LINE
  8
0
 10
-228.136
 11
-228.978
 20
158.255
 21
158.48
  0
LINE
  8
0
 10
-228.978
 11
-229.768
 20
158.48
 21
158.849
  0
LINE
  8
0
 10
-229.768
 11
-230.482
 20
158.849
 21
159.349
  0
LINE
  8
0
 10
-230.482
 11
-231.098
 20
159.349
 21
159.965
  0
LINE
  8
0
 10
-231.098
 11
-231.598
 20
159.965
 21
160.679
  0
LINE
  8
0
 10
-231.598
 11
-231.967
 20
160.679
 21
161.469
  0
LINE
  8
0
 10
-231.967
 11
-232.192
 20
161.469
 21
162.311
  0
LINE
  8
0
 10
-232.192
 11
-232.268
 20
162.311
 21
163.179
  0
LINE
  8
0
 10
-225.224
 11
-225.148
 20
177.268
 21
178.136
  0
LINE
  8
0
 10
-225.148
 11
-224.922
 20
178.136
 21
178.978
  0
LINE
  8
0
 10
-224.922
 11
-224.554
 20
178.978
 21
179.768
  0
LINE
  8
0
 10
-224.554
 11
-224.054
 20
179.768
 21
180.482
  0
LINE
  8
0
 10
-224.054
 11
-223.437
 20
180.482
 21
181.098
  0
LINE
  8
0
 10
-223.437
 11
-222.724
 20
181.098
 21
181.598
  0
LINE
  8
0
 10
-222.724
 11
-221.934
 20
181.598
 21
181.967
  0
LINE
  8
0
 10
-221.934
 11
-221.092
 20
181.967
 21
182.192
  0
LINE
  8
0
 10
-221.092
 11
-220.224
 20
182.192
 21
182.268
  0
LINE
  8
0
 10
-220.224
 11
-219.355
 20
182.268
 21
182.192
  0
LINE
  8
0
 10
-219.355
 11
-218.513
 20
182.192
 21
181.967
  0
LINE
  8
0
 10
-218.513
 11
-217.724
 20
181.967
 21
181.598
  0
LINE
  8
0
 10
-217.724
 11
-217.01
 20
181.598
 21
181.098
  0
LINE
  8
0
 10
-217.01
 11
-216.393
 20
181.098
 21
180.482
  0
LINE
  8
0
 10
-216.393
 11
-215.893
 20
180.482
 21
179.768
  0
LINE
  8
0
 10
-215.893
 11
-215.525
 20
179.768
 21
178.978
  0
LINE
  8
0
 10
-215.525
 11
-215.299
 20
178.978
 21
178.136
  0
LINE
  8
0
 10
-215.299
 11
-215.224
 20
178.136
 21
177.268
  0
LINE
  8
0
 10
-215.224
 11
-215.299
 20
177.268
 21
176.4
  0
LINE
  8
0
 10
-215.299
 11
-215.525
 20
176.4
 21
175.558
  0
LINE
  8
0
 10
-215.525
 11
-215.893
 20
175.558
 21
174.768
  0
LINE
  8
0
 10
-215.893
 11
-216.393
 20
174.768
 21
174.054
  0
LINE
  8
0
 10
-216.393
 11
-217.01
 20
174.054
 21
173.438
  0
LINE
  8
0
 10
-217.01
 11
-217.724
 20
173.438
 21
172.938
  0
LINE
  8
0
 10
-217.724
 11
-218.513
 20
172.938
 21
172.57
  0
LINE
  8
0
 10
-218.513
 11
-219.355
 20
172.57
 21
172.344
  0
LINE
  8
0
 10
-219.355
 11
-220.224
 20
172.344
 21
172.268
  0
LINE
  8
0
 10
-220.224
 11
-221.092
 20
172.268
 21
172.344
  0
LINE
  8
0
 10
-221.092
 11
-221.934
 20
172.344
 21
172.57
  0
LINE
  8
0
 10
-221.934
 11
-222.724
 20
172.57
 21
172.938
  0
LINE
  8
0
 10
-222.724
 11
-223.437
 20
172.938
 21
173.438
  0
LINE
  8
0
 10
-223.437
 11
-224.054
 20
173.438
 21
174.054
  0
LINE
  8
0
 10
-224.054
 11
-224.554
 20
174.054
 21
174.768
  0
LINE
  8
0
 10
-224.554
 11
-224.922
 20
174.768
 21
175.558
  0
LINE
  8
0
 10
-224.922
 11
-225.148
 20
175.558
 21
176.4
  0
LINE
  8
0
 10
-225.148
 11
-225.224
 20
176.4
 21
177.268
  0
LINE
  8
0
 10
-218.179
 11
-218.103
 20
163.179
 21
164.047
  0
LINE
  8
0
 10
-218.103
 11
-217.877
 20
164.047
 21
164.889
  0
LINE
  8
0
 10
-217.877
 11
-217.509
 20
164.889
 21
165.679
  0
LINE
  8
0
 10
-217.509
 11
-217.009
 20
165.679
 21
166.393
  0
LINE
  8
0
 10
-217.009
 11
-216.393
 20
166.393
 21
167.009
  0
LINE
  8
0
 10
-216.393
 11
-215.679
 20
167.009
 21
167.509
  0
LINE
  8
0
 10
-215.679
 11
-214.889
 20
167.509
 21
167.877
  0
LINE
  8
0
 10
-214.889
 11
-214.047
 20
167.877
 21
168.103
  0
LINE
  8
0
 10
-214.047
 11
-213.179
 20
168.103
 21
168.179
  0
LINE
  8
0
 10
-213.179
 11
-212.311
 20
168.179
 21
168.103
  0
LINE
  8
0
 10
-212.311
 11
-211.469
 20
168.103
 21
167.877
  0
LINE
  8
0
 10
-211.469
 11
-210.679
 20
167.877
 21
167.509
  0
LINE
  8
0
 10
-210.679
 11
-209.965
 20
167.509
 21
167.009
  0
LINE
  8
0
 10
-209.965
 11
-209.349
 20
167.009
 21
166.393
  0
LINE
  8
0
 10
-209.349
 11
-208.849
 20
166.393
 21
165.679
  0
LINE
  8
0
 10
-208.849
 11
-208.48
 20
165.679
 21
164.889
  0
LINE
  8
0
 10
-208.48
 11
-208.255
 20
164.889
 21
164.047
  0
LINE
  8
0
 10
-208.255
 11
-208.179
 20
164.047
 21
163.179
  0
LINE
  8
0
 10
-208.179
 11
-208.255
 20
163.179
 21
162.311
  0
LINE
  8
0
 10
-208.255
 11
-208.48
 20
162.311
 21
161.469
  0
LINE
  8
0
 10
-208.48
 11
-208.849
 20
161.469
 21
160.679
  0
LINE
  8
0
 10
-208.849
 11
-209.349
 20
160.679
 21
159.965
  0
LINE
  8
0
 10
-209.349
 11
-209.965
 20
159.965
 21
159.349
  0
LINE
  8
0
 10
-209.965
 11
-210.679
 20
159.349
 21
158.849
  0
LINE
  8
0
 10
-210.679
 11
-211.469
 20
158.849
 21
158.48
  0
LINE
  8
0
 10
-211.469
 11
-212.311
 20
158.48
 21
158.255
  0
LINE
  8
0
 10
-212.311
 11
-213.179
 20
158.255
 21
158.179
  0
LINE
  8
0
 10
-213.179
 11
-214.047
 20
158.179
 21
158.255
  0
LINE
  8
0
 10
-214.047
 11
-214.889
 20
158.255
 21
158.48
  0
LINE
  8
0
 10
-214.889
 11
-215.679
 20
158.48
 21
158.849
  0
LINE
  8
0
 10
-215.679
 11
-216.393
 20
158.849
 21
159.349
  0
LINE
  8
0
 10
-216.393
 11
-217.009
 20
159.349
 21
159.965
  0
LINE
  8
0
 10
-217.009
 11
-217.509
 20
159.965
 21
160.679
  0
LINE
  8
0
 10
-217.509
 11
-217.877
 20
160.679
 21
161.469
  0
LINE
  8
0
 10
-217.877
 11
-218.103
 20
161.469
 21
162.311
  0
LINE
  8
0
 10
-218.103
 11
-218.179
 20
162.311
 21
163.179
  0
LINE
  8
0
 10
-200
 11
-200
 20
-285.91
 21
-278.539
  0
LINE
  8
0
 10
-200
 11
-191.821
 20
-278.539
 21
-278.539
  0
LINE
  8
0
 10
-191.821
 11
-191.821
 20
-278.539
 21
-262.973
  0
LINE
  8
0
 10
-191.821
 11
-200
 20
-262.973
 21
-262.973
  0
LINE
  8
0
 10
-200
 11
-200
 20
-262.973
 21
-247.428
  0
LINE
  8
0
 10
-200
 11
-191.821
 20
-247.428
 21
-247.428
  0
LINE
  8
0
 10
-191.821
 11
-191.821
 20
-247.428
 21
-231.862
  0
LINE
  8
0
 10
-191.821
 11
-200
 20
-231.862
 21
-231.862
  0
LINE
  8
0
 10
-200
 11
-200
 20
-231.862
 21
-216.317
  0
LINE
  8
0
 10
-200
 11
-191.821
 20
-216.317
 21
-216.317
  0
LINE
  8
0
 10
-191.821
 11
-191.821
 20
-216.317
 21
-200.751
  0
LINE
  8
0
 10
-191.821
 11
-200
 20
-200.751
 21
-200.751
  0
LINE
  8
0
 10
-200
 11
-200
 20
-200.751
 21
-185.206
  0
LINE
  8
0
 10
-200
 11
-191.821
 20
-185.206
 21
-185.206
  0
LINE
  8
0
 10
-191.821
 11
-191.821
 20
-185.206
 21
-169.64
  0
LINE
  8
0
 10
-191.821
 11
-200
 20
-169.64
 21
-169.64
  0
LINE
  8
0
 10
-200
 11
-200
 20
-169.64
 21
-154.094
  0
LINE
  8
0
 10
-200
 11
-191.821
 20
-154.094
 21
-154.094
  0
LINE
  8
0
 10
-191.821
 11
-191.821
 20
-154.094
 21
-154.089
  0
LINE
  8
0
 10
-191.821
 11
-183.643
 20
-154.089
 21
-154.089
  0
LINE
  8
0
 10
-183.643
 11
-183.643
 20
-154.089
 21
-154.094
  0
LINE
  8
0
 10
-183.643
 11
-175.463
 20
-154.094
 21
-154.094
  0
LINE
  8
0
 10
-175.463
 11
-175.463
 20
-154.094
 21
-154.089
  0
LINE
  8
0
 10
-175.463
 11
175.463
 20
-154.089
 21
-154.089
  0
LINE
  8
0
 10
175.463
 11
175.463
 20
-154.089
 21
-154.094
  0
LINE
  8
0
 10
175.463
 11
183.643
 20
-154.094
 21
-154.094
  0
LINE
  8
0
 10
183.643
 11
183.643
 20
-154.094
 21
-154.089
  0
LINE
  8
0
 10
183.643
 11
191.821
 20
-154.089
 21
-154.089
  0
LINE
  8
0
 10
191.821
 11
191.821
 20
-154.089
 21
-154.094
  0
LINE
  8
0
 10
191.821
 11
200
 20
-154.094
 21
-154.094
  0
LINE
  8
0
 10
200
 11
200
 20
-154.094
 21
-169.64
  0
LINE
  8
0
 10
200
 11
191.821
 20
-169.64
 21
-169.64
  0
LINE
  8
0
 10
191.821
 11
191.821
 20
-169.64
 21
-185.206
  0
LINE
  8
0
 10
191.821
 11
200
 20
-185.206
 21
-185.206
  0
LINE
  8
0
 10
200
 11
200
 20
-185.206
 21
-200.751
  0
LINE
  8
0
 10
200
 11
191.821
 20
-200.751
 21
-200.751
  0
LINE
  8
0
 10
191.821
 11
191.821
 20
-200.751
 21
-216.317
  0
LINE
  8
0
 10
191.821
 11
200
 20
-216.317
 21
-216.317
  0
LINE
  8
0
 10
200
 11
200
 20
-216.317
 21
-231.862
  0
LINE
  8
0
 10
200
 11
191.821
 20
-231.862
 21
-231.862
  0
LINE
  8
0
 10
191.821
 11
191.821
 20
-231.862
 21
-247.428
  0
LINE
  8
0
 10
191.821
 11
200
 20
-247.428
 21
-247.428
  0
LINE
  8
0
 10
200
 11
200
 20
-247.428
 21
-262.973
  0
LINE
  8
0
 10
200
 11
191.821
 20
-262.973
 21
-262.973
  0
LINE
  8
0
 10
191.821
 11
191.821
 20
-262.973
 21
-278.539
  0
LINE
  8
0
 10
191.821
 11
200
 20
-278.539
 21
-278.539
  0
LINE
  8
0
 10
200
 11
200
 20
-278.539
 21
-294.089
  0
LINE
  8
0
 10
200
 11
163.641
 20
-294.089
 21
-294.089
  0
LINE
  8
0
 10
163.641
 11
163.641
 20
-294.089
 21
-285.91
  0
LINE
  8
0
 10
163.641
 11
127.268
 20
-285.91
 21
-285.91
  0
LINE
  8
0
 10
127.268
 11
127.268
 20
-285.91
 21
-294.089
  0
LINE
  8
0
 10
127.268
 11
90.914
 20
-294.089
 21
-294.089
  0
LINE
  8
0
 10
90.914
 11
90.914
 20
-294.089
 21
-285.91
  0
LINE
  8
0
 10
90.914
 11
54.54
 20
-285.91
 21
-285.91
  0
LINE
  8
0
 10
54.54
 11
54.54
 20
-285.91
 21
-294.089
  0
LINE
  8
0
 10
54.54
 11
18.187
 20
-294.089
 21
-294.089
  0
LINE
  8
0
 10
18.187
 11
18.187
 20
-294.089
 21
-285.91
  0
LINE
  8
0
 10
18.187
 11
-18.187
 20
-285.91
 21
-285.91
  0
LINE
  8
0
 10
-18.187
 11
-18.187
 20
-285.91
 21
-294.089
  0
LINE
  8
0
 10
-18.187
 11
-54.54
 20
-294.089
 21
-294.089
  0
LINE
  8
0
 10
-54.54
 11
-54.54
 20
-294.089
 21
-285.91
  0
LINE
  8
0
 10
-54.54
 11
-90.914
 20
-285.91
 21
-285.91
  0
LINE
  8
0
 10
-90.914
 11
-90.914
 20
-285.91
 21
-294.089
  0
LINE
  8
0
 10
-90.914
 11
-127.268
 20
-294.089
 21
-294.089
  0
LINE
  8
0
 10
-127.268
 11
-127.268
 20
-294.089
 21
-285.91
  0
LINE
  8
0
 10
-127.268
 11
-163.641
 20
-285.91
 21
-285.91
  0
LINE
  8
0
 10
-163.641
 11
-163.641
 20
-285.91
 21
-294.089
  0
LINE
  8
0
 10
-163.641
 11
-199.995
 20
-294.089
 21
-294.089
  0
LINE
  8
0
 10
-199.995
 11
-199.995
 20
-294.089
 21
-285.91
  0
LINE
  8
0
 10
-199.995
 11
-200
 20
-285.91
 21
-285.91
  0
LINE
  8
0
 10
-200
 11
-200
 20
-107.138
 21
-64.291
  0
LINE
  8
0
 10
-200
 11
-191.821
 20
-64.291
 21
-64.291
  0
LINE
  8
0
 10
-191.821
 11
-191.821
 20
-64.291
 21
-21.424
  0
LINE
  8
0
 10
-191.821
 11
-200
 20
-21.424
 21
-21.424
  0
LINE
  8
0
 10
-200
 11
-200
 20
-21.424
 21
21.424
  0
LINE
  8
0
 10
-200
 11
-191.821
 20
21.424
 21
21.424
  0
LINE
  8
0
 10
-191.821
 11
-191.821
 20
21.424
 21
64.291
  0
LINE
  8
0
 10
-191.821
 11
-200
 20
64.291
 21
64.291
  0
LINE
  8
0
 10
-200
 11
-200
 20
64.291
 21
107.138
  0
LINE
  8
0
 10
-200
 11
-191.821
 20
107.138
 21
107.138
  0
LINE
  8
0
 10
-191.821
 11
-191.821
 20
107.138
 21
141.821
  0
LINE
  8
0
 10
-191.821
 11
-163.631
 20
141.821
 21
141.821
  0
LINE
  8
0
 10
-163.631
 11
-163.631
 20
141.821
 21
150
  0
LINE
  8
0
 10
-163.631
 11
-127.278
 20
150
 21
150
  0
LINE
  8
0
 10
-127.278
 11
-127.278
 20
150
 21
141.821
  0
LINE
  8
0
 10
-127.278
 11
-90.904
 20
141.821
 21
141.821
  0
LINE
  8
0
 10
-90.904
 11
-90.904
 20
141.821
 21
150
  0
LINE
  8
0
 10
-90.904
 11
-54.55
 20
150
 21
150
  0
LINE
  8
0
 10
-54.55
 11
-54.55
 20
150
 21
141.821
  0
LINE
  8
0
 10
-54.55
 11
-18.177
 20
141.821
 21
141.821
  0
LINE
  8
0
 10
-18.177
 11
-18.177
 20
141.821
 21
150
  0
LINE
  8
0
 10
-18.177
 11
18.177
 20
150
 21
150
  0
LINE
  8
0
 10
18.177
 11
18.177
 20
150
 21
141.821
  0
LINE
  8
0
 10
18.177
 11
54.55
 20
141.821
 21
141.821
  0
LINE
  8
0
 10
54.55
 11
54.55
 20
141.821
 21
150
  0
LINE
  8
0
 10
54.55
 11
90.904
 20
150
 21
150
  0
LINE
  8
0
 10
90.904
 11
90.904
 20
150
 21
141.821
  0
LINE
  8
0
 10
90.904
 11
127.278
 20
141.821
 21
141.821
  0
LINE
  8
0
 10
127.278
 11
127.278
 20
141.821
 21
150
  0
LINE
  8
0
 10
127.278
 11
163.631
 20
150
 21
150
  0
LINE
  8
0
 10
163.631
 11
163.631
 20
150
 21
141.821
  0
LINE
  8
0
 10
163.631
 11
191.821
 20
141.821
 21
141.821
  0
LINE
  8
0
 10
191.821
 11
191.821
 20
141.821
 21
107.138
  0
LINE
  8
0
 10
191.821
 11
200
 20
107.138
 21
107.138
  0
LINE
  8
0
 10
200
 11
200
 20
107.138
 21
64.291
  0
LINE
  8
0
 10
200
 11
191.821
 20
64.291
 21
64.291
  0
LINE
  8
0
 10
191.821
 11
191.821
 20
64.291
 21
21.424
  0
LINE
  8
0
 10
191.821
 11
200
 20
21.424
 21
21.424
  0
LINE
  8
0
 10
200
 11
200
 20
21.424
 21
-21.424
  0
LINE
  8
0
 10
200
 11
191.821
 20
-21.424
 21
-21.424
  0
LINE
  8
0
 10
191.821
 11
191.821
 20
-21.424
 21
-64.291
  0
LINE
  8
0
 10
191.821
 11
200
 20
-64.291
 21
-64.291
  0
LINE
  8
0
 10
200
 11
200
 20
-64.291
 21
-107.138
  0
LINE
  8
0
 10
200
 11
191.821
 20
-107.138
 21
-107.138
  0
LINE
  8
0
 10
191.821
 11
191.821
 20
-107.138
 21
-141.821
  0
LINE
  8
0
 10
191.821
 11
163.631
 20
-141.821
 21
-141.821
  0
LINE
  8
0
 10
163.631
 11
163.631
 20
-141.821
 21
-150
  0
LINE
  8
0
 10
163.631
 11
127.278
 20
-150
 21
-150
  0
LINE
  8
0
 10
127.278
 11
127.278
 20
-150
 21
-141.821
  0
LINE
  8
0
 10
127.278
 11
90.904
 20
-141.821
 21
-141.821
  0
LINE
  8
0
 10
90.904
 11
90.904
 20
-141.821
 21
-150
  0
LINE
  8
0
 10
90.904
 11
54.55
 20
-150
 21
-150
  0
LINE
  8
0
 10
54.55
 11
54.55
 20
-150
 21
-141.821
  0
LINE
  8
0
 10
54.55
 11
18.177
 20
-141.821
 21
-141.821
  0
LINE
  8
0
 10
18.177
 11
18.177
 20
-141.821
 21
-150
  0
LINE
  8
0
 10
18.177
 11
-18.177
 20
-150
 21
-150
  0
LINE
  8
0
 10
-18.177
 11
-18.177
 20
-150
 21
-141.821
  0
LINE
  8
0
 10
-18.177
 11
-54.55
 20
-141.821
 21
-141.821
  0
LINE
  8
0
 10
-54.55
 11
-54.55
 20
-141.821
 21
-150
  0
LINE
  8
0
 10
-54.55
 11
-90.904
 20
-150
 21
-150
  0
LINE
  8
0
 10
-90.904
 11
-90.904
 20
-150
 21
-141.821
  0
LINE
  8
0
 10
-90.904
 11
-127.278
 20
-141.821
 21
-141.821
  0
LINE
  8
0
 10
-127.278
 11
-127.278
 20
-141.821
 21
-150
  0
LINE
  8
0
 10
-127.278
 11
-163.631
 20
-150
 21
-150
  0
LINE
  8
0
 10
-163.631
 11
-163.631
 20
-150
 21
-141.821
  0
LINE
  8
0
 10
-163.631
 11
-191.821
 20
-141.821
 21
-141.821
  0
LINE
  8
0
 10
-191.821
 11
-191.821
 20
-141.821
 21
-107.138
  0
LINE
  8
0
 10
-191.821
 11
-200
 20
-107.138
 21
-107.138
  0
LINE
  8
0
 10
-200
 11
-200
 20
162.269
 21
169.64
  0
LINE
  8
0
 10
-200
 11
-191.821
 20
169.64
 21
169.64
  0
LINE
  8
0
 10
-191.821
 11
-191.821
 20
169.64
 21
185.206
  0
LINE
  8
0
 10
-191.821
 11
-200
 20
185.206
 21
185.206
  0
LINE
  8
0
 10
-200
 11
-200
 20
185.206
 21
200.751
  0
LINE
  8
0
 10
-200
 11
-191.821
 20
200.751
 21
200.751
  0
LINE
  8
0
 10
-191.821
 11
-191.821
 20
200.751
 21
216.317
  0
LINE
  8
0
 10
-191.821
 11
-200
 20
216.317
 21
216.317
  0
LINE
  8
0
 10
-200
 11
-200
 20
216.317
 21
231.862
  0
LINE
  8
0
 10
-200
 11
-191.821
 20
231.862
 21
231.862
  0
LINE
  8
0
 10
-191.821
 11
-191.821
 20
231.862
 21
247.428
  0
LINE
  8
0
 10
-191.821
 11
-200
 20
247.428
 21
247.428
  0
LINE
  8
0
 10
-200
 11
-200
 20
247.428
 21
262.973
  0
LINE
  8
0
 10
-200
 11
-191.821
 20
262.973
 21
262.973
  0
LINE
  8
0
 10
-191.821
 11
-191.821
 20
262.973
 21
278.539
  0
LINE
  8
0
 10
-191.821
 11
-200
 20
278.539
 21
278.539
  0
LINE
  8
0
 10
-200
 11
-200
 20
278.539
 21
294.084
  0
LINE
  8
0
 10
-200
 11
-191.821
 20
294.084
 21
294.084
  0
LINE
  8
0
 10
-191.821
 11
-191.821
 20
294.084
 21
294.089
  0
LINE
  8
0
 10
-191.821
 11
-183.643
 20
294.089
 21
294.089
  0
LINE
  8
0
 10
-183.643
 11
-183.643
 20
294.089
 21
294.084
  0
LINE
  8
0
 10
-183.643
 11
-175.463
 20
294.084
 21
294.084
  0
LINE
  8
0
 10
-175.463
 11
-175.463
 20
294.084
 21
294.089
  0
LINE
  8
0
 10
-175.463
 11
175.463
 20
294.089
 21
294.089
  0
LINE
  8
0
 10
175.463
 11
175.463
 20
294.089
 21
294.084
  0
LINE
  8
0
 10
175.463
 11
183.643
 20
294.084
 21
294.084
  0
LINE
  8
0
 10
183.643
 11
183.643
 20
294.084
 21
294.089
  0
LINE
  8
0
 10
183.643
 11
191.821
 20
294.089
 21
294.089
  0
LINE
  8
0
 10
191.821
 11
191.821
 20
294.089
 21
294.084
  0
LINE
  8
0
 10
191.821
 11
200
 20
294.084
 21
294.084
  0
LINE
  8
0
 10
200
 11
200
 20
294.084
 21
278.539
  0
LINE
  8
0
 10
200
 11
191.821
 20
278.539
 21
278.539
  0
LINE
  8
0
 10
191.821
 11
191.821
 20
278.539
 21
262.973
  0
LINE
  8
0
 10
191.821
 11
200
 20
262.973
 21
262.973
  0
LINE
  8
0
 10
200
 11
200
 20
262.973
 21
247.428
  0
LINE
  8
0
 10
200
 11
191.821
 20
247.428
 21
247.428
  0
LINE
  8
0
 10
191.821
 11
191.821
 20
247.428
 21
231.862
  0
LINE
  8
0
 10
191.821
 11
200
 20
231.862
 21
231.862
  0
LINE
  8
0
 10
200
 11
200
 20
231.862
 21
216.317
  0
LINE
  8
0
 10
200
 11
191.821
 20
216.317
 21
216.317
  0
LINE
  8
0
 10
191.821
 11
191.821
 20
216.317
 21
200.751
  0
LINE
  8
0
 10
191.821
 11
200
 20
200.751
 21
200.751
  0
LINE
  8
0
 10
200
 11
200
 20
200.751
 21
185.206
  0
LINE
  8
0
 10
200
 11
191.821
 20
185.206
 21
185.206
  0
LINE
  8
0
 10
191.821
 11
191.821
 20
185.206
 21
169.64
  0
LINE
  8
0
 10
191.821
 11
200
 20
169.64
 21
169.64
  0
LINE
  8
0
 10
200
 11
200
 20
169.64
 21
154.089
  0
LINE
  8
0
 10
200
 11
163.641
 20
154.089
 21
154.089
  0
LINE
  8
0
 10
163.641
 11
163.641
 20
154.089
 21
162.269
  0
LINE
  8
0
 10
163.641
 11
127.268
 20
162.269
 21
162.269
  0
LINE
  8
0
 10
127.268
 11
127.268
 20
162.269
 21
154.089
  0
LINE
  8
0
 10
127.268
 11
90.914
 20
154.089
 21
154.089
  0
LINE
  8
0
 10
90.914
 11
90.914
 20
154.089
 21
162.269
  0
LINE
  8
0
 10
90.914
 11
54.54
 20
162.269
 21
162.269
  0
LINE
  8
0
 10
54.54
 11
54.54
 20
162.269
 21
154.089
  0
LINE
  8
0
 10
54.54
 11
18.187
 20
154.089
 21
154.089
  0
LINE
  8
0
 10
18.187
 11
18.187
 20
154.089
 21
162.269
  0
LINE
  8
0
 10
18.187
 11
-18.187
 20
162.269
 21
162.269
  0
LINE
  8
0
 10
-18.187
 11
-18.187
 20
162.269
 21
154.089
  0
LINE
  8
0
 10
-18.187
 11
-54.54
 20
154.089
 21
154.089
  0
LINE
  8
0
 10
-54.54
 11
-54.54
 20
154.089
 21
162.269
  0
LINE
  8
0
 10
-54.54
 11
-90.914
 20
162.269
 21
162.269
  0
LINE
  8
0
 10
-90.914
 11
-90.914
 20
162.269
 21
154.089
  0
LINE
  8
0
 10
-90.914
 11
-127.268
 20
154.089
 21
154.089
  0
LINE
  8
0
 10
-127.268
 11
-127.268
 20
154.089
 21
162.269
  0
LINE
  8
0
 10
-127.268
 11
-163.641
 20
162.269
 21
162.269
  0
LINE
  8
0
 10
-163.641
 11
-163.641
 20
162.269
 21
154.089
  0
LINE
  8
0
 10
-163.641
 11
-199.995
 20
154.089
 21
154.089
  0
LINE
  8
0
 10
-199.995
 11
-199.995
 20
154.089
 21
162.269
  0
LINE
  8
0
 10
-199.995
 11
-200
 20
162.269
 21
162.269
  0
LINE
  8
0
 10
-183.643
 11
-183.643
 20
-278.539
 21
-262.973
  0
LINE
  8
0
 10
-183.643
 11
-175.463
 20
-262.973
 21
-262.973
  0
LINE
  8
0
 10
-175.463
 11
-175.463
 20
-262.973
 21
-278.539
  0
LINE
  8
0
 10
-175.463
 11
-183.643
 20
-278.539
 21
-278.539
  0
LINE
  8
0
 10
-183.643
 11
-183.643
 20
-247.428
 21
-231.862
  0
LINE
  8
0
 10
-183.643
 11
-175.463
 20
-231.862
 21
-231.862
  0
LINE
  8
0
 10
-175.463
 11
-175.463
 20
-231.862
 21
-247.428
  0
LINE
  8
0
 10
-175.463
 11
-183.643
 20
-247.428
 21
-247.428
  0
LINE
  8
0
 10
-183.643
 11
-183.643
 20
-216.317
 21
-200.751
  0
LINE
  8
0
 10
-183.643
 11
-175.463
 20
-200.751
 21
-200.751
  0
LINE
  8
0
 10
-175.463
 11
-175.463
 20
-200.751
 21
-216.317
  0
LINE
  8
0
 10
-175.463
 11
-183.643
 20
-216.317
 21
-216.317
  0
LINE
  8
0
 10
-183.643
 11
-183.643
 20
-185.206
 21
-169.64
  0
LINE
  8
0
 10
-183.643
 11
-175.463
 20
-169.64
 21
-169.64
  0
LINE
  8
0
 10
-175.463
 11
-175.463
 20
-169.64
 21
-185.206
  0
LINE
  8
0
 10
-175.463
 11
-183.643
 20
-185.206
 21
-185.206
  0
LINE
  8
0
 10
-183.643
 11
-183.643
 20
-116.672
 21
-83.328
  0
LINE
  8
0
 10
-183.643
 11
-175.463
 20
-83.328
 21
-83.328
  0
LINE
  8
0
 10
-175.463
 11
-175.463
 20
-83.328
 21
-116.672
  0
LINE
  8
0
 10
-175.463
 11
-183.643
 20
-116.672
 21
-116.672
  0
LINE
  8
0
 10
-183.643
 11
-183.643
 20
-50.005
 21
-16.662
  0
LINE
  8
0
 10
-183.643
 11
-175.463
 20
-16.662
 21
-16.662
  0
LINE
  8
0
 10
-175.463
 11
-175.463
 20
-16.662
 21
-50.005
  0
LINE
  8
0
 10
-175.463
 11
-183.643
 20
-50.005
 21
-50.005
  0
LINE
  8
0
 10
-183.643
 11
-183.643
 20
16.662
 21
50.005
  0
LINE
  8
0
 10
-183.643
 11
-175.463
 20
50.005
 21
50.005
  0
LINE
  8
0
 10
-175.463
 11
-175.463
 20
50.005
 21
16.662
  0
LINE
  8
0
 10
-175.463
 11
-183.643
 20
16.662
 21
16.662
  0
LINE
  8
0
 10
-183.643
 11
-183.643
 20
83.328
 21
116.672
  0
LINE
  8
0
 10
-183.643
 11
-175.463
 20
116.672
 21
116.672
  0
LINE
  8
0
 10
-175.463
 11
-175.463
 20
116.672
 21
83.328
  0
LINE
  8
0
 10
-175.463
 11
-183.643
 20
83.328
 21
83.328
  0
LINE
  8
0
 10
-183.643
 11
-183.643
 20
169.64
 21
185.206
  0
LINE
  8
0
 10
-183.643
 11
-175.463
 20
185.206
 21
185.206
  0
LINE
  8
0
 10
-175.463
 11
-175.463
 20
185.206
 21
169.64
  0
LINE
  8
0
 10
-175.463
 11
-183.643
 20
169.64
 21
169.64
  0
LINE
  8
0
 10
-183.643
 11
-183.643
 20
200.751
 21
216.317
  0
LINE
  8
0
 10
-183.643
 11
-175.463
 20
216.317
 21
216.317
  0
LINE
  8
0
 10
-175.463
 11
-175.463
 20
216.317
 21
200.751
  0
LINE
  8
0
 10
-175.463
 11
-183.643
 20
200.751
 21
200.751
  0
LINE
  8
0
 10
-183.643
 11
-183.643
 20
231.862
 21
247.428
  0
LINE
  8
0
 10
-183.643
 11
-175.463
 20
247.428
 21
247.428
  0
LINE
  8
0
 10
-175.463
 11
-175.463
 20
247.428
 21
231.862
  0
LINE
  8
0
 10
-175.463
 11
-183.643
 20
231.862
 21
231.862
  0
LINE
  8
0
 10
-183.643
 11
-183.643
 20
262.973
 21
278.539
  0
LINE
  8
0
 10
-183.643
 11
-175.463
 20
278.539
 21
278.539
  0
LINE
  8
0
 10
-175.463
 11
-175.463
 20
278.539
 21
262.973
  0
LINE
  8
0
 10
-175.463
 11
-183.643
 20
262.973
 21
262.973
  0
LINE
  8
0
 10
175.463
 11
175.463
 20
-278.539
 21
-262.973
  0
LINE
  8
0
 10
175.463
 11
183.643
 20
-262.973
 21
-262.973
  0
LINE
  8
0
 10
183.643
 11
183.643
 20
-262.973
 21
-278.539
  0
LINE
  8
0
 10
183.643
 11
175.463
 20
-278.539
 21
-278.539
  0
LINE
  8
0
 10
175.463
 11
175.463
 20
-247.428
 21
-231.862
  0
LINE
  8
0
 10
175.463
 11
183.643
 20
-231.862
 21
-231.862
  0
LINE
  8
0
 10
183.643
 11
183.643
 20
-231.862
 21
-247.428
  0
LINE
  8
0
 10
183.643
 11
175.463
 20
-247.428
 21
-247.428
  0
LINE
  8
0
 10
175.463
 11
175.463
 20
-216.317
 21
-200.751
  0
LINE
  8
0
 10
175.463
 11
183.643
 20
-200.751
 21
-200.751
  0
LINE
  8
0
 10
183.643
 11
183.643
 20
-200.751
 21
-216.317
  0
LINE
  8
0
 10
183.643
 11
175.463
 20
-216.317
 21
-216.317
  0
LINE
  8
0
 10
175.463
 11
175.463
 20
-185.206
 21
-169.64
  0
LINE
  8
0
 10
175.463
 11
183.643
 20
-169.64
 21
-169.64
  0
LINE
  8
0
 10
183.643
 11
183.643
 20
-169.64
 21
-185.206
  0
LINE
  8
0
 10
183.643
 11
175.463
 20
-185.206
 21
-185.206
  0
LINE
  8
0
 10
175.463
 11
175.463
 20
-116.672
 21
-83.328
  0
LINE
  8
0
 10
175.463
 11
183.643
 20
-83.328
 21
-83.328
  0
LINE
  8
0
 10
183.643
 11
183.643
 20
-83.328
 21
-116.672
  0
LINE
  8
0
 10
183.643
 11
175.463
 20
-116.672
 21
-116.672
  0
LINE
  8
0
 10
175.463
 11
175.463
 20
-50.005
 21
-16.662
  0
LINE
  8
0
 10
175.463
 11
183.643
 20
-16.662
 21
-16.662
  0
LINE
  8
0
 10
183.643
 11
183.643
 20
-16.662
 21
-50.005
  0
LINE
  8
0
 10
183.643
 11
175.463
 20
-50.005
 21
-50.005
  0
LINE
  8
0
 10
175.463
 11
175.463
 20
16.662
 21
50.005
  0
LINE
  8
0
 10
175.463
 11
183.643
 20
50.005
 21
50.005
  0
LINE
  8
0
 10
183.643
 11
183.643
 20
50.005
 21
16.662
  0
LINE
  8
0
 10
183.643
 11
175.463
 20
16.662
 21
16.662
  0
LINE
  8
0
 10
175.463
 11
175.463
 20
83.328
 21
116.672
  0
LINE
  8
0
 10
175.463
 11
183.643
 20
116.672
 21
116.672
  0
LINE
  8
0
 10
183.643
 11
183.643
 20
116.672
 21
83.328
  0
LINE
  8
0
 10
183.643
 11
175.463
 20
83.328
 21
83.328
  0
LINE
  8
0
 10
175.463
 11
175.463
 20
169.64
 21
185.206
  0
LINE
  8
0
 10
175.463
 11
183.643
 20
185.206
 21
185.206
  0
LINE
  8
0
 10
183.643
 11
183.643
 20
185.206
 21
169.64
  0
LINE
  8
0
 10
183.643
 11
175.463
 20
169.64
 21
169.64
  0
LINE
  8
0
 10
175.463
 11
175.463
 20
200.751
 21
216.317
  0
LINE
  8
0
 10
175.463
 11
183.643
 20
216.317
 21
216.317
  0
LINE
  8
0
 10
183.643
 11
183.643
 20
216.317
 21
200.751
  0
LINE
  8
0
 10
183.643
 11
175.463
 20
200.751
 21
200.751
  0
LINE
  8
0
 10
175.463
 11
175.463
 20
231.862
 21
247.428
  0
LINE
  8
0
 10
175.463
 11
183.643
 20
247.428
 21
247.428
  0
LINE
  8
0
 10
183.643
 11
183.643
 20
247.428
 21
231.862
  0
LINE
  8
0
 10
183.643
 11
175.463
 20
231.862
 21
231.862
  0
LINE
  8
0
 10
175.463
 11
175.463
 20
262.973
 21
278.539
  0
LINE
  8
0
 10
175.463
 11
183.643
 20
278.539
 21
278.539
  0
LINE
  8
0
 10
183.643
 11
183.643
 20
278.539
 21
262.973
  0
LINE
  8
0
 10
183.643
 11
175.463
 20
262.973
 21
262.973
  0
LINE
  8
0
 10
204.089
 11
204.089
 20
-141.821
 21
141.821
  0
LINE
  8
0
 10
204.089
 11
219.65
 20
141.821
 21
141.821
  0
LINE
  8
0
 10
219.65
 11
219.65
 20
141.821
 21
150
  0
LINE
  8
0
 10
219.65
 11
235.196
 20
150
 21
150
  0
LINE
  8
0
 10
235.196
 11
235.196
 20
150
 21
141.821
  0
LINE
  8
0
 10
235.196
 11
250.761
 20
141.821
 21
141.821
  0
LINE
  8
0
 10
250.761
 11
250.761
 20
141.821
 21
150
  0
LINE
  8
0
 10
250.761
 11
266.307
 20
150
 21
150
  0
LINE
  8
0
 10
266.307
 11
266.307
 20
150
 21
141.821
  0
LINE
  8
0
 10
266.307
 11
281.872
 20
141.821
 21
141.821
  0
LINE
  8
0
 10
281.872
 11
281.872
 20
141.821
 21
150
  0
LINE
  8
0
 10
281.872
 11
297.418
 20
150
 21
150
  0
LINE
  8
0
 10
297.418
 11
297.418
 20
150
 21
141.821
  0
LINE
  8
0
 10
297.418
 11
312.983
 20
141.821
 21
141.821
  0
LINE
  8
0
 10
312.983
 11
312.983
 20
141.821
 21
150
  0
LINE
  8
0
 10
312.983
 11
328.529
 20
150
 21
150
  0
LINE
  8
0
 10
328.529
 11
328.529
 20
150
 21
141.821
  0
LINE
  8
0
 10
328.529
 11
344.089
 20
141.821
 21
141.821
  0
LINE
  8
0
 10
344.089
 11
344.089
 20
141.821
 21
107.148
  0
LINE
  8
0
 10
344.089
 11
335.91
 20
107.148
 21
107.148
  0
LINE
  8
0
 10
335.91
 11
335.91
 20
107.148
 21
64.281
  0
LINE
  8
0
 10
335.91
 11
344.089
 20
64.281
 21
64.281
  0
LINE
  8
0
 10
344.089
 11
344.089
 20
64.281
 21
21.434
  0
LINE
  8
0
 10
344.089
 11
335.91
 20
21.434
 21
21.434
  0
LINE
  8
0
 10
335.91
 11
335.91
 20
21.434
 21
-21.434
  0
LINE
  8
0
 10
335.91
 11
344.089
 20
-21.434
 21
-21.434
  0
LINE
  8
0
 10
344.089
 11
344.089
 20
-21.434
 21
-64.281
  0
LINE
  8
0
 10
344.089
 11
335.91
 20
-64.281
 21
-64.281
  0
LINE
  8
0
 10
335.91
 11
335.91
 20
-64.281
 21
-107.148
  0
LINE
  8
0
 10
335.91
 11
344.089
 20
-107.148
 21
-107.148
  0
LINE
  8
0
 10
344.089
 11
344.089
 20
-107.148
 21
-141.821
  0
LINE
  8
0
 10
344.089
 11
328.529
 20
-141.821
 21
-141.821
  0
LINE
  8
0
 10
328.529
 11
328.529
 20
-141.821
 21
-150
  0
LINE
  8
0
 10
328.529
 11
312.983
 20
-150
 21
-150
  0
LINE
  8
0
 10
312.983
 11
312.983
 20
-150
 21
-141.821
  0
LINE
  8
0
 10
312.983
 11
297.418
 20
-141.821
 21
-141.821
  0
LINE
  8
0
 10
297.418
 11
297.418
 20
-141.821
 21
-150
  0
LINE
  8
0
 10
297.418
 11
281.872
 20
-150
 21
-150
  0
LINE
  8
0
 10
281.872
 11
281.872
 20
-150
 21
-141.821
  0
LINE
  8
0
 10
281.872
 11
266.307
 20
-141.821
 21
-141.821
  0
LINE
  8
0
 10
266.307
 11
266.307
 20
-141.821
 21
-150
  0
LINE
  8
0
 10
266.307
 11
250.761
 20
-150
 21
-150
  0
LINE
  8
0
 10
250.761
 11
250.761
 20
-150
 21
-141.821
  0
LINE
  8
0
 10
250.761
 11
235.196
 20
-141.821
 21
-141.821
  0
LINE
  8
0
 10
235.196
 11
235.196
 20
-141.821
 21
-150
  0
LINE
  8
0
 10
235.196
 11
219.65
 20
-150
 21
-150
  0
LINE
  8
0
 10
219.65
 11
219.65
 20
-150
 21
-141.821
  0
LINE
  8
0
 10
219.65
 11
204.089
 20
-141.821
 21
-141.821
  0
LINE
  8
0
 10
208.179
 11
208.397
 20
-236.358
 21
-234.278
  0
LINE
  8
0
 10
208.397
 11
209.043
 20
-234.278
 21
-232.29
  0
LINE
  8
0
 10
209.043
 11
210.089
 20
-232.29
 21
-230.48
  0
LINE
  8
0
 10
210.089
 11
211.487
 20
-230.48
 21
-228.926
  0
LINE
  8
0
 10
211.487
 11
213.179
 20
-228.926
 21
-227.697
  0
LINE
  8
0
 10
213.179
 11
215.089
 20
-227.697
 21
-226.847
  0
LINE
  8
0
 10
215.089
 11
217.134
 20
-226.847
 21
-226.412
  0
LINE
  8
0
 10
217.134
 11
219.119
 20
-226.412
 21
-226.412
  0
LINE
  8
0
 10
219.119
 11
221.152
 20
-226.412
 21
-224.106
  0
LINE
  8
0
 10
221.152
 11
223.592
 20
-224.106
 21
-221.666
  0
LINE
  8
0
 10
223.592
 11
226.18
 20
-221.666
 21
-219.384
  0
LINE
  8
0
 10
226.18
 11
228.907
 20
-219.384
 21
-217.269
  0
LINE
  8
0
 10
228.907
 11
231.761
 20
-217.269
 21
-215.33
  0
LINE
  8
0
 10
231.761
 11
234.73
 20
-215.33
 21
-213.573
  0
LINE
  8
0
 10
234.73
 11
237.805
 20
-213.573
 21
-212.007
  0
LINE
  8
0
 10
237.805
 11
240.971
 20
-212.007
 21
-210.636
  0
LINE
  8
0
 10
240.971
 11
244.218
 20
-210.636
 21
-209.468
  0
LINE
  8
0
 10
244.218
 11
247.531
 20
-209.468
 21
-208.505
  0
LINE
  8
0
 10
247.531
 11
250.899
 20
-208.505
 21
-207.752
  0
LINE
  8
0
 10
250.899
 11
254.307
 20
-207.752
 21
-207.213
  0
LINE
  8
0
 10
254.307
 11
257.742
 20
-207.213
 21
-206.888
  0
LINE
  8
0
 10
257.742
 11
261.19
 20
-206.888
 21
-206.78
  0
LINE
  8
0
 10
261.19
 11
264.639
 20
-206.78
 21
-206.888
  0
LINE
  8
0
 10
264.639
 11
268.074
 20
-206.888
 21
-207.213
  0
LINE
  8
0
 10
268.074
 11
271.482
 20
-207.213
 21
-207.752
  0
LINE
  8
0
 10
271.482
 11
274.85
 20
-207.752
 21
-208.505
  0
LINE
  8
0
 10
274.85
 11
278.163
 20
-208.505
 21
-209.468
  0
LINE
  8
0
 10
278.163
 11
281.409
 20
-209.468
 21
-210.636
  0
LINE
  8
0
 10
281.409
 11
284.576
 20
-210.636
 21
-212.007
  0
LINE
  8
0
 10
284.576
 11
287.65
 20
-212.007
 21
-213.573
  0
LINE
  8
0
 10
287.65
 11
290.62
 20
-213.573
 21
-215.33
  0
LINE
  8
0
 10
290.62
 11
293.474
 20
-215.33
 21
-217.269
  0
LINE
  8
0
 10
293.474
 11
296.2
 20
-217.269
 21
-219.384
  0
LINE
  8
0
 10
296.2
 11
298.789
 20
-219.384
 21
-221.666
  0
LINE
  8
0
 10
298.789
 11
301.228
 20
-221.666
 21
-224.106
  0
LINE
  8
0
 10
301.228
 11
303.262
 20
-224.106
 21
-226.412
  0
LINE
  8
0
 10
303.262
 11
305.247
 20
-226.412
 21
-226.412
  0
LINE
  8
0
 10
305.247
 11
307.292
 20
-226.412
 21
-226.847
  0
LINE
  8
0
 10
307.292
 11
309.202
 20
-226.847
 21
-227.697
  0
LINE
  8
0
 10
309.202
 11
310.893
 20
-227.697
 21
-228.926
  0
LINE
  8
0
 10
310.893
 11
312.292
 20
-228.926
 21
-230.48
  0
LINE
  8
0
 10
312.292
 11
313.338
 20
-230.48
 21
-232.29
  0
LINE
  8
0
 10
313.338
 11
313.984
 20
-232.29
 21
-234.278
  0
LINE
  8
0
 10
313.984
 11
314.202
 20
-234.278
 21
-236.358
  0
LINE
  8
0
 10
314.202
 11
313.984
 20
-236.358
 21
-238.437
  0
LINE
  8
0
 10
313.984
 11
313.338
 20
-238.437
 21
-240.425
  0
LINE
  8
0
 10
313.338
 11
312.292
 20
-240.425
 21
-242.235
  0
LINE
  8
0
 10
312.292
 11
310.893
 20
-242.235
 21
-243.789
  0
LINE
  8
0
 10
310.893
 11
309.202
 20
-243.789
 21
-245.018
  0
LINE
  8
0
 10
309.202
 11
307.292
 20
-245.018
 21
-245.868
  0
LINE
  8
0
 10
307.292
 11
305.247
 20
-245.868
 21
-246.303
  0
LINE
  8
0
 10
305.247
 11
303.157
 20
-246.303
 21
-246.303
  0
LINE
  8
0
 10
303.157
 11
301.112
 20
-246.303
 21
-245.868
  0
LINE
  8
0
 10
301.112
 11
299.202
 20
-245.868
 21
-245.018
  0
LINE
  8
0
 10
299.202
 11
297.511
 20
-245.018
 21
-243.789
  0
LINE
  8
0
 10
297.511
 11
296.112
 20
-243.789
 21
-242.235
  0
LINE
  8
0
 10
296.112
 11
295.067
 20
-242.235
 21
-240.425
  0
LINE
  8
0
 10
295.067
 11
294.421
 20
-240.425
 21
-238.437
  0
LINE
  8
0
 10
294.421
 11
294.202
 20
-238.437
 21
-236.358
  0
LINE
  8
0
 10
294.202
 11
294.421
 20
-236.358
 21
-234.278
  0
LINE
  8
0
 10
294.421
 11
295.067
 20
-234.278
 21
-232.29
  0
LINE
  8
0
 10
295.067
 11
295.088
 20
-232.29
 21
-232.254
  0
LINE
  8
0
 10
295.088
 11
293.939
 20
-232.254
 21
-230.951
  0
LINE
  8
0
 10
293.939
 11
291.943
 20
-230.951
 21
-228.955
  0
LINE
  8
0
 10
291.943
 11
289.826
 20
-228.955
 21
-227.089
  0
LINE
  8
0
 10
289.826
 11
287.596
 20
-227.089
 21
-225.359
  0
LINE
  8
0
 10
287.596
 11
285.262
 20
-225.359
 21
-223.773
  0
LINE
  8
0
 10
285.262
 11
282.833
 20
-223.773
 21
-222.336
  0
LINE
  8
0
 10
282.833
 11
280.318
 20
-222.336
 21
-221.055
  0
LINE
  8
0
 10
280.318
 11
277.728
 20
-221.055
 21
-219.934
  0
LINE
  8
0
 10
277.728
 11
275.073
 20
-219.934
 21
-218.978
  0
LINE
  8
0
 10
275.073
 11
272.363
 20
-218.978
 21
-218.191
  0
LINE
  8
0
 10
272.363
 11
269.608
 20
-218.191
 21
-217.575
  0
LINE
  8
0
 10
269.608
 11
266.821
 20
-217.575
 21
-217.134
  0
LINE
  8
0
 10
266.821
 11
264.011
 20
-217.134
 21
-216.868
  0
LINE
  8
0
 10
264.011
 11
261.19
 20
-216.868
 21
-216.78
  0
LINE
  8
0
 10
261.19
 11
258.37
 20
-216.78
 21
-216.868
  0
LINE
  8
0
 10
258.37
 11
255.56
 20
-216.868
 21
-217.134
  0
LINE
  8
0
 10
255.56
 11
252.772
 20
-217.134
 21
-217.575
  0
LINE
  8
0
 10
252.772
 11
250.018
 20
-217.575
 21
-218.191
  0
LINE
  8
0
 10
250.018
 11
247.308
 20
-218.191
 21
-218.978
  0
LINE
  8
0
 10
247.308
 11
244.653
 20
-218.978
 21
-219.934
  0
LINE
  8
0
 10
244.653
 11
242.063
 20
-219.934
 21
-221.055
  0
LINE
  8
0
 10
242.063
 11
239.548
 20
-221.055
 21
-222.336
  0
LINE
  8
0
 10
239.548
 11
237.119
 20
-222.336
 21
-223.773
  0
LINE
  8
0
 10
237.119
 11
234.785
 20
-223.773
 21
-225.359
  0
LINE
  8
0
 10
234.785
 11
232.555
 20
-225.359
 21
-227.089
  0
LINE
  8
0
 10
232.555
 11
230.438
 20
-227.089
 21
-228.955
  0
LINE
  8
0
 10
230.438
 11
228.442
 20
-228.955
 21
-230.951
  0
LINE
  8
0
 10
228.442
 11
227.293
 20
-230.951
 21
-232.254
  0
LINE
  8
0
 10
227.293
 11
227.314
 20
-232.254
 21
-232.29
  0
LINE
  8
0
 10
227.314
 11
227.96
 20
-232.29
 21
-234.278
  0
LINE
  8
0
 10
227.96
 11
228.179
 20
-234.278
 21
-236.358
  0
LINE
  8
0
 10
228.179
 11
227.96
 20
-236.358
 21
-238.437
  0
LINE
  8
0
 10
227.96
 11
227.314
 20
-238.437
 21
-240.425
  0
LINE
  8
0
 10
227.314
 11
226.269
 20
-240.425
 21
-242.235
  0
LINE
  8
0
 10
226.269
 11
224.87
 20
-242.235
 21
-243.789
  0
LINE
  8
0
 10
224.87
 11
223.179
 20
-243.789
 21
-245.018
  0
LINE
  8
0
 10
223.179
 11
221.269
 20
-245.018
 21
-245.868
  0
LINE
  8
0
 10
221.269
 11
219.224
 20
-245.868
 21
-246.303
  0
LINE
  8
0
 10
219.224
 11
217.134
 20
-246.303
 21
-246.303
  0
LINE
  8
0
 10
217.134
 11
215.089
 20
-246.303
 21
-245.868
  0
LINE
  8
0
 10
215.089
 11
213.179
 20
-245.868
 21
-245.018
  0
LINE
  8
0
 10
213.179
 11
211.487
 20
-245.018
 21
-243.789
  0
LINE
  8
0
 10
211.487
 11
210.089
 20
-243.789
 21
-242.235
  0
LINE
  8
0
 10
210.089
 11
209.043
 20
-242.235
 21
-240.425
  0
LINE
  8
0
 10
209.043
 11
208.397
 20
-240.425
 21
-238.437
  0
LINE
  8
0
 10
208.397
 11
208.179
 20
-238.437
 21
-236.358
  0
LINE
  8
0
 10
208.179
 11
208.397
 20
-206.358
 21
-204.278
  0
LINE
  8
0
 10
208.397
 11
209.043
 20
-204.278
 21
-202.29
  0
LINE
  8
0
 10
209.043
 11
210.089
 20
-202.29
 21
-200.48
  0
LINE
  8
0
 10
210.089
 11
211.487
 20
-200.48
 21
-198.926
  0
LINE
  8
0
 10
211.487
 11
213.179
 20
-198.926
 21
-197.697
  0
LINE
  8
0
 10
213.179
 11
215.089
 20
-197.697
 21
-196.847
  0
LINE
  8
0
 10
215.089
 11
217.134
 20
-196.847
 21
-196.412
  0
LINE
  8
0
 10
217.134
 11
219.119
 20
-196.412
 21
-196.412
  0
LINE
  8
0
 10
219.119
 11
221.152
 20
-196.412
 21
-194.106
  0
LINE
  8
0
 10
221.152
 11
223.592
 20
-194.106
 21
-191.666
  0
LINE
  8
0
 10
223.592
 11
226.18
 20
-191.666
 21
-189.384
  0
LINE
  8
0
 10
226.18
 11
228.907
 20
-189.384
 21
-187.269
  0
LINE
  8
0
 10
228.907
 11
231.761
 20
-187.269
 21
-185.33
  0
LINE
  8
0
 10
231.761
 11
234.73
 20
-185.33
 21
-183.573
  0
LINE
  8
0
 10
234.73
 11
237.805
 20
-183.573
 21
-182.007
  0
LINE
  8
0
 10
237.805
 11
240.971
 20
-182.007
 21
-180.636
  0
LINE
  8
0
 10
240.971
 11
244.218
 20
-180.636
 21
-179.468
  0
LINE
  8
0
 10
244.218
 11
247.531
 20
-179.468
 21
-178.505
  0
LINE
  8
0
 10
247.531
 11
250.899
 20
-178.505
 21
-177.752
  0
LINE
  8
0
 10
250.899
 11
254.307
 20
-177.752
 21
-177.213
  0
LINE
  8
0
 10
254.307
 11
257.742
 20
-177.213
 21
-176.888
  0
LINE
  8
0
 10
257.742
 11
261.19
 20
-176.888
 21
-176.78
  0
LINE
  8
0
 10
261.19
 11
264.639
 20
-176.78
 21
-176.888
  0
LINE
  8
0
 10
264.639
 11
268.074
 20
-176.888
 21
-177.213
  0
LINE
  8
0
 10
268.074
 11
271.482
 20
-177.213
 21
-177.752
  0
LINE
  8
0
 10
271.482
 11
274.85
 20
-177.752
 21
-178.505
  0
LINE
  8
0
 10
274.85
 11
278.163
 20
-178.505
 21
-179.468
  0
LINE
  8
0
 10
278.163
 11
281.409
 20
-179.468
 21
-180.636
  0
LINE
  8
0
 10
281.409
 11
284.576
 20
-180.636
 21
-182.007
  0
LINE
  8
0
 10
284.576
 11
287.65
 20
-182.007
 21
-183.573
  0
LINE
  8
0
 10
287.65
 11
290.62
 20
-183.573
 21
-185.33
  0
LINE
  8
0
 10
290.62
 11
293.474
 20
-185.33
 21
-187.269
  0
LINE
  8
0
 10
293.474
 11
296.2
 20
-187.269
 21
-189.384
  0
LINE
  8
0
 10
296.2
 11
298.789
 20
-189.384
 21
-191.666
  0
LINE
  8
0
 10
298.789
 11
301.228
 20
-191.666
 21
-194.106
  0
LINE
  8
0
 10
301.228
 11
303.262
 20
-194.106
 21
-196.412
  0
LINE
  8
0
 10
303.262
 11
305.247
 20
-196.412
 21
-196.412
  0
LINE
  8
0
 10
305.247
 11
307.292
 20
-196.412
 21
-196.847
  0
LINE
  8
0
 10
307.292
 11
309.202
 20
-196.847
 21
-197.697
  0
LINE
  8
0
 10
309.202
 11
310.893
 20
-197.697
 21
-198.926
  0
LINE
  8
0
 10
310.893
 11
312.292
 20
-198.926
 21
-200.48
  0
LINE
  8
0
 10
312.292
 11
313.338
 20
-200.48
 21
-202.29
  0
LINE
  8
0
 10
313.338
 11
313.984
 20
-202.29
 21
-204.278
  0
LINE
  8
0
 10
313.984
 11
314.202
 20
-204.278
 21
-206.358
  0
LINE
  8
0
 10
314.202
 11
313.984
 20
-206.358
 21
-208.437
  0
LINE
  8
0
 10
313.984
 11
313.338
 20
-208.437
 21
-210.425
  0
LINE
  8
0
 10
313.338
 11
312.292
 20
-210.425
 21
-212.235
  0
LINE
  8
0
 10
312.292
 11
310.893
 20
-212.235
 21
-213.789
  0
LINE
  8
0
 10
310.893
 11
309.202
 20
-213.789
 21
-215.018
  0
LINE
  8
0
 10
309.202
 11
307.292
 20
-215.018
 21
-215.868
  0
LINE
  8
0
 10
307.292
 11
305.247
 20
-215.868
 21
-216.303
  0
LINE
  8
0
 10
305.247
 11
303.157
 20
-216.303
 21
-216.303
  0
LINE
  8
0
 10
303.157
 11
301.112
 20
-216.303
 21
-215.868
  0
LINE
  8
0
 10
301.112
 11
299.202
 20
-215.868
 21
-215.018
  0
LINE
  8
0
 10
299.202
 11
297.511
 20
-215.018
 21
-213.789
  0
LINE
  8
0
 10
297.511
 11
296.112
 20
-213.789
 21
-212.235
  0
LINE
  8
0
 10
296.112
 11
295.067
 20
-212.235
 21
-210.425
  0
LINE
  8
0
 10
295.067
 11
294.421
 20
-210.425
 21
-208.437
  0
LINE
  8
0
 10
294.421
 11
294.202
 20
-208.437
 21
-206.358
  0
LINE
  8
0
 10
294.202
 11
294.421
 20
-206.358
 21
-204.278
  0
LINE
  8
0
 10
294.421
 11
295.067
 20
-204.278
 21
-202.29
  0
LINE
  8
0
 10
295.067
 11
295.088
 20
-202.29
 21
-202.254
  0
LINE
  8
0
 10
295.088
 11
293.939
 20
-202.254
 21
-200.951
  0
LINE
  8
0
 10
293.939
 11
291.943
 20
-200.951
 21
-198.955
  0
LINE
  8
0
 10
291.943
 11
289.826
 20
-198.955
 21
-197.089
  0
LINE
  8
0
 10
289.826
 11
287.596
 20
-197.089
 21
-195.359
  0
LINE
  8
0
 10
287.596
 11
285.262
 20
-195.359
 21
-193.773
  0
LINE
  8
0
 10
285.262
 11
282.833
 20
-193.773
 21
-192.336
  0
LINE
  8
0
 10
282.833
 11
280.318
 20
-192.336
 21
-191.055
  0
LINE
  8
0
 10
280.318
 11
277.728
 20
-191.055
 21
-189.934
  0
LINE
  8
0
 10
277.728
 11
275.073
 20
-189.934
 21
-188.978
  0
LINE
  8
0
 10
275.073
 11
272.363
 20
-188.978
 21
-188.191
  0
LINE
  8
0
 10
272.363
 11
269.608
 20
-188.191
 21
-187.575
  0
LINE
  8
0
 10
269.608
 11
266.821
 20
-187.575
 21
-187.134
  0
LINE
  8
0
 10
266.821
 11
264.011
 20
-187.134
 21
-186.868
  0
LINE
  8
0
 10
264.011
 11
261.19
 20
-186.868
 21
-186.78
  0
LINE
  8
0
 10
261.19
 11
258.37
 20
-186.78
 21
-186.868
  0
LINE
  8
0
 10
258.37
 11
255.56
 20
-186.868
 21
-187.134
  0
LINE
  8
0
 10
255.56
 11
252.772
 20
-187.134
 21
-187.575
  0
LINE
  8
0
 10
252.772
 11
250.018
 20
-187.575
 21
-188.191
  0
LINE
  8
0
 10
250.018
 11
247.308
 20
-188.191
 21
-188.978
  0
LINE
  8
0
 10
247.308
 11
244.653
 20
-188.978
 21
-189.934
  0
LINE
  8
0
 10
244.653
 11
242.063
 20
-189.934
 21
-191.055
  0
LINE
  8
0
 10
242.063
 11
239.548
 20
-191.055
 21
-192.336
  0
LINE
  8
0
 10
239.548
 11
237.119
 20
-192.336
 21
-193.773
  0
LINE
  8
0
 10
237.119
 11
234.785
 20
-193.773
 21
-195.359
  0
LINE
  8
0
 10
234.785
 11
232.555
 20
-195.359
 21
-197.089
  0
LINE
  8
0
 10
232.555
 11
230.438
 20
-197.089
 21
-198.955
  0
LINE
  8
0
 10
230.438
 11
228.442
 20
-198.955
 21
-200.951
  0
LINE
  8
0
 10
228.442
 11
227.293
 20
-200.951
 21
-202.254
  0
LINE
  8
0
 10
227.293
 11
227.314
 20
-202.254
 21
-202.29
  0
LINE
  8
0
 10
227.314
 11
227.96
 20
-202.29
 21
-204.278
  0
LINE
  8
0
 10
227.96
 11
228.179
 20
-204.278
 21
-206.358
  0
LINE
  8
0
 10
228.179
 11
227.96
 20
-206.358
 21
-208.437
  0
LINE
  8
0
 10
227.96
 11
227.314
 20
-208.437
 21
-210.425
  0
LINE
  8
0
 10
227.314
 11
226.269
 20
-210.425
 21
-212.235
  0
LINE
  8
0
 10
226.269
 11
224.87
 20
-212.235
 21
-213.789
  0
LINE
  8
0
 10
224.87
 11
223.179
 20
-213.789
 21
-215.018
  0
LINE
  8
0
 10
223.179
 11
221.269
 20
-215.018
 21
-215.868
  0
LINE
  8
0
 10
221.269
 11
219.224
 20
-215.868
 21
-216.303
  0
LINE
  8
0
 10
219.224
 11
217.134
 20
-216.303
 21
-216.303
  0
LINE
  8
0
 10
217.134
 11
215.089
 20
-216.303
 21
-215.868
  0
LINE
  8
0
 10
215.089
 11
213.179
 20
-215.868
 21
-215.018
  0
LINE
  8
0
 10
213.179
 11
211.487
 20
-215.018
 21
-213.789
  0
LINE
  8
0
 10
211.487
 11
210.089
 20
-213.789
 21
-212.235
  0
LINE
  8
0
 10
210.089
 11
209.043
 20
-212.235
 21
-210.425
  0
LINE
  8
0
 10
209.043
 11
208.397
 20
-210.425
 21
-208.437
  0
LINE
  8
0
 10
208.397
 11
208.179
 20
-208.437
 21
-206.358
  0
LINE
  8
0
 10
208.179
 11
208.397
 20
168.179
 21
170.258
  0
LINE
  8
0
 10
208.397
 11
209.043
 20
170.258
 21
172.246
  0
LINE
  8
0
 10
209.043
 11
210.089
 20
172.246
 21
174.057
  0
LINE
  8
0
 10
210.089
 11
211.487
 20
174.057
 21
175.61
  0
LINE
  8
0
 10
211.487
 11
213.179
 20
175.61
 21
176.839
  0
LINE
  8
0
 10
213.179
 11
215.089
 20
176.839
 21
177.689
  0
LINE
  8
0
 10
215.089
 11
217.134
 20
177.689
 21
178.124
  0
LINE
  8
0
 10
217.134
 11
218.688
 20
178.124
 21
178.124
  0
LINE
  8
0
 10
218.688
 11
219.828
 20
178.124
 21
179.801
  0
LINE
  8
0
 10
219.828
 11
224.195
 20
179.801
 21
185.431
  0
LINE
  8
0
 10
224.195
 11
228.907
 20
185.431
 21
190.776
  0
LINE
  8
0
 10
228.907
 11
233.945
 20
190.776
 21
195.814
  0
LINE
  8
0
 10
233.945
 11
239.29
 20
195.814
 21
200.526
  0
LINE
  8
0
 10
239.29
 11
244.92
 20
200.526
 21
204.893
  0
LINE
  8
0
 10
244.92
 11
250.813
 20
204.893
 21
208.898
  0
LINE
  8
0
 10
250.813
 11
256.946
 20
208.898
 21
212.525
  0
LINE
  8
0
 10
256.946
 11
263.295
 20
212.525
 21
215.76
  0
LINE
  8
0
 10
263.295
 11
269.834
 20
215.76
 21
218.59
  0
LINE
  8
0
 10
269.834
 11
276.538
 20
218.59
 21
221.003
  0
LINE
  8
0
 10
276.538
 11
283.38
 20
221.003
 21
222.991
  0
LINE
  8
0
 10
283.38
 11
290.334
 20
222.991
 21
224.546
  0
LINE
  8
0
 10
290.334
 11
297.371
 20
224.546
 21
225.66
  0
LINE
  8
0
 10
297.371
 11
304.465
 20
225.66
 21
226.331
  0
LINE
  8
0
 10
304.465
 11
311.587
 20
226.331
 21
226.555
  0
LINE
  8
0
 10
311.587
 11
318.708
 20
226.555
 21
226.331
  0
LINE
  8
0
 10
318.708
 11
325.802
 20
226.331
 21
225.66
  0
LINE
  8
0
 10
325.802
 11
332.839
 20
225.66
 21
224.546
  0
LINE
  8
0
 10
332.839
 11
339.793
 20
224.546
 21
222.991
  0
LINE
  8
0
 10
339.793
 11
346.635
 20
222.991
 21
221.003
  0
LINE
  8
0
 10
346.635
 11
353.339
 20
221.003
 21
218.59
  0
LINE
  8
0
 10
353.339
 11
359.878
 20
218.59
 21
215.76
  0
LINE
  8
0
 10
359.878
 11
366.227
 20
215.76
 21
212.525
  0
LINE
  8
0
 10
366.227
 11
372.36
 20
212.525
 21
208.898
  0
LINE
  8
0
 10
372.36
 11
378.253
 20
208.898
 21
204.893
  0
LINE
  8
0
 10
378.253
 11
383.883
 20
204.893
 21
200.526
  0
LINE
  8
0
 10
383.883
 11
389.228
 20
200.526
 21
195.814
  0
LINE
  8
0
 10
389.228
 11
394.266
 20
195.814
 21
190.776
  0
LINE
  8
0
 10
394.266
 11
398.978
 20
190.776
 21
185.431
  0
LINE
  8
0
 10
398.978
 11
403.345
 20
185.431
 21
179.801
  0
LINE
  8
0
 10
403.345
 11
404.485
 20
179.801
 21
178.124
  0
LINE
  8
0
 10
404.485
 11
406.04
 20
178.124
 21
178.124
  0
LINE
  8
0
 10
406.04
 11
408.084
 20
178.124
 21
177.689
  0
LINE
  8
0
 10
408.084
 11
409.994
 20
177.689
 21
176.839
  0
LINE
  8
0
 10
409.994
 11
411.686
 20
176.839
 21
175.61
  0
LINE
  8
0
 10
411.686
 11
413.084
 20
175.61
 21
174.057
  0
LINE
  8
0
 10
413.084
 11
414.13
 20
174.057
 21
172.246
  0
LINE
  8
0
 10
414.13
 11
414.776
 20
172.246
 21
170.258
  0
LINE
  8
0
 10
414.776
 11
414.994
 20
170.258
 21
168.179
  0
LINE
  8
0
 10
414.994
 11
414.776
 20
168.179
 21
166.1
  0
LINE
  8
0
 10
414.776
 11
414.13
 20
166.1
 21
164.111
  0
LINE
  8
0
 10
414.13
 11
413.084
 20
164.111
 21
162.301
  0
LINE
  8
0
 10
413.084
 11
411.686
 20
162.301
 21
160.747
  0
LINE
  8
0
 10
411.686
 11
409.994
 20
160.747
 21
159.519
  0
LINE
  8
0
 10
409.994
 11
408.084
 20
159.519
 21
158.668
  0
LINE
  8
0
 10
408.084
 11
406.04
 20
158.668
 21
158.234
  0
LINE
  8
0
 10
406.04
 11
403.949
 20
158.234
 21
158.234
  0
LINE
  8
0
 10
403.949
 11
401.904
 20
158.234
 21
158.668
  0
LINE
  8
0
 10
401.904
 11
399.994
 20
158.668
 21
159.519
  0
LINE
  8
0
 10
399.994
 11
398.303
 20
159.519
 21
160.747
  0
LINE
  8
0
 10
398.303
 11
396.904
 20
160.747
 21
162.301
  0
LINE
  8
0
 10
396.904
 11
395.859
 20
162.301
 21
164.111
  0
LINE
  8
0
 10
395.859
 11
395.213
 20
164.111
 21
166.1
  0
LINE
  8
0
 10
395.213
 11
394.994
 20
166.1
 21
168.179
  0
LINE
  8
0
 10
394.994
 11
395.213
 20
168.179
 21
170.258
  0
LINE
  8
0
 10
395.213
 11
395.859
 20
170.258
 21
172.246
  0
LINE
  8
0
 10
395.859
 11
396.105
 20
172.246
 21
172.673
  0
LINE
  8
0
 10
396.105
 11
395.255
 20
172.673
 21
173.924
  0
LINE
  8
0
 10
395.255
 11
391.273
 20
173.924
 21
179.057
  0
LINE
  8
0
 10
391.273
 11
386.976
 20
179.057
 21
183.931
  0
LINE
  8
0
 10
386.976
 11
382.382
 20
183.931
 21
188.525
  0
LINE
  8
0
 10
382.382
 11
377.509
 20
188.525
 21
192.821
  0
LINE
  8
0
 10
377.509
 11
372.375
 20
192.821
 21
196.803
  0
LINE
  8
0
 10
372.375
 11
367.002
 20
196.803
 21
200.455
  0
LINE
  8
0
 10
367.002
 11
361.409
 20
200.455
 21
203.762
  0
LINE
  8
0
 10
361.409
 11
355.62
 20
203.762
 21
206.712
  0
LINE
  8
0
 10
355.62
 11
349.658
 20
206.712
 21
209.292
  0
LINE
  8
0
 10
349.658
 11
343.545
 20
209.292
 21
211.493
  0
LINE
  8
0
 10
343.545
 11
337.306
 20
211.493
 21
213.306
  0
LINE
  8
0
 10
337.306
 11
330.965
 20
213.306
 21
214.723
  0
LINE
  8
0
 10
330.965
 11
324.548
 20
214.723
 21
215.739
  0
LINE
  8
0
 10
324.548
 11
318.08
 20
215.739
 21
216.351
  0
LINE
  8
0
 10
318.08
 11
311.587
 20
216.351
 21
216.555
  0
LINE
  8
0
 10
311.587
 11
305.093
 20
216.555
 21
216.351
  0
LINE
  8
0
 10
305.093
 11
298.625
 20
216.351
 21
215.739
  0
LINE
  8
0
 10
298.625
 11
292.208
 20
215.739
 21
214.723
  0
LINE
  8
0
 10
292.208
 11
285.867
 20
214.723
 21
213.306
  0
LINE
  8
0
 10
285.867
 11
279.628
 20
213.306
 21
211.493
  0
LINE
  8
0
 10
279.628
 11
273.515
 20
211.493
 21
209.292
  0
LINE
  8
0
 10
273.515
 11
267.553
 20
209.292
 21
206.712
  0
LINE
  8
0
 10
267.553
 11
261.764
 20
206.712
 21
203.762
  0
LINE
  8
0
 10
261.764
 11
256.171
 20
203.762
 21
200.455
  0
LINE
  8
0
 10
256.171
 11
250.798
 20
200.455
 21
196.803
  0
LINE
  8
0
 10
250.798
 11
245.664
 20
196.803
 21
192.821
  0
LINE
  8
0
 10
245.664
 11
240.791
 20
192.821
 21
188.525
  0
LINE
  8
0
 10
240.791
 11
236.197
 20
188.525
 21
183.931
  0
LINE
  8
0
 10
236.197
 11
231.9
 20
183.931
 21
179.057
  0
LINE
  8
0
 10
231.9
 11
227.918
 20
179.057
 21
173.924
  0
LINE
  8
0
 10
227.918
 11
227.068
 20
173.924
 21
172.673
  0
LINE
  8
0
 10
227.068
 11
227.314
 20
172.673
 21
172.246
  0
LINE
  8
0
 10
227.314
 11
227.96
 20
172.246
 21
170.258
  0
LINE
  8
0
 10
227.96
 11
228.179
 20
170.258
 21
168.179
  0
LINE
  8
0
 10
228.179
 11
227.96
 20
168.179
 21
166.1
  0
LINE
  8
0
 10
227.96
 11
227.314
 20
166.1
 21
164.111
  0
LINE
  8
0
 10
227.314
 11
226.269
 20
164.111
 21
162.301
  0
LINE
  8
0
 10
226.269
 11
224.87
 20
162.301
 21
160.747
  0
LINE
  8
0
 10
224.87
 11
223.179
 20
160.747
 21
159.519
  0
LINE
  8
0
 10
223.179
 11
221.269
 20
159.519
 21
158.668
  0
LINE
  8
0
 10
221.269
 11
219.224
 20
158.668
 21
158.234
  0
LINE
  8
0
 10
219.224
 11
217.134
 20
158.234
 21
158.234
  0
LINE
  8
0
 10
217.134
 11
215.089
 20
158.234
 21
158.668
  0
LINE
  8
0
 10
215.089
 11
213.179
 20
158.668
 21
159.519
  0
LINE
  8
0
 10
213.179
 11
211.487
 20
159.519
 21
160.747
  0
LINE
  8
0
 10
211.487
 11
210.089
 20
160.747
 21
162.301
  0
LINE
  8
0
 10
210.089
 11
209.043
 20
162.301
 21
164.111
  0
LINE
  8
0
 10
209.043
 11
208.397
 20
164.111
 21
166.1
  0
LINE
  8
0
 10
208.397
 11
208.179
 20
166.1
 21
168.179
  0
LINE
  8
0
 10
208.179
 11
208.397
 20
206.358
 21
208.437
  0
LINE
  8
0
 10
208.397
 11
209.043
 20
208.437
 21
210.425
  0
LINE
  8
0
 10
209.043
 11
210.089
 20
210.425
 21
212.235
  0
LINE
  8
0
 10
210.089
 11
211.487
 20
212.235
 21
213.789
  0
LINE
  8
0
 10
211.487
 11
213.179
 20
213.789
 21
215.018
  0
LINE
  8
0
 10
213.179
 11
215.089
 20
215.018
 21
215.868
  0
LINE
  8
0
 10
215.089
 11
217.134
 20
215.868
 21
216.303
  0
LINE
  8
0
 10
217.134
 11
218.688
 20
216.303
 21
216.303
  0
LINE
  8
0
 10
218.688
 11
219.828
 20
216.303
 21
217.98
  0
LINE
  8
0
 10
219.828
 11
224.195
 20
217.98
 21
223.61
  0
LINE
  8
0
 10
224.195
 11
228.907
 20
223.61
 21
228.955
  0
LINE
  8
0
 10
228.907
 11
233.945
 20
228.955
 21
233.993
  0
LINE
  8
0
 10
233.945
 11
239.29
 20
233.993
 21
238.705
  0
LINE
  8
0
 10
239.29
 11
244.92
 20
238.705
 21
243.072
  0
LINE
  8
0
 10
244.92
 11
250.813
 20
243.072
 21
247.077
  0
LINE
  8
0
 10
250.813
 11
256.946
 20
247.077
 21
250.704
  0
LINE
  8
0
 10
256.946
 11
263.295
 20
250.704
 21
253.939
  0
LINE
  8
0
 10
263.295
 11
269.834
 20
253.939
 21
256.769
  0
LINE
  8
0
 10
269.834
 11
276.538
 20
256.769
 21
259.182
  0
LINE
  8
0
 10
276.538
 11
283.38
 20
259.182
 21
261.17
  0
LINE
  8
0
 10
283.38
 11
290.334
 20
261.17
 21
262.724
  0
LINE
  8
0
 10
290.334
 11
297.371
 20
262.724
 21
263.839
  0
LINE
  8
0
 10
297.371
 11
304.465
 20
263.839
 21
264.51
  0
LINE
  8
0
 10
304.465
 11
311.587
 20
264.51
 21
264.733
  0
LINE
  8
0
 10
311.587
 11
318.708
 20
264.733
 21
264.51
  0
LINE
  8
0
 10
318.708
 11
325.802
 20
264.51
 21
263.839
  0
LINE
  8
0
 10
325.802
 11
332.839
 20
263.839
 21
262.724
  0
LINE
  8
0
 10
332.839
 11
339.793
 20
262.724
 21
261.17
  0
LINE
  8
0
 10
339.793
 11
346.635
 20
261.17
 21
259.182
  0
LINE
  8
0
 10
346.635
 11
353.339
 20
259.182
 21
256.769
  0
LINE
  8
0
 10
353.339
 11
359.878
 20
256.769
 21
253.939
  0
LINE
  8
0
 10
359.878
 11
366.227
 20
253.939
 21
250.704
  0
LINE
  8
0
 10
366.227
 11
372.36
 20
250.704
 21
247.077
  0
LINE
  8
0
 10
372.36
 11
378.253
 20
247.077
 21
243.072
  0
LINE
  8
0
 10
378.253
 11
383.883
 20
243.072
 21
238.705
  0
LINE
  8
0
 10
383.883
 11
389.228
 20
238.705
 21
233.993
  0
LINE
  8
0
 10
389.228
 11
394.266
 20
233.993
 21
228.955
  0
LINE
  8
0
 10
394.266
 11
398.978
 20
228.955
 21
223.61
  0
LINE
  8
0
 10
398.978
 11
403.345
 20
223.61
 21
217.98
  0
LINE
  8
0
 10
403.345
 11
404.485
 20
217.98
 21
216.303
  0
LINE
  8
0
 10
404.485
 11
406.04
 20
216.303
 21
216.303
  0
LINE
  8
0
 10
406.04
 11
408.084
 20
216.303
 21
215.868
  0
LINE
  8
0
 10
408.084
 11
409.994
 20
215.868
 21
215.018
  0
LINE
  8
0
 10
409.994
 11
411.686
 20
215.018
 21
213.789
  0
LINE
  8
0
 10
411.686
 11
413.084
 20
213.789
 21
212.235
  0
LINE
  8
0
 10
413.084
 11
414.13
 20
212.235
 21
210.425
  0
LINE
  8
0
 10
414.13
 11
414.776
 20
210.425
 21
208.437
  0
LINE
  8
0
 10
414.776
 11
414.994
 20
208.437
 21
206.358
  0
LINE
  8
0
 10
414.994
 11
414.776
 20
206.358
 21
204.278
  0
LINE
  8
0
 10
414.776
 11
414.13
 20
204.278
 21
202.29
  0
LINE
  8
0
 10
414.13
 11
413.084
 20
202.29
 21
200.48
  0
LINE
  8
0
 10
413.084
 11
411.686
 20
200.48
 21
198.926
  0
LINE
  8
0
 10
411.686
 11
409.994
 20
198.926
 21
197.697
  0
LINE
  8
0
 10
409.994
 11
408.084
 20
197.697
 21
196.847
  0
LINE
  8
0
 10
408.084
 11
406.04
 20
196.847
 21
196.412
  0
LINE
  8
0
 10
406.04
 11
403.949
 20
196.412
 21
196.412
  0
LINE
  8
0
 10
403.949
 11
401.904
 20
196.412
 21
196.847
  0
LINE
  8
0
 10
401.904
 11
399.994
 20
196.847
 21
197.697
  0
LINE
  8
0
 10
399.994
 11
398.303
 20
197.697
 21
198.926
  0
LINE
  8
0
 10
398.303
 11
396.904
 20
198.926
 21
200.48
  0
LINE
  8
0
 10
396.904
 11
395.859
 20
200.48
 21
202.29
  0
LINE
  8
0
 10
395.859
 11
395.213
 20
202.29
 21
204.278
  0
LINE
  8
0
 10
395.213
 11
394.994
 20
204.278
 21
206.358
  0
LINE
  8
0
 10
394.994
 11
395.213
 20
206.358
 21
208.437
  0
LINE
  8
0
 10
395.213
 11
395.859
 20
208.437
 21
210.425
  0
LINE
  8
0
 10
395.859
 11
396.105
 20
210.425
 21
210.851
  0
LINE
  8
0
 10
396.105
 11
395.255
 20
210.851
 21
212.102
  0
LINE
  8
0
 10
395.255
 11
391.273
 20
212.102
 21
217.236
  0
LINE
  8
0
 10
391.273
 11
386.976
 20
217.236
 21
222.109
  0
LINE
  8
0
 10
386.976
 11
382.382
 20
222.109
 21
226.703
  0
LINE
  8
0
 10
382.382
 11
377.509
 20
226.703
 21
231
  0
LINE
  8
0
 10
377.509
 11
372.375
 20
231
 21
234.982
  0
LINE
  8
0
 10
372.375
 11
367.002
 20
234.982
 21
238.634
  0
LINE
  8
0
 10
367.002
 11
361.409
 20
238.634
 21
241.941
  0
LINE
  8
0
 10
361.409
 11
355.62
 20
241.941
 21
244.891
  0
LINE
  8
0
 10
355.62
 11
349.658
 20
244.891
 21
247.471
  0
LINE
  8
0
 10
349.658
 11
343.545
 20
247.471
 21
249.672
  0
LINE
  8
0
 10
343.545
 11
337.306
 20
249.672
 21
251.484
  0
LINE
  8
0
 10
337.306
 11
330.965
 20
251.484
 21
252.902
  0
LINE
  8
0
 10
330.965
 11
324.548
 20
252.902
 21
253.918
  0
LINE
  8
0
 10
324.548
 11
318.08
 20
253.918
 21
254.529
  0
LINE
  8
0
 10
318.08
 11
311.587
 20
254.529
 21
254.733
  0
LINE
  8
0
 10
311.587
 11
305.093
 20
254.733
 21
254.529
  0
LINE
  8
0
 10
305.093
 11
298.625
 20
254.529
 21
253.918
  0
LINE
  8
0
 10
298.625
 11
292.208
 20
253.918
 21
252.902
  0
LINE
  8
0
 10
292.208
 11
285.867
 20
252.902
 21
251.484
  0
LINE
  8
0
 10
285.867
 11
279.628
 20
251.484
 21
249.672
  0
LINE
  8
0
 10
279.628
 11
273.515
 20
249.672
 21
247.471
  0
LINE
  8
0
 10
273.515
 11
267.553
 20
247.471
 21
244.891
  0
LINE
  8
0
 10
267.553
 11
261.764
 20
244.891
 21
241.941
  0
LINE
  8
0
 10
261.764
 11
256.171
 20
241.941
 21
238.634
  0
LINE
  8
0
 10
256.171
 11
250.798
 20
238.634
 21
234.982
  0
LINE
  8
0
 10
250.798
 11
245.664
 20
234.982
 21
231
  0
LINE
  8
0
 10
245.664
 11
240.791
 20
231
 21
226.703
  0
LINE
  8
0
 10
240.791
 11
236.197
 20
226.703
 21
222.109
  0
LINE
  8
0
 10
236.197
 11
231.9
 20
222.109
 21
217.236
  0
LINE
  8
0
 10
231.9
 11
227.918
 20
217.236
 21
212.102
  0
LINE
  8
0
 10
227.918
 11
227.068
 20
212.102
 21
210.851
  0
LINE
  8
0
 10
227.068
 11
227.314
 20
210.851
 21
210.425
  0
LINE
  8
0
 10
227.314
 11
227.96
 20
210.425
 21
208.437
  0
LINE
  8
0
 10
227.96
 11
228.179
 20
208.437
 21
206.358
  0
LINE
  8
0
 10
228.179
 11
227.96
 20
206.358
 21
204.278
  0
LINE
  8
0
 10
227.96
 11
227.314
 20
204.278
 21
202.29
  0
LINE
  8
0
 10
227.314
 11
226.269
 20
202.29
 21
200.48
  0
LINE
  8
0
 10
226.269
 11
224.87
 20
200.48
 21
198.926
  0
LINE
  8
0
 10
224.87
 11
223.179
 20
198.926
 21
197.697
  0
LINE
  8
0
 10
223.179
 11
221.269
 20
197.697
 21
196.847
  0
LINE
  8
0
 10
221.269
 11
219.224
 20
196.847
 21
196.412
  0
LINE
  8
0
 10
219.224
 11
217.134
 20
196.412
 21
196.412
  0
LINE
  8
0
 10
217.134
 11
215.089
 20
196.412
 21
196.847
  0
LINE
  8
0
 10
215.089
 11
213.179
 20
196.847
 21
197.697
  0
LINE
  8
0
 10
213.179
 11
211.487
 20
197.697
 21
198.926
  0
LINE
  8
0
 10
211.487
 11
210.089
 20
198.926
 21
200.48
  0
LINE
  8
0
 10
210.089
 11
209.043
 20
200.48
 21
202.29
  0
LINE
  8
0
 10
209.043
 11
208.397
 20
202.29
 21
204.278
  0
LINE
  8
0
 10
208.397
 11
208.179
 20
204.278
 21
206.358
  0
LINE
  8
0
 10
213.179
 11
213.255
 20
-236.358
 21
-235.489
  0
LINE
  8
0
 10
213.255
 11
213.48
 20
-235.489
 21
-234.647
  0
LINE
  8
0
 10
213.48
 11
213.849
 20
-234.647
 21
-233.858
  0
LINE
  8
0
 10
213.849
 11
214.349
 20
-233.858
 21
-233.144
  0
LINE
  8
0
 10
214.349
 11
214.965
 20
-233.144
 21
-232.527
  0
LINE
  8
0
 10
214.965
 11
215.679
 20
-232.527
 21
-232.027
  0
LINE
  8
0
 10
215.679
 11
216.469
 20
-232.027
 21
-231.659
  0
LINE
  8
0
 10
216.469
 11
217.311
 20
-231.659
 21
-231.434
  0
LINE
  8
0
 10
217.311
 11
218.179
 20
-231.434
 21
-231.358
  0
LINE
  8
0
 10
218.179
 11
219.047
 20
-231.358
 21
-231.434
  0
LINE
  8
0
 10
219.047
 11
219.889
 20
-231.434
 21
-231.659
  0
LINE
  8
0
 10
219.889
 11
220.679
 20
-231.659
 21
-232.027
  0
LINE
  8
0
 10
220.679
 11
221.393
 20
-232.027
 21
-232.527
  0
LINE
  8
0
 10
221.393
 11
222.009
 20
-232.527
 21
-233.144
  0
LINE
  8
0
 10
222.009
 11
222.509
 20
-233.144
 21
-233.858
  0
LINE
  8
0
 10
222.509
 11
222.877
 20
-233.858
 21
-234.647
  0
LINE
  8
0
 10
222.877
 11
223.103
 20
-234.647
 21
-235.489
  0
LINE
  8
0
 10
223.103
 11
223.179
 20
-235.489
 21
-236.358
  0
LINE
  8
0
 10
223.179
 11
223.103
 20
-236.358
 21
-237.226
  0
LINE
  8
0
 10
223.103
 11
222.877
 20
-237.226
 21
-238.068
  0
LINE
  8
0
 10
222.877
 11
222.509
 20
-238.068
 21
-238.858
  0
LINE
  8
0
 10
222.509
 11
222.009
 20
-238.858
 21
-239.572
  0
LINE
  8
0
 10
222.009
 11
221.393
 20
-239.572
 21
-240.188
  0
LINE
  8
0
 10
221.393
 11
220.679
 20
-240.188
 21
-240.688
  0
LINE
  8
0
 10
220.679
 11
219.889
 20
-240.688
 21
-241.056
  0
LINE
  8
0
 10
219.889
 11
219.047
 20
-241.056
 21
-241.282
  0
LINE
  8
0
 10
219.047
 11
218.179
 20
-241.282
 21
-241.358
  0
LINE
  8
0
 10
218.179
 11
217.311
 20
-241.358
 21
-241.282
  0
LINE
  8
0
 10
217.311
 11
216.469
 20
-241.282
 21
-241.056
  0
LINE
  8
0
 10
216.469
 11
215.679
 20
-241.056
 21
-240.688
  0
LINE
  8
0
 10
215.679
 11
214.965
 20
-240.688
 21
-240.188
  0
LINE
  8
0
 10
214.965
 11
214.349
 20
-240.188
 21
-239.572
  0
LINE
  8
0
 10
214.349
 11
213.849
 20
-239.572
 21
-238.858
  0
LINE
  8
0
 10
213.849
 11
213.48
 20
-238.858
 21
-238.068
  0
LINE
  8
0
 10
213.48
 11
213.255
 20
-238.068
 21
-237.226
  0
LINE
  8
0
 10
213.255
 11
213.179
 20
-237.226
 21
-236.358
  0
LINE
  8
0
 10
213.179
 11
213.255
 20
-206.358
 21
-205.489
  0
LINE
  8
0
 10
213.255
 11
213.48
 20
-205.489
 21
-204.647
  0
LINE
  8
0
 10
213.48
 11
213.849
 20
-204.647
 21
-203.858
  0
LINE
  8
0
 10
213.849
 11
214.349
 20
-203.858
 21
-203.144
  0
LINE
  8
0
 10
214.349
 11
214.965
 20
-203.144
 21
-202.527
  0
LINE
  8
0
 10
214.965
 11
215.679
 20
-202.527
 21
-202.027
  0
LINE
  8
0
 10
215.679
 11
216.469
 20
-202.027
 21
-201.659
  0
LINE
  8
0
 10
216.469
 11
217.311
 20
-201.659
 21
-201.434
  0
LINE
  8
0
 10
217.311
 11
218.179
 20
-201.434
 21
-201.358
  0
LINE
  8
0
 10
218.179
 11
219.047
 20
-201.358
 21
-201.434
  0
LINE
  8
0
 10
219.047
 11
219.889
 20
-201.434
 21
-201.659
  0
LINE
  8
0
 10
219.889
 11
220.679
 20
-201.659
 21
-202.027
  0
LINE
  8
0
 10
220.679
 11
221.393
 20
-202.027
 21
-202.527
  0
LINE
  8
0
 10
221.393
 11
222.009
 20
-202.527
 21
-203.144
  0
LINE
  8
0
 10
222.009
 11
222.509
 20
-203.144
 21
-203.858
  0
LINE
  8
0
 10
222.509
 11
222.877
 20
-203.858
 21
-204.647
  0
LINE
  8
0
 10
222.877
 11
223.103
 20
-204.647
 21
-205.489
  0
LINE
  8
0
 10
223.103
 11
223.179
 20
-205.489
 21
-206.358
  0
LINE
  8
0
 10
223.179
 11
223.103
 20
-206.358
 21
-207.226
  0
LINE
  8
0
 10
223.103
 11
222.877
 20
-207.226
 21
-208.068
  0
LINE
  8
0
 10
222.877
 11
222.509
 20
-208.068
 21
-208.858
  0
LINE
  8
0
 10
222.509
 11
222.009
 20
-208.858
 21
-209.572
  0
LINE
  8
0
 10
222.009
 11
221.393
 20
-209.572
 21
-210.188
  0
LINE
  8
0
 10
221.393
 11
220.679
 20
-210.188
 21
-210.688
  0
LINE
  8
0
 10
220.679
 11
219.889
 20
-210.688
 21
-211.056
  0
LINE
  8
0
 10
219.889
 11
219.047
 20
-211.056
 21
-211.282
  0
LINE
  8
0
 10
219.047
 11
218.179
 20
-211.282
 21
-211.358
  0
LINE
  8
0
 10
218.179
 11
217.311
 20
-211.358
 21
-211.282
  0
LINE
  8
0
 10
217.311
 11
216.469
 20
-211.282
 21
-211.056
  0
LINE
  8
0
 10
216.469
 11
215.679
 20
-211.056
 21
-210.688
  0
LINE
  8
0
 10
215.679
 11
214.965
 20
-210.688
 21
-210.188
  0
LINE
  8
0
 10
214.965
 11
214.349
 20
-210.188
 21
-209.572
  0
LINE
  8
0
 10
214.349
 11
213.849
 20
-209.572
 21
-208.858
  0
LINE
  8
0
 10
213.849
 11
213.48
 20
-208.858
 21
-208.068
  0
LINE
  8
0
 10
213.48
 11
213.255
 20
-208.068
 21
-207.226
  0
LINE
  8
0
 10
213.255
 11
213.179
 20
-207.226
 21
-206.358
  0
LINE
  8
0
 10
213.179
 11
213.255
 20
168.179
 21
169.047
  0
LINE
  8
0
 10
213.255
 11
213.48
 20
169.047
 21
169.889
  0
LINE
  8
0
 10
213.48
 11
213.849
 20
169.889
 21
170.679
  0
LINE
  8
0
 10
213.849
 11
214.349
 20
170.679
 21
171.393
  0
LINE
  8
0
 10
214.349
 11
214.965
 20
171.393
 21
172.009
  0
LINE
  8
0
 10
214.965
 11
215.679
 20
172.009
 21
172.509
  0
LINE
  8
0
 10
215.679
 11
216.469
 20
172.509
 21
172.877
  0
LINE
  8
0
 10
216.469
 11
217.311
 20
172.877
 21
173.103
  0
LINE
  8
0
 10
217.311
 11
218.179
 20
173.103
 21
173.179
  0
LINE
  8
0
 10
218.179
 11
219.047
 20
173.179
 21
173.103
  0
LINE
  8
0
 10
219.047
 11
219.889
 20
173.103
 21
172.877
  0
LINE
  8
0
 10
219.889
 11
220.679
 20
172.877
 21
172.509
  0
LINE
  8
0
 10
220.679
 11
221.393
 20
172.509
 21
172.009
  0
LINE
  8
0
 10
221.393
 11
222.009
 20
172.009
 21
171.393
  0
LINE
  8
0
 10
222.009
 11
222.509
 20
171.393
 21
170.679
  0
LINE
  8
0
 10
222.509
 11
222.877
 20
170.679
 21
169.889
  0
LINE
  8
0
 10
222.877
 11
223.103
 20
169.889
 21
169.047
  0
LINE
  8
0
 10
223.103
 11
223.179
 20
169.047
 21
168.179
  0
LINE
  8
0
 10
223.179
 11
223.103
 20
168.179
 21
167.311
  0
LINE
  8
0
 10
223.103
 11
222.877
 20
167.311
 21
166.469
  0
LINE
  8
0
 10
222.877
 11
222.509
 20
166.469
 21
165.679
  0
LINE
  8
0
 10
222.509
 11
222.009
 20
165.679
 21
164.965
  0
LINE
  8
0
 10
222.009
 11
221.393
 20
164.965
 21
164.349
  0
LINE
  8
0
 10
221.393
 11
220.679
 20
164.349
 21
163.849
  0
LINE
  8
0
 10
220.679
 11
219.889
 20
163.849
 21
163.48
  0
LINE
  8
0
 10
219.889
 11
219.047
 20
163.48
 21
163.255
  0
LINE
  8
0
 10
219.047
 11
218.179
 20
163.255
 21
163.179
  0
LINE
  8
0
 10
218.179
 11
217.311
 20
163.179
 21
163.255
  0
LINE
  8
0
 10
217.311
 11
216.469
 20
163.255
 21
163.48
  0
LINE
  8
0
 10
216.469
 11
215.679
 20
163.48
 21
163.849
  0
LINE
  8
0
 10
215.679
 11
214.965
 20
163.849
 21
164.349
  0
LINE
  8
0
 10
214.965
 11
214.349
 20
164.349
 21
164.965
  0
LINE
  8
0
 10
214.349
 11
213.849
 20
164.965
 21
165.679
  0
LINE
  8
0
 10
213.849
 11
213.48
 20
165.679
 21
166.469
  0
LINE
  8
0
 10
213.48
 11
213.255
 20
166.469
 21
167.311
  0
LINE
  8
0
 10
213.255
 11
213.179
 20
167.311
 21
168.179
  0
LINE
  8
0
 10
213.179
 11
213.255
 20
206.358
 21
207.226
  0
LINE
  8
0
 10
213.255
 11
213.48
 20
207.226
 21
208.068
  0
LINE
  8
0
 10
213.48
 11
213.849
 20
208.068
 21
208.858
  0
LINE
  8
0
 10
213.849
 11
214.349
 20
208.858
 21
209.572
  0
LINE
  8
0
 10
214.349
 11
214.965
 20
209.572
 21
210.188
  0
LINE
  8
0
 10
214.965
 11
215.679
 20
210.188
 21
210.688
  0
LINE
  8
0
 10
215.679
 11
216.469
 20
210.688
 21
211.056
  0
LINE
  8
0
 10
216.469
 11
217.311
 20
211.056
 21
211.282
  0
LINE
  8
0
 10
217.311
 11
218.179
 20
211.282
 21
211.358
  0
LINE
  8
0
 10
218.179
 11
219.047
 20
211.358
 21
211.282
  0
LINE
  8
0
 10
219.047
 11
219.889
 20
211.282
 21
211.056
  0
LINE
  8
0
 10
219.889
 11
220.679
 20
211.056
 21
210.688
  0
LINE
  8
0
 10
220.679
 11
221.393
 20
210.688
 21
210.188
  0
LINE
  8
0
 10
221.393
 11
222.009
 20
210.188
 21
209.572
  0
LINE
  8
0
 10
222.009
 11
222.509
 20
209.572
 21
208.858
  0
LINE
  8
0
 10
222.509
 11
222.877
 20
208.858
 21
208.068
  0
LINE
  8
0
 10
222.877
 11
223.103
 20
208.068
 21
207.226
  0
LINE
  8
0
 10
223.103
 11
223.179
 20
207.226
 21
206.358
  0
LINE
  8
0
 10
223.179
 11
223.103
 20
206.358
 21
205.489
  0
LINE
  8
0
 10
223.103
 11
222.877
 20
205.489
 21
204.647
  0
LINE
  8
0
 10
222.877
 11
222.509
 20
204.647
 21
203.858
  0
LINE
  8
0
 10
222.509
 11
222.009
 20
203.858
 21
203.144
  0
LINE
  8
0
 10
222.009
 11
221.393
 20
203.144
 21
202.527
  0
LINE
  8
0
 10
221.393
 11
220.679
 20
202.527
 21
202.027
  0
LINE
  8
0
 10
220.679
 11
219.889
 20
202.027
 21
201.659
  0
LINE
  8
0
 10
219.889
 11
219.047
 20
201.659
 21
201.434
  0
LINE
  8
0
 10
219.047
 11
218.179
 20
201.434
 21
201.358
  0
LINE
  8
0
 10
218.179
 11
217.311
 20
201.358
 21
201.434
  0
LINE
  8
0
 10
217.311
 11
216.469
 20
201.434
 21
201.659
  0
LINE
  8
0
 10
216.469
 11
215.679
 20
201.659
 21
202.027
  0
LINE
  8
0
 10
215.679
 11
214.965
 20
202.027
 21
202.527
  0
LINE
  8
0
 10
214.965
 11
214.349
 20
202.527
 21
203.144
  0
LINE
  8
0
 10
214.349
 11
213.849
 20
203.144
 21
203.858
  0
LINE
  8
0
 10
213.849
 11
213.48
 20
203.858
 21
204.647
  0
LINE
  8
0
 10
213.48
 11
213.255
 20
204.647
 21
205.489
  0
LINE
  8
0
 10
213.255
 11
213.179
 20
205.489
 21
206.358
  0
LINE
  8
0
 10
299.202
 11
299.278
 20
-236.358
 21
-235.489
  0
LINE
  8
0
 10
299.278
 11
299.504
 20
-235.489
 21
-234.647
  0
LINE
  8
0
 10
299.504
 11
299.872
 20
-234.647
 21
-233.858
  0
LINE
  8
0
 10
299.872
 11
300.372
 20
-233.858
 21
-233.144
  0
LINE
  8
0
 10
300.372
 11
300.988
 20
-233.144
 21
-232.527
  0
LINE
  8
0
 10
300.988
 11
301.702
 20
-232.527
 21
-232.027
  0
LINE
  8
0
 10
301.702
 11
302.492
 20
-232.027
 21
-231.659
  0
LINE
  8
0
 10
302.492
 11
303.334
 20
-231.659
 21
-231.434
  0
LINE
  8
0
 10
303.334
 11
304.202
 20
-231.434
 21
-231.358
  0
LINE
  8
0
 10
304.202
 11
305.07
 20
-231.358
 21
-231.434
  0
LINE
  8
0
 10
305.07
 11
305.912
 20
-231.434
 21
-231.659
  0
LINE
  8
0
 10
305.912
 11
306.702
 20
-231.659
 21
-232.027
  0
LINE
  8
0
 10
306.702
 11
307.416
 20
-232.027
 21
-232.527
  0
LINE
  8
0
 10
307.416
 11
308.032
 20
-232.527
 21
-233.144
  0
LINE
  8
0
 10
308.032
 11
308.532
 20
-233.144
 21
-233.858
  0
LINE
  8
0
 10
308.532
 11
308.901
 20
-233.858
 21
-234.647
  0
LINE
  8
0
 10
308.901
 11
309.126
 20
-234.647
 21
-235.489
  0
LINE
  8
0
 10
309.126
 11
309.202
 20
-235.489
 21
-236.358
  0
LINE
  8
0
 10
309.202
 11
309.126
 20
-236.358
 21
-237.226
  0
LINE
  8
0
 10
309.126
 11
308.901
 20
-237.226
 21
-238.068
  0
LINE
  8
0
 10
308.901
 11
308.532
 20
-238.068
 21
-238.858
  0
LINE
  8
0
 10
308.532
 11
308.032
 20
-238.858
 21
-239.572
  0
LINE
  8
0
 10
308.032
 11
307.416
 20
-239.572
 21
-240.188
  0
LINE
  8
0
 10
307.416
 11
306.702
 20
-240.188
 21
-240.688
  0
LINE
  8
0
 10
306.702
 11
305.912
 20
-240.688
 21
-241.056
  0
LINE
  8
0
 10
305.912
 11
305.07
 20
-241.056
 21
-241.282
  0
LINE
  8
0
 10
305.07
 11
304.202
 20
-241.282
 21
-241.358
  0
LINE
  8
0
 10
304.202
 11
303.334
 20
-241.358
 21
-241.282
  0
LINE
  8
0
 10
303.334
 11
302.492
 20
-241.282
 21
-241.056
  0
LINE
  8
0
 10
302.492
 11
301.702
 20
-241.056
 21
-240.688
  0
LINE
  8
0
 10
301.702
 11
300.988
 20
-240.688
 21
-240.188
  0
LINE
  8
0
 10
300.988
 11
300.372
 20
-240.188
 21
-239.572
  0
LINE
  8
0
 10
300.372
 11
299.872
 20
-239.572
 21
-238.858
  0
LINE
  8
0
 10
299.872
 11
299.504
 20
-238.858
 21
-238.068
  0
LINE
  8
0
 10
299.504
 11
299.278
 20
-238.068
 21
-237.226
  0
LINE
  8
0
 10
299.278
 11
299.202
 20
-237.226
 21
-236.358
  0
LINE
  8
0
 10
299.202
 11
299.278
 20
-206.358
 21
-205.489
  0
LINE
  8
0
 10
299.278
 11
299.504
 20
-205.489
 21
-204.647
  0
LINE
  8
0
 10
299.504
 11
299.872
 20
-204.647
 21
-203.858
  0
LINE
  8
0
 10
299.872
 11
300.372
 20
-203.858
 21
-203.144
  0
LINE
  8
0
 10
300.372
 11
300.988
 20
-203.144
 21
-202.527
  0
LINE
  8
0
 10
300.988
 11
301.702
 20
-202.527
 21
-202.027
  0
LINE
  8
0
 10
301.702
 11
302.492
 20
-202.027
 21
-201.659
  0
LINE
  8
0
 10
302.492
 11
303.334
 20
-201.659
 21
-201.434
  0
LINE
  8
0
 10
303.334
 11
304.202
 20
-201.434
 21
-201.358
  0
LINE
  8
0
 10
304.202
 11
305.07
 20
-201.358
 21
-201.434
  0
LINE
  8
0
 10
305.07
 11
305.912
 20
-201.434
 21
-201.659
  0
LINE
  8
0
 10
305.912
 11
306.702
 20
-201.659
 21
-202.027
  0
LINE
  8
0
 10
306.702
 11
307.416
 20
-202.027
 21
-202.527
  0
LINE
  8
0
 10
307.416
 11
308.032
 20
-202.527
 21
-203.144
  0
LINE
  8
0
 10
308.032
 11
308.532
 20
-203.144
 21
-203.858
  0
LINE
  8
0
 10
308.532
 11
308.901
 20
-203.858
 21
-204.647
  0
LINE
  8
0
 10
308.901
 11
309.126
 20
-204.647
 21
-205.489
  0
LINE
  8
0
 10
309.126
 11
309.202
 20
-205.489
 21
-206.358
  0
LINE
  8
0
 10
309.202
 11
309.126
 20
-206.358
 21
-207.226
  0
LINE
  8
0
 10
309.126
 11
308.901
 20
-207.226
 21
-208.068
  0
LINE
  8
0
 10
308.901
 11
308.532
 20
-208.068
 21
-208.858
  0
LINE
  8
0
 10
308.532
 11
308.032
 20
-208.858
 21
-209.572
  0
LINE
  8
0
 10
308.032
 11
307.416
 20
-209.572
 21
-210.188
  0
LINE
  8
0
 10
307.416
 11
306.702
 20
-210.188
 21
-210.688
  0
LINE
  8
0
 10
306.702
 11
305.912
 20
-210.688
 21
-211.056
  0
LINE
  8
0
 10
305.912
 11
305.07
 20
-211.056
 21
-211.282
  0
LINE
  8
0
 10
305.07
 11
304.202
 20
-211.282
 21
-211.358
  0
LINE
  8
0
 10
304.202
 11
303.334
 20
-211.358
 21
-211.282
  0
LINE
  8
0
 10
303.334
 11
302.492
 20
-211.282
 21
-211.056
  0
LINE
  8
0
 10
302.492
 11
301.702
 20
-211.056
 21
-210.688
  0
LINE
  8
0
 10
301.702
 11
300.988
 20
-210.688
 21
-210.188
  0
LINE
  8
0
 10
300.988
 11
300.372
 20
-210.188
 21
-209.572
  0
LINE
  8
0
 10
300.372
 11
299.872
 20
-209.572
 21
-208.858
  0
LINE
  8
0
 10
299.872
 11
299.504
 20
-208.858
 21
-208.068
  0
LINE
  8
0
 10
299.504
 11
299.278
 20
-208.068
 21
-207.226
  0
LINE
  8
0
 10
299.278
 11
299.202
 20
-207.226
 21
-206.358
  0
LINE
  8
0
 10
348.179
 11
348.179
 20
-116.662
 21
-83.338
  0
LINE
  8
0
 10
348.179
 11
356.358
 20
-83.338
 21
-83.338
  0
LINE
  8
0
 10
356.358
 11
356.358
 20
-83.338
 21
-49.995
  0
LINE
  8
0
 10
356.358
 11
348.179
 20
-49.995
 21
-49.995
  0
LINE
  8
0
 10
348.179
 11
348.179
 20
-49.995
 21
-16.672
  0
LINE
  8
0
 10
348.179
 11
356.358
 20
-16.672
 21
-16.672
  0
LINE
  8
0
 10
356.358
 11
356.358
 20
-16.672
 21
16.672
  0
LINE
  8
0
 10
356.358
 11
348.179
 20
16.672
 21
16.672
  0
LINE
  8
0
 10
348.179
 11
348.179
 20
16.672
 21
49.995
  0
LINE
  8
0
 10
348.179
 11
356.358
 20
49.995
 21
49.995
  0
LINE
  8
0
 10
356.358
 11
356.358
 20
49.995
 21
83.338
  0
LINE
  8
0
 10
356.358
 11
348.179
 20
83.338
 21
83.338
  0
LINE
  8
0
 10
348.179
 11
348.179
 20
83.338
 21
116.662
  0
LINE
  8
0
 10
348.179
 11
356.358
 20
116.662
 21
116.662
  0
LINE
  8
0
 10
356.358
 11
356.358
 20
116.662
 21
141.821
  0
LINE
  8
0
 10
356.358
 11
363.739
 20
141.821
 21
141.821
  0
LINE
  8
0
 10
363.739
 11
363.739
 20
141.821
 21
150
  0
LINE
  8
0
 10
363.739
 11
379.285
 20
150
 21
150
  0
LINE
  8
0
 10
379.285
 11
379.285
 20
150
 21
141.821
  0
LINE
  8
0
 10
379.285
 11
394.85
 20
141.821
 21
141.821
  0
LINE
  8
0
 10
394.85
 11
394.85
 20
141.821
 21
150
  0
LINE
  8
0
 10
394.85
 11
410.396
 20
150
 21
150
  0
LINE
  8
0
 10
410.396
 11
410.396
 20
150
 21
141.821
  0
LINE
  8
0
 10
410.396
 11
425.962
 20
141.821
 21
141.821
  0
LINE
  8
0
 10
425.962
 11
425.962
 20
141.821
 21
150
  0
LINE
  8
0
 10
425.962
 11
441.507
 20
150
 21
150
  0
LINE
  8
0
 10
441.507
 11
441.507
 20
150
 21
141.821
  0
LINE
  8
0
 10
441.507
 11
457.073
 20
141.821
 21
141.821
  0
LINE
  8
0
 10
457.073
 11
457.073
 20
141.821
 21
150
  0
LINE
  8
0
 10
457.073
 11
472.618
 20
150
 21
150
  0
LINE
  8
0
 10
472.618
 11
472.618
 20
150
 21
141.821
  0
LINE
  8
0
 10
472.618
 11
488.179
 20
141.821
 21
141.821
  0
LINE
  8
0
 10
488.179
 11
488.179
 20
141.821
 21
-141.821
  0
LINE
  8
0
 10
488.179
 11
472.618
 20
-141.821
 21
-141.821
  0
LINE
  8
0
 10
472.618
 11
472.618
 20
-141.821
 21
-150
  0
LINE
  8
0
 10
472.618
 11
457.073
 20
-150
 21
-150
  0
LINE
  8
0
 10
457.073
 11
457.073
 20
-150
 21
-141.821
  0
LINE
  8
0
 10
457.073
 11
441.507
 20
-141.821
 21
-141.821
  0
LINE
  8
0
 10
441.507
 11
441.507
 20
-141.821
 21
-150
  0
LINE
  8
0
 10
441.507
 11
425.962
 20
-150
 21
-150
  0
LINE
  8
0
 10
425.962
 11
425.962
 20
-150
 21
-141.821
  0
LINE
  8
0
 10
425.962
 11
410.396
 20
-141.821
 21
-141.821
  0
LINE
  8
0
 10
410.396
 11
410.396
 20
-141.821
 21
-150
  0
LINE
  8
0
 10
410.396
 11
394.85
 20
-150
 21
-150
  0
LINE
  8
0
 10
394.85
 11
394.85
 20
-150
 21
-141.821
  0
LINE
  8
0
 10
394.85
 11
379.285
 20
-141.821
 21
-141.821
  0
LINE
  8
0
 10
379.285
 11
379.285
 20
-141.821
 21
-150
  0
LINE
  8
0
 10
379.285
 11
363.739
 20
-150
 21
-150
  0
LINE
  8
0
 10
363.739
 11
363.739
 20
-150
 21
-141.821
  0
LINE
  8
0
 10
363.739
 11
356.358
 20
-141.821
 21
-141.821
  0
LINE
  8
0
 10
356.358
 11
356.358
 20
-141.821
 21
-116.662
  0
LINE
  8
0
 10
356.358
 11
348.179
 20
-116.662
 21
-116.662
  0
LINE
  8
0
 10
399.994
 11
400.07
 20
168.179
 21
169.047
  0
LINE
  8
0
 10
400.07
 11
400.296
 20
169.047
 21
169.889
  0
LINE
  8
0
 10
400.296
 11
400.664
 20
169.889
 21
170.679
  0
LINE
  8
0
 10
400.664
 11
401.164
 20
170.679
 21
171.393
  0
LINE
  8
0
 10
401.164
 11
401.78
 20
171.393
 21
172.009
  0
LINE
  8
0
 10
401.78
 11
402.494
 20
172.009
 21
172.509
  0
LINE
  8
0
 10
402.494
 11
403.284
 20
172.509
 21
172.877
  0
LINE
  8
0
 10
403.284
 11
404.126
 20
172.877
 21
173.103
  0
LINE
  8
0
 10
404.126
 11
404.994
 20
173.103
 21
173.179
  0
LINE
  8
0
 10
404.994
 11
405.862
 20
173.179
 21
173.103
  0
LINE
  8
0
 10
405.862
 11
406.704
 20
173.103
 21
172.877
  0
LINE
  8
0
 10
406.704
 11
407.494
 20
172.877
 21
172.509
  0
LINE
  8
0
 10
407.494
 11
408.208
 20
172.509
 21
172.009
  0
LINE
  8
0
 10
408.208
 11
408.824
 20
172.009
 21
171.393
  0
LINE
  8
0
 10
408.824
 11
409.324
 20
171.393
 21
170.679
  0
LINE
  8
0
 10
409.324
 11
409.693
 20
170.679
 21
169.889
  0
LINE
  8
0
 10
409.693
 11
409.918
 20
169.889
 21
169.047
  0
LINE
  8
0
 10
409.918
 11
409.994
 20
169.047
 21
168.179
  0
LINE
  8
0
 10
409.994
 11
409.918
 20
168.179
 21
167.311
  0
LINE
  8
0
 10
409.918
 11
409.693
 20
167.311
 21
166.469
  0
LINE
  8
0
 10
409.693
 11
409.324
 20
166.469
 21
165.679
  0
LINE
  8
0
 10
409.324
 11
408.824
 20
165.679
 21
164.965
  0
LINE
  8
0
 10
408.824
 11
408.208
 20
164.965
 21
164.349
  0
LINE
  8
0
 10
408.208
 11
407.494
 20
164.349
 21
163.849
  0
LINE
  8
0
 10
407.494
 11
406.704
 20
163.849
 21
163.48
  0
LINE
  8
0
 10
406.704
 11
405.862
 20
163.48
 21
163.255
  0
LINE
  8
0
 10
405.862
 11
404.994
 20
163.255
 21
163.179
  0
LINE
  8
0
 10
404.994
 11
404.126
 20
163.179
 21
163.255
  0
LINE
  8
0
 10
404.126
 11
403.284
 20
163.255
 21
163.48
  0
LINE
  8
0
 10
403.284
 11
402.494
 20
163.48
 21
163.849
  0
LINE
  8
0
 10
402.494
 11
401.78
 20
163.849
 21
164.349
  0
LINE
  8
0
 10
401.78
 11
401.164
 20
164.349
 21
164.965
  0
LINE
  8
0
 10
401.164
 11
400.664
 20
164.965
 21
165.679
  0
LINE
  8
0
 10
400.664
 11
400.296
 20
165.679
 21
166.469
  0
LINE
  8
0
 10
400.296
 11
400.07
 20
166.469
 21
167.311
  0
LINE
  8
0
 10
400.07
 11
399.994
 20
167.311
 21
168.179
  0
LINE
  8
0
 10
399.994
 11
400.07
 20
206.358
 21
207.226
  0
LINE
  8
0
 10
400.07
 11
400.296
 20
207.226
 21
208.068
  0
LINE
  8
0
 10
400.296
 11
400.664
 20
208.068
 21
208.858
  0
LINE
  8
0
 10
400.664
 11
401.164
 20
208.858
 21
209.572
  0
LINE
  8
0
 10
401.164
 11
401.78
 20
209.572
 21
210.188
  0
LINE
  8
0
 10
401.78
 11
402.494
 20
210.188
 21
210.688
  0
LINE
  8
0
 10
402.494
 11
403.284
 20
210.688
 21
211.056
  0
LINE
  8
0
 10
403.284
 11
404.126
 20
211.056
 21
211.282
  0
LINE
  8
0
 10
404.126
 11
404.994
 20
211.282
 21
211.358
  0
LINE
  8
0
 10
404.994
 11
405.862
 20
211.358
 21
211.282
  0
LINE
  8
0
 10
405.862
 11
406.704
 20
211.282
 21
211.056
  0
LINE
  8
0
 10
406.704
 11
407.494
 20
211.056
 21
210.688
  0
LINE
  8
0
 10
407.494
 11
408.208
 20
210.688
 21
210.188
  0
LINE
  8
0
 10
408.208
 11
408.824
 20
210.188
 21
209.572
  0
LINE
  8
0
 10
408.824
 11
409.324
 20
209.572
 21
208.858
  0
LINE
  8
0
 10
409.324
 11
409.693
 20
208.858
 21
208.068
  0
LINE
  8
0
 10
409.693
 11
409.918
 20
208.068
 21
207.226
  0
LINE
  8
0
 10
409.918
 11
409.994
 20
207.226
 21
206.358
  0
LINE
  8
0
 10
409.994
 11
409.918
 20
206.358
 21
205.489
  0
LINE
  8
0
 10
409.918
 11
409.693
 20
205.489
 21
204.647
  0
LINE
  8
0
 10
409.693
 11
409.324
 20
204.647
 21
203.858
  0
LINE
  8
0
 10
409.324
 11
408.824
 20
203.858
 21
203.144
  0
LINE
  8
0
 10
408.824
 11
408.208
 20
203.144
 21
202.527
  0
LINE
  8
0
 10
408.208
 11
407.494
 20
202.527
 21
202.027
  0
LINE
  8
0
 10
407.494
 11
406.704
 20
202.027
 21
201.659
  0
LINE
  8
0
 10
406.704
 11
405.862
 20
201.659
 21
201.434
  0
LINE
  8
0
 10
405.862
 11
404.994
 20
201.434
 21
201.358
  0
LINE
  8
0
 10
404.994
 11
404.126
 20
201.358
 21
201.434
  0
LINE
  8
0
 10
404.126
 11
403.284
 20
201.434
 21
201.659
  0
LINE
  8
0
 10
403.284
 11
402.494
 20
201.659
 21
202.027
  0
LINE
  8
0
 10
402.494
 11
401.78
 20
202.027
 21
202.527
  0
LINE
  8
0
 10
401.78
 11
401.164
 20
202.527
 21
203.144
  0
LINE
  8
0
 10
401.164
 11
400.664
 20
203.144
 21
203.858
  0
LINE
  8
0
 10
400.664
 11
400.296
 20
203.858
 21
204.647
  0
LINE
  8
0
 10
400.296
 11
400.07
 20
204.647
 21
205.489
  0
LINE
  8
0
 10
400.07
 11
399.994
 20
205.489
 21
206.358
  0
LINE
  8
0
 10
462.679
 11
462.762
 20
50
 21
50.955
  0
LINE
  8
0
 10
462.762
 11
463.01
 20
50.955
 21
51.881
  0
LINE
  8
0
 10
463.01
 11
463.416
 20
51.881
 21
52.75
  0
LINE
  8
0
 10
463.416
 11
463.966
 20
52.75
 21
53.535
  0
LINE
  8
0
 10
463.966
 11
464.643
 20
53.535
 21
54.213
  0
LINE
  8
0
 10
464.643
 11
465.429
 20
54.213
 21
54.763
  0
LINE
  8
0
 10
465.429
 11
466.298
 20
54.763
 21
55.168
  0
LINE
  8
0
 10
466.298
 11
467.224
 20
55.168
 21
55.416
  0
LINE
  8
0
 10
467.224
 11
468.179
 20
55.416
 21
55.5
  0
LINE
  8
0
 10
468.179
 11
469.134
 20
55.5
 21
55.416
  0
LINE
  8
0
 10
469.134
 11
470.06
 20
55.416
 21
55.168
  0
LINE
  8
0
 10
470.06
 11
470.929
 20
55.168
 21
54.763
  0
LINE
  8
0
 10
470.929
 11
471.714
 20
54.763
 21
54.213
  0
LINE
  8
0
 10
471.714
 11
472.392
 20
54.213
 21
53.535
  0
LINE
  8
0
 10
472.392
 11
472.942
 20
53.535
 21
52.75
  0
LINE
  8
0
 10
472.942
 11
473.347
 20
52.75
 21
51.881
  0
LINE
  8
0
 10
473.347
 11
473.595
 20
51.881
 21
50.955
  0
LINE
  8
0
 10
473.595
 11
473.679
 20
50.955
 21
50
  0
LINE
  8
0
 10
473.679
 11
473.595
 20
50
 21
49.045
  0
LINE
  8
0
 10
473.595
 11
473.347
 20
49.045
 21
48.119
  0
LINE
  8
0
 10
473.347
 11
472.942
 20
48.119
 21
47.25
  0
LINE
  8
0
 10
472.942
 11
472.392
 20
47.25
 21
46.465
  0
LINE
  8
0
 10
472.392
 11
471.714
 20
46.465
 21
45.787
  0
LINE
  8
0
 10
471.714
 11
470.929
 20
45.787
 21
45.237
  0
LINE
  8
0
 10
470.929
 11
470.06
 20
45.237
 21
44.832
  0
LINE
  8
0
 10
470.06
 11
469.134
 20
44.832
 21
44.584
  0
LINE
  8
0
 10
469.134
 11
468.179
 20
44.584
 21
44.5
  0
LINE
  8
0
 10
468.179
 11
467.224
 20
44.5
 21
44.584
  0
LINE
  8
0
 10
467.224
 11
466.298
 20
44.584
 21
44.832
  0
LINE
  8
0
 10
466.298
 11
465.429
 20
44.832
 21
45.237
  0
LINE
  8
0
 10
465.429
 11
464.643
 20
45.237
 21
45.787
  0
LINE
  8
0
 10
464.643
 11
463.966
 20
45.787
 21
46.465
  0
LINE
  8
0
 10
463.966
 11
463.416
 20
46.465
 21
47.25
  0
LINE
  8
0
 10
463.416
 11
463.01
 20
47.25
 21
48.119
  0
LINE
  8
0
 10
463.01
 11
462.762
 20
48.119
 21
49.045
  0
LINE
  8
0
 10
462.762
 11
462.679
 20
49.045
 21
50
  0
LINE
  8
0
 10
462.679
 11
462.762
 20
120
 21
120.955
  0
LINE
  8
0
 10
462.762
 11
463.01
 20
120.955
 21
121.881
  0
LINE
  8
0
 10
463.01
 11
463.416
 20
121.881
 21
122.75
  0
LINE
  8
0
 10
463.416
 11
463.966
 20
122.75
 21
123.535
  0
LINE
  8
0
 10
463.966
 11
464.643
 20
123.535
 21
124.213
  0
LINE
  8
0
 10
464.643
 11
465.429
 20
124.213
 21
124.763
  0
LINE
  8
0
 10
465.429
 11
466.298
 20
124.763
 21
125.168
  0
LINE
  8
0
 10
466.298
 11
467.224
 20
125.168
 21
125.416
  0
LINE
  8
0
 10
467.224
 11
468.179
 20
125.416
 21
125.5
  0
LINE
  8
0
 10
468.179
 11
469.134
 20
125.5
 21
125.416
  0
LINE
  8
0
 10
469.134
 11
470.06
 20
125.416
 21
125.168
  0
LINE
  8
0
 10
470.06
 11
470.929
 20
125.168
 21
124.763
  0
LINE
  8
0
 10
470.929
 11
471.714
 20
124.763
 21
124.213
  0
LINE
  8
0
 10
471.714
 11
472.392
 20
124.213
 21
123.535
  0
LINE
  8
0
 10
472.392
 11
472.942
 20
123.535
 21
122.75
  0
LINE
  8
0
 10
472.942
 11
473.347
 20
122.75
 21
121.881
  0
LINE
  8
0
 10
473.347
 11
473.595
 20
121.881
 21
120.955
  0
LINE
  8
0
 10
473.595
 11
473.679
 20
120.955
 21
120
  0
LINE
  8
0
 10
473.679
 11
473.595
 20
120
 21
119.045
  0
LINE
  8
0
 10
473.595
 11
473.347
 20
119.045
 21
118.119
  0
LINE
  8
0
 10
473.347
 11
472.942
 20
118.119
 21
117.25
  0
LINE
  8
0
 10
472.942
 11
472.392
 20
117.25
 21
116.465
  0
LINE
  8
0
 10
472.392
 11
471.714
 20
116.465
 21
115.787
  0
LINE
  8
0
 10
471.714
 11
470.929
 20
115.787
 21
115.237
  0
LINE
  8
0
 10
470.929
 11
470.06
 20
115.237
 21
114.832
  0
LINE
  8
0
 10
470.06
 11
469.134
 20
114.832
 21
114.584
  0
LINE
  8
0
 10
469.134
 11
468.179
 20
114.584
 21
114.5
  0
LINE
  8
0
 10
468.179
 11
467.224
 20
114.5
 21
114.584
  0
LINE
  8
0
 10
467.224
 11
466.298
 20
114.584
 21
114.832
  0
LINE
  8
0
 10
466.298
 11
465.429
 20
114.832
 21
115.237
  0
LINE
  8
0
 10
465.429
 11
464.643
 20
115.237
 21
115.787
  0
LINE
  8
0
 10
464.643
 11
463.966
 20
115.787
 21
116.465
  0
LINE
  8
0
 10
463.966
 11
463.416
 20
116.465
 21
117.25
  0
LINE
  8
0
 10
463.416
 11
463.01
 20
117.25
 21
118.119
  0
LINE
  8
0
 10
463.01
 11
462.762
 20
118.119
 21
119.045
  0
LINE
  8
0
 10
462.762
 11
462.679
 20
119.045
 21
120
  0
ENDSEC
  0
SECTION
  2
OBJECTS
  0
DICTIONARY
  0
ENDSEC
  0
EOF
