  0
SECTION
  2
BLOCKS
  0
ENDSEC
  0
SECTION
  2
ENTITIES
  0
LINE
  8
0
 10
-483
 11
-483
 20
-146.999
 21
146.999
  0
LINE
  8
0
 10
-483
 11
-467.439
 20
146.999
 21
146.999
  0
LINE
  8
0
 10
-467.439
 11
-467.439
 20
146.999
 21
150
  0
LINE
  8
0
 10
-467.439
 11
-451.894
 20
150
 21
150
  0
LINE
  8
0
 10
-451.894
 11
-451.894
 20
150
 21
146.999
  0
LINE
  8
0
 10
-451.894
 11
-436.328
 20
146.999
 21
146.999
  0
LINE
  8
0
 10
-436.328
 11
-436.328
 20
146.999
 21
150
  0
LINE
  8
0
 10
-436.328
 11
-420.783
 20
150
 21
150
  0
LINE
  8
0
 10
-420.783
 11
-420.783
 20
150
 21
146.999
  0
LINE
  8
0
 10
-420.783
 11
-405.217
 20
146.999
 21
146.999
  0
LINE
  8
0
 10
-405.217
 11
-405.217
 20
146.999
 21
150
  0
LINE
  8
0
 10
-405.217
 11
-389.672
 20
150
 21
150
  0
LINE
  8
0
 10
-389.672
 11
-389.672
 20
150
 21
146.999
  0
LINE
  8
0
 10
-389.672
 11
-374.106
 20
146.999
 21
146.999
  0
LINE
  8
0
 10
-374.106
 11
-374.106
 20
146.999
 21
150
  0
LINE
  8
0
 10
-374.106
 11
-358.561
 20
150
 21
150
  0
LINE
  8
0
 10
-358.561
 11
-358.561
 20
150
 21
146.999
  0
LINE
  8
0
 10
-358.561
 11
-346.001
 20
146.999
 21
146.999
  0
LINE
  8
0
 10
-346.001
 11
-346.001
 20
146.999
 21
116.662
  0
LINE
  8
0
 10
-346.001
 11
-343
 20
116.662
 21
116.662
  0
LINE
  8
0
 10
-343
 11
-343
 20
116.662
 21
83.338
  0
LINE
  8
0
 10
-343
 11
-346.001
 20
83.338
 21
83.338
  0
LINE
  8
0
 10
-346.001
 11
-346.001
 20
83.338
 21
49.995
  0
LINE
  8
0
 10
-346.001
 11
-343
 20
49.995
 21
49.995
  0
LINE
  8
0
 10
-343
 11
-343
 20
49.995
 21
16.672
  0
LINE
  8
0
 10
-343
 11
-346.001
 20
16.672
 21
16.672
  0
LINE
  8
0
 10
-346.001
 11
-346.001
 20
16.672
 21
-16.672
  0
LINE
  8
0
 10
-346.001
 11
-343
 20
-16.672
 21
-16.672
  0
LINE
  8
0
 10
-343
 11
-343
 20
-16.672
 21
-49.995
  0
LINE
  8
0
 10
-343
 11
-346.001
 20
-49.995
 21
-49.995
  0
LINE
  8
0
 10
-346.001
 11
-346.001
 20
-49.995
 21
-83.338
  0
LINE
  8
0
 10
-346.001
 11
-343
 20
-83.338
 21
-83.338
  0
LINE
  8
0
 10
-343
 11
-343
 20
-83.338
 21
-116.662
  0
LINE
  8
0
 10
-343
 11
-346.001
 20
-116.662
 21
-116.662
  0
LINE
  8
0
 10
-346.001
 11
-346.001
 20
-116.662
 21
-146.999
  0
LINE
  8
0
 10
-346.001
 11
-358.561
 20
-146.999
 21
-146.999
  0
LINE
  8
0
 10
-358.561
 11
-358.561
 20
-146.999
 21
-150
  0
LINE
  8
0
 10
-358.561
 11
-374.106
 20
-150
 21
-150
  0
LINE
  8
0
 10
-374.106
 11
-374.106
 20
-150
 21
-146.999
  0
LINE
  8
0
 10
-374.106
 11
-389.672
 20
-146.999
 21
-146.999
  0
LINE
  8
0
 10
-389.672
 11
-389.672
 20
-146.999
 21
-150
  0
LINE
  8
0
 10
-389.672
 11
-405.217
 20
-150
 21
-150
  0
LINE
  8
0
 10
-405.217
 11
-405.217
 20
-150
 21
-146.999
  0
LINE
  8
0
 10
-405.217
 11
-420.783
 20
-146.999
 21
-146.999
  0
LINE
  8
0
 10
-420.783
 11
-420.783
 20
-146.999
 21
-150
  0
LINE
  8
0
 10
-420.783
 11
-436.328
 20
-150
 21
-150
  0
LINE
  8
0
 10
-436.328
 11
-436.328
 20
-150
 21
-146.999
  0
LINE
  8
0
 10
-436.328
 11
-451.894
 20
-146.999
 21
-146.999
  0
LINE
  8
0
 10
-451.894
 11
-451.894
 20
-146.999
 21
-150
  0
LINE
  8
0
 10
-451.894
 11
-467.439
 20
-150
 21
-150
  0
LINE
  8
0
 10
-467.439
 11
-467.439
 20
-150
 21
-146.999
  0
LINE
  8
0
 10
-467.439
 11
-483
 20
-146.999
 21
-146.999
  0
LINE
  8
0
 10
-468.5
 11
-468.416
 20
50
 21
50.955
  0
LINE
  8
0
 10
-468.416
 11
-468.168
 20
50.955
 21
51.881
  0
LINE
  8
0
 10
-468.168
 11
-467.763
 20
51.881
 21
52.75
  0
LINE
  8
0
 10
-467.763
 11
-467.213
 20
52.75
 21
53.535
  0
LINE
  8
0
 10
-467.213
 11
-466.535
 20
53.535
 21
54.213
  0
LINE
  8
0
 10
-466.535
 11
-465.75
 20
54.213
 21
54.763
  0
LINE
  8
0
 10
-465.75
 11
-464.881
 20
54.763
 21
55.168
  0
LINE
  8
0
 10
-464.881
 11
-463.955
 20
55.168
 21
55.416
  0
LINE
  8
0
 10
-463.955
 11
-463
 20
55.416
 21
55.5
  0
LINE
  8
0
 10
-463
 11
-462.045
 20
55.5
 21
55.416
  0
LINE
  8
0
 10
-462.045
 11
-461.119
 20
55.416
 21
55.168
  0
LINE
  8
0
 10
-461.119
 11
-460.25
 20
55.168
 21
54.763
  0
LINE
  8
0
 10
-460.25
 11
-459.465
 20
54.763
 21
54.213
  0
LINE
  8
0
 10
-459.465
 11
-458.787
 20
54.213
 21
53.535
  0
LINE
  8
0
 10
-458.787
 11
-458.237
 20
53.535
 21
52.75
  0
LINE
  8
0
 10
-458.237
 11
-457.832
 20
52.75
 21
51.881
  0
LINE
  8
0
 10
-457.832
 11
-457.584
 20
51.881
 21
50.955
  0
LINE
  8
0
 10
-457.584
 11
-457.5
 20
50.955
 21
50
  0
LINE
  8
0
 10
-457.5
 11
-457.584
 20
50
 21
49.045
  0
LINE
  8
0
 10
-457.584
 11
-457.832
 20
49.045
 21
48.119
  0
LINE
  8
0
 10
-457.832
 11
-458.237
 20
48.119
 21
47.25
  0
LINE
  8
0
 10
-458.237
 11
-458.787
 20
47.25
 21
46.465
  0
LINE
  8
0
 10
-458.787
 11
-459.465
 20
46.465
 21
45.787
  0
LINE
  8
0
 10
-459.465
 11
-460.25
 20
45.787
 21
45.237
  0
LINE
  8
0
 10
-460.25
 11
-461.119
 20
45.237
 21
44.832
  0
LINE
  8
0
 10
-461.119
 11
-462.045
 20
44.832
 21
44.584
  0
LINE
  8
0
 10
-462.045
 11
-463
 20
44.584
 21
44.5
  0
LINE
  8
0
 10
-463
 11
-463.955
 20
44.5
 21
44.584
  0
LINE
  8
0
 10
-463.955
 11
-464.881
 20
44.584
 21
44.832
  0
LINE
  8
0
 10
-464.881
 11
-465.75
 20
44.832
 21
45.237
  0
LINE
  8
0
 10
-465.75
 11
-466.535
 20
45.237
 21
45.787
  0
LINE
  8
0
 10
-466.535
 11
-467.213
 20
45.787
 21
46.465
  0
LINE
  8
0
 10
-467.213
 11
-467.763
 20
46.465
 21
47.25
  0
LINE
  8
0
 10
-467.763
 11
-468.168
 20
47.25
 21
48.119
  0
LINE
  8
0
 10
-468.168
 11
-468.416
 20
48.119
 21
49.045
  0
LINE
  8
0
 10
-468.416
 11
-468.5
 20
49.045
 21
50
  0
LINE
  8
0
 10
-468.5
 11
-468.416
 20
120
 21
120.955
  0
LINE
  8
0
 10
-468.416
 11
-468.168
 20
120.955
 21
121.881
  0
LINE
  8
0
 10
-468.168
 11
-467.763
 20
121.881
 21
122.75
  0
LINE
  8
0
 10
-467.763
 11
-467.213
 20
122.75
 21
123.535
  0
LINE
  8
0
 10
-467.213
 11
-466.535
 20
123.535
 21
124.213
  0
LINE
  8
0
 10
-466.535
 11
-465.75
 20
124.213
 21
124.763
  0
LINE
  8
0
 10
-465.75
 11
-464.881
 20
124.763
 21
125.168
  0
LINE
  8
0
 10
-464.881
 11
-463.955
 20
125.168
 21
125.416
  0
LINE
  8
0
 10
-463.955
 11
-463
 20
125.416
 21
125.5
  0
LINE
  8
0
 10
-463
 11
-462.045
 20
125.5
 21
125.416
  0
LINE
  8
0
 10
-462.045
 11
-461.119
 20
125.416
 21
125.168
  0
LINE
  8
0
 10
-461.119
 11
-460.25
 20
125.168
 21
124.763
  0
LINE
  8
0
 10
-460.25
 11
-459.465
 20
124.763
 21
124.213
  0
LINE
  8
0
 10
-459.465
 11
-458.787
 20
124.213
 21
123.535
  0
LINE
  8
0
 10
-458.787
 11
-458.237
 20
123.535
 21
122.75
  0
LINE
  8
0
 10
-458.237
 11
-457.832
 20
122.75
 21
121.881
  0
LINE
  8
0
 10
-457.832
 11
-457.584
 20
121.881
 21
120.955
  0
LINE
  8
0
 10
-457.584
 11
-457.5
 20
120.955
 21
120
  0
LINE
  8
0
 10
-457.5
 11
-457.584
 20
120
 21
119.045
  0
LINE
  8
0
 10
-457.584
 11
-457.832
 20
119.045
 21
118.119
  0
LINE
  8
0
 10
-457.832
 11
-458.237
 20
118.119
 21
117.25
  0
LINE
  8
0
 10
-458.237
 11
-458.787
 20
117.25
 21
116.465
  0
LINE
  8
0
 10
-458.787
 11
-459.465
 20
116.465
 21
115.787
  0
LINE
  8
0
 10
-459.465
 11
-460.25
 20
115.787
 21
115.237
  0
LINE
  8
0
 10
-460.25
 11
-461.119
 20
115.237
 21
114.832
  0
LINE
  8
0
 10
-461.119
 11
-462.045
 20
114.832
 21
114.584
  0
LINE
  8
0
 10
-462.045
 11
-463
 20
114.584
 21
114.5
  0
LINE
  8
0
 10
-463
 11
-463.955
 20
114.5
 21
114.584
  0
LINE
  8
0
 10
-463.955
 11
-464.881
 20
114.584
 21
114.832
  0
LINE
  8
0
 10
-464.881
 11
-465.75
 20
114.832
 21
115.237
  0
LINE
  8
0
 10
-465.75
 11
-466.535
 20
115.237
 21
115.787
  0
LINE
  8
0
 10
-466.535
 11
-467.213
 20
115.787
 21
116.465
  0
LINE
  8
0
 10
-467.213
 11
-467.763
 20
116.465
 21
117.25
  0
LINE
  8
0
 10
-467.763
 11
-468.168
 20
117.25
 21
118.119
  0
LINE
  8
0
 10
-468.168
 11
-468.416
 20
118.119
 21
119.045
  0
LINE
  8
0
 10
-468.416
 11
-468.5
 20
119.045
 21
120
  0
LINE
  8
0
 10
-385.5
 11
-385.424
 20
158
 21
158.868
  0
LINE
  8
0
 10
-385.424
 11
-385.198
 20
158.868
 21
159.71
  0
LINE
  8
0
 10
-385.198
 11
-384.83
 20
159.71
 21
160.5
  0
LINE
  8
0
 10
-384.83
 11
-384.33
 20
160.5
 21
161.214
  0
LINE
  8
0
 10
-384.33
 11
-383.714
 20
161.214
 21
161.83
  0
LINE
  8
0
 10
-383.714
 11
-383
 20
161.83
 21
162.33
  0
LINE
  8
0
 10
-383
 11
-382.21
 20
162.33
 21
162.698
  0
LINE
  8
0
 10
-382.21
 11
-381.368
 20
162.698
 21
162.924
  0
LINE
  8
0
 10
-381.368
 11
-380.5
 20
162.924
 21
163
  0
LINE
  8
0
 10
-380.5
 11
-379.632
 20
163
 21
162.924
  0
LINE
  8
0
 10
-379.632
 11
-378.79
 20
162.924
 21
162.698
  0
LINE
  8
0
 10
-378.79
 11
-378
 20
162.698
 21
162.33
  0
LINE
  8
0
 10
-378
 11
-377.286
 20
162.33
 21
161.83
  0
LINE
  8
0
 10
-377.286
 11
-376.67
 20
161.83
 21
161.214
  0
LINE
  8
0
 10
-376.67
 11
-376.17
 20
161.214
 21
160.5
  0
LINE
  8
0
 10
-376.17
 11
-375.802
 20
160.5
 21
159.71
  0
LINE
  8
0
 10
-375.802
 11
-375.576
 20
159.71
 21
158.868
  0
LINE
  8
0
 10
-375.576
 11
-375.5
 20
158.868
 21
158
  0
LINE
  8
0
 10
-375.5
 11
-375.576
 20
158
 21
157.132
  0
LINE
  8
0
 10
-375.576
 11
-375.802
 20
157.132
 21
156.29
  0
LINE
  8
0
 10
-375.802
 11
-376.17
 20
156.29
 21
155.5
  0
LINE
  8
0
 10
-376.17
 11
-376.67
 20
155.5
 21
154.786
  0
LINE
  8
0
 10
-376.67
 11
-377.286
 20
154.786
 21
154.17
  0
LINE
  8
0
 10
-377.286
 11
-378
 20
154.17
 21
153.67
  0
LINE
  8
0
 10
-378
 11
-378.79
 20
153.67
 21
153.302
  0
LINE
  8
0
 10
-378.79
 11
-379.632
 20
153.302
 21
153.076
  0
LINE
  8
0
 10
-379.632
 11
-380.5
 20
153.076
 21
153
  0
LINE
  8
0
 10
-380.5
 11
-381.368
 20
153
 21
153.076
  0
LINE
  8
0
 10
-381.368
 11
-382.21
 20
153.076
 21
153.302
  0
LINE
  8
0
 10
-382.21
 11
-383
 20
153.302
 21
153.67
  0
LINE
  8
0
 10
-383
 11
-383.714
 20
153.67
 21
154.17
  0
LINE
  8
0
 10
-383.714
 11
-384.33
 20
154.17
 21
154.786
  0
LINE
  8
0
 10
-384.33
 11
-384.83
 20
154.786
 21
155.5
  0
LINE
  8
0
 10
-384.83
 11
-385.198
 20
155.5
 21
156.29
  0
LINE
  8
0
 10
-385.198
 11
-385.424
 20
156.29
 21
157.132
  0
LINE
  8
0
 10
-385.424
 11
-385.5
 20
157.132
 21
158
  0
LINE
  8
0
 10
-374
 11
-373.924
 20
158
 21
158.868
  0
LINE
  8
0
 10
-373.924
 11
-373.698
 20
158.868
 21
159.71
  0
LINE
  8
0
 10
-373.698
 11
-373.33
 20
159.71
 21
160.5
  0
LINE
  8
0
 10
-373.33
 11
-372.83
 20
160.5
 21
161.214
  0
LINE
  8
0
 10
-372.83
 11
-372.214
 20
161.214
 21
161.83
  0
LINE
  8
0
 10
-372.214
 11
-371.5
 20
161.83
 21
162.33
  0
LINE
  8
0
 10
-371.5
 11
-370.71
 20
162.33
 21
162.698
  0
LINE
  8
0
 10
-370.71
 11
-369.868
 20
162.698
 21
162.924
  0
LINE
  8
0
 10
-369.868
 11
-369
 20
162.924
 21
163
  0
LINE
  8
0
 10
-369
 11
-368.132
 20
163
 21
162.924
  0
LINE
  8
0
 10
-368.132
 11
-367.29
 20
162.924
 21
162.698
  0
LINE
  8
0
 10
-367.29
 11
-366.5
 20
162.698
 21
162.33
  0
LINE
  8
0
 10
-366.5
 11
-365.786
 20
162.33
 21
161.83
  0
LINE
  8
0
 10
-365.786
 11
-365.17
 20
161.83
 21
161.214
  0
LINE
  8
0
 10
-365.17
 11
-364.67
 20
161.214
 21
160.5
  0
LINE
  8
0
 10
-364.67
 11
-364.302
 20
160.5
 21
159.71
  0
LINE
  8
0
 10
-364.302
 11
-364.076
 20
159.71
 21
158.868
  0
LINE
  8
0
 10
-364.076
 11
-364
 20
158.868
 21
158
  0
LINE
  8
0
 10
-364
 11
-364.076
 20
158
 21
157.132
  0
LINE
  8
0
 10
-364.076
 11
-364.302
 20
157.132
 21
156.29
  0
LINE
  8
0
 10
-364.302
 11
-364.67
 20
156.29
 21
155.5
  0
LINE
  8
0
 10
-364.67
 11
-365.17
 20
155.5
 21
154.786
  0
LINE
  8
0
 10
-365.17
 11
-365.786
 20
154.786
 21
154.17
  0
LINE
  8
0
 10
-365.786
 11
-366.5
 20
154.17
 21
153.67
  0
LINE
  8
0
 10
-366.5
 11
-367.29
 20
153.67
 21
153.302
  0
LINE
  8
0
 10
-367.29
 11
-368.132
 20
153.302
 21
153.076
  0
LINE
  8
0
 10
-368.132
 11
-369
 20
153.076
 21
153
  0
LINE
  8
0
 10
-369
 11
-369.868
 20
153
 21
153.076
  0
LINE
  8
0
 10
-369.868
 11
-370.71
 20
153.076
 21
153.302
  0
LINE
  8
0
 10
-370.71
 11
-371.5
 20
153.302
 21
153.67
  0
LINE
  8
0
 10
-371.5
 11
-372.214
 20
153.67
 21
154.17
  0
LINE
  8
0
 10
-372.214
 11
-372.83
 20
154.17
 21
154.786
  0
LINE
  8
0
 10
-372.83
 11
-373.33
 20
154.786
 21
155.5
  0
LINE
  8
0
 10
-373.33
 11
-373.698
 20
155.5
 21
156.29
  0
LINE
  8
0
 10
-373.698
 11
-373.924
 20
156.29
 21
157.132
  0
LINE
  8
0
 10
-373.924
 11
-374
 20
157.132
 21
158
  0
LINE
  8
0
 10
-362.5
 11
-362.424
 20
158
 21
158.868
  0
LINE
  8
0
 10
-362.424
 11
-362.198
 20
158.868
 21
159.71
  0
LINE
  8
0
 10
-362.198
 11
-361.83
 20
159.71
 21
160.5
  0
LINE
  8
0
 10
-361.83
 11
-361.33
 20
160.5
 21
161.214
  0
LINE
  8
0
 10
-361.33
 11
-360.714
 20
161.214
 21
161.83
  0
LINE
  8
0
 10
-360.714
 11
-360
 20
161.83
 21
162.33
  0
LINE
  8
0
 10
-360
 11
-359.21
 20
162.33
 21
162.698
  0
LINE
  8
0
 10
-359.21
 11
-358.368
 20
162.698
 21
162.924
  0
LINE
  8
0
 10
-358.368
 11
-357.5
 20
162.924
 21
163
  0
LINE
  8
0
 10
-357.5
 11
-356.632
 20
163
 21
162.924
  0
LINE
  8
0
 10
-356.632
 11
-355.79
 20
162.924
 21
162.698
  0
LINE
  8
0
 10
-355.79
 11
-355
 20
162.698
 21
162.33
  0
LINE
  8
0
 10
-355
 11
-354.286
 20
162.33
 21
161.83
  0
LINE
  8
0
 10
-354.286
 11
-353.67
 20
161.83
 21
161.214
  0
LINE
  8
0
 10
-353.67
 11
-353.17
 20
161.214
 21
160.5
  0
LINE
  8
0
 10
-353.17
 11
-352.802
 20
160.5
 21
159.71
  0
LINE
  8
0
 10
-352.802
 11
-352.576
 20
159.71
 21
158.868
  0
LINE
  8
0
 10
-352.576
 11
-352.5
 20
158.868
 21
158
  0
LINE
  8
0
 10
-352.5
 11
-352.576
 20
158
 21
157.132
  0
LINE
  8
0
 10
-352.576
 11
-352.802
 20
157.132
 21
156.29
  0
LINE
  8
0
 10
-352.802
 11
-353.17
 20
156.29
 21
155.5
  0
LINE
  8
0
 10
-353.17
 11
-353.67
 20
155.5
 21
154.786
  0
LINE
  8
0
 10
-353.67
 11
-354.286
 20
154.786
 21
154.17
  0
LINE
  8
0
 10
-354.286
 11
-355
 20
154.17
 21
153.67
  0
LINE
  8
0
 10
-355
 11
-355.79
 20
153.67
 21
153.302
  0
LINE
  8
0
 10
-355.79
 11
-356.632
 20
153.302
 21
153.076
  0
LINE
  8
0
 10
-356.632
 11
-357.5
 20
153.076
 21
153
  0
LINE
  8
0
 10
-357.5
 11
-358.368
 20
153
 21
153.076
  0
LINE
  8
0
 10
-358.368
 11
-359.21
 20
153.076
 21
153.302
  0
LINE
  8
0
 10
-359.21
 11
-360
 20
153.302
 21
153.67
  0
LINE
  8
0
 10
-360
 11
-360.714
 20
153.67
 21
154.17
  0
LINE
  8
0
 10
-360.714
 11
-361.33
 20
154.17
 21
154.786
  0
LINE
  8
0
 10
-361.33
 11
-361.83
 20
154.786
 21
155.5
  0
LINE
  8
0
 10
-361.83
 11
-362.198
 20
155.5
 21
156.29
  0
LINE
  8
0
 10
-362.198
 11
-362.424
 20
156.29
 21
157.132
  0
LINE
  8
0
 10
-362.424
 11
-362.5
 20
157.132
 21
158
  0
LINE
  8
0
 10
-351
 11
-350.924
 20
158
 21
158.868
  0
LINE
  8
0
 10
-350.924
 11
-350.698
 20
158.868
 21
159.71
  0
LINE
  8
0
 10
-350.698
 11
-350.33
 20
159.71
 21
160.5
  0
LINE
  8
0
 10
-350.33
 11
-349.83
 20
160.5
 21
161.214
  0
LINE
  8
0
 10
-349.83
 11
-349.214
 20
161.214
 21
161.83
  0
LINE
  8
0
 10
-349.214
 11
-348.5
 20
161.83
 21
162.33
  0
LINE
  8
0
 10
-348.5
 11
-347.71
 20
162.33
 21
162.698
  0
LINE
  8
0
 10
-347.71
 11
-346.868
 20
162.698
 21
162.924
  0
LINE
  8
0
 10
-346.868
 11
-346
 20
162.924
 21
163
  0
LINE
  8
0
 10
-346
 11
-345.132
 20
163
 21
162.924
  0
LINE
  8
0
 10
-345.132
 11
-344.29
 20
162.924
 21
162.698
  0
LINE
  8
0
 10
-344.29
 11
-343.5
 20
162.698
 21
162.33
  0
LINE
  8
0
 10
-343.5
 11
-342.786
 20
162.33
 21
161.83
  0
LINE
  8
0
 10
-342.786
 11
-342.17
 20
161.83
 21
161.214
  0
LINE
  8
0
 10
-342.17
 11
-341.67
 20
161.214
 21
160.5
  0
LINE
  8
0
 10
-341.67
 11
-341.302
 20
160.5
 21
159.71
  0
LINE
  8
0
 10
-341.302
 11
-341.076
 20
159.71
 21
158.868
  0
LINE
  8
0
 10
-341.076
 11
-341
 20
158.868
 21
158
  0
LINE
  8
0
 10
-341
 11
-341.076
 20
158
 21
157.132
  0
LINE
  8
0
 10
-341.076
 11
-341.302
 20
157.132
 21
156.29
  0
LINE
  8
0
 10
-341.302
 11
-341.67
 20
156.29
 21
155.5
  0
LINE
  8
0
 10
-341.67
 11
-342.17
 20
155.5
 21
154.786
  0
LINE
  8
0
 10
-342.17
 11
-342.786
 20
154.786
 21
154.17
  0
LINE
  8
0
 10
-342.786
 11
-343.5
 20
154.17
 21
153.67
  0
LINE
  8
0
 10
-343.5
 11
-344.29
 20
153.67
 21
153.302
  0
LINE
  8
0
 10
-344.29
 11
-345.132
 20
153.302
 21
153.076
  0
LINE
  8
0
 10
-345.132
 11
-346
 20
153.076
 21
153
  0
LINE
  8
0
 10
-346
 11
-346.868
 20
153
 21
153.076
  0
LINE
  8
0
 10
-346.868
 11
-347.71
 20
153.076
 21
153.302
  0
LINE
  8
0
 10
-347.71
 11
-348.5
 20
153.302
 21
153.67
  0
LINE
  8
0
 10
-348.5
 11
-349.214
 20
153.67
 21
154.17
  0
LINE
  8
0
 10
-349.214
 11
-349.83
 20
154.17
 21
154.786
  0
LINE
  8
0
 10
-349.83
 11
-350.33
 20
154.786
 21
155.5
  0
LINE
  8
0
 10
-350.33
 11
-350.698
 20
155.5
 21
156.29
  0
LINE
  8
0
 10
-350.698
 11
-350.924
 20
156.29
 21
157.132
  0
LINE
  8
0
 10
-350.924
 11
-351
 20
157.132
 21
158
  0
LINE
  8
0
 10
-341.5
 11
-341.5
 20
-146.999
 21
-107.148
  0
LINE
  8
0
 10
-341.5
 11
-338.5
 20
-107.148
 21
-107.148
  0
LINE
  8
0
 10
-338.5
 11
-338.5
 20
-107.148
 21
-64.281
  0
LINE
  8
0
 10
-338.5
 11
-341.5
 20
-64.281
 21
-64.281
  0
LINE
  8
0
 10
-341.5
 11
-341.5
 20
-64.281
 21
-21.434
  0
LINE
  8
0
 10
-341.5
 11
-338.5
 20
-21.434
 21
-21.434
  0
LINE
  8
0
 10
-338.5
 11
-338.5
 20
-21.434
 21
21.434
  0
LINE
  8
0
 10
-338.5
 11
-341.5
 20
21.434
 21
21.434
  0
LINE
  8
0
 10
-341.5
 11
-341.5
 20
21.434
 21
64.281
  0
LINE
  8
0
 10
-341.5
 11
-338.5
 20
64.281
 21
64.281
  0
LINE
  8
0
 10
-338.5
 11
-338.5
 20
64.281
 21
107.148
  0
LINE
  8
0
 10
-338.5
 11
-341.5
 20
107.148
 21
107.148
  0
LINE
  8
0
 10
-341.5
 11
-341.5
 20
107.148
 21
146.999
  0
LINE
  8
0
 10
-341.5
 11
-325.939
 20
146.999
 21
146.999
  0
LINE
  8
0
 10
-325.939
 11
-325.939
 20
146.999
 21
150
  0
LINE
  8
0
 10
-325.939
 11
-310.394
 20
150
 21
150
  0
LINE
  8
0
 10
-310.394
 11
-310.394
 20
150
 21
146.999
  0
LINE
  8
0
 10
-310.394
 11
-294.828
 20
146.999
 21
146.999
  0
LINE
  8
0
 10
-294.828
 11
-294.828
 20
146.999
 21
150
  0
LINE
  8
0
 10
-294.828
 11
-279.283
 20
150
 21
150
  0
LINE
  8
0
 10
-279.283
 11
-279.283
 20
150
 21
146.999
  0
LINE
  8
0
 10
-279.283
 11
-263.717
 20
146.999
 21
146.999
  0
LINE
  8
0
 10
-263.717
 11
-263.717
 20
146.999
 21
150
  0
LINE
  8
0
 10
-263.717
 11
-248.172
 20
150
 21
150
  0
LINE
  8
0
 10
-248.172
 11
-248.172
 20
150
 21
146.999
  0
LINE
  8
0
 10
-248.172
 11
-232.606
 20
146.999
 21
146.999
  0
LINE
  8
0
 10
-232.606
 11
-232.606
 20
146.999
 21
150
  0
LINE
  8
0
 10
-232.606
 11
-217.061
 20
150
 21
150
  0
LINE
  8
0
 10
-217.061
 11
-217.061
 20
150
 21
146.999
  0
LINE
  8
0
 10
-217.061
 11
-201.5
 20
146.999
 21
146.999
  0
LINE
  8
0
 10
-201.5
 11
-201.5
 20
146.999
 21
-146.999
  0
LINE
  8
0
 10
-201.5
 11
-217.061
 20
-146.999
 21
-146.999
  0
LINE
  8
0
 10
-217.061
 11
-217.061
 20
-146.999
 21
-150
  0
LINE
  8
0
 10
-217.061
 11
-232.606
 20
-150
 21
-150
  0
LINE
  8
0
 10
-232.606
 11
-232.606
 20
-150
 21
-146.999
  0
LINE
  8
0
 10
-232.606
 11
-248.172
 20
-146.999
 21
-146.999
  0
LINE
  8
0
 10
-248.172
 11
-248.172
 20
-146.999
 21
-150
  0
LINE
  8
0
 10
-248.172
 11
-263.717
 20
-150
 21
-150
  0
LINE
  8
0
 10
-263.717
 11
-263.717
 20
-150
 21
-146.999
  0
LINE
  8
0
 10
-263.717
 11
-279.283
 20
-146.999
 21
-146.999
  0
LINE
  8
0
 10
-279.283
 11
-279.283
 20
-146.999
 21
-150
  0
LINE
  8
0
 10
-279.283
 11
-294.828
 20
-150
 21
-150
  0
LINE
  8
0
 10
-294.828
 11
-294.828
 20
-150
 21
-146.999
  0
LINE
  8
0
 10
-294.828
 11
-310.394
 20
-146.999
 21
-146.999
  0
LINE
  8
0
 10
-310.394
 11
-310.394
 20
-146.999
 21
-150
  0
LINE
  8
0
 10
-310.394
 11
-325.939
 20
-150
 21
-150
  0
LINE
  8
0
 10
-325.939
 11
-325.939
 20
-150
 21
-146.999
  0
LINE
  8
0
 10
-325.939
 11
-341.5
 20
-146.999
 21
-146.999
  0
LINE
  8
0
 10
-339.5
 11
-339.424
 20
158
 21
158.868
  0
LINE
  8
0
 10
-339.424
 11
-339.198
 20
158.868
 21
159.71
  0
LINE
  8
0
 10
-339.198
 11
-338.83
 20
159.71
 21
160.5
  0
LINE
  8
0
 10
-338.83
 11
-338.33
 20
160.5
 21
161.214
  0
LINE
  8
0
 10
-338.33
 11
-337.714
 20
161.214
 21
161.83
  0
LINE
  8
0
 10
-337.714
 11
-337
 20
161.83
 21
162.33
  0
LINE
  8
0
 10
-337
 11
-336.21
 20
162.33
 21
162.698
  0
LINE
  8
0
 10
-336.21
 11
-335.368
 20
162.698
 21
162.924
  0
LINE
  8
0
 10
-335.368
 11
-334.5
 20
162.924
 21
163
  0
LINE
  8
0
 10
-334.5
 11
-333.632
 20
163
 21
162.924
  0
LINE
  8
0
 10
-333.632
 11
-332.79
 20
162.924
 21
162.698
  0
LINE
  8
0
 10
-332.79
 11
-332
 20
162.698
 21
162.33
  0
LINE
  8
0
 10
-332
 11
-331.286
 20
162.33
 21
161.83
  0
LINE
  8
0
 10
-331.286
 11
-330.67
 20
161.83
 21
161.214
  0
LINE
  8
0
 10
-330.67
 11
-330.17
 20
161.214
 21
160.5
  0
LINE
  8
0
 10
-330.17
 11
-329.802
 20
160.5
 21
159.71
  0
LINE
  8
0
 10
-329.802
 11
-329.576
 20
159.71
 21
158.868
  0
LINE
  8
0
 10
-329.576
 11
-329.5
 20
158.868
 21
158
  0
LINE
  8
0
 10
-329.5
 11
-329.576
 20
158
 21
157.132
  0
LINE
  8
0
 10
-329.576
 11
-329.802
 20
157.132
 21
156.29
  0
LINE
  8
0
 10
-329.802
 11
-330.17
 20
156.29
 21
155.5
  0
LINE
  8
0
 10
-330.17
 11
-330.67
 20
155.5
 21
154.786
  0
LINE
  8
0
 10
-330.67
 11
-331.286
 20
154.786
 21
154.17
  0
LINE
  8
0
 10
-331.286
 11
-332
 20
154.17
 21
153.67
  0
LINE
  8
0
 10
-332
 11
-332.79
 20
153.67
 21
153.302
  0
LINE
  8
0
 10
-332.79
 11
-333.632
 20
153.302
 21
153.076
  0
LINE
  8
0
 10
-333.632
 11
-334.5
 20
153.076
 21
153
  0
LINE
  8
0
 10
-334.5
 11
-335.368
 20
153
 21
153.076
  0
LINE
  8
0
 10
-335.368
 11
-336.21
 20
153.076
 21
153.302
  0
LINE
  8
0
 10
-336.21
 11
-337
 20
153.302
 21
153.67
  0
LINE
  8
0
 10
-337
 11
-337.714
 20
153.67
 21
154.17
  0
LINE
  8
0
 10
-337.714
 11
-338.33
 20
154.17
 21
154.786
  0
LINE
  8
0
 10
-338.33
 11
-338.83
 20
154.786
 21
155.5
  0
LINE
  8
0
 10
-338.83
 11
-339.198
 20
155.5
 21
156.29
  0
LINE
  8
0
 10
-339.198
 11
-339.424
 20
156.29
 21
157.132
  0
LINE
  8
0
 10
-339.424
 11
-339.5
 20
157.132
 21
158
  0
LINE
  8
0
 10
-328
 11
-327.924
 20
158
 21
158.868
  0
LINE
  8
0
 10
-327.924
 11
-327.698
 20
158.868
 21
159.71
  0
LINE
  8
0
 10
-327.698
 11
-327.33
 20
159.71
 21
160.5
  0
LINE
  8
0
 10
-327.33
 11
-326.83
 20
160.5
 21
161.214
  0
LINE
  8
0
 10
-326.83
 11
-326.214
 20
161.214
 21
161.83
  0
LINE
  8
0
 10
-326.214
 11
-325.5
 20
161.83
 21
162.33
  0
LINE
  8
0
 10
-325.5
 11
-324.71
 20
162.33
 21
162.698
  0
LINE
  8
0
 10
-324.71
 11
-323.868
 20
162.698
 21
162.924
  0
LINE
  8
0
 10
-323.868
 11
-323
 20
162.924
 21
163
  0
LINE
  8
0
 10
-323
 11
-322.132
 20
163
 21
162.924
  0
LINE
  8
0
 10
-322.132
 11
-321.29
 20
162.924
 21
162.698
  0
LINE
  8
0
 10
-321.29
 11
-320.5
 20
162.698
 21
162.33
  0
LINE
  8
0
 10
-320.5
 11
-319.786
 20
162.33
 21
161.83
  0
LINE
  8
0
 10
-319.786
 11
-319.17
 20
161.83
 21
161.214
  0
LINE
  8
0
 10
-319.17
 11
-318.67
 20
161.214
 21
160.5
  0
LINE
  8
0
 10
-318.67
 11
-318.302
 20
160.5
 21
159.71
  0
LINE
  8
0
 10
-318.302
 11
-318.076
 20
159.71
 21
158.868
  0
LINE
  8
0
 10
-318.076
 11
-318
 20
158.868
 21
158
  0
LINE
  8
0
 10
-318
 11
-318.076
 20
158
 21
157.132
  0
LINE
  8
0
 10
-318.076
 11
-318.302
 20
157.132
 21
156.29
  0
LINE
  8
0
 10
-318.302
 11
-318.67
 20
156.29
 21
155.5
  0
LINE
  8
0
 10
-318.67
 11
-319.17
 20
155.5
 21
154.786
  0
LINE
  8
0
 10
-319.17
 11
-319.786
 20
154.786
 21
154.17
  0
LINE
  8
0
 10
-319.786
 11
-320.5
 20
154.17
 21
153.67
  0
LINE
  8
0
 10
-320.5
 11
-321.29
 20
153.67
 21
153.302
  0
LINE
  8
0
 10
-321.29
 11
-322.132
 20
153.302
 21
153.076
  0
LINE
  8
0
 10
-322.132
 11
-323
 20
153.076
 21
153
  0
LINE
  8
0
 10
-323
 11
-323.868
 20
153
 21
153.076
  0
LINE
  8
0
 10
-323.868
 11
-324.71
 20
153.076
 21
153.302
  0
LINE
  8
0
 10
-324.71
 11
-325.5
 20
153.302
 21
153.67
  0
LINE
  8
0
 10
-325.5
 11
-326.214
 20
153.67
 21
154.17
  0
LINE
  8
0
 10
-326.214
 11
-326.83
 20
154.17
 21
154.786
  0
LINE
  8
0
 10
-326.83
 11
-327.33
 20
154.786
 21
155.5
  0
LINE
  8
0
 10
-327.33
 11
-327.698
 20
155.5
 21
156.29
  0
LINE
  8
0
 10
-327.698
 11
-327.924
 20
156.29
 21
157.132
  0
LINE
  8
0
 10
-327.924
 11
-328
 20
157.132
 21
158
  0
LINE
  8
0
 10
-316.5
 11
-316.424
 20
158
 21
158.868
  0
LINE
  8
0
 10
-316.424
 11
-316.198
 20
158.868
 21
159.71
  0
LINE
  8
0
 10
-316.198
 11
-315.83
 20
159.71
 21
160.5
  0
LINE
  8
0
 10
-315.83
 11
-315.33
 20
160.5
 21
161.214
  0
LINE
  8
0
 10
-315.33
 11
-314.714
 20
161.214
 21
161.83
  0
LINE
  8
0
 10
-314.714
 11
-314
 20
161.83
 21
162.33
  0
LINE
  8
0
 10
-314
 11
-313.21
 20
162.33
 21
162.698
  0
LINE
  8
0
 10
-313.21
 11
-312.368
 20
162.698
 21
162.924
  0
LINE
  8
0
 10
-312.368
 11
-311.5
 20
162.924
 21
163
  0
LINE
  8
0
 10
-311.5
 11
-310.632
 20
163
 21
162.924
  0
LINE
  8
0
 10
-310.632
 11
-309.79
 20
162.924
 21
162.698
  0
LINE
  8
0
 10
-309.79
 11
-309
 20
162.698
 21
162.33
  0
LINE
  8
0
 10
-309
 11
-308.286
 20
162.33
 21
161.83
  0
LINE
  8
0
 10
-308.286
 11
-307.67
 20
161.83
 21
161.214
  0
LINE
  8
0
 10
-307.67
 11
-307.17
 20
161.214
 21
160.5
  0
LINE
  8
0
 10
-307.17
 11
-306.802
 20
160.5
 21
159.71
  0
LINE
  8
0
 10
-306.802
 11
-306.576
 20
159.71
 21
158.868
  0
LINE
  8
0
 10
-306.576
 11
-306.5
 20
158.868
 21
158
  0
LINE
  8
0
 10
-306.5
 11
-306.576
 20
158
 21
157.132
  0
LINE
  8
0
 10
-306.576
 11
-306.802
 20
157.132
 21
156.29
  0
LINE
  8
0
 10
-306.802
 11
-307.17
 20
156.29
 21
155.5
  0
LINE
  8
0
 10
-307.17
 11
-307.67
 20
155.5
 21
154.786
  0
LINE
  8
0
 10
-307.67
 11
-308.286
 20
154.786
 21
154.17
  0
LINE
  8
0
 10
-308.286
 11
-309
 20
154.17
 21
153.67
  0
LINE
  8
0
 10
-309
 11
-309.79
 20
153.67
 21
153.302
  0
LINE
  8
0
 10
-309.79
 11
-310.632
 20
153.302
 21
153.076
  0
LINE
  8
0
 10
-310.632
 11
-311.5
 20
153.076
 21
153
  0
LINE
  8
0
 10
-311.5
 11
-312.368
 20
153
 21
153.076
  0
LINE
  8
0
 10
-312.368
 11
-313.21
 20
153.076
 21
153.302
  0
LINE
  8
0
 10
-313.21
 11
-314
 20
153.302
 21
153.67
  0
LINE
  8
0
 10
-314
 11
-314.714
 20
153.67
 21
154.17
  0
LINE
  8
0
 10
-314.714
 11
-315.33
 20
154.17
 21
154.786
  0
LINE
  8
0
 10
-315.33
 11
-315.83
 20
154.786
 21
155.5
  0
LINE
  8
0
 10
-315.83
 11
-316.198
 20
155.5
 21
156.29
  0
LINE
  8
0
 10
-316.198
 11
-316.424
 20
156.29
 21
157.132
  0
LINE
  8
0
 10
-316.424
 11
-316.5
 20
157.132
 21
158
  0
LINE
  8
0
 10
-305
 11
-304.924
 20
158
 21
158.868
  0
LINE
  8
0
 10
-304.924
 11
-304.698
 20
158.868
 21
159.71
  0
LINE
  8
0
 10
-304.698
 11
-304.33
 20
159.71
 21
160.5
  0
LINE
  8
0
 10
-304.33
 11
-303.83
 20
160.5
 21
161.214
  0
LINE
  8
0
 10
-303.83
 11
-303.214
 20
161.214
 21
161.83
  0
LINE
  8
0
 10
-303.214
 11
-302.5
 20
161.83
 21
162.33
  0
LINE
  8
0
 10
-302.5
 11
-301.71
 20
162.33
 21
162.698
  0
LINE
  8
0
 10
-301.71
 11
-300.868
 20
162.698
 21
162.924
  0
LINE
  8
0
 10
-300.868
 11
-300
 20
162.924
 21
163
  0
LINE
  8
0
 10
-300
 11
-299.132
 20
163
 21
162.924
  0
LINE
  8
0
 10
-299.132
 11
-298.29
 20
162.924
 21
162.698
  0
LINE
  8
0
 10
-298.29
 11
-297.5
 20
162.698
 21
162.33
  0
LINE
  8
0
 10
-297.5
 11
-296.786
 20
162.33
 21
161.83
  0
LINE
  8
0
 10
-296.786
 11
-296.17
 20
161.83
 21
161.214
  0
LINE
  8
0
 10
-296.17
 11
-295.67
 20
161.214
 21
160.5
  0
LINE
  8
0
 10
-295.67
 11
-295.302
 20
160.5
 21
159.71
  0
LINE
  8
0
 10
-295.302
 11
-295.076
 20
159.71
 21
158.868
  0
LINE
  8
0
 10
-295.076
 11
-295
 20
158.868
 21
158
  0
LINE
  8
0
 10
-295
 11
-295.076
 20
158
 21
157.132
  0
LINE
  8
0
 10
-295.076
 11
-295.302
 20
157.132
 21
156.29
  0
LINE
  8
0
 10
-295.302
 11
-295.67
 20
156.29
 21
155.5
  0
LINE
  8
0
 10
-295.67
 11
-296.17
 20
155.5
 21
154.786
  0
LINE
  8
0
 10
-296.17
 11
-296.786
 20
154.786
 21
154.17
  0
LINE
  8
0
 10
-296.786
 11
-297.5
 20
154.17
 21
153.67
  0
LINE
  8
0
 10
-297.5
 11
-298.29
 20
153.67
 21
153.302
  0
LINE
  8
0
 10
-298.29
 11
-299.132
 20
153.302
 21
153.076
  0
LINE
  8
0
 10
-299.132
 11
-300
 20
153.076
 21
153
  0
LINE
  8
0
 10
-300
 11
-300.868
 20
153
 21
153.076
  0
LINE
  8
0
 10
-300.868
 11
-301.71
 20
153.076
 21
153.302
  0
LINE
  8
0
 10
-301.71
 11
-302.5
 20
153.302
 21
153.67
  0
LINE
  8
0
 10
-302.5
 11
-303.214
 20
153.67
 21
154.17
  0
LINE
  8
0
 10
-303.214
 11
-303.83
 20
154.17
 21
154.786
  0
LINE
  8
0
 10
-303.83
 11
-304.33
 20
154.786
 21
155.5
  0
LINE
  8
0
 10
-304.33
 11
-304.698
 20
155.5
 21
156.29
  0
LINE
  8
0
 10
-304.698
 11
-304.924
 20
156.29
 21
157.132
  0
LINE
  8
0
 10
-304.924
 11
-305
 20
157.132
 21
158
  0
LINE
  8
0
 10
-293.5
 11
-293.424
 20
158
 21
158.868
  0
LINE
  8
0
 10
-293.424
 11
-293.198
 20
158.868
 21
159.71
  0
LINE
  8
0
 10
-293.198
 11
-292.83
 20
159.71
 21
160.5
  0
LINE
  8
0
 10
-292.83
 11
-292.33
 20
160.5
 21
161.214
  0
LINE
  8
0
 10
-292.33
 11
-291.714
 20
161.214
 21
161.83
  0
LINE
  8
0
 10
-291.714
 11
-291
 20
161.83
 21
162.33
  0
LINE
  8
0
 10
-291
 11
-290.21
 20
162.33
 21
162.698
  0
LINE
  8
0
 10
-290.21
 11
-289.368
 20
162.698
 21
162.924
  0
LINE
  8
0
 10
-289.368
 11
-288.5
 20
162.924
 21
163
  0
LINE
  8
0
 10
-288.5
 11
-287.632
 20
163
 21
162.924
  0
LINE
  8
0
 10
-287.632
 11
-286.79
 20
162.924
 21
162.698
  0
LINE
  8
0
 10
-286.79
 11
-286
 20
162.698
 21
162.33
  0
LINE
  8
0
 10
-286
 11
-285.286
 20
162.33
 21
161.83
  0
LINE
  8
0
 10
-285.286
 11
-284.67
 20
161.83
 21
161.214
  0
LINE
  8
0
 10
-284.67
 11
-284.17
 20
161.214
 21
160.5
  0
LINE
  8
0
 10
-284.17
 11
-283.802
 20
160.5
 21
159.71
  0
LINE
  8
0
 10
-283.802
 11
-283.576
 20
159.71
 21
158.868
  0
LINE
  8
0
 10
-283.576
 11
-283.5
 20
158.868
 21
158
  0
LINE
  8
0
 10
-283.5
 11
-283.576
 20
158
 21
157.132
  0
LINE
  8
0
 10
-283.576
 11
-283.802
 20
157.132
 21
156.29
  0
LINE
  8
0
 10
-283.802
 11
-284.17
 20
156.29
 21
155.5
  0
LINE
  8
0
 10
-284.17
 11
-284.67
 20
155.5
 21
154.786
  0
LINE
  8
0
 10
-284.67
 11
-285.286
 20
154.786
 21
154.17
  0
LINE
  8
0
 10
-285.286
 11
-286
 20
154.17
 21
153.67
  0
LINE
  8
0
 10
-286
 11
-286.79
 20
153.67
 21
153.302
  0
LINE
  8
0
 10
-286.79
 11
-287.632
 20
153.302
 21
153.076
  0
LINE
  8
0
 10
-287.632
 11
-288.5
 20
153.076
 21
153
  0
LINE
  8
0
 10
-288.5
 11
-289.368
 20
153
 21
153.076
  0
LINE
  8
0
 10
-289.368
 11
-290.21
 20
153.076
 21
153.302
  0
LINE
  8
0
 10
-290.21
 11
-291
 20
153.302
 21
153.67
  0
LINE
  8
0
 10
-291
 11
-291.714
 20
153.67
 21
154.17
  0
LINE
  8
0
 10
-291.714
 11
-292.33
 20
154.17
 21
154.786
  0
LINE
  8
0
 10
-292.33
 11
-292.83
 20
154.786
 21
155.5
  0
LINE
  8
0
 10
-292.83
 11
-293.198
 20
155.5
 21
156.29
  0
LINE
  8
0
 10
-293.198
 11
-293.424
 20
156.29
 21
157.132
  0
LINE
  8
0
 10
-293.424
 11
-293.5
 20
157.132
 21
158
  0
LINE
  8
0
 10
-282
 11
-281.924
 20
158
 21
158.868
  0
LINE
  8
0
 10
-281.924
 11
-281.698
 20
158.868
 21
159.71
  0
LINE
  8
0
 10
-281.698
 11
-281.33
 20
159.71
 21
160.5
  0
LINE
  8
0
 10
-281.33
 11
-280.83
 20
160.5
 21
161.214
  0
LINE
  8
0
 10
-280.83
 11
-280.214
 20
161.214
 21
161.83
  0
LINE
  8
0
 10
-280.214
 11
-279.5
 20
161.83
 21
162.33
  0
LINE
  8
0
 10
-279.5
 11
-278.71
 20
162.33
 21
162.698
  0
LINE
  8
0
 10
-278.71
 11
-277.868
 20
162.698
 21
162.924
  0
LINE
  8
0
 10
-277.868
 11
-277
 20
162.924
 21
163
  0
LINE
  8
0
 10
-277
 11
-276.132
 20
163
 21
162.924
  0
LINE
  8
0
 10
-276.132
 11
-275.29
 20
162.924
 21
162.698
  0
LINE
  8
0
 10
-275.29
 11
-274.5
 20
162.698
 21
162.33
  0
LINE
  8
0
 10
-274.5
 11
-273.786
 20
162.33
 21
161.83
  0
LINE
  8
0
 10
-273.786
 11
-273.17
 20
161.83
 21
161.214
  0
LINE
  8
0
 10
-273.17
 11
-272.67
 20
161.214
 21
160.5
  0
LINE
  8
0
 10
-272.67
 11
-272.302
 20
160.5
 21
159.71
  0
LINE
  8
0
 10
-272.302
 11
-272.076
 20
159.71
 21
158.868
  0
LINE
  8
0
 10
-272.076
 11
-272
 20
158.868
 21
158
  0
LINE
  8
0
 10
-272
 11
-272.076
 20
158
 21
157.132
  0
LINE
  8
0
 10
-272.076
 11
-272.302
 20
157.132
 21
156.29
  0
LINE
  8
0
 10
-272.302
 11
-272.67
 20
156.29
 21
155.5
  0
LINE
  8
0
 10
-272.67
 11
-273.17
 20
155.5
 21
154.786
  0
LINE
  8
0
 10
-273.17
 11
-273.786
 20
154.786
 21
154.17
  0
LINE
  8
0
 10
-273.786
 11
-274.5
 20
154.17
 21
153.67
  0
LINE
  8
0
 10
-274.5
 11
-275.29
 20
153.67
 21
153.302
  0
LINE
  8
0
 10
-275.29
 11
-276.132
 20
153.302
 21
153.076
  0
LINE
  8
0
 10
-276.132
 11
-277
 20
153.076
 21
153
  0
LINE
  8
0
 10
-277
 11
-277.868
 20
153
 21
153.076
  0
LINE
  8
0
 10
-277.868
 11
-278.71
 20
153.076
 21
153.302
  0
LINE
  8
0
 10
-278.71
 11
-279.5
 20
153.302
 21
153.67
  0
LINE
  8
0
 10
-279.5
 11
-280.214
 20
153.67
 21
154.17
  0
LINE
  8
0
 10
-280.214
 11
-280.83
 20
154.17
 21
154.786
  0
LINE
  8
0
 10
-280.83
 11
-281.33
 20
154.786
 21
155.5
  0
LINE
  8
0
 10
-281.33
 11
-281.698
 20
155.5
 21
156.29
  0
LINE
  8
0
 10
-281.698
 11
-281.924
 20
156.29
 21
157.132
  0
LINE
  8
0
 10
-281.924
 11
-282
 20
157.132
 21
158
  0
LINE
  8
0
 10
-270.5
 11
-270.424
 20
158
 21
158.868
  0
LINE
  8
0
 10
-270.424
 11
-270.198
 20
158.868
 21
159.71
  0
LINE
  8
0
 10
-270.198
 11
-269.83
 20
159.71
 21
160.5
  0
LINE
  8
0
 10
-269.83
 11
-269.33
 20
160.5
 21
161.214
  0
LINE
  8
0
 10
-269.33
 11
-268.714
 20
161.214
 21
161.83
  0
LINE
  8
0
 10
-268.714
 11
-268
 20
161.83
 21
162.33
  0
LINE
  8
0
 10
-268
 11
-267.21
 20
162.33
 21
162.698
  0
LINE
  8
0
 10
-267.21
 11
-266.368
 20
162.698
 21
162.924
  0
LINE
  8
0
 10
-266.368
 11
-265.5
 20
162.924
 21
163
  0
LINE
  8
0
 10
-265.5
 11
-264.632
 20
163
 21
162.924
  0
LINE
  8
0
 10
-264.632
 11
-263.79
 20
162.924
 21
162.698
  0
LINE
  8
0
 10
-263.79
 11
-263
 20
162.698
 21
162.33
  0
LINE
  8
0
 10
-263
 11
-262.286
 20
162.33
 21
161.83
  0
LINE
  8
0
 10
-262.286
 11
-261.67
 20
161.83
 21
161.214
  0
LINE
  8
0
 10
-261.67
 11
-261.17
 20
161.214
 21
160.5
  0
LINE
  8
0
 10
-261.17
 11
-260.802
 20
160.5
 21
159.71
  0
LINE
  8
0
 10
-260.802
 11
-260.576
 20
159.71
 21
158.868
  0
LINE
  8
0
 10
-260.576
 11
-260.5
 20
158.868
 21
158
  0
LINE
  8
0
 10
-260.5
 11
-260.576
 20
158
 21
157.132
  0
LINE
  8
0
 10
-260.576
 11
-260.802
 20
157.132
 21
156.29
  0
LINE
  8
0
 10
-260.802
 11
-261.17
 20
156.29
 21
155.5
  0
LINE
  8
0
 10
-261.17
 11
-261.67
 20
155.5
 21
154.786
  0
LINE
  8
0
 10
-261.67
 11
-262.286
 20
154.786
 21
154.17
  0
LINE
  8
0
 10
-262.286
 11
-263
 20
154.17
 21
153.67
  0
LINE
  8
0
 10
-263
 11
-263.79
 20
153.67
 21
153.302
  0
LINE
  8
0
 10
-263.79
 11
-264.632
 20
153.302
 21
153.076
  0
LINE
  8
0
 10
-264.632
 11
-265.5
 20
153.076
 21
153
  0
LINE
  8
0
 10
-265.5
 11
-266.368
 20
153
 21
153.076
  0
LINE
  8
0
 10
-266.368
 11
-267.21
 20
153.076
 21
153.302
  0
LINE
  8
0
 10
-267.21
 11
-268
 20
153.302
 21
153.67
  0
LINE
  8
0
 10
-268
 11
-268.714
 20
153.67
 21
154.17
  0
LINE
  8
0
 10
-268.714
 11
-269.33
 20
154.17
 21
154.786
  0
LINE
  8
0
 10
-269.33
 11
-269.83
 20
154.786
 21
155.5
  0
LINE
  8
0
 10
-269.83
 11
-270.198
 20
155.5
 21
156.29
  0
LINE
  8
0
 10
-270.198
 11
-270.424
 20
156.29
 21
157.132
  0
LINE
  8
0
 10
-270.424
 11
-270.5
 20
157.132
 21
158
  0
LINE
  8
0
 10
-259
 11
-258.924
 20
158
 21
158.868
  0
LINE
  8
0
 10
-258.924
 11
-258.698
 20
158.868
 21
159.71
  0
LINE
  8
0
 10
-258.698
 11
-258.33
 20
159.71
 21
160.5
  0
LINE
  8
0
 10
-258.33
 11
-257.83
 20
160.5
 21
161.214
  0
LINE
  8
0
 10
-257.83
 11
-257.214
 20
161.214
 21
161.83
  0
LINE
  8
0
 10
-257.214
 11
-256.5
 20
161.83
 21
162.33
  0
LINE
  8
0
 10
-256.5
 11
-255.71
 20
162.33
 21
162.698
  0
LINE
  8
0
 10
-255.71
 11
-254.868
 20
162.698
 21
162.924
  0
LINE
  8
0
 10
-254.868
 11
-254
 20
162.924
 21
163
  0
LINE
  8
0
 10
-254
 11
-253.132
 20
163
 21
162.924
  0
LINE
  8
0
 10
-253.132
 11
-252.29
 20
162.924
 21
162.698
  0
LINE
  8
0
 10
-252.29
 11
-251.5
 20
162.698
 21
162.33
  0
LINE
  8
0
 10
-251.5
 11
-250.786
 20
162.33
 21
161.83
  0
LINE
  8
0
 10
-250.786
 11
-250.17
 20
161.83
 21
161.214
  0
LINE
  8
0
 10
-250.17
 11
-249.67
 20
161.214
 21
160.5
  0
LINE
  8
0
 10
-249.67
 11
-249.302
 20
160.5
 21
159.71
  0
LINE
  8
0
 10
-249.302
 11
-249.076
 20
159.71
 21
158.868
  0
LINE
  8
0
 10
-249.076
 11
-249
 20
158.868
 21
158
  0
LINE
  8
0
 10
-249
 11
-249.076
 20
158
 21
157.132
  0
LINE
  8
0
 10
-249.076
 11
-249.302
 20
157.132
 21
156.29
  0
LINE
  8
0
 10
-249.302
 11
-249.67
 20
156.29
 21
155.5
  0
LINE
  8
0
 10
-249.67
 11
-250.17
 20
155.5
 21
154.786
  0
LINE
  8
0
 10
-250.17
 11
-250.786
 20
154.786
 21
154.17
  0
LINE
  8
0
 10
-250.786
 11
-251.5
 20
154.17
 21
153.67
  0
LINE
  8
0
 10
-251.5
 11
-252.29
 20
153.67
 21
153.302
  0
LINE
  8
0
 10
-252.29
 11
-253.132
 20
153.302
 21
153.076
  0
LINE
  8
0
 10
-253.132
 11
-254
 20
153.076
 21
153
  0
LINE
  8
0
 10
-254
 11
-254.868
 20
153
 21
153.076
  0
LINE
  8
0
 10
-254.868
 11
-255.71
 20
153.076
 21
153.302
  0
LINE
  8
0
 10
-255.71
 11
-256.5
 20
153.302
 21
153.67
  0
LINE
  8
0
 10
-256.5
 11
-257.214
 20
153.67
 21
154.17
  0
LINE
  8
0
 10
-257.214
 11
-257.83
 20
154.17
 21
154.786
  0
LINE
  8
0
 10
-257.83
 11
-258.33
 20
154.786
 21
155.5
  0
LINE
  8
0
 10
-258.33
 11
-258.698
 20
155.5
 21
156.29
  0
LINE
  8
0
 10
-258.698
 11
-258.924
 20
156.29
 21
157.132
  0
LINE
  8
0
 10
-258.924
 11
-259
 20
157.132
 21
158
  0
LINE
  8
0
 10
-247.5
 11
-247.424
 20
158
 21
158.868
  0
LINE
  8
0
 10
-247.424
 11
-247.198
 20
158.868
 21
159.71
  0
LINE
  8
0
 10
-247.198
 11
-246.83
 20
159.71
 21
160.5
  0
LINE
  8
0
 10
-246.83
 11
-246.33
 20
160.5
 21
161.214
  0
LINE
  8
0
 10
-246.33
 11
-245.714
 20
161.214
 21
161.83
  0
LINE
  8
0
 10
-245.714
 11
-245
 20
161.83
 21
162.33
  0
LINE
  8
0
 10
-245
 11
-244.21
 20
162.33
 21
162.698
  0
LINE
  8
0
 10
-244.21
 11
-243.368
 20
162.698
 21
162.924
  0
LINE
  8
0
 10
-243.368
 11
-242.5
 20
162.924
 21
163
  0
LINE
  8
0
 10
-242.5
 11
-241.632
 20
163
 21
162.924
  0
LINE
  8
0
 10
-241.632
 11
-240.79
 20
162.924
 21
162.698
  0
LINE
  8
0
 10
-240.79
 11
-240
 20
162.698
 21
162.33
  0
LINE
  8
0
 10
-240
 11
-239.286
 20
162.33
 21
161.83
  0
LINE
  8
0
 10
-239.286
 11
-238.67
 20
161.83
 21
161.214
  0
LINE
  8
0
 10
-238.67
 11
-238.17
 20
161.214
 21
160.5
  0
LINE
  8
0
 10
-238.17
 11
-237.802
 20
160.5
 21
159.71
  0
LINE
  8
0
 10
-237.802
 11
-237.576
 20
159.71
 21
158.868
  0
LINE
  8
0
 10
-237.576
 11
-237.5
 20
158.868
 21
158
  0
LINE
  8
0
 10
-237.5
 11
-237.576
 20
158
 21
157.132
  0
LINE
  8
0
 10
-237.576
 11
-237.802
 20
157.132
 21
156.29
  0
LINE
  8
0
 10
-237.802
 11
-238.17
 20
156.29
 21
155.5
  0
LINE
  8
0
 10
-238.17
 11
-238.67
 20
155.5
 21
154.786
  0
LINE
  8
0
 10
-238.67
 11
-239.286
 20
154.786
 21
154.17
  0
LINE
  8
0
 10
-239.286
 11
-240
 20
154.17
 21
153.67
  0
LINE
  8
0
 10
-240
 11
-240.79
 20
153.67
 21
153.302
  0
LINE
  8
0
 10
-240.79
 11
-241.632
 20
153.302
 21
153.076
  0
LINE
  8
0
 10
-241.632
 11
-242.5
 20
153.076
 21
153
  0
LINE
  8
0
 10
-242.5
 11
-243.368
 20
153
 21
153.076
  0
LINE
  8
0
 10
-243.368
 11
-244.21
 20
153.076
 21
153.302
  0
LINE
  8
0
 10
-244.21
 11
-245
 20
153.302
 21
153.67
  0
LINE
  8
0
 10
-245
 11
-245.714
 20
153.67
 21
154.17
  0
LINE
  8
0
 10
-245.714
 11
-246.33
 20
154.17
 21
154.786
  0
LINE
  8
0
 10
-246.33
 11
-246.83
 20
154.786
 21
155.5
  0
LINE
  8
0
 10
-246.83
 11
-247.198
 20
155.5
 21
156.29
  0
LINE
  8
0
 10
-247.198
 11
-247.424
 20
156.29
 21
157.132
  0
LINE
  8
0
 10
-247.424
 11
-247.5
 20
157.132
 21
158
  0
LINE
  8
0
 10
-236
 11
-235.924
 20
158
 21
158.868
  0
LINE
  8
0
 10
-235.924
 11
-235.698
 20
158.868
 21
159.71
  0
LINE
  8
0
 10
-235.698
 11
-235.33
 20
159.71
 21
160.5
  0
LINE
  8
0
 10
-235.33
 11
-234.83
 20
160.5
 21
161.214
  0
LINE
  8
0
 10
-234.83
 11
-234.214
 20
161.214
 21
161.83
  0
LINE
  8
0
 10
-234.214
 11
-233.5
 20
161.83
 21
162.33
  0
LINE
  8
0
 10
-233.5
 11
-232.71
 20
162.33
 21
162.698
  0
LINE
  8
0
 10
-232.71
 11
-231.868
 20
162.698
 21
162.924
  0
LINE
  8
0
 10
-231.868
 11
-231
 20
162.924
 21
163
  0
LINE
  8
0
 10
-231
 11
-230.132
 20
163
 21
162.924
  0
LINE
  8
0
 10
-230.132
 11
-229.29
 20
162.924
 21
162.698
  0
LINE
  8
0
 10
-229.29
 11
-228.5
 20
162.698
 21
162.33
  0
LINE
  8
0
 10
-228.5
 11
-227.786
 20
162.33
 21
161.83
  0
LINE
  8
0
 10
-227.786
 11
-227.17
 20
161.83
 21
161.214
  0
LINE
  8
0
 10
-227.17
 11
-226.67
 20
161.214
 21
160.5
  0
LINE
  8
0
 10
-226.67
 11
-226.302
 20
160.5
 21
159.71
  0
LINE
  8
0
 10
-226.302
 11
-226.076
 20
159.71
 21
158.868
  0
LINE
  8
0
 10
-226.076
 11
-226
 20
158.868
 21
158
  0
LINE
  8
0
 10
-226
 11
-226.076
 20
158
 21
157.132
  0
LINE
  8
0
 10
-226.076
 11
-226.302
 20
157.132
 21
156.29
  0
LINE
  8
0
 10
-226.302
 11
-226.67
 20
156.29
 21
155.5
  0
LINE
  8
0
 10
-226.67
 11
-227.17
 20
155.5
 21
154.786
  0
LINE
  8
0
 10
-227.17
 11
-227.786
 20
154.786
 21
154.17
  0
LINE
  8
0
 10
-227.786
 11
-228.5
 20
154.17
 21
153.67
  0
LINE
  8
0
 10
-228.5
 11
-229.29
 20
153.67
 21
153.302
  0
LINE
  8
0
 10
-229.29
 11
-230.132
 20
153.302
 21
153.076
  0
LINE
  8
0
 10
-230.132
 11
-231
 20
153.076
 21
153
  0
LINE
  8
0
 10
-231
 11
-231.868
 20
153
 21
153.076
  0
LINE
  8
0
 10
-231.868
 11
-232.71
 20
153.076
 21
153.302
  0
LINE
  8
0
 10
-232.71
 11
-233.5
 20
153.302
 21
153.67
  0
LINE
  8
0
 10
-233.5
 11
-234.214
 20
153.67
 21
154.17
  0
LINE
  8
0
 10
-234.214
 11
-234.83
 20
154.17
 21
154.786
  0
LINE
  8
0
 10
-234.83
 11
-235.33
 20
154.786
 21
155.5
  0
LINE
  8
0
 10
-235.33
 11
-235.698
 20
155.5
 21
156.29
  0
LINE
  8
0
 10
-235.698
 11
-235.924
 20
156.29
 21
157.132
  0
LINE
  8
0
 10
-235.924
 11
-236
 20
157.132
 21
158
  0
LINE
  8
0
 10
-224.5
 11
-224.424
 20
158
 21
158.868
  0
LINE
  8
0
 10
-224.424
 11
-224.198
 20
158.868
 21
159.71
  0
LINE
  8
0
 10
-224.198
 11
-223.83
 20
159.71
 21
160.5
  0
LINE
  8
0
 10
-223.83
 11
-223.33
 20
160.5
 21
161.214
  0
LINE
  8
0
 10
-223.33
 11
-222.714
 20
161.214
 21
161.83
  0
LINE
  8
0
 10
-222.714
 11
-222
 20
161.83
 21
162.33
  0
LINE
  8
0
 10
-222
 11
-221.21
 20
162.33
 21
162.698
  0
LINE
  8
0
 10
-221.21
 11
-220.368
 20
162.698
 21
162.924
  0
LINE
  8
0
 10
-220.368
 11
-219.5
 20
162.924
 21
163
  0
LINE
  8
0
 10
-219.5
 11
-218.632
 20
163
 21
162.924
  0
LINE
  8
0
 10
-218.632
 11
-217.79
 20
162.924
 21
162.698
  0
LINE
  8
0
 10
-217.79
 11
-217
 20
162.698
 21
162.33
  0
LINE
  8
0
 10
-217
 11
-216.286
 20
162.33
 21
161.83
  0
LINE
  8
0
 10
-216.286
 11
-215.67
 20
161.83
 21
161.214
  0
LINE
  8
0
 10
-215.67
 11
-215.17
 20
161.214
 21
160.5
  0
LINE
  8
0
 10
-215.17
 11
-214.802
 20
160.5
 21
159.71
  0
LINE
  8
0
 10
-214.802
 11
-214.576
 20
159.71
 21
158.868
  0
LINE
  8
0
 10
-214.576
 11
-214.5
 20
158.868
 21
158
  0
LINE
  8
0
 10
-214.5
 11
-214.576
 20
158
 21
157.132
  0
LINE
  8
0
 10
-214.576
 11
-214.802
 20
157.132
 21
156.29
  0
LINE
  8
0
 10
-214.802
 11
-215.17
 20
156.29
 21
155.5
  0
LINE
  8
0
 10
-215.17
 11
-215.67
 20
155.5
 21
154.786
  0
LINE
  8
0
 10
-215.67
 11
-216.286
 20
154.786
 21
154.17
  0
LINE
  8
0
 10
-216.286
 11
-217
 20
154.17
 21
153.67
  0
LINE
  8
0
 10
-217
 11
-217.79
 20
153.67
 21
153.302
  0
LINE
  8
0
 10
-217.79
 11
-218.632
 20
153.302
 21
153.076
  0
LINE
  8
0
 10
-218.632
 11
-219.5
 20
153.076
 21
153
  0
LINE
  8
0
 10
-219.5
 11
-220.368
 20
153
 21
153.076
  0
LINE
  8
0
 10
-220.368
 11
-221.21
 20
153.076
 21
153.302
  0
LINE
  8
0
 10
-221.21
 11
-222
 20
153.302
 21
153.67
  0
LINE
  8
0
 10
-222
 11
-222.714
 20
153.67
 21
154.17
  0
LINE
  8
0
 10
-222.714
 11
-223.33
 20
154.17
 21
154.786
  0
LINE
  8
0
 10
-223.33
 11
-223.83
 20
154.786
 21
155.5
  0
LINE
  8
0
 10
-223.83
 11
-224.198
 20
155.5
 21
156.29
  0
LINE
  8
0
 10
-224.198
 11
-224.424
 20
156.29
 21
157.132
  0
LINE
  8
0
 10
-224.424
 11
-224.5
 20
157.132
 21
158
  0
LINE
  8
0
 10
-213
 11
-212.924
 20
158
 21
158.868
  0
LINE
  8
0
 10
-212.924
 11
-212.698
 20
158.868
 21
159.71
  0
LINE
  8
0
 10
-212.698
 11
-212.33
 20
159.71
 21
160.5
  0
LINE
  8
0
 10
-212.33
 11
-211.83
 20
160.5
 21
161.214
  0
LINE
  8
0
 10
-211.83
 11
-211.214
 20
161.214
 21
161.83
  0
LINE
  8
0
 10
-211.214
 11
-210.5
 20
161.83
 21
162.33
  0
LINE
  8
0
 10
-210.5
 11
-209.71
 20
162.33
 21
162.698
  0
LINE
  8
0
 10
-209.71
 11
-208.868
 20
162.698
 21
162.924
  0
LINE
  8
0
 10
-208.868
 11
-208
 20
162.924
 21
163
  0
LINE
  8
0
 10
-208
 11
-207.132
 20
163
 21
162.924
  0
LINE
  8
0
 10
-207.132
 11
-206.29
 20
162.924
 21
162.698
  0
LINE
  8
0
 10
-206.29
 11
-205.5
 20
162.698
 21
162.33
  0
LINE
  8
0
 10
-205.5
 11
-204.786
 20
162.33
 21
161.83
  0
LINE
  8
0
 10
-204.786
 11
-204.17
 20
161.83
 21
161.214
  0
LINE
  8
0
 10
-204.17
 11
-203.67
 20
161.214
 21
160.5
  0
LINE
  8
0
 10
-203.67
 11
-203.302
 20
160.5
 21
159.71
  0
LINE
  8
0
 10
-203.302
 11
-203.076
 20
159.71
 21
158.868
  0
LINE
  8
0
 10
-203.076
 11
-203
 20
158.868
 21
158
  0
LINE
  8
0
 10
-203
 11
-203.076
 20
158
 21
157.132
  0
LINE
  8
0
 10
-203.076
 11
-203.302
 20
157.132
 21
156.29
  0
LINE
  8
0
 10
-203.302
 11
-203.67
 20
156.29
 21
155.5
  0
LINE
  8
0
 10
-203.67
 11
-204.17
 20
155.5
 21
154.786
  0
LINE
  8
0
 10
-204.17
 11
-204.786
 20
154.786
 21
154.17
  0
LINE
  8
0
 10
-204.786
 11
-205.5
 20
154.17
 21
153.67
  0
LINE
  8
0
 10
-205.5
 11
-206.29
 20
153.67
 21
153.302
  0
LINE
  8
0
 10
-206.29
 11
-207.132
 20
153.302
 21
153.076
  0
LINE
  8
0
 10
-207.132
 11
-208
 20
153.076
 21
153
  0
LINE
  8
0
 10
-208
 11
-208.868
 20
153
 21
153.076
  0
LINE
  8
0
 10
-208.868
 11
-209.71
 20
153.076
 21
153.302
  0
LINE
  8
0
 10
-209.71
 11
-210.5
 20
153.302
 21
153.67
  0
LINE
  8
0
 10
-210.5
 11
-211.214
 20
153.67
 21
154.17
  0
LINE
  8
0
 10
-211.214
 11
-211.83
 20
154.17
 21
154.786
  0
LINE
  8
0
 10
-211.83
 11
-212.33
 20
154.786
 21
155.5
  0
LINE
  8
0
 10
-212.33
 11
-212.698
 20
155.5
 21
156.29
  0
LINE
  8
0
 10
-212.698
 11
-212.924
 20
156.29
 21
157.132
  0
LINE
  8
0
 10
-212.924
 11
-213
 20
157.132
 21
158
  0
LINE
  8
0
 10
-200
 11
-200
 20
-288.5
 21
-275.949
  0
LINE
  8
0
 10
-200
 11
-196.999
 20
-275.949
 21
-275.949
  0
LINE
  8
0
 10
-196.999
 11
-196.999
 20
-275.949
 21
-260.384
  0
LINE
  8
0
 10
-196.999
 11
-200
 20
-260.384
 21
-260.384
  0
LINE
  8
0
 10
-200
 11
-200
 20
-260.384
 21
-244.838
  0
LINE
  8
0
 10
-200
 11
-196.999
 20
-244.838
 21
-244.838
  0
LINE
  8
0
 10
-196.999
 11
-196.999
 20
-244.838
 21
-229.273
  0
LINE
  8
0
 10
-196.999
 11
-200
 20
-229.273
 21
-229.273
  0
LINE
  8
0
 10
-200
 11
-200
 20
-229.273
 21
-213.727
  0
LINE
  8
0
 10
-200
 11
-196.999
 20
-213.727
 21
-213.727
  0
LINE
  8
0
 10
-196.999
 11
-196.999
 20
-213.727
 21
-198.162
  0
LINE
  8
0
 10
-196.999
 11
-200
 20
-198.162
 21
-198.162
  0
LINE
  8
0
 10
-200
 11
-200
 20
-198.162
 21
-182.616
  0
LINE
  8
0
 10
-200
 11
-196.999
 20
-182.616
 21
-182.616
  0
LINE
  8
0
 10
-196.999
 11
-196.999
 20
-182.616
 21
-167.051
  0
LINE
  8
0
 10
-196.999
 11
-200
 20
-167.051
 21
-167.051
  0
LINE
  8
0
 10
-200
 11
-200
 20
-167.051
 21
-151.505
  0
LINE
  8
0
 10
-200
 11
-196.999
 20
-151.505
 21
-151.505
  0
LINE
  8
0
 10
-196.999
 11
-196.999
 20
-151.505
 21
-151.5
  0
LINE
  8
0
 10
-196.999
 11
-194
 20
-151.5
 21
-151.5
  0
LINE
  8
0
 10
-194
 11
-194
 20
-151.5
 21
-151.505
  0
LINE
  8
0
 10
-194
 11
-190.999
 20
-151.505
 21
-151.505
  0
LINE
  8
0
 10
-190.999
 11
-190.999
 20
-151.505
 21
-151.5
  0
LINE
  8
0
 10
-190.999
 11
190.999
 20
-151.5
 21
-151.5
  0
LINE
  8
0
 10
190.999
 11
190.999
 20
-151.5
 21
-151.505
  0
LINE
  8
0
 10
190.999
 11
194
 20
-151.505
 21
-151.505
  0
LINE
  8
0
 10
194
 11
194
 20
-151.505
 21
-151.5
  0
LINE
  8
0
 10
194
 11
196.999
 20
-151.5
 21
-151.5
  0
LINE
  8
0
 10
196.999
 11
196.999
 20
-151.5
 21
-151.505
  0
LINE
  8
0
 10
196.999
 11
200
 20
-151.505
 21
-151.505
  0
LINE
  8
0
 10
200
 11
200
 20
-151.505
 21
-167.051
  0
LINE
  8
0
 10
200
 11
196.999
 20
-167.051
 21
-167.051
  0
LINE
  8
0
 10
196.999
 11
196.999
 20
-167.051
 21
-182.616
  0
LINE
  8
0
 10
196.999
 11
200
 20
-182.616
 21
-182.616
  0
LINE
  8
0
 10
200
 11
200
 20
-182.616
 21
-198.162
  0
LINE
  8
0
 10
200
 11
196.999
 20
-198.162
 21
-198.162
  0
LINE
  8
0
 10
196.999
 11
196.999
 20
-198.162
 21
-213.727
  0
LINE
  8
0
 10
196.999
 11
200
 20
-213.727
 21
-213.727
  0
LINE
  8
0
 10
200
 11
200
 20
-213.727
 21
-229.273
  0
LINE
  8
0
 10
200
 11
196.999
 20
-229.273
 21
-229.273
  0
LINE
  8
0
 10
196.999
 11
196.999
 20
-229.273
 21
-244.838
  0
LINE
  8
0
 10
196.999
 11
200
 20
-244.838
 21
-244.838
  0
LINE
  8
0
 10
200
 11
200
 20
-244.838
 21
-260.384
  0
LINE
  8
0
 10
200
 11
196.999
 20
-260.384
 21
-260.384
  0
LINE
  8
0
 10
196.999
 11
196.999
 20
-260.384
 21
-275.949
  0
LINE
  8
0
 10
196.999
 11
200
 20
-275.949
 21
-275.949
  0
LINE
  8
0
 10
200
 11
200
 20
-275.949
 21
-291.5
  0
LINE
  8
0
 10
200
 11
163.641
 20
-291.5
 21
-291.5
  0
LINE
  8
0
 10
163.641
 11
163.641
 20
-291.5
 21
-288.5
  0
LINE
  8
0
 10
163.641
 11
127.268
 20
-288.5
 21
-288.5
  0
LINE
  8
0
 10
127.268
 11
127.268
 20
-288.5
 21
-291.5
  0
LINE
  8
0
 10
127.268
 11
90.914
 20
-291.5
 21
-291.5
  0
LINE
  8
0
 10
90.914
 11
90.914
 20
-291.5
 21
-288.5
  0
LINE
  8
0
 10
90.914
 11
54.54
 20
-288.5
 21
-288.5
  0
LINE
  8
0
 10
54.54
 11
54.54
 20
-288.5
 21
-291.5
  0
LINE
  8
0
 10
54.54
 11
18.187
 20
-291.5
 21
-291.5
  0
LINE
  8
0
 10
18.187
 11
18.187
 20
-291.5
 21
-288.5
  0
LINE
  8
0
 10
18.187
 11
-18.187
 20
-288.5
 21
-288.5
  0
LINE
  8
0
 10
-18.187
 11
-18.187
 20
-288.5
 21
-291.5
  0
LINE
  8
0
 10
-18.187
 11
-54.54
 20
-291.5
 21
-291.5
  0
LINE
  8
0
 10
-54.54
 11
-54.54
 20
-291.5
 21
-288.5
  0
LINE
  8
0
 10
-54.54
 11
-90.914
 20
-288.5
 21
-288.5
  0
LINE
  8
0
 10
-90.914
 11
-90.914
 20
-288.5
 21
-291.5
  0
LINE
  8
0
 10
-90.914
 11
-127.268
 20
-291.5
 21
-291.5
  0
LINE
  8
0
 10
-127.268
 11
-127.268
 20
-291.5
 21
-288.5
  0
LINE
  8
0
 10
-127.268
 11
-163.641
 20
-288.5
 21
-288.5
  0
LINE
  8
0
 10
-163.641
 11
-163.641
 20
-288.5
 21
-291.5
  0
LINE
  8
0
 10
-163.641
 11
-199.995
 20
-291.5
 21
-291.5
  0
LINE
  8
0
 10
-199.995
 11
-199.995
 20
-291.5
 21
-288.5
  0
LINE
  8
0
 10
-199.995
 11
-200
 20
-288.5
 21
-288.5
  0
LINE
  8
0
 10
-200
 11
-200
 20
-107.138
 21
-64.291
  0
LINE
  8
0
 10
-200
 11
-196.999
 20
-64.291
 21
-64.291
  0
LINE
  8
0
 10
-196.999
 11
-196.999
 20
-64.291
 21
-21.424
  0
LINE
  8
0
 10
-196.999
 11
-200
 20
-21.424
 21
-21.424
  0
LINE
  8
0
 10
-200
 11
-200
 20
-21.424
 21
21.424
  0
LINE
  8
0
 10
-200
 11
-196.999
 20
21.424
 21
21.424
  0
LINE
  8
0
 10
-196.999
 11
-196.999
 20
21.424
 21
64.291
  0
LINE
  8
0
 10
-196.999
 11
-200
 20
64.291
 21
64.291
  0
LINE
  8
0
 10
-200
 11
-200
 20
64.291
 21
107.138
  0
LINE
  8
0
 10
-200
 11
-196.999
 20
107.138
 21
107.138
  0
LINE
  8
0
 10
-196.999
 11
-196.999
 20
107.138
 21
146.999
  0
LINE
  8
0
 10
-196.999
 11
-163.631
 20
146.999
 21
146.999
  0
LINE
  8
0
 10
-163.631
 11
-163.631
 20
146.999
 21
150
  0
LINE
  8
0
 10
-163.631
 11
-127.278
 20
150
 21
150
  0
LINE
  8
0
 10
-127.278
 11
-127.278
 20
150
 21
146.999
  0
LINE
  8
0
 10
-127.278
 11
-90.904
 20
146.999
 21
146.999
  0
LINE
  8
0
 10
-90.904
 11
-90.904
 20
146.999
 21
150
  0
LINE
  8
0
 10
-90.904
 11
-54.55
 20
150
 21
150
  0
LINE
  8
0
 10
-54.55
 11
-54.55
 20
150
 21
146.999
  0
LINE
  8
0
 10
-54.55
 11
-18.177
 20
146.999
 21
146.999
  0
LINE
  8
0
 10
-18.177
 11
-18.177
 20
146.999
 21
150
  0
LINE
  8
0
 10
-18.177
 11
18.177
 20
150
 21
150
  0
LINE
  8
0
 10
18.177
 11
18.177
 20
150
 21
146.999
  0
LINE
  8
0
 10
18.177
 11
54.55
 20
146.999
 21
146.999
  0
LINE
  8
0
 10
54.55
 11
54.55
 20
146.999
 21
150
  0
LINE
  8
0
 10
54.55
 11
90.904
 20
150
 21
150
  0
LINE
  8
0
 10
90.904
 11
90.904
 20
150
 21
146.999
  0
LINE
  8
0
 10
90.904
 11
127.278
 20
146.999
 21
146.999
  0
LINE
  8
0
 10
127.278
 11
127.278
 20
146.999
 21
150
  0
LINE
  8
0
 10
127.278
 11
163.631
 20
150
 21
150
  0
LINE
  8
0
 10
163.631
 11
163.631
 20
150
 21
146.999
  0
LINE
  8
0
 10
163.631
 11
196.999
 20
146.999
 21
146.999
  0
LINE
  8
0
 10
196.999
 11
196.999
 20
146.999
 21
107.138
  0
LINE
  8
0
 10
196.999
 11
200
 20
107.138
 21
107.138
  0
LINE
  8
0
 10
200
 11
200
 20
107.138
 21
64.291
  0
LINE
  8
0
 10
200
 11
196.999
 20
64.291
 21
64.291
  0
LINE
  8
0
 10
196.999
 11
196.999
 20
64.291
 21
21.424
  0
LINE
  8
0
 10
196.999
 11
200
 20
21.424
 21
21.424
  0
LINE
  8
0
 10
200
 11
200
 20
21.424
 21
-21.424
  0
LINE
  8
0
 10
200
 11
196.999
 20
-21.424
 21
-21.424
  0
LINE
  8
0
 10
196.999
 11
196.999
 20
-21.424
 21
-64.291
  0
LINE
  8
0
 10
196.999
 11
200
 20
-64.291
 21
-64.291
  0
LINE
  8
0
 10
200
 11
200
 20
-64.291
 21
-107.138
  0
LINE
  8
0
 10
200
 11
196.999
 20
-107.138
 21
-107.138
  0
LINE
  8
0
 10
196.999
 11
196.999
 20
-107.138
 21
-146.999
  0
LINE
  8
0
 10
196.999
 11
163.631
 20
-146.999
 21
-146.999
  0
LINE
  8
0
 10
163.631
 11
163.631
 20
-146.999
 21
-150
  0
LINE
  8
0
 10
163.631
 11
127.278
 20
-150
 21
-150
  0
LINE
  8
0
 10
127.278
 11
127.278
 20
-150
 21
-146.999
  0
LINE
  8
0
 10
127.278
 11
90.904
 20
-146.999
 21
-146.999
  0
LINE
  8
0
 10
90.904
 11
90.904
 20
-146.999
 21
-150
  0
LINE
  8
0
 10
90.904
 11
54.55
 20
-150
 21
-150
  0
LINE
  8
0
 10
54.55
 11
54.55
 20
-150
 21
-146.999
  0
LINE
  8
0
 10
54.55
 11
18.177
 20
-146.999
 21
-146.999
  0
LINE
  8
0
 10
18.177
 11
18.177
 20
-146.999
 21
-150
  0
LINE
  8
0
 10
18.177
 11
-18.177
 20
-150
 21
-150
  0
LINE
  8
0
 10
-18.177
 11
-18.177
 20
-150
 21
-146.999
  0
LINE
  8
0
 10
-18.177
 11
-54.55
 20
-146.999
 21
-146.999
  0
LINE
  8
0
 10
-54.55
 11
-54.55
 20
-146.999
 21
-150
  0
LINE
  8
0
 10
-54.55
 11
-90.904
 20
-150
 21
-150
  0
LINE
  8
0
 10
-90.904
 11
-90.904
 20
-150
 21
-146.999
  0
LINE
  8
0
 10
-90.904
 11
-127.278
 20
-146.999
 21
-146.999
  0
LINE
  8
0
 10
-127.278
 11
-127.278
 20
-146.999
 21
-150
  0
LINE
  8
0
 10
-127.278
 11
-163.631
 20
-150
 21
-150
  0
LINE
  8
0
 10
-163.631
 11
-163.631
 20
-150
 21
-146.999
  0
LINE
  8
0
 10
-163.631
 11
-196.999
 20
-146.999
 21
-146.999
  0
LINE
  8
0
 10
-196.999
 11
-196.999
 20
-146.999
 21
-107.138
  0
LINE
  8
0
 10
-196.999
 11
-200
 20
-107.138
 21
-107.138
  0
LINE
  8
0
 10
-200
 11
-200
 20
154.5
 21
167.051
  0
LINE
  8
0
 10
-200
 11
-196.999
 20
167.051
 21
167.051
  0
LINE
  8
0
 10
-196.999
 11
-196.999
 20
167.051
 21
182.616
  0
LINE
  8
0
 10
-196.999
 11
-200
 20
182.616
 21
182.616
  0
LINE
  8
0
 10
-200
 11
-200
 20
182.616
 21
198.162
  0
LINE
  8
0
 10
-200
 11
-196.999
 20
198.162
 21
198.162
  0
LINE
  8
0
 10
-196.999
 11
-196.999
 20
198.162
 21
213.727
  0
LINE
  8
0
 10
-196.999
 11
-200
 20
213.727
 21
213.727
  0
LINE
  8
0
 10
-200
 11
-200
 20
213.727
 21
229.273
  0
LINE
  8
0
 10
-200
 11
-196.999
 20
229.273
 21
229.273
  0
LINE
  8
0
 10
-196.999
 11
-196.999
 20
229.273
 21
244.838
  0
LINE
  8
0
 10
-196.999
 11
-200
 20
244.838
 21
244.838
  0
LINE
  8
0
 10
-200
 11
-200
 20
244.838
 21
260.384
  0
LINE
  8
0
 10
-200
 11
-196.999
 20
260.384
 21
260.384
  0
LINE
  8
0
 10
-196.999
 11
-196.999
 20
260.384
 21
275.949
  0
LINE
  8
0
 10
-196.999
 11
-200
 20
275.949
 21
275.949
  0
LINE
  8
0
 10
-200
 11
-200
 20
275.949
 21
291.495
  0
LINE
  8
0
 10
-200
 11
-196.999
 20
291.495
 21
291.495
  0
LINE
  8
0
 10
-196.999
 11
-196.999
 20
291.495
 21
291.5
  0
LINE
  8
0
 10
-196.999
 11
-194
 20
291.5
 21
291.5
  0
LINE
  8
0
 10
-194
 11
-194
 20
291.5
 21
291.495
  0
LINE
  8
0
 10
-194
 11
-190.999
 20
291.495
 21
291.495
  0
LINE
  8
0
 10
-190.999
 11
-190.999
 20
291.495
 21
291.5
  0
LINE
  8
0
 10
-190.999
 11
190.999
 20
291.5
 21
291.5
  0
LINE
  8
0
 10
190.999
 11
190.999
 20
291.5
 21
291.495
  0
LINE
  8
0
 10
190.999
 11
194
 20
291.495
 21
291.495
  0
LINE
  8
0
 10
194
 11
194
 20
291.495
 21
291.5
  0
LINE
  8
0
 10
194
 11
196.999
 20
291.5
 21
291.5
  0
LINE
  8
0
 10
196.999
 11
196.999
 20
291.5
 21
291.495
  0
LINE
  8
0
 10
196.999
 11
200
 20
291.495
 21
291.495
  0
LINE
  8
0
 10
200
 11
200
 20
291.495
 21
275.949
  0
LINE
  8
0
 10
200
 11
196.999
 20
275.949
 21
275.949
  0
LINE
  8
0
 10
196.999
 11
196.999
 20
275.949
 21
260.384
  0
LINE
  8
0
 10
196.999
 11
200
 20
260.384
 21
260.384
  0
LINE
  8
0
 10
200
 11
200
 20
260.384
 21
244.838
  0
LINE
  8
0
 10
200
 11
196.999
 20
244.838
 21
244.838
  0
LINE
  8
0
 10
196.999
 11
196.999
 20
244.838
 21
229.273
  0
LINE
  8
0
 10
196.999
 11
200
 20
229.273
 21
229.273
  0
LINE
  8
0
 10
200
 11
200
 20
229.273
 21
213.727
  0
LINE
  8
0
 10
200
 11
196.999
 20
213.727
 21
213.727
  0
LINE
  8
0
 10
196.999
 11
196.999
 20
213.727
 21
198.162
  0
LINE
  8
0
 10
196.999
 11
200
 20
198.162
 21
198.162
  0
LINE
  8
0
 10
200
 11
200
 20
198.162
 21
182.616
  0
LINE
  8
0
 10
200
 11
196.999
 20
182.616
 21
182.616
  0
LINE
  8
0
 10
196.999
 11
196.999
 20
182.616
 21
167.051
  0
LINE
  8
0
 10
196.999
 11
200
 20
167.051
 21
167.051
  0
LINE
  8
0
 10
200
 11
200
 20
167.051
 21
151.5
  0
LINE
  8
0
 10
200
 11
163.641
 20
151.5
 21
151.5
  0
LINE
  8
0
 10
163.641
 11
163.641
 20
151.5
 21
154.5
  0
LINE
  8
0
 10
163.641
 11
127.268
 20
154.5
 21
154.5
  0
LINE
  8
0
 10
127.268
 11
127.268
 20
154.5
 21
151.5
  0
LINE
  8
0
 10
127.268
 11
90.914
 20
151.5
 21
151.5
  0
LINE
  8
0
 10
90.914
 11
90.914
 20
151.5
 21
154.5
  0
LINE
  8
0
 10
90.914
 11
54.54
 20
154.5
 21
154.5
  0
LINE
  8
0
 10
54.54
 11
54.54
 20
154.5
 21
151.5
  0
LINE
  8
0
 10
54.54
 11
18.187
 20
151.5
 21
151.5
  0
LINE
  8
0
 10
18.187
 11
18.187
 20
151.5
 21
154.5
  0
LINE
  8
0
 10
18.187
 11
-18.187
 20
154.5
 21
154.5
  0
LINE
  8
0
 10
-18.187
 11
-18.187
 20
154.5
 21
151.5
  0
LINE
  8
0
 10
-18.187
 11
-54.54
 20
151.5
 21
151.5
  0
LINE
  8
0
 10
-54.54
 11
-54.54
 20
151.5
 21
154.5
  0
LINE
  8
0
 10
-54.54
 11
-90.914
 20
154.5
 21
154.5
  0
LINE
  8
0
 10
-90.914
 11
-90.914
 20
154.5
 21
151.5
  0
LINE
  8
0
 10
-90.914
 11
-127.268
 20
151.5
 21
151.5
  0
LINE
  8
0
 10
-127.268
 11
-127.268
 20
151.5
 21
154.5
  0
LINE
  8
0
 10
-127.268
 11
-163.641
 20
154.5
 21
154.5
  0
LINE
  8
0
 10
-163.641
 11
-163.641
 20
154.5
 21
151.5
  0
LINE
  8
0
 10
-163.641
 11
-199.995
 20
151.5
 21
151.5
  0
LINE
  8
0
 10
-199.995
 11
-199.995
 20
151.5
 21
154.5
  0
LINE
  8
0
 10
-199.995
 11
-200
 20
154.5
 21
154.5
  0
LINE
  8
0
 10
-194
 11
-194
 20
-275.949
 21
-260.384
  0
LINE
  8
0
 10
-194
 11
-190.999
 20
-260.384
 21
-260.384
  0
LINE
  8
0
 10
-190.999
 11
-190.999
 20
-260.384
 21
-275.949
  0
LINE
  8
0
 10
-190.999
 11
-194
 20
-275.949
 21
-275.949
  0
LINE
  8
0
 10
-194
 11
-194
 20
-244.838
 21
-229.273
  0
LINE
  8
0
 10
-194
 11
-190.999
 20
-229.273
 21
-229.273
  0
LINE
  8
0
 10
-190.999
 11
-190.999
 20
-229.273
 21
-244.838
  0
LINE
  8
0
 10
-190.999
 11
-194
 20
-244.838
 21
-244.838
  0
LINE
  8
0
 10
-194
 11
-194
 20
-213.727
 21
-198.162
  0
LINE
  8
0
 10
-194
 11
-190.999
 20
-198.162
 21
-198.162
  0
LINE
  8
0
 10
-190.999
 11
-190.999
 20
-198.162
 21
-213.727
  0
LINE
  8
0
 10
-190.999
 11
-194
 20
-213.727
 21
-213.727
  0
LINE
  8
0
 10
-194
 11
-194
 20
-182.616
 21
-167.051
  0
LINE
  8
0
 10
-194
 11
-190.999
 20
-167.051
 21
-167.051
  0
LINE
  8
0
 10
-190.999
 11
-190.999
 20
-167.051
 21
-182.616
  0
LINE
  8
0
 10
-190.999
 11
-194
 20
-182.616
 21
-182.616
  0
LINE
  8
0
 10
-194
 11
-194
 20
-116.672
 21
-83.328
  0
LINE
  8
0
 10
-194
 11
-190.999
 20
-83.328
 21
-83.328
  0
LINE
  8
0
 10
-190.999
 11
-190.999
 20
-83.328
 21
-116.672
  0
LINE
  8
0
 10
-190.999
 11
-194
 20
-116.672
 21
-116.672
  0
LINE
  8
0
 10
-194
 11
-194
 20
-50.005
 21
-16.662
  0
LINE
  8
0
 10
-194
 11
-190.999
 20
-16.662
 21
-16.662
  0
LINE
  8
0
 10
-190.999
 11
-190.999
 20
-16.662
 21
-50.005
  0
LINE
  8
0
 10
-190.999
 11
-194
 20
-50.005
 21
-50.005
  0
LINE
  8
0
 10
-194
 11
-194
 20
16.662
 21
50.005
  0
LINE
  8
0
 10
-194
 11
-190.999
 20
50.005
 21
50.005
  0
LINE
  8
0
 10
-190.999
 11
-190.999
 20
50.005
 21
16.662
  0
LINE
  8
0
 10
-190.999
 11
-194
 20
16.662
 21
16.662
  0
LINE
  8
0
 10
-194
 11
-194
 20
83.328
 21
116.672
  0
LINE
  8
0
 10
-194
 11
-190.999
 20
116.672
 21
116.672
  0
LINE
  8
0
 10
-190.999
 11
-190.999
 20
116.672
 21
83.328
  0
LINE
  8
0
 10
-190.999
 11
-194
 20
83.328
 21
83.328
  0
LINE
  8
0
 10
-194
 11
-194
 20
167.051
 21
182.616
  0
LINE
  8
0
 10
-194
 11
-190.999
 20
182.616
 21
182.616
  0
LINE
  8
0
 10
-190.999
 11
-190.999
 20
182.616
 21
167.051
  0
LINE
  8
0
 10
-190.999
 11
-194
 20
167.051
 21
167.051
  0
LINE
  8
0
 10
-194
 11
-194
 20
198.162
 21
213.727
  0
LINE
  8
0
 10
-194
 11
-190.999
 20
213.727
 21
213.727
  0
LINE
  8
0
 10
-190.999
 11
-190.999
 20
213.727
 21
198.162
  0
LINE
  8
0
 10
-190.999
 11
-194
 20
198.162
 21
198.162
  0
LINE
  8
0
 10
-194
 11
-194
 20
229.273
 21
244.838
  0
LINE
  8
0
 10
-194
 11
-190.999
 20
244.838
 21
244.838
  0
LINE
  8
0
 10
-190.999
 11
-190.999
 20
244.838
 21
229.273
  0
LINE
  8
0
 10
-190.999
 11
-194
 20
229.273
 21
229.273
  0
LINE
  8
0
 10
-194
 11
-194
 20
260.384
 21
275.949
  0
LINE
  8
0
 10
-194
 11
-190.999
 20
275.949
 21
275.949
  0
LINE
  8
0
 10
-190.999
 11
-190.999
 20
275.949
 21
260.384
  0
LINE
  8
0
 10
-190.999
 11
-194
 20
260.384
 21
260.384
  0
LINE
  8
0
 10
190.999
 11
190.999
 20
-275.949
 21
-260.384
  0
LINE
  8
0
 10
190.999
 11
194
 20
-260.384
 21
-260.384
  0
LINE
  8
0
 10
194
 11
194
 20
-260.384
 21
-275.949
  0
LINE
  8
0
 10
194
 11
190.999
 20
-275.949
 21
-275.949
  0
LINE
  8
0
 10
190.999
 11
190.999
 20
-244.838
 21
-229.273
  0
LINE
  8
0
 10
190.999
 11
194
 20
-229.273
 21
-229.273
  0
LINE
  8
0
 10
194
 11
194
 20
-229.273
 21
-244.838
  0
LINE
  8
0
 10
194
 11
190.999
 20
-244.838
 21
-244.838
  0
LINE
  8
0
 10
190.999
 11
190.999
 20
-213.727
 21
-198.162
  0
LINE
  8
0
 10
190.999
 11
194
 20
-198.162
 21
-198.162
  0
LINE
  8
0
 10
194
 11
194
 20
-198.162
 21
-213.727
  0
LINE
  8
0
 10
194
 11
190.999
 20
-213.727
 21
-213.727
  0
LINE
  8
0
 10
190.999
 11
190.999
 20
-182.616
 21
-167.051
  0
LINE
  8
0
 10
190.999
 11
194
 20
-167.051
 21
-167.051
  0
LINE
  8
0
 10
194
 11
194
 20
-167.051
 21
-182.616
  0
LINE
  8
0
 10
194
 11
190.999
 20
-182.616
 21
-182.616
  0
LINE
  8
0
 10
190.999
 11
190.999
 20
-116.672
 21
-83.328
  0
LINE
  8
0
 10
190.999
 11
194
 20
-83.328
 21
-83.328
  0
LINE
  8
0
 10
194
 11
194
 20
-83.328
 21
-116.672
  0
LINE
  8
0
 10
194
 11
190.999
 20
-116.672
 21
-116.672
  0
LINE
  8
0
 10
190.999
 11
190.999
 20
-50.005
 21
-16.662
  0
LINE
  8
0
 10
190.999
 11
194
 20
-16.662
 21
-16.662
  0
LINE
  8
0
 10
194
 11
194
 20
-16.662
 21
-50.005
  0
LINE
  8
0
 10
194
 11
190.999
 20
-50.005
 21
-50.005
  0
LINE
  8
0
 10
190.999
 11
190.999
 20
16.662
 21
50.005
  0
LINE
  8
0
 10
190.999
 11
194
 20
50.005
 21
50.005
  0
LINE
  8
0
 10
194
 11
194
 20
50.005
 21
16.662
  0
LINE
  8
0
 10
194
 11
190.999
 20
16.662
 21
16.662
  0
LINE
  8
0
 10
190.999
 11
190.999
 20
83.328
 21
116.672
  0
LINE
  8
0
 10
190.999
 11
194
 20
116.672
 21
116.672
  0
LINE
  8
0
 10
194
 11
194
 20
116.672
 21
83.328
  0
LINE
  8
0
 10
194
 11
190.999
 20
83.328
 21
83.328
  0
LINE
  8
0
 10
190.999
 11
190.999
 20
167.051
 21
182.616
  0
LINE
  8
0
 10
190.999
 11
194
 20
182.616
 21
182.616
  0
LINE
  8
0
 10
194
 11
194
 20
182.616
 21
167.051
  0
LINE
  8
0
 10
194
 11
190.999
 20
167.051
 21
167.051
  0
LINE
  8
0
 10
190.999
 11
190.999
 20
198.162
 21
213.727
  0
LINE
  8
0
 10
190.999
 11
194
 20
213.727
 21
213.727
  0
LINE
  8
0
 10
194
 11
194
 20
213.727
 21
198.162
  0
LINE
  8
0
 10
194
 11
190.999
 20
198.162
 21
198.162
  0
LINE
  8
0
 10
190.999
 11
190.999
 20
229.273
 21
244.838
  0
LINE
  8
0
 10
190.999
 11
194
 20
244.838
 21
244.838
  0
LINE
  8
0
 10
194
 11
194
 20
244.838
 21
229.273
  0
LINE
  8
0
 10
194
 11
190.999
 20
229.273
 21
229.273
  0
LINE
  8
0
 10
190.999
 11
190.999
 20
260.384
 21
275.949
  0
LINE
  8
0
 10
190.999
 11
194
 20
275.949
 21
275.949
  0
LINE
  8
0
 10
194
 11
194
 20
275.949
 21
260.384
  0
LINE
  8
0
 10
194
 11
190.999
 20
260.384
 21
260.384
  0
LINE
  8
0
 10
201.5
 11
201.5
 20
-146.999
 21
146.999
  0
LINE
  8
0
 10
201.5
 11
217.061
 20
146.999
 21
146.999
  0
LINE
  8
0
 10
217.061
 11
217.061
 20
146.999
 21
150
  0
LINE
  8
0
 10
217.061
 11
232.606
 20
150
 21
150
  0
LINE
  8
0
 10
232.606
 11
232.606
 20
150
 21
146.999
  0
LINE
  8
0
 10
232.606
 11
248.172
 20
146.999
 21
146.999
  0
LINE
  8
0
 10
248.172
 11
248.172
 20
146.999
 21
150
  0
LINE
  8
0
 10
248.172
 11
263.717
 20
150
 21
150
  0
LINE
  8
0
 10
263.717
 11
263.717
 20
150
 21
146.999
  0
LINE
  8
0
 10
263.717
 11
279.283
 20
146.999
 21
146.999
  0
LINE
  8
0
 10
279.283
 11
279.283
 20
146.999
 21
150
  0
LINE
  8
0
 10
279.283
 11
294.828
 20
150
 21
150
  0
LINE
  8
0
 10
294.828
 11
294.828
 20
150
 21
146.999
  0
LINE
  8
0
 10
294.828
 11
310.394
 20
146.999
 21
146.999
  0
LINE
  8
0
 10
310.394
 11
310.394
 20
146.999
 21
150
  0
LINE
  8
0
 10
310.394
 11
325.939
 20
150
 21
150
  0
LINE
  8
0
 10
325.939
 11
325.939
 20
150
 21
146.999
  0
LINE
  8
0
 10
325.939
 11
341.5
 20
146.999
 21
146.999
  0
LINE
  8
0
 10
341.5
 11
341.5
 20
146.999
 21
107.148
  0
LINE
  8
0
 10
341.5
 11
338.5
 20
107.148
 21
107.148
  0
LINE
  8
0
 10
338.5
 11
338.5
 20
107.148
 21
64.281
  0
LINE
  8
0
 10
338.5
 11
341.5
 20
64.281
 21
64.281
  0
LINE
  8
0
 10
341.5
 11
341.5
 20
64.281
 21
21.434
  0
LINE
  8
0
 10
341.5
 11
338.5
 20
21.434
 21
21.434
  0
LINE
  8
0
 10
338.5
 11
338.5
 20
21.434
 21
-21.434
  0
LINE
  8
0
 10
338.5
 11
341.5
 20
-21.434
 21
-21.434
  0
LINE
  8
0
 10
341.5
 11
341.5
 20
-21.434
 21
-64.281
  0
LINE
  8
0
 10
341.5
 11
338.5
 20
-64.281
 21
-64.281
  0
LINE
  8
0
 10
338.5
 11
338.5
 20
-64.281
 21
-107.148
  0
LINE
  8
0
 10
338.5
 11
341.5
 20
-107.148
 21
-107.148
  0
LINE
  8
0
 10
341.5
 11
341.5
 20
-107.148
 21
-146.999
  0
LINE
  8
0
 10
341.5
 11
325.939
 20
-146.999
 21
-146.999
  0
LINE
  8
0
 10
325.939
 11
325.939
 20
-146.999
 21
-150
  0
LINE
  8
0
 10
325.939
 11
310.394
 20
-150
 21
-150
  0
LINE
  8
0
 10
310.394
 11
310.394
 20
-150
 21
-146.999
  0
LINE
  8
0
 10
310.394
 11
294.828
 20
-146.999
 21
-146.999
  0
LINE
  8
0
 10
294.828
 11
294.828
 20
-146.999
 21
-150
  0
LINE
  8
0
 10
294.828
 11
279.283
 20
-150
 21
-150
  0
LINE
  8
0
 10
279.283
 11
279.283
 20
-150
 21
-146.999
  0
LINE
  8
0
 10
279.283
 11
263.717
 20
-146.999
 21
-146.999
  0
LINE
  8
0
 10
263.717
 11
263.717
 20
-146.999
 21
-150
  0
LINE
  8
0
 10
263.717
 11
248.172
 20
-150
 21
-150
  0
LINE
  8
0
 10
248.172
 11
248.172
 20
-150
 21
-146.999
  0
LINE
  8
0
 10
248.172
 11
232.606
 20
-146.999
 21
-146.999
  0
LINE
  8
0
 10
232.606
 11
232.606
 20
-146.999
 21
-150
  0
LINE
  8
0
 10
232.606
 11
217.061
 20
-150
 21
-150
  0
LINE
  8
0
 10
217.061
 11
217.061
 20
-150
 21
-146.999
  0
LINE
  8
0
 10
217.061
 11
201.5
 20
-146.999
 21
-146.999
  0
LINE
  8
0
 10
203
 11
203.219
 20
-226
 21
-223.921
  0
LINE
  8
0
 10
203.219
 11
203.865
 20
-223.921
 21
-221.933
  0
LINE
  8
0
 10
203.865
 11
204.91
 20
-221.933
 21
-220.122
  0
LINE
  8
0
 10
204.91
 11
206.309
 20
-220.122
 21
-218.569
  0
LINE
  8
0
 10
206.309
 11
208
 20
-218.569
 21
-217.34
  0
LINE
  8
0
 10
208
 11
209.91
 20
-217.34
 21
-216.489
  0
LINE
  8
0
 10
209.91
 11
211.955
 20
-216.489
 21
-216.055
  0
LINE
  8
0
 10
211.955
 11
213.94
 20
-216.055
 21
-216.055
  0
LINE
  8
0
 10
213.94
 11
215.974
 20
-216.055
 21
-213.748
  0
LINE
  8
0
 10
215.974
 11
218.413
 20
-213.748
 21
-211.308
  0
LINE
  8
0
 10
218.413
 11
221.002
 20
-211.308
 21
-209.026
  0
LINE
  8
0
 10
221.002
 11
223.728
 20
-209.026
 21
-206.912
  0
LINE
  8
0
 10
223.728
 11
226.582
 20
-206.912
 21
-204.972
  0
LINE
  8
0
 10
226.582
 11
229.552
 20
-204.972
 21
-203.216
  0
LINE
  8
0
 10
229.552
 11
232.626
 20
-203.216
 21
-201.649
  0
LINE
  8
0
 10
232.626
 11
235.793
 20
-201.649
 21
-200.279
  0
LINE
  8
0
 10
235.793
 11
239.039
 20
-200.279
 21
-199.11
  0
LINE
  8
0
 10
239.039
 11
242.353
 20
-199.11
 21
-198.147
  0
LINE
  8
0
 10
242.353
 11
245.72
 20
-198.147
 21
-197.395
  0
LINE
  8
0
 10
245.72
 11
249.128
 20
-197.395
 21
-196.855
  0
LINE
  8
0
 10
249.128
 11
252.563
 20
-196.855
 21
-196.53
  0
LINE
  8
0
 10
252.563
 11
256.012
 20
-196.53
 21
-196.422
  0
LINE
  8
0
 10
256.012
 11
259.46
 20
-196.422
 21
-196.53
  0
LINE
  8
0
 10
259.46
 11
262.895
 20
-196.53
 21
-196.855
  0
LINE
  8
0
 10
262.895
 11
266.303
 20
-196.855
 21
-197.395
  0
LINE
  8
0
 10
266.303
 11
269.671
 20
-197.395
 21
-198.147
  0
LINE
  8
0
 10
269.671
 11
272.984
 20
-198.147
 21
-199.11
  0
LINE
  8
0
 10
272.984
 11
276.231
 20
-199.11
 21
-200.279
  0
LINE
  8
0
 10
276.231
 11
279.397
 20
-200.279
 21
-201.649
  0
LINE
  8
0
 10
279.397
 11
282.472
 20
-201.649
 21
-203.216
  0
LINE
  8
0
 10
282.472
 11
285.441
 20
-203.216
 21
-204.972
  0
LINE
  8
0
 10
285.441
 11
288.295
 20
-204.972
 21
-206.912
  0
LINE
  8
0
 10
288.295
 11
291.022
 20
-206.912
 21
-209.026
  0
LINE
  8
0
 10
291.022
 11
293.61
 20
-209.026
 21
-211.308
  0
LINE
  8
0
 10
293.61
 11
296.05
 20
-211.308
 21
-213.748
  0
LINE
  8
0
 10
296.05
 11
298.083
 20
-213.748
 21
-216.055
  0
LINE
  8
0
 10
298.083
 11
300.069
 20
-216.055
 21
-216.055
  0
LINE
  8
0
 10
300.069
 11
302.113
 20
-216.055
 21
-216.489
  0
LINE
  8
0
 10
302.113
 11
304.023
 20
-216.489
 21
-217.34
  0
LINE
  8
0
 10
304.023
 11
305.715
 20
-217.34
 21
-218.569
  0
LINE
  8
0
 10
305.715
 11
307.113
 20
-218.569
 21
-220.122
  0
LINE
  8
0
 10
307.113
 11
308.159
 20
-220.122
 21
-221.933
  0
LINE
  8
0
 10
308.159
 11
308.805
 20
-221.933
 21
-223.921
  0
LINE
  8
0
 10
308.805
 11
309.023
 20
-223.921
 21
-226
  0
LINE
  8
0
 10
309.023
 11
308.805
 20
-226
 21
-228.079
  0
LINE
  8
0
 10
308.805
 11
308.159
 20
-228.079
 21
-230.067
  0
LINE
  8
0
 10
308.159
 11
307.113
 20
-230.067
 21
-231.878
  0
LINE
  8
0
 10
307.113
 11
305.715
 20
-231.878
 21
-233.431
  0
LINE
  8
0
 10
305.715
 11
304.023
 20
-233.431
 21
-234.66
  0
LINE
  8
0
 10
304.023
 11
302.113
 20
-234.66
 21
-235.511
  0
LINE
  8
0
 10
302.113
 11
300.069
 20
-235.511
 21
-235.945
  0
LINE
  8
0
 10
300.069
 11
297.978
 20
-235.945
 21
-235.945
  0
LINE
  8
0
 10
297.978
 11
295.933
 20
-235.945
 21
-235.511
  0
LINE
  8
0
 10
295.933
 11
294.023
 20
-235.511
 21
-234.66
  0
LINE
  8
0
 10
294.023
 11
292.332
 20
-234.66
 21
-233.431
  0
LINE
  8
0
 10
292.332
 11
290.933
 20
-233.431
 21
-231.878
  0
LINE
  8
0
 10
290.933
 11
289.888
 20
-231.878
 21
-230.067
  0
LINE
  8
0
 10
289.888
 11
289.242
 20
-230.067
 21
-228.079
  0
LINE
  8
0
 10
289.242
 11
289.023
 20
-228.079
 21
-226
  0
LINE
  8
0
 10
289.023
 11
289.242
 20
-226
 21
-223.921
  0
LINE
  8
0
 10
289.242
 11
289.888
 20
-223.921
 21
-221.933
  0
LINE
  8
0
 10
289.888
 11
289.909
 20
-221.933
 21
-221.896
  0
LINE
  8
0
 10
289.909
 11
288.76
 20
-221.896
 21
-220.593
  0
LINE
  8
0
 10
288.76
 11
286.764
 20
-220.593
 21
-218.598
  0
LINE
  8
0
 10
286.764
 11
284.647
 20
-218.598
 21
-216.731
  0
LINE
  8
0
 10
284.647
 11
282.417
 20
-216.731
 21
-215.002
  0
LINE
  8
0
 10
282.417
 11
280.083
 20
-215.002
 21
-213.415
  0
LINE
  8
0
 10
280.083
 11
277.654
 20
-213.415
 21
-211.979
  0
LINE
  8
0
 10
277.654
 11
275.139
 20
-211.979
 21
-210.697
  0
LINE
  8
0
 10
275.139
 11
272.549
 20
-210.697
 21
-209.577
  0
LINE
  8
0
 10
272.549
 11
269.894
 20
-209.577
 21
-208.621
  0
LINE
  8
0
 10
269.894
 11
267.184
 20
-208.621
 21
-207.833
  0
LINE
  8
0
 10
267.184
 11
264.43
 20
-207.833
 21
-207.218
  0
LINE
  8
0
 10
264.43
 11
261.642
 20
-207.218
 21
-206.776
  0
LINE
  8
0
 10
261.642
 11
258.832
 20
-206.776
 21
-206.511
  0
LINE
  8
0
 10
258.832
 11
256.012
 20
-206.511
 21
-206.422
  0
LINE
  8
0
 10
256.012
 11
253.191
 20
-206.422
 21
-206.511
  0
LINE
  8
0
 10
253.191
 11
250.381
 20
-206.511
 21
-206.776
  0
LINE
  8
0
 10
250.381
 11
247.594
 20
-206.776
 21
-207.218
  0
LINE
  8
0
 10
247.594
 11
244.839
 20
-207.218
 21
-207.833
  0
LINE
  8
0
 10
244.839
 11
242.129
 20
-207.833
 21
-208.621
  0
LINE
  8
0
 10
242.129
 11
239.474
 20
-208.621
 21
-209.577
  0
LINE
  8
0
 10
239.474
 11
236.884
 20
-209.577
 21
-210.697
  0
LINE
  8
0
 10
236.884
 11
234.369
 20
-210.697
 21
-211.979
  0
LINE
  8
0
 10
234.369
 11
231.94
 20
-211.979
 21
-213.415
  0
LINE
  8
0
 10
231.94
 11
229.606
 20
-213.415
 21
-215.002
  0
LINE
  8
0
 10
229.606
 11
227.376
 20
-215.002
 21
-216.731
  0
LINE
  8
0
 10
227.376
 11
225.259
 20
-216.731
 21
-218.598
  0
LINE
  8
0
 10
225.259
 11
223.263
 20
-218.598
 21
-220.593
  0
LINE
  8
0
 10
223.263
 11
222.115
 20
-220.593
 21
-221.896
  0
LINE
  8
0
 10
222.115
 11
222.135
 20
-221.896
 21
-221.933
  0
LINE
  8
0
 10
222.135
 11
222.781
 20
-221.933
 21
-223.921
  0
LINE
  8
0
 10
222.781
 11
223
 20
-223.921
 21
-226
  0
LINE
  8
0
 10
223
 11
222.781
 20
-226
 21
-228.079
  0
LINE
  8
0
 10
222.781
 11
222.135
 20
-228.079
 21
-230.067
  0
LINE
  8
0
 10
222.135
 11
221.09
 20
-230.067
 21
-231.878
  0
LINE
  8
0
 10
221.09
 11
219.691
 20
-231.878
 21
-233.431
  0
LINE
  8
0
 10
219.691
 11
218
 20
-233.431
 21
-234.66
  0
LINE
  8
0
 10
218
 11
216.09
 20
-234.66
 21
-235.511
  0
LINE
  8
0
 10
216.09
 11
214.045
 20
-235.511
 21
-235.945
  0
LINE
  8
0
 10
214.045
 11
211.955
 20
-235.945
 21
-235.945
  0
LINE
  8
0
 10
211.955
 11
209.91
 20
-235.945
 21
-235.511
  0
LINE
  8
0
 10
209.91
 11
208
 20
-235.511
 21
-234.66
  0
LINE
  8
0
 10
208
 11
206.309
 20
-234.66
 21
-233.431
  0
LINE
  8
0
 10
206.309
 11
204.91
 20
-233.431
 21
-231.878
  0
LINE
  8
0
 10
204.91
 11
203.865
 20
-231.878
 21
-230.067
  0
LINE
  8
0
 10
203.865
 11
203.219
 20
-230.067
 21
-228.079
  0
LINE
  8
0
 10
203.219
 11
203
 20
-228.079
 21
-226
  0
LINE
  8
0
 10
203
 11
203.219
 20
-196
 21
-193.921
  0
LINE
  8
0
 10
203.219
 11
203.865
 20
-193.921
 21
-191.933
  0
LINE
  8
0
 10
203.865
 11
204.91
 20
-191.933
 21
-190.122
  0
LINE
  8
0
 10
204.91
 11
206.309
 20
-190.122
 21
-188.569
  0
LINE
  8
0
 10
206.309
 11
208
 20
-188.569
 21
-187.34
  0
LINE
  8
0
 10
208
 11
209.91
 20
-187.34
 21
-186.489
  0
LINE
  8
0
 10
209.91
 11
211.955
 20
-186.489
 21
-186.055
  0
LINE
  8
0
 10
211.955
 11
213.94
 20
-186.055
 21
-186.055
  0
LINE
  8
0
 10
213.94
 11
215.974
 20
-186.055
 21
-183.748
  0
LINE
  8
0
 10
215.974
 11
218.413
 20
-183.748
 21
-181.308
  0
LINE
  8
0
 10
218.413
 11
221.002
 20
-181.308
 21
-179.026
  0
LINE
  8
0
 10
221.002
 11
223.728
 20
-179.026
 21
-176.912
  0
LINE
  8
0
 10
223.728
 11
226.582
 20
-176.912
 21
-174.972
  0
LINE
  8
0
 10
226.582
 11
229.552
 20
-174.972
 21
-173.216
  0
LINE
  8
0
 10
229.552
 11
232.626
 20
-173.216
 21
-171.649
  0
LINE
  8
0
 10
232.626
 11
235.793
 20
-171.649
 21
-170.279
  0
LINE
  8
0
 10
235.793
 11
239.039
 20
-170.279
 21
-169.11
  0
LINE
  8
0
 10
239.039
 11
242.353
 20
-169.11
 21
-168.147
  0
LINE
  8
0
 10
242.353
 11
245.72
 20
-168.147
 21
-167.395
  0
LINE
  8
0
 10
245.72
 11
249.128
 20
-167.395
 21
-166.855
  0
LINE
  8
0
 10
249.128
 11
252.563
 20
-166.855
 21
-166.53
  0
LINE
  8
0
 10
252.563
 11
256.012
 20
-166.53
 21
-166.422
  0
LINE
  8
0
 10
256.012
 11
259.46
 20
-166.422
 21
-166.53
  0
LINE
  8
0
 10
259.46
 11
262.895
 20
-166.53
 21
-166.855
  0
LINE
  8
0
 10
262.895
 11
266.303
 20
-166.855
 21
-167.395
  0
LINE
  8
0
 10
266.303
 11
269.671
 20
-167.395
 21
-168.147
  0
LINE
  8
0
 10
269.671
 11
272.984
 20
-168.147
 21
-169.11
  0
LINE
  8
0
 10
272.984
 11
276.231
 20
-169.11
 21
-170.279
  0
LINE
  8
0
 10
276.231
 11
279.397
 20
-170.279
 21
-171.649
  0
LINE
  8
0
 10
279.397
 11
282.472
 20
-171.649
 21
-173.216
  0
LINE
  8
0
 10
282.472
 11
285.441
 20
-173.216
 21
-174.972
  0
LINE
  8
0
 10
285.441
 11
288.295
 20
-174.972
 21
-176.912
  0
LINE
  8
0
 10
288.295
 11
291.022
 20
-176.912
 21
-179.026
  0
LINE
  8
0
 10
291.022
 11
293.61
 20
-179.026
 21
-181.308
  0
LINE
  8
0
 10
293.61
 11
296.05
 20
-181.308
 21
-183.748
  0
LINE
  8
0
 10
296.05
 11
298.083
 20
-183.748
 21
-186.055
  0
LINE
  8
0
 10
298.083
 11
300.069
 20
-186.055
 21
-186.055
  0
LINE
  8
0
 10
300.069
 11
302.113
 20
-186.055
 21
-186.489
  0
LINE
  8
0
 10
302.113
 11
304.023
 20
-186.489
 21
-187.34
  0
LINE
  8
0
 10
304.023
 11
305.715
 20
-187.34
 21
-188.569
  0
LINE
  8
0
 10
305.715
 11
307.113
 20
-188.569
 21
-190.122
  0
LINE
  8
0
 10
307.113
 11
308.159
 20
-190.122
 21
-191.933
  0
LINE
  8
0
 10
308.159
 11
308.805
 20
-191.933
 21
-193.921
  0
LINE
  8
0
 10
308.805
 11
309.023
 20
-193.921
 21
-196
  0
LINE
  8
0
 10
309.023
 11
308.805
 20
-196
 21
-198.079
  0
LINE
  8
0
 10
308.805
 11
308.159
 20
-198.079
 21
-200.067
  0
LINE
  8
0
 10
308.159
 11
307.113
 20
-200.067
 21
-201.878
  0
LINE
  8
0
 10
307.113
 11
305.715
 20
-201.878
 21
-203.431
  0
LINE
  8
0
 10
305.715
 11
304.023
 20
-203.431
 21
-204.66
  0
LINE
  8
0
 10
304.023
 11
302.113
 20
-204.66
 21
-205.511
  0
LINE
  8
0
 10
302.113
 11
300.069
 20
-205.511
 21
-205.945
  0
LINE
  8
0
 10
300.069
 11
297.978
 20
-205.945
 21
-205.945
  0
LINE
  8
0
 10
297.978
 11
295.933
 20
-205.945
 21
-205.511
  0
LINE
  8
0
 10
295.933
 11
294.023
 20
-205.511
 21
-204.66
  0
LINE
  8
0
 10
294.023
 11
292.332
 20
-204.66
 21
-203.431
  0
LINE
  8
0
 10
292.332
 11
290.933
 20
-203.431
 21
-201.878
  0
LINE
  8
0
 10
290.933
 11
289.888
 20
-201.878
 21
-200.067
  0
LINE
  8
0
 10
289.888
 11
289.242
 20
-200.067
 21
-198.079
  0
LINE
  8
0
 10
289.242
 11
289.023
 20
-198.079
 21
-196
  0
LINE
  8
0
 10
289.023
 11
289.242
 20
-196
 21
-193.921
  0
LINE
  8
0
 10
289.242
 11
289.888
 20
-193.921
 21
-191.933
  0
LINE
  8
0
 10
289.888
 11
289.909
 20
-191.933
 21
-191.896
  0
LINE
  8
0
 10
289.909
 11
288.76
 20
-191.896
 21
-190.593
  0
LINE
  8
0
 10
288.76
 11
286.764
 20
-190.593
 21
-188.598
  0
LINE
  8
0
 10
286.764
 11
284.647
 20
-188.598
 21
-186.731
  0
LINE
  8
0
 10
284.647
 11
282.417
 20
-186.731
 21
-185.002
  0
LINE
  8
0
 10
282.417
 11
280.083
 20
-185.002
 21
-183.415
  0
LINE
  8
0
 10
280.083
 11
277.654
 20
-183.415
 21
-181.979
  0
LINE
  8
0
 10
277.654
 11
275.139
 20
-181.979
 21
-180.697
  0
LINE
  8
0
 10
275.139
 11
272.549
 20
-180.697
 21
-179.577
  0
LINE
  8
0
 10
272.549
 11
269.894
 20
-179.577
 21
-178.621
  0
LINE
  8
0
 10
269.894
 11
267.184
 20
-178.621
 21
-177.833
  0
LINE
  8
0
 10
267.184
 11
264.43
 20
-177.833
 21
-177.218
  0
LINE
  8
0
 10
264.43
 11
261.642
 20
-177.218
 21
-176.776
  0
LINE
  8
0
 10
261.642
 11
258.832
 20
-176.776
 21
-176.511
  0
LINE
  8
0
 10
258.832
 11
256.012
 20
-176.511
 21
-176.422
  0
LINE
  8
0
 10
256.012
 11
253.191
 20
-176.422
 21
-176.511
  0
LINE
  8
0
 10
253.191
 11
250.381
 20
-176.511
 21
-176.776
  0
LINE
  8
0
 10
250.381
 11
247.594
 20
-176.776
 21
-177.218
  0
LINE
  8
0
 10
247.594
 11
244.839
 20
-177.218
 21
-177.833
  0
LINE
  8
0
 10
244.839
 11
242.129
 20
-177.833
 21
-178.621
  0
LINE
  8
0
 10
242.129
 11
239.474
 20
-178.621
 21
-179.577
  0
LINE
  8
0
 10
239.474
 11
236.884
 20
-179.577
 21
-180.697
  0
LINE
  8
0
 10
236.884
 11
234.369
 20
-180.697
 21
-181.979
  0
LINE
  8
0
 10
234.369
 11
231.94
 20
-181.979
 21
-183.415
  0
LINE
  8
0
 10
231.94
 11
229.606
 20
-183.415
 21
-185.002
  0
LINE
  8
0
 10
229.606
 11
227.376
 20
-185.002
 21
-186.731
  0
LINE
  8
0
 10
227.376
 11
225.259
 20
-186.731
 21
-188.598
  0
LINE
  8
0
 10
225.259
 11
223.263
 20
-188.598
 21
-190.593
  0
LINE
  8
0
 10
223.263
 11
222.115
 20
-190.593
 21
-191.896
  0
LINE
  8
0
 10
222.115
 11
222.135
 20
-191.896
 21
-191.933
  0
LINE
  8
0
 10
222.135
 11
222.781
 20
-191.933
 21
-193.921
  0
LINE
  8
0
 10
222.781
 11
223
 20
-193.921
 21
-196
  0
LINE
  8
0
 10
223
 11
222.781
 20
-196
 21
-198.079
  0
LINE
  8
0
 10
222.781
 11
222.135
 20
-198.079
 21
-200.067
  0
LINE
  8
0
 10
222.135
 11
221.09
 20
-200.067
 21
-201.878
  0
LINE
  8
0
 10
221.09
 11
219.691
 20
-201.878
 21
-203.431
  0
LINE
  8
0
 10
219.691
 11
218
 20
-203.431
 21
-204.66
  0
LINE
  8
0
 10
218
 11
216.09
 20
-204.66
 21
-205.511
  0
LINE
  8
0
 10
216.09
 11
214.045
 20
-205.511
 21
-205.945
  0
LINE
  8
0
 10
214.045
 11
211.955
 20
-205.945
 21
-205.945
  0
LINE
  8
0
 10
211.955
 11
209.91
 20
-205.945
 21
-205.511
  0
LINE
  8
0
 10
209.91
 11
208
 20
-205.511
 21
-204.66
  0
LINE
  8
0
 10
208
 11
206.309
 20
-204.66
 21
-203.431
  0
LINE
  8
0
 10
206.309
 11
204.91
 20
-203.431
 21
-201.878
  0
LINE
  8
0
 10
204.91
 11
203.865
 20
-201.878
 21
-200.067
  0
LINE
  8
0
 10
203.865
 11
203.219
 20
-200.067
 21
-198.079
  0
LINE
  8
0
 10
203.219
 11
203
 20
-198.079
 21
-196
  0
LINE
  8
0
 10
203
 11
203.219
 20
163
 21
165.079
  0
LINE
  8
0
 10
203.219
 11
203.865
 20
165.079
 21
167.067
  0
LINE
  8
0
 10
203.865
 11
204.91
 20
167.067
 21
168.878
  0
LINE
  8
0
 10
204.91
 11
206.309
 20
168.878
 21
170.431
  0
LINE
  8
0
 10
206.309
 11
208
 20
170.431
 21
171.66
  0
LINE
  8
0
 10
208
 11
209.91
 20
171.66
 21
172.511
  0
LINE
  8
0
 10
209.91
 11
211.955
 20
172.511
 21
172.945
  0
LINE
  8
0
 10
211.955
 11
213.509
 20
172.945
 21
172.945
  0
LINE
  8
0
 10
213.509
 11
214.649
 20
172.945
 21
174.623
  0
LINE
  8
0
 10
214.649
 11
219.016
 20
174.623
 21
180.253
  0
LINE
  8
0
 10
219.016
 11
223.728
 20
180.253
 21
185.597
  0
LINE
  8
0
 10
223.728
 11
228.767
 20
185.597
 21
190.636
  0
LINE
  8
0
 10
228.767
 11
234.111
 20
190.636
 21
195.348
  0
LINE
  8
0
 10
234.111
 11
239.741
 20
195.348
 21
199.715
  0
LINE
  8
0
 10
239.741
 11
245.634
 20
199.715
 21
203.72
  0
LINE
  8
0
 10
245.634
 11
251.767
 20
203.72
 21
207.347
  0
LINE
  8
0
 10
251.767
 11
258.116
 20
207.347
 21
210.581
  0
LINE
  8
0
 10
258.116
 11
264.655
 20
210.581
 21
213.411
  0
LINE
  8
0
 10
264.655
 11
271.359
 20
213.411
 21
215.825
  0
LINE
  8
0
 10
271.359
 11
278.201
 20
215.825
 21
217.813
  0
LINE
  8
0
 10
278.201
 11
285.155
 20
217.813
 21
219.367
  0
LINE
  8
0
 10
285.155
 11
292.192
 20
219.367
 21
220.481
  0
LINE
  8
0
 10
292.192
 11
299.286
 20
220.481
 21
221.152
  0
LINE
  8
0
 10
299.286
 11
306.408
 20
221.152
 21
221.376
  0
LINE
  8
0
 10
306.408
 11
313.529
 20
221.376
 21
221.152
  0
LINE
  8
0
 10
313.529
 11
320.623
 20
221.152
 21
220.481
  0
LINE
  8
0
 10
320.623
 11
327.66
 20
220.481
 21
219.367
  0
LINE
  8
0
 10
327.66
 11
334.614
 20
219.367
 21
217.813
  0
LINE
  8
0
 10
334.614
 11
341.456
 20
217.813
 21
215.825
  0
LINE
  8
0
 10
341.456
 11
348.16
 20
215.825
 21
213.411
  0
LINE
  8
0
 10
348.16
 11
354.699
 20
213.411
 21
210.581
  0
LINE
  8
0
 10
354.699
 11
361.048
 20
210.581
 21
207.347
  0
LINE
  8
0
 10
361.048
 11
367.181
 20
207.347
 21
203.72
  0
LINE
  8
0
 10
367.181
 11
373.074
 20
203.72
 21
199.715
  0
LINE
  8
0
 10
373.074
 11
378.704
 20
199.715
 21
195.348
  0
LINE
  8
0
 10
378.704
 11
384.049
 20
195.348
 21
190.636
  0
LINE
  8
0
 10
384.049
 11
389.087
 20
190.636
 21
185.597
  0
LINE
  8
0
 10
389.087
 11
393.799
 20
185.597
 21
180.253
  0
LINE
  8
0
 10
393.799
 11
398.166
 20
180.253
 21
174.623
  0
LINE
  8
0
 10
398.166
 11
399.306
 20
174.623
 21
172.945
  0
LINE
  8
0
 10
399.306
 11
400.861
 20
172.945
 21
172.945
  0
LINE
  8
0
 10
400.861
 11
402.906
 20
172.945
 21
172.511
  0
LINE
  8
0
 10
402.906
 11
404.815
 20
172.511
 21
171.66
  0
LINE
  8
0
 10
404.815
 11
406.507
 20
171.66
 21
170.431
  0
LINE
  8
0
 10
406.507
 11
407.906
 20
170.431
 21
168.878
  0
LINE
  8
0
 10
407.906
 11
408.951
 20
168.878
 21
167.067
  0
LINE
  8
0
 10
408.951
 11
409.597
 20
167.067
 21
165.079
  0
LINE
  8
0
 10
409.597
 11
409.815
 20
165.079
 21
163
  0
LINE
  8
0
 10
409.815
 11
409.597
 20
163
 21
160.921
  0
LINE
  8
0
 10
409.597
 11
408.951
 20
160.921
 21
158.933
  0
LINE
  8
0
 10
408.951
 11
407.906
 20
158.933
 21
157.122
  0
LINE
  8
0
 10
407.906
 11
406.507
 20
157.122
 21
155.569
  0
LINE
  8
0
 10
406.507
 11
404.815
 20
155.569
 21
154.34
  0
LINE
  8
0
 10
404.815
 11
402.906
 20
154.34
 21
153.489
  0
LINE
  8
0
 10
402.906
 11
400.861
 20
153.489
 21
153.055
  0
LINE
  8
0
 10
400.861
 11
398.77
 20
153.055
 21
153.055
  0
LINE
  8
0
 10
398.77
 11
396.725
 20
153.055
 21
153.489
  0
LINE
  8
0
 10
396.725
 11
394.815
 20
153.489
 21
154.34
  0
LINE
  8
0
 10
394.815
 11
393.124
 20
154.34
 21
155.569
  0
LINE
  8
0
 10
393.124
 11
391.725
 20
155.569
 21
157.122
  0
LINE
  8
0
 10
391.725
 11
390.68
 20
157.122
 21
158.933
  0
LINE
  8
0
 10
390.68
 11
390.034
 20
158.933
 21
160.921
  0
LINE
  8
0
 10
390.034
 11
389.815
 20
160.921
 21
163
  0
LINE
  8
0
 10
389.815
 11
390.034
 20
163
 21
165.079
  0
LINE
  8
0
 10
390.034
 11
390.68
 20
165.079
 21
167.067
  0
LINE
  8
0
 10
390.68
 11
390.926
 20
167.067
 21
167.494
  0
LINE
  8
0
 10
390.926
 11
390.076
 20
167.494
 21
168.745
  0
LINE
  8
0
 10
390.076
 11
386.094
 20
168.745
 21
173.878
  0
LINE
  8
0
 10
386.094
 11
381.797
 20
173.878
 21
178.752
  0
LINE
  8
0
 10
381.797
 11
377.203
 20
178.752
 21
183.346
  0
LINE
  8
0
 10
377.203
 11
372.33
 20
183.346
 21
187.642
  0
LINE
  8
0
 10
372.33
 11
367.196
 20
187.642
 21
191.624
  0
LINE
  8
0
 10
367.196
 11
361.823
 20
191.624
 21
195.276
  0
LINE
  8
0
 10
361.823
 11
356.231
 20
195.276
 21
198.584
  0
LINE
  8
0
 10
356.231
 11
350.442
 20
198.584
 21
201.533
  0
LINE
  8
0
 10
350.442
 11
344.479
 20
201.533
 21
204.113
  0
LINE
  8
0
 10
344.479
 11
338.366
 20
204.113
 21
206.314
  0
LINE
  8
0
 10
338.366
 11
332.127
 20
206.314
 21
208.127
  0
LINE
  8
0
 10
332.127
 11
325.787
 20
208.127
 21
209.544
  0
LINE
  8
0
 10
325.787
 11
319.37
 20
209.544
 21
210.56
  0
LINE
  8
0
 10
319.37
 11
312.901
 20
210.56
 21
211.172
  0
LINE
  8
0
 10
312.901
 11
306.408
 20
211.172
 21
211.376
  0
LINE
  8
0
 10
306.408
 11
299.914
 20
211.376
 21
211.172
  0
LINE
  8
0
 10
299.914
 11
293.446
 20
211.172
 21
210.56
  0
LINE
  8
0
 10
293.446
 11
287.029
 20
210.56
 21
209.544
  0
LINE
  8
0
 10
287.029
 11
280.688
 20
209.544
 21
208.127
  0
LINE
  8
0
 10
280.688
 11
274.449
 20
208.127
 21
206.314
  0
LINE
  8
0
 10
274.449
 11
268.336
 20
206.314
 21
204.113
  0
LINE
  8
0
 10
268.336
 11
262.374
 20
204.113
 21
201.533
  0
LINE
  8
0
 10
262.374
 11
256.585
 20
201.533
 21
198.584
  0
LINE
  8
0
 10
256.585
 11
250.993
 20
198.584
 21
195.276
  0
LINE
  8
0
 10
250.993
 11
245.619
 20
195.276
 21
191.624
  0
LINE
  8
0
 10
245.619
 11
240.486
 20
191.624
 21
187.642
  0
LINE
  8
0
 10
240.486
 11
235.612
 20
187.642
 21
183.346
  0
LINE
  8
0
 10
235.612
 11
231.018
 20
183.346
 21
178.752
  0
LINE
  8
0
 10
231.018
 11
226.721
 20
178.752
 21
173.878
  0
LINE
  8
0
 10
226.721
 11
222.739
 20
173.878
 21
168.745
  0
LINE
  8
0
 10
222.739
 11
221.889
 20
168.745
 21
167.494
  0
LINE
  8
0
 10
221.889
 11
222.135
 20
167.494
 21
167.067
  0
LINE
  8
0
 10
222.135
 11
222.781
 20
167.067
 21
165.079
  0
LINE
  8
0
 10
222.781
 11
223
 20
165.079
 21
163
  0
LINE
  8
0
 10
223
 11
222.781
 20
163
 21
160.921
  0
LINE
  8
0
 10
222.781
 11
222.135
 20
160.921
 21
158.933
  0
LINE
  8
0
 10
222.135
 11
221.09
 20
158.933
 21
157.122
  0
LINE
  8
0
 10
221.09
 11
219.691
 20
157.122
 21
155.569
  0
LINE
  8
0
 10
219.691
 11
218
 20
155.569
 21
154.34
  0
LINE
  8
0
 10
218
 11
216.09
 20
154.34
 21
153.489
  0
LINE
  8
0
 10
216.09
 11
214.045
 20
153.489
 21
153.055
  0
LINE
  8
0
 10
214.045
 11
211.955
 20
153.055
 21
153.055
  0
LINE
  8
0
 10
211.955
 11
209.91
 20
153.055
 21
153.489
  0
LINE
  8
0
 10
209.91
 11
208
 20
153.489
 21
154.34
  0
LINE
  8
0
 10
208
 11
206.309
 20
154.34
 21
155.569
  0
LINE
  8
0
 10
206.309
 11
204.91
 20
155.569
 21
157.122
  0
LINE
  8
0
 10
204.91
 11
203.865
 20
157.122
 21
158.933
  0
LINE
  8
0
 10
203.865
 11
203.219
 20
158.933
 21
160.921
  0
LINE
  8
0
 10
203.219
 11
203
 20
160.921
 21
163
  0
LINE
  8
0
 10
203
 11
203.219
 20
196
 21
198.079
  0
LINE
  8
0
 10
203.219
 11
203.865
 20
198.079
 21
200.067
  0
LINE
  8
0
 10
203.865
 11
204.91
 20
200.067
 21
201.878
  0
LINE
  8
0
 10
204.91
 11
206.309
 20
201.878
 21
203.431
  0
LINE
  8
0
 10
206.309
 11
208
 20
203.431
 21
204.66
  0
LINE
  8
0
 10
208
 11
209.91
 20
204.66
 21
205.511
  0
LINE
  8
0
 10
209.91
 11
211.955
 20
205.511
 21
205.945
  0
LINE
  8
0
 10
211.955
 11
213.509
 20
205.945
 21
205.945
  0
LINE
  8
0
 10
213.509
 11
214.649
 20
205.945
 21
207.623
  0
LINE
  8
0
 10
214.649
 11
219.016
 20
207.623
 21
213.253
  0
LINE
  8
0
 10
219.016
 11
223.728
 20
213.253
 21
218.597
  0
LINE
  8
0
 10
223.728
 11
228.767
 20
218.597
 21
223.636
  0
LINE
  8
0
 10
228.767
 11
234.111
 20
223.636
 21
228.348
  0
LINE
  8
0
 10
234.111
 11
239.741
 20
228.348
 21
232.715
  0
LINE
  8
0
 10
239.741
 11
245.634
 20
232.715
 21
236.72
  0
LINE
  8
0
 10
245.634
 11
251.767
 20
236.72
 21
240.347
  0
LINE
  8
0
 10
251.767
 11
258.116
 20
240.347
 21
243.581
  0
LINE
  8
0
 10
258.116
 11
264.655
 20
243.581
 21
246.411
  0
LINE
  8
0
 10
264.655
 11
271.359
 20
246.411
 21
248.825
  0
LINE
  8
0
 10
271.359
 11
278.201
 20
248.825
 21
250.813
  0
LINE
  8
0
 10
278.201
 11
285.155
 20
250.813
 21
252.367
  0
LINE
  8
0
 10
285.155
 11
292.192
 20
252.367
 21
253.481
  0
LINE
  8
0
 10
292.192
 11
299.286
 20
253.481
 21
254.152
  0
LINE
  8
0
 10
299.286
 11
306.408
 20
254.152
 21
254.376
  0
LINE
  8
0
 10
306.408
 11
313.529
 20
254.376
 21
254.152
  0
LINE
  8
0
 10
313.529
 11
320.623
 20
254.152
 21
253.481
  0
LINE
  8
0
 10
320.623
 11
327.66
 20
253.481
 21
252.367
  0
LINE
  8
0
 10
327.66
 11
334.614
 20
252.367
 21
250.813
  0
LINE
  8
0
 10
334.614
 11
341.456
 20
250.813
 21
248.825
  0
LINE
  8
0
 10
341.456
 11
348.16
 20
248.825
 21
246.411
  0
LINE
  8
0
 10
348.16
 11
354.699
 20
246.411
 21
243.581
  0
LINE
  8
0
 10
354.699
 11
361.048
 20
243.581
 21
240.347
  0
LINE
  8
0
 10
361.048
 11
367.181
 20
240.347
 21
236.72
  0
LINE
  8
0
 10
367.181
 11
373.074
 20
236.72
 21
232.715
  0
LINE
  8
0
 10
373.074
 11
378.704
 20
232.715
 21
228.348
  0
LINE
  8
0
 10
378.704
 11
384.049
 20
228.348
 21
223.636
  0
LINE
  8
0
 10
384.049
 11
389.087
 20
223.636
 21
218.597
  0
LINE
  8
0
 10
389.087
 11
393.799
 20
218.597
 21
213.253
  0
LINE
  8
0
 10
393.799
 11
398.166
 20
213.253
 21
207.623
  0
LINE
  8
0
 10
398.166
 11
399.306
 20
207.623
 21
205.945
  0
LINE
  8
0
 10
399.306
 11
400.861
 20
205.945
 21
205.945
  0
LINE
  8
0
 10
400.861
 11
402.906
 20
205.945
 21
205.511
  0
LINE
  8
0
 10
402.906
 11
404.815
 20
205.511
 21
204.66
  0
LINE
  8
0
 10
404.815
 11
406.507
 20
204.66
 21
203.431
  0
LINE
  8
0
 10
406.507
 11
407.906
 20
203.431
 21
201.878
  0
LINE
  8
0
 10
407.906
 11
408.951
 20
201.878
 21
200.067
  0
LINE
  8
0
 10
408.951
 11
409.597
 20
200.067
 21
198.079
  0
LINE
  8
0
 10
409.597
 11
409.815
 20
198.079
 21
196
  0
LINE
  8
0
 10
409.815
 11
409.597
 20
196
 21
193.921
  0
LINE
  8
0
 10
409.597
 11
408.951
 20
193.921
 21
191.933
  0
LINE
  8
0
 10
408.951
 11
407.906
 20
191.933
 21
190.122
  0
LINE
  8
0
 10
407.906
 11
406.507
 20
190.122
 21
188.569
  0
LINE
  8
0
 10
406.507
 11
404.815
 20
188.569
 21
187.34
  0
LINE
  8
0
 10
404.815
 11
402.906
 20
187.34
 21
186.489
  0
LINE
  8
0
 10
402.906
 11
400.861
 20
186.489
 21
186.055
  0
LINE
  8
0
 10
400.861
 11
398.77
 20
186.055
 21
186.055
  0
LINE
  8
0
 10
398.77
 11
396.725
 20
186.055
 21
186.489
  0
LINE
  8
0
 10
396.725
 11
394.815
 20
186.489
 21
187.34
  0
LINE
  8
0
 10
394.815
 11
393.124
 20
187.34
 21
188.569
  0
LINE
  8
0
 10
393.124
 11
391.725
 20
188.569
 21
190.122
  0
LINE
  8
0
 10
391.725
 11
390.68
 20
190.122
 21
191.933
  0
LINE
  8
0
 10
390.68
 11
390.034
 20
191.933
 21
193.921
  0
LINE
  8
0
 10
390.034
 11
389.815
 20
193.921
 21
196
  0
LINE
  8
0
 10
389.815
 11
390.034
 20
196
 21
198.079
  0
LINE
  8
0
 10
390.034
 11
390.68
 20
198.079
 21
200.067
  0
LINE
  8
0
 10
390.68
 11
390.926
 20
200.067
 21
200.494
  0
LINE
  8
0
 10
390.926
 11
390.076
 20
200.494
 21
201.745
  0
LINE
  8
0
 10
390.076
 11
386.094
 20
201.745
 21
206.878
  0
LINE
  8
0
 10
386.094
 11
381.797
 20
206.878
 21
211.752
  0
LINE
  8
0
 10
381.797
 11
377.203
 20
211.752
 21
216.346
  0
LINE
  8
0
 10
377.203
 11
372.33
 20
216.346
 21
220.642
  0
LINE
  8
0
 10
372.33
 11
367.196
 20
220.642
 21
224.624
  0
LINE
  8
0
 10
367.196
 11
361.823
 20
224.624
 21
228.276
  0
LINE
  8
0
 10
361.823
 11
356.231
 20
228.276
 21
231.584
  0
LINE
  8
0
 10
356.231
 11
350.442
 20
231.584
 21
234.533
  0
LINE
  8
0
 10
350.442
 11
344.479
 20
234.533
 21
237.113
  0
LINE
  8
0
 10
344.479
 11
338.366
 20
237.113
 21
239.314
  0
LINE
  8
0
 10
338.366
 11
332.127
 20
239.314
 21
241.127
  0
LINE
  8
0
 10
332.127
 11
325.787
 20
241.127
 21
242.544
  0
LINE
  8
0
 10
325.787
 11
319.37
 20
242.544
 21
243.56
  0
LINE
  8
0
 10
319.37
 11
312.901
 20
243.56
 21
244.172
  0
LINE
  8
0
 10
312.901
 11
306.408
 20
244.172
 21
244.376
  0
LINE
  8
0
 10
306.408
 11
299.914
 20
244.376
 21
244.172
  0
LINE
  8
0
 10
299.914
 11
293.446
 20
244.172
 21
243.56
  0
LINE
  8
0
 10
293.446
 11
287.029
 20
243.56
 21
242.544
  0
LINE
  8
0
 10
287.029
 11
280.688
 20
242.544
 21
241.127
  0
LINE
  8
0
 10
280.688
 11
274.449
 20
241.127
 21
239.314
  0
LINE
  8
0
 10
274.449
 11
268.336
 20
239.314
 21
237.113
  0
LINE
  8
0
 10
268.336
 11
262.374
 20
237.113
 21
234.533
  0
LINE
  8
0
 10
262.374
 11
256.585
 20
234.533
 21
231.584
  0
LINE
  8
0
 10
256.585
 11
250.993
 20
231.584
 21
228.276
  0
LINE
  8
0
 10
250.993
 11
245.619
 20
228.276
 21
224.624
  0
LINE
  8
0
 10
245.619
 11
240.486
 20
224.624
 21
220.642
  0
LINE
  8
0
 10
240.486
 11
235.612
 20
220.642
 21
216.346
  0
LINE
  8
0
 10
235.612
 11
231.018
 20
216.346
 21
211.752
  0
LINE
  8
0
 10
231.018
 11
226.721
 20
211.752
 21
206.878
  0
LINE
  8
0
 10
226.721
 11
222.739
 20
206.878
 21
201.745
  0
LINE
  8
0
 10
222.739
 11
221.889
 20
201.745
 21
200.494
  0
LINE
  8
0
 10
221.889
 11
222.135
 20
200.494
 21
200.067
  0
LINE
  8
0
 10
222.135
 11
222.781
 20
200.067
 21
198.079
  0
LINE
  8
0
 10
222.781
 11
223
 20
198.079
 21
196
  0
LINE
  8
0
 10
223
 11
222.781
 20
196
 21
193.921
  0
LINE
  8
0
 10
222.781
 11
222.135
 20
193.921
 21
191.933
  0
LINE
  8
0
 10
222.135
 11
221.09
 20
191.933
 21
190.122
  0
LINE
  8
0
 10
221.09
 11
219.691
 20
190.122
 21
188.569
  0
LINE
  8
0
 10
219.691
 11
218
 20
188.569
 21
187.34
  0
LINE
  8
0
 10
218
 11
216.09
 20
187.34
 21
186.489
  0
LINE
  8
0
 10
216.09
 11
214.045
 20
186.489
 21
186.055
  0
LINE
  8
0
 10
214.045
 11
211.955
 20
186.055
 21
186.055
  0
LINE
  8
0
 10
211.955
 11
209.91
 20
186.055
 21
186.489
  0
LINE
  8
0
 10
209.91
 11
208
 20
186.489
 21
187.34
  0
LINE
  8
0
 10
208
 11
206.309
 20
187.34
 21
188.569
  0
LINE
  8
0
 10
206.309
 11
204.91
 20
188.569
 21
190.122
  0
LINE
  8
0
 10
204.91
 11
203.865
 20
190.122
 21
191.933
  0
LINE
  8
0
 10
203.865
 11
203.219
 20
191.933
 21
193.921
  0
LINE
  8
0
 10
203.219
 11
203
 20
193.921
 21
196
  0
LINE
  8
0
 10
208
 11
208.076
 20
-226
 21
-225.132
  0
LINE
  8
0
 10
208.076
 11
208.302
 20
-225.132
 21
-224.29
  0
LINE
  8
0
 10
208.302
 11
208.67
 20
-224.29
 21
-223.5
  0
LINE
  8
0
 10
208.67
 11
209.17
 20
-223.5
 21
-222.786
  0
LINE
  8
0
 10
209.17
 11
209.786
 20
-222.786
 21
-222.17
  0
LINE
  8
0
 10
209.786
 11
210.5
 20
-222.17
 21
-221.67
  0
LINE
  8
0
 10
210.5
 11
211.29
 20
-221.67
 21
-221.302
  0
LINE
  8
0
 10
211.29
 11
212.132
 20
-221.302
 21
-221.076
  0
LINE
  8
0
 10
212.132
 11
213
 20
-221.076
 21
-221
  0
LINE
  8
0
 10
213
 11
213.868
 20
-221
 21
-221.076
  0
LINE
  8
0
 10
213.868
 11
214.71
 20
-221.076
 21
-221.302
  0
LINE
  8
0
 10
214.71
 11
215.5
 20
-221.302
 21
-221.67
  0
LINE
  8
0
 10
215.5
 11
216.214
 20
-221.67
 21
-222.17
  0
LINE
  8
0
 10
216.214
 11
216.83
 20
-222.17
 21
-222.786
  0
LINE
  8
0
 10
216.83
 11
217.33
 20
-222.786
 21
-223.5
  0
LINE
  8
0
 10
217.33
 11
217.698
 20
-223.5
 21
-224.29
  0
LINE
  8
0
 10
217.698
 11
217.924
 20
-224.29
 21
-225.132
  0
LINE
  8
0
 10
217.924
 11
218
 20
-225.132
 21
-226
  0
LINE
  8
0
 10
218
 11
217.924
 20
-226
 21
-226.868
  0
LINE
  8
0
 10
217.924
 11
217.698
 20
-226.868
 21
-227.71
  0
LINE
  8
0
 10
217.698
 11
217.33
 20
-227.71
 21
-228.5
  0
LINE
  8
0
 10
217.33
 11
216.83
 20
-228.5
 21
-229.214
  0
LINE
  8
0
 10
216.83
 11
216.214
 20
-229.214
 21
-229.83
  0
LINE
  8
0
 10
216.214
 11
215.5
 20
-229.83
 21
-230.33
  0
LINE
  8
0
 10
215.5
 11
214.71
 20
-230.33
 21
-230.698
  0
LINE
  8
0
 10
214.71
 11
213.868
 20
-230.698
 21
-230.924
  0
LINE
  8
0
 10
213.868
 11
213
 20
-230.924
 21
-231
  0
LINE
  8
0
 10
213
 11
212.132
 20
-231
 21
-230.924
  0
LINE
  8
0
 10
212.132
 11
211.29
 20
-230.924
 21
-230.698
  0
LINE
  8
0
 10
211.29
 11
210.5
 20
-230.698
 21
-230.33
  0
LINE
  8
0
 10
210.5
 11
209.786
 20
-230.33
 21
-229.83
  0
LINE
  8
0
 10
209.786
 11
209.17
 20
-229.83
 21
-229.214
  0
LINE
  8
0
 10
209.17
 11
208.67
 20
-229.214
 21
-228.5
  0
LINE
  8
0
 10
208.67
 11
208.302
 20
-228.5
 21
-227.71
  0
LINE
  8
0
 10
208.302
 11
208.076
 20
-227.71
 21
-226.868
  0
LINE
  8
0
 10
208.076
 11
208
 20
-226.868
 21
-226
  0
LINE
  8
0
 10
208
 11
208.076
 20
-196
 21
-195.132
  0
LINE
  8
0
 10
208.076
 11
208.302
 20
-195.132
 21
-194.29
  0
LINE
  8
0
 10
208.302
 11
208.67
 20
-194.29
 21
-193.5
  0
LINE
  8
0
 10
208.67
 11
209.17
 20
-193.5
 21
-192.786
  0
LINE
  8
0
 10
209.17
 11
209.786
 20
-192.786
 21
-192.17
  0
LINE
  8
0
 10
209.786
 11
210.5
 20
-192.17
 21
-191.67
  0
LINE
  8
0
 10
210.5
 11
211.29
 20
-191.67
 21
-191.302
  0
LINE
  8
0
 10
211.29
 11
212.132
 20
-191.302
 21
-191.076
  0
LINE
  8
0
 10
212.132
 11
213
 20
-191.076
 21
-191
  0
LINE
  8
0
 10
213
 11
213.868
 20
-191
 21
-191.076
  0
LINE
  8
0
 10
213.868
 11
214.71
 20
-191.076
 21
-191.302
  0
LINE
  8
0
 10
214.71
 11
215.5
 20
-191.302
 21
-191.67
  0
LINE
  8
0
 10
215.5
 11
216.214
 20
-191.67
 21
-192.17
  0
LINE
  8
0
 10
216.214
 11
216.83
 20
-192.17
 21
-192.786
  0
LINE
  8
0
 10
216.83
 11
217.33
 20
-192.786
 21
-193.5
  0
LINE
  8
0
 10
217.33
 11
217.698
 20
-193.5
 21
-194.29
  0
LINE
  8
0
 10
217.698
 11
217.924
 20
-194.29
 21
-195.132
  0
LINE
  8
0
 10
217.924
 11
218
 20
-195.132
 21
-196
  0
LINE
  8
0
 10
218
 11
217.924
 20
-196
 21
-196.868
  0
LINE
  8
0
 10
217.924
 11
217.698
 20
-196.868
 21
-197.71
  0
LINE
  8
0
 10
217.698
 11
217.33
 20
-197.71
 21
-198.5
  0
LINE
  8
0
 10
217.33
 11
216.83
 20
-198.5
 21
-199.214
  0
LINE
  8
0
 10
216.83
 11
216.214
 20
-199.214
 21
-199.83
  0
LINE
  8
0
 10
216.214
 11
215.5
 20
-199.83
 21
-200.33
  0
LINE
  8
0
 10
215.5
 11
214.71
 20
-200.33
 21
-200.698
  0
LINE
  8
0
 10
214.71
 11
213.868
 20
-200.698
 21
-200.924
  0
LINE
  8
0
 10
213.868
 11
213
 20
-200.924
 21
-201
  0
LINE
  8
0
 10
213
 11
212.132
 20
-201
 21
-200.924
  0
LINE
  8
0
 10
212.132
 11
211.29
 20
-200.924
 21
-200.698
  0
LINE
  8
0
 10
211.29
 11
210.5
 20
-200.698
 21
-200.33
  0
LINE
  8
0
 10
210.5
 11
209.786
 20
-200.33
 21
-199.83
  0
LINE
  8
0
 10
209.786
 11
209.17
 20
-199.83
 21
-199.214
  0
LINE
  8
0
 10
209.17
 11
208.67
 20
-199.214
 21
-198.5
  0
LINE
  8
0
 10
208.67
 11
208.302
 20
-198.5
 21
-197.71
  0
LINE
  8
0
 10
208.302
 11
208.076
 20
-197.71
 21
-196.868
  0
LINE
  8
0
 10
208.076
 11
208
 20
-196.868
 21
-196
  0
LINE
  8
0
 10
208
 11
208.076
 20
163
 21
163.868
  0
LINE
  8
0
 10
208.076
 11
208.302
 20
163.868
 21
164.71
  0
LINE
  8
0
 10
208.302
 11
208.67
 20
164.71
 21
165.5
  0
LINE
  8
0
 10
208.67
 11
209.17
 20
165.5
 21
166.214
  0
LINE
  8
0
 10
209.17
 11
209.786
 20
166.214
 21
166.83
  0
LINE
  8
0
 10
209.786
 11
210.5
 20
166.83
 21
167.33
  0
LINE
  8
0
 10
210.5
 11
211.29
 20
167.33
 21
167.698
  0
LINE
  8
0
 10
211.29
 11
212.132
 20
167.698
 21
167.924
  0
LINE
  8
0
 10
212.132
 11
213
 20
167.924
 21
168
  0
LINE
  8
0
 10
213
 11
213.868
 20
168
 21
167.924
  0
LINE
  8
0
 10
213.868
 11
214.71
 20
167.924
 21
167.698
  0
LINE
  8
0
 10
214.71
 11
215.5
 20
167.698
 21
167.33
  0
LINE
  8
0
 10
215.5
 11
216.214
 20
167.33
 21
166.83
  0
LINE
  8
0
 10
216.214
 11
216.83
 20
166.83
 21
166.214
  0
LINE
  8
0
 10
216.83
 11
217.33
 20
166.214
 21
165.5
  0
LINE
  8
0
 10
217.33
 11
217.698
 20
165.5
 21
164.71
  0
LINE
  8
0
 10
217.698
 11
217.924
 20
164.71
 21
163.868
  0
LINE
  8
0
 10
217.924
 11
218
 20
163.868
 21
163
  0
LINE
  8
0
 10
218
 11
217.924
 20
163
 21
162.132
  0
LINE
  8
0
 10
217.924
 11
217.698
 20
162.132
 21
161.29
  0
LINE
  8
0
 10
217.698
 11
217.33
 20
161.29
 21
160.5
  0
LINE
  8
0
 10
217.33
 11
216.83
 20
160.5
 21
159.786
  0
LINE
  8
0
 10
216.83
 11
216.214
 20
159.786
 21
159.17
  0
LINE
  8
0
 10
216.214
 11
215.5
 20
159.17
 21
158.67
  0
LINE
  8
0
 10
215.5
 11
214.71
 20
158.67
 21
158.302
  0
LINE
  8
0
 10
214.71
 11
213.868
 20
158.302
 21
158.076
  0
LINE
  8
0
 10
213.868
 11
213
 20
158.076
 21
158
  0
LINE
  8
0
 10
213
 11
212.132
 20
158
 21
158.076
  0
LINE
  8
0
 10
212.132
 11
211.29
 20
158.076
 21
158.302
  0
LINE
  8
0
 10
211.29
 11
210.5
 20
158.302
 21
158.67
  0
LINE
  8
0
 10
210.5
 11
209.786
 20
158.67
 21
159.17
  0
LINE
  8
0
 10
209.786
 11
209.17
 20
159.17
 21
159.786
  0
LINE
  8
0
 10
209.17
 11
208.67
 20
159.786
 21
160.5
  0
LINE
  8
0
 10
208.67
 11
208.302
 20
160.5
 21
161.29
  0
LINE
  8
0
 10
208.302
 11
208.076
 20
161.29
 21
162.132
  0
LINE
  8
0
 10
208.076
 11
208
 20
162.132
 21
163
  0
LINE
  8
0
 10
208
 11
208.076
 20
196
 21
196.868
  0
LINE
  8
0
 10
208.076
 11
208.302
 20
196.868
 21
197.71
  0
LINE
  8
0
 10
208.302
 11
208.67
 20
197.71
 21
198.5
  0
LINE
  8
0
 10
208.67
 11
209.17
 20
198.5
 21
199.214
  0
LINE
  8
0
 10
209.17
 11
209.786
 20
199.214
 21
199.83
  0
LINE
  8
0
 10
209.786
 11
210.5
 20
199.83
 21
200.33
  0
LINE
  8
0
 10
210.5
 11
211.29
 20
200.33
 21
200.698
  0
LINE
  8
0
 10
211.29
 11
212.132
 20
200.698
 21
200.924
  0
LINE
  8
0
 10
212.132
 11
213
 20
200.924
 21
201
  0
LINE
  8
0
 10
213
 11
213.868
 20
201
 21
200.924
  0
LINE
  8
0
 10
213.868
 11
214.71
 20
200.924
 21
200.698
  0
LINE
  8
0
 10
214.71
 11
215.5
 20
200.698
 21
200.33
  0
LINE
  8
0
 10
215.5
 11
216.214
 20
200.33
 21
199.83
  0
LINE
  8
0
 10
216.214
 11
216.83
 20
199.83
 21
199.214
  0
LINE
  8
0
 10
216.83
 11
217.33
 20
199.214
 21
198.5
  0
LINE
  8
0
 10
217.33
 11
217.698
 20
198.5
 21
197.71
  0
LINE
  8
0
 10
217.698
 11
217.924
 20
197.71
 21
196.868
  0
LINE
  8
0
 10
217.924
 11
218
 20
196.868
 21
196
  0
LINE
  8
0
 10
218
 11
217.924
 20
196
 21
195.132
  0
LINE
  8
0
 10
217.924
 11
217.698
 20
195.132
 21
194.29
  0
LINE
  8
0
 10
217.698
 11
217.33
 20
194.29
 21
193.5
  0
LINE
  8
0
 10
217.33
 11
216.83
 20
193.5
 21
192.786
  0
LINE
  8
0
 10
216.83
 11
216.214
 20
192.786
 21
192.17
  0
LINE
  8
0
 10
216.214
 11
215.5
 20
192.17
 21
191.67
  0
LINE
  8
0
 10
215.5
 11
214.71
 20
191.67
 21
191.302
  0
LINE
  8
0
 10
214.71
 11
213.868
 20
191.302
 21
191.076
  0
LINE
  8
0
 10
213.868
 11
213
 20
191.076
 21
191
  0
LINE
  8
0
 10
213
 11
212.132
 20
191
 21
191.076
  0
LINE
  8
0
 10
212.132
 11
211.29
 20
191.076
 21
191.302
  0
LINE
  8
0
 10
211.29
 11
210.5
 20
191.302
 21
191.67
  0
LINE
  8
0
 10
210.5
 11
209.786
 20
191.67
 21
192.17
  0
LINE
  8
0
 10
209.786
 11
209.17
 20
192.17
 21
192.786
  0
LINE
  8
0
 10
209.17
 11
208.67
 20
192.786
 21
193.5
  0
LINE
  8
0
 10
208.67
 11
208.302
 20
193.5
 21
194.29
  0
LINE
  8
0
 10
208.302
 11
208.076
 20
194.29
 21
195.132
  0
LINE
  8
0
 10
208.076
 11
208
 20
195.132
 21
196
  0
LINE
  8
0
 10
294.023
 11
294.099
 20
-226
 21
-225.132
  0
LINE
  8
0
 10
294.099
 11
294.325
 20
-225.132
 21
-224.29
  0
LINE
  8
0
 10
294.325
 11
294.693
 20
-224.29
 21
-223.5
  0
LINE
  8
0
 10
294.693
 11
295.193
 20
-223.5
 21
-222.786
  0
LINE
  8
0
 10
295.193
 11
295.809
 20
-222.786
 21
-222.17
  0
LINE
  8
0
 10
295.809
 11
296.523
 20
-222.17
 21
-221.67
  0
LINE
  8
0
 10
296.523
 11
297.313
 20
-221.67
 21
-221.302
  0
LINE
  8
0
 10
297.313
 11
298.155
 20
-221.302
 21
-221.076
  0
LINE
  8
0
 10
298.155
 11
299.023
 20
-221.076
 21
-221
  0
LINE
  8
0
 10
299.023
 11
299.891
 20
-221
 21
-221.076
  0
LINE
  8
0
 10
299.891
 11
300.733
 20
-221.076
 21
-221.302
  0
LINE
  8
0
 10
300.733
 11
301.523
 20
-221.302
 21
-221.67
  0
LINE
  8
0
 10
301.523
 11
302.237
 20
-221.67
 21
-222.17
  0
LINE
  8
0
 10
302.237
 11
302.853
 20
-222.17
 21
-222.786
  0
LINE
  8
0
 10
302.853
 11
303.353
 20
-222.786
 21
-223.5
  0
LINE
  8
0
 10
303.353
 11
303.722
 20
-223.5
 21
-224.29
  0
LINE
  8
0
 10
303.722
 11
303.947
 20
-224.29
 21
-225.132
  0
LINE
  8
0
 10
303.947
 11
304.023
 20
-225.132
 21
-226
  0
LINE
  8
0
 10
304.023
 11
303.947
 20
-226
 21
-226.868
  0
LINE
  8
0
 10
303.947
 11
303.722
 20
-226.868
 21
-227.71
  0
LINE
  8
0
 10
303.722
 11
303.353
 20
-227.71
 21
-228.5
  0
LINE
  8
0
 10
303.353
 11
302.853
 20
-228.5
 21
-229.214
  0
LINE
  8
0
 10
302.853
 11
302.237
 20
-229.214
 21
-229.83
  0
LINE
  8
0
 10
302.237
 11
301.523
 20
-229.83
 21
-230.33
  0
LINE
  8
0
 10
301.523
 11
300.733
 20
-230.33
 21
-230.698
  0
LINE
  8
0
 10
300.733
 11
299.891
 20
-230.698
 21
-230.924
  0
LINE
  8
0
 10
299.891
 11
299.023
 20
-230.924
 21
-231
  0
LINE
  8
0
 10
299.023
 11
298.155
 20
-231
 21
-230.924
  0
LINE
  8
0
 10
298.155
 11
297.313
 20
-230.924
 21
-230.698
  0
LINE
  8
0
 10
297.313
 11
296.523
 20
-230.698
 21
-230.33
  0
LINE
  8
0
 10
296.523
 11
295.809
 20
-230.33
 21
-229.83
  0
LINE
  8
0
 10
295.809
 11
295.193
 20
-229.83
 21
-229.214
  0
LINE
  8
0
 10
295.193
 11
294.693
 20
-229.214
 21
-228.5
  0
LINE
  8
0
 10
294.693
 11
294.325
 20
-228.5
 21
-227.71
  0
LINE
  8
0
 10
294.325
 11
294.099
 20
-227.71
 21
-226.868
  0
LINE
  8
0
 10
294.099
 11
294.023
 20
-226.868
 21
-226
  0
LINE
  8
0
 10
294.023
 11
294.099
 20
-196
 21
-195.132
  0
LINE
  8
0
 10
294.099
 11
294.325
 20
-195.132
 21
-194.29
  0
LINE
  8
0
 10
294.325
 11
294.693
 20
-194.29
 21
-193.5
  0
LINE
  8
0
 10
294.693
 11
295.193
 20
-193.5
 21
-192.786
  0
LINE
  8
0
 10
295.193
 11
295.809
 20
-192.786
 21
-192.17
  0
LINE
  8
0
 10
295.809
 11
296.523
 20
-192.17
 21
-191.67
  0
LINE
  8
0
 10
296.523
 11
297.313
 20
-191.67
 21
-191.302
  0
LINE
  8
0
 10
297.313
 11
298.155
 20
-191.302
 21
-191.076
  0
LINE
  8
0
 10
298.155
 11
299.023
 20
-191.076
 21
-191
  0
LINE
  8
0
 10
299.023
 11
299.891
 20
-191
 21
-191.076
  0
LINE
  8
0
 10
299.891
 11
300.733
 20
-191.076
 21
-191.302
  0
LINE
  8
0
 10
300.733
 11
301.523
 20
-191.302
 21
-191.67
  0
LINE
  8
0
 10
301.523
 11
302.237
 20
-191.67
 21
-192.17
  0
LINE
  8
0
 10
302.237
 11
302.853
 20
-192.17
 21
-192.786
  0
LINE
  8
0
 10
302.853
 11
303.353
 20
-192.786
 21
-193.5
  0
LINE
  8
0
 10
303.353
 11
303.722
 20
-193.5
 21
-194.29
  0
LINE
  8
0
 10
303.722
 11
303.947
 20
-194.29
 21
-195.132
  0
LINE
  8
0
 10
303.947
 11
304.023
 20
-195.132
 21
-196
  0
LINE
  8
0
 10
304.023
 11
303.947
 20
-196
 21
-196.868
  0
LINE
  8
0
 10
303.947
 11
303.722
 20
-196.868
 21
-197.71
  0
LINE
  8
0
 10
303.722
 11
303.353
 20
-197.71
 21
-198.5
  0
LINE
  8
0
 10
303.353
 11
302.853
 20
-198.5
 21
-199.214
  0
LINE
  8
0
 10
302.853
 11
302.237
 20
-199.214
 21
-199.83
  0
LINE
  8
0
 10
302.237
 11
301.523
 20
-199.83
 21
-200.33
  0
LINE
  8
0
 10
301.523
 11
300.733
 20
-200.33
 21
-200.698
  0
LINE
  8
0
 10
300.733
 11
299.891
 20
-200.698
 21
-200.924
  0
LINE
  8
0
 10
299.891
 11
299.023
 20
-200.924
 21
-201
  0
LINE
  8
0
 10
299.023
 11
298.155
 20
-201
 21
-200.924
  0
LINE
  8
0
 10
298.155
 11
297.313
 20
-200.924
 21
-200.698
  0
LINE
  8
0
 10
297.313
 11
296.523
 20
-200.698
 21
-200.33
  0
LINE
  8
0
 10
296.523
 11
295.809
 20
-200.33
 21
-199.83
  0
LINE
  8
0
 10
295.809
 11
295.193
 20
-199.83
 21
-199.214
  0
LINE
  8
0
 10
295.193
 11
294.693
 20
-199.214
 21
-198.5
  0
LINE
  8
0
 10
294.693
 11
294.325
 20
-198.5
 21
-197.71
  0
LINE
  8
0
 10
294.325
 11
294.099
 20
-197.71
 21
-196.868
  0
LINE
  8
0
 10
294.099
 11
294.023
 20
-196.868
 21
-196
  0
LINE
  8
0
 10
343
 11
343
 20
-116.662
 21
-83.338
  0
LINE
  8
0
 10
343
 11
346.001
 20
-83.338
 21
-83.338
  0
LINE
  8
0
 10
346.001
 11
346.001
 20
-83.338
 21
-49.995
  0
LINE
  8
0
 10
346.001
 11
343
 20
-49.995
 21
-49.995
  0
LINE
  8
0
 10
343
 11
343
 20
-49.995
 21
-16.672
  0
LINE
  8
0
 10
343
 11
346.001
 20
-16.672
 21
-16.672
  0
LINE
  8
0
 10
346.001
 11
346.001
 20
-16.672
 21
16.672
  0
LINE
  8
0
 10
346.001
 11
343
 20
16.672
 21
16.672
  0
LINE
  8
0
 10
343
 11
343
 20
16.672
 21
49.995
  0
LINE
  8
0
 10
343
 11
346.001
 20
49.995
 21
49.995
  0
LINE
  8
0
 10
346.001
 11
346.001
 20
49.995
 21
83.338
  0
LINE
  8
0
 10
346.001
 11
343
 20
83.338
 21
83.338
  0
LINE
  8
0
 10
343
 11
343
 20
83.338
 21
116.662
  0
LINE
  8
0
 10
343
 11
346.001
 20
116.662
 21
116.662
  0
LINE
  8
0
 10
346.001
 11
346.001
 20
116.662
 21
146.999
  0
LINE
  8
0
 10
346.001
 11
358.561
 20
146.999
 21
146.999
  0
LINE
  8
0
 10
358.561
 11
358.561
 20
146.999
 21
150
  0
LINE
  8
0
 10
358.561
 11
374.106
 20
150
 21
150
  0
LINE
  8
0
 10
374.106
 11
374.106
 20
150
 21
146.999
  0
LINE
  8
0
 10
374.106
 11
389.672
 20
146.999
 21
146.999
  0
LINE
  8
0
 10
389.672
 11
389.672
 20
146.999
 21
150
  0
LINE
  8
0
 10
389.672
 11
405.217
 20
150
 21
150
  0
LINE
  8
0
 10
405.217
 11
405.217
 20
150
 21
146.999
  0
LINE
  8
0
 10
405.217
 11
420.783
 20
146.999
 21
146.999
  0
LINE
  8
0
 10
420.783
 11
420.783
 20
146.999
 21
150
  0
LINE
  8
0
 10
420.783
 11
436.328
 20
150
 21
150
  0
LINE
  8
0
 10
436.328
 11
436.328
 20
150
 21
146.999
  0
LINE
  8
0
 10
436.328
 11
451.894
 20
146.999
 21
146.999
  0
LINE
  8
0
 10
451.894
 11
451.894
 20
146.999
 21
150
  0
LINE
  8
0
 10
451.894
 11
467.439
 20
150
 21
150
  0
LINE
  8
0
 10
467.439
 11
467.439
 20
150
 21
146.999
  0
LINE
  8
0
 10
467.439
 11
483
 20
146.999
 21
146.999
  0
LINE
  8
0
 10
483
 11
483
 20
146.999
 21
-146.999
  0
LINE
  8
0
 10
483
 11
467.439
 20
-146.999
 21
-146.999
  0
LINE
  8
0
 10
467.439
 11
467.439
 20
-146.999
 21
-150
  0
LINE
  8
0
 10
467.439
 11
451.894
 20
-150
 21
-150
  0
LINE
  8
0
 10
451.894
 11
451.894
 20
-150
 21
-146.999
  0
LINE
  8
0
 10
451.894
 11
436.328
 20
-146.999
 21
-146.999
  0
LINE
  8
0
 10
436.328
 11
436.328
 20
-146.999
 21
-150
  0
LINE
  8
0
 10
436.328
 11
420.783
 20
-150
 21
-150
  0
LINE
  8
0
 10
420.783
 11
420.783
 20
-150
 21
-146.999
  0
LINE
  8
0
 10
420.783
 11
405.217
 20
-146.999
 21
-146.999
  0
LINE
  8
0
 10
405.217
 11
405.217
 20
-146.999
 21
-150
  0
LINE
  8
0
 10
405.217
 11
389.672
 20
-150
 21
-150
  0
LINE
  8
0
 10
389.672
 11
389.672
 20
-150
 21
-146.999
  0
LINE
  8
0
 10
389.672
 11
374.106
 20
-146.999
 21
-146.999
  0
LINE
  8
0
 10
374.106
 11
374.106
 20
-146.999
 21
-150
  0
LINE
  8
0
 10
374.106
 11
358.561
 20
-150
 21
-150
  0
LINE
  8
0
 10
358.561
 11
358.561
 20
-150
 21
-146.999
  0
LINE
  8
0
 10
358.561
 11
346.001
 20
-146.999
 21
-146.999
  0
LINE
  8
0
 10
346.001
 11
346.001
 20
-146.999
 21
-116.662
  0
LINE
  8
0
 10
346.001
 11
343
 20
-116.662
 21
-116.662
  0
LINE
  8
0
 10
394.815
 11
394.891
 20
163
 21
163.868
  0
LINE
  8
0
 10
394.891
 11
395.117
 20
163.868
 21
164.71
  0
LINE
  8
0
 10
395.117
 11
395.485
 20
164.71
 21
165.5
  0
LINE
  8
0
 10
395.485
 11
395.985
 20
165.5
 21
166.214
  0
LINE
  8
0
 10
395.985
 11
396.601
 20
166.214
 21
166.83
  0
LINE
  8
0
 10
396.601
 11
397.315
 20
166.83
 21
167.33
  0
LINE
  8
0
 10
397.315
 11
398.105
 20
167.33
 21
167.698
  0
LINE
  8
0
 10
398.105
 11
398.947
 20
167.698
 21
167.924
  0
LINE
  8
0
 10
398.947
 11
399.815
 20
167.924
 21
168
  0
LINE
  8
0
 10
399.815
 11
400.684
 20
168
 21
167.924
  0
LINE
  8
0
 10
400.684
 11
401.526
 20
167.924
 21
167.698
  0
LINE
  8
0
 10
401.526
 11
402.315
 20
167.698
 21
167.33
  0
LINE
  8
0
 10
402.315
 11
403.029
 20
167.33
 21
166.83
  0
LINE
  8
0
 10
403.029
 11
403.646
 20
166.83
 21
166.214
  0
LINE
  8
0
 10
403.646
 11
404.146
 20
166.214
 21
165.5
  0
LINE
  8
0
 10
404.146
 11
404.514
 20
165.5
 21
164.71
  0
LINE
  8
0
 10
404.514
 11
404.739
 20
164.71
 21
163.868
  0
LINE
  8
0
 10
404.739
 11
404.815
 20
163.868
 21
163
  0
LINE
  8
0
 10
404.815
 11
404.739
 20
163
 21
162.132
  0
LINE
  8
0
 10
404.739
 11
404.514
 20
162.132
 21
161.29
  0
LINE
  8
0
 10
404.514
 11
404.146
 20
161.29
 21
160.5
  0
LINE
  8
0
 10
404.146
 11
403.646
 20
160.5
 21
159.786
  0
LINE
  8
0
 10
403.646
 11
403.029
 20
159.786
 21
159.17
  0
LINE
  8
0
 10
403.029
 11
402.315
 20
159.17
 21
158.67
  0
LINE
  8
0
 10
402.315
 11
401.526
 20
158.67
 21
158.302
  0
LINE
  8
0
 10
401.526
 11
400.684
 20
158.302
 21
158.076
  0
LINE
  8
0
 10
400.684
 11
399.815
 20
158.076
 21
158
  0
LINE
  8
0
 10
399.815
 11
398.947
 20
158
 21
158.076
  0
LINE
  8
0
 10
398.947
 11
398.105
 20
158.076
 21
158.302
  0
LINE
  8
0
 10
398.105
 11
397.315
 20
158.302
 21
158.67
  0
LINE
  8
0
 10
397.315
 11
396.601
 20
158.67
 21
159.17
  0
LINE
  8
0
 10
396.601
 11
395.985
 20
159.17
 21
159.786
  0
LINE
  8
0
 10
395.985
 11
395.485
 20
159.786
 21
160.5
  0
LINE
  8
0
 10
395.485
 11
395.117
 20
160.5
 21
161.29
  0
LINE
  8
0
 10
395.117
 11
394.891
 20
161.29
 21
162.132
  0
LINE
  8
0
 10
394.891
 11
394.815
 20
162.132
 21
163
  0
LINE
  8
0
 10
394.815
 11
394.891
 20
196
 21
196.868
  0
LINE
  8
0
 10
394.891
 11
395.117
 20
196.868
 21
197.71
  0
LINE
  8
0
 10
395.117
 11
395.485
 20
197.71
 21
198.5
  0
LINE
  8
0
 10
395.485
 11
395.985
 20
198.5
 21
199.214
  0
LINE
  8
0
 10
395.985
 11
396.601
 20
199.214
 21
199.83
  0
LINE
  8
0
 10
396.601
 11
397.315
 20
199.83
 21
200.33
  0
LINE
  8
0
 10
397.315
 11
398.105
 20
200.33
 21
200.698
  0
LINE
  8
0
 10
398.105
 11
398.947
 20
200.698
 21
200.924
  0
LINE
  8
0
 10
398.947
 11
399.815
 20
200.924
 21
201
  0
LINE
  8
0
 10
399.815
 11
400.684
 20
201
 21
200.924
  0
LINE
  8
0
 10
400.684
 11
401.526
 20
200.924
 21
200.698
  0
LINE
  8
0
 10
401.526
 11
402.315
 20
200.698
 21
200.33
  0
LINE
  8
0
 10
402.315
 11
403.029
 20
200.33
 21
199.83
  0
LINE
  8
0
 10
403.029
 11
403.646
 20
199.83
 21
199.214
  0
LINE
  8
0
 10
403.646
 11
404.146
 20
199.214
 21
198.5
  0
LINE
  8
0
 10
404.146
 11
404.514
 20
198.5
 21
197.71
  0
LINE
  8
0
 10
404.514
 11
404.739
 20
197.71
 21
196.868
  0
LINE
  8
0
 10
404.739
 11
404.815
 20
196.868
 21
196
  0
LINE
  8
0
 10
404.815
 11
404.739
 20
196
 21
195.132
  0
LINE
  8
0
 10
404.739
 11
404.514
 20
195.132
 21
194.29
  0
LINE
  8
0
 10
404.514
 11
404.146
 20
194.29
 21
193.5
  0
LINE
  8
0
 10
404.146
 11
403.646
 20
193.5
 21
192.786
  0
LINE
  8
0
 10
403.646
 11
403.029
 20
192.786
 21
192.17
  0
LINE
  8
0
 10
403.029
 11
402.315
 20
192.17
 21
191.67
  0
LINE
  8
0
 10
402.315
 11
401.526
 20
191.67
 21
191.302
  0
LINE
  8
0
 10
401.526
 11
400.684
 20
191.302
 21
191.076
  0
LINE
  8
0
 10
400.684
 11
399.815
 20
191.076
 21
191
  0
LINE
  8
0
 10
399.815
 11
398.947
 20
191
 21
191.076
  0
LINE
  8
0
 10
398.947
 11
398.105
 20
191.076
 21
191.302
  0
LINE
  8
0
 10
398.105
 11
397.315
 20
191.302
 21
191.67
  0
LINE
  8
0
 10
397.315
 11
396.601
 20
191.67
 21
192.17
  0
LINE
  8
0
 10
396.601
 11
395.985
 20
192.17
 21
192.786
  0
LINE
  8
0
 10
395.985
 11
395.485
 20
192.786
 21
193.5
  0
LINE
  8
0
 10
395.485
 11
395.117
 20
193.5
 21
194.29
  0
LINE
  8
0
 10
395.117
 11
394.891
 20
194.29
 21
195.132
  0
LINE
  8
0
 10
394.891
 11
394.815
 20
195.132
 21
196
  0
LINE
  8
0
 10
457.5
 11
457.584
 20
50
 21
50.955
  0
LINE
  8
0
 10
457.584
 11
457.832
 20
50.955
 21
51.881
  0
LINE
  8
0
 10
457.832
 11
458.237
 20
51.881
 21
52.75
  0
LINE
  8
0
 10
458.237
 11
458.787
 20
52.75
 21
53.535
  0
LINE
  8
0
 10
458.787
 11
459.465
 20
53.535
 21
54.213
  0
LINE
  8
0
 10
459.465
 11
460.25
 20
54.213
 21
54.763
  0
LINE
  8
0
 10
460.25
 11
461.119
 20
54.763
 21
55.168
  0
LINE
  8
0
 10
461.119
 11
462.045
 20
55.168
 21
55.416
  0
LINE
  8
0
 10
462.045
 11
463
 20
55.416
 21
55.5
  0
LINE
  8
0
 10
463
 11
463.955
 20
55.5
 21
55.416
  0
LINE
  8
0
 10
463.955
 11
464.881
 20
55.416
 21
55.168
  0
LINE
  8
0
 10
464.881
 11
465.75
 20
55.168
 21
54.763
  0
LINE
  8
0
 10
465.75
 11
466.535
 20
54.763
 21
54.213
  0
LINE
  8
0
 10
466.535
 11
467.213
 20
54.213
 21
53.535
  0
LINE
  8
0
 10
467.213
 11
467.763
 20
53.535
 21
52.75
  0
LINE
  8
0
 10
467.763
 11
468.168
 20
52.75
 21
51.881
  0
LINE
  8
0
 10
468.168
 11
468.416
 20
51.881
 21
50.955
  0
LINE
  8
0
 10
468.416
 11
468.5
 20
50.955
 21
50
  0
LINE
  8
0
 10
468.5
 11
468.416
 20
50
 21
49.045
  0
LINE
  8
0
 10
468.416
 11
468.168
 20
49.045
 21
48.119
  0
LINE
  8
0
 10
468.168
 11
467.763
 20
48.119
 21
47.25
  0
LINE
  8
0
 10
467.763
 11
467.213
 20
47.25
 21
46.465
  0
LINE
  8
0
 10
467.213
 11
466.535
 20
46.465
 21
45.787
  0
LINE
  8
0
 10
466.535
 11
465.75
 20
45.787
 21
45.237
  0
LINE
  8
0
 10
465.75
 11
464.881
 20
45.237
 21
44.832
  0
LINE
  8
0
 10
464.881
 11
463.955
 20
44.832
 21
44.584
  0
LINE
  8
0
 10
463.955
 11
463
 20
44.584
 21
44.5
  0
LINE
  8
0
 10
463
 11
462.045
 20
44.5
 21
44.584
  0
LINE
  8
0
 10
462.045
 11
461.119
 20
44.584
 21
44.832
  0
LINE
  8
0
 10
461.119
 11
460.25
 20
44.832
 21
45.237
  0
LINE
  8
0
 10
460.25
 11
459.465
 20
45.237
 21
45.787
  0
LINE
  8
0
 10
459.465
 11
458.787
 20
45.787
 21
46.465
  0
LINE
  8
0
 10
458.787
 11
458.237
 20
46.465
 21
47.25
  0
LINE
  8
0
 10
458.237
 11
457.832
 20
47.25
 21
48.119
  0
LINE
  8
0
 10
457.832
 11
457.584
 20
48.119
 21
49.045
  0
LINE
  8
0
 10
457.584
 11
457.5
 20
49.045
 21
50
  0
LINE
  8
0
 10
457.5
 11
457.584
 20
120
 21
120.955
  0
LINE
  8
0
 10
457.584
 11
457.832
 20
120.955
 21
121.881
  0
LINE
  8
0
 10
457.832
 11
458.237
 20
121.881
 21
122.75
  0
LINE
  8
0
 10
458.237
 11
458.787
 20
122.75
 21
123.535
  0
LINE
  8
0
 10
458.787
 11
459.465
 20
123.535
 21
124.213
  0
LINE
  8
0
 10
459.465
 11
460.25
 20
124.213
 21
124.763
  0
LINE
  8
0
 10
460.25
 11
461.119
 20
124.763
 21
125.168
  0
LINE
  8
0
 10
461.119
 11
462.045
 20
125.168
 21
125.416
  0
LINE
  8
0
 10
462.045
 11
463
 20
125.416
 21
125.5
  0
LINE
  8
0
 10
463
 11
463.955
 20
125.5
 21
125.416
  0
LINE
  8
0
 10
463.955
 11
464.881
 20
125.416
 21
125.168
  0
LINE
  8
0
 10
464.881
 11
465.75
 20
125.168
 21
124.763
  0
LINE
  8
0
 10
465.75
 11
466.535
 20
124.763
 21
124.213
  0
LINE
  8
0
 10
466.535
 11
467.213
 20
124.213
 21
123.535
  0
LINE
  8
0
 10
467.213
 11
467.763
 20
123.535
 21
122.75
  0
LINE
  8
0
 10
467.763
 11
468.168
 20
122.75
 21
121.881
  0
LINE
  8
0
 10
468.168
 11
468.416
 20
121.881
 21
120.955
  0
LINE
  8
0
 10
468.416
 11
468.5
 20
120.955
 21
120
  0
LINE
  8
0
 10
468.5
 11
468.416
 20
120
 21
119.045
  0
LINE
  8
0
 10
468.416
 11
468.168
 20
119.045
 21
118.119
  0
LINE
  8
0
 10
468.168
 11
467.763
 20
118.119
 21
117.25
  0
LINE
  8
0
 10
467.763
 11
467.213
 20
117.25
 21
116.465
  0
LINE
  8
0
 10
467.213
 11
466.535
 20
116.465
 21
115.787
  0
LINE
  8
0
 10
466.535
 11
465.75
 20
115.787
 21
115.237
  0
LINE
  8
0
 10
465.75
 11
464.881
 20
115.237
 21
114.832
  0
LINE
  8
0
 10
464.881
 11
463.955
 20
114.832
 21
114.584
  0
LINE
  8
0
 10
463.955
 11
463
 20
114.584
 21
114.5
  0
LINE
  8
0
 10
463
 11
462.045
 20
114.5
 21
114.584
  0
LINE
  8
0
 10
462.045
 11
461.119
 20
114.584
 21
114.832
  0
LINE
  8
0
 10
461.119
 11
460.25
 20
114.832
 21
115.237
  0
LINE
  8
0
 10
460.25
 11
459.465
 20
115.237
 21
115.787
  0
LINE
  8
0
 10
459.465
 11
458.787
 20
115.787
 21
116.465
  0
LINE
  8
0
 10
458.787
 11
458.237
 20
116.465
 21
117.25
  0
LINE
  8
0
 10
458.237
 11
457.832
 20
117.25
 21
118.119
  0
LINE
  8
0
 10
457.832
 11
457.584
 20
118.119
 21
119.045
  0
LINE
  8
0
 10
457.584
 11
457.5
 20
119.045
 21
120
  0
ENDSEC
  0
SECTION
  2
OBJECTS
  0
DICTIONARY
  0
ENDSEC
  0
EOF
