<?xml version="1.0" encoding="UTF-8" standalone="no"?>
<!-- Created with Inkscape (http://www.inkscape.org/) -->

<svg
   xmlns:dc="http://purl.org/dc/elements/1.1/"
   xmlns:cc="http://creativecommons.org/ns#"
   xmlns:rdf="http://www.w3.org/1999/02/22-rdf-syntax-ns#"
   xmlns:svg="http://www.w3.org/2000/svg"
   xmlns="http://www.w3.org/2000/svg"
   version="1.1"
   width="2160"
   height="1620"
   id="svg28537">
  <desc
     id="desc28539">/Users/bryanduxbury/projects/lasercuttings/gens_jewelry_box_1/bottom_panel_1.dxf - scale = 1.000000</desc>
  <metadata
     id="metadata28690">
    <rdf:RDF>
      <cc:Work
         rdf:about="">
        <dc:format>image/svg+xml</dc:format>
        <dc:type
           rdf:resource="http://purl.org/dc/dcmitype/StillImage" />
        <dc:title></dc:title>
      </cc:Work>
    </rdf:RDF>
  </metadata>
  <defs
     id="defs28541">
    <marker
       refX="0"
       refY="0"
       orient="auto"
       id="DistanceX"
       style="overflow:visible">
      <path
         d="M 3,-3 -3,3 M 0,-5 0,5"
         id="path28544"
         style="stroke:#000000;stroke-width:0.5" />
    </marker>
    <symbol
       id="*MODEL_SPACE" />
    <symbol
       id="*PAPER_SPACE" />
  </defs>
  <g
     transform="translate(0,567.64025)"
     id="g28548">
    <path
       d="m 63.480728,-489.46064 26.117695,0 0,28.98071 55.155097,0 0,-28.98071 55.08069,0 0,28.98071 55.1551,0 0,-28.98071 55.08069,0 0,28.98071 55.15519,0 0,-28.98071 55.0807,0 0,28.98071 55.15509,0 0,-28.98071 55.0842,0 0,28.98071 0.018,0 -3e-4,28.97718 -0.018,0 3e-4,28.98425 0.018,0 -3e-4,1243.43857"
       id="path28594"
       style="fill:none;stroke:#000000" />
    <path
       d="m 530.54518,927.8622 -55.0842,0 0,-28.98071 -55.15509,0 0,28.98071 -55.0807,0 0,-28.98071 -55.15519,0 0,28.98071 -55.08069,0 0,-28.98071 -55.1551,0 0,28.98071 -55.08069,0 0,-28.98071 -55.155097,0 0,28.98071 -55.098393,0 0,-128.83109 28.980698,0 0,-128.88071 -28.980698,0 0,-128.8134 28.980698,0 0,-128.88424 -28.980698,0 0,-128.80985 28.980698,0 0,-128.88425 -28.980698,0 0,-128.809846 28.980698,0 0,-128.884244 -28.980698,0 0,-128.81339 28.980698,0 0,-128.88072 -28.980698,0 0,-128.81338 28.980698,0 0,-0.0177"
       id="path28596"
       style="fill:none;stroke:#000000" />
    <path
       d="m 89.598423,-431.50275 55.155097,0 0,28.98425 -55.155097,0 0,-28.98425"
       id="path28598"
       style="fill:none;stroke:#000000" />
    <path
       d="m 199.83421,-431.50275 55.1551,0 0,28.98425 -55.1551,0 0,-28.98425"
       id="path28600"
       style="fill:none;stroke:#000000" />
    <path
       d="m 310.07,-431.50275 55.15519,0 0,28.98425 -55.15519,0 0,-28.98425"
       id="path28602"
       style="fill:none;stroke:#000000" />
    <path
       d="m 420.30589,-431.50275 55.15509,0 0,28.98425 -55.15509,0 0,-28.98425"
       id="path28604"
       style="fill:none;stroke:#000000" />
    <path
       d="m 89.598423,840.92007 55.155097,0 0,28.98426 -55.155097,0 0,-28.98426"
       id="path28606"
       style="fill:none;stroke:#000000" />
    <path
       d="m 199.83421,840.92007 55.1551,0 0,28.98426 -55.1551,0 0,-28.98426"
       id="path28608"
       style="fill:none;stroke:#000000" />
    <path
       d="m 310.07,840.92007 55.15519,0 0,28.98426 -55.15519,0 0,-28.98426"
       id="path28610"
       style="fill:none;stroke:#000000" />
    <path
       d="m 420.30589,840.92007 55.15509,0 0,28.98426 -55.15509,0 0,-28.98426"
       id="path28612"
       style="fill:none;stroke:#000000" />
    <path
       d="m 530.56288,840.92007 -0.018,0 3e-4,28.98426 0.018,0 -3e-4,28.97716 -0.018,0 3e-4,28.98071"
       id="path28614"
       style="fill:none;stroke:#000000" />
    <path
       d="m 696.92476,-489.46064 151.81998,0 0,28.98071 151.89096,0 0,-28.98071 151.8236,0 0,28.98071 151.8909,0 0,-28.98071 151.8201,0 0,28.98071 122.8925,0 0,99.88583 28.9807,0 0,128.80984 -28.9807,0 0,128.88426 28.9807,0 0,128.813385 -28.9807,0 0,128.880705 28.9807,0 0,128.81339 -28.9807,0 0,128.8807 28.9807,0 0,128.81339 -28.9807,0 0,128.88426 28.9807,0 0,128.80984 -28.9807,0 0,99.88582 -122.8925,0 0,28.98071 -151.8201,0 0,-28.98071 -151.8909,0 0,28.98071 -151.8236,0 0,-28.98071 -151.89096,0 0,28.98071 -151.81998,0 0,-28.98071 -122.89259,0 0,-99.88582 -28.9807,0 0,-128.80984 28.9807,0 0,-128.88426 -28.9807,0 0,-128.81339 28.9807,0 0,-128.8807 -28.9807,0 0,-128.81339 28.9807,0 0,-128.880705 -28.9807,0 0,-128.813385 28.9807,0 0,-128.88426 -28.9807,0 0,-128.80984 28.9807,0 0,-99.88583 122.89259,0 0,-28.98071"
       id="path28616"
       style="fill:none;stroke:#000000" />
    <path
       d="m 663.14286,-431.50275 118.14799,0 0,28.98425 -118.14799,0 0,-28.98425"
       id="path28618"
       style="fill:none;stroke:#000000" />
    <path
       d="m 899.36444,-431.50275 118.14446,0 0,28.98425 -118.14446,0 0,-28.98425"
       id="path28620"
       style="fill:none;stroke:#000000" />
    <path
       d="m 1135.5861,-431.50275 118.1445,0 0,28.98425 -118.1445,0 0,-28.98425"
       id="path28622"
       style="fill:none;stroke:#000000" />
    <path
       d="m 1371.8042,-431.50275 118.148,0 0,28.98425 -118.148,0 0,-28.98425"
       id="path28624"
       style="fill:none;stroke:#000000" />
    <path
       d="m 663.14286,840.92007 118.14799,0 0,28.98426 -118.14799,0 0,-28.98426"
       id="path28626"
       style="fill:none;stroke:#000000" />
    <path
       d="m 899.36444,840.92007 118.14446,0 0,28.98426 -118.14446,0 0,-28.98426"
       id="path28628"
       style="fill:none;stroke:#000000" />
    <path
       d="m 1135.5861,840.92007 118.1445,0 0,28.98426 -118.1445,0 0,-28.98426"
       id="path28630"
       style="fill:none;stroke:#000000" />
    <path
       d="m 1371.8042,840.92007 118.148,0 0,28.98426 -118.148,0 0,-28.98426"
       id="path28632"
       style="fill:none;stroke:#000000" />
    <path
       d="m 1651.5163,-489.46064 26.1178,0 0,28.98071 55.1551,0 0,-28.98071 55.0807,0 0,28.98071 55.1551,0 0,-28.98071 55.0807,0 0,28.98071 55.1551,0 0,-28.98071 55.0807,0 0,28.98071 55.1551,0 0,-28.98071 55.0807,0 0,28.98071 0.018,0 0,28.97718 -0.018,0 0,28.98425 0.018,0 0,1243.43857 -0.018,0 0,28.98426 0.018,0 0,28.97716 -0.018,0 0,28.98071 -55.0807,0 0,-28.98071 -55.1551,0 0,28.98071 -55.0807,0 0,-28.98071 -55.1551,0 0,28.98071 -55.0807,0 0,-28.98071 -55.1551,0 0,28.98071 -55.0807,0 0,-28.98071 -55.1551,0 0,28.98071 -55.102,0 0,-128.83109 28.9842,0 0,-128.88071 -28.9842,0 0,-128.8134 28.9842,0 0,-128.88424 -28.9842,0 0,-128.80985 28.9842,0 0,-128.88425 -28.9842,0 0,-128.809846 28.9842,0 0,-128.884244 -28.9842,0 0,-128.81339 28.9842,0 0,-128.88072 -28.9842,0 0,-128.81338 28.9842,0 0,-0.0177"
       id="path28634"
       style="fill:none;stroke:#000000" />
    <path
       d="m 1677.6341,-431.50275 55.1551,0 0,28.98425 -55.1551,0 0,-28.98425"
       id="path28636"
       style="fill:none;stroke:#000000" />
    <path
       d="m 1787.8699,-431.50275 55.1551,0 0,28.98425 -55.1551,0 0,-28.98425"
       id="path28638"
       style="fill:none;stroke:#000000" />
    <path
       d="m 1898.1057,-431.50275 55.1551,0 0,28.98425 -55.1551,0 0,-28.98425"
       id="path28640"
       style="fill:none;stroke:#000000" />
    <path
       d="m 2008.3415,-431.50275 55.1551,0 0,28.98425 -55.1551,0 0,-28.98425"
       id="path28642"
       style="fill:none;stroke:#000000" />
    <path
       d="m 1677.6341,840.92007 55.1551,0 0,28.98426 -55.1551,0 0,-28.98426"
       id="path28644"
       style="fill:none;stroke:#000000" />
    <path
       d="m 1787.8699,840.92007 55.1551,0 0,28.98426 -55.1551,0 0,-28.98426"
       id="path28646"
       style="fill:none;stroke:#000000" />
    <path
       d="m 1898.1057,840.92007 55.1551,0 0,28.98426 -55.1551,0 0,-28.98426"
       id="path28648"
       style="fill:none;stroke:#000000" />
    <path
       d="m 2008.3415,840.92007 55.1551,0 0,28.98426 -55.1551,0 0,-28.98426"
       id="path28650"
       style="fill:none;stroke:#000000" />
  </g>
</svg>
