999
DXF created by Inkscape
  0
SECTION
  2
HEADER
  9
$ACADVER
  1
AC1014
  9
$HANDSEED
  5
FFFF
  9
$MEASUREMENT
 70
     1
  0
ENDSEC
  0
SECTION
  2
TABLES
  0
TABLE
  2
VPORT
  5
8
330
0
100
AcDbSymbolTable
 70
     4
  0
VPORT
  5
2E
330
8
100
AcDbSymbolTableRecord
100
AcDbViewportTableRecord
  2
*ACTIVE
 70
     0
 10
0.0
 20
0.0
 11
1.0
 21
1.0
 12
210.0
 22
148.5
 13
0.0
 23
0.0
 14
10.0
 24
10.0
 15
10.0
 25
10.0
 16
0.0
 26
0.0
 36
1.0
 17
0.0
 27
0.0
 37
0.0
 40
341.0
 41
1.24
 42
50.0
 43
0.0
 44
0.0
 50
0.0
 51
0.0
 71
     0
 72
   100
 73
     1
 74
     3
 75
     0
 76
     0
 77
     0
 78
     0
  0
ENDTAB
  0
TABLE
  2
LTYPE
  5
5
330
0
100
AcDbSymbolTable
 70
     1
  0
LTYPE
  5
14
330
5
100
AcDbSymbolTableRecord
100
AcDbLinetypeTableRecord
  2
BYBLOCK
 70
     0
  3

 72
    65
 73
     0
 40
0.0
  0
LTYPE
  5
15
330
5
100
AcDbSymbolTableRecord
100
AcDbLinetypeTableRecord
  2
BYLAYER
 70
     0
  3

 72
    65
 73
     0
 40
0.0
  0
LTYPE
  5
16
330
5
100
AcDbSymbolTableRecord
100
AcDbLinetypeTableRecord
  2
CONTINUOUS
 70
     0
  3
Solid line
 72
    65
 73
     0
 40
0.0
  0
ENDTAB
  0
TABLE
  2
LAYER
  5
2
100
AcDbSymbolTable
 70
1
  0
LAYER
  5
50
100
AcDbSymbolTableRecord
100
AcDbLayerTableRecord
  2
0
 70
0
  6
CONTINUOUS
  0
ENDTAB
  0
TABLE
  2
STYLE
  5
3
330
0
100
AcDbSymbolTable
 70
     1
  0
STYLE
  5
11
330
3
100
AcDbSymbolTableRecord
100
AcDbTextStyleTableRecord
  2
STANDARD
 70
     0
 40
0.0
 41
1.0
 50
0.0
 71
     0
 42
2.5
  3
txt
  4

  0
ENDTAB
  0
TABLE
  2
VIEW
  5
6
330
0
100
AcDbSymbolTable
 70
     0
  0
ENDTAB
  0
TABLE
  2
UCS
  5
7
330
0
100
AcDbSymbolTable
 70
     0
  0
ENDTAB
  0
TABLE
  2
APPID
  5
9
330
0
100
AcDbSymbolTable
 70
     2
  0
APPID
  5
12
330
9
100
AcDbSymbolTableRecord
100
AcDbRegAppTableRecord
  2
ACAD
 70
     0
  0
ENDTAB
  0
TABLE
  2
DIMSTYLE
  5
A
330
0
100
AcDbSymbolTable
 70
     1
  0
DIMSTYLE
105
27
330
A
100
AcDbSymbolTableRecord
100
AcDbDimStyleTableRecord
  2
ISO-25
 70
     0
  3

  4

  5

  6

  7

 40
1.0
 41
2.5
 42
0.625
 43
3.75
 44
1.25
 45
0.0
 46
0.0
 47
0.0
 48
0.0
140
2.5
141
2.5
142
0.0
143
0.03937007874016
144
1.0
145
0.0
146
1.0
147
0.625
 71
     0
 72
     0
 73
     0
 74
     0
 75
     0
 76
     0
 77
     1
 78
     8
170
     0
171
     3
172
     1
173
     0
174
     0
175
     0
176
     0
177
     0
178
     0
270
     2
271
     2
272
     2
273
     2
274
     3
340
11
275
     0
280
     0
281
     0
282
     0
283
     0
284
     8
285
     0
286
     0
287
     3
288
     0
  0
ENDTAB
  0
TABLE
  2
BLOCK_RECORD
  5
1
330
0
100
AcDbSymbolTable
 70
     1
  0
BLOCK_RECORD
  5
1F
330
1
100
AcDbSymbolTableRecord
100
AcDbBlockTableRecord
  2
*MODEL_SPACE
  0
BLOCK_RECORD
  5
1B
330
1
100
AcDbSymbolTableRecord
100
AcDbBlockTableRecord
  2
*PAPER_SPACE
  0
ENDTAB
  0
ENDSEC
  0
SECTION
  2
BLOCKS
  0
BLOCK
  5
20
330
1F
100
AcDbEntity
  8
0
100
AcDbBlockBegin
  2
*MODEL_SPACE
 70
     0
 10
0.0
 20
0.0
 30
0.0
  3
*MODEL_SPACE
  1

  0
ENDBLK
  5
21
330
1F
100
AcDbEntity
  8
0
100
AcDbBlockEnd
  0
BLOCK
  5
1C
330
1B
100
AcDbEntity
 67
     1
  8
0
100
AcDbBlockBegin
  2
*PAPER_SPACE
  1

  0
ENDBLK
  5
1D
330
1B
100
AcDbEntity
 67
     1
  8
0
100
AcDbBlockEnd
  0
ENDSEC
  0
SECTION
  2
ENTITIES
  0
LWPOLYLINE
  5
100
100
AcDbEntity
  8
0
 62
7
100
AcDbPolyline
 90
53
 70
0
 10
19.896667
 20
26.946775
 30
0.0
 10
19.896667
 20
310.588787
 30
0.0
 10
35.457666
 20
310.588787
 30
0.0
 10
35.457666
 20
318.767787
 30
0.0
 10
51.002664
 20
318.767787
 30
0.0
 10
51.002664
 20
310.588787
 30
0.0
 10
66.568659
 20
310.588787
 30
0.0
 10
66.568659
 20
318.767787
 30
0.0
 10
82.113656
 20
318.767787
 30
0.0
 10
82.113656
 20
310.588787
 30
0.0
 10
97.679651
 20
310.588787
 30
0.0
 10
97.679651
 20
318.767787
 30
0.0
 10
113.225665
 20
318.767787
 30
0.0
 10
113.225665
 20
310.588787
 30
0.0
 10
128.790672
 20
310.588787
 30
0.0
 10
128.790672
 20
318.767787
 30
0.0
 10
144.336657
 20
318.767787
 30
0.0
 10
144.336657
 20
310.588787
 30
0.0
 10
151.717671
 20
310.588787
 30
0.0
 10
151.717671
 20
285.429788
 30
0.0
 10
159.896669
 20
285.429788
 30
0.0
 10
159.896669
 20
252.105787
 30
0.0
 10
151.717671
 20
252.105787
 30
0.0
 10
151.717671
 20
218.762786
 30
0.0
 10
159.896669
 20
218.762786
 30
0.0
 10
159.896669
 20
185.439787
 30
0.0
 10
151.717671
 20
185.439787
 30
0.0
 10
151.717671
 20
152.095793
 30
0.0
 10
159.896669
 20
152.095793
 30
0.0
 10
159.896669
 20
118.772799
 30
0.0
 10
151.717671
 20
118.772799
 30
0.0
 10
151.717671
 20
85.429796
 30
0.0
 10
159.896669
 20
85.429796
 30
0.0
 10
159.896669
 20
52.105786
 30
0.0
 10
151.717671
 20
52.105786
 30
0.0
 10
151.717671
 20
26.946775
 30
0.0
 10
144.336657
 20
26.946775
 30
0.0
 10
144.336657
 20
18.767778
 30
0.0
 10
128.790672
 20
18.767778
 30
0.0
 10
128.790672
 20
26.946775
 30
0.0
 10
113.225665
 20
26.946775
 30
0.0
 10
113.225665
 20
18.767778
 30
0.0
 10
97.679651
 20
18.767778
 30
0.0
 10
97.679651
 20
26.946775
 30
0.0
 10
82.113656
 20
26.946775
 30
0.0
 10
82.113656
 20
18.767778
 30
0.0
 10
66.568659
 20
18.767778
 30
0.0
 10
66.568659
 20
26.946775
 30
0.0
 10
51.002664
 20
26.946775
 30
0.0
 10
51.002664
 20
18.767778
 30
0.0
 10
35.457666
 20
18.767778
 30
0.0
 10
35.457666
 20
26.946775
 30
0.0
 10
19.896667
 20
26.946775
 30
0.0
  0
LWPOLYLINE
  5
101
100
AcDbEntity
  8
0
 62
7
100
AcDbPolyline
 90
37
 70
0
 10
34.396652
 20
218.767787
 30
0.0
 10
34.480669
 20
219.722787
 30
0.0
 10
34.728658
 20
220.648787
 30
0.0
 10
35.133675
 20
221.517786
 30
0.0
 10
35.683670
 20
222.302787
 30
0.0
 10
36.361652
 20
222.980786
 30
0.0
 10
37.146653
 20
223.530787
 30
0.0
 10
38.015672
 20
223.935787
 30
0.0
 10
38.941671
 20
224.183787
 30
0.0
 10
39.896655
 20
224.267787
 30
0.0
 10
40.851667
 20
224.183787
 30
0.0
 10
41.777666
 20
223.935787
 30
0.0
 10
42.646656
 20
223.530787
 30
0.0
 10
43.432674
 20
222.980786
 30
0.0
 10
44.109668
 20
222.302787
 30
0.0
 10
44.659663
 20
221.517786
 30
0.0
 10
45.065668
 20
220.648787
 30
0.0
 10
45.313656
 20
219.722787
 30
0.0
 10
45.396658
 20
218.767787
 30
0.0
 10
45.313656
 20
217.812787
 30
0.0
 10
45.065668
 20
216.886787
 30
0.0
 10
44.659663
 20
216.017785
 30
0.0
 10
44.109668
 20
215.232787
 30
0.0
 10
43.432674
 20
214.554788
 30
0.0
 10
42.646656
 20
214.004787
 30
0.0
 10
41.777666
 20
213.599787
 30
0.0
 10
40.851667
 20
213.351787
 30
0.0
 10
39.896655
 20
213.267787
 30
0.0
 10
38.941671
 20
213.351787
 30
0.0
 10
38.015672
 20
213.599787
 30
0.0
 10
37.146653
 20
214.004787
 30
0.0
 10
36.361652
 20
214.554788
 30
0.0
 10
35.683670
 20
215.232787
 30
0.0
 10
35.133675
 20
216.017785
 30
0.0
 10
34.728658
 20
216.886787
 30
0.0
 10
34.480669
 20
217.812787
 30
0.0
 10
34.396652
 20
218.767787
 30
0.0
  0
LWPOLYLINE
  5
102
100
AcDbEntity
  8
0
 62
7
100
AcDbPolyline
 90
37
 70
0
 10
34.396652
 20
288.767788
 30
0.0
 10
34.480669
 20
289.722786
 30
0.0
 10
34.728658
 20
290.648788
 30
0.0
 10
35.133675
 20
291.517787
 30
0.0
 10
35.683670
 20
292.302788
 30
0.0
 10
36.361652
 20
292.980787
 30
0.0
 10
37.146653
 20
293.530788
 30
0.0
 10
38.015672
 20
293.935788
 30
0.0
 10
38.941671
 20
294.183788
 30
0.0
 10
39.896655
 20
294.267788
 30
0.0
 10
40.851667
 20
294.183788
 30
0.0
 10
41.777666
 20
293.935788
 30
0.0
 10
42.646656
 20
293.530788
 30
0.0
 10
43.432674
 20
292.980787
 30
0.0
 10
44.109668
 20
292.302788
 30
0.0
 10
44.659663
 20
291.517787
 30
0.0
 10
45.065668
 20
290.648788
 30
0.0
 10
45.313656
 20
289.722786
 30
0.0
 10
45.396658
 20
288.767788
 30
0.0
 10
45.313656
 20
287.812788
 30
0.0
 10
45.065668
 20
286.886785
 30
0.0
 10
44.659663
 20
286.017787
 30
0.0
 10
44.109668
 20
285.232785
 30
0.0
 10
43.432674
 20
284.554786
 30
0.0
 10
42.646656
 20
284.004786
 30
0.0
 10
41.777666
 20
283.599786
 30
0.0
 10
40.851667
 20
283.351786
 30
0.0
 10
39.896655
 20
283.267788
 30
0.0
 10
38.941671
 20
283.351786
 30
0.0
 10
38.015672
 20
283.599786
 30
0.0
 10
37.146653
 20
284.004786
 30
0.0
 10
36.361652
 20
284.554786
 30
0.0
 10
35.683670
 20
285.232785
 30
0.0
 10
35.133675
 20
286.017787
 30
0.0
 10
34.728658
 20
286.886785
 30
0.0
 10
34.480669
 20
287.812788
 30
0.0
 10
34.396652
 20
288.767788
 30
0.0
  0
LWPOLYLINE
  5
103
100
AcDbEntity
  8
0
 62
7
100
AcDbPolyline
 90
37
 70
0
 10
61.640692
 20
346.109770
 30
0.0
 10
61.716694
 20
346.977770
 30
0.0
 10
61.941710
 20
347.819768
 30
0.0
 10
62.310716
 20
348.609768
 30
0.0
 10
62.809713
 20
349.323770
 30
0.0
 10
63.426707
 20
349.939768
 30
0.0
 10
64.140701
 20
350.439770
 30
0.0
 10
64.930697
 20
350.808770
 30
0.0
 10
65.771691
 20
351.033769
 30
0.0
 10
66.640710
 20
351.109768
 30
0.0
 10
67.508713
 20
351.033769
 30
0.0
 10
68.350694
 20
350.808770
 30
0.0
 10
69.140691
 20
350.439770
 30
0.0
 10
69.854713
 20
349.939768
 30
0.0
 10
70.470691
 20
349.323770
 30
0.0
 10
70.970704
 20
348.609768
 30
0.0
 10
71.338694
 20
347.819768
 30
0.0
 10
71.564698
 20
346.977770
 30
0.0
 10
71.640700
 20
346.109770
 30
0.0
 10
71.564698
 20
345.241770
 30
0.0
 10
71.338694
 20
344.399768
 30
0.0
 10
70.970704
 20
343.609769
 30
0.0
 10
70.470691
 20
342.895769
 30
0.0
 10
69.854713
 20
342.279769
 30
0.0
 10
69.140691
 20
341.779770
 30
0.0
 10
68.350694
 20
341.411769
 30
0.0
 10
67.508713
 20
341.185768
 30
0.0
 10
66.640710
 20
341.109768
 30
0.0
 10
65.771691
 20
341.185768
 30
0.0
 10
64.930697
 20
341.411769
 30
0.0
 10
64.140701
 20
341.779770
 30
0.0
 10
63.426707
 20
342.279769
 30
0.0
 10
62.809713
 20
342.895769
 30
0.0
 10
62.310716
 20
343.609769
 30
0.0
 10
61.941710
 20
344.399768
 30
0.0
 10
61.716694
 20
345.241770
 30
0.0
 10
61.640692
 20
346.109770
 30
0.0
  0
LWPOLYLINE
  5
104
100
AcDbEntity
  8
0
 62
7
100
AcDbPolyline
 90
37
 70
0
 10
68.684704
 20
332.020768
 30
0.0
 10
68.760707
 20
332.888768
 30
0.0
 10
68.986710
 20
333.730769
 30
0.0
 10
69.354700
 20
334.520769
 30
0.0
 10
69.854713
 20
335.234768
 30
0.0
 10
70.470691
 20
335.850769
 30
0.0
 10
71.184714
 20
336.350768
 30
0.0
 10
71.974710
 20
336.718769
 30
0.0
 10
72.816692
 20
336.944770
 30
0.0
 10
73.684694
 20
337.020769
 30
0.0
 10
74.553713
 20
336.944770
 30
0.0
 10
75.395695
 20
336.718769
 30
0.0
 10
76.184704
 20
336.350768
 30
0.0
 10
76.898698
 20
335.850769
 30
0.0
 10
77.515692
 20
335.234768
 30
0.0
 10
78.015705
 20
334.520769
 30
0.0
 10
78.383694
 20
333.730769
 30
0.0
 10
78.608710
 20
332.888768
 30
0.0
 10
78.684713
 20
332.020768
 30
0.0
 10
78.608710
 20
331.152768
 30
0.0
 10
78.383694
 20
330.310769
 30
0.0
 10
78.015705
 20
329.520767
 30
0.0
 10
77.515692
 20
328.806768
 30
0.0
 10
76.898698
 20
328.190770
 30
0.0
 10
76.184704
 20
327.690768
 30
0.0
 10
75.395695
 20
327.321768
 30
0.0
 10
74.553713
 20
327.096769
 30
0.0
 10
73.684694
 20
327.020769
 30
0.0
 10
72.816692
 20
327.096769
 30
0.0
 10
71.974710
 20
327.321768
 30
0.0
 10
71.184714
 20
327.690768
 30
0.0
 10
70.470691
 20
328.190770
 30
0.0
 10
69.854713
 20
328.806768
 30
0.0
 10
69.354700
 20
329.520767
 30
0.0
 10
68.986710
 20
330.310769
 30
0.0
 10
68.760707
 20
331.152768
 30
0.0
 10
68.684704
 20
332.020768
 30
0.0
  0
LWPOLYLINE
  5
105
100
AcDbEntity
  8
0
 62
7
100
AcDbPolyline
 90
37
 70
0
 10
75.729705
 20
346.109770
 30
0.0
 10
75.805707
 20
346.977770
 30
0.0
 10
76.031711
 20
347.819768
 30
0.0
 10
76.399700
 20
348.609768
 30
0.0
 10
76.899714
 20
349.323770
 30
0.0
 10
77.515692
 20
349.939768
 30
0.0
 10
78.229714
 20
350.439770
 30
0.0
 10
79.019710
 20
350.808770
 30
0.0
 10
79.861692
 20
351.033769
 30
0.0
 10
80.729695
 20
351.109768
 30
0.0
 10
81.597698
 20
351.033769
 30
0.0
 10
82.439708
 20
350.808770
 30
0.0
 10
83.229704
 20
350.439770
 30
0.0
 10
83.943698
 20
349.939768
 30
0.0
 10
84.559704
 20
349.323770
 30
0.0
 10
85.059718
 20
348.609768
 30
0.0
 10
85.428695
 20
347.819768
 30
0.0
 10
85.653711
 20
346.977770
 30
0.0
 10
85.729713
 20
346.109770
 30
0.0
 10
85.653711
 20
345.241770
 30
0.0
 10
85.428695
 20
344.399768
 30
0.0
 10
85.059718
 20
343.609769
 30
0.0
 10
84.559704
 20
342.895769
 30
0.0
 10
83.943698
 20
342.279769
 30
0.0
 10
83.229704
 20
341.779770
 30
0.0
 10
82.439708
 20
341.411769
 30
0.0
 10
81.597698
 20
341.185768
 30
0.0
 10
80.729695
 20
341.109768
 30
0.0
 10
79.861692
 20
341.185768
 30
0.0
 10
79.019710
 20
341.411769
 30
0.0
 10
78.229714
 20
341.779770
 30
0.0
 10
77.515692
 20
342.279769
 30
0.0
 10
76.899714
 20
342.895769
 30
0.0
 10
76.399700
 20
343.609769
 30
0.0
 10
76.031711
 20
344.399768
 30
0.0
 10
75.805707
 20
345.241770
 30
0.0
 10
75.729705
 20
346.109770
 30
0.0
  0
LWPOLYLINE
  5
106
100
AcDbEntity
  8
0
 62
7
100
AcDbPolyline
 90
37
 70
0
 10
82.774705
 20
332.020768
 30
0.0
 10
82.850708
 20
332.888768
 30
0.0
 10
83.075695
 20
333.730769
 30
0.0
 10
83.444701
 20
334.520769
 30
0.0
 10
83.944714
 20
335.234768
 30
0.0
 10
84.560692
 20
335.850769
 30
0.0
 10
85.274714
 20
336.350768
 30
0.0
 10
86.064711
 20
336.718769
 30
0.0
 10
86.906693
 20
336.944770
 30
0.0
 10
87.774695
 20
337.020769
 30
0.0
 10
88.642698
 20
336.944770
 30
0.0
 10
89.484708
 20
336.718769
 30
0.0
 10
90.274704
 20
336.350768
 30
0.0
 10
90.988698
 20
335.850769
 30
0.0
 10
91.604705
 20
335.234768
 30
0.0
 10
92.104690
 20
334.520769
 30
0.0
 10
92.472708
 20
333.730769
 30
0.0
 10
92.698711
 20
332.888768
 30
0.0
 10
92.774714
 20
332.020768
 30
0.0
 10
92.698711
 20
331.152768
 30
0.0
 10
92.472708
 20
330.310769
 30
0.0
 10
92.104690
 20
329.520767
 30
0.0
 10
91.604705
 20
328.806768
 30
0.0
 10
90.988698
 20
328.190770
 30
0.0
 10
90.274704
 20
327.690768
 30
0.0
 10
89.484708
 20
327.321768
 30
0.0
 10
88.642698
 20
327.096769
 30
0.0
 10
87.774695
 20
327.020769
 30
0.0
 10
86.906693
 20
327.096769
 30
0.0
 10
86.064711
 20
327.321768
 30
0.0
 10
85.274714
 20
327.690768
 30
0.0
 10
84.560692
 20
328.190770
 30
0.0
 10
83.944714
 20
328.806768
 30
0.0
 10
83.444701
 20
329.520767
 30
0.0
 10
83.075695
 20
330.310769
 30
0.0
 10
82.850708
 20
331.152768
 30
0.0
 10
82.774705
 20
332.020768
 30
0.0
  0
LWPOLYLINE
  5
107
100
AcDbEntity
  8
0
 62
7
100
AcDbPolyline
 90
37
 70
0
 10
89.818690
 20
346.109770
 30
0.0
 10
89.894692
 20
346.977770
 30
0.0
 10
90.120696
 20
347.819768
 30
0.0
 10
90.488714
 20
348.609768
 30
0.0
 10
90.988698
 20
349.323770
 30
0.0
 10
91.605693
 20
349.939768
 30
0.0
 10
92.318699
 20
350.439770
 30
0.0
 10
93.108695
 20
350.808770
 30
0.0
 10
93.950705
 20
351.033769
 30
0.0
 10
94.818708
 20
351.109768
 30
0.0
 10
95.687698
 20
351.033769
 30
0.0
 10
96.529708
 20
350.808770
 30
0.0
 10
97.318717
 20
350.439770
 30
0.0
 10
98.032711
 20
349.939768
 30
0.0
 10
98.649705
 20
349.323770
 30
0.0
 10
99.149690
 20
348.609768
 30
0.0
 10
99.517708
 20
347.819768
 30
0.0
 10
99.743712
 20
346.977770
 30
0.0
 10
99.818698
 20
346.109770
 30
0.0
 10
99.743712
 20
345.241770
 30
0.0
 10
99.517708
 20
344.399768
 30
0.0
 10
99.149690
 20
343.609769
 30
0.0
 10
98.649705
 20
342.895769
 30
0.0
 10
98.032711
 20
342.279769
 30
0.0
 10
97.318717
 20
341.779770
 30
0.0
 10
96.529708
 20
341.411769
 30
0.0
 10
95.687698
 20
341.185768
 30
0.0
 10
94.818708
 20
341.109768
 30
0.0
 10
93.950705
 20
341.185768
 30
0.0
 10
93.108695
 20
341.411769
 30
0.0
 10
92.318699
 20
341.779770
 30
0.0
 10
91.605693
 20
342.279769
 30
0.0
 10
90.988698
 20
342.895769
 30
0.0
 10
90.488714
 20
343.609769
 30
0.0
 10
90.120696
 20
344.399768
 30
0.0
 10
89.894692
 20
345.241770
 30
0.0
 10
89.818690
 20
346.109770
 30
0.0
  0
LWPOLYLINE
  5
108
100
AcDbEntity
  8
0
 62
7
100
AcDbPolyline
 90
37
 70
0
 10
96.863690
 20
332.020768
 30
0.0
 10
96.939693
 20
332.888768
 30
0.0
 10
97.165696
 20
333.730769
 30
0.0
 10
97.533714
 20
334.520769
 30
0.0
 10
98.033699
 20
335.234768
 30
0.0
 10
98.649705
 20
335.850769
 30
0.0
 10
99.363699
 20
336.350768
 30
0.0
 10
100.153696
 20
336.718769
 30
0.0
 10
100.995706
 20
336.944770
 30
0.0
 10
101.863708
 20
337.020769
 30
0.0
 10
102.731711
 20
336.944770
 30
0.0
 10
103.573704
 20
336.718769
 30
0.0
 10
104.363703
 20
336.350768
 30
0.0
 10
105.077703
 20
335.850769
 30
0.0
 10
105.693704
 20
335.234768
 30
0.0
 10
106.193703
 20
334.520769
 30
0.0
 10
106.562703
 20
333.730769
 30
0.0
 10
106.787704
 20
332.888768
 30
0.0
 10
106.863704
 20
332.020768
 30
0.0
 10
106.787704
 20
331.152768
 30
0.0
 10
106.562703
 20
330.310769
 30
0.0
 10
106.193703
 20
329.520767
 30
0.0
 10
105.693704
 20
328.806768
 30
0.0
 10
105.077703
 20
328.190770
 30
0.0
 10
104.363703
 20
327.690768
 30
0.0
 10
103.573704
 20
327.321768
 30
0.0
 10
102.731711
 20
327.096769
 30
0.0
 10
101.863708
 20
327.020769
 30
0.0
 10
100.995706
 20
327.096769
 30
0.0
 10
100.153696
 20
327.321768
 30
0.0
 10
99.363699
 20
327.690768
 30
0.0
 10
98.649705
 20
328.190770
 30
0.0
 10
98.033699
 20
328.806768
 30
0.0
 10
97.533714
 20
329.520767
 30
0.0
 10
97.165696
 20
330.310769
 30
0.0
 10
96.939693
 20
331.152768
 30
0.0
 10
96.863690
 20
332.020768
 30
0.0
  0
LWPOLYLINE
  5
109
100
AcDbEntity
  8
0
 62
7
100
AcDbPolyline
 90
37
 70
0
 10
103.908705
 20
346.109770
 30
0.0
 10
103.984704
 20
346.977770
 30
0.0
 10
104.209703
 20
347.819768
 30
0.0
 10
104.578703
 20
348.609768
 30
0.0
 10
105.078705
 20
349.323770
 30
0.0
 10
105.694703
 20
349.939768
 30
0.0
 10
106.408705
 20
350.439770
 30
0.0
 10
107.198705
 20
350.808770
 30
0.0
 10
108.040703
 20
351.033769
 30
0.0
 10
108.908703
 20
351.109768
 30
0.0
 10
109.776703
 20
351.033769
 30
0.0
 10
110.618705
 20
350.808770
 30
0.0
 10
111.408704
 20
350.439770
 30
0.0
 10
112.122704
 20
349.939768
 30
0.0
 10
112.738704
 20
349.323770
 30
0.0
 10
113.238703
 20
348.609768
 30
0.0
 10
113.606704
 20
347.819768
 30
0.0
 10
113.832705
 20
346.977770
 30
0.0
 10
113.908705
 20
346.109770
 30
0.0
 10
113.832705
 20
345.241770
 30
0.0
 10
113.606704
 20
344.399768
 30
0.0
 10
113.238703
 20
343.609769
 30
0.0
 10
112.738704
 20
342.895769
 30
0.0
 10
112.122704
 20
342.279769
 30
0.0
 10
111.408704
 20
341.779770
 30
0.0
 10
110.618705
 20
341.411769
 30
0.0
 10
109.776703
 20
341.185768
 30
0.0
 10
108.908703
 20
341.109768
 30
0.0
 10
108.040703
 20
341.185768
 30
0.0
 10
107.198705
 20
341.411769
 30
0.0
 10
106.408705
 20
341.779770
 30
0.0
 10
105.694703
 20
342.279769
 30
0.0
 10
105.078705
 20
342.895769
 30
0.0
 10
104.578703
 20
343.609769
 30
0.0
 10
104.209703
 20
344.399768
 30
0.0
 10
103.984704
 20
345.241770
 30
0.0
 10
103.908705
 20
346.109770
 30
0.0
  0
LWPOLYLINE
  5
10a
100
AcDbEntity
  8
0
 62
7
100
AcDbPolyline
 90
37
 70
0
 10
110.953705
 20
332.020768
 30
0.0
 10
111.029705
 20
332.888768
 30
0.0
 10
111.254704
 20
333.730769
 30
0.0
 10
111.622705
 20
334.520769
 30
0.0
 10
112.122704
 20
335.234768
 30
0.0
 10
112.739703
 20
335.850769
 30
0.0
 10
113.453703
 20
336.350768
 30
0.0
 10
114.242703
 20
336.718769
 30
0.0
 10
115.084705
 20
336.944770
 30
0.0
 10
115.953704
 20
337.020769
 30
0.0
 10
116.821704
 20
336.944770
 30
0.0
 10
117.663705
 20
336.718769
 30
0.0
 10
118.453704
 20
336.350768
 30
0.0
 10
119.167704
 20
335.850769
 30
0.0
 10
119.783705
 20
335.234768
 30
0.0
 10
120.283704
 20
334.520769
 30
0.0
 10
120.651705
 20
333.730769
 30
0.0
 10
120.877703
 20
332.888768
 30
0.0
 10
120.953705
 20
332.020768
 30
0.0
 10
120.877703
 20
331.152768
 30
0.0
 10
120.651705
 20
330.310769
 30
0.0
 10
120.283704
 20
329.520767
 30
0.0
 10
119.783705
 20
328.806768
 30
0.0
 10
119.167704
 20
328.190770
 30
0.0
 10
118.453704
 20
327.690768
 30
0.0
 10
117.663705
 20
327.321768
 30
0.0
 10
116.821704
 20
327.096769
 30
0.0
 10
115.953704
 20
327.020769
 30
0.0
 10
115.084705
 20
327.096769
 30
0.0
 10
114.242703
 20
327.321768
 30
0.0
 10
113.453703
 20
327.690768
 30
0.0
 10
112.739703
 20
328.190770
 30
0.0
 10
112.122704
 20
328.806768
 30
0.0
 10
111.622705
 20
329.520767
 30
0.0
 10
111.254704
 20
330.310769
 30
0.0
 10
111.029705
 20
331.152768
 30
0.0
 10
110.953705
 20
332.020768
 30
0.0
  0
LWPOLYLINE
  5
10b
100
AcDbEntity
  8
0
 62
7
100
AcDbPolyline
 90
37
 70
0
 10
117.997704
 20
346.109770
 30
0.0
 10
118.073703
 20
346.977770
 30
0.0
 10
118.299704
 20
347.819768
 30
0.0
 10
118.667705
 20
348.609768
 30
0.0
 10
119.167704
 20
349.323770
 30
0.0
 10
119.783705
 20
349.939768
 30
0.0
 10
120.497704
 20
350.439770
 30
0.0
 10
121.287704
 20
350.808770
 30
0.0
 10
122.129705
 20
351.033769
 30
0.0
 10
122.997705
 20
351.109768
 30
0.0
 10
123.866704
 20
351.033769
 30
0.0
 10
124.707704
 20
350.808770
 30
0.0
 10
125.497703
 20
350.439770
 30
0.0
 10
126.211703
 20
349.939768
 30
0.0
 10
126.828705
 20
349.323770
 30
0.0
 10
127.327705
 20
348.609768
 30
0.0
 10
127.696705
 20
347.819768
 30
0.0
 10
127.921704
 20
346.977770
 30
0.0
 10
127.997704
 20
346.109770
 30
0.0
 10
127.921704
 20
345.241770
 30
0.0
 10
127.696705
 20
344.399768
 30
0.0
 10
127.327705
 20
343.609769
 30
0.0
 10
126.828705
 20
342.895769
 30
0.0
 10
126.211703
 20
342.279769
 30
0.0
 10
125.497703
 20
341.779770
 30
0.0
 10
124.707704
 20
341.411769
 30
0.0
 10
123.866704
 20
341.185768
 30
0.0
 10
122.997705
 20
341.109768
 30
0.0
 10
122.129705
 20
341.185768
 30
0.0
 10
121.287704
 20
341.411769
 30
0.0
 10
120.497704
 20
341.779770
 30
0.0
 10
119.783705
 20
342.279769
 30
0.0
 10
119.167704
 20
342.895769
 30
0.0
 10
118.667705
 20
343.609769
 30
0.0
 10
118.299704
 20
344.399768
 30
0.0
 10
118.073703
 20
345.241770
 30
0.0
 10
117.997704
 20
346.109770
 30
0.0
  0
LWPOLYLINE
  5
10c
100
AcDbEntity
  8
0
 62
7
100
AcDbPolyline
 90
37
 70
0
 10
125.042704
 20
332.020768
 30
0.0
 10
125.118704
 20
332.888768
 30
0.0
 10
125.344705
 20
333.730769
 30
0.0
 10
125.712703
 20
334.520769
 30
0.0
 10
126.212704
 20
335.234768
 30
0.0
 10
126.828705
 20
335.850769
 30
0.0
 10
127.542705
 20
336.350768
 30
0.0
 10
128.332704
 20
336.718769
 30
0.0
 10
129.174703
 20
336.944770
 30
0.0
 10
130.042706
 20
337.020769
 30
0.0
 10
130.910705
 20
336.944770
 30
0.0
 10
131.752704
 20
336.718769
 30
0.0
 10
132.542703
 20
336.350768
 30
0.0
 10
133.256703
 20
335.850769
 30
0.0
 10
133.872704
 20
335.234768
 30
0.0
 10
134.372703
 20
334.520769
 30
0.0
 10
134.740704
 20
333.730769
 30
0.0
 10
134.966704
 20
332.888768
 30
0.0
 10
135.042704
 20
332.020768
 30
0.0
 10
134.966704
 20
331.152768
 30
0.0
 10
134.740704
 20
330.310769
 30
0.0
 10
134.372703
 20
329.520767
 30
0.0
 10
133.872704
 20
328.806768
 30
0.0
 10
133.256703
 20
328.190770
 30
0.0
 10
132.542703
 20
327.690768
 30
0.0
 10
131.752704
 20
327.321768
 30
0.0
 10
130.910705
 20
327.096769
 30
0.0
 10
130.042706
 20
327.020769
 30
0.0
 10
129.174703
 20
327.096769
 30
0.0
 10
128.332704
 20
327.321768
 30
0.0
 10
127.542705
 20
327.690768
 30
0.0
 10
126.828705
 20
328.190770
 30
0.0
 10
126.212704
 20
328.806768
 30
0.0
 10
125.712703
 20
329.520767
 30
0.0
 10
125.344705
 20
330.310769
 30
0.0
 10
125.118704
 20
331.152768
 30
0.0
 10
125.042704
 20
332.020768
 30
0.0
  0
LWPOLYLINE
  5
10d
100
AcDbEntity
  8
0
 62
7
100
AcDbPolyline
 90
37
 70
0
 10
132.087705
 20
346.109770
 30
0.0
 10
132.163704
 20
346.977770
 30
0.0
 10
132.388703
 20
347.819768
 30
0.0
 10
132.757703
 20
348.609768
 30
0.0
 10
133.256703
 20
349.323770
 30
0.0
 10
133.873703
 20
349.939768
 30
0.0
 10
134.587705
 20
350.439770
 30
0.0
 10
135.377705
 20
350.808770
 30
0.0
 10
136.218704
 20
351.033769
 30
0.0
 10
137.087703
 20
351.109768
 30
0.0
 10
137.955703
 20
351.033769
 30
0.0
 10
138.797705
 20
350.808770
 30
0.0
 10
139.587704
 20
350.439770
 30
0.0
 10
140.301703
 20
349.939768
 30
0.0
 10
140.917704
 20
349.323770
 30
0.0
 10
141.417703
 20
348.609768
 30
0.0
 10
141.785704
 20
347.819768
 30
0.0
 10
142.011705
 20
346.977770
 30
0.0
 10
142.087704
 20
346.109770
 30
0.0
 10
142.011705
 20
345.241770
 30
0.0
 10
141.785704
 20
344.399768
 30
0.0
 10
141.417703
 20
343.609769
 30
0.0
 10
140.917704
 20
342.895769
 30
0.0
 10
140.301703
 20
342.279769
 30
0.0
 10
139.587704
 20
341.779770
 30
0.0
 10
138.797705
 20
341.411769
 30
0.0
 10
137.955703
 20
341.185768
 30
0.0
 10
137.087703
 20
341.109768
 30
0.0
 10
136.218704
 20
341.185768
 30
0.0
 10
135.377705
 20
341.411769
 30
0.0
 10
134.587705
 20
341.779770
 30
0.0
 10
133.873703
 20
342.279769
 30
0.0
 10
133.256703
 20
342.895769
 30
0.0
 10
132.757703
 20
343.609769
 30
0.0
 10
132.388703
 20
344.399768
 30
0.0
 10
132.163704
 20
345.241770
 30
0.0
 10
132.087705
 20
346.109770
 30
0.0
  0
LWPOLYLINE
  5
10e
100
AcDbEntity
  8
0
 62
7
100
AcDbPolyline
 90
37
 70
0
 10
139.131703
 20
332.020768
 30
0.0
 10
139.207703
 20
332.888768
 30
0.0
 10
139.433704
 20
333.730769
 30
0.0
 10
139.801704
 20
334.520769
 30
0.0
 10
140.301703
 20
335.234768
 30
0.0
 10
140.917704
 20
335.850769
 30
0.0
 10
141.631704
 20
336.350768
 30
0.0
 10
142.421703
 20
336.718769
 30
0.0
 10
143.263705
 20
336.944770
 30
0.0
 10
144.131705
 20
337.020769
 30
0.0
 10
145.000703
 20
336.944770
 30
0.0
 10
145.842705
 20
336.718769
 30
0.0
 10
146.631705
 20
336.350768
 30
0.0
 10
147.345705
 20
335.850769
 30
0.0
 10
147.962705
 20
335.234768
 30
0.0
 10
148.462704
 20
334.520769
 30
0.0
 10
148.830705
 20
333.730769
 30
0.0
 10
149.055703
 20
332.888768
 30
0.0
 10
149.131703
 20
332.020768
 30
0.0
 10
149.055703
 20
331.152768
 30
0.0
 10
148.830705
 20
330.310769
 30
0.0
 10
148.462704
 20
329.520767
 30
0.0
 10
147.962705
 20
328.806768
 30
0.0
 10
147.345705
 20
328.190770
 30
0.0
 10
146.631705
 20
327.690768
 30
0.0
 10
145.842705
 20
327.321768
 30
0.0
 10
145.000703
 20
327.096769
 30
0.0
 10
144.131705
 20
327.020769
 30
0.0
 10
143.263705
 20
327.096769
 30
0.0
 10
142.421703
 20
327.321768
 30
0.0
 10
141.631704
 20
327.690768
 30
0.0
 10
140.917704
 20
328.190770
 30
0.0
 10
140.301703
 20
328.806768
 30
0.0
 10
139.801704
 20
329.520767
 30
0.0
 10
139.433704
 20
330.310769
 30
0.0
 10
139.207703
 20
331.152768
 30
0.0
 10
139.131703
 20
332.020768
 30
0.0
  0
LWPOLYLINE
  5
10f
100
AcDbEntity
  8
0
 62
7
100
AcDbPolyline
 90
37
 70
0
 10
146.176704
 20
346.109770
 30
0.0
 10
146.252703
 20
346.977770
 30
0.0
 10
146.478704
 20
347.819768
 30
0.0
 10
146.846705
 20
348.609768
 30
0.0
 10
147.346704
 20
349.323770
 30
0.0
 10
147.962705
 20
349.939768
 30
0.0
 10
148.676704
 20
350.439770
 30
0.0
 10
149.466704
 20
350.808770
 30
0.0
 10
150.308705
 20
351.033769
 30
0.0
 10
151.176705
 20
351.109768
 30
0.0
 10
152.044705
 20
351.033769
 30
0.0
 10
152.886704
 20
350.808770
 30
0.0
 10
153.676703
 20
350.439770
 30
0.0
 10
154.390705
 20
349.939768
 30
0.0
 10
155.006703
 20
349.323770
 30
0.0
 10
155.506705
 20
348.609768
 30
0.0
 10
155.875705
 20
347.819768
 30
0.0
 10
156.100704
 20
346.977770
 30
0.0
 10
156.176703
 20
346.109770
 30
0.0
 10
156.100704
 20
345.241770
 30
0.0
 10
155.875705
 20
344.399768
 30
0.0
 10
155.506705
 20
343.609769
 30
0.0
 10
155.006703
 20
342.895769
 30
0.0
 10
154.390705
 20
342.279769
 30
0.0
 10
153.676703
 20
341.779770
 30
0.0
 10
152.886704
 20
341.411769
 30
0.0
 10
152.044705
 20
341.185768
 30
0.0
 10
151.176705
 20
341.109768
 30
0.0
 10
150.308705
 20
341.185768
 30
0.0
 10
149.466704
 20
341.411769
 30
0.0
 10
148.676704
 20
341.779770
 30
0.0
 10
147.962705
 20
342.279769
 30
0.0
 10
147.346704
 20
342.895769
 30
0.0
 10
146.846705
 20
343.609769
 30
0.0
 10
146.478704
 20
344.399768
 30
0.0
 10
146.252703
 20
345.241770
 30
0.0
 10
146.176704
 20
346.109770
 30
0.0
  0
LWPOLYLINE
  5
110
100
AcDbEntity
  8
0
 62
7
100
AcDbPolyline
 90
37
 70
0
 10
153.221704
 20
332.020768
 30
0.0
 10
153.297704
 20
332.888768
 30
0.0
 10
153.522705
 20
333.730769
 30
0.0
 10
153.891705
 20
334.520769
 30
0.0
 10
154.391704
 20
335.234768
 30
0.0
 10
155.007705
 20
335.850769
 30
0.0
 10
155.721705
 20
336.350768
 30
0.0
 10
156.511704
 20
336.718769
 30
0.0
 10
157.353703
 20
336.944770
 30
0.0
 10
158.221705
 20
337.020769
 30
0.0
 10
159.089705
 20
336.944770
 30
0.0
 10
159.931704
 20
336.718769
 30
0.0
 10
160.721703
 20
336.350768
 30
0.0
 10
161.435703
 20
335.850769
 30
0.0
 10
162.051704
 20
335.234768
 30
0.0
 10
162.551703
 20
334.520769
 30
0.0
 10
162.919704
 20
333.730769
 30
0.0
 10
163.145704
 20
332.888768
 30
0.0
 10
163.221704
 20
332.020768
 30
0.0
 10
163.145704
 20
331.152768
 30
0.0
 10
162.919704
 20
330.310769
 30
0.0
 10
162.551703
 20
329.520767
 30
0.0
 10
162.051704
 20
328.806768
 30
0.0
 10
161.435703
 20
328.190770
 30
0.0
 10
160.721703
 20
327.690768
 30
0.0
 10
159.931704
 20
327.321768
 30
0.0
 10
159.089705
 20
327.096769
 30
0.0
 10
158.221705
 20
327.020769
 30
0.0
 10
157.353703
 20
327.096769
 30
0.0
 10
156.511704
 20
327.321768
 30
0.0
 10
155.721705
 20
327.690768
 30
0.0
 10
155.007705
 20
328.190770
 30
0.0
 10
154.391704
 20
328.806768
 30
0.0
 10
153.891705
 20
329.520767
 30
0.0
 10
153.522705
 20
330.310769
 30
0.0
 10
153.297704
 20
331.152768
 30
0.0
 10
153.221704
 20
332.020768
 30
0.0
  0
LWPOLYLINE
  5
111
100
AcDbEntity
  8
0
 62
7
100
AcDbPolyline
 90
37
 70
0
 10
160.265705
 20
346.109770
 30
0.0
 10
160.341705
 20
346.977770
 30
0.0
 10
160.567703
 20
347.819768
 30
0.0
 10
160.935704
 20
348.609768
 30
0.0
 10
161.435703
 20
349.323770
 30
0.0
 10
162.052703
 20
349.939768
 30
0.0
 10
162.765703
 20
350.439770
 30
0.0
 10
163.555705
 20
350.808770
 30
0.0
 10
164.397704
 20
351.033769
 30
0.0
 10
165.265704
 20
351.109768
 30
0.0
 10
166.134703
 20
351.033769
 30
0.0
 10
166.976704
 20
350.808770
 30
0.0
 10
167.765705
 20
350.439770
 30
0.0
 10
168.479704
 20
349.939768
 30
0.0
 10
169.096704
 20
349.323770
 30
0.0
 10
169.596703
 20
348.609768
 30
0.0
 10
169.964704
 20
347.819768
 30
0.0
 10
170.190705
 20
346.977770
 30
0.0
 10
170.265705
 20
346.109770
 30
0.0
 10
170.190705
 20
345.241770
 30
0.0
 10
169.964704
 20
344.399768
 30
0.0
 10
169.596703
 20
343.609769
 30
0.0
 10
169.096704
 20
342.895769
 30
0.0
 10
168.479704
 20
342.279769
 30
0.0
 10
167.765705
 20
341.779770
 30
0.0
 10
166.976704
 20
341.411769
 30
0.0
 10
166.134703
 20
341.185768
 30
0.0
 10
165.265704
 20
341.109768
 30
0.0
 10
164.397704
 20
341.185768
 30
0.0
 10
163.555705
 20
341.411769
 30
0.0
 10
162.765703
 20
341.779770
 30
0.0
 10
162.052703
 20
342.279769
 30
0.0
 10
161.435703
 20
342.895769
 30
0.0
 10
160.935704
 20
343.609769
 30
0.0
 10
160.567703
 20
344.399768
 30
0.0
 10
160.341705
 20
345.241770
 30
0.0
 10
160.265705
 20
346.109770
 30
0.0
  0
LWPOLYLINE
  5
112
100
AcDbEntity
  8
0
 62
7
100
AcDbPolyline
 90
37
 70
0
 10
167.310703
 20
332.020768
 30
0.0
 10
167.386703
 20
332.888768
 30
0.0
 10
167.612703
 20
333.730769
 30
0.0
 10
167.980704
 20
334.520769
 30
0.0
 10
168.480703
 20
335.234768
 30
0.0
 10
169.096704
 20
335.850769
 30
0.0
 10
169.810704
 20
336.350768
 30
0.0
 10
170.600703
 20
336.718769
 30
0.0
 10
171.442705
 20
336.944770
 30
0.0
 10
172.310704
 20
337.020769
 30
0.0
 10
173.178704
 20
336.944770
 30
0.0
 10
174.020703
 20
336.718769
 30
0.0
 10
174.810705
 20
336.350768
 30
0.0
 10
175.524705
 20
335.850769
 30
0.0
 10
176.140705
 20
335.234768
 30
0.0
 10
176.640704
 20
334.520769
 30
0.0
 10
177.009704
 20
333.730769
 30
0.0
 10
177.234703
 20
332.888768
 30
0.0
 10
177.310703
 20
332.020768
 30
0.0
 10
177.234703
 20
331.152768
 30
0.0
 10
177.009704
 20
330.310769
 30
0.0
 10
176.640704
 20
329.520767
 30
0.0
 10
176.140705
 20
328.806768
 30
0.0
 10
175.524705
 20
328.190770
 30
0.0
 10
174.810705
 20
327.690768
 30
0.0
 10
174.020703
 20
327.321768
 30
0.0
 10
173.178704
 20
327.096769
 30
0.0
 10
172.310704
 20
327.020769
 30
0.0
 10
171.442705
 20
327.096769
 30
0.0
 10
170.600703
 20
327.321768
 30
0.0
 10
169.810704
 20
327.690768
 30
0.0
 10
169.096704
 20
328.190770
 30
0.0
 10
168.480703
 20
328.806768
 30
0.0
 10
167.980704
 20
329.520767
 30
0.0
 10
167.612703
 20
330.310769
 30
0.0
 10
167.386703
 20
331.152768
 30
0.0
 10
167.310703
 20
332.020768
 30
0.0
  0
LWPOLYLINE
  5
113
100
AcDbEntity
  8
0
 62
7
100
AcDbPolyline
 90
31
 70
0
 10
163.986662
 20
26.946775
 30
0.0
 10
163.986662
 20
61.619779
 30
0.0
 10
172.165659
 20
61.619779
 30
0.0
 10
172.165659
 20
104.486795
 30
0.0
 10
163.986662
 20
104.486795
 30
0.0
 10
163.986662
 20
147.333801
 30
0.0
 10
172.165659
 20
147.333801
 30
0.0
 10
172.165659
 20
190.201787
 30
0.0
 10
163.986662
 20
190.201787
 30
0.0
 10
163.986662
 20
233.048787
 30
0.0
 10
172.165659
 20
233.048787
 30
0.0
 10
172.165659
 20
275.915786
 30
0.0
 10
163.986662
 20
275.915786
 30
0.0
 10
163.986662
 20
310.588787
 30
0.0
 10
179.546673
 20
310.588787
 30
0.0
 10
179.546673
 20
318.767787
 30
0.0
 10
195.092659
 20
318.767787
 30
0.0
 10
195.092659
 20
310.588787
 30
0.0
 10
210.657666
 20
310.588787
 30
0.0
 10
210.657666
 20
318.767787
 30
0.0
 10
226.203665
 20
318.767787
 30
0.0
 10
226.203665
 20
310.588787
 30
0.0
 10
241.768664
 20
310.588787
 30
0.0
 10
241.768664
 20
318.767787
 30
0.0
 10
257.314663
 20
318.767787
 30
0.0
 10
257.314663
 20
310.588787
 30
0.0
 10
272.879665
 20
310.588787
 30
0.0
 10
272.879665
 20
318.767787
 30
0.0
 10
288.425664
 20
318.767787
 30
0.0
 10
288.425664
 20
310.588787
 30
0.0
 10
303.986664
 20
310.588787
 30
0.0
  0
LWPOLYLINE
  5
114
100
AcDbEntity
  8
0
 62
7
100
AcDbPolyline
 90
18
 70
0
 10
303.986664
 20
26.946775
 30
0.0
 10
288.425664
 20
26.946775
 30
0.0
 10
288.425664
 20
18.767778
 30
0.0
 10
272.879665
 20
18.767778
 30
0.0
 10
272.879665
 20
26.946775
 30
0.0
 10
257.314663
 20
26.946775
 30
0.0
 10
257.314663
 20
18.767778
 30
0.0
 10
241.768664
 20
18.767778
 30
0.0
 10
241.768664
 20
26.946775
 30
0.0
 10
226.203665
 20
26.946775
 30
0.0
 10
226.203665
 20
18.767778
 30
0.0
 10
210.657666
 20
18.767778
 30
0.0
 10
210.657666
 20
26.946775
 30
0.0
 10
195.092659
 20
26.946775
 30
0.0
 10
195.092659
 20
18.767778
 30
0.0
 10
179.546673
 20
18.767778
 30
0.0
 10
179.546673
 20
26.946775
 30
0.0
 10
163.986662
 20
26.946775
 30
0.0
  0
LWPOLYLINE
  5
115
100
AcDbEntity
  8
0
 62
7
100
AcDbPolyline
 90
2
 70
0
 10
303.986664
 20
310.588787
 30
0.0
 10
303.986664
 20
26.946775
 30
0.0
  0
LWPOLYLINE
  5
116
100
AcDbEntity
  8
0
 62
7
100
AcDbPolyline
 90
49
 70
0
 10
311.409108
 20
26.946775
 30
0.0
 10
311.409108
 20
310.588787
 30
0.0
 10
326.970108
 20
310.588787
 30
0.0
 10
326.970108
 20
318.767787
 30
0.0
 10
342.516107
 20
318.767787
 30
0.0
 10
342.516107
 20
310.588787
 30
0.0
 10
358.081109
 20
310.588787
 30
0.0
 10
358.081109
 20
318.767787
 30
0.0
 10
373.627108
 20
318.767787
 30
0.0
 10
373.627108
 20
310.588787
 30
0.0
 10
389.192107
 20
310.588787
 30
0.0
 10
389.192107
 20
318.767787
 30
0.0
 10
404.738106
 20
318.767787
 30
0.0
 10
404.738106
 20
310.588787
 30
0.0
 10
420.303113
 20
310.588787
 30
0.0
 10
420.303113
 20
318.767787
 30
0.0
 10
435.849099
 20
318.767787
 30
0.0
 10
435.849099
 20
310.588787
 30
0.0
 10
451.409110
 20
310.588787
 30
0.0
 10
451.409110
 20
275.915786
 30
0.0
 10
443.230113
 20
275.915786
 30
0.0
 10
443.230113
 20
233.048787
 30
0.0
 10
451.409110
 20
233.048787
 30
0.0
 10
451.409110
 20
190.201787
 30
0.0
 10
443.230113
 20
190.201787
 30
0.0
 10
443.230113
 20
147.333801
 30
0.0
 10
451.409110
 20
147.333801
 30
0.0
 10
451.409110
 20
104.486795
 30
0.0
 10
443.230113
 20
104.486795
 30
0.0
 10
443.230113
 20
61.619779
 30
0.0
 10
451.409110
 20
61.619779
 30
0.0
 10
451.409110
 20
26.946775
 30
0.0
 10
435.849099
 20
26.946775
 30
0.0
 10
435.849099
 20
18.767778
 30
0.0
 10
420.303113
 20
18.767778
 30
0.0
 10
420.303113
 20
26.946775
 30
0.0
 10
404.738106
 20
26.946775
 30
0.0
 10
404.738106
 20
18.767778
 30
0.0
 10
389.192107
 20
18.767778
 30
0.0
 10
389.192107
 20
26.946775
 30
0.0
 10
373.627108
 20
26.946775
 30
0.0
 10
373.627108
 20
18.767778
 30
0.0
 10
358.081109
 20
18.767778
 30
0.0
 10
358.081109
 20
26.946775
 30
0.0
 10
342.516107
 20
26.946775
 30
0.0
 10
342.516107
 20
18.767778
 30
0.0
 10
326.970108
 20
18.767778
 30
0.0
 10
326.970108
 20
26.946775
 30
0.0
 10
311.409108
 20
26.946775
 30
0.0
  0
LWPOLYLINE
  5
117
100
AcDbEntity
  8
0
 62
7
100
AcDbPolyline
 90
63
 70
0
 10
249.872065
 20
337.298834
 30
0.0
 10
250.090065
 20
339.378840
 30
0.0
 10
250.736063
 20
341.366842
 30
0.0
 10
251.782064
 20
343.176846
 30
0.0
 10
253.180065
 20
344.730846
 30
0.0
 10
254.872064
 20
345.959839
 30
0.0
 10
256.782065
 20
346.809836
 30
0.0
 10
258.827064
 20
347.244853
 30
0.0
 10
260.812066
 20
347.244853
 30
0.0
 10
262.845065
 20
349.550835
 30
0.0
 10
265.285065
 20
351.990843
 30
0.0
 10
267.873065
 20
354.272836
 30
0.0
 10
270.600066
 20
356.387837
 30
0.0
 10
273.454063
 20
358.326845
 30
0.0
 10
276.423064
 20
360.083848
 30
0.0
 10
279.498064
 20
361.649843
 30
0.0
 10
282.664064
 20
363.020850
 30
0.0
 10
285.911064
 20
364.188827
 30
0.0
 10
289.224065
 20
365.151853
 30
0.0
 10
292.592063
 20
365.904851
 30
0.0
 10
296.000066
 20
366.443839
 30
0.0
 10
299.435063
 20
366.768846
 30
0.0
 10
302.883065
 20
366.876852
 30
0.0
 10
306.332063
 20
366.768846
 30
0.0
 10
309.767063
 20
366.443839
 30
0.0
 10
313.175063
 20
365.904851
 30
0.0
 10
316.543063
 20
365.151853
 30
0.0
 10
319.856064
 20
364.188827
 30
0.0
 10
323.102063
 20
363.020850
 30
0.0
 10
326.269076
 20
361.649843
 30
0.0
 10
329.343069
 20
360.083848
 30
0.0
 10
332.313063
 20
358.326845
 30
0.0
 10
335.167063
 20
356.387837
 30
0.0
 10
337.893076
 20
354.272836
 30
0.0
 10
340.482070
 20
351.990843
 30
0.0
 10
342.921062
 20
349.550835
 30
0.0
 10
344.955066
 20
347.244853
 30
0.0
 10
346.940076
 20
347.244853
 30
0.0
 10
348.985058
 20
346.809836
 30
0.0
 10
350.895054
 20
345.959839
 30
0.0
 10
352.586073
 20
344.730846
 30
0.0
 10
353.985076
 20
343.176846
 30
0.0
 10
355.031077
 20
341.366842
 30
0.0
 10
355.677055
 20
339.378840
 30
0.0
 10
355.895072
 20
337.298834
 30
0.0
 10
355.677055
 20
335.219844
 30
0.0
 10
355.031077
 20
333.231843
 30
0.0
 10
353.985076
 20
331.421839
 30
0.0
 10
352.586073
 20
329.867839
 30
0.0
 10
350.895054
 20
328.638845
 30
0.0
 10
348.985058
 20
327.788849
 30
0.0
 10
346.940076
 20
327.353831
 30
0.0
 10
344.850051
 20
327.353831
 30
0.0
 10
342.805069
 20
327.788849
 30
0.0
 10
340.895074
 20
328.638845
 30
0.0
 10
339.204054
 20
329.867839
 30
0.0
 10
337.805051
 20
331.421839
 30
0.0
 10
336.760066
 20
333.231843
 30
0.0
 10
336.114060
 20
335.219844
 30
0.0
 10
335.895055
 20
337.298834
 30
0.0
 10
336.114060
 20
339.378840
 30
0.0
 10
336.760066
 20
341.366842
 30
0.0
 10
336.780951
 20
341.402853
 30
0.0
  0
LWPOLYLINE
  5
118
100
AcDbEntity
  8
0
 62
7
100
AcDbPolyline
 90
47
 70
0
 10
336.781064
 20
341.402853
 30
0.0
 10
335.632052
 20
342.705845
 30
0.0
 10
333.636064
 20
344.701834
 30
0.0
 10
331.519059
 20
346.567831
 30
0.0
 10
329.289052
 20
348.297853
 30
0.0
 10
326.955074
 20
349.883829
 30
0.0
 10
324.526072
 20
351.320848
 30
0.0
 10
322.011065
 20
352.601826
 30
0.0
 10
319.421064
 20
353.722841
 30
0.0
 10
316.766064
 20
354.678841
 30
0.0
 10
314.056065
 20
355.465846
 30
0.0
 10
311.301065
 20
356.081852
 30
0.0
 10
308.514064
 20
356.522853
 30
0.0
 10
305.704065
 20
356.788847
 30
0.0
 10
302.883065
 20
356.876844
 30
0.0
 10
300.063064
 20
356.788847
 30
0.0
 10
297.253065
 20
356.522853
 30
0.0
 10
294.465065
 20
356.081852
 30
0.0
 10
291.711064
 20
355.465846
 30
0.0
 10
289.001065
 20
354.678841
 30
0.0
 10
286.346065
 20
353.722841
 30
0.0
 10
283.756063
 20
352.601826
 30
0.0
 10
281.241065
 20
351.320848
 30
0.0
 10
278.812063
 20
349.883829
 30
0.0
 10
276.478063
 20
348.297853
 30
0.0
 10
274.248064
 20
346.567831
 30
0.0
 10
272.131065
 20
344.701834
 30
0.0
 10
270.135065
 20
342.705845
 30
0.0
 10
268.986065
 20
341.402853
 30
0.0
 10
269.007062
 20
341.366842
 30
0.0
 10
269.653063
 20
339.378840
 30
0.0
 10
269.872065
 20
337.298834
 30
0.0
 10
269.653063
 20
335.219844
 30
0.0
 10
269.007065
 20
333.231843
 30
0.0
 10
267.962064
 20
331.421839
 30
0.0
 10
266.563063
 20
329.867839
 30
0.0
 10
264.872064
 20
328.638845
 30
0.0
 10
262.962065
 20
327.788849
 30
0.0
 10
260.917063
 20
327.353831
 30
0.0
 10
258.827064
 20
327.353831
 30
0.0
 10
256.782065
 20
327.788849
 30
0.0
 10
254.872064
 20
328.638845
 30
0.0
 10
253.180065
 20
329.867839
 30
0.0
 10
251.782064
 20
331.421839
 30
0.0
 10
250.736063
 20
333.231843
 30
0.0
 10
250.090065
 20
335.219844
 30
0.0
 10
249.872065
 20
337.298834
 30
0.0
  0
LWPOLYLINE
  5
119
100
AcDbEntity
  8
0
 62
7
100
AcDbPolyline
 90
63
 70
0
 10
249.872065
 20
367.298831
 30
0.0
 10
250.090065
 20
369.378837
 30
0.0
 10
250.736063
 20
371.366838
 30
0.0
 10
251.782064
 20
373.176842
 30
0.0
 10
253.180065
 20
374.730843
 30
0.0
 10
254.872064
 20
375.959836
 30
0.0
 10
256.782065
 20
376.809833
 30
0.0
 10
258.827064
 20
377.244850
 30
0.0
 10
260.812066
 20
377.244850
 30
0.0
 10
262.845065
 20
379.550831
 30
0.0
 10
265.285065
 20
381.990840
 30
0.0
 10
267.873065
 20
384.272832
 30
0.0
 10
270.600066
 20
386.387834
 30
0.0
 10
273.454063
 20
388.326842
 30
0.0
 10
276.423064
 20
390.083844
 30
0.0
 10
279.498064
 20
391.649839
 30
0.0
 10
282.664064
 20
393.020846
 30
0.0
 10
285.911064
 20
394.188851
 30
0.0
 10
289.224065
 20
395.151850
 30
0.0
 10
292.592063
 20
395.904847
 30
0.0
 10
296.000066
 20
396.443835
 30
0.0
 10
299.435063
 20
396.768842
 30
0.0
 10
302.883065
 20
396.876849
 30
0.0
 10
306.332063
 20
396.768842
 30
0.0
 10
309.767063
 20
396.443835
 30
0.0
 10
313.175063
 20
395.904847
 30
0.0
 10
316.543063
 20
395.151850
 30
0.0
 10
319.856064
 20
394.188851
 30
0.0
 10
323.102063
 20
393.020846
 30
0.0
 10
326.269076
 20
391.649839
 30
0.0
 10
329.343069
 20
390.083844
 30
0.0
 10
332.313063
 20
388.326842
 30
0.0
 10
335.167063
 20
386.387834
 30
0.0
 10
337.893076
 20
384.272832
 30
0.0
 10
340.482070
 20
381.990840
 30
0.0
 10
342.921062
 20
379.550831
 30
0.0
 10
344.955066
 20
377.244850
 30
0.0
 10
346.940076
 20
377.244850
 30
0.0
 10
348.985058
 20
376.809833
 30
0.0
 10
350.895054
 20
375.959836
 30
0.0
 10
352.586073
 20
374.730843
 30
0.0
 10
353.985076
 20
373.176842
 30
0.0
 10
355.031077
 20
371.366838
 30
0.0
 10
355.677055
 20
369.378837
 30
0.0
 10
355.895072
 20
367.298831
 30
0.0
 10
355.677055
 20
365.219841
 30
0.0
 10
355.031077
 20
363.231839
 30
0.0
 10
353.985076
 20
361.421835
 30
0.0
 10
352.586073
 20
359.867835
 30
0.0
 10
350.895054
 20
358.638842
 30
0.0
 10
348.985058
 20
357.788845
 30
0.0
 10
346.940076
 20
357.353828
 30
0.0
 10
344.850051
 20
357.353828
 30
0.0
 10
342.805069
 20
357.788845
 30
0.0
 10
340.895074
 20
358.638842
 30
0.0
 10
339.204054
 20
359.867835
 30
0.0
 10
337.805051
 20
361.421835
 30
0.0
 10
336.760066
 20
363.231839
 30
0.0
 10
336.114060
 20
365.219841
 30
0.0
 10
335.895055
 20
367.298831
 30
0.0
 10
336.114060
 20
369.378837
 30
0.0
 10
336.760066
 20
371.366838
 30
0.0
 10
336.780951
 20
371.402850
 30
0.0
  0
LWPOLYLINE
  5
11a
100
AcDbEntity
  8
0
 62
7
100
AcDbPolyline
 90
47
 70
0
 10
336.781064
 20
371.402850
 30
0.0
 10
335.632052
 20
372.705842
 30
0.0
 10
333.636064
 20
374.701830
 30
0.0
 10
331.519059
 20
376.567827
 30
0.0
 10
329.289052
 20
378.297849
 30
0.0
 10
326.955074
 20
379.883853
 30
0.0
 10
324.526072
 20
381.320844
 30
0.0
 10
322.011065
 20
382.601851
 30
0.0
 10
319.421064
 20
383.722838
 30
0.0
 10
316.766064
 20
384.678837
 30
0.0
 10
314.056065
 20
385.465842
 30
0.0
 10
311.301065
 20
386.081849
 30
0.0
 10
308.514064
 20
386.522849
 30
0.0
 10
305.704065
 20
386.788843
 30
0.0
 10
302.883065
 20
386.876840
 30
0.0
 10
300.063064
 20
386.788843
 30
0.0
 10
297.253065
 20
386.522849
 30
0.0
 10
294.465065
 20
386.081849
 30
0.0
 10
291.711064
 20
385.465842
 30
0.0
 10
289.001065
 20
384.678837
 30
0.0
 10
286.346065
 20
383.722838
 30
0.0
 10
283.756063
 20
382.601851
 30
0.0
 10
281.241065
 20
381.320844
 30
0.0
 10
278.812063
 20
379.883853
 30
0.0
 10
276.478063
 20
378.297849
 30
0.0
 10
274.248064
 20
376.567827
 30
0.0
 10
272.131065
 20
374.701830
 30
0.0
 10
270.135065
 20
372.705842
 30
0.0
 10
268.986065
 20
371.402850
 30
0.0
 10
269.007062
 20
371.366838
 30
0.0
 10
269.653063
 20
369.378837
 30
0.0
 10
269.872065
 20
367.298831
 30
0.0
 10
269.653063
 20
365.219841
 30
0.0
 10
269.007065
 20
363.231839
 30
0.0
 10
267.962064
 20
361.421835
 30
0.0
 10
266.563063
 20
359.867835
 30
0.0
 10
264.872064
 20
358.638842
 30
0.0
 10
262.962065
 20
357.788845
 30
0.0
 10
260.917063
 20
357.353828
 30
0.0
 10
258.827064
 20
357.353828
 30
0.0
 10
256.782065
 20
357.788845
 30
0.0
 10
254.872064
 20
358.638842
 30
0.0
 10
253.180065
 20
359.867835
 30
0.0
 10
251.782064
 20
361.421835
 30
0.0
 10
250.736063
 20
363.231839
 30
0.0
 10
250.090065
 20
365.219841
 30
0.0
 10
249.872065
 20
367.298831
 30
0.0
  0
LWPOLYLINE
  5
11b
100
AcDbEntity
  8
0
 62
7
100
AcDbPolyline
 90
37
 70
0
 10
254.872064
 20
337.298834
 30
0.0
 10
254.948063
 20
338.167853
 30
0.0
 10
255.173065
 20
339.009835
 30
0.0
 10
255.542065
 20
339.798843
 30
0.0
 10
256.042064
 20
340.512837
 30
0.0
 10
256.658065
 20
341.129832
 30
0.0
 10
257.372064
 20
341.629845
 30
0.0
 10
258.162064
 20
341.997834
 30
0.0
 10
259.004065
 20
342.222850
 30
0.0
 10
259.872065
 20
342.298853
 30
0.0
 10
260.740065
 20
342.222850
 30
0.0
 10
261.582064
 20
341.997834
 30
0.0
 10
262.372063
 20
341.629845
 30
0.0
 10
263.086065
 20
341.129832
 30
0.0
 10
263.702063
 20
340.512837
 30
0.0
 10
264.202065
 20
339.798843
 30
0.0
 10
264.570063
 20
339.009835
 30
0.0
 10
264.796064
 20
338.167853
 30
0.0
 10
264.872064
 20
337.298834
 30
0.0
 10
264.796064
 20
336.430832
 30
0.0
 10
264.570063
 20
335.588850
 30
0.0
 10
264.202065
 20
334.798853
 30
0.0
 10
263.702063
 20
334.084831
 30
0.0
 10
263.086065
 20
333.468853
 30
0.0
 10
262.372063
 20
332.968840
 30
0.0
 10
261.582064
 20
332.600850
 30
0.0
 10
260.740065
 20
332.374847
 30
0.0
 10
259.872065
 20
332.298844
 30
0.0
 10
259.004065
 20
332.374847
 30
0.0
 10
258.162064
 20
332.600850
 30
0.0
 10
257.372064
 20
332.968840
 30
0.0
 10
256.658065
 20
333.468853
 30
0.0
 10
256.042064
 20
334.084831
 30
0.0
 10
255.542065
 20
334.798853
 30
0.0
 10
255.173065
 20
335.588850
 30
0.0
 10
254.948063
 20
336.430832
 30
0.0
 10
254.872064
 20
337.298834
 30
0.0
  0
LWPOLYLINE
  5
11c
100
AcDbEntity
  8
0
 62
7
100
AcDbPolyline
 90
37
 70
0
 10
254.872064
 20
367.298831
 30
0.0
 10
254.948063
 20
368.167849
 30
0.0
 10
255.173065
 20
369.009831
 30
0.0
 10
255.542065
 20
369.798840
 30
0.0
 10
256.042064
 20
370.512834
 30
0.0
 10
256.658065
 20
371.129828
 30
0.0
 10
257.372064
 20
371.629841
 30
0.0
 10
258.162064
 20
371.997831
 30
0.0
 10
259.004065
 20
372.222847
 30
0.0
 10
259.872065
 20
372.298849
 30
0.0
 10
260.740065
 20
372.222847
 30
0.0
 10
261.582064
 20
371.997831
 30
0.0
 10
262.372063
 20
371.629841
 30
0.0
 10
263.086065
 20
371.129828
 30
0.0
 10
263.702063
 20
370.512834
 30
0.0
 10
264.202065
 20
369.798840
 30
0.0
 10
264.570063
 20
369.009831
 30
0.0
 10
264.796064
 20
368.167849
 30
0.0
 10
264.872064
 20
367.298831
 30
0.0
 10
264.796064
 20
366.430828
 30
0.0
 10
264.570063
 20
365.588846
 30
0.0
 10
264.202065
 20
364.798850
 30
0.0
 10
263.702063
 20
364.084828
 30
0.0
 10
263.086065
 20
363.468849
 30
0.0
 10
262.372063
 20
362.968836
 30
0.0
 10
261.582064
 20
362.600847
 30
0.0
 10
260.740065
 20
362.374843
 30
0.0
 10
259.872065
 20
362.298841
 30
0.0
 10
259.004065
 20
362.374843
 30
0.0
 10
258.162064
 20
362.600847
 30
0.0
 10
257.372064
 20
362.968836
 30
0.0
 10
256.658065
 20
363.468849
 30
0.0
 10
256.042064
 20
364.084828
 30
0.0
 10
255.542065
 20
364.798850
 30
0.0
 10
255.173065
 20
365.588846
 30
0.0
 10
254.948063
 20
366.430828
 30
0.0
 10
254.872064
 20
367.298831
 30
0.0
  0
LWPOLYLINE
  5
11d
100
AcDbEntity
  8
0
 62
7
100
AcDbPolyline
 90
37
 70
0
 10
340.895074
 20
337.298834
 30
0.0
 10
340.971076
 20
338.167853
 30
0.0
 10
341.197051
 20
339.009835
 30
0.0
 10
341.565069
 20
339.798843
 30
0.0
 10
342.065054
 20
340.512837
 30
0.0
 10
342.681060
 20
341.129832
 30
0.0
 10
343.395054
 20
341.629845
 30
0.0
 10
344.185051
 20
341.997834
 30
0.0
 10
345.027061
 20
342.222850
 30
0.0
 10
345.895064
 20
342.298853
 30
0.0
 10
346.763066
 20
342.222850
 30
0.0
 10
347.605076
 20
341.997834
 30
0.0
 10
348.395073
 20
341.629845
 30
0.0
 10
349.109067
 20
341.129832
 30
0.0
 10
349.725073
 20
340.512837
 30
0.0
 10
350.225058
 20
339.798843
 30
0.0
 10
350.594064
 20
339.009835
 30
0.0
 10
350.819051
 20
338.167853
 30
0.0
 10
350.895054
 20
337.298834
 30
0.0
 10
350.819051
 20
336.430832
 30
0.0
 10
350.594064
 20
335.588850
 30
0.0
 10
350.225058
 20
334.798853
 30
0.0
 10
349.725073
 20
334.084831
 30
0.0
 10
349.109067
 20
333.468853
 30
0.0
 10
348.395073
 20
332.968840
 30
0.0
 10
347.605076
 20
332.600850
 30
0.0
 10
346.763066
 20
332.374847
 30
0.0
 10
345.895064
 20
332.298844
 30
0.0
 10
345.027061
 20
332.374847
 30
0.0
 10
344.185051
 20
332.600850
 30
0.0
 10
343.395054
 20
332.968840
 30
0.0
 10
342.681060
 20
333.468853
 30
0.0
 10
342.065054
 20
334.084831
 30
0.0
 10
341.565069
 20
334.798853
 30
0.0
 10
341.197051
 20
335.588850
 30
0.0
 10
340.971076
 20
336.430832
 30
0.0
 10
340.895074
 20
337.298834
 30
0.0
  0
LWPOLYLINE
  5
11e
100
AcDbEntity
  8
0
 62
7
100
AcDbPolyline
 90
37
 70
0
 10
340.895074
 20
367.298831
 30
0.0
 10
340.971076
 20
368.167849
 30
0.0
 10
341.197051
 20
369.009831
 30
0.0
 10
341.565069
 20
369.798840
 30
0.0
 10
342.065054
 20
370.512834
 30
0.0
 10
342.681060
 20
371.129828
 30
0.0
 10
343.395054
 20
371.629841
 30
0.0
 10
344.185051
 20
371.997831
 30
0.0
 10
345.027061
 20
372.222847
 30
0.0
 10
345.895064
 20
372.298849
 30
0.0
 10
346.763066
 20
372.222847
 30
0.0
 10
347.605076
 20
371.997831
 30
0.0
 10
348.395073
 20
371.629841
 30
0.0
 10
349.109067
 20
371.129828
 30
0.0
 10
349.725073
 20
370.512834
 30
0.0
 10
350.225058
 20
369.798840
 30
0.0
 10
350.594064
 20
369.009831
 30
0.0
 10
350.819051
 20
368.167849
 30
0.0
 10
350.895054
 20
367.298831
 30
0.0
 10
350.819051
 20
366.430828
 30
0.0
 10
350.594064
 20
365.588846
 30
0.0
 10
350.225058
 20
364.798850
 30
0.0
 10
349.725073
 20
364.084828
 30
0.0
 10
349.109067
 20
363.468849
 30
0.0
 10
348.395073
 20
362.968836
 30
0.0
 10
347.605076
 20
362.600847
 30
0.0
 10
346.763066
 20
362.374843
 30
0.0
 10
345.895064
 20
362.298841
 30
0.0
 10
345.027061
 20
362.374843
 30
0.0
 10
344.185051
 20
362.600847
 30
0.0
 10
343.395054
 20
362.968836
 30
0.0
 10
342.681060
 20
363.468849
 30
0.0
 10
342.065054
 20
364.084828
 30
0.0
 10
341.565069
 20
364.798850
 30
0.0
 10
341.197051
 20
365.588846
 30
0.0
 10
340.971076
 20
366.430828
 30
0.0
 10
340.895074
 20
367.298831
 30
0.0
  0
LWPOLYLINE
  5
11f
100
AcDbEntity
  8
0
 62
7
100
AcDbPolyline
 90
117
 70
0
 10
17.935386
 20
336.456325
 30
0.0
 10
18.153386
 20
338.535323
 30
0.0
 10
18.799384
 20
340.523325
 30
0.0
 10
19.845384
 20
342.334325
 30
0.0
 10
21.243386
 20
343.887323
 30
0.0
 10
22.935384
 20
345.116325
 30
0.0
 10
24.845385
 20
345.966325
 30
0.0
 10
26.890385
 20
346.401325
 30
0.0
 10
28.444385
 20
346.401325
 30
0.0
 10
29.584385
 20
348.078323
 30
0.0
 10
33.951384
 20
353.708324
 30
0.0
 10
38.663386
 20
359.053325
 30
0.0
 10
43.701386
 20
364.091324
 30
0.0
 10
49.046384
 20
368.803324
 30
0.0
 10
54.676384
 20
373.170323
 30
0.0
 10
60.569385
 20
377.175324
 30
0.0
 10
66.702384
 20
380.802323
 30
0.0
 10
73.051385
 20
384.037324
 30
0.0
 10
79.590384
 20
386.867324
 30
0.0
 10
86.294383
 20
389.280324
 30
0.0
 10
93.136395
 20
391.268325
 30
0.0
 10
100.090379
 20
392.823325
 30
0.0
 10
107.127393
 20
393.937323
 30
0.0
 10
114.221387
 20
394.608324
 30
0.0
 10
121.343378
 20
394.832324
 30
0.0
 10
128.464381
 20
394.608324
 30
0.0
 10
135.558375
 20
393.937323
 30
0.0
 10
142.595388
 20
392.823325
 30
0.0
 10
149.549372
 20
391.268325
 30
0.0
 10
156.391398
 20
389.280324
 30
0.0
 10
163.095390
 20
386.867324
 30
0.0
 10
169.634394
 20
384.037324
 30
0.0
 10
175.983378
 20
380.802323
 30
0.0
 10
182.116377
 20
377.175324
 30
0.0
 10
188.009375
 20
373.170323
 30
0.0
 10
193.639398
 20
368.803324
 30
0.0
 10
198.984376
 20
364.091324
 30
0.0
 10
204.022381
 20
359.053325
 30
0.0
 10
208.734392
 20
353.708324
 30
0.0
 10
213.101386
 20
348.078323
 30
0.0
 10
214.241394
 20
346.401325
 30
0.0
 10
215.796382
 20
346.401325
 30
0.0
 10
217.840377
 20
345.966325
 30
0.0
 10
219.750372
 20
345.116325
 30
0.0
 10
221.442379
 20
343.887323
 30
0.0
 10
222.840395
 20
342.334325
 30
0.0
 10
223.886395
 20
340.523325
 30
0.0
 10
224.532373
 20
338.535323
 30
0.0
 10
224.750390
 20
336.456325
 30
0.0
 10
224.532373
 20
334.377324
 30
0.0
 10
223.886395
 20
332.388326
 30
0.0
 10
222.840395
 20
330.578325
 30
0.0
 10
221.442379
 20
329.024324
 30
0.0
 10
219.750372
 20
327.796325
 30
0.0
 10
217.840377
 20
326.945323
 30
0.0
 10
215.796382
 20
326.511325
 30
0.0
 10
213.705398
 20
326.511325
 30
0.0
 10
211.660387
 20
326.945323
 30
0.0
 10
209.750392
 20
327.796325
 30
0.0
 10
208.059373
 20
329.024324
 30
0.0
 10
206.660397
 20
330.578325
 30
0.0
 10
205.615385
 20
332.388326
 30
0.0
 10
204.969378
 20
334.377324
 30
0.0
 10
204.750374
 20
336.456325
 30
0.0
 10
204.969378
 20
338.535323
 30
0.0
 10
205.615385
 20
340.523325
 30
0.0
 10
205.861398
 20
340.950324
 30
0.0
 10
205.011373
 20
342.201325
 30
0.0
 10
201.029387
 20
347.334324
 30
0.0
 10
196.732384
 20
352.208324
 30
0.0
 10
192.138399
 20
356.802323
 30
0.0
 10
187.265381
 20
361.098324
 30
0.0
 10
182.131391
 20
365.080324
 30
0.0
 10
176.758388
 20
368.732325
 30
0.0
 10
171.165393
 20
372.039323
 30
0.0
 10
165.376394
 20
374.989324
 30
0.0
 10
159.414393
 20
377.569324
 30
0.0
 10
153.301375
 20
379.770324
 30
0.0
 10
147.062373
 20
381.583325
 30
0.0
 10
140.721376
 20
383.000323
 30
0.0
 10
134.304377
 20
384.016323
 30
0.0
 10
127.836380
 20
384.628325
 30
0.0
 10
121.343378
 20
384.832324
 30
0.0
 10
114.849388
 20
384.628325
 30
0.0
 10
108.381391
 20
384.016323
 30
0.0
 10
101.964391
 20
383.000323
 30
0.0
 10
95.623394
 20
381.583325
 30
0.0
 10
89.384384
 20
379.770324
 30
0.0
 10
83.271385
 20
377.569324
 30
0.0
 10
77.309385
 20
374.989324
 30
0.0
 10
71.520386
 20
372.039323
 30
0.0
 10
65.927385
 20
368.732325
 30
0.0
 10
60.554385
 20
365.080324
 30
0.0
 10
55.420384
 20
361.098324
 30
0.0
 10
50.547386
 20
356.802323
 30
0.0
 10
45.953384
 20
352.208324
 30
0.0
 10
41.656384
 20
347.334324
 30
0.0
 10
37.674386
 20
342.201325
 30
0.0
 10
36.824384
 20
340.950324
 30
0.0
 10
37.070386
 20
340.523325
 30
0.0
 10
37.716384
 20
338.535323
 30
0.0
 10
37.935385
 20
336.456325
 30
0.0
 10
37.716384
 20
334.377324
 30
0.0
 10
37.070386
 20
332.388326
 30
0.0
 10
36.025384
 20
330.578325
 30
0.0
 10
34.626383
 20
329.024324
 30
0.0
 10
32.935384
 20
327.796325
 30
0.0
 10
31.025386
 20
326.945323
 30
0.0
 10
28.980384
 20
326.511325
 30
0.0
 10
26.890385
 20
326.511325
 30
0.0
 10
24.845385
 20
326.945323
 30
0.0
 10
22.935384
 20
327.796325
 30
0.0
 10
21.243386
 20
329.024324
 30
0.0
 10
19.845384
 20
330.578325
 30
0.0
 10
18.799384
 20
332.388326
 30
0.0
 10
18.153386
 20
334.377324
 30
0.0
 10
17.935386
 20
336.456325
 30
0.0
  0
LWPOLYLINE
  5
120
100
AcDbEntity
  8
0
 62
7
100
AcDbPolyline
 90
117
 70
0
 10
17.935386
 20
374.635324
 30
0.0
 10
18.153386
 20
376.714323
 30
0.0
 10
18.799384
 20
378.702324
 30
0.0
 10
19.845384
 20
380.512323
 30
0.0
 10
21.243386
 20
382.066323
 30
0.0
 10
22.935384
 20
383.295325
 30
0.0
 10
24.845385
 20
384.145324
 30
0.0
 10
26.890385
 20
384.580325
 30
0.0
 10
28.444385
 20
384.580325
 30
0.0
 10
29.584385
 20
386.257323
 30
0.0
 10
33.951384
 20
391.887323
 30
0.0
 10
38.663386
 20
397.232324
 30
0.0
 10
43.701386
 20
402.270324
 30
0.0
 10
49.046384
 20
406.982323
 30
0.0
 10
54.676384
 20
411.349325
 30
0.0
 10
60.569385
 20
415.354324
 30
0.0
 10
66.702384
 20
418.981326
 30
0.0
 10
73.051385
 20
422.216323
 30
0.0
 10
79.590384
 20
425.046323
 30
0.0
 10
86.294383
 20
427.459323
 30
0.0
 10
93.136395
 20
429.447325
 30
0.0
 10
100.090379
 20
431.001325
 30
0.0
 10
107.127393
 20
432.116323
 30
0.0
 10
114.221387
 20
432.787323
 30
0.0
 10
121.343378
 20
433.010324
 30
0.0
 10
128.464381
 20
432.787323
 30
0.0
 10
135.558375
 20
432.116323
 30
0.0
 10
142.595388
 20
431.001325
 30
0.0
 10
149.549372
 20
429.447325
 30
0.0
 10
156.391398
 20
427.459323
 30
0.0
 10
163.095390
 20
425.046323
 30
0.0
 10
169.634394
 20
422.216323
 30
0.0
 10
175.983378
 20
418.981326
 30
0.0
 10
182.116377
 20
415.354324
 30
0.0
 10
188.009375
 20
411.349325
 30
0.0
 10
193.639398
 20
406.982323
 30
0.0
 10
198.984376
 20
402.270324
 30
0.0
 10
204.022381
 20
397.232324
 30
0.0
 10
208.734392
 20
391.887323
 30
0.0
 10
213.101386
 20
386.257323
 30
0.0
 10
214.241394
 20
384.580325
 30
0.0
 10
215.796382
 20
384.580325
 30
0.0
 10
217.840377
 20
384.145324
 30
0.0
 10
219.750372
 20
383.295325
 30
0.0
 10
221.442379
 20
382.066323
 30
0.0
 10
222.840395
 20
380.512323
 30
0.0
 10
223.886395
 20
378.702324
 30
0.0
 10
224.532373
 20
376.714323
 30
0.0
 10
224.750390
 20
374.635324
 30
0.0
 10
224.532373
 20
372.555324
 30
0.0
 10
223.886395
 20
370.567325
 30
0.0
 10
222.840395
 20
368.757324
 30
0.0
 10
221.442379
 20
367.203324
 30
0.0
 10
219.750372
 20
365.974325
 30
0.0
 10
217.840377
 20
365.124325
 30
0.0
 10
215.796382
 20
364.689325
 30
0.0
 10
213.705398
 20
364.689325
 30
0.0
 10
211.660387
 20
365.124325
 30
0.0
 10
209.750392
 20
365.974325
 30
0.0
 10
208.059373
 20
367.203324
 30
0.0
 10
206.660397
 20
368.757324
 30
0.0
 10
205.615385
 20
370.567325
 30
0.0
 10
204.969378
 20
372.555324
 30
0.0
 10
204.750374
 20
374.635324
 30
0.0
 10
204.969378
 20
376.714323
 30
0.0
 10
205.615385
 20
378.702324
 30
0.0
 10
205.861398
 20
379.128325
 30
0.0
 10
205.011373
 20
380.379326
 30
0.0
 10
201.029387
 20
385.513323
 30
0.0
 10
196.732384
 20
390.386324
 30
0.0
 10
192.138399
 20
394.980324
 30
0.0
 10
187.265381
 20
399.277324
 30
0.0
 10
182.131391
 20
403.259324
 30
0.0
 10
176.758388
 20
406.911325
 30
0.0
 10
171.165393
 20
410.218326
 30
0.0
 10
165.376394
 20
413.168324
 30
0.0
 10
159.414393
 20
415.748323
 30
0.0
 10
153.301375
 20
417.949324
 30
0.0
 10
147.062373
 20
419.761326
 30
0.0
 10
140.721376
 20
421.179323
 30
0.0
 10
134.304377
 20
422.195323
 30
0.0
 10
127.836380
 20
422.806326
 30
0.0
 10
121.343378
 20
423.010324
 30
0.0
 10
114.849388
 20
422.806326
 30
0.0
 10
108.381391
 20
422.195323
 30
0.0
 10
101.964391
 20
421.179323
 30
0.0
 10
95.623394
 20
419.761326
 30
0.0
 10
89.384384
 20
417.949324
 30
0.0
 10
83.271385
 20
415.748323
 30
0.0
 10
77.309385
 20
413.168324
 30
0.0
 10
71.520386
 20
410.218326
 30
0.0
 10
65.927385
 20
406.911325
 30
0.0
 10
60.554385
 20
403.259324
 30
0.0
 10
55.420384
 20
399.277324
 30
0.0
 10
50.547386
 20
394.980324
 30
0.0
 10
45.953384
 20
390.386324
 30
0.0
 10
41.656384
 20
385.513323
 30
0.0
 10
37.674386
 20
380.379326
 30
0.0
 10
36.824384
 20
379.128325
 30
0.0
 10
37.070386
 20
378.702324
 30
0.0
 10
37.716384
 20
376.714323
 30
0.0
 10
37.935385
 20
374.635324
 30
0.0
 10
37.716384
 20
372.555324
 30
0.0
 10
37.070386
 20
370.567325
 30
0.0
 10
36.025384
 20
368.757324
 30
0.0
 10
34.626383
 20
367.203324
 30
0.0
 10
32.935384
 20
365.974325
 30
0.0
 10
31.025386
 20
365.124325
 30
0.0
 10
28.980384
 20
364.689325
 30
0.0
 10
26.890385
 20
364.689325
 30
0.0
 10
24.845385
 20
365.124325
 30
0.0
 10
22.935384
 20
365.974325
 30
0.0
 10
21.243386
 20
367.203324
 30
0.0
 10
19.845384
 20
368.757324
 30
0.0
 10
18.799384
 20
370.567325
 30
0.0
 10
18.153386
 20
372.555324
 30
0.0
 10
17.935386
 20
374.635324
 30
0.0
  0
LWPOLYLINE
  5
121
100
AcDbEntity
  8
0
 62
7
100
AcDbPolyline
 90
37
 70
0
 10
22.935384
 20
336.456325
 30
0.0
 10
23.011384
 20
337.324325
 30
0.0
 10
23.236386
 20
338.166323
 30
0.0
 10
23.605386
 20
338.956325
 30
0.0
 10
24.105385
 20
339.670325
 30
0.0
 10
24.721385
 20
340.286323
 30
0.0
 10
25.435385
 20
340.786325
 30
0.0
 10
26.225384
 20
341.154323
 30
0.0
 10
27.067386
 20
341.380324
 30
0.0
 10
27.935386
 20
341.456323
 30
0.0
 10
28.803386
 20
341.380324
 30
0.0
 10
29.645384
 20
341.154323
 30
0.0
 10
30.435383
 20
340.786325
 30
0.0
 10
31.149386
 20
340.286323
 30
0.0
 10
31.765384
 20
339.670325
 30
0.0
 10
32.265386
 20
338.956325
 30
0.0
 10
32.633384
 20
338.166323
 30
0.0
 10
32.859385
 20
337.324325
 30
0.0
 10
32.935384
 20
336.456325
 30
0.0
 10
32.859385
 20
335.588325
 30
0.0
 10
32.633384
 20
334.746323
 30
0.0
 10
32.265386
 20
333.956324
 30
0.0
 10
31.765384
 20
333.242325
 30
0.0
 10
31.149386
 20
332.626324
 30
0.0
 10
30.435383
 20
332.126325
 30
0.0
 10
29.645384
 20
331.757325
 30
0.0
 10
28.803386
 20
331.532323
 30
0.0
 10
27.935386
 20
331.456324
 30
0.0
 10
27.067386
 20
331.532323
 30
0.0
 10
26.225384
 20
331.757325
 30
0.0
 10
25.435385
 20
332.126325
 30
0.0
 10
24.721385
 20
332.626324
 30
0.0
 10
24.105385
 20
333.242325
 30
0.0
 10
23.605386
 20
333.956324
 30
0.0
 10
23.236386
 20
334.746323
 30
0.0
 10
23.011384
 20
335.588325
 30
0.0
 10
22.935384
 20
336.456325
 30
0.0
  0
LWPOLYLINE
  5
122
100
AcDbEntity
  8
0
 62
7
100
AcDbPolyline
 90
37
 70
0
 10
22.935384
 20
374.635324
 30
0.0
 10
23.011384
 20
375.503324
 30
0.0
 10
23.236386
 20
376.345323
 30
0.0
 10
23.605386
 20
377.135325
 30
0.0
 10
24.105385
 20
377.849325
 30
0.0
 10
24.721385
 20
378.465323
 30
0.0
 10
25.435385
 20
378.965325
 30
0.0
 10
26.225384
 20
379.333325
 30
0.0
 10
27.067386
 20
379.559323
 30
0.0
 10
27.935386
 20
379.635323
 30
0.0
 10
28.803386
 20
379.559323
 30
0.0
 10
29.645384
 20
379.333325
 30
0.0
 10
30.435383
 20
378.965325
 30
0.0
 10
31.149386
 20
378.465323
 30
0.0
 10
31.765384
 20
377.849325
 30
0.0
 10
32.265386
 20
377.135325
 30
0.0
 10
32.633384
 20
376.345323
 30
0.0
 10
32.859385
 20
375.503324
 30
0.0
 10
32.935384
 20
374.635324
 30
0.0
 10
32.859385
 20
373.766326
 30
0.0
 10
32.633384
 20
372.924324
 30
0.0
 10
32.265386
 20
372.135324
 30
0.0
 10
31.765384
 20
371.421324
 30
0.0
 10
31.149386
 20
370.804324
 30
0.0
 10
30.435383
 20
370.304325
 30
0.0
 10
29.645384
 20
369.936324
 30
0.0
 10
28.803386
 20
369.711326
 30
0.0
 10
27.935386
 20
369.635323
 30
0.0
 10
27.067386
 20
369.711326
 30
0.0
 10
26.225384
 20
369.936324
 30
0.0
 10
25.435385
 20
370.304325
 30
0.0
 10
24.721385
 20
370.804324
 30
0.0
 10
24.105385
 20
371.421324
 30
0.0
 10
23.605386
 20
372.135324
 30
0.0
 10
23.236386
 20
372.924324
 30
0.0
 10
23.011384
 20
373.766326
 30
0.0
 10
22.935384
 20
374.635324
 30
0.0
  0
LWPOLYLINE
  5
123
100
AcDbEntity
  8
0
 62
7
100
AcDbPolyline
 90
37
 70
0
 10
209.750392
 20
336.456325
 30
0.0
 10
209.826394
 20
337.324325
 30
0.0
 10
210.052398
 20
338.166323
 30
0.0
 10
210.420387
 20
338.956325
 30
0.0
 10
210.920372
 20
339.670325
 30
0.0
 10
211.536379
 20
340.286323
 30
0.0
 10
212.250373
 20
340.786325
 30
0.0
 10
213.040397
 20
341.154323
 30
0.0
 10
213.882379
 20
341.380324
 30
0.0
 10
214.750382
 20
341.456323
 30
0.0
 10
215.618385
 20
341.380324
 30
0.0
 10
216.460395
 20
341.154323
 30
0.0
 10
217.250391
 20
340.786325
 30
0.0
 10
217.964385
 20
340.286323
 30
0.0
 10
218.580391
 20
339.670325
 30
0.0
 10
219.080376
 20
338.956325
 30
0.0
 10
219.449382
 20
338.166323
 30
0.0
 10
219.674398
 20
337.324325
 30
0.0
 10
219.750372
 20
336.456325
 30
0.0
 10
219.674398
 20
335.588325
 30
0.0
 10
219.449382
 20
334.746323
 30
0.0
 10
219.080376
 20
333.956324
 30
0.0
 10
218.580391
 20
333.242325
 30
0.0
 10
217.964385
 20
332.626324
 30
0.0
 10
217.250391
 20
332.126325
 30
0.0
 10
216.460395
 20
331.757325
 30
0.0
 10
215.618385
 20
331.532323
 30
0.0
 10
214.750382
 20
331.456324
 30
0.0
 10
213.882379
 20
331.532323
 30
0.0
 10
213.040397
 20
331.757325
 30
0.0
 10
212.250373
 20
332.126325
 30
0.0
 10
211.536379
 20
332.626324
 30
0.0
 10
210.920372
 20
333.242325
 30
0.0
 10
210.420387
 20
333.956324
 30
0.0
 10
210.052398
 20
334.746323
 30
0.0
 10
209.826394
 20
335.588325
 30
0.0
 10
209.750392
 20
336.456325
 30
0.0
  0
LWPOLYLINE
  5
124
100
AcDbEntity
  8
0
 62
7
100
AcDbPolyline
 90
37
 70
0
 10
209.750392
 20
374.635324
 30
0.0
 10
209.826394
 20
375.503324
 30
0.0
 10
210.052398
 20
376.345323
 30
0.0
 10
210.420387
 20
377.135325
 30
0.0
 10
210.920372
 20
377.849325
 30
0.0
 10
211.536379
 20
378.465323
 30
0.0
 10
212.250373
 20
378.965325
 30
0.0
 10
213.040397
 20
379.333325
 30
0.0
 10
213.882379
 20
379.559323
 30
0.0
 10
214.750382
 20
379.635323
 30
0.0
 10
215.618385
 20
379.559323
 30
0.0
 10
216.460395
 20
379.333325
 30
0.0
 10
217.250391
 20
378.965325
 30
0.0
 10
217.964385
 20
378.465323
 30
0.0
 10
218.580391
 20
377.849325
 30
0.0
 10
219.080376
 20
377.135325
 30
0.0
 10
219.449382
 20
376.345323
 30
0.0
 10
219.674398
 20
375.503324
 30
0.0
 10
219.750372
 20
374.635324
 30
0.0
 10
219.674398
 20
373.766326
 30
0.0
 10
219.449382
 20
372.924324
 30
0.0
 10
219.080376
 20
372.135324
 30
0.0
 10
218.580391
 20
371.421324
 30
0.0
 10
217.964385
 20
370.804324
 30
0.0
 10
217.250391
 20
370.304325
 30
0.0
 10
216.460395
 20
369.936324
 30
0.0
 10
215.618385
 20
369.711326
 30
0.0
 10
214.750382
 20
369.635323
 30
0.0
 10
213.882379
 20
369.711326
 30
0.0
 10
213.040397
 20
369.936324
 30
0.0
 10
212.250373
 20
370.304325
 30
0.0
 10
211.536379
 20
370.804324
 30
0.0
 10
210.920372
 20
371.421324
 30
0.0
 10
210.420387
 20
372.135324
 30
0.0
 10
210.052398
 20
372.924324
 30
0.0
 10
209.826394
 20
373.766326
 30
0.0
 10
209.750392
 20
374.635324
 30
0.0
  0
LWPOLYLINE
  5
125
100
AcDbEntity
  8
0
 62
7
100
AcDbPolyline
 90
53
 70
0
 10
453.805770
 20
52.105786
 30
0.0
 10
453.805770
 20
85.429796
 30
0.0
 10
461.984767
 20
85.429796
 30
0.0
 10
461.984767
 20
118.772799
 30
0.0
 10
453.805770
 20
118.772799
 30
0.0
 10
453.805770
 20
152.095793
 30
0.0
 10
461.984767
 20
152.095793
 30
0.0
 10
461.984767
 20
185.439787
 30
0.0
 10
453.805770
 20
185.439787
 30
0.0
 10
453.805770
 20
218.762786
 30
0.0
 10
461.984767
 20
218.762786
 30
0.0
 10
461.984767
 20
252.105787
 30
0.0
 10
453.805770
 20
252.105787
 30
0.0
 10
453.805770
 20
285.429788
 30
0.0
 10
461.984767
 20
285.429788
 30
0.0
 10
461.984767
 20
310.588787
 30
0.0
 10
469.365782
 20
310.588787
 30
0.0
 10
469.365782
 20
318.767787
 30
0.0
 10
484.911767
 20
318.767787
 30
0.0
 10
484.911767
 20
310.588787
 30
0.0
 10
500.476774
 20
310.588787
 30
0.0
 10
500.476774
 20
318.767787
 30
0.0
 10
516.022788
 20
318.767787
 30
0.0
 10
516.022788
 20
310.588787
 30
0.0
 10
531.588782
 20
310.588787
 30
0.0
 10
531.588782
 20
318.767787
 30
0.0
 10
547.133780
 20
318.767787
 30
0.0
 10
547.133780
 20
310.588787
 30
0.0
 10
562.699775
 20
310.588787
 30
0.0
 10
562.699775
 20
318.767787
 30
0.0
 10
578.244772
 20
318.767787
 30
0.0
 10
578.244772
 20
310.588787
 30
0.0
 10
593.805772
 20
310.588787
 30
0.0
 10
593.805772
 20
26.946775
 30
0.0
 10
578.244772
 20
26.946775
 30
0.0
 10
578.244772
 20
18.767778
 30
0.0
 10
562.699775
 20
18.767778
 30
0.0
 10
562.699775
 20
26.946775
 30
0.0
 10
547.133780
 20
26.946775
 30
0.0
 10
547.133780
 20
18.767778
 30
0.0
 10
531.588782
 20
18.767778
 30
0.0
 10
531.588782
 20
26.946775
 30
0.0
 10
516.022788
 20
26.946775
 30
0.0
 10
516.022788
 20
18.767778
 30
0.0
 10
500.476774
 20
18.767778
 30
0.0
 10
500.476774
 20
26.946775
 30
0.0
 10
484.911767
 20
26.946775
 30
0.0
 10
484.911767
 20
18.767778
 30
0.0
 10
469.365782
 20
18.767778
 30
0.0
 10
469.365782
 20
26.946775
 30
0.0
 10
461.984767
 20
26.946775
 30
0.0
 10
461.984767
 20
52.105786
 30
0.0
 10
453.805770
 20
52.105786
 30
0.0
  0
LWPOLYLINE
  5
126
100
AcDbEntity
  8
0
 62
7
100
AcDbPolyline
 90
37
 70
0
 10
568.305781
 20
218.767787
 30
0.0
 10
568.388782
 20
219.722787
 30
0.0
 10
568.636771
 20
220.648787
 30
0.0
 10
569.042776
 20
221.517786
 30
0.0
 10
569.592770
 20
222.302787
 30
0.0
 10
570.269765
 20
222.980786
 30
0.0
 10
571.055782
 20
223.530787
 30
0.0
 10
571.924773
 20
223.935787
 30
0.0
 10
572.850772
 20
224.183787
 30
0.0
 10
573.805784
 20
224.267787
 30
0.0
 10
574.760767
 20
224.183787
 30
0.0
 10
575.686767
 20
223.935787
 30
0.0
 10
576.555785
 20
223.530787
 30
0.0
 10
577.340786
 20
222.980786
 30
0.0
 10
578.018769
 20
222.302787
 30
0.0
 10
578.568764
 20
221.517786
 30
0.0
 10
578.973781
 20
220.648787
 30
0.0
 10
579.221769
 20
219.722787
 30
0.0
 10
579.305787
 20
218.767787
 30
0.0
 10
579.221769
 20
217.812787
 30
0.0
 10
578.973781
 20
216.886787
 30
0.0
 10
578.568764
 20
216.017785
 30
0.0
 10
578.018769
 20
215.232787
 30
0.0
 10
577.340786
 20
214.554788
 30
0.0
 10
576.555785
 20
214.004787
 30
0.0
 10
575.686767
 20
213.599787
 30
0.0
 10
574.760767
 20
213.351787
 30
0.0
 10
573.805784
 20
213.267787
 30
0.0
 10
572.850772
 20
213.351787
 30
0.0
 10
571.924773
 20
213.599787
 30
0.0
 10
571.055782
 20
214.004787
 30
0.0
 10
570.269765
 20
214.554788
 30
0.0
 10
569.592770
 20
215.232787
 30
0.0
 10
569.042776
 20
216.017785
 30
0.0
 10
568.636771
 20
216.886787
 30
0.0
 10
568.388782
 20
217.812787
 30
0.0
 10
568.305781
 20
218.767787
 30
0.0
  0
LWPOLYLINE
  5
127
100
AcDbEntity
  8
0
 62
7
100
AcDbPolyline
 90
37
 70
0
 10
568.305781
 20
288.767788
 30
0.0
 10
568.388782
 20
289.722786
 30
0.0
 10
568.636771
 20
290.648788
 30
0.0
 10
569.042776
 20
291.517787
 30
0.0
 10
569.592770
 20
292.302788
 30
0.0
 10
570.269765
 20
292.980787
 30
0.0
 10
571.055782
 20
293.530788
 30
0.0
 10
571.924773
 20
293.935788
 30
0.0
 10
572.850772
 20
294.183788
 30
0.0
 10
573.805784
 20
294.267788
 30
0.0
 10
574.760767
 20
294.183788
 30
0.0
 10
575.686767
 20
293.935788
 30
0.0
 10
576.555785
 20
293.530788
 30
0.0
 10
577.340786
 20
292.980787
 30
0.0
 10
578.018769
 20
292.302788
 30
0.0
 10
578.568764
 20
291.517787
 30
0.0
 10
578.973781
 20
290.648788
 30
0.0
 10
579.221769
 20
289.722786
 30
0.0
 10
579.305787
 20
288.767788
 30
0.0
 10
579.221769
 20
287.812788
 30
0.0
 10
578.973781
 20
286.886785
 30
0.0
 10
578.568764
 20
286.017787
 30
0.0
 10
578.018769
 20
285.232785
 30
0.0
 10
577.340786
 20
284.554786
 30
0.0
 10
576.555785
 20
284.004786
 30
0.0
 10
575.686767
 20
283.599786
 30
0.0
 10
574.760767
 20
283.351786
 30
0.0
 10
573.805784
 20
283.267788
 30
0.0
 10
572.850772
 20
283.351786
 30
0.0
 10
571.924773
 20
283.599786
 30
0.0
 10
571.055782
 20
284.004786
 30
0.0
 10
570.269765
 20
284.554786
 30
0.0
 10
569.592770
 20
285.232785
 30
0.0
 10
569.042776
 20
286.017787
 30
0.0
 10
568.636771
 20
286.886785
 30
0.0
 10
568.388782
 20
287.812788
 30
0.0
 10
568.305781
 20
288.767788
 30
0.0
  0
ENDSEC
  0
SECTION
  2
OBJECTS
  0
DICTIONARY
  5
C
330
0
100
AcDbDictionary
  3
ACAD_GROUP
350
D
  3
ACAD_MLINESTYLE
350
17
  0
DICTIONARY
  5
D
330
C
100
AcDbDictionary
  0
DICTIONARY
  5
1A
330
C
100
AcDbDictionary
  0
DICTIONARY
  5
17
330
C
100
AcDbDictionary
  3
STANDARD
350
18
  0
DICTIONARY
  5
19
330
C
100
AcDbDictionary
  0
ENDSEC
  0
EOF
