  0
SECTION
  2
BLOCKS
  0
ENDSEC
  0
SECTION
  2
ENTITIES
  0
LINE
  8
0
 10
-328.179
 11
-328.179
 20
-141.821
 21
141.821
  0
LINE
  8
0
 10
-328.179
 11
-321.507
 20
141.821
 21
141.821
  0
LINE
  8
0
 10
-321.507
 11
-321.507
 20
141.821
 21
150
  0
LINE
  8
0
 10
-321.507
 11
-305.962
 20
150
 21
150
  0
LINE
  8
0
 10
-305.962
 11
-305.962
 20
150
 21
141.821
  0
LINE
  8
0
 10
-305.962
 11
-290.396
 20
141.821
 21
141.821
  0
LINE
  8
0
 10
-290.396
 11
-290.396
 20
141.821
 21
150
  0
LINE
  8
0
 10
-290.396
 11
-276.358
 20
150
 21
150
  0
LINE
  8
0
 10
-276.358
 11
-276.358
 20
150
 21
116.662
  0
LINE
  8
0
 10
-276.358
 11
-268.179
 20
116.662
 21
116.662
  0
LINE
  8
0
 10
-268.179
 11
-268.179
 20
116.662
 21
83.338
  0
LINE
  8
0
 10
-268.179
 11
-276.358
 20
83.338
 21
83.338
  0
LINE
  8
0
 10
-276.358
 11
-276.358
 20
83.338
 21
49.995
  0
LINE
  8
0
 10
-276.358
 11
-268.179
 20
49.995
 21
49.995
  0
LINE
  8
0
 10
-268.179
 11
-268.179
 20
49.995
 21
16.672
  0
LINE
  8
0
 10
-268.179
 11
-276.358
 20
16.672
 21
16.672
  0
LINE
  8
0
 10
-276.358
 11
-276.358
 20
16.672
 21
-16.672
  0
LINE
  8
0
 10
-276.358
 11
-268.179
 20
-16.672
 21
-16.672
  0
LINE
  8
0
 10
-268.179
 11
-268.179
 20
-16.672
 21
-49.995
  0
LINE
  8
0
 10
-268.179
 11
-276.358
 20
-49.995
 21
-49.995
  0
LINE
  8
0
 10
-276.358
 11
-276.358
 20
-49.995
 21
-83.338
  0
LINE
  8
0
 10
-276.358
 11
-268.179
 20
-83.338
 21
-83.338
  0
LINE
  8
0
 10
-268.179
 11
-268.179
 20
-83.338
 21
-116.662
  0
LINE
  8
0
 10
-268.179
 11
-276.358
 20
-116.662
 21
-116.662
  0
LINE
  8
0
 10
-276.358
 11
-276.358
 20
-116.662
 21
-150
  0
LINE
  8
0
 10
-276.358
 11
-290.396
 20
-150
 21
-150
  0
LINE
  8
0
 10
-290.396
 11
-290.396
 20
-150
 21
-141.821
  0
LINE
  8
0
 10
-290.396
 11
-305.962
 20
-141.821
 21
-141.821
  0
LINE
  8
0
 10
-305.962
 11
-305.962
 20
-141.821
 21
-150
  0
LINE
  8
0
 10
-305.962
 11
-321.507
 20
-150
 21
-150
  0
LINE
  8
0
 10
-321.507
 11
-321.507
 20
-150
 21
-141.821
  0
LINE
  8
0
 10
-321.507
 11
-328.179
 20
-141.821
 21
-141.821
  0
LINE
  8
0
 10
-303.406
 11
-302.878
 20
-129.516
 21
-127.66
  0
LINE
  8
0
 10
-302.878
 11
-301.716
 20
-127.66
 21
-126.12
  0
LINE
  8
0
 10
-301.716
 11
-300.075
 20
-126.12
 21
-125.105
  0
LINE
  8
0
 10
-300.075
 11
-298.179
 20
-125.105
 21
-124.75
  0
LINE
  8
0
 10
-298.179
 11
-296.282
 20
-124.75
 21
-125.105
  0
LINE
  8
0
 10
-296.282
 11
-294.642
 20
-125.105
 21
-126.12
  0
LINE
  8
0
 10
-294.642
 11
-293.479
 20
-126.12
 21
-127.66
  0
LINE
  8
0
 10
-293.479
 11
-292.951
 20
-127.66
 21
-129.516
  0
LINE
  8
0
 10
-292.951
 11
-293.129
 20
-129.516
 21
-131.437
  0
LINE
  8
0
 10
-293.129
 11
-293.989
 20
-131.437
 21
-133.164
  0
LINE
  8
0
 10
-293.989
 11
-295.415
 20
-133.164
 21
-134.464
  0
LINE
  8
0
 10
-295.415
 11
-297.214
 20
-134.464
 21
-135.161
  0
LINE
  8
0
 10
-297.214
 11
-299.143
 20
-135.161
 21
-135.161
  0
LINE
  8
0
 10
-299.143
 11
-300.943
 20
-135.161
 21
-134.464
  0
LINE
  8
0
 10
-300.943
 11
-302.368
 20
-134.464
 21
-133.164
  0
LINE
  8
0
 10
-302.368
 11
-303.228
 20
-133.164
 21
-131.437
  0
LINE
  8
0
 10
-303.228
 11
-303.406
 20
-131.437
 21
-129.516
  0
LINE
  8
0
 10
-303.406
 11
-302.878
 20
50.484
 21
52.34
  0
LINE
  8
0
 10
-302.878
 11
-301.716
 20
52.34
 21
53.88
  0
LINE
  8
0
 10
-301.716
 11
-300.075
 20
53.88
 21
54.895
  0
LINE
  8
0
 10
-300.075
 11
-298.179
 20
54.895
 21
55.25
  0
LINE
  8
0
 10
-298.179
 11
-296.282
 20
55.25
 21
54.895
  0
LINE
  8
0
 10
-296.282
 11
-294.642
 20
54.895
 21
53.88
  0
LINE
  8
0
 10
-294.642
 11
-293.479
 20
53.88
 21
52.34
  0
LINE
  8
0
 10
-293.479
 11
-292.951
 20
52.34
 21
50.484
  0
LINE
  8
0
 10
-292.951
 11
-293.129
 20
50.484
 21
48.563
  0
LINE
  8
0
 10
-293.129
 11
-293.989
 20
48.563
 21
46.836
  0
LINE
  8
0
 10
-293.989
 11
-295.415
 20
46.836
 21
45.536
  0
LINE
  8
0
 10
-295.415
 11
-297.214
 20
45.536
 21
44.839
  0
LINE
  8
0
 10
-297.214
 11
-299.143
 20
44.839
 21
44.839
  0
LINE
  8
0
 10
-299.143
 11
-300.943
 20
44.839
 21
45.536
  0
LINE
  8
0
 10
-300.943
 11
-302.368
 20
45.536
 21
46.836
  0
LINE
  8
0
 10
-302.368
 11
-303.228
 20
46.836
 21
48.563
  0
LINE
  8
0
 10
-303.228
 11
-303.406
 20
48.563
 21
50.484
  0
LINE
  8
0
 10
-264.089
 11
-264.089
 20
-141.821
 21
-107.148
  0
LINE
  8
0
 10
-264.089
 11
-255.91
 20
-107.148
 21
-107.148
  0
LINE
  8
0
 10
-255.91
 11
-255.91
 20
-107.148
 21
-64.281
  0
LINE
  8
0
 10
-255.91
 11
-264.089
 20
-64.281
 21
-64.281
  0
LINE
  8
0
 10
-264.089
 11
-264.089
 20
-64.281
 21
-21.434
  0
LINE
  8
0
 10
-264.089
 11
-255.91
 20
-21.434
 21
-21.434
  0
LINE
  8
0
 10
-255.91
 11
-255.91
 20
-21.434
 21
21.434
  0
LINE
  8
0
 10
-255.91
 11
-264.089
 20
21.434
 21
21.434
  0
LINE
  8
0
 10
-264.089
 11
-264.089
 20
21.434
 21
64.281
  0
LINE
  8
0
 10
-264.089
 11
-255.91
 20
64.281
 21
64.281
  0
LINE
  8
0
 10
-255.91
 11
-255.91
 20
64.281
 21
107.148
  0
LINE
  8
0
 10
-255.91
 11
-264.089
 20
107.148
 21
107.148
  0
LINE
  8
0
 10
-264.089
 11
-264.089
 20
107.148
 21
141.821
  0
LINE
  8
0
 10
-264.089
 11
-257.418
 20
141.821
 21
141.821
  0
LINE
  8
0
 10
-257.418
 11
-257.418
 20
141.821
 21
149.995
  0
LINE
  8
0
 10
-257.418
 11
-255.91
 20
149.995
 21
149.995
  0
LINE
  8
0
 10
-255.91
 11
-255.91
 20
149.995
 21
150
  0
LINE
  8
0
 10
-255.91
 11
-241.872
 20
150
 21
150
  0
LINE
  8
0
 10
-241.872
 11
-241.872
 20
150
 21
141.821
  0
LINE
  8
0
 10
-241.872
 11
-226.307
 20
141.821
 21
141.821
  0
LINE
  8
0
 10
-226.307
 11
-226.307
 20
141.821
 21
150
  0
LINE
  8
0
 10
-226.307
 11
-210.761
 20
150
 21
150
  0
LINE
  8
0
 10
-210.761
 11
-210.761
 20
150
 21
141.821
  0
LINE
  8
0
 10
-210.761
 11
-204.089
 20
141.821
 21
141.821
  0
LINE
  8
0
 10
-204.089
 11
-204.089
 20
141.821
 21
-141.821
  0
LINE
  8
0
 10
-204.089
 11
-210.761
 20
-141.821
 21
-141.821
  0
LINE
  8
0
 10
-210.761
 11
-210.761
 20
-141.821
 21
-150
  0
LINE
  8
0
 10
-210.761
 11
-226.307
 20
-150
 21
-150
  0
LINE
  8
0
 10
-226.307
 11
-226.307
 20
-150
 21
-141.821
  0
LINE
  8
0
 10
-226.307
 11
-241.872
 20
-141.821
 21
-141.821
  0
LINE
  8
0
 10
-241.872
 11
-241.872
 20
-141.821
 21
-150
  0
LINE
  8
0
 10
-241.872
 11
-257.418
 20
-150
 21
-150
  0
LINE
  8
0
 10
-257.418
 11
-257.418
 20
-150
 21
-141.821
  0
LINE
  8
0
 10
-257.418
 11
-264.089
 20
-141.821
 21
-141.821
  0
LINE
  8
0
 10
-200
 11
-200
 20
-191.862
 21
-176.317
  0
LINE
  8
0
 10
-200
 11
-191.821
 20
-176.317
 21
-176.317
  0
LINE
  8
0
 10
-191.821
 11
-191.821
 20
-176.317
 21
-160.751
  0
LINE
  8
0
 10
-191.821
 11
-200
 20
-160.751
 21
-160.751
  0
LINE
  8
0
 10
-200
 11
-200
 20
-160.751
 21
-154.089
  0
LINE
  8
0
 10
-200
 11
200
 20
-154.089
 21
-154.089
  0
LINE
  8
0
 10
200
 11
200
 20
-154.089
 21
-160.751
  0
LINE
  8
0
 10
200
 11
191.821
 20
-160.751
 21
-160.751
  0
LINE
  8
0
 10
191.821
 11
191.821
 20
-160.751
 21
-176.317
  0
LINE
  8
0
 10
191.821
 11
200
 20
-176.317
 21
-176.317
  0
LINE
  8
0
 10
200
 11
200
 20
-176.317
 21
-191.862
  0
LINE
  8
0
 10
200
 11
191.821
 20
-191.862
 21
-191.862
  0
LINE
  8
0
 10
191.821
 11
191.821
 20
-191.862
 21
-207.428
  0
LINE
  8
0
 10
191.821
 11
200
 20
-207.428
 21
-207.428
  0
LINE
  8
0
 10
200
 11
200
 20
-207.428
 21
-214.089
  0
LINE
  8
0
 10
200
 11
163.641
 20
-214.089
 21
-214.089
  0
LINE
  8
0
 10
163.641
 11
163.641
 20
-214.089
 21
-205.91
  0
LINE
  8
0
 10
163.641
 11
127.268
 20
-205.91
 21
-205.91
  0
LINE
  8
0
 10
127.268
 11
127.268
 20
-205.91
 21
-214.089
  0
LINE
  8
0
 10
127.268
 11
90.914
 20
-214.089
 21
-214.089
  0
LINE
  8
0
 10
90.914
 11
90.914
 20
-214.089
 21
-205.91
  0
LINE
  8
0
 10
90.914
 11
54.54
 20
-205.91
 21
-205.91
  0
LINE
  8
0
 10
54.54
 11
54.54
 20
-205.91
 21
-214.089
  0
LINE
  8
0
 10
54.54
 11
18.187
 20
-214.089
 21
-214.089
  0
LINE
  8
0
 10
18.187
 11
18.187
 20
-214.089
 21
-205.91
  0
LINE
  8
0
 10
18.187
 11
-18.187
 20
-205.91
 21
-205.91
  0
LINE
  8
0
 10
-18.187
 11
-18.187
 20
-205.91
 21
-214.089
  0
LINE
  8
0
 10
-18.187
 11
-54.54
 20
-214.089
 21
-214.089
  0
LINE
  8
0
 10
-54.54
 11
-54.54
 20
-214.089
 21
-205.91
  0
LINE
  8
0
 10
-54.54
 11
-90.914
 20
-205.91
 21
-205.91
  0
LINE
  8
0
 10
-90.914
 11
-90.914
 20
-205.91
 21
-214.089
  0
LINE
  8
0
 10
-90.914
 11
-127.268
 20
-214.089
 21
-214.089
  0
LINE
  8
0
 10
-127.268
 11
-127.268
 20
-214.089
 21
-205.91
  0
LINE
  8
0
 10
-127.268
 11
-163.641
 20
-205.91
 21
-205.91
  0
LINE
  8
0
 10
-163.641
 11
-163.641
 20
-205.91
 21
-214.089
  0
LINE
  8
0
 10
-163.641
 11
-199.995
 20
-214.089
 21
-214.089
  0
LINE
  8
0
 10
-199.995
 11
-199.995
 20
-214.089
 21
-207.428
  0
LINE
  8
0
 10
-199.995
 11
-191.821
 20
-207.428
 21
-207.428
  0
LINE
  8
0
 10
-191.821
 11
-191.821
 20
-207.428
 21
-191.862
  0
LINE
  8
0
 10
-191.821
 11
-200
 20
-191.862
 21
-191.862
  0
LINE
  8
0
 10
-200
 11
-200
 20
-107.138
 21
-64.291
  0
LINE
  8
0
 10
-200
 11
-191.821
 20
-64.291
 21
-64.291
  0
LINE
  8
0
 10
-191.821
 11
-191.821
 20
-64.291
 21
-21.424
  0
LINE
  8
0
 10
-191.821
 11
-200
 20
-21.424
 21
-21.424
  0
LINE
  8
0
 10
-200
 11
-200
 20
-21.424
 21
21.424
  0
LINE
  8
0
 10
-200
 11
-191.821
 20
21.424
 21
21.424
  0
LINE
  8
0
 10
-191.821
 11
-191.821
 20
21.424
 21
64.291
  0
LINE
  8
0
 10
-191.821
 11
-200
 20
64.291
 21
64.291
  0
LINE
  8
0
 10
-200
 11
-200
 20
64.291
 21
107.138
  0
LINE
  8
0
 10
-200
 11
-191.821
 20
107.138
 21
107.138
  0
LINE
  8
0
 10
-191.821
 11
-191.821
 20
107.138
 21
141.821
  0
LINE
  8
0
 10
-191.821
 11
-163.631
 20
141.821
 21
141.821
  0
LINE
  8
0
 10
-163.631
 11
-163.631
 20
141.821
 21
150
  0
LINE
  8
0
 10
-163.631
 11
-127.278
 20
150
 21
150
  0
LINE
  8
0
 10
-127.278
 11
-127.278
 20
150
 21
141.821
  0
LINE
  8
0
 10
-127.278
 11
-90.904
 20
141.821
 21
141.821
  0
LINE
  8
0
 10
-90.904
 11
-90.904
 20
141.821
 21
150
  0
LINE
  8
0
 10
-90.904
 11
-54.55
 20
150
 21
150
  0
LINE
  8
0
 10
-54.55
 11
-54.55
 20
150
 21
141.821
  0
LINE
  8
0
 10
-54.55
 11
-18.177
 20
141.821
 21
141.821
  0
LINE
  8
0
 10
-18.177
 11
-18.177
 20
141.821
 21
150
  0
LINE
  8
0
 10
-18.177
 11
18.177
 20
150
 21
150
  0
LINE
  8
0
 10
18.177
 11
18.177
 20
150
 21
141.821
  0
LINE
  8
0
 10
18.177
 11
54.55
 20
141.821
 21
141.821
  0
LINE
  8
0
 10
54.55
 11
54.55
 20
141.821
 21
150
  0
LINE
  8
0
 10
54.55
 11
90.904
 20
150
 21
150
  0
LINE
  8
0
 10
90.904
 11
90.904
 20
150
 21
141.821
  0
LINE
  8
0
 10
90.904
 11
127.278
 20
141.821
 21
141.821
  0
LINE
  8
0
 10
127.278
 11
127.278
 20
141.821
 21
150
  0
LINE
  8
0
 10
127.278
 11
163.631
 20
150
 21
150
  0
LINE
  8
0
 10
163.631
 11
163.631
 20
150
 21
141.821
  0
LINE
  8
0
 10
163.631
 11
191.821
 20
141.821
 21
141.821
  0
LINE
  8
0
 10
191.821
 11
191.821
 20
141.821
 21
107.138
  0
LINE
  8
0
 10
191.821
 11
200
 20
107.138
 21
107.138
  0
LINE
  8
0
 10
200
 11
200
 20
107.138
 21
64.291
  0
LINE
  8
0
 10
200
 11
191.821
 20
64.291
 21
64.291
  0
LINE
  8
0
 10
191.821
 11
191.821
 20
64.291
 21
21.424
  0
LINE
  8
0
 10
191.821
 11
200
 20
21.424
 21
21.424
  0
LINE
  8
0
 10
200
 11
200
 20
21.424
 21
-21.424
  0
LINE
  8
0
 10
200
 11
191.821
 20
-21.424
 21
-21.424
  0
LINE
  8
0
 10
191.821
 11
191.821
 20
-21.424
 21
-64.291
  0
LINE
  8
0
 10
191.821
 11
200
 20
-64.291
 21
-64.291
  0
LINE
  8
0
 10
200
 11
200
 20
-64.291
 21
-107.138
  0
LINE
  8
0
 10
200
 11
191.821
 20
-107.138
 21
-107.138
  0
LINE
  8
0
 10
191.821
 11
191.821
 20
-107.138
 21
-141.821
  0
LINE
  8
0
 10
191.821
 11
163.631
 20
-141.821
 21
-141.821
  0
LINE
  8
0
 10
163.631
 11
163.631
 20
-141.821
 21
-150
  0
LINE
  8
0
 10
163.631
 11
127.278
 20
-150
 21
-150
  0
LINE
  8
0
 10
127.278
 11
127.278
 20
-150
 21
-141.821
  0
LINE
  8
0
 10
127.278
 11
90.904
 20
-141.821
 21
-141.821
  0
LINE
  8
0
 10
90.904
 11
90.904
 20
-141.821
 21
-150
  0
LINE
  8
0
 10
90.904
 11
54.55
 20
-150
 21
-150
  0
LINE
  8
0
 10
54.55
 11
54.55
 20
-150
 21
-141.821
  0
LINE
  8
0
 10
54.55
 11
18.177
 20
-141.821
 21
-141.821
  0
LINE
  8
0
 10
18.177
 11
18.177
 20
-141.821
 21
-150
  0
LINE
  8
0
 10
18.177
 11
-18.177
 20
-150
 21
-150
  0
LINE
  8
0
 10
-18.177
 11
-18.177
 20
-150
 21
-141.821
  0
LINE
  8
0
 10
-18.177
 11
-54.55
 20
-141.821
 21
-141.821
  0
LINE
  8
0
 10
-54.55
 11
-54.55
 20
-141.821
 21
-150
  0
LINE
  8
0
 10
-54.55
 11
-90.904
 20
-150
 21
-150
  0
LINE
  8
0
 10
-90.904
 11
-90.904
 20
-150
 21
-141.821
  0
LINE
  8
0
 10
-90.904
 11
-127.278
 20
-141.821
 21
-141.821
  0
LINE
  8
0
 10
-127.278
 11
-127.278
 20
-141.821
 21
-150
  0
LINE
  8
0
 10
-127.278
 11
-163.631
 20
-150
 21
-150
  0
LINE
  8
0
 10
-163.631
 11
-163.631
 20
-150
 21
-141.821
  0
LINE
  8
0
 10
-163.631
 11
-191.821
 20
-141.821
 21
-141.821
  0
LINE
  8
0
 10
-191.821
 11
-191.821
 20
-141.821
 21
-107.138
  0
LINE
  8
0
 10
-191.821
 11
-200
 20
-107.138
 21
-107.138
  0
LINE
  8
0
 10
-183.643
 11
-183.643
 20
-207.428
 21
-191.862
  0
LINE
  8
0
 10
-183.643
 11
-175.463
 20
-191.862
 21
-191.862
  0
LINE
  8
0
 10
-175.463
 11
-175.463
 20
-191.862
 21
-207.428
  0
LINE
  8
0
 10
-175.463
 11
-183.643
 20
-207.428
 21
-207.428
  0
LINE
  8
0
 10
-183.643
 11
-183.643
 20
-176.317
 21
-160.751
  0
LINE
  8
0
 10
-183.643
 11
-175.463
 20
-160.751
 21
-160.751
  0
LINE
  8
0
 10
-175.463
 11
-175.463
 20
-160.751
 21
-176.317
  0
LINE
  8
0
 10
-175.463
 11
-183.643
 20
-176.317
 21
-176.317
  0
LINE
  8
0
 10
-183.643
 11
-183.643
 20
-116.672
 21
-83.328
  0
LINE
  8
0
 10
-183.643
 11
-175.463
 20
-83.328
 21
-83.328
  0
LINE
  8
0
 10
-175.463
 11
-175.463
 20
-83.328
 21
-116.672
  0
LINE
  8
0
 10
-175.463
 11
-183.643
 20
-116.672
 21
-116.672
  0
LINE
  8
0
 10
-183.643
 11
-183.643
 20
-50.005
 21
-16.662
  0
LINE
  8
0
 10
-183.643
 11
-175.463
 20
-16.662
 21
-16.662
  0
LINE
  8
0
 10
-175.463
 11
-175.463
 20
-16.662
 21
-50.005
  0
LINE
  8
0
 10
-175.463
 11
-183.643
 20
-50.005
 21
-50.005
  0
LINE
  8
0
 10
-183.643
 11
-183.643
 20
16.662
 21
50.005
  0
LINE
  8
0
 10
-183.643
 11
-175.463
 20
50.005
 21
50.005
  0
LINE
  8
0
 10
-175.463
 11
-175.463
 20
50.005
 21
16.662
  0
LINE
  8
0
 10
-175.463
 11
-183.643
 20
16.662
 21
16.662
  0
LINE
  8
0
 10
-183.643
 11
-183.643
 20
83.328
 21
116.672
  0
LINE
  8
0
 10
-183.643
 11
-175.463
 20
116.672
 21
116.672
  0
LINE
  8
0
 10
-175.463
 11
-175.463
 20
116.672
 21
83.328
  0
LINE
  8
0
 10
-175.463
 11
-183.643
 20
83.328
 21
83.328
  0
LINE
  8
0
 10
-183.643
 11
-183.643
 20
160.751
 21
176.317
  0
LINE
  8
0
 10
-183.643
 11
-175.463
 20
176.317
 21
176.317
  0
LINE
  8
0
 10
-175.463
 11
-175.463
 20
176.317
 21
160.751
  0
LINE
  8
0
 10
-175.463
 11
-183.643
 20
160.751
 21
160.751
  0
LINE
  8
0
 10
-183.643
 11
-183.643
 20
191.862
 21
207.428
  0
LINE
  8
0
 10
-183.643
 11
-175.463
 20
207.428
 21
207.428
  0
LINE
  8
0
 10
-175.463
 11
-175.463
 20
207.428
 21
191.862
  0
LINE
  8
0
 10
-175.463
 11
-183.643
 20
191.862
 21
191.862
  0
LINE
  8
0
 10
-200
 11
-200
 20
176.317
 21
191.862
  0
LINE
  8
0
 10
-200
 11
-191.821
 20
191.862
 21
191.862
  0
LINE
  8
0
 10
-191.821
 11
-191.821
 20
191.862
 21
207.428
  0
LINE
  8
0
 10
-191.821
 11
-200
 20
207.428
 21
207.428
  0
LINE
  8
0
 10
-200
 11
-200
 20
207.428
 21
214.089
  0
LINE
  8
0
 10
-200
 11
200
 20
214.089
 21
214.089
  0
LINE
  8
0
 10
200
 11
200
 20
214.089
 21
207.428
  0
LINE
  8
0
 10
200
 11
191.821
 20
207.428
 21
207.428
  0
LINE
  8
0
 10
191.821
 11
191.821
 20
207.428
 21
191.862
  0
LINE
  8
0
 10
191.821
 11
200
 20
191.862
 21
191.862
  0
LINE
  8
0
 10
200
 11
200
 20
191.862
 21
176.317
  0
LINE
  8
0
 10
200
 11
191.821
 20
176.317
 21
176.317
  0
LINE
  8
0
 10
191.821
 11
191.821
 20
176.317
 21
160.751
  0
LINE
  8
0
 10
191.821
 11
200
 20
160.751
 21
160.751
  0
LINE
  8
0
 10
200
 11
200
 20
160.751
 21
154.089
  0
LINE
  8
0
 10
200
 11
163.641
 20
154.089
 21
154.089
  0
LINE
  8
0
 10
163.641
 11
163.641
 20
154.089
 21
162.269
  0
LINE
  8
0
 10
163.641
 11
127.268
 20
162.269
 21
162.269
  0
LINE
  8
0
 10
127.268
 11
127.268
 20
162.269
 21
154.089
  0
LINE
  8
0
 10
127.268
 11
90.914
 20
154.089
 21
154.089
  0
LINE
  8
0
 10
90.914
 11
90.914
 20
154.089
 21
162.269
  0
LINE
  8
0
 10
90.914
 11
54.54
 20
162.269
 21
162.269
  0
LINE
  8
0
 10
54.54
 11
54.54
 20
162.269
 21
154.089
  0
LINE
  8
0
 10
54.54
 11
18.187
 20
154.089
 21
154.089
  0
LINE
  8
0
 10
18.187
 11
18.187
 20
154.089
 21
162.269
  0
LINE
  8
0
 10
18.187
 11
-18.187
 20
162.269
 21
162.269
  0
LINE
  8
0
 10
-18.187
 11
-18.187
 20
162.269
 21
154.089
  0
LINE
  8
0
 10
-18.187
 11
-54.54
 20
154.089
 21
154.089
  0
LINE
  8
0
 10
-54.54
 11
-54.54
 20
154.089
 21
162.269
  0
LINE
  8
0
 10
-54.54
 11
-90.914
 20
162.269
 21
162.269
  0
LINE
  8
0
 10
-90.914
 11
-90.914
 20
162.269
 21
154.089
  0
LINE
  8
0
 10
-90.914
 11
-127.268
 20
154.089
 21
154.089
  0
LINE
  8
0
 10
-127.268
 11
-127.268
 20
154.089
 21
162.269
  0
LINE
  8
0
 10
-127.268
 11
-163.641
 20
162.269
 21
162.269
  0
LINE
  8
0
 10
-163.641
 11
-163.641
 20
162.269
 21
154.089
  0
LINE
  8
0
 10
-163.641
 11
-199.995
 20
154.089
 21
154.089
  0
LINE
  8
0
 10
-199.995
 11
-199.995
 20
154.089
 21
160.751
  0
LINE
  8
0
 10
-199.995
 11
-191.821
 20
160.751
 21
160.751
  0
LINE
  8
0
 10
-191.821
 11
-191.821
 20
160.751
 21
176.317
  0
LINE
  8
0
 10
-191.821
 11
-200
 20
176.317
 21
176.317
  0
LINE
  8
0
 10
175.463
 11
175.463
 20
-207.428
 21
-191.862
  0
LINE
  8
0
 10
175.463
 11
183.643
 20
-191.862
 21
-191.862
  0
LINE
  8
0
 10
183.643
 11
183.643
 20
-191.862
 21
-207.428
  0
LINE
  8
0
 10
183.643
 11
175.463
 20
-207.428
 21
-207.428
  0
LINE
  8
0
 10
175.463
 11
175.463
 20
-176.317
 21
-160.751
  0
LINE
  8
0
 10
175.463
 11
183.643
 20
-160.751
 21
-160.751
  0
LINE
  8
0
 10
183.643
 11
183.643
 20
-160.751
 21
-176.317
  0
LINE
  8
0
 10
183.643
 11
175.463
 20
-176.317
 21
-176.317
  0
LINE
  8
0
 10
175.463
 11
175.463
 20
-116.672
 21
-83.328
  0
LINE
  8
0
 10
175.463
 11
183.643
 20
-83.328
 21
-83.328
  0
LINE
  8
0
 10
183.643
 11
183.643
 20
-83.328
 21
-116.672
  0
LINE
  8
0
 10
183.643
 11
175.463
 20
-116.672
 21
-116.672
  0
LINE
  8
0
 10
175.463
 11
175.463
 20
-50.005
 21
-16.662
  0
LINE
  8
0
 10
175.463
 11
183.643
 20
-16.662
 21
-16.662
  0
LINE
  8
0
 10
183.643
 11
183.643
 20
-16.662
 21
-50.005
  0
LINE
  8
0
 10
183.643
 11
175.463
 20
-50.005
 21
-50.005
  0
LINE
  8
0
 10
175.463
 11
175.463
 20
16.662
 21
50.005
  0
LINE
  8
0
 10
175.463
 11
183.643
 20
50.005
 21
50.005
  0
LINE
  8
0
 10
183.643
 11
183.643
 20
50.005
 21
16.662
  0
LINE
  8
0
 10
183.643
 11
175.463
 20
16.662
 21
16.662
  0
LINE
  8
0
 10
175.463
 11
175.463
 20
83.328
 21
116.672
  0
LINE
  8
0
 10
175.463
 11
183.643
 20
116.672
 21
116.672
  0
LINE
  8
0
 10
183.643
 11
183.643
 20
116.672
 21
83.328
  0
LINE
  8
0
 10
183.643
 11
175.463
 20
83.328
 21
83.328
  0
LINE
  8
0
 10
175.463
 11
175.463
 20
160.751
 21
176.317
  0
LINE
  8
0
 10
175.463
 11
183.643
 20
176.317
 21
176.317
  0
LINE
  8
0
 10
183.643
 11
183.643
 20
176.317
 21
160.751
  0
LINE
  8
0
 10
183.643
 11
175.463
 20
160.751
 21
160.751
  0
LINE
  8
0
 10
175.463
 11
175.463
 20
191.862
 21
207.428
  0
LINE
  8
0
 10
175.463
 11
183.643
 20
207.428
 21
207.428
  0
LINE
  8
0
 10
183.643
 11
183.643
 20
207.428
 21
191.862
  0
LINE
  8
0
 10
183.643
 11
175.463
 20
191.862
 21
191.862
  0
LINE
  8
0
 10
204.089
 11
204.089
 20
-141.821
 21
141.821
  0
LINE
  8
0
 10
204.089
 11
210.761
 20
141.821
 21
141.821
  0
LINE
  8
0
 10
210.761
 11
210.761
 20
141.821
 21
150
  0
LINE
  8
0
 10
210.761
 11
226.307
 20
150
 21
150
  0
LINE
  8
0
 10
226.307
 11
226.307
 20
150
 21
141.821
  0
LINE
  8
0
 10
226.307
 11
241.872
 20
141.821
 21
141.821
  0
LINE
  8
0
 10
241.872
 11
241.872
 20
141.821
 21
150
  0
LINE
  8
0
 10
241.872
 11
257.418
 20
150
 21
150
  0
LINE
  8
0
 10
257.418
 11
257.418
 20
150
 21
141.821
  0
LINE
  8
0
 10
257.418
 11
264.089
 20
141.821
 21
141.821
  0
LINE
  8
0
 10
264.089
 11
264.089
 20
141.821
 21
107.148
  0
LINE
  8
0
 10
264.089
 11
255.91
 20
107.148
 21
107.148
  0
LINE
  8
0
 10
255.91
 11
255.91
 20
107.148
 21
64.281
  0
LINE
  8
0
 10
255.91
 11
264.089
 20
64.281
 21
64.281
  0
LINE
  8
0
 10
264.089
 11
264.089
 20
64.281
 21
21.434
  0
LINE
  8
0
 10
264.089
 11
255.91
 20
21.434
 21
21.434
  0
LINE
  8
0
 10
255.91
 11
255.91
 20
21.434
 21
-21.434
  0
LINE
  8
0
 10
255.91
 11
264.089
 20
-21.434
 21
-21.434
  0
LINE
  8
0
 10
264.089
 11
264.089
 20
-21.434
 21
-64.281
  0
LINE
  8
0
 10
264.089
 11
255.91
 20
-64.281
 21
-64.281
  0
LINE
  8
0
 10
255.91
 11
255.91
 20
-64.281
 21
-107.148
  0
LINE
  8
0
 10
255.91
 11
264.089
 20
-107.148
 21
-107.148
  0
LINE
  8
0
 10
264.089
 11
264.089
 20
-107.148
 21
-141.821
  0
LINE
  8
0
 10
264.089
 11
257.418
 20
-141.821
 21
-141.821
  0
LINE
  8
0
 10
257.418
 11
257.418
 20
-141.821
 21
-149.995
  0
LINE
  8
0
 10
257.418
 11
255.91
 20
-149.995
 21
-149.995
  0
LINE
  8
0
 10
255.91
 11
255.91
 20
-149.995
 21
-150
  0
LINE
  8
0
 10
255.91
 11
241.872
 20
-150
 21
-150
  0
LINE
  8
0
 10
241.872
 11
241.872
 20
-150
 21
-141.821
  0
LINE
  8
0
 10
241.872
 11
226.307
 20
-141.821
 21
-141.821
  0
LINE
  8
0
 10
226.307
 11
226.307
 20
-141.821
 21
-150
  0
LINE
  8
0
 10
226.307
 11
210.761
 20
-150
 21
-150
  0
LINE
  8
0
 10
210.761
 11
210.761
 20
-150
 21
-141.821
  0
LINE
  8
0
 10
210.761
 11
204.089
 20
-141.821
 21
-141.821
  0
LINE
  8
0
 10
268.179
 11
268.179
 20
-116.662
 21
-83.338
  0
LINE
  8
0
 10
268.179
 11
276.358
 20
-83.338
 21
-83.338
  0
LINE
  8
0
 10
276.358
 11
276.358
 20
-83.338
 21
-49.995
  0
LINE
  8
0
 10
276.358
 11
268.179
 20
-49.995
 21
-49.995
  0
LINE
  8
0
 10
268.179
 11
268.179
 20
-49.995
 21
-16.672
  0
LINE
  8
0
 10
268.179
 11
276.358
 20
-16.672
 21
-16.672
  0
LINE
  8
0
 10
276.358
 11
276.358
 20
-16.672
 21
16.672
  0
LINE
  8
0
 10
276.358
 11
268.179
 20
16.672
 21
16.672
  0
LINE
  8
0
 10
268.179
 11
268.179
 20
16.672
 21
49.995
  0
LINE
  8
0
 10
268.179
 11
276.358
 20
49.995
 21
49.995
  0
LINE
  8
0
 10
276.358
 11
276.358
 20
49.995
 21
83.338
  0
LINE
  8
0
 10
276.358
 11
268.179
 20
83.338
 21
83.338
  0
LINE
  8
0
 10
268.179
 11
268.179
 20
83.338
 21
116.662
  0
LINE
  8
0
 10
268.179
 11
276.358
 20
116.662
 21
116.662
  0
LINE
  8
0
 10
276.358
 11
276.358
 20
116.662
 21
150
  0
LINE
  8
0
 10
276.358
 11
290.396
 20
150
 21
150
  0
LINE
  8
0
 10
290.396
 11
290.396
 20
150
 21
141.821
  0
LINE
  8
0
 10
290.396
 11
305.962
 20
141.821
 21
141.821
  0
LINE
  8
0
 10
305.962
 11
305.962
 20
141.821
 21
150
  0
LINE
  8
0
 10
305.962
 11
321.507
 20
150
 21
150
  0
LINE
  8
0
 10
321.507
 11
321.507
 20
150
 21
141.821
  0
LINE
  8
0
 10
321.507
 11
328.179
 20
141.821
 21
141.821
  0
LINE
  8
0
 10
328.179
 11
328.179
 20
141.821
 21
-141.821
  0
LINE
  8
0
 10
328.179
 11
321.507
 20
-141.821
 21
-141.821
  0
LINE
  8
0
 10
321.507
 11
321.507
 20
-141.821
 21
-150
  0
LINE
  8
0
 10
321.507
 11
305.962
 20
-150
 21
-150
  0
LINE
  8
0
 10
305.962
 11
305.962
 20
-150
 21
-141.821
  0
LINE
  8
0
 10
305.962
 11
290.396
 20
-141.821
 21
-141.821
  0
LINE
  8
0
 10
290.396
 11
290.396
 20
-141.821
 21
-150
  0
LINE
  8
0
 10
290.396
 11
276.358
 20
-150
 21
-150
  0
LINE
  8
0
 10
276.358
 11
276.358
 20
-150
 21
-116.662
  0
LINE
  8
0
 10
276.358
 11
268.179
 20
-116.662
 21
-116.662
  0
LINE
  8
0
 10
292.951
 11
293.479
 20
-129.516
 21
-127.66
  0
LINE
  8
0
 10
293.479
 11
294.642
 20
-127.66
 21
-126.12
  0
LINE
  8
0
 10
294.642
 11
296.282
 20
-126.12
 21
-125.105
  0
LINE
  8
0
 10
296.282
 11
298.179
 20
-125.105
 21
-124.75
  0
LINE
  8
0
 10
298.179
 11
300.075
 20
-124.75
 21
-125.105
  0
LINE
  8
0
 10
300.075
 11
301.716
 20
-125.105
 21
-126.12
  0
LINE
  8
0
 10
301.716
 11
302.878
 20
-126.12
 21
-127.66
  0
LINE
  8
0
 10
302.878
 11
303.406
 20
-127.66
 21
-129.516
  0
LINE
  8
0
 10
303.406
 11
303.228
 20
-129.516
 21
-131.437
  0
LINE
  8
0
 10
303.228
 11
302.368
 20
-131.437
 21
-133.164
  0
LINE
  8
0
 10
302.368
 11
300.943
 20
-133.164
 21
-134.464
  0
LINE
  8
0
 10
300.943
 11
299.143
 20
-134.464
 21
-135.161
  0
LINE
  8
0
 10
299.143
 11
297.214
 20
-135.161
 21
-135.161
  0
LINE
  8
0
 10
297.214
 11
295.415
 20
-135.161
 21
-134.464
  0
LINE
  8
0
 10
295.415
 11
293.989
 20
-134.464
 21
-133.164
  0
LINE
  8
0
 10
293.989
 11
293.129
 20
-133.164
 21
-131.437
  0
LINE
  8
0
 10
293.129
 11
292.951
 20
-131.437
 21
-129.516
  0
LINE
  8
0
 10
292.951
 11
293.479
 20
50.484
 21
52.34
  0
LINE
  8
0
 10
293.479
 11
294.642
 20
52.34
 21
53.88
  0
LINE
  8
0
 10
294.642
 11
296.282
 20
53.88
 21
54.895
  0
LINE
  8
0
 10
296.282
 11
298.179
 20
54.895
 21
55.25
  0
LINE
  8
0
 10
298.179
 11
300.075
 20
55.25
 21
54.895
  0
LINE
  8
0
 10
300.075
 11
301.716
 20
54.895
 21
53.88
  0
LINE
  8
0
 10
301.716
 11
302.878
 20
53.88
 21
52.34
  0
LINE
  8
0
 10
302.878
 11
303.406
 20
52.34
 21
50.484
  0
LINE
  8
0
 10
303.406
 11
303.228
 20
50.484
 21
48.563
  0
LINE
  8
0
 10
303.228
 11
302.368
 20
48.563
 21
46.836
  0
LINE
  8
0
 10
302.368
 11
300.943
 20
46.836
 21
45.536
  0
LINE
  8
0
 10
300.943
 11
299.143
 20
45.536
 21
44.839
  0
LINE
  8
0
 10
299.143
 11
297.214
 20
44.839
 21
44.839
  0
LINE
  8
0
 10
297.214
 11
295.415
 20
44.839
 21
45.536
  0
LINE
  8
0
 10
295.415
 11
293.989
 20
45.536
 21
46.836
  0
LINE
  8
0
 10
293.989
 11
293.129
 20
46.836
 21
48.563
  0
LINE
  8
0
 10
293.129
 11
292.951
 20
48.563
 21
50.484
  0
ENDSEC
  0
SECTION
  2
OBJECTS
  0
DICTIONARY
  0
ENDSEC
  0
EOF
