999
DXF created by Inkscape
  0
SECTION
  2
HEADER
  9
$ACADVER
  1
AC1014
  9
$HANDSEED
  5
FFFF
  9
$MEASUREMENT
 70
     1
  0
ENDSEC
  0
SECTION
  2
TABLES
  0
TABLE
  2
VPORT
  5
8
330
0
100
AcDbSymbolTable
 70
     4
  0
VPORT
  5
2E
330
8
100
AcDbSymbolTableRecord
100
AcDbViewportTableRecord
  2
*ACTIVE
 70
     0
 10
0.0
 20
0.0
 11
1.0
 21
1.0
 12
210.0
 22
148.5
 13
0.0
 23
0.0
 14
10.0
 24
10.0
 15
10.0
 25
10.0
 16
0.0
 26
0.0
 36
1.0
 17
0.0
 27
0.0
 37
0.0
 40
341.0
 41
1.24
 42
50.0
 43
0.0
 44
0.0
 50
0.0
 51
0.0
 71
     0
 72
   100
 73
     1
 74
     3
 75
     0
 76
     0
 77
     0
 78
     0
  0
ENDTAB
  0
TABLE
  2
LTYPE
  5
5
330
0
100
AcDbSymbolTable
 70
     1
  0
LTYPE
  5
14
330
5
100
AcDbSymbolTableRecord
100
AcDbLinetypeTableRecord
  2
BYBLOCK
 70
     0
  3

 72
    65
 73
     0
 40
0.0
  0
LTYPE
  5
15
330
5
100
AcDbSymbolTableRecord
100
AcDbLinetypeTableRecord
  2
BYLAYER
 70
     0
  3

 72
    65
 73
     0
 40
0.0
  0
LTYPE
  5
16
330
5
100
AcDbSymbolTableRecord
100
AcDbLinetypeTableRecord
  2
CONTINUOUS
 70
     0
  3
Solid line
 72
    65
 73
     0
 40
0.0
  0
ENDTAB
  0
TABLE
  2
LAYER
  5
2
100
AcDbSymbolTable
 70
1
  0
LAYER
  5
50
100
AcDbSymbolTableRecord
100
AcDbLayerTableRecord
  2
0
 70
0
  6
CONTINUOUS
  0
ENDTAB
  0
TABLE
  2
STYLE
  5
3
330
0
100
AcDbSymbolTable
 70
     1
  0
STYLE
  5
11
330
3
100
AcDbSymbolTableRecord
100
AcDbTextStyleTableRecord
  2
STANDARD
 70
     0
 40
0.0
 41
1.0
 50
0.0
 71
     0
 42
2.5
  3
txt
  4

  0
ENDTAB
  0
TABLE
  2
VIEW
  5
6
330
0
100
AcDbSymbolTable
 70
     0
  0
ENDTAB
  0
TABLE
  2
UCS
  5
7
330
0
100
AcDbSymbolTable
 70
     0
  0
ENDTAB
  0
TABLE
  2
APPID
  5
9
330
0
100
AcDbSymbolTable
 70
     2
  0
APPID
  5
12
330
9
100
AcDbSymbolTableRecord
100
AcDbRegAppTableRecord
  2
ACAD
 70
     0
  0
ENDTAB
  0
TABLE
  2
DIMSTYLE
  5
A
330
0
100
AcDbSymbolTable
 70
     1
  0
DIMSTYLE
105
27
330
A
100
AcDbSymbolTableRecord
100
AcDbDimStyleTableRecord
  2
ISO-25
 70
     0
  3

  4

  5

  6

  7

 40
1.0
 41
2.5
 42
0.625
 43
3.75
 44
1.25
 45
0.0
 46
0.0
 47
0.0
 48
0.0
140
2.5
141
2.5
142
0.0
143
0.03937007874016
144
1.0
145
0.0
146
1.0
147
0.625
 71
     0
 72
     0
 73
     0
 74
     0
 75
     0
 76
     0
 77
     1
 78
     8
170
     0
171
     3
172
     1
173
     0
174
     0
175
     0
176
     0
177
     0
178
     0
270
     2
271
     2
272
     2
273
     2
274
     3
340
11
275
     0
280
     0
281
     0
282
     0
283
     0
284
     8
285
     0
286
     0
287
     3
288
     0
  0
ENDTAB
  0
TABLE
  2
BLOCK_RECORD
  5
1
330
0
100
AcDbSymbolTable
 70
     1
  0
BLOCK_RECORD
  5
1F
330
1
100
AcDbSymbolTableRecord
100
AcDbBlockTableRecord
  2
*MODEL_SPACE
  0
BLOCK_RECORD
  5
1B
330
1
100
AcDbSymbolTableRecord
100
AcDbBlockTableRecord
  2
*PAPER_SPACE
  0
ENDTAB
  0
ENDSEC
  0
SECTION
  2
BLOCKS
  0
BLOCK
  5
20
330
1F
100
AcDbEntity
  8
0
100
AcDbBlockBegin
  2
*MODEL_SPACE
 70
     0
 10
0.0
 20
0.0
 30
0.0
  3
*MODEL_SPACE
  1

  0
ENDBLK
  5
21
330
1F
100
AcDbEntity
  8
0
100
AcDbBlockEnd
  0
BLOCK
  5
1C
330
1B
100
AcDbEntity
 67
     1
  8
0
100
AcDbBlockBegin
  2
*PAPER_SPACE
  1

  0
ENDBLK
  5
1D
330
1B
100
AcDbEntity
 67
     1
  8
0
100
AcDbBlockEnd
  0
ENDSEC
  0
SECTION
  2
ENTITIES
  0
LWPOLYLINE
  5
100
100
AcDbEntity
  8
0
 62
7
100
AcDbPolyline
 90
33
 70
0
 10
-328.179007
 20
-141.821704
 30
0.0
 10
-328.179007
 20
141.820307
 30
0.0
 10
-321.506991
 20
141.820307
 30
0.0
 10
-321.506991
 20
149.999308
 30
0.0
 10
-305.961994
 20
149.999308
 30
0.0
 10
-305.961994
 20
141.820307
 30
0.0
 10
-290.395999
 20
141.820307
 30
0.0
 10
-290.395999
 20
149.999308
 30
0.0
 10
-276.358000
 20
149.999308
 30
0.0
 10
-276.358000
 20
116.661308
 30
0.0
 10
-268.179000
 20
116.661308
 30
0.0
 10
-268.179000
 20
83.337307
 30
0.0
 10
-276.358000
 20
83.337307
 30
0.0
 10
-276.358000
 20
49.994306
 30
0.0
 10
-268.179000
 20
49.994306
 30
0.0
 10
-268.179000
 20
16.671307
 30
0.0
 10
-276.358000
 20
16.671307
 30
0.0
 10
-276.358000
 20
-16.672687
 30
0.0
 10
-268.179000
 20
-16.672687
 30
0.0
 10
-268.179000
 20
-49.995681
 30
0.0
 10
-276.358000
 20
-49.995681
 30
0.0
 10
-276.358000
 20
-83.338684
 30
0.0
 10
-268.179000
 20
-83.338684
 30
0.0
 10
-268.179000
 20
-116.662694
 30
0.0
 10
-276.358000
 20
-116.662694
 30
0.0
 10
-276.358000
 20
-150.000702
 30
0.0
 10
-290.395999
 20
-150.000702
 30
0.0
 10
-290.395999
 20
-141.821704
 30
0.0
 10
-305.961994
 20
-141.821704
 30
0.0
 10
-305.961994
 20
-150.000702
 30
0.0
 10
-321.506991
 20
-150.000702
 30
0.0
 10
-321.506991
 20
-141.821704
 30
0.0
 10
-328.179007
 20
-141.821704
 30
0.0
  0
LWPOLYLINE
  5
101
100
AcDbEntity
  8
0
 62
7
100
AcDbPolyline
 90
18
 70
0
 10
-303.405992
 20
-129.516703
 30
0.0
 10
-302.878010
 20
-127.660696
 30
0.0
 10
-301.715988
 20
-126.120694
 30
0.0
 10
-300.075007
 20
-125.105682
 30
0.0
 10
-298.179010
 20
-124.750703
 30
0.0
 10
-296.281997
 20
-125.105682
 30
0.0
 10
-294.642004
 20
-126.120694
 30
0.0
 10
-293.478994
 20
-127.660696
 30
0.0
 10
-292.951013
 20
-129.516703
 30
0.0
 10
-293.129010
 20
-131.437705
 30
0.0
 10
-293.988998
 20
-133.164707
 30
0.0
 10
-295.415010
 20
-134.464679
 30
0.0
 10
-297.214008
 20
-135.161683
 30
0.0
 10
-299.142997
 20
-135.161683
 30
0.0
 10
-300.943010
 20
-134.464679
 30
0.0
 10
-302.368006
 20
-133.164707
 30
0.0
 10
-303.227994
 20
-131.437705
 30
0.0
 10
-303.405992
 20
-129.516703
 30
0.0
  0
LWPOLYLINE
  5
102
100
AcDbEntity
  8
0
 62
7
100
AcDbPolyline
 90
18
 70
0
 10
-303.405992
 20
50.483307
 30
0.0
 10
-302.878010
 20
52.339308
 30
0.0
 10
-301.715988
 20
53.879307
 30
0.0
 10
-300.075007
 20
54.894308
 30
0.0
 10
-298.179010
 20
55.249307
 30
0.0
 10
-296.281997
 20
54.894308
 30
0.0
 10
-294.642004
 20
53.879307
 30
0.0
 10
-293.478994
 20
52.339308
 30
0.0
 10
-292.951013
 20
50.483307
 30
0.0
 10
-293.129010
 20
48.562308
 30
0.0
 10
-293.988998
 20
46.835308
 30
0.0
 10
-295.415010
 20
45.535308
 30
0.0
 10
-297.214008
 20
44.838307
 30
0.0
 10
-299.142997
 20
44.838307
 30
0.0
 10
-300.943010
 20
45.535308
 30
0.0
 10
-302.368006
 20
46.835308
 30
0.0
 10
-303.227994
 20
48.562308
 30
0.0
 10
-303.405992
 20
50.483307
 30
0.0
  0
LWPOLYLINE
  5
103
100
AcDbEntity
  8
0
 62
7
100
AcDbPolyline
 90
35
 70
0
 10
2.963333
 20
75.231329
 30
0.0
 10
2.963333
 20
109.904332
 30
0.0
 10
11.142331
 20
109.904332
 30
0.0
 10
11.142331
 20
152.771348
 30
0.0
 10
2.963333
 20
152.771348
 30
0.0
 10
2.963333
 20
195.618354
 30
0.0
 10
11.142331
 20
195.618354
 30
0.0
 10
11.142331
 20
238.486340
 30
0.0
 10
2.963333
 20
238.486340
 30
0.0
 10
2.963333
 20
281.333341
 30
0.0
 10
11.142331
 20
281.333341
 30
0.0
 10
11.142331
 20
324.200339
 30
0.0
 10
2.963333
 20
324.200339
 30
0.0
 10
2.963333
 20
358.873340
 30
0.0
 10
9.634333
 20
358.873340
 30
0.0
 10
9.634333
 20
367.047340
 30
0.0
 10
11.142331
 20
367.047340
 30
0.0
 10
11.142331
 20
367.052335
 30
0.0
 10
25.180332
 20
367.052341
 30
0.0
 10
25.180332
 20
358.873340
 30
0.0
 10
40.745331
 20
358.873340
 30
0.0
 10
40.745331
 20
367.052341
 30
0.0
 10
56.291333
 20
367.052341
 30
0.0
 10
56.291333
 20
358.873340
 30
0.0
 10
62.963332
 20
358.873340
 30
0.0
 10
62.963332
 20
75.231329
 30
0.0
 10
56.291333
 20
75.231329
 30
0.0
 10
56.291333
 20
67.052331
 30
0.0
 10
40.745331
 20
67.052331
 30
0.0
 10
40.745331
 20
75.231329
 30
0.0
 10
25.180332
 20
75.231329
 30
0.0
 10
25.180332
 20
67.052331
 30
0.0
 10
9.634333
 20
67.052331
 30
0.0
 10
9.634333
 20
75.231329
 30
0.0
 10
2.963333
 20
75.231329
 30
0.0
  0
LWPOLYLINE
  5
104
100
AcDbEntity
  8
0
 62
7
100
AcDbPolyline
 90
41
 70
0
 10
67.052331
 20
25.190337
 30
0.0
 10
67.052331
 20
40.735335
 30
0.0
 10
75.231331
 20
40.735335
 30
0.0
 10
75.231331
 20
56.301330
 30
0.0
 10
67.052331
 20
56.301330
 30
0.0
 10
67.052331
 20
62.963326
 30
0.0
 10
467.052333
 20
62.963326
 30
0.0
 10
467.052333
 20
56.301330
 30
0.0
 10
458.873332
 20
56.301330
 30
0.0
 10
458.873332
 20
40.735335
 30
0.0
 10
467.052333
 20
40.735335
 30
0.0
 10
467.052333
 20
25.190337
 30
0.0
 10
458.873332
 20
25.190337
 30
0.0
 10
458.873332
 20
9.624342
 30
0.0
 10
467.052333
 20
9.624342
 30
0.0
 10
467.052333
 20
2.963333
 30
0.0
 10
430.693333
 20
2.963333
 30
0.0
 10
430.693333
 20
11.142331
 30
0.0
 10
394.320333
 20
11.142331
 30
0.0
 10
394.320333
 20
2.963333
 30
0.0
 10
357.966332
 20
2.963333
 30
0.0
 10
357.966332
 20
11.142331
 30
0.0
 10
321.592332
 20
11.142331
 30
0.0
 10
321.592332
 20
2.963333
 30
0.0
 10
285.239332
 20
2.963333
 30
0.0
 10
285.239332
 20
11.142331
 30
0.0
 10
248.865332
 20
11.142331
 30
0.0
 10
248.865332
 20
2.963333
 30
0.0
 10
212.512331
 20
2.963333
 30
0.0
 10
212.512331
 20
11.142331
 30
0.0
 10
176.138332
 20
11.142331
 30
0.0
 10
176.138332
 20
2.963333
 30
0.0
 10
139.784331
 20
2.963333
 30
0.0
 10
139.784331
 20
11.142331
 30
0.0
 10
103.411330
 20
11.142331
 30
0.0
 10
103.411330
 20
2.963333
 30
0.0
 10
67.057332
 20
2.963333
 30
0.0
 10
67.057332
 20
9.624342
 30
0.0
 10
75.231331
 20
9.624342
 30
0.0
 10
75.231331
 20
25.190337
 30
0.0
 10
67.052331
 20
25.190337
 30
0.0
  0
LWPOLYLINE
  5
105
100
AcDbEntity
  8
0
 62
7
100
AcDbPolyline
 90
69
 70
0
 10
67.052331
 20
109.914351
 30
0.0
 10
67.052331
 20
152.761329
 30
0.0
 10
75.231331
 20
152.761329
 30
0.0
 10
75.231331
 20
195.628345
 30
0.0
 10
67.052331
 20
195.628345
 30
0.0
 10
67.052331
 20
238.476341
 30
0.0
 10
75.231331
 20
238.476341
 30
0.0
 10
75.231331
 20
281.343340
 30
0.0
 10
67.052331
 20
281.343340
 30
0.0
 10
67.052331
 20
324.190340
 30
0.0
 10
75.231331
 20
324.190340
 30
0.0
 10
75.231331
 20
358.873340
 30
0.0
 10
103.421332
 20
358.873340
 30
0.0
 10
103.421332
 20
367.052341
 30
0.0
 10
139.774332
 20
367.052341
 30
0.0
 10
139.774332
 20
358.873340
 30
0.0
 10
176.148331
 20
358.873340
 30
0.0
 10
176.148331
 20
367.052341
 30
0.0
 10
212.502332
 20
367.052341
 30
0.0
 10
212.502332
 20
358.873340
 30
0.0
 10
248.875332
 20
358.873340
 30
0.0
 10
248.875332
 20
367.052341
 30
0.0
 10
285.229332
 20
367.052341
 30
0.0
 10
285.229332
 20
358.873340
 30
0.0
 10
321.602331
 20
358.873340
 30
0.0
 10
321.602331
 20
367.052341
 30
0.0
 10
357.956333
 20
367.052341
 30
0.0
 10
357.956333
 20
358.873340
 30
0.0
 10
394.330332
 20
358.873340
 30
0.0
 10
394.330332
 20
367.052341
 30
0.0
 10
430.683331
 20
367.052341
 30
0.0
 10
430.683331
 20
358.873340
 30
0.0
 10
458.873332
 20
358.873340
 30
0.0
 10
458.873332
 20
324.190340
 30
0.0
 10
467.052333
 20
324.190340
 30
0.0
 10
467.052333
 20
281.343340
 30
0.0
 10
458.873332
 20
281.343340
 30
0.0
 10
458.873332
 20
238.476341
 30
0.0
 10
467.052333
 20
238.476341
 30
0.0
 10
467.052333
 20
195.628345
 30
0.0
 10
458.873332
 20
195.628345
 30
0.0
 10
458.873332
 20
152.761329
 30
0.0
 10
467.052333
 20
152.761329
 30
0.0
 10
467.052333
 20
109.914351
 30
0.0
 10
458.873332
 20
109.914351
 30
0.0
 10
458.873332
 20
75.231329
 30
0.0
 10
430.683331
 20
75.231329
 30
0.0
 10
430.683331
 20
67.052331
 30
0.0
 10
394.330332
 20
67.052331
 30
0.0
 10
394.330332
 20
75.231329
 30
0.0
 10
357.956333
 20
75.231329
 30
0.0
 10
357.956333
 20
67.052331
 30
0.0
 10
321.602331
 20
67.052331
 30
0.0
 10
321.602331
 20
75.231329
 30
0.0
 10
285.229332
 20
75.231329
 30
0.0
 10
285.229332
 20
67.052331
 30
0.0
 10
248.875332
 20
67.052331
 30
0.0
 10
248.875332
 20
75.231329
 30
0.0
 10
212.502332
 20
75.231329
 30
0.0
 10
212.502332
 20
67.052331
 30
0.0
 10
176.148331
 20
67.052331
 30
0.0
 10
176.148331
 20
75.231329
 30
0.0
 10
139.774332
 20
75.231329
 30
0.0
 10
139.774332
 20
67.052331
 30
0.0
 10
103.421332
 20
67.052331
 30
0.0
 10
103.421332
 20
75.231329
 30
0.0
 10
75.231331
 20
75.231329
 30
0.0
 10
75.231331
 20
109.914351
 30
0.0
 10
67.052331
 20
109.914351
 30
0.0
  0
LWPOLYLINE
  5
106
100
AcDbEntity
  8
0
 62
7
100
AcDbPolyline
 90
5
 70
0
 10
83.409333
 20
9.624342
 30
0.0
 10
83.409333
 20
25.190337
 30
0.0
 10
91.589332
 20
25.190337
 30
0.0
 10
91.589332
 20
9.624342
 30
0.0
 10
83.409333
 20
9.624342
 30
0.0
  0
LWPOLYLINE
  5
107
100
AcDbEntity
  8
0
 62
7
100
AcDbPolyline
 90
5
 70
0
 10
83.409333
 20
40.735335
 30
0.0
 10
83.409333
 20
56.301330
 30
0.0
 10
91.589332
 20
56.301330
 30
0.0
 10
91.589332
 20
40.735335
 30
0.0
 10
83.409333
 20
40.735335
 30
0.0
  0
LWPOLYLINE
  5
108
100
AcDbEntity
  8
0
 62
7
100
AcDbPolyline
 90
5
 70
0
 10
83.409333
 20
100.380348
 30
0.0
 10
83.409333
 20
133.724340
 30
0.0
 10
91.589332
 20
133.724340
 30
0.0
 10
91.589332
 20
100.380348
 30
0.0
 10
83.409333
 20
100.380348
 30
0.0
  0
LWPOLYLINE
  5
109
100
AcDbEntity
  8
0
 62
7
100
AcDbPolyline
 90
5
 70
0
 10
83.409333
 20
167.047333
 30
0.0
 10
83.409333
 20
200.390337
 30
0.0
 10
91.589332
 20
200.390337
 30
0.0
 10
91.589332
 20
167.047333
 30
0.0
 10
83.409333
 20
167.047333
 30
0.0
  0
LWPOLYLINE
  5
10a
100
AcDbEntity
  8
0
 62
7
100
AcDbPolyline
 90
5
 70
0
 10
83.409333
 20
233.714341
 30
0.0
 10
83.409333
 20
267.057341
 30
0.0
 10
91.589332
 20
267.057341
 30
0.0
 10
91.589332
 20
233.714341
 30
0.0
 10
83.409333
 20
233.714341
 30
0.0
  0
LWPOLYLINE
  5
10b
100
AcDbEntity
  8
0
 62
7
100
AcDbPolyline
 90
5
 70
0
 10
83.409333
 20
300.380341
 30
0.0
 10
83.409333
 20
333.724340
 30
0.0
 10
91.589332
 20
333.724340
 30
0.0
 10
91.589332
 20
300.380341
 30
0.0
 10
83.409333
 20
300.380341
 30
0.0
  0
LWPOLYLINE
  5
10c
100
AcDbEntity
  8
0
 62
7
100
AcDbPolyline
 90
5
 70
0
 10
83.409333
 20
377.803339
 30
0.0
 10
83.409333
 20
393.369340
 30
0.0
 10
91.589332
 20
393.369340
 30
0.0
 10
91.589332
 20
377.803339
 30
0.0
 10
83.409333
 20
377.803339
 30
0.0
  0
LWPOLYLINE
  5
10d
100
AcDbEntity
  8
0
 62
7
100
AcDbPolyline
 90
5
 70
0
 10
83.409333
 20
408.914340
 30
0.0
 10
83.409333
 20
424.480341
 30
0.0
 10
91.589332
 20
424.480341
 30
0.0
 10
91.589332
 20
408.914340
 30
0.0
 10
83.409333
 20
408.914340
 30
0.0
  0
LWPOLYLINE
  5
10e
100
AcDbEntity
  8
0
 62
7
100
AcDbPolyline
 90
41
 70
0
 10
67.052331
 20
393.369340
 30
0.0
 10
67.052331
 20
408.914340
 30
0.0
 10
75.231331
 20
408.914340
 30
0.0
 10
75.231331
 20
424.480341
 30
0.0
 10
67.052331
 20
424.480341
 30
0.0
 10
67.052331
 20
431.141341
 30
0.0
 10
467.052333
 20
431.141341
 30
0.0
 10
467.052333
 20
424.480341
 30
0.0
 10
458.873332
 20
424.480341
 30
0.0
 10
458.873332
 20
408.914340
 30
0.0
 10
467.052333
 20
408.914340
 30
0.0
 10
467.052333
 20
393.369340
 30
0.0
 10
458.873332
 20
393.369340
 30
0.0
 10
458.873332
 20
377.803339
 30
0.0
 10
467.052333
 20
377.803339
 30
0.0
 10
467.052333
 20
371.141340
 30
0.0
 10
430.693333
 20
371.141340
 30
0.0
 10
430.693333
 20
379.321339
 30
0.0
 10
394.320333
 20
379.321339
 30
0.0
 10
394.320333
 20
371.141340
 30
0.0
 10
357.966332
 20
371.141340
 30
0.0
 10
357.966332
 20
379.321339
 30
0.0
 10
321.592332
 20
379.321339
 30
0.0
 10
321.592332
 20
371.141340
 30
0.0
 10
285.239332
 20
371.141340
 30
0.0
 10
285.239332
 20
379.321339
 30
0.0
 10
248.865332
 20
379.321339
 30
0.0
 10
248.865332
 20
371.141340
 30
0.0
 10
212.512331
 20
371.141340
 30
0.0
 10
212.512331
 20
379.321339
 30
0.0
 10
176.138332
 20
379.321339
 30
0.0
 10
176.138332
 20
371.141340
 30
0.0
 10
139.784331
 20
371.141340
 30
0.0
 10
139.784331
 20
379.321339
 30
0.0
 10
103.411330
 20
379.321339
 30
0.0
 10
103.411330
 20
371.141340
 30
0.0
 10
67.057332
 20
371.141340
 30
0.0
 10
67.057332
 20
377.803339
 30
0.0
 10
75.231331
 20
377.803339
 30
0.0
 10
75.231331
 20
393.369340
 30
0.0
 10
67.052331
 20
393.369340
 30
0.0
  0
LWPOLYLINE
  5
10f
100
AcDbEntity
  8
0
 62
7
100
AcDbPolyline
 90
5
 70
0
 10
442.515331
 20
9.624342
 30
0.0
 10
442.515331
 20
25.190337
 30
0.0
 10
450.695331
 20
25.190337
 30
0.0
 10
450.695331
 20
9.624342
 30
0.0
 10
442.515331
 20
9.624342
 30
0.0
  0
LWPOLYLINE
  5
110
100
AcDbEntity
  8
0
 62
7
100
AcDbPolyline
 90
5
 70
0
 10
442.515331
 20
40.735335
 30
0.0
 10
442.515331
 20
56.301330
 30
0.0
 10
450.695331
 20
56.301330
 30
0.0
 10
450.695331
 20
40.735335
 30
0.0
 10
442.515331
 20
40.735335
 30
0.0
  0
LWPOLYLINE
  5
111
100
AcDbEntity
  8
0
 62
7
100
AcDbPolyline
 90
5
 70
0
 10
442.515331
 20
100.380348
 30
0.0
 10
442.515331
 20
133.724340
 30
0.0
 10
450.695331
 20
133.724340
 30
0.0
 10
450.695331
 20
100.380348
 30
0.0
 10
442.515331
 20
100.380348
 30
0.0
  0
LWPOLYLINE
  5
112
100
AcDbEntity
  8
0
 62
7
100
AcDbPolyline
 90
5
 70
0
 10
442.515331
 20
167.047333
 30
0.0
 10
442.515331
 20
200.390337
 30
0.0
 10
450.695331
 20
200.390337
 30
0.0
 10
450.695331
 20
167.047333
 30
0.0
 10
442.515331
 20
167.047333
 30
0.0
  0
LWPOLYLINE
  5
113
100
AcDbEntity
  8
0
 62
7
100
AcDbPolyline
 90
5
 70
0
 10
442.515331
 20
233.714341
 30
0.0
 10
442.515331
 20
267.057341
 30
0.0
 10
450.695331
 20
267.057341
 30
0.0
 10
450.695331
 20
233.714341
 30
0.0
 10
442.515331
 20
233.714341
 30
0.0
  0
LWPOLYLINE
  5
114
100
AcDbEntity
  8
0
 62
7
100
AcDbPolyline
 90
5
 70
0
 10
442.515331
 20
300.380341
 30
0.0
 10
442.515331
 20
333.724340
 30
0.0
 10
450.695331
 20
333.724340
 30
0.0
 10
450.695331
 20
300.380341
 30
0.0
 10
442.515331
 20
300.380341
 30
0.0
  0
LWPOLYLINE
  5
115
100
AcDbEntity
  8
0
 62
7
100
AcDbPolyline
 90
5
 70
0
 10
442.515331
 20
377.803339
 30
0.0
 10
442.515331
 20
393.369340
 30
0.0
 10
450.695331
 20
393.369340
 30
0.0
 10
450.695331
 20
377.803339
 30
0.0
 10
442.515331
 20
377.803339
 30
0.0
  0
LWPOLYLINE
  5
116
100
AcDbEntity
  8
0
 62
7
100
AcDbPolyline
 90
5
 70
0
 10
442.515331
 20
408.914340
 30
0.0
 10
442.515331
 20
424.480341
 30
0.0
 10
450.695331
 20
424.480341
 30
0.0
 10
450.695331
 20
408.914340
 30
0.0
 10
442.515331
 20
408.914340
 30
0.0
  0
LWPOLYLINE
  5
117
100
AcDbEntity
  8
0
 62
7
100
AcDbPolyline
 90
35
 70
0
 10
471.141332
 20
75.231329
 30
0.0
 10
471.141332
 20
358.873340
 30
0.0
 10
477.813330
 20
358.873340
 30
0.0
 10
477.813330
 20
367.052341
 30
0.0
 10
493.359333
 20
367.052341
 30
0.0
 10
493.359333
 20
358.873340
 30
0.0
 10
508.924331
 20
358.873340
 30
0.0
 10
508.924331
 20
367.052341
 30
0.0
 10
524.470331
 20
367.052341
 30
0.0
 10
524.470331
 20
358.873340
 30
0.0
 10
531.141330
 20
358.873340
 30
0.0
 10
531.141330
 20
324.200339
 30
0.0
 10
522.962333
 20
324.200339
 30
0.0
 10
522.962333
 20
281.333341
 30
0.0
 10
531.141330
 20
281.333341
 30
0.0
 10
531.141330
 20
238.486340
 30
0.0
 10
522.962333
 20
238.486340
 30
0.0
 10
522.962333
 20
195.618354
 30
0.0
 10
531.141330
 20
195.618354
 30
0.0
 10
531.141330
 20
152.771348
 30
0.0
 10
522.962333
 20
152.771348
 30
0.0
 10
522.962333
 20
109.904332
 30
0.0
 10
531.141330
 20
109.904332
 30
0.0
 10
531.141330
 20
75.231329
 30
0.0
 10
524.470331
 20
75.231329
 30
0.0
 10
524.470331
 20
67.057326
 30
0.0
 10
522.962333
 20
67.057326
 30
0.0
 10
522.962333
 20
67.052246
 30
0.0
 10
508.924331
 20
67.052331
 30
0.0
 10
508.924331
 20
75.231329
 30
0.0
 10
493.359333
 20
75.231329
 30
0.0
 10
493.359333
 20
67.052331
 30
0.0
 10
477.813330
 20
67.052331
 30
0.0
 10
477.813330
 20
75.231329
 30
0.0
 10
471.141332
 20
75.231329
 30
0.0
  0
LWPOLYLINE
  5
118
100
AcDbEntity
  8
0
 62
7
100
AcDbPolyline
 90
33
 70
0
 10
-177.732111
 20
-116.662694
 30
0.0
 10
-177.732111
 20
-83.338684
 30
0.0
 10
-169.553111
 20
-83.338684
 30
0.0
 10
-169.553111
 20
-49.995681
 30
0.0
 10
-177.732111
 20
-49.995681
 30
0.0
 10
-177.732111
 20
-16.672687
 30
0.0
 10
-169.553111
 20
-16.672687
 30
0.0
 10
-169.553111
 20
16.671307
 30
0.0
 10
-177.732111
 20
16.671307
 30
0.0
 10
-177.732111
 20
49.994306
 30
0.0
 10
-169.553111
 20
49.994306
 30
0.0
 10
-169.553111
 20
83.337307
 30
0.0
 10
-177.732111
 20
83.337307
 30
0.0
 10
-177.732111
 20
116.661308
 30
0.0
 10
-169.553111
 20
116.661308
 30
0.0
 10
-169.553111
 20
149.999308
 30
0.0
 10
-155.515112
 20
149.999308
 30
0.0
 10
-155.515112
 20
141.820307
 30
0.0
 10
-139.949118
 20
141.820307
 30
0.0
 10
-139.949118
 20
149.999308
 30
0.0
 10
-124.404120
 20
149.999308
 30
0.0
 10
-124.404120
 20
141.820307
 30
0.0
 10
-117.732104
 20
141.820307
 30
0.0
 10
-117.732104
 20
-141.821704
 30
0.0
 10
-124.404120
 20
-141.821704
 30
0.0
 10
-124.404120
 20
-150.000702
 30
0.0
 10
-139.949118
 20
-150.000702
 30
0.0
 10
-139.949118
 20
-141.821704
 30
0.0
 10
-155.515112
 20
-141.821704
 30
0.0
 10
-155.515112
 20
-150.000702
 30
0.0
 10
-169.553111
 20
-150.000702
 30
0.0
 10
-169.553111
 20
-116.662694
 30
0.0
 10
-177.732111
 20
-116.662694
 30
0.0
  0
LWPOLYLINE
  5
119
100
AcDbEntity
  8
0
 62
7
100
AcDbPolyline
 90
18
 70
0
 10
-152.960098
 20
-129.516703
 30
0.0
 10
-152.432117
 20
-127.660696
 30
0.0
 10
-151.269107
 20
-126.120694
 30
0.0
 10
-149.629114
 20
-125.105682
 30
0.0
 10
-147.732101
 20
-124.750703
 30
0.0
 10
-145.836104
 20
-125.105682
 30
0.0
 10
-144.195123
 20
-126.120694
 30
0.0
 10
-143.033101
 20
-127.660696
 30
0.0
 10
-142.505120
 20
-129.516703
 30
0.0
 10
-142.683117
 20
-131.437705
 30
0.0
 10
-143.543105
 20
-133.164707
 30
0.0
 10
-144.968101
 20
-134.464679
 30
0.0
 10
-146.768114
 20
-135.161683
 30
0.0
 10
-148.697103
 20
-135.161683
 30
0.0
 10
-150.496101
 20
-134.464679
 30
0.0
 10
-151.922113
 20
-133.164707
 30
0.0
 10
-152.782101
 20
-131.437705
 30
0.0
 10
-152.960098
 20
-129.516703
 30
0.0
  0
LWPOLYLINE
  5
11a
100
AcDbEntity
  8
0
 62
7
100
AcDbPolyline
 90
18
 70
0
 10
-152.960098
 20
50.483307
 30
0.0
 10
-152.432117
 20
52.339308
 30
0.0
 10
-151.269107
 20
53.879307
 30
0.0
 10
-149.629114
 20
54.894308
 30
0.0
 10
-147.732101
 20
55.249307
 30
0.0
 10
-145.836104
 20
54.894308
 30
0.0
 10
-144.195123
 20
53.879307
 30
0.0
 10
-143.033101
 20
52.339308
 30
0.0
 10
-142.505120
 20
50.483307
 30
0.0
 10
-142.683117
 20
48.562308
 30
0.0
 10
-143.543105
 20
46.835308
 30
0.0
 10
-144.968101
 20
45.535308
 30
0.0
 10
-146.768114
 20
44.838307
 30
0.0
 10
-148.697103
 20
44.838307
 30
0.0
 10
-150.496101
 20
45.535308
 30
0.0
 10
-151.922113
 20
46.835308
 30
0.0
 10
-152.782101
 20
48.562308
 30
0.0
 10
-152.960098
 20
50.483307
 30
0.0
  0
ENDSEC
  0
SECTION
  2
OBJECTS
  0
DICTIONARY
  5
C
330
0
100
AcDbDictionary
  3
ACAD_GROUP
350
D
  3
ACAD_MLINESTYLE
350
17
  0
DICTIONARY
  5
D
330
C
100
AcDbDictionary
  0
DICTIONARY
  5
1A
330
C
100
AcDbDictionary
  0
DICTIONARY
  5
17
330
C
100
AcDbDictionary
  3
STANDARD
350
18
  0
DICTIONARY
  5
19
330
C
100
AcDbDictionary
  0
ENDSEC
  0
EOF
