  0
SECTION
  2
BLOCKS
  0
ENDSEC
  0
SECTION
  2
ENTITIES
  0
LINE
  8
0
 10
-323
 11
-323
 20
-146.999
 21
146.999
  0
LINE
  8
0
 10
-323
 11
-316.328
 20
146.999
 21
146.999
  0
LINE
  8
0
 10
-316.328
 11
-316.328
 20
146.999
 21
150
  0
LINE
  8
0
 10
-316.328
 11
-300.783
 20
150
 21
150
  0
LINE
  8
0
 10
-300.783
 11
-300.783
 20
150
 21
146.999
  0
LINE
  8
0
 10
-300.783
 11
-285.217
 20
146.999
 21
146.999
  0
LINE
  8
0
 10
-285.217
 11
-285.217
 20
146.999
 21
150
  0
LINE
  8
0
 10
-285.217
 11
-269.672
 20
150
 21
150
  0
LINE
  8
0
 10
-269.672
 11
-269.672
 20
150
 21
146.999
  0
LINE
  8
0
 10
-269.672
 11
-266.001
 20
146.999
 21
146.999
  0
LINE
  8
0
 10
-266.001
 11
-266.001
 20
146.999
 21
116.662
  0
LINE
  8
0
 10
-266.001
 11
-263
 20
116.662
 21
116.662
  0
LINE
  8
0
 10
-263
 11
-263
 20
116.662
 21
83.338
  0
LINE
  8
0
 10
-263
 11
-266.001
 20
83.338
 21
83.338
  0
LINE
  8
0
 10
-266.001
 11
-266.001
 20
83.338
 21
49.995
  0
LINE
  8
0
 10
-266.001
 11
-263
 20
49.995
 21
49.995
  0
LINE
  8
0
 10
-263
 11
-263
 20
49.995
 21
16.672
  0
LINE
  8
0
 10
-263
 11
-266.001
 20
16.672
 21
16.672
  0
LINE
  8
0
 10
-266.001
 11
-266.001
 20
16.672
 21
-16.672
  0
LINE
  8
0
 10
-266.001
 11
-263
 20
-16.672
 21
-16.672
  0
LINE
  8
0
 10
-263
 11
-263
 20
-16.672
 21
-49.995
  0
LINE
  8
0
 10
-263
 11
-266.001
 20
-49.995
 21
-49.995
  0
LINE
  8
0
 10
-266.001
 11
-266.001
 20
-49.995
 21
-83.338
  0
LINE
  8
0
 10
-266.001
 11
-263
 20
-83.338
 21
-83.338
  0
LINE
  8
0
 10
-263
 11
-263
 20
-83.338
 21
-116.662
  0
LINE
  8
0
 10
-263
 11
-266.001
 20
-116.662
 21
-116.662
  0
LINE
  8
0
 10
-266.001
 11
-266.001
 20
-116.662
 21
-146.999
  0
LINE
  8
0
 10
-266.001
 11
-269.672
 20
-146.999
 21
-146.999
  0
LINE
  8
0
 10
-269.672
 11
-269.672
 20
-146.999
 21
-150
  0
LINE
  8
0
 10
-269.672
 11
-285.217
 20
-150
 21
-150
  0
LINE
  8
0
 10
-285.217
 11
-285.217
 20
-150
 21
-146.999
  0
LINE
  8
0
 10
-285.217
 11
-300.783
 20
-146.999
 21
-146.999
  0
LINE
  8
0
 10
-300.783
 11
-300.783
 20
-146.999
 21
-150
  0
LINE
  8
0
 10
-300.783
 11
-316.328
 20
-150
 21
-150
  0
LINE
  8
0
 10
-316.328
 11
-316.328
 20
-150
 21
-146.999
  0
LINE
  8
0
 10
-316.328
 11
-323
 20
-146.999
 21
-146.999
  0
LINE
  8
0
 10
-298.228
 11
-297.7
 20
-129.516
 21
-127.66
  0
LINE
  8
0
 10
-297.7
 11
-296.537
 20
-127.66
 21
-126.12
  0
LINE
  8
0
 10
-296.537
 11
-294.897
 20
-126.12
 21
-125.105
  0
LINE
  8
0
 10
-294.897
 11
-293
 20
-125.105
 21
-124.75
  0
LINE
  8
0
 10
-293
 11
-291.103
 20
-124.75
 21
-125.105
  0
LINE
  8
0
 10
-291.103
 11
-289.463
 20
-125.105
 21
-126.12
  0
LINE
  8
0
 10
-289.463
 11
-288.3
 20
-126.12
 21
-127.66
  0
LINE
  8
0
 10
-288.3
 11
-287.772
 20
-127.66
 21
-129.516
  0
LINE
  8
0
 10
-287.772
 11
-287.95
 20
-129.516
 21
-131.437
  0
LINE
  8
0
 10
-287.95
 11
-288.81
 20
-131.437
 21
-133.164
  0
LINE
  8
0
 10
-288.81
 11
-290.236
 20
-133.164
 21
-134.464
  0
LINE
  8
0
 10
-290.236
 11
-292.035
 20
-134.464
 21
-135.161
  0
LINE
  8
0
 10
-292.035
 11
-293.965
 20
-135.161
 21
-135.161
  0
LINE
  8
0
 10
-293.965
 11
-295.764
 20
-135.161
 21
-134.464
  0
LINE
  8
0
 10
-295.764
 11
-297.19
 20
-134.464
 21
-133.164
  0
LINE
  8
0
 10
-297.19
 11
-298.05
 20
-133.164
 21
-131.437
  0
LINE
  8
0
 10
-298.05
 11
-298.228
 20
-131.437
 21
-129.516
  0
LINE
  8
0
 10
-298.228
 11
-297.7
 20
50.484
 21
52.34
  0
LINE
  8
0
 10
-297.7
 11
-296.537
 20
52.34
 21
53.88
  0
LINE
  8
0
 10
-296.537
 11
-294.897
 20
53.88
 21
54.895
  0
LINE
  8
0
 10
-294.897
 11
-293
 20
54.895
 21
55.25
  0
LINE
  8
0
 10
-293
 11
-291.103
 20
55.25
 21
54.895
  0
LINE
  8
0
 10
-291.103
 11
-289.463
 20
54.895
 21
53.88
  0
LINE
  8
0
 10
-289.463
 11
-288.3
 20
53.88
 21
52.34
  0
LINE
  8
0
 10
-288.3
 11
-287.772
 20
52.34
 21
50.484
  0
LINE
  8
0
 10
-287.772
 11
-287.95
 20
50.484
 21
48.563
  0
LINE
  8
0
 10
-287.95
 11
-288.81
 20
48.563
 21
46.836
  0
LINE
  8
0
 10
-288.81
 11
-290.236
 20
46.836
 21
45.536
  0
LINE
  8
0
 10
-290.236
 11
-292.035
 20
45.536
 21
44.839
  0
LINE
  8
0
 10
-292.035
 11
-293.965
 20
44.839
 21
44.839
  0
LINE
  8
0
 10
-293.965
 11
-295.764
 20
44.839
 21
45.536
  0
LINE
  8
0
 10
-295.764
 11
-297.19
 20
45.536
 21
46.836
  0
LINE
  8
0
 10
-297.19
 11
-298.05
 20
46.836
 21
48.563
  0
LINE
  8
0
 10
-298.05
 11
-298.228
 20
48.563
 21
50.484
  0
LINE
  8
0
 10
-261.5
 11
-261.5
 20
-146.999
 21
-107.148
  0
LINE
  8
0
 10
-261.5
 11
-258.5
 20
-107.148
 21
-107.148
  0
LINE
  8
0
 10
-258.5
 11
-258.5
 20
-107.148
 21
-64.281
  0
LINE
  8
0
 10
-258.5
 11
-261.5
 20
-64.281
 21
-64.281
  0
LINE
  8
0
 10
-261.5
 11
-261.5
 20
-64.281
 21
-21.434
  0
LINE
  8
0
 10
-261.5
 11
-258.5
 20
-21.434
 21
-21.434
  0
LINE
  8
0
 10
-258.5
 11
-258.5
 20
-21.434
 21
21.434
  0
LINE
  8
0
 10
-258.5
 11
-261.5
 20
21.434
 21
21.434
  0
LINE
  8
0
 10
-261.5
 11
-261.5
 20
21.434
 21
64.281
  0
LINE
  8
0
 10
-261.5
 11
-258.5
 20
64.281
 21
64.281
  0
LINE
  8
0
 10
-258.5
 11
-258.5
 20
64.281
 21
107.148
  0
LINE
  8
0
 10
-258.5
 11
-261.5
 20
107.148
 21
107.148
  0
LINE
  8
0
 10
-261.5
 11
-261.5
 20
107.148
 21
146.999
  0
LINE
  8
0
 10
-261.5
 11
-254.828
 20
146.999
 21
146.999
  0
LINE
  8
0
 10
-254.828
 11
-254.828
 20
146.999
 21
150
  0
LINE
  8
0
 10
-254.828
 11
-239.283
 20
150
 21
150
  0
LINE
  8
0
 10
-239.283
 11
-239.283
 20
150
 21
146.999
  0
LINE
  8
0
 10
-239.283
 11
-223.717
 20
146.999
 21
146.999
  0
LINE
  8
0
 10
-223.717
 11
-223.717
 20
146.999
 21
150
  0
LINE
  8
0
 10
-223.717
 11
-208.172
 20
150
 21
150
  0
LINE
  8
0
 10
-208.172
 11
-208.172
 20
150
 21
146.999
  0
LINE
  8
0
 10
-208.172
 11
-201.5
 20
146.999
 21
146.999
  0
LINE
  8
0
 10
-201.5
 11
-201.5
 20
146.999
 21
-146.999
  0
LINE
  8
0
 10
-201.5
 11
-208.172
 20
-146.999
 21
-146.999
  0
LINE
  8
0
 10
-208.172
 11
-208.172
 20
-146.999
 21
-150
  0
LINE
  8
0
 10
-208.172
 11
-223.717
 20
-150
 21
-150
  0
LINE
  8
0
 10
-223.717
 11
-223.717
 20
-150
 21
-146.999
  0
LINE
  8
0
 10
-223.717
 11
-239.283
 20
-146.999
 21
-146.999
  0
LINE
  8
0
 10
-239.283
 11
-239.283
 20
-146.999
 21
-150
  0
LINE
  8
0
 10
-239.283
 11
-254.828
 20
-150
 21
-150
  0
LINE
  8
0
 10
-254.828
 11
-254.828
 20
-150
 21
-146.999
  0
LINE
  8
0
 10
-254.828
 11
-261.5
 20
-146.999
 21
-146.999
  0
LINE
  8
0
 10
-200
 11
-200
 20
-208.499
 21
-204.838
  0
LINE
  8
0
 10
-200
 11
-196.999
 20
-204.838
 21
-204.838
  0
LINE
  8
0
 10
-196.999
 11
-196.999
 20
-204.838
 21
-189.273
  0
LINE
  8
0
 10
-196.999
 11
-200
 20
-189.273
 21
-189.273
  0
LINE
  8
0
 10
-200
 11
-200
 20
-189.273
 21
-173.727
  0
LINE
  8
0
 10
-200
 11
-196.999
 20
-173.727
 21
-173.727
  0
LINE
  8
0
 10
-196.999
 11
-196.999
 20
-173.727
 21
-158.162
  0
LINE
  8
0
 10
-196.999
 11
-200
 20
-158.162
 21
-158.162
  0
LINE
  8
0
 10
-200
 11
-200
 20
-158.162
 21
-151.5
  0
LINE
  8
0
 10
-200
 11
200
 20
-151.5
 21
-151.5
  0
LINE
  8
0
 10
200
 11
200
 20
-151.5
 21
-158.162
  0
LINE
  8
0
 10
200
 11
196.999
 20
-158.162
 21
-158.162
  0
LINE
  8
0
 10
196.999
 11
196.999
 20
-158.162
 21
-173.727
  0
LINE
  8
0
 10
196.999
 11
200
 20
-173.727
 21
-173.727
  0
LINE
  8
0
 10
200
 11
200
 20
-173.727
 21
-189.273
  0
LINE
  8
0
 10
200
 11
196.999
 20
-189.273
 21
-189.273
  0
LINE
  8
0
 10
196.999
 11
196.999
 20
-189.273
 21
-204.838
  0
LINE
  8
0
 10
196.999
 11
200
 20
-204.838
 21
-204.838
  0
LINE
  8
0
 10
200
 11
200
 20
-204.838
 21
-211.5
  0
LINE
  8
0
 10
200
 11
163.641
 20
-211.5
 21
-211.5
  0
LINE
  8
0
 10
163.641
 11
163.641
 20
-211.5
 21
-208.499
  0
LINE
  8
0
 10
163.641
 11
127.268
 20
-208.499
 21
-208.499
  0
LINE
  8
0
 10
127.268
 11
127.268
 20
-208.499
 21
-211.5
  0
LINE
  8
0
 10
127.268
 11
90.914
 20
-211.5
 21
-211.5
  0
LINE
  8
0
 10
90.914
 11
90.914
 20
-211.5
 21
-208.499
  0
LINE
  8
0
 10
90.914
 11
54.54
 20
-208.499
 21
-208.499
  0
LINE
  8
0
 10
54.54
 11
54.54
 20
-208.499
 21
-211.5
  0
LINE
  8
0
 10
54.54
 11
18.187
 20
-211.5
 21
-211.5
  0
LINE
  8
0
 10
18.187
 11
18.187
 20
-211.5
 21
-208.499
  0
LINE
  8
0
 10
18.187
 11
-18.187
 20
-208.499
 21
-208.499
  0
LINE
  8
0
 10
-18.187
 11
-18.187
 20
-208.499
 21
-211.5
  0
LINE
  8
0
 10
-18.187
 11
-54.54
 20
-211.5
 21
-211.5
  0
LINE
  8
0
 10
-54.54
 11
-54.54
 20
-211.5
 21
-208.499
  0
LINE
  8
0
 10
-54.54
 11
-90.914
 20
-208.499
 21
-208.499
  0
LINE
  8
0
 10
-90.914
 11
-90.914
 20
-208.499
 21
-211.5
  0
LINE
  8
0
 10
-90.914
 11
-127.268
 20
-211.5
 21
-211.5
  0
LINE
  8
0
 10
-127.268
 11
-127.268
 20
-211.5
 21
-208.499
  0
LINE
  8
0
 10
-127.268
 11
-163.641
 20
-208.499
 21
-208.499
  0
LINE
  8
0
 10
-163.641
 11
-163.641
 20
-208.499
 21
-211.5
  0
LINE
  8
0
 10
-163.641
 11
-199.995
 20
-211.5
 21
-211.5
  0
LINE
  8
0
 10
-199.995
 11
-199.995
 20
-211.5
 21
-208.499
  0
LINE
  8
0
 10
-199.995
 11
-200
 20
-208.499
 21
-208.499
  0
LINE
  8
0
 10
-200
 11
-200
 20
-107.138
 21
-64.291
  0
LINE
  8
0
 10
-200
 11
-196.999
 20
-64.291
 21
-64.291
  0
LINE
  8
0
 10
-196.999
 11
-196.999
 20
-64.291
 21
-21.424
  0
LINE
  8
0
 10
-196.999
 11
-200
 20
-21.424
 21
-21.424
  0
LINE
  8
0
 10
-200
 11
-200
 20
-21.424
 21
21.424
  0
LINE
  8
0
 10
-200
 11
-196.999
 20
21.424
 21
21.424
  0
LINE
  8
0
 10
-196.999
 11
-196.999
 20
21.424
 21
64.291
  0
LINE
  8
0
 10
-196.999
 11
-200
 20
64.291
 21
64.291
  0
LINE
  8
0
 10
-200
 11
-200
 20
64.291
 21
107.138
  0
LINE
  8
0
 10
-200
 11
-196.999
 20
107.138
 21
107.138
  0
LINE
  8
0
 10
-196.999
 11
-196.999
 20
107.138
 21
146.999
  0
LINE
  8
0
 10
-196.999
 11
-163.631
 20
146.999
 21
146.999
  0
LINE
  8
0
 10
-163.631
 11
-163.631
 20
146.999
 21
150
  0
LINE
  8
0
 10
-163.631
 11
-127.278
 20
150
 21
150
  0
LINE
  8
0
 10
-127.278
 11
-127.278
 20
150
 21
146.999
  0
LINE
  8
0
 10
-127.278
 11
-90.904
 20
146.999
 21
146.999
  0
LINE
  8
0
 10
-90.904
 11
-90.904
 20
146.999
 21
150
  0
LINE
  8
0
 10
-90.904
 11
-54.55
 20
150
 21
150
  0
LINE
  8
0
 10
-54.55
 11
-54.55
 20
150
 21
146.999
  0
LINE
  8
0
 10
-54.55
 11
-18.177
 20
146.999
 21
146.999
  0
LINE
  8
0
 10
-18.177
 11
-18.177
 20
146.999
 21
150
  0
LINE
  8
0
 10
-18.177
 11
18.177
 20
150
 21
150
  0
LINE
  8
0
 10
18.177
 11
18.177
 20
150
 21
146.999
  0
LINE
  8
0
 10
18.177
 11
54.55
 20
146.999
 21
146.999
  0
LINE
  8
0
 10
54.55
 11
54.55
 20
146.999
 21
150
  0
LINE
  8
0
 10
54.55
 11
90.904
 20
150
 21
150
  0
LINE
  8
0
 10
90.904
 11
90.904
 20
150
 21
146.999
  0
LINE
  8
0
 10
90.904
 11
127.278
 20
146.999
 21
146.999
  0
LINE
  8
0
 10
127.278
 11
127.278
 20
146.999
 21
150
  0
LINE
  8
0
 10
127.278
 11
163.631
 20
150
 21
150
  0
LINE
  8
0
 10
163.631
 11
163.631
 20
150
 21
146.999
  0
LINE
  8
0
 10
163.631
 11
196.999
 20
146.999
 21
146.999
  0
LINE
  8
0
 10
196.999
 11
196.999
 20
146.999
 21
107.138
  0
LINE
  8
0
 10
196.999
 11
200
 20
107.138
 21
107.138
  0
LINE
  8
0
 10
200
 11
200
 20
107.138
 21
64.291
  0
LINE
  8
0
 10
200
 11
196.999
 20
64.291
 21
64.291
  0
LINE
  8
0
 10
196.999
 11
196.999
 20
64.291
 21
21.424
  0
LINE
  8
0
 10
196.999
 11
200
 20
21.424
 21
21.424
  0
LINE
  8
0
 10
200
 11
200
 20
21.424
 21
-21.424
  0
LINE
  8
0
 10
200
 11
196.999
 20
-21.424
 21
-21.424
  0
LINE
  8
0
 10
196.999
 11
196.999
 20
-21.424
 21
-64.291
  0
LINE
  8
0
 10
196.999
 11
200
 20
-64.291
 21
-64.291
  0
LINE
  8
0
 10
200
 11
200
 20
-64.291
 21
-107.138
  0
LINE
  8
0
 10
200
 11
196.999
 20
-107.138
 21
-107.138
  0
LINE
  8
0
 10
196.999
 11
196.999
 20
-107.138
 21
-146.999
  0
LINE
  8
0
 10
196.999
 11
163.631
 20
-146.999
 21
-146.999
  0
LINE
  8
0
 10
163.631
 11
163.631
 20
-146.999
 21
-150
  0
LINE
  8
0
 10
163.631
 11
127.278
 20
-150
 21
-150
  0
LINE
  8
0
 10
127.278
 11
127.278
 20
-150
 21
-146.999
  0
LINE
  8
0
 10
127.278
 11
90.904
 20
-146.999
 21
-146.999
  0
LINE
  8
0
 10
90.904
 11
90.904
 20
-146.999
 21
-150
  0
LINE
  8
0
 10
90.904
 11
54.55
 20
-150
 21
-150
  0
LINE
  8
0
 10
54.55
 11
54.55
 20
-150
 21
-146.999
  0
LINE
  8
0
 10
54.55
 11
18.177
 20
-146.999
 21
-146.999
  0
LINE
  8
0
 10
18.177
 11
18.177
 20
-146.999
 21
-150
  0
LINE
  8
0
 10
18.177
 11
-18.177
 20
-150
 21
-150
  0
LINE
  8
0
 10
-18.177
 11
-18.177
 20
-150
 21
-146.999
  0
LINE
  8
0
 10
-18.177
 11
-54.55
 20
-146.999
 21
-146.999
  0
LINE
  8
0
 10
-54.55
 11
-54.55
 20
-146.999
 21
-150
  0
LINE
  8
0
 10
-54.55
 11
-90.904
 20
-150
 21
-150
  0
LINE
  8
0
 10
-90.904
 11
-90.904
 20
-150
 21
-146.999
  0
LINE
  8
0
 10
-90.904
 11
-127.278
 20
-146.999
 21
-146.999
  0
LINE
  8
0
 10
-127.278
 11
-127.278
 20
-146.999
 21
-150
  0
LINE
  8
0
 10
-127.278
 11
-163.631
 20
-150
 21
-150
  0
LINE
  8
0
 10
-163.631
 11
-163.631
 20
-150
 21
-146.999
  0
LINE
  8
0
 10
-163.631
 11
-196.999
 20
-146.999
 21
-146.999
  0
LINE
  8
0
 10
-196.999
 11
-196.999
 20
-146.999
 21
-107.138
  0
LINE
  8
0
 10
-196.999
 11
-200
 20
-107.138
 21
-107.138
  0
LINE
  8
0
 10
-200
 11
-200
 20
154.5
 21
158.162
  0
LINE
  8
0
 10
-200
 11
-196.999
 20
158.162
 21
158.162
  0
LINE
  8
0
 10
-196.999
 11
-196.999
 20
158.162
 21
173.727
  0
LINE
  8
0
 10
-196.999
 11
-200
 20
173.727
 21
173.727
  0
LINE
  8
0
 10
-200
 11
-200
 20
173.727
 21
189.273
  0
LINE
  8
0
 10
-200
 11
-196.999
 20
189.273
 21
189.273
  0
LINE
  8
0
 10
-196.999
 11
-196.999
 20
189.273
 21
204.838
  0
LINE
  8
0
 10
-196.999
 11
-200
 20
204.838
 21
204.838
  0
LINE
  8
0
 10
-200
 11
-200
 20
204.838
 21
211.5
  0
LINE
  8
0
 10
-200
 11
200
 20
211.5
 21
211.5
  0
LINE
  8
0
 10
200
 11
200
 20
211.5
 21
204.838
  0
LINE
  8
0
 10
200
 11
196.999
 20
204.838
 21
204.838
  0
LINE
  8
0
 10
196.999
 11
196.999
 20
204.838
 21
189.273
  0
LINE
  8
0
 10
196.999
 11
200
 20
189.273
 21
189.273
  0
LINE
  8
0
 10
200
 11
200
 20
189.273
 21
173.727
  0
LINE
  8
0
 10
200
 11
196.999
 20
173.727
 21
173.727
  0
LINE
  8
0
 10
196.999
 11
196.999
 20
173.727
 21
158.162
  0
LINE
  8
0
 10
196.999
 11
200
 20
158.162
 21
158.162
  0
LINE
  8
0
 10
200
 11
200
 20
158.162
 21
151.5
  0
LINE
  8
0
 10
200
 11
163.641
 20
151.5
 21
151.5
  0
LINE
  8
0
 10
163.641
 11
163.641
 20
151.5
 21
154.5
  0
LINE
  8
0
 10
163.641
 11
127.268
 20
154.5
 21
154.5
  0
LINE
  8
0
 10
127.268
 11
127.268
 20
154.5
 21
151.5
  0
LINE
  8
0
 10
127.268
 11
90.914
 20
151.5
 21
151.5
  0
LINE
  8
0
 10
90.914
 11
90.914
 20
151.5
 21
154.5
  0
LINE
  8
0
 10
90.914
 11
54.54
 20
154.5
 21
154.5
  0
LINE
  8
0
 10
54.54
 11
54.54
 20
154.5
 21
151.5
  0
LINE
  8
0
 10
54.54
 11
18.187
 20
151.5
 21
151.5
  0
LINE
  8
0
 10
18.187
 11
18.187
 20
151.5
 21
154.5
  0
LINE
  8
0
 10
18.187
 11
-18.187
 20
154.5
 21
154.5
  0
LINE
  8
0
 10
-18.187
 11
-18.187
 20
154.5
 21
151.5
  0
LINE
  8
0
 10
-18.187
 11
-54.54
 20
151.5
 21
151.5
  0
LINE
  8
0
 10
-54.54
 11
-54.54
 20
151.5
 21
154.5
  0
LINE
  8
0
 10
-54.54
 11
-90.914
 20
154.5
 21
154.5
  0
LINE
  8
0
 10
-90.914
 11
-90.914
 20
154.5
 21
151.5
  0
LINE
  8
0
 10
-90.914
 11
-127.268
 20
151.5
 21
151.5
  0
LINE
  8
0
 10
-127.268
 11
-127.268
 20
151.5
 21
154.5
  0
LINE
  8
0
 10
-127.268
 11
-163.641
 20
154.5
 21
154.5
  0
LINE
  8
0
 10
-163.641
 11
-163.641
 20
154.5
 21
151.5
  0
LINE
  8
0
 10
-163.641
 11
-199.995
 20
151.5
 21
151.5
  0
LINE
  8
0
 10
-199.995
 11
-199.995
 20
151.5
 21
154.5
  0
LINE
  8
0
 10
-199.995
 11
-200
 20
154.5
 21
154.5
  0
LINE
  8
0
 10
-194
 11
-194
 20
-204.838
 21
-189.273
  0
LINE
  8
0
 10
-194
 11
-190.999
 20
-189.273
 21
-189.273
  0
LINE
  8
0
 10
-190.999
 11
-190.999
 20
-189.273
 21
-204.838
  0
LINE
  8
0
 10
-190.999
 11
-194
 20
-204.838
 21
-204.838
  0
LINE
  8
0
 10
-194
 11
-194
 20
-173.727
 21
-158.162
  0
LINE
  8
0
 10
-194
 11
-190.999
 20
-158.162
 21
-158.162
  0
LINE
  8
0
 10
-190.999
 11
-190.999
 20
-158.162
 21
-173.727
  0
LINE
  8
0
 10
-190.999
 11
-194
 20
-173.727
 21
-173.727
  0
LINE
  8
0
 10
-194
 11
-194
 20
-116.672
 21
-83.328
  0
LINE
  8
0
 10
-194
 11
-190.999
 20
-83.328
 21
-83.328
  0
LINE
  8
0
 10
-190.999
 11
-190.999
 20
-83.328
 21
-116.672
  0
LINE
  8
0
 10
-190.999
 11
-194
 20
-116.672
 21
-116.672
  0
LINE
  8
0
 10
-194
 11
-194
 20
-50.005
 21
-16.662
  0
LINE
  8
0
 10
-194
 11
-190.999
 20
-16.662
 21
-16.662
  0
LINE
  8
0
 10
-190.999
 11
-190.999
 20
-16.662
 21
-50.005
  0
LINE
  8
0
 10
-190.999
 11
-194
 20
-50.005
 21
-50.005
  0
LINE
  8
0
 10
-194
 11
-194
 20
16.662
 21
50.005
  0
LINE
  8
0
 10
-194
 11
-190.999
 20
50.005
 21
50.005
  0
LINE
  8
0
 10
-190.999
 11
-190.999
 20
50.005
 21
16.662
  0
LINE
  8
0
 10
-190.999
 11
-194
 20
16.662
 21
16.662
  0
LINE
  8
0
 10
-194
 11
-194
 20
83.328
 21
116.672
  0
LINE
  8
0
 10
-194
 11
-190.999
 20
116.672
 21
116.672
  0
LINE
  8
0
 10
-190.999
 11
-190.999
 20
116.672
 21
83.328
  0
LINE
  8
0
 10
-190.999
 11
-194
 20
83.328
 21
83.328
  0
LINE
  8
0
 10
-194
 11
-194
 20
158.162
 21
173.727
  0
LINE
  8
0
 10
-194
 11
-190.999
 20
173.727
 21
173.727
  0
LINE
  8
0
 10
-190.999
 11
-190.999
 20
173.727
 21
158.162
  0
LINE
  8
0
 10
-190.999
 11
-194
 20
158.162
 21
158.162
  0
LINE
  8
0
 10
-194
 11
-194
 20
189.273
 21
204.838
  0
LINE
  8
0
 10
-194
 11
-190.999
 20
204.838
 21
204.838
  0
LINE
  8
0
 10
-190.999
 11
-190.999
 20
204.838
 21
189.273
  0
LINE
  8
0
 10
-190.999
 11
-194
 20
189.273
 21
189.273
  0
LINE
  8
0
 10
190.999
 11
190.999
 20
-204.838
 21
-189.273
  0
LINE
  8
0
 10
190.999
 11
194
 20
-189.273
 21
-189.273
  0
LINE
  8
0
 10
194
 11
194
 20
-189.273
 21
-204.838
  0
LINE
  8
0
 10
194
 11
190.999
 20
-204.838
 21
-204.838
  0
LINE
  8
0
 10
190.999
 11
190.999
 20
-173.727
 21
-158.162
  0
LINE
  8
0
 10
190.999
 11
194
 20
-158.162
 21
-158.162
  0
LINE
  8
0
 10
194
 11
194
 20
-158.162
 21
-173.727
  0
LINE
  8
0
 10
194
 11
190.999
 20
-173.727
 21
-173.727
  0
LINE
  8
0
 10
190.999
 11
190.999
 20
-116.672
 21
-83.328
  0
LINE
  8
0
 10
190.999
 11
194
 20
-83.328
 21
-83.328
  0
LINE
  8
0
 10
194
 11
194
 20
-83.328
 21
-116.672
  0
LINE
  8
0
 10
194
 11
190.999
 20
-116.672
 21
-116.672
  0
LINE
  8
0
 10
190.999
 11
190.999
 20
-50.005
 21
-16.662
  0
LINE
  8
0
 10
190.999
 11
194
 20
-16.662
 21
-16.662
  0
LINE
  8
0
 10
194
 11
194
 20
-16.662
 21
-50.005
  0
LINE
  8
0
 10
194
 11
190.999
 20
-50.005
 21
-50.005
  0
LINE
  8
0
 10
190.999
 11
190.999
 20
16.662
 21
50.005
  0
LINE
  8
0
 10
190.999
 11
194
 20
50.005
 21
50.005
  0
LINE
  8
0
 10
194
 11
194
 20
50.005
 21
16.662
  0
LINE
  8
0
 10
194
 11
190.999
 20
16.662
 21
16.662
  0
LINE
  8
0
 10
190.999
 11
190.999
 20
83.328
 21
116.672
  0
LINE
  8
0
 10
190.999
 11
194
 20
116.672
 21
116.672
  0
LINE
  8
0
 10
194
 11
194
 20
116.672
 21
83.328
  0
LINE
  8
0
 10
194
 11
190.999
 20
83.328
 21
83.328
  0
LINE
  8
0
 10
190.999
 11
190.999
 20
158.162
 21
173.727
  0
LINE
  8
0
 10
190.999
 11
194
 20
173.727
 21
173.727
  0
LINE
  8
0
 10
194
 11
194
 20
173.727
 21
158.162
  0
LINE
  8
0
 10
194
 11
190.999
 20
158.162
 21
158.162
  0
LINE
  8
0
 10
190.999
 11
190.999
 20
189.273
 21
204.838
  0
LINE
  8
0
 10
190.999
 11
194
 20
204.838
 21
204.838
  0
LINE
  8
0
 10
194
 11
194
 20
204.838
 21
189.273
  0
LINE
  8
0
 10
194
 11
190.999
 20
189.273
 21
189.273
  0
LINE
  8
0
 10
201.5
 11
201.5
 20
-146.999
 21
146.999
  0
LINE
  8
0
 10
201.5
 11
208.172
 20
146.999
 21
146.999
  0
LINE
  8
0
 10
208.172
 11
208.172
 20
146.999
 21
150
  0
LINE
  8
0
 10
208.172
 11
223.717
 20
150
 21
150
  0
LINE
  8
0
 10
223.717
 11
223.717
 20
150
 21
146.999
  0
LINE
  8
0
 10
223.717
 11
239.283
 20
146.999
 21
146.999
  0
LINE
  8
0
 10
239.283
 11
239.283
 20
146.999
 21
150
  0
LINE
  8
0
 10
239.283
 11
254.828
 20
150
 21
150
  0
LINE
  8
0
 10
254.828
 11
254.828
 20
150
 21
146.999
  0
LINE
  8
0
 10
254.828
 11
261.5
 20
146.999
 21
146.999
  0
LINE
  8
0
 10
261.5
 11
261.5
 20
146.999
 21
107.148
  0
LINE
  8
0
 10
261.5
 11
258.5
 20
107.148
 21
107.148
  0
LINE
  8
0
 10
258.5
 11
258.5
 20
107.148
 21
64.281
  0
LINE
  8
0
 10
258.5
 11
261.5
 20
64.281
 21
64.281
  0
LINE
  8
0
 10
261.5
 11
261.5
 20
64.281
 21
21.434
  0
LINE
  8
0
 10
261.5
 11
258.5
 20
21.434
 21
21.434
  0
LINE
  8
0
 10
258.5
 11
258.5
 20
21.434
 21
-21.434
  0
LINE
  8
0
 10
258.5
 11
261.5
 20
-21.434
 21
-21.434
  0
LINE
  8
0
 10
261.5
 11
261.5
 20
-21.434
 21
-64.281
  0
LINE
  8
0
 10
261.5
 11
258.5
 20
-64.281
 21
-64.281
  0
LINE
  8
0
 10
258.5
 11
258.5
 20
-64.281
 21
-107.148
  0
LINE
  8
0
 10
258.5
 11
261.5
 20
-107.148
 21
-107.148
  0
LINE
  8
0
 10
261.5
 11
261.5
 20
-107.148
 21
-146.999
  0
LINE
  8
0
 10
261.5
 11
254.828
 20
-146.999
 21
-146.999
  0
LINE
  8
0
 10
254.828
 11
254.828
 20
-146.999
 21
-150
  0
LINE
  8
0
 10
254.828
 11
239.283
 20
-150
 21
-150
  0
LINE
  8
0
 10
239.283
 11
239.283
 20
-150
 21
-146.999
  0
LINE
  8
0
 10
239.283
 11
223.717
 20
-146.999
 21
-146.999
  0
LINE
  8
0
 10
223.717
 11
223.717
 20
-146.999
 21
-150
  0
LINE
  8
0
 10
223.717
 11
208.172
 20
-150
 21
-150
  0
LINE
  8
0
 10
208.172
 11
208.172
 20
-150
 21
-146.999
  0
LINE
  8
0
 10
208.172
 11
201.5
 20
-146.999
 21
-146.999
  0
LINE
  8
0
 10
263
 11
263
 20
-116.662
 21
-83.338
  0
LINE
  8
0
 10
263
 11
266.001
 20
-83.338
 21
-83.338
  0
LINE
  8
0
 10
266.001
 11
266.001
 20
-83.338
 21
-49.995
  0
LINE
  8
0
 10
266.001
 11
263
 20
-49.995
 21
-49.995
  0
LINE
  8
0
 10
263
 11
263
 20
-49.995
 21
-16.672
  0
LINE
  8
0
 10
263
 11
266.001
 20
-16.672
 21
-16.672
  0
LINE
  8
0
 10
266.001
 11
266.001
 20
-16.672
 21
16.672
  0
LINE
  8
0
 10
266.001
 11
263
 20
16.672
 21
16.672
  0
LINE
  8
0
 10
263
 11
263
 20
16.672
 21
49.995
  0
LINE
  8
0
 10
263
 11
266.001
 20
49.995
 21
49.995
  0
LINE
  8
0
 10
266.001
 11
266.001
 20
49.995
 21
83.338
  0
LINE
  8
0
 10
266.001
 11
263
 20
83.338
 21
83.338
  0
LINE
  8
0
 10
263
 11
263
 20
83.338
 21
116.662
  0
LINE
  8
0
 10
263
 11
266.001
 20
116.662
 21
116.662
  0
LINE
  8
0
 10
266.001
 11
266.001
 20
116.662
 21
146.999
  0
LINE
  8
0
 10
266.001
 11
269.672
 20
146.999
 21
146.999
  0
LINE
  8
0
 10
269.672
 11
269.672
 20
146.999
 21
150
  0
LINE
  8
0
 10
269.672
 11
285.217
 20
150
 21
150
  0
LINE
  8
0
 10
285.217
 11
285.217
 20
150
 21
146.999
  0
LINE
  8
0
 10
285.217
 11
300.783
 20
146.999
 21
146.999
  0
LINE
  8
0
 10
300.783
 11
300.783
 20
146.999
 21
150
  0
LINE
  8
0
 10
300.783
 11
316.328
 20
150
 21
150
  0
LINE
  8
0
 10
316.328
 11
316.328
 20
150
 21
146.999
  0
LINE
  8
0
 10
316.328
 11
323
 20
146.999
 21
146.999
  0
LINE
  8
0
 10
323
 11
323
 20
146.999
 21
-146.999
  0
LINE
  8
0
 10
323
 11
316.328
 20
-146.999
 21
-146.999
  0
LINE
  8
0
 10
316.328
 11
316.328
 20
-146.999
 21
-150
  0
LINE
  8
0
 10
316.328
 11
300.783
 20
-150
 21
-150
  0
LINE
  8
0
 10
300.783
 11
300.783
 20
-150
 21
-146.999
  0
LINE
  8
0
 10
300.783
 11
285.217
 20
-146.999
 21
-146.999
  0
LINE
  8
0
 10
285.217
 11
285.217
 20
-146.999
 21
-150
  0
LINE
  8
0
 10
285.217
 11
269.672
 20
-150
 21
-150
  0
LINE
  8
0
 10
269.672
 11
269.672
 20
-150
 21
-146.999
  0
LINE
  8
0
 10
269.672
 11
266.001
 20
-146.999
 21
-146.999
  0
LINE
  8
0
 10
266.001
 11
266.001
 20
-146.999
 21
-116.662
  0
LINE
  8
0
 10
266.001
 11
263
 20
-116.662
 21
-116.662
  0
LINE
  8
0
 10
287.772
 11
288.3
 20
-129.516
 21
-127.66
  0
LINE
  8
0
 10
288.3
 11
289.463
 20
-127.66
 21
-126.12
  0
LINE
  8
0
 10
289.463
 11
291.103
 20
-126.12
 21
-125.105
  0
LINE
  8
0
 10
291.103
 11
293
 20
-125.105
 21
-124.75
  0
LINE
  8
0
 10
293
 11
294.897
 20
-124.75
 21
-125.105
  0
LINE
  8
0
 10
294.897
 11
296.537
 20
-125.105
 21
-126.12
  0
LINE
  8
0
 10
296.537
 11
297.7
 20
-126.12
 21
-127.66
  0
LINE
  8
0
 10
297.7
 11
298.228
 20
-127.66
 21
-129.516
  0
LINE
  8
0
 10
298.228
 11
298.05
 20
-129.516
 21
-131.437
  0
LINE
  8
0
 10
298.05
 11
297.19
 20
-131.437
 21
-133.164
  0
LINE
  8
0
 10
297.19
 11
295.764
 20
-133.164
 21
-134.464
  0
LINE
  8
0
 10
295.764
 11
293.965
 20
-134.464
 21
-135.161
  0
LINE
  8
0
 10
293.965
 11
292.035
 20
-135.161
 21
-135.161
  0
LINE
  8
0
 10
292.035
 11
290.236
 20
-135.161
 21
-134.464
  0
LINE
  8
0
 10
290.236
 11
288.81
 20
-134.464
 21
-133.164
  0
LINE
  8
0
 10
288.81
 11
287.95
 20
-133.164
 21
-131.437
  0
LINE
  8
0
 10
287.95
 11
287.772
 20
-131.437
 21
-129.516
  0
LINE
  8
0
 10
287.772
 11
288.3
 20
50.484
 21
52.34
  0
LINE
  8
0
 10
288.3
 11
289.463
 20
52.34
 21
53.88
  0
LINE
  8
0
 10
289.463
 11
291.103
 20
53.88
 21
54.895
  0
LINE
  8
0
 10
291.103
 11
293
 20
54.895
 21
55.25
  0
LINE
  8
0
 10
293
 11
294.897
 20
55.25
 21
54.895
  0
LINE
  8
0
 10
294.897
 11
296.537
 20
54.895
 21
53.88
  0
LINE
  8
0
 10
296.537
 11
297.7
 20
53.88
 21
52.34
  0
LINE
  8
0
 10
297.7
 11
298.228
 20
52.34
 21
50.484
  0
LINE
  8
0
 10
298.228
 11
298.05
 20
50.484
 21
48.563
  0
LINE
  8
0
 10
298.05
 11
297.19
 20
48.563
 21
46.836
  0
LINE
  8
0
 10
297.19
 11
295.764
 20
46.836
 21
45.536
  0
LINE
  8
0
 10
295.764
 11
293.965
 20
45.536
 21
44.839
  0
LINE
  8
0
 10
293.965
 11
292.035
 20
44.839
 21
44.839
  0
LINE
  8
0
 10
292.035
 11
290.236
 20
44.839
 21
45.536
  0
LINE
  8
0
 10
290.236
 11
288.81
 20
45.536
 21
46.836
  0
LINE
  8
0
 10
288.81
 11
287.95
 20
46.836
 21
48.563
  0
LINE
  8
0
 10
287.95
 11
287.772
 20
48.563
 21
50.484
  0
ENDSEC
  0
SECTION
  2
OBJECTS
  0
DICTIONARY
  0
ENDSEC
  0
EOF
