999
DXF created by Inkscape
  0
SECTION
  2
HEADER
  9
$ACADVER
  1
AC1014
  9
$HANDSEED
  5
FFFF
  9
$MEASUREMENT
 70
     1
  0
ENDSEC
  0
SECTION
  2
TABLES
  0
TABLE
  2
VPORT
  5
8
330
0
100
AcDbSymbolTable
 70
     4
  0
VPORT
  5
2E
330
8
100
AcDbSymbolTableRecord
100
AcDbViewportTableRecord
  2
*ACTIVE
 70
     0
 10
0.0
 20
0.0
 11
1.0
 21
1.0
 12
210.0
 22
148.5
 13
0.0
 23
0.0
 14
10.0
 24
10.0
 15
10.0
 25
10.0
 16
0.0
 26
0.0
 36
1.0
 17
0.0
 27
0.0
 37
0.0
 40
341.0
 41
1.24
 42
50.0
 43
0.0
 44
0.0
 50
0.0
 51
0.0
 71
     0
 72
   100
 73
     1
 74
     3
 75
     0
 76
     0
 77
     0
 78
     0
  0
ENDTAB
  0
TABLE
  2
LTYPE
  5
5
330
0
100
AcDbSymbolTable
 70
     1
  0
LTYPE
  5
14
330
5
100
AcDbSymbolTableRecord
100
AcDbLinetypeTableRecord
  2
BYBLOCK
 70
     0
  3

 72
    65
 73
     0
 40
0.0
  0
LTYPE
  5
15
330
5
100
AcDbSymbolTableRecord
100
AcDbLinetypeTableRecord
  2
BYLAYER
 70
     0
  3

 72
    65
 73
     0
 40
0.0
  0
LTYPE
  5
16
330
5
100
AcDbSymbolTableRecord
100
AcDbLinetypeTableRecord
  2
CONTINUOUS
 70
     0
  3
Solid line
 72
    65
 73
     0
 40
0.0
  0
ENDTAB
  0
TABLE
  2
LAYER
  5
2
100
AcDbSymbolTable
 70
1
  0
LAYER
  5
50
100
AcDbSymbolTableRecord
100
AcDbLayerTableRecord
  2
0
 70
0
  6
CONTINUOUS
  0
ENDTAB
  0
TABLE
  2
STYLE
  5
3
330
0
100
AcDbSymbolTable
 70
     1
  0
STYLE
  5
11
330
3
100
AcDbSymbolTableRecord
100
AcDbTextStyleTableRecord
  2
STANDARD
 70
     0
 40
0.0
 41
1.0
 50
0.0
 71
     0
 42
2.5
  3
txt
  4

  0
ENDTAB
  0
TABLE
  2
VIEW
  5
6
330
0
100
AcDbSymbolTable
 70
     0
  0
ENDTAB
  0
TABLE
  2
UCS
  5
7
330
0
100
AcDbSymbolTable
 70
     0
  0
ENDTAB
  0
TABLE
  2
APPID
  5
9
330
0
100
AcDbSymbolTable
 70
     2
  0
APPID
  5
12
330
9
100
AcDbSymbolTableRecord
100
AcDbRegAppTableRecord
  2
ACAD
 70
     0
  0
ENDTAB
  0
TABLE
  2
DIMSTYLE
  5
A
330
0
100
AcDbSymbolTable
 70
     1
  0
DIMSTYLE
105
27
330
A
100
AcDbSymbolTableRecord
100
AcDbDimStyleTableRecord
  2
ISO-25
 70
     0
  3

  4

  5

  6

  7

 40
1.0
 41
2.5
 42
0.625
 43
3.75
 44
1.25
 45
0.0
 46
0.0
 47
0.0
 48
0.0
140
2.5
141
2.5
142
0.0
143
0.03937007874016
144
1.0
145
0.0
146
1.0
147
0.625
 71
     0
 72
     0
 73
     0
 74
     0
 75
     0
 76
     0
 77
     1
 78
     8
170
     0
171
     3
172
     1
173
     0
174
     0
175
     0
176
     0
177
     0
178
     0
270
     2
271
     2
272
     2
273
     2
274
     3
340
11
275
     0
280
     0
281
     0
282
     0
283
     0
284
     8
285
     0
286
     0
287
     3
288
     0
  0
ENDTAB
  0
TABLE
  2
BLOCK_RECORD
  5
1
330
0
100
AcDbSymbolTable
 70
     1
  0
BLOCK_RECORD
  5
1F
330
1
100
AcDbSymbolTableRecord
100
AcDbBlockTableRecord
  2
*MODEL_SPACE
  0
BLOCK_RECORD
  5
1B
330
1
100
AcDbSymbolTableRecord
100
AcDbBlockTableRecord
  2
*PAPER_SPACE
  0
ENDTAB
  0
ENDSEC
  0
SECTION
  2
BLOCKS
  0
BLOCK
  5
20
330
1F
100
AcDbEntity
  8
0
100
AcDbBlockBegin
  2
*MODEL_SPACE
 70
     0
 10
0.0
 20
0.0
 30
0.0
  3
*MODEL_SPACE
  1

  0
ENDBLK
  5
21
330
1F
100
AcDbEntity
  8
0
100
AcDbBlockEnd
  0
BLOCK
  5
1C
330
1B
100
AcDbEntity
 67
     1
  8
0
100
AcDbBlockBegin
  2
*PAPER_SPACE
  1

  0
ENDBLK
  5
1D
330
1B
100
AcDbEntity
 67
     1
  8
0
100
AcDbBlockEnd
  0
ENDSEC
  0
SECTION
  2
ENTITIES
  0
LWPOLYLINE
  5
100
100
AcDbEntity
  8
0
 62
7
100
AcDbPolyline
 90
33
 70
0
 10
17.199977
 20
447.688194
 30
0.0
 10
300.841989
 20
447.688194
 30
0.0
 10
300.841989
 20
441.016178
 30
0.0
 10
309.020989
 20
441.016178
 30
0.0
 10
309.020989
 20
425.471181
 30
0.0
 10
300.841989
 20
425.471181
 30
0.0
 10
300.841989
 20
409.905186
 30
0.0
 10
309.020989
 20
409.905186
 30
0.0
 10
309.020989
 20
395.867187
 30
0.0
 10
275.682989
 20
395.867187
 30
0.0
 10
275.682989
 20
387.688187
 30
0.0
 10
242.358988
 20
387.688187
 30
0.0
 10
242.358988
 20
395.867187
 30
0.0
 10
209.015988
 20
395.867187
 30
0.0
 10
209.015988
 20
387.688187
 30
0.0
 10
175.692988
 20
387.688187
 30
0.0
 10
175.692988
 20
395.867187
 30
0.0
 10
142.348994
 20
395.867187
 30
0.0
 10
142.348994
 20
387.688187
 30
0.0
 10
109.026000
 20
387.688187
 30
0.0
 10
109.026000
 20
395.867187
 30
0.0
 10
75.682997
 20
395.867187
 30
0.0
 10
75.682997
 20
387.688187
 30
0.0
 10
42.358987
 20
387.688187
 30
0.0
 10
42.358987
 20
395.867187
 30
0.0
 10
9.020979
 20
395.867187
 30
0.0
 10
9.020979
 20
409.905186
 30
0.0
 10
17.199977
 20
409.905186
 30
0.0
 10
17.199977
 20
425.471181
 30
0.0
 10
9.020979
 20
425.471181
 30
0.0
 10
9.020979
 20
441.016178
 30
0.0
 10
17.199977
 20
441.016178
 30
0.0
 10
17.199977
 20
447.688194
 30
0.0
  0
LWPOLYLINE
  5
101
100
AcDbEntity
  8
0
 62
7
100
AcDbPolyline
 90
18
 70
0
 10
29.504979
 20
422.915179
 30
0.0
 10
31.360985
 20
422.387197
 30
0.0
 10
32.900987
 20
421.225176
 30
0.0
 10
33.915999
 20
419.584195
 30
0.0
 10
34.270978
 20
417.688197
 30
0.0
 10
33.915999
 20
415.791184
 30
0.0
 10
32.900987
 20
414.151191
 30
0.0
 10
31.360985
 20
412.988181
 30
0.0
 10
29.504979
 20
412.460200
 30
0.0
 10
27.583977
 20
412.638198
 30
0.0
 10
25.856974
 20
413.498185
 30
0.0
 10
24.557002
 20
414.924198
 30
0.0
 10
23.859998
 20
416.723195
 30
0.0
 10
23.859998
 20
418.652184
 30
0.0
 10
24.557002
 20
420.452197
 30
0.0
 10
25.856974
 20
421.877194
 30
0.0
 10
27.583977
 20
422.737181
 30
0.0
 10
29.504979
 20
422.915179
 30
0.0
  0
LWPOLYLINE
  5
102
100
AcDbEntity
  8
0
 62
7
100
AcDbPolyline
 90
18
 70
0
 10
209.504988
 20
422.915179
 30
0.0
 10
211.360989
 20
422.387197
 30
0.0
 10
212.900988
 20
421.225176
 30
0.0
 10
213.915989
 20
419.584195
 30
0.0
 10
214.270988
 20
417.688197
 30
0.0
 10
213.915989
 20
415.791184
 30
0.0
 10
212.900988
 20
414.151191
 30
0.0
 10
211.360989
 20
412.988181
 30
0.0
 10
209.504988
 20
412.460200
 30
0.0
 10
207.583989
 20
412.638198
 30
0.0
 10
205.856990
 20
413.498185
 30
0.0
 10
204.556989
 20
414.924198
 30
0.0
 10
203.859988
 20
416.723195
 30
0.0
 10
203.859988
 20
418.652184
 30
0.0
 10
204.556989
 20
420.452197
 30
0.0
 10
205.856990
 20
421.877194
 30
0.0
 10
207.583989
 20
422.737181
 30
0.0
 10
209.504988
 20
422.915179
 30
0.0
  0
LWPOLYLINE
  5
103
100
AcDbEntity
  8
0
 62
7
100
AcDbPolyline
 90
33
 70
0
 10
43.228119
 20
382.777069
 30
0.0
 10
76.552129
 20
382.777069
 30
0.0
 10
76.552129
 20
374.598068
 30
0.0
 10
109.895132
 20
374.598068
 30
0.0
 10
109.895132
 20
382.777069
 30
0.0
 10
143.218126
 20
382.777069
 30
0.0
 10
143.218126
 20
374.598068
 30
0.0
 10
176.562120
 20
374.598068
 30
0.0
 10
176.562120
 20
382.777069
 30
0.0
 10
209.885119
 20
382.777069
 30
0.0
 10
209.885119
 20
374.598068
 30
0.0
 10
243.228120
 20
374.598068
 30
0.0
 10
243.228120
 20
382.777069
 30
0.0
 10
276.552121
 20
382.777069
 30
0.0
 10
276.552121
 20
374.598068
 30
0.0
 10
309.890120
 20
374.598068
 30
0.0
 10
309.890120
 20
360.560070
 30
0.0
 10
301.711120
 20
360.560070
 30
0.0
 10
301.711120
 20
344.994075
 30
0.0
 10
309.890120
 20
344.994075
 30
0.0
 10
309.890120
 20
329.449077
 30
0.0
 10
301.711120
 20
329.449077
 30
0.0
 10
301.711120
 20
322.777062
 30
0.0
 10
18.069108
 20
322.777062
 30
0.0
 10
18.069108
 20
329.449077
 30
0.0
 10
9.890111
 20
329.449077
 30
0.0
 10
9.890111
 20
344.994075
 30
0.0
 10
18.069108
 20
344.994075
 30
0.0
 10
18.069108
 20
360.560070
 30
0.0
 10
9.890111
 20
360.560070
 30
0.0
 10
9.890111
 20
374.598068
 30
0.0
 10
43.228119
 20
374.598068
 30
0.0
 10
43.228119
 20
382.777069
 30
0.0
  0
LWPOLYLINE
  5
104
100
AcDbEntity
  8
0
 62
7
100
AcDbPolyline
 90
18
 70
0
 10
30.374110
 20
358.005055
 30
0.0
 10
32.230116
 20
357.477074
 30
0.0
 10
33.770118
 20
356.314065
 30
0.0
 10
34.785131
 20
354.674071
 30
0.0
 10
35.140110
 20
352.777058
 30
0.0
 10
34.785131
 20
350.881061
 30
0.0
 10
33.770118
 20
349.240080
 30
0.0
 10
32.230116
 20
348.078058
 30
0.0
 10
30.374110
 20
347.550077
 30
0.0
 10
28.453108
 20
347.728074
 30
0.0
 10
26.726106
 20
348.588062
 30
0.0
 10
25.426134
 20
350.013058
 30
0.0
 10
24.729130
 20
351.813072
 30
0.0
 10
24.729130
 20
353.742061
 30
0.0
 10
25.426134
 20
355.541058
 30
0.0
 10
26.726106
 20
356.967070
 30
0.0
 10
28.453108
 20
357.827058
 30
0.0
 10
30.374110
 20
358.005055
 30
0.0
  0
LWPOLYLINE
  5
105
100
AcDbEntity
  8
0
 62
7
100
AcDbPolyline
 90
18
 70
0
 10
210.374120
 20
358.005055
 30
0.0
 10
212.230121
 20
357.477074
 30
0.0
 10
213.770120
 20
356.314065
 30
0.0
 10
214.785121
 20
354.674071
 30
0.0
 10
215.140119
 20
352.777058
 30
0.0
 10
214.785121
 20
350.881061
 30
0.0
 10
213.770120
 20
349.240080
 30
0.0
 10
212.230121
 20
348.078058
 30
0.0
 10
210.374120
 20
347.550077
 30
0.0
 10
208.453121
 20
347.728074
 30
0.0
 10
206.726121
 20
348.588062
 30
0.0
 10
205.426121
 20
350.013058
 30
0.0
 10
204.729120
 20
351.813072
 30
0.0
 10
204.729120
 20
353.742061
 30
0.0
 10
205.426121
 20
355.541058
 30
0.0
 10
206.726121
 20
356.967070
 30
0.0
 10
208.453121
 20
357.827058
 30
0.0
 10
210.374120
 20
358.005055
 30
0.0
  0
ENDSEC
  0
SECTION
  2
OBJECTS
  0
DICTIONARY
  5
C
330
0
100
AcDbDictionary
  3
ACAD_GROUP
350
D
  3
ACAD_MLINESTYLE
350
17
  0
DICTIONARY
  5
D
330
C
100
AcDbDictionary
  0
DICTIONARY
  5
1A
330
C
100
AcDbDictionary
  0
DICTIONARY
  5
17
330
C
100
AcDbDictionary
  3
STANDARD
350
18
  0
DICTIONARY
  5
19
330
C
100
AcDbDictionary
  0
ENDSEC
  0
EOF
