999
DXF created by Inkscape
  0
SECTION
  2
HEADER
  9
$ACADVER
  1
AC1014
  9
$HANDSEED
  5
FFFF
  9
$MEASUREMENT
 70
     1
  0
ENDSEC
  0
SECTION
  2
TABLES
  0
TABLE
  2
VPORT
  5
8
330
0
100
AcDbSymbolTable
 70
     4
  0
VPORT
  5
2E
330
8
100
AcDbSymbolTableRecord
100
AcDbViewportTableRecord
  2
*ACTIVE
 70
     0
 10
0.0
 20
0.0
 11
1.0
 21
1.0
 12
210.0
 22
148.5
 13
0.0
 23
0.0
 14
10.0
 24
10.0
 15
10.0
 25
10.0
 16
0.0
 26
0.0
 36
1.0
 17
0.0
 27
0.0
 37
0.0
 40
341.0
 41
1.24
 42
50.0
 43
0.0
 44
0.0
 50
0.0
 51
0.0
 71
     0
 72
   100
 73
     1
 74
     3
 75
     0
 76
     0
 77
     0
 78
     0
  0
ENDTAB
  0
TABLE
  2
LTYPE
  5
5
330
0
100
AcDbSymbolTable
 70
     1
  0
LTYPE
  5
14
330
5
100
AcDbSymbolTableRecord
100
AcDbLinetypeTableRecord
  2
BYBLOCK
 70
     0
  3

 72
    65
 73
     0
 40
0.0
  0
LTYPE
  5
15
330
5
100
AcDbSymbolTableRecord
100
AcDbLinetypeTableRecord
  2
BYLAYER
 70
     0
  3

 72
    65
 73
     0
 40
0.0
  0
LTYPE
  5
16
330
5
100
AcDbSymbolTableRecord
100
AcDbLinetypeTableRecord
  2
CONTINUOUS
 70
     0
  3
Solid line
 72
    65
 73
     0
 40
0.0
  0
ENDTAB
  0
TABLE
  2
LAYER
  5
2
100
AcDbSymbolTable
 70
1
  0
LAYER
  5
50
100
AcDbSymbolTableRecord
100
AcDbLayerTableRecord
  2
0
 70
0
  6
CONTINUOUS
  0
ENDTAB
  0
TABLE
  2
STYLE
  5
3
330
0
100
AcDbSymbolTable
 70
     1
  0
STYLE
  5
11
330
3
100
AcDbSymbolTableRecord
100
AcDbTextStyleTableRecord
  2
STANDARD
 70
     0
 40
0.0
 41
1.0
 50
0.0
 71
     0
 42
2.5
  3
txt
  4

  0
ENDTAB
  0
TABLE
  2
VIEW
  5
6
330
0
100
AcDbSymbolTable
 70
     0
  0
ENDTAB
  0
TABLE
  2
UCS
  5
7
330
0
100
AcDbSymbolTable
 70
     0
  0
ENDTAB
  0
TABLE
  2
APPID
  5
9
330
0
100
AcDbSymbolTable
 70
     2
  0
APPID
  5
12
330
9
100
AcDbSymbolTableRecord
100
AcDbRegAppTableRecord
  2
ACAD
 70
     0
  0
ENDTAB
  0
TABLE
  2
DIMSTYLE
  5
A
330
0
100
AcDbSymbolTable
 70
     1
  0
DIMSTYLE
105
27
330
A
100
AcDbSymbolTableRecord
100
AcDbDimStyleTableRecord
  2
ISO-25
 70
     0
  3

  4

  5

  6

  7

 40
1.0
 41
2.5
 42
0.625
 43
3.75
 44
1.25
 45
0.0
 46
0.0
 47
0.0
 48
0.0
140
2.5
141
2.5
142
0.0
143
0.03937007874016
144
1.0
145
0.0
146
1.0
147
0.625
 71
     0
 72
     0
 73
     0
 74
     0
 75
     0
 76
     0
 77
     1
 78
     8
170
     0
171
     3
172
     1
173
     0
174
     0
175
     0
176
     0
177
     0
178
     0
270
     2
271
     2
272
     2
273
     2
274
     3
340
11
275
     0
280
     0
281
     0
282
     0
283
     0
284
     8
285
     0
286
     0
287
     3
288
     0
  0
ENDTAB
  0
TABLE
  2
BLOCK_RECORD
  5
1
330
0
100
AcDbSymbolTable
 70
     1
  0
BLOCK_RECORD
  5
1F
330
1
100
AcDbSymbolTableRecord
100
AcDbBlockTableRecord
  2
*MODEL_SPACE
  0
BLOCK_RECORD
  5
1B
330
1
100
AcDbSymbolTableRecord
100
AcDbBlockTableRecord
  2
*PAPER_SPACE
  0
ENDTAB
  0
ENDSEC
  0
SECTION
  2
BLOCKS
  0
BLOCK
  5
20
330
1F
100
AcDbEntity
  8
0
100
AcDbBlockBegin
  2
*MODEL_SPACE
 70
     0
 10
0.0
 20
0.0
 30
0.0
  3
*MODEL_SPACE
  1

  0
ENDBLK
  5
21
330
1F
100
AcDbEntity
  8
0
100
AcDbBlockEnd
  0
BLOCK
  5
1C
330
1B
100
AcDbEntity
 67
     1
  8
0
100
AcDbBlockBegin
  2
*PAPER_SPACE
  1

  0
ENDBLK
  5
1D
330
1B
100
AcDbEntity
 67
     1
  8
0
100
AcDbBlockEnd
  0
ENDSEC
  0
SECTION
  2
ENTITIES
  0
LWPOLYLINE
  5
100
100
AcDbEntity
  8
0
 62
7
100
AcDbPolyline
 90
35
 70
0
 10
2.963333
 20
75.230637
 30
0.0
 10
2.963333
 20
109.903638
 30
0.0
 10
11.142331
 20
109.903638
 30
0.0
 10
11.142331
 20
152.770657
 30
0.0
 10
2.963333
 20
152.770657
 30
0.0
 10
2.963333
 20
195.617660
 30
0.0
 10
11.142331
 20
195.617660
 30
0.0
 10
11.142331
 20
238.485646
 30
0.0
 10
2.963333
 20
238.485646
 30
0.0
 10
2.963333
 20
281.332648
 30
0.0
 10
11.142331
 20
281.332648
 30
0.0
 10
11.142331
 20
324.199646
 30
0.0
 10
2.963333
 20
324.199646
 30
0.0
 10
2.963333
 20
358.872646
 30
0.0
 10
9.634333
 20
358.872646
 30
0.0
 10
9.634333
 20
367.046648
 30
0.0
 10
11.142331
 20
367.046648
 30
0.0
 10
11.142331
 20
367.051644
 30
0.0
 10
25.180332
 20
367.051652
 30
0.0
 10
25.180332
 20
358.872649
 30
0.0
 10
40.745331
 20
358.872649
 30
0.0
 10
40.745331
 20
367.051652
 30
0.0
 10
56.291333
 20
367.051652
 30
0.0
 10
56.291333
 20
358.872649
 30
0.0
 10
62.963332
 20
358.872649
 30
0.0
 10
62.963332
 20
75.230640
 30
0.0
 10
56.291333
 20
75.230640
 30
0.0
 10
56.291333
 20
67.051640
 30
0.0
 10
40.745331
 20
67.051640
 30
0.0
 10
40.745331
 20
75.230640
 30
0.0
 10
25.180332
 20
75.230640
 30
0.0
 10
25.180332
 20
67.051640
 30
0.0
 10
9.634333
 20
67.051640
 30
0.0
 10
9.634333
 20
75.230640
 30
0.0
 10
2.963333
 20
75.230640
 30
0.0
  0
LWPOLYLINE
  5
101
100
AcDbEntity
  8
0
 62
7
100
AcDbPolyline
 90
41
 70
0
 10
67.052331
 20
25.189646
 30
0.0
 10
67.052331
 20
40.734643
 30
0.0
 10
75.231331
 20
40.734643
 30
0.0
 10
75.231331
 20
56.300638
 30
0.0
 10
67.052331
 20
56.300638
 30
0.0
 10
67.052331
 20
62.962632
 30
0.0
 10
467.052321
 20
62.962632
 30
0.0
 10
467.052321
 20
56.300638
 30
0.0
 10
458.873324
 20
56.300638
 30
0.0
 10
458.873324
 20
40.734643
 30
0.0
 10
467.052321
 20
40.734643
 30
0.0
 10
467.052321
 20
25.189646
 30
0.0
 10
458.873324
 20
25.189646
 30
0.0
 10
458.873324
 20
9.623651
 30
0.0
 10
467.052321
 20
9.623651
 30
0.0
 10
467.052321
 20
2.962642
 30
0.0
 10
430.693322
 20
2.962642
 30
0.0
 10
430.693322
 20
11.141639
 30
0.0
 10
394.320324
 20
11.141639
 30
0.0
 10
394.320324
 20
2.962642
 30
0.0
 10
357.966320
 20
2.962642
 30
0.0
 10
357.966320
 20
11.141639
 30
0.0
 10
321.592335
 20
11.141639
 30
0.0
 10
321.592335
 20
2.962642
 30
0.0
 10
285.239319
 20
2.962642
 30
0.0
 10
285.239319
 20
11.141639
 30
0.0
 10
248.865331
 20
11.141639
 30
0.0
 10
248.865331
 20
2.962642
 30
0.0
 10
212.512331
 20
2.962642
 30
0.0
 10
212.512331
 20
11.141639
 30
0.0
 10
176.138332
 20
11.141639
 30
0.0
 10
176.138332
 20
2.962642
 30
0.0
 10
139.784331
 20
2.962642
 30
0.0
 10
139.784331
 20
11.141639
 30
0.0
 10
103.411330
 20
11.141639
 30
0.0
 10
103.411330
 20
2.962642
 30
0.0
 10
67.057332
 20
2.962642
 30
0.0
 10
67.057332
 20
9.623651
 30
0.0
 10
75.231331
 20
9.623651
 30
0.0
 10
75.231331
 20
25.189646
 30
0.0
 10
67.052331
 20
25.189646
 30
0.0
  0
LWPOLYLINE
  5
102
100
AcDbEntity
  8
0
 62
7
100
AcDbPolyline
 90
69
 70
0
 10
67.052331
 20
109.913657
 30
0.0
 10
67.052331
 20
152.760638
 30
0.0
 10
75.231331
 20
152.760638
 30
0.0
 10
75.231331
 20
195.627653
 30
0.0
 10
67.052331
 20
195.627653
 30
0.0
 10
67.052331
 20
238.475647
 30
0.0
 10
75.231331
 20
238.475647
 30
0.0
 10
75.231331
 20
281.342647
 30
0.0
 10
67.052331
 20
281.342647
 30
0.0
 10
67.052331
 20
324.189647
 30
0.0
 10
75.231331
 20
324.189647
 30
0.0
 10
75.231331
 20
358.872646
 30
0.0
 10
103.421332
 20
358.872646
 30
0.0
 10
103.421332
 20
367.051649
 30
0.0
 10
139.774332
 20
367.051649
 30
0.0
 10
139.774332
 20
358.872646
 30
0.0
 10
176.148331
 20
358.872646
 30
0.0
 10
176.148331
 20
367.051649
 30
0.0
 10
212.502332
 20
367.051649
 30
0.0
 10
212.502332
 20
358.872646
 30
0.0
 10
248.875333
 20
358.872646
 30
0.0
 10
248.875333
 20
367.051649
 30
0.0
 10
285.229328
 20
367.051649
 30
0.0
 10
285.229328
 20
358.872646
 30
0.0
 10
321.602326
 20
358.872646
 30
0.0
 10
321.602326
 20
367.051649
 30
0.0
 10
357.956330
 20
367.051649
 30
0.0
 10
357.956330
 20
358.872646
 30
0.0
 10
394.330343
 20
358.872646
 30
0.0
 10
394.330343
 20
367.051649
 30
0.0
 10
430.683331
 20
367.051649
 30
0.0
 10
430.683331
 20
358.872646
 30
0.0
 10
458.873324
 20
358.872646
 30
0.0
 10
458.873324
 20
324.189647
 30
0.0
 10
467.052321
 20
324.189647
 30
0.0
 10
467.052321
 20
281.342647
 30
0.0
 10
458.873324
 20
281.342647
 30
0.0
 10
458.873324
 20
238.475647
 30
0.0
 10
467.052321
 20
238.475647
 30
0.0
 10
467.052321
 20
195.627653
 30
0.0
 10
458.873324
 20
195.627653
 30
0.0
 10
458.873324
 20
152.760638
 30
0.0
 10
467.052321
 20
152.760638
 30
0.0
 10
467.052321
 20
109.913657
 30
0.0
 10
458.873324
 20
109.913657
 30
0.0
 10
458.873324
 20
75.230637
 30
0.0
 10
430.683331
 20
75.230637
 30
0.0
 10
430.683331
 20
67.051637
 30
0.0
 10
394.330343
 20
67.051637
 30
0.0
 10
394.330343
 20
75.230637
 30
0.0
 10
357.956330
 20
75.230637
 30
0.0
 10
357.956330
 20
67.051637
 30
0.0
 10
321.602326
 20
67.051637
 30
0.0
 10
321.602326
 20
75.230637
 30
0.0
 10
285.229328
 20
75.230637
 30
0.0
 10
285.229328
 20
67.051637
 30
0.0
 10
248.875333
 20
67.051637
 30
0.0
 10
248.875333
 20
75.230637
 30
0.0
 10
212.502332
 20
75.230637
 30
0.0
 10
212.502332
 20
67.051637
 30
0.0
 10
176.148331
 20
67.051637
 30
0.0
 10
176.148331
 20
75.230637
 30
0.0
 10
139.774332
 20
75.230637
 30
0.0
 10
139.774332
 20
67.051637
 30
0.0
 10
103.421332
 20
67.051637
 30
0.0
 10
103.421332
 20
75.230637
 30
0.0
 10
75.231331
 20
75.230637
 30
0.0
 10
75.231331
 20
109.913657
 30
0.0
 10
67.052331
 20
109.913657
 30
0.0
  0
LWPOLYLINE
  5
103
100
AcDbEntity
  8
0
 62
7
100
AcDbPolyline
 90
5
 70
0
 10
83.409333
 20
9.623651
 30
0.0
 10
83.409333
 20
25.189646
 30
0.0
 10
91.589332
 20
25.189646
 30
0.0
 10
91.589332
 20
9.623651
 30
0.0
 10
83.409333
 20
9.623651
 30
0.0
  0
LWPOLYLINE
  5
104
100
AcDbEntity
  8
0
 62
7
100
AcDbPolyline
 90
5
 70
0
 10
83.409333
 20
40.734643
 30
0.0
 10
83.409333
 20
56.300638
 30
0.0
 10
91.589332
 20
56.300638
 30
0.0
 10
91.589332
 20
40.734643
 30
0.0
 10
83.409333
 20
40.734643
 30
0.0
  0
LWPOLYLINE
  5
105
100
AcDbEntity
  8
0
 62
7
100
AcDbPolyline
 90
5
 70
0
 10
83.409333
 20
100.379654
 30
0.0
 10
83.409333
 20
133.723648
 30
0.0
 10
91.589332
 20
133.723648
 30
0.0
 10
91.589332
 20
100.379654
 30
0.0
 10
83.409333
 20
100.379654
 30
0.0
  0
LWPOLYLINE
  5
106
100
AcDbEntity
  8
0
 62
7
100
AcDbPolyline
 90
5
 70
0
 10
83.409333
 20
167.046639
 30
0.0
 10
83.409333
 20
200.389645
 30
0.0
 10
91.589332
 20
200.389645
 30
0.0
 10
91.589332
 20
167.046639
 30
0.0
 10
83.409333
 20
167.046639
 30
0.0
  0
LWPOLYLINE
  5
107
100
AcDbEntity
  8
0
 62
7
100
AcDbPolyline
 90
5
 70
0
 10
83.409333
 20
233.713649
 30
0.0
 10
83.409333
 20
267.056647
 30
0.0
 10
91.589332
 20
267.056647
 30
0.0
 10
91.589332
 20
233.713649
 30
0.0
 10
83.409333
 20
233.713649
 30
0.0
  0
LWPOLYLINE
  5
108
100
AcDbEntity
  8
0
 62
7
100
AcDbPolyline
 90
5
 70
0
 10
83.409333
 20
300.379648
 30
0.0
 10
83.409333
 20
333.723646
 30
0.0
 10
91.589332
 20
333.723646
 30
0.0
 10
91.589332
 20
300.379648
 30
0.0
 10
83.409333
 20
300.379648
 30
0.0
  0
LWPOLYLINE
  5
109
100
AcDbEntity
  8
0
 62
7
100
AcDbPolyline
 90
5
 70
0
 10
83.409333
 20
377.802645
 30
0.0
 10
83.409333
 20
393.368646
 30
0.0
 10
91.589332
 20
393.368646
 30
0.0
 10
91.589332
 20
377.802645
 30
0.0
 10
83.409333
 20
377.802645
 30
0.0
  0
LWPOLYLINE
  5
10a
100
AcDbEntity
  8
0
 62
7
100
AcDbPolyline
 90
5
 70
0
 10
83.409333
 20
408.913646
 30
0.0
 10
83.409333
 20
424.479649
 30
0.0
 10
91.589332
 20
424.479649
 30
0.0
 10
91.589332
 20
408.913646
 30
0.0
 10
83.409333
 20
408.913646
 30
0.0
  0
LWPOLYLINE
  5
10b
100
AcDbEntity
  8
0
 62
7
100
AcDbPolyline
 90
41
 70
0
 10
67.052331
 20
393.368646
 30
0.0
 10
67.052331
 20
408.913646
 30
0.0
 10
75.231331
 20
408.913646
 30
0.0
 10
75.231331
 20
424.479649
 30
0.0
 10
67.052331
 20
424.479649
 30
0.0
 10
67.052331
 20
431.140647
 30
0.0
 10
467.052321
 20
431.140647
 30
0.0
 10
467.052321
 20
424.479649
 30
0.0
 10
458.873324
 20
424.479649
 30
0.0
 10
458.873324
 20
408.913646
 30
0.0
 10
467.052321
 20
408.913646
 30
0.0
 10
467.052321
 20
393.368646
 30
0.0
 10
458.873324
 20
393.368646
 30
0.0
 10
458.873324
 20
377.802645
 30
0.0
 10
467.052321
 20
377.802645
 30
0.0
 10
467.052321
 20
371.140646
 30
0.0
 10
430.693322
 20
371.140646
 30
0.0
 10
430.693322
 20
379.320645
 30
0.0
 10
394.320324
 20
379.320645
 30
0.0
 10
394.320324
 20
371.140646
 30
0.0
 10
357.966320
 20
371.140646
 30
0.0
 10
357.966320
 20
379.320645
 30
0.0
 10
321.592335
 20
379.320645
 30
0.0
 10
321.592335
 20
371.140646
 30
0.0
 10
285.239319
 20
371.140646
 30
0.0
 10
285.239319
 20
379.320645
 30
0.0
 10
248.865331
 20
379.320645
 30
0.0
 10
248.865331
 20
371.140646
 30
0.0
 10
212.512331
 20
371.140646
 30
0.0
 10
212.512331
 20
379.320645
 30
0.0
 10
176.138332
 20
379.320645
 30
0.0
 10
176.138332
 20
371.140646
 30
0.0
 10
139.784331
 20
371.140646
 30
0.0
 10
139.784331
 20
379.320645
 30
0.0
 10
103.411330
 20
379.320645
 30
0.0
 10
103.411330
 20
371.140646
 30
0.0
 10
67.057332
 20
371.140646
 30
0.0
 10
67.057332
 20
377.802645
 30
0.0
 10
75.231331
 20
377.802645
 30
0.0
 10
75.231331
 20
393.368646
 30
0.0
 10
67.052331
 20
393.368646
 30
0.0
  0
LWPOLYLINE
  5
10c
100
AcDbEntity
  8
0
 62
7
100
AcDbPolyline
 90
5
 70
0
 10
442.515329
 20
9.623651
 30
0.0
 10
442.515329
 20
25.189646
 30
0.0
 10
450.695342
 20
25.189646
 30
0.0
 10
450.695342
 20
9.623651
 30
0.0
 10
442.515329
 20
9.623651
 30
0.0
  0
LWPOLYLINE
  5
10d
100
AcDbEntity
  8
0
 62
7
100
AcDbPolyline
 90
5
 70
0
 10
442.515329
 20
40.734643
 30
0.0
 10
442.515329
 20
56.300638
 30
0.0
 10
450.695342
 20
56.300638
 30
0.0
 10
450.695342
 20
40.734643
 30
0.0
 10
442.515329
 20
40.734643
 30
0.0
  0
LWPOLYLINE
  5
10e
100
AcDbEntity
  8
0
 62
7
100
AcDbPolyline
 90
5
 70
0
 10
442.515329
 20
100.379654
 30
0.0
 10
442.515329
 20
133.723648
 30
0.0
 10
450.695342
 20
133.723648
 30
0.0
 10
450.695342
 20
100.379654
 30
0.0
 10
442.515329
 20
100.379654
 30
0.0
  0
LWPOLYLINE
  5
10f
100
AcDbEntity
  8
0
 62
7
100
AcDbPolyline
 90
5
 70
0
 10
442.515329
 20
167.046639
 30
0.0
 10
442.515329
 20
200.389645
 30
0.0
 10
450.695342
 20
200.389645
 30
0.0
 10
450.695342
 20
167.046639
 30
0.0
 10
442.515329
 20
167.046639
 30
0.0
  0
LWPOLYLINE
  5
110
100
AcDbEntity
  8
0
 62
7
100
AcDbPolyline
 90
5
 70
0
 10
442.515329
 20
233.713649
 30
0.0
 10
442.515329
 20
267.056647
 30
0.0
 10
450.695342
 20
267.056647
 30
0.0
 10
450.695342
 20
233.713649
 30
0.0
 10
442.515329
 20
233.713649
 30
0.0
  0
LWPOLYLINE
  5
111
100
AcDbEntity
  8
0
 62
7
100
AcDbPolyline
 90
5
 70
0
 10
442.515329
 20
300.379648
 30
0.0
 10
442.515329
 20
333.723646
 30
0.0
 10
450.695342
 20
333.723646
 30
0.0
 10
450.695342
 20
300.379648
 30
0.0
 10
442.515329
 20
300.379648
 30
0.0
  0
LWPOLYLINE
  5
112
100
AcDbEntity
  8
0
 62
7
100
AcDbPolyline
 90
5
 70
0
 10
442.515329
 20
377.802645
 30
0.0
 10
442.515329
 20
393.368646
 30
0.0
 10
450.695342
 20
393.368646
 30
0.0
 10
450.695342
 20
377.802645
 30
0.0
 10
442.515329
 20
377.802645
 30
0.0
  0
LWPOLYLINE
  5
113
100
AcDbEntity
  8
0
 62
7
100
AcDbPolyline
 90
5
 70
0
 10
442.515329
 20
408.913646
 30
0.0
 10
442.515329
 20
424.479649
 30
0.0
 10
450.695342
 20
424.479649
 30
0.0
 10
450.695342
 20
408.913646
 30
0.0
 10
442.515329
 20
408.913646
 30
0.0
  0
LWPOLYLINE
  5
114
100
AcDbEntity
  8
0
 62
7
100
AcDbPolyline
 90
35
 70
0
 10
471.141326
 20
75.230637
 30
0.0
 10
471.141326
 20
358.872646
 30
0.0
 10
477.813342
 20
358.872646
 30
0.0
 10
477.813342
 20
367.051649
 30
0.0
 10
493.359327
 20
367.051649
 30
0.0
 10
493.359327
 20
358.872646
 30
0.0
 10
508.924334
 20
358.872646
 30
0.0
 10
508.924334
 20
367.051649
 30
0.0
 10
524.470320
 20
367.051649
 30
0.0
 10
524.470320
 20
358.872646
 30
0.0
 10
531.141319
 20
358.872646
 30
0.0
 10
531.141319
 20
324.199646
 30
0.0
 10
522.962322
 20
324.199646
 30
0.0
 10
522.962322
 20
281.332648
 30
0.0
 10
531.141319
 20
281.332648
 30
0.0
 10
531.141319
 20
238.485646
 30
0.0
 10
522.962322
 20
238.485646
 30
0.0
 10
522.962322
 20
195.617660
 30
0.0
 10
531.141319
 20
195.617660
 30
0.0
 10
531.141319
 20
152.770657
 30
0.0
 10
522.962322
 20
152.770657
 30
0.0
 10
522.962322
 20
109.903638
 30
0.0
 10
531.141319
 20
109.903638
 30
0.0
 10
531.141319
 20
75.230637
 30
0.0
 10
524.470320
 20
75.230637
 30
0.0
 10
524.470320
 20
67.056632
 30
0.0
 10
522.962322
 20
67.056632
 30
0.0
 10
522.962322
 20
67.051552
 30
0.0
 10
508.924334
 20
67.051637
 30
0.0
 10
508.924334
 20
75.230637
 30
0.0
 10
493.359327
 20
75.230637
 30
0.0
 10
493.359327
 20
67.051637
 30
0.0
 10
477.813342
 20
67.051637
 30
0.0
 10
477.813342
 20
75.230637
 30
0.0
 10
471.141326
 20
75.230637
 30
0.0
  0
ENDSEC
  0
SECTION
  2
OBJECTS
  0
DICTIONARY
  5
C
330
0
100
AcDbDictionary
  3
ACAD_GROUP
350
D
  3
ACAD_MLINESTYLE
350
17
  0
DICTIONARY
  5
D
330
C
100
AcDbDictionary
  0
DICTIONARY
  5
1A
330
C
100
AcDbDictionary
  0
DICTIONARY
  5
17
330
C
100
AcDbDictionary
  3
STANDARD
350
18
  0
DICTIONARY
  5
19
330
C
100
AcDbDictionary
  0
ENDSEC
  0
EOF
